<?xml version="1.0" encoding="UTF-8" standalone="no"?>
<!-- Created with Inkscape (http://www.inkscape.org/) -->

<svg
   xmlns:dc="http://purl.org/dc/elements/1.1/"
   xmlns:cc="http://creativecommons.org/ns#"
   xmlns:rdf="http://www.w3.org/1999/02/22-rdf-syntax-ns#"
   xmlns:svg="http://www.w3.org/2000/svg"
   xmlns="http://www.w3.org/2000/svg"
   xmlns:xlink="http://www.w3.org/1999/xlink"
   xmlns:sodipodi="http://sodipodi.sourceforge.net/DTD/sodipodi-0.dtd"
   xmlns:inkscape="http://www.inkscape.org/namespaces/inkscape"
   width="304.09442mm"
   height="244.12222mm"
   viewBox="0 0 304.09442 244.12222"
   version="1.1"
   id="svg7430"
   inkscape:version="0.92.3 (2405546, 2018-03-11)"
   sodipodi:docname="center-west-ketrin.svg">
  <defs
     id="defs7424" />
  <sodipodi:namedview
     id="base"
     pagecolor="#ffffff"
     bordercolor="#666666"
     borderopacity="1.0"
     inkscape:pageopacity="0.0"
     inkscape:pageshadow="2"
     inkscape:zoom="0.5"
     inkscape:cx="251.11124"
     inkscape:cy="467.56832"
     inkscape:document-units="mm"
     inkscape:current-layer="layer1"
     showgrid="false"
     fit-margin-top="0"
     fit-margin-left="0"
     fit-margin-right="0"
     fit-margin-bottom="0"
     inkscape:window-width="1366"
     inkscape:window-height="715"
     inkscape:window-x="0"
     inkscape:window-y="0"
     inkscape:window-maximized="1" />
  <metadata
     id="metadata7427">
    <rdf:RDF>
      <cc:Work
         rdf:about="">
        <dc:format>image/svg+xml</dc:format>
        <dc:type
           rdf:resource="http://purl.org/dc/dcmitype/StillImage" />
        <dc:title></dc:title>
      </cc:Work>
    </rdf:RDF>
  </metadata>
  <g
     inkscape:label="Layer 1"
     inkscape:groupmode="layer"
     id="layer1"
     transform="translate(-3.3340356e-4,-3.2057017e-4)">
    <image
       sodipodi:absref="/home/aanper/project/luysy-imn-eh/pi/boot/bydefault/web/img/center.png"
       xlink:href="/home/aanper/project/luysy-imn-eh/pi/boot/bydefault/web/img/center.png"
       width="304.09442"
       height="244.12222"
       preserveAspectRatio="none"
       id="image8053"
       x="0.00033340356"
       y="0.00032057017" />
    <ellipse
       style="fill:none;fill-opacity:1;stroke:#00ff00;stroke-width:0.30000001;stroke-miterlimit:4;stroke-dasharray:none;stroke-opacity:1;paint-order:stroke fill markers"
       id="path8056"
       cx="87.557831"
       cy="140.10124"
       rx="5.238483"
       ry="4.4901276" />
    <ellipse
       style="fill:none;fill-opacity:1;stroke:#00ff00;stroke-width:0.30000001;stroke-miterlimit:4;stroke-dasharray:none;stroke-opacity:1;paint-order:stroke fill markers"
       id="path8058"
       cx="228.99687"
       cy="88.838951"
       rx="5.238483"
       ry="4.8643055" />
    <path
       style="fill:none;fill-opacity:1;stroke:#00ff00;stroke-width:0.30000001;stroke-miterlimit:4;stroke-dasharray:none;stroke-opacity:1;paint-order:stroke fill markers"
       d="m 3.1753334,46.214215 c 0.1796835,3.036983 1.7962318,0.633532 2.6458333,1.058333 0.2231162,0.111559 0.3060504,0.417608 0.5291666,0.529167 0.4233334,0.211667 1.1641667,-0.211667 1.5875,0 0.2231162,0.111559 0.3060504,0.417608 0.5291667,0.529167 0.157767,0.07888 0.3527776,0 0.5291666,0 0.5328986,0 2.8823614,-0.09755 3.1750004,0 0.23665,0.07888 0.30605,0.417607 0.529166,0.529166 0.280585,0.140293 2.285841,-0.119996 2.645834,0 0.23665,0.07888 0.30605,0.417608 0.529166,0.529167 0.235467,0.117734 1.874633,-0.08068 2.116667,0 0.23665,0.07888 0.30605,0.417608 0.529167,0.529167 0.332592,0.166296 1.784073,-0.166296 2.116666,0 0.223116,0.111559 0.306051,0.417607 0.529167,0.529166 0.157767,0.07888 0.352777,0 0.529166,0 0.352778,0 0.723659,-0.111559 1.058334,0 0.23665,0.07888 0.30605,0.417608 0.529166,0.529167 0.157767,0.07888 0.3714,-0.07888 0.529167,0 0.223116,0.111559 0.306051,0.417608 0.529167,0.529167 0.157767,0.07888 0.361829,-0.05578 0.529166,0 3.832974,1.277657 -0.834288,-0.152562 1.5875,1.058333 0.157766,0.07888 0.371399,-0.07888 0.529167,0 0.223115,0.111559 0.292515,0.450284 0.529167,0.529167 0.334674,0.111559 0.723659,-0.111559 1.058333,0 0.236651,0.07888 0.292515,0.450283 0.529167,0.529166 0.334674,0.111559 0.723659,-0.111559 1.058333,0 0.236651,0.07888 0.292515,0.450284 0.529167,0.529167 0.334674,0.111559 0.716089,-0.08556 1.058333,0 0.38264,0.09566 0.675693,0.433507 1.058333,0.529167 0.342244,0.08556 0.72366,-0.111559 1.058334,0 0.236651,0.07888 0.292515,0.450283 0.529166,0.529166 0.669349,0.223115 1.432177,-0.171122 2.116667,0 0.38264,0.09566 0.684157,0.404442 1.058333,0.529167 0.167336,0.05578 0.361829,-0.05578 0.529167,0 0.374176,0.124725 0.675693,0.433506 1.058333,0.529167 0.513366,0.128341 1.085488,-0.167339 1.5875,0 0.374177,0.124724 0.675693,0.433506 1.058334,0.529166 0.342243,0.08556 0.716089,-0.08556 1.058333,0 0.38264,0.09566 0.684157,0.404442 1.058333,0.529167 0.167336,0.05578 0.361828,-0.05578 0.529167,0 0.374176,0.124724 0.675693,0.433506 1.058333,0.529167 0.342244,0.08556 0.71609,-0.08556 1.058333,0 0.382641,0.09566 0.675693,0.433506 1.058334,0.529166 0.342244,0.08556 0.716089,-0.08556 1.058333,0 0.382641,0.09566 0.675693,0.433507 1.058333,0.529167 0.342244,0.08556 0.71609,-0.08556 1.058334,0 0.38264,0.09566 0.675693,0.433506 1.058333,0.529167 0.342244,0.08556 0.71609,-0.08556 1.058333,0 0.382641,0.09566 0.675693,0.433506 1.058334,0.529166 0.342244,0.08556 0.716089,-0.08556 1.058333,0 0.765284,0.19132 1.368311,0.808882 2.116667,1.058334 0.167335,0.05578 0.361828,-0.05578 0.529166,0 0.374177,0.124724 0.675693,0.433506 1.058334,0.529166 0.342243,0.08556 0.716089,-0.08556 1.058333,0 0.765283,0.19132 1.351383,0.867013 2.116667,1.058334 0.342243,0.08556 0.716089,-0.08556 1.058333,0 0.38264,0.09566 0.675693,0.433506 1.058333,0.529166 0.342244,0.08556 0.71609,-0.08556 1.058334,0 0.76528,0.19132 1.351383,0.867013 2.116666,1.058333 0.342244,0.08556 0.71609,-0.08556 1.058334,0 0.38264,0.09566 0.675692,0.433507 1.058333,0.529167 0.68449,0.171122 1.424813,-0.138372 2.116667,0 0.546957,0.109392 1.04054,0.419775 1.587499,0.529167 0.345927,0.06919 0.72366,-0.111559 1.058334,0 0.236651,0.07888 0.292515,0.450284 0.529166,0.529166 0.334675,0.111559 0.71609,-0.08556 1.058334,0 0.38264,0.09566 0.675693,0.433507 1.058333,0.529167 0.342244,0.08556 0.71609,-0.08556 1.058333,0 0.382641,0.09566 0.675693,0.433507 1.058334,0.529167 0.342244,0.08556 0.716089,-0.08556 1.058333,0 0.38264,0.09566 0.675693,0.433506 1.058333,0.529166 0.342244,0.08556 0.71609,-0.08556 1.058334,0 0.38264,0.09566 0.675693,0.433507 1.058333,0.529167 0.342244,0.08556 0.723659,-0.111559 1.058333,0 0.236652,0.07888 0.292516,0.450284 0.529167,0.529167 0.669348,0.223115 1.432176,-0.171122 2.116667,0 0.38264,0.09566 0.675693,0.433506 1.058333,0.529166 0.342244,0.08556 0.716089,-0.08556 1.058333,0 0.382641,0.09566 0.675693,0.433507 1.058334,0.529167 0.342243,0.08556 0.723659,-0.111559 1.058333,0 0.236651,0.07888 0.292515,0.450284 0.529167,0.529167 0.334674,0.111559 0.716089,-0.08556 1.058333,0 0.38264,0.09566 0.684154,0.404442 1.058333,0.529166 0.167336,0.05578 0.361829,-0.05578 0.529167,0 0.374176,0.124725 0.675693,0.433507 1.058333,0.529167 0.342244,0.08556 0.723659,-0.111559 1.058334,0 0.236651,0.07888 0.292515,0.450284 0.529166,0.529167 0.334674,0.111559 0.716087,-0.08556 1.058334,0 0.38264,0.09566 0.684154,0.404442 1.058333,0.529166 0.167336,0.05578 0.361828,-0.05578 0.529166,0 0.374177,0.124725 0.684155,0.404442 1.058335,0.529167 0.16733,0.05578 0.36183,-0.05578 0.52917,0 0.74835,0.249452 1.36831,0.808882 2.11666,1.058333 0.16734,0.05578 0.36183,-0.05578 0.52917,0 0.37418,0.124725 0.68415,0.404442 1.05833,0.529167 0.16734,0.05578 0.36183,-0.05578 0.52917,0 0.37418,0.124725 0.68415,0.404442 1.05833,0.529167 0.16734,0.05578 0.36183,-0.05578 0.52917,0 0.37418,0.124724 0.68415,0.404442 1.05833,0.529166 0.16734,0.05578 0.36183,-0.05578 0.52917,0 0.37418,0.124725 0.68415,0.404442 1.05833,0.529167 0.635,0.211667 0.42334,-0.211667 1.05834,0 0.37417,0.124725 0.68415,0.404442 1.05833,0.529167 0.16733,0.05578 0.3714,-0.07888 0.52917,0 0.22311,0.111559 0.30604,0.417607 0.52916,0.529166 0.31554,0.157766 0.7428,-0.157765 1.05834,0 0.22311,0.111559 0.29251,0.450284 0.52916,0.529167 2.40892,0 0.0303,-0.249452 1.5875,0.529167 0.31554,0.157765 0.7428,-0.157766 1.05834,0 0.22311,0.111559 0.30604,0.417607 0.52916,0.529166 0.15777,0.07888 0.3714,-0.07888 0.52917,0 0.22311,0.111559 0.30605,0.417608 0.52917,0.529167 0.31553,0.157766 0.74279,-0.157766 1.05833,0 0.22311,0.111559 0.30605,0.417608 0.52917,0.529167 0.42333,0.211666 1.16416,-0.211667 1.5875,0 0.22311,0.111559 0.30604,0.417607 0.52916,0.529166 0.31554,0.157766 0.7428,-0.157765 1.05834,0 0.22311,0.111559 0.30604,0.417608 0.52916,0.529167 0.15777,0.07888 0.3714,-0.07888 0.52917,0 0.22311,0.111559 0.30605,0.417608 0.52917,0.529167 0.31553,0.157765 0.74279,-0.157766 1.05833,0 0.22311,0.111559 0.30605,0.417607 0.52917,0.529166 0.31553,0.157766 0.80888,-0.249452 1.05833,0 0.12472,0.124725 -0.12473,0.404442 0,0.529167 0.26458,0.264583 1.32292,-0.264583 1.5875,0 0.12472,0.124725 -0.12473,0.404442 0,0.529167 0.24945,0.249451 0.80888,-0.249452 1.05833,0 0.12473,0.124724 -0.12473,0.404442 0,0.529166 0.26459,0.264584 1.32292,-0.264583 1.5875,0 0.12473,0.124725 -0.12473,0.404442 0,0.529167 0.14479,0.14479 1.8296,-0.143534 2.11667,0 0.22311,0.111559 0.30605,0.417608 0.52917,0.529167 0.42333,0.211666 1.16416,-0.211667 1.5875,0 0.22311,0.111558 0.30604,0.417607 0.52916,0.529166 0.56445,0.282223 0.49389,-0.282223 1.05834,0 0.22311,0.111559 0.30604,0.417608 0.52916,0.529167 0.15777,0.07888 0.3714,-0.07888 0.52917,0 0.44623,0.223115 0.6121,0.835218 1.05833,1.058333 0.15777,0.07888 0.3714,-0.07888 0.52917,0 0.22311,0.111559 0.30605,0.417608 0.52916,0.529167 0.15777,0.07888 0.40444,-0.124725 0.52917,0 0.12473,0.124724 -0.12473,0.404442 0,0.529167 0.12473,0.124724 0.40444,-0.124725 0.52917,0 0.12472,0.124724 -0.12473,0.404442 0,0.529166 0.12472,0.124725 0.40444,-0.124724 0.52916,0 0.12473,0.124725 -0.12472,0.404442 0,0.529167 1.09487,1.094864 -0.0428,-1.673098 1.05834,0.529167 0.0789,0.157765 -0.12473,0.404442 0,0.529166 0.12472,0.124725 0.40444,-0.124724 0.52916,0 0.12473,0.124725 -0.0789,0.371398 0,0.529167 0.11156,0.223115 0.41761,0.306051 0.52917,0.529166 0.0789,0.157766 -0.0789,0.371399 0,0.529167 0.11156,0.223115 0.41761,0.306052 0.52917,0.529167 0.0789,0.157766 -0.0789,0.371398 0,0.529166 0.11155,0.223116 0.41761,0.306052 0.52916,0.529167 0.0789,0.157766 -0.12472,0.404442 0,0.529167 0.12473,0.124724 0.40444,-0.124725 0.52917,0 0.12473,0.124724 -0.0789,0.371398 0,0.529166 0.11156,0.223116 0.41761,0.306052 0.52917,0.529167 0.0789,0.157766 -0.0789,0.371398 0,0.529167 0.11155,0.223115 0.41761,0.306051 0.52916,0.529166 0.0789,0.157766 -0.12472,0.404443 0,0.529167 0.12473,0.124725 0.40444,-0.124724 0.52917,0 0.12473,0.124725 -0.0789,0.371398 0,0.529167 0.11156,0.223115 0.35278,0.352777 0.52917,0.529166 0.17639,0.17639 0.30605,0.417608 0.52916,0.529167 0.15777,0.07888 0.40444,-0.124725 0.52917,0 0.12473,0.124725 -0.12473,0.404442 0,0.529167 0.12473,0.124724 0.3714,-0.07888 0.52917,0 0.22311,0.111559 0.30605,0.417607 0.52916,0.529166 0.15777,0.07888 0.3714,-0.07888 0.52917,0 0.22312,0.111559 0.30605,0.417608 0.52917,0.529167 0.15776,0.07888 0.3714,-0.07888 0.52916,0 0.22312,0.111559 0.30605,0.417608 0.52917,0.529167 0.31554,0.157765 0.7428,-0.157769 1.05833,0 0.22312,0.111559 0.30605,0.417612 0.52917,0.529162 0.28707,0.14354 1.97187,-0.14479 2.11667,0 0.12472,0.12473 -0.12473,0.40445 0,0.52917 0.12472,0.12473 0.35277,0 0.52916,0 0.17639,0 0.35278,0 0.52917,0 1.05833,0 2.11667,0 3.175,0 0.23831,0 1.42646,0.0805 1.5875,0 0.22312,-0.11156 0.30605,-0.41761 0.52917,-0.52917 0.15776,-0.0789 0.35277,0 0.52916,0 0.17639,0 0.35278,0 0.52917,0 0.88194,0 1.76389,0 2.64583,0 0.17639,0 0.35278,0 0.52917,0 0.17639,0 0.3714,0.0789 0.52917,0 0.22311,-0.11155 0.30605,-0.417603 0.52916,-0.529162 0.13914,-0.06957 1.83996,0 2.11667,0 0.19433,0 2.09537,0.0213 2.11667,0 0.12472,-0.124725 -0.12473,-0.404442 0,-0.529167 0.26458,-0.264583 1.32291,0.264583 1.5875,0 0.12472,-0.124725 -0.12473,-0.404442 0,-0.529167 0.18575,-0.185748 2.28032,0.182756 2.64583,0 0.22312,-0.111559 0.30605,-0.417607 0.52917,-0.529166 0.42333,-0.211667 1.16416,0.211666 1.5875,0 0.22311,-0.111559 0.30605,-0.417608 0.52916,-0.529167 0.16105,-0.08052 1.34919,0 1.5875,0 1.23472,0 2.46945,0 3.70417,0 0.36806,0 2.45447,-0.09568 2.64583,0 0.22312,0.111559 0.30605,0.417608 0.52917,0.529167 0.31554,0.157765 0.80888,-0.249452 1.05833,0 0.12473,0.124724 -0.12472,0.404442 0,0.529166 0.24946,0.249452 0.80889,-0.249451 1.05834,0 0,1.411106 -0.17639,-0.176389 0.52916,0.529167 0.12473,0.124725 -0.12472,0.404442 0,0.529167 0.12473,0.124724 0.3714,-0.07888 0.52917,0 0.22312,0.111559 0.30605,0.417612 0.52917,0.529162 0.15776,0.0789 0.40444,-0.12472 0.52916,0 0.12473,0.12473 -0.12472,0.40445 0,0.52917 0.12473,0.12473 0.3714,-0.0789 0.52917,0 0.635,0.3175 0.9525,1.27 1.5875,1.5875 0.15777,0.0789 0.3714,-0.0789 0.52917,0 0.635,0.3175 0.9525,1.27 1.5875,1.5875 0.15776,0.0789 0.3714,-0.0789 0.52916,0 0.22312,0.11156 0.30605,0.41761 0.52917,0.52917 0.31554,0.15776 0.80888,-0.24945 1.05833,0 0.12473,0.12472 -0.12472,0.40444 0,0.52916 0.24946,0.24946 0.7428,-0.15776 1.05834,0 0.22311,0.11156 0.30605,0.41761 0.52916,0.52917 0.20981,0.10491 1.47932,-0.10818 1.5875,0 0.12473,0.12473 -0.12472,0.40444 0,0.52917 0.12473,0.12472 0.35278,0 0.52917,0 0.17639,0 0.35278,0 0.52917,0 2.11666,0 4.23333,0 6.35,0 2.64583,0 5.29166,0 7.9375,0 0.12833,0 1.57048,0.017 1.5875,0 0.12472,-0.12473 -0.12473,-0.40444 0,-0.52917 0.12472,-0.12473 0.35277,0 0.52916,0 1.05834,0 2.11667,0 3.175,0 0.17639,0 0.40444,0.12473 0.52917,0 0.12473,-0.12473 -0.12473,-0.40444 0,-0.52917 0.10818,-0.10818 1.37769,0.10491 1.5875,0 0.22312,-0.11155 0.30605,-0.4176 0.52917,-0.52916 0.31553,-0.15777 0.80888,0.24945 1.05833,0 0.12473,-0.12473 -0.12473,-0.40444 0,-0.52917 1.09486,-1.09486 -0.0428,1.6731 1.05833,-0.52917 0.0789,-0.15776 -0.12472,-0.40444 0,-0.52916 0.12473,-0.12473 0.3714,0.0789 0.52917,0 0.22312,-0.11156 0.35278,-0.35278 0.52917,-0.52917 0.17638,-0.17639 0.4176,-0.30605 0.52916,-0.52917 0.0789,-0.15776 -0.12472,-0.40444 0,-0.52916 0.12473,-0.12473 0.40444,0.12472 0.52917,0 0.12473,-0.12473 -0.0789,-0.3714 0,-0.52917 0.11156,-0.22311 0.41761,-0.30605 0.52917,-0.52917 0.0789,-0.15776 -0.12473,-0.404438 0,-0.529162 0.12472,-0.124725 0.40444,0.124724 0.52916,0 0.12473,-0.124725 -0.12472,-0.404442 0,-0.529167 0.12473,-0.124725 0.40444,0.124725 0.52917,0 0.26458,-0.264583 -0.26458,-1.322917 0,-1.5875 0.12473,-0.124725 0.40444,0.124725 0.52917,0 0.12472,-0.124725 0,-0.352777 0,-0.529167 0,-0.176389 0,-0.352776 0,-0.529166"
       id="path8062"
       inkscape:connector-curvature="0" />
  </g>
</svg>
