<?xml version="1.0" encoding="UTF-8" standalone="no"?>
<!-- Created with Inkscape (http://www.inkscape.org/) -->

<svg
   xmlns:dc="http://purl.org/dc/elements/1.1/"
   xmlns:cc="http://creativecommons.org/ns#"
   xmlns:rdf="http://www.w3.org/1999/02/22-rdf-syntax-ns#"
   xmlns:svg="http://www.w3.org/2000/svg"
   xmlns="http://www.w3.org/2000/svg"
   xmlns:xlink="http://www.w3.org/1999/xlink"
   xmlns:sodipodi="http://sodipodi.sourceforge.net/DTD/sodipodi-0.dtd"
   xmlns:inkscape="http://www.inkscape.org/namespaces/inkscape"
   width="304.09442mm"
   height="244.12222mm"
   viewBox="0 0 304.09442 244.12222"
   version="1.1"
   id="svg7430"
   inkscape:version="0.92.3 (2405546, 2018-03-11)"
   sodipodi:docname="center-west-workshop.svg">
  <defs
     id="defs7424" />
  <sodipodi:namedview
     id="base"
     pagecolor="#ffffff"
     bordercolor="#666666"
     borderopacity="1.0"
     inkscape:pageopacity="0.0"
     inkscape:pageshadow="2"
     inkscape:zoom="0.5"
     inkscape:cx="251.11124"
     inkscape:cy="467.56832"
     inkscape:document-units="mm"
     inkscape:current-layer="layer1"
     showgrid="false"
     fit-margin-top="0"
     fit-margin-left="0"
     fit-margin-right="0"
     fit-margin-bottom="0"
     inkscape:window-width="1366"
     inkscape:window-height="715"
     inkscape:window-x="0"
     inkscape:window-y="0"
     inkscape:window-maximized="1" />
  <metadata
     id="metadata7427">
    <rdf:RDF>
      <cc:Work
         rdf:about="">
        <dc:format>image/svg+xml</dc:format>
        <dc:type
           rdf:resource="http://purl.org/dc/dcmitype/StillImage" />
        <dc:title></dc:title>
      </cc:Work>
    </rdf:RDF>
  </metadata>
  <g
     inkscape:label="Layer 1"
     inkscape:groupmode="layer"
     id="layer1"
     transform="translate(-3.3340356e-4,-3.2057017e-4)">
    <image
       sodipodi:absref="/home/aanper/project/luysy-imn-eh/pi/boot/bydefault/web/img/center.png"
       y="0.00032057017"
       x="0.00033340356"
       id="image8053"
       xlink:href="file:///home/aanper/project/luysy-imn-eh/pi/boot/bydefault/web/img/center.png"
       preserveAspectRatio="none"
       height="244.12222"
       width="304.09442" />
    <ellipse
       style="fill:none;fill-opacity:1;stroke:#00ff00;stroke-width:0.30000001;stroke-miterlimit:4;stroke-dasharray:none;stroke-opacity:1;paint-order:stroke fill markers"
       id="path8056"
       cx="87.557831"
       cy="140.10124"
       rx="5.238483"
       ry="4.4901276" />
    <ellipse
       style="fill:none;fill-opacity:1;stroke:#00ff00;stroke-width:0.30000001;stroke-miterlimit:4;stroke-dasharray:none;stroke-opacity:1;paint-order:stroke fill markers"
       id="path8058"
       cx="228.99687"
       cy="88.838951"
       rx="5.238483"
       ry="4.8643055" />
    <path
       style="fill:none;fill-opacity:1;stroke:#00ff00;stroke-width:0.30000001;stroke-miterlimit:4;stroke-dasharray:none;stroke-opacity:1;paint-order:stroke fill markers"
       d="m 1.0586667,47.272548 c 0.7055556,-0.176389 1.3893966,-0.529166 2.1166667,-0.529166 0.1706258,0 0.7643098,0.911323 1.0583333,1.058333 0.1577671,0.07888 0.3713996,-0.07888 0.5291666,0 0.4462325,0.223115 0.6121009,0.835218 1.0583334,1.058333 0.157767,0.07888 0.4044407,-0.124724 0.5291666,0 0.1247257,0.124728 -0.1247259,0.404442 0,0.529167 0.1247257,0.124727 0.3713996,-0.07888 0.5291667,0 0.2231162,0.111559 0.3060504,0.417608 0.5291666,0.529167 0.1577671,0.07888 0.3713996,-0.07888 0.5291667,0 0.2231162,0.111559 0.2925162,0.450283 0.5291667,0.529166 0.3346743,0.111559 0.7055556,0 1.0583333,0 0.1763887,0 0.3713996,-0.07888 0.5291667,0 0.223116,0.111559 0.30605,0.417608 0.529167,0.529167 0.315533,0.157768 0.723659,-0.111559 1.058333,0 0.374177,0.124725 0.684156,0.404442 1.058333,0.529167 0.334675,0.111559 0.723659,-0.111559 1.058334,0 0.374177,0.124724 0.684155,0.404442 1.058333,0.529166 0.562298,0.187434 1.554368,-0.187433 2.116667,0 0.23665,0.07888 0.30605,0.417608 0.529166,0.529167 0.423334,0.211667 1.164167,-0.211667 1.5875,0 0.223116,0.111559 0.306051,0.417608 0.529167,0.529167 0.423333,0.211666 1.164166,-0.211667 1.5875,0 0.223116,0.111559 0.292516,0.450283 0.529166,0.529166 0.562299,0.187434 1.554368,-0.187433 2.116667,0 0.374177,0.124725 0.684156,0.404442 1.058333,0.529167 0.493603,0.164534 2.156754,-0.163026 2.645834,0 0.236651,0.07888 0.306051,0.417608 0.529166,0.529167 0.157766,0.07888 0.352777,0 0.529167,0 0.4542,0 2.865395,-0.103201 3.175,0 0.236651,0.07888 0.292515,0.450283 0.529167,0.529166 0.242234,0.08075 2.350476,0 2.645833,0 1.76389,0 3.527777,0 5.291667,0 0.295357,0 2.403599,-0.08075 2.645833,0 0.236651,0.07888 0.292515,0.450284 0.529167,0.529167 0.241067,0.08036 3.345804,0 3.704166,0 0.352777,0 0.723659,-0.111559 1.058333,0 0.236652,0.07888 0.292516,0.450284 0.529167,0.529167 0.334674,0.111559 0.705557,0 1.058333,0 0.540253,0 3.447082,-0.08569 3.704167,0 0.236651,0.07888 0.306049,0.417607 0.529167,0.529166 0.332592,0.166296 1.784072,-0.166296 2.116666,0 0.223116,0.111559 0.292516,0.450284 0.529167,0.529167 0.334674,0.111559 0.705556,0 1.058333,0 0.17639,0 0.371399,-0.07888 0.529167,0 0.223115,0.111559 0.292515,0.450284 0.529167,0.529167 0.334674,0.111558 0.723659,-0.111559 1.058333,0 0.236651,0.07888 0.306049,0.417607 0.529167,0.529166 0.157765,0.07888 0.361828,-0.05578 0.529166,0 0.374177,0.124725 0.684157,0.404442 1.058334,0.529167 0.334674,0.111559 0.723659,-0.111559 1.058333,0 0.374176,0.124724 0.684157,0.404442 1.058333,0.529167 0.334674,0.111558 0.723659,-0.111559 1.058334,0 0.374176,0.124724 0.684157,0.404442 1.058333,0.529166 0.334674,0.111559 0.723659,-0.111559 1.058333,0 0.374177,0.124725 0.684157,0.404442 1.058334,0.529167 0.502012,0.167338 1.085487,-0.167339 1.5875,0 0.236651,0.07888 0.306048,0.417608 0.529166,0.529167 0.315534,0.157768 0.723659,-0.111559 1.058334,0 0.374176,0.124724 0.684156,0.404442 1.058333,0.529166 0.334674,0.111559 0.742799,-0.157766 1.058333,0 0.223115,0.111559 0.306049,0.417608 0.529167,0.529167 0.157766,0.07888 0.352777,0 0.529166,0 0.352777,0 0.72366,-0.111559 1.058334,0 0.236651,0.07888 0.306049,0.417608 0.529166,0.529167 0.157766,0.07888 0.371399,-0.07888 0.529167,0 0.223115,0.111558 0.306049,0.417607 0.529167,0.529166 0.157766,0.07888 0.371398,-0.07888 0.529166,0 0.223116,0.111559 0.306049,0.417608 0.529167,0.529167 0.157766,0.07888 0.371398,-0.07888 0.529167,0 0.223115,0.111559 0.306049,0.417608 0.529166,0.529166 0.157766,0.07888 0.371399,-0.07888 0.529167,0 0.223115,0.111559 0.306049,0.417608 0.529167,0.529167 0.315534,0.157769 0.742799,-0.157766 1.058333,0 0.223115,0.111559 0.306049,0.417608 0.529167,0.529167 0.157765,0.07888 0.371398,-0.07888 0.529166,0 0.223116,0.111559 0.306049,0.417608 0.529167,0.529166 0.315534,0.157769 0.742799,-0.157765 1.058333,0 0.223116,0.111559 0.306049,0.417608 0.529167,0.529167 0.315534,0.157766 0.742799,-0.157766 1.058333,0 1.12889,0.564444 -0.07056,0.49389 1.058334,1.058333 0.315534,0.157766 0.742799,-0.157765 1.058333,0 0.223115,0.111559 0.306049,0.417608 0.529167,0.529167 0.315534,0.157766 0.808881,-0.249452 1.058333,0 0.124725,0.124725 -0.124727,0.404442 0,0.529167 0.264583,0.264583 1.322917,-0.264584 1.5875,0 0.124725,0.124724 -0.124727,0.404442 0,0.529166 0.124725,0.124725 0.371398,-0.07888 0.529167,0 0.223115,0.111559 0.306048,0.417608 0.529166,0.529167 0.157766,0.07888 0.40444,-0.124724 0.529167,0 0.124724,0.124725 -0.124727,0.404442 0,0.529167 0.124724,0.124724 0.371398,-0.07888 0.529167,0 0.223115,0.111559 0.306048,0.417607 0.529166,0.529166 0.157766,0.07888 0.371398,-0.07888 0.529167,0 0.101293,0.05065 2.06602,2.015374 2.116667,2.116667 0.07888,0.157766 -0.124728,0.404442 0,0.529167 0.124724,0.124724 0.404439,-0.124725 0.529166,0 0.124725,0.124724 -0.124727,0.404442 0,0.529166 0.124725,0.124725 0.40444,-0.124724 0.529167,0 0.124724,0.124725 -0.07888,0.371401 0,0.529167 0.111559,0.223115 0.417608,0.306052 0.529167,0.529167 0.104904,0.209809 -0.108181,1.479319 0,1.5875 0.124724,0.124724 0.404439,-0.124725 0.529166,0 0.124725,0.124724 0,0.352777 0,0.529166 0,1.234723 0,2.469444 0,3.704167 0,0.881944 0,1.76389 0,2.645833 0,0.17639 0,0.352777 0,0.529167 0,0.17639 0.07888,0.371401 0,0.529167 -0.111559,0.223115 -0.417608,0.306051 -0.529166,0.529166 -0.166918,0.333836 0.166917,2.311998 0,2.645834 -0.111559,0.223115 -0.417608,0.306051 -0.529167,0.529166 -0.211667,0.423334 0.211667,1.164167 0,1.5875 -0.111559,0.223115 -0.417608,0.306052 -0.529167,0.529167 -0.157768,0.315534 0.157766,0.742799 0,1.058333 -0.111559,0.223115 -0.417608,0.306052 -0.529166,0.529167 -0.07888,0.157766 0.07888,0.371398 0,0.529166 -0.111559,0.223116 -0.417608,0.306052 -0.529167,0.529167 -0.157769,0.315534 0.157766,0.742799 0,1.058333 -0.111559,0.223116 -0.417608,0.306052 -0.529167,0.529167 -0.211666,0.423333 0.211667,1.164167 0,1.5875 -0.111559,0.223115 -0.417608,0.306052 -0.529166,0.529167 -0.07888,0.157765 0.05578,0.361828 0,0.529166 -0.124728,0.374177 -0.404443,0.684157 -0.529167,1.058334 -0.111559,0.334674 0.157766,0.742799 0,1.058333 -0.111559,0.223115 -0.450284,0.292515 -0.529167,0.529167 -0.111559,0.334674 0,0.705552 0,1.058332 0,0.17639 0.07888,0.3714 0,0.52917 -0.111559,0.22311 -0.417608,0.30605 -0.529166,0.52916 -0.157769,0.31554 0.157765,0.7428 0,1.05834 -0.111559,0.22311 -0.417608,0.30605 -0.529167,0.52916 -0.211667,0.42334 0.211667,1.16417 0,1.5875 -0.111559,0.22312 -0.417608,0.30606 -0.529167,0.52917 -0.157768,0.31554 0.157766,0.7428 0,1.05833 -0.111559,0.22312 -0.417608,0.30606 -0.529166,0.52917 -0.166296,0.33259 0.166295,1.78407 0,2.11667 -0.653894,1.30778 -0.529167,-0.18266 -0.529167,1.05833 0,0.12834 0.01701,1.57048 0,1.5875 -0.124727,0.12473 -0.404442,-0.12473 -0.529167,0 -0.144793,0.14479 0.143534,1.8296 0,2.11667 -0.111559,0.22311 -0.417607,0.30605 -0.529166,0.52916 -0.157769,0.31554 0.157765,0.7428 0,1.05834 -0.111559,0.22311 -0.417608,0.30605 -0.529167,0.52916 -0.07888,0.15777 0,0.35278 0,0.52917 0,0.35278 0.08556,0.71609 0,1.05833 -0.09566,0.38264 -0.404442,0.68416 -0.529167,1.05834 -0.06864,0.20591 0.08212,1.50538 0,1.5875 -0.124727,0.12472 -0.404442,-0.12473 -0.529166,0 -0.127334,0.12733 0.127333,1.98933 0,2.11666 -0.705557,0.70556 -0.529167,-0.88194 -0.529167,0.52917 0,0.36806 0.09568,2.45447 0,2.64583 -0.111559,0.22312 -0.417608,0.30606 -0.529167,0.52917 -0.09568,0.19137 0,2.27778 0,2.64583 0,1.94028 0,3.88056 0,5.82084 0,0.19433 0.0213,2.09537 0,2.11666 -0.124727,0.12473 -0.352777,0 -0.529166,0"
       id="path8125"
       inkscape:connector-curvature="0" />
  </g>
</svg>
