<?xml version="1.0" encoding="UTF-8" standalone="no"?>
<!-- Created with Inkscape (http://www.inkscape.org/) -->

<svg
   xmlns:dc="http://purl.org/dc/elements/1.1/"
   xmlns:cc="http://creativecommons.org/ns#"
   xmlns:rdf="http://www.w3.org/1999/02/22-rdf-syntax-ns#"
   xmlns:svg="http://www.w3.org/2000/svg"
   xmlns="http://www.w3.org/2000/svg"
   xmlns:xlink="http://www.w3.org/1999/xlink"
   xmlns:sodipodi="http://sodipodi.sourceforge.net/DTD/sodipodi-0.dtd"
   xmlns:inkscape="http://www.inkscape.org/namespaces/inkscape"
   width="304.09442mm"
   height="244.12222mm"
   viewBox="0 0 304.09442 244.12222"
   version="1.1"
   id="svg7430"
   inkscape:version="0.92.3 (2405546, 2018-03-11)"
   sodipodi:docname="center-vosstaniya-ketrin.svg">
  <defs
     id="defs7424" />
  <sodipodi:namedview
     id="base"
     pagecolor="#ffffff"
     bordercolor="#666666"
     borderopacity="1.0"
     inkscape:pageopacity="0.0"
     inkscape:pageshadow="2"
     inkscape:zoom="0.5"
     inkscape:cx="251.11124"
     inkscape:cy="467.56832"
     inkscape:document-units="mm"
     inkscape:current-layer="layer1"
     showgrid="false"
     fit-margin-top="0"
     fit-margin-left="0"
     fit-margin-right="0"
     fit-margin-bottom="0"
     inkscape:window-width="1366"
     inkscape:window-height="715"
     inkscape:window-x="0"
     inkscape:window-y="0"
     inkscape:window-maximized="1" />
  <metadata
     id="metadata7427">
    <rdf:RDF>
      <cc:Work
         rdf:about="">
        <dc:format>image/svg+xml</dc:format>
        <dc:type
           rdf:resource="http://purl.org/dc/dcmitype/StillImage" />
        <dc:title></dc:title>
      </cc:Work>
    </rdf:RDF>
  </metadata>
  <g
     inkscape:label="Layer 1"
     inkscape:groupmode="layer"
     id="layer1"
     transform="translate(-3.3340356e-4,-3.2057017e-4)">
    <image
       sodipodi:absref="/home/aanper/project/luysy-imn-eh/pi/boot/bydefault/web/img/center.png"
       y="0.00032057017"
       x="0.00033340356"
       id="image8053"
       xlink:href="file:///home/aanper/project/luysy-imn-eh/pi/boot/bydefault/web/img/center.png"
       preserveAspectRatio="none"
       height="244.12222"
       width="304.09442" />
    <ellipse
       style="fill:none;fill-opacity:1;stroke:#00ff00;stroke-width:0.30000001;stroke-miterlimit:4;stroke-dasharray:none;stroke-opacity:1;paint-order:stroke fill markers"
       id="path8056"
       cx="87.557831"
       cy="140.10124"
       rx="5.238483"
       ry="4.4901276" />
    <ellipse
       style="fill:none;fill-opacity:1;stroke:#00ff00;stroke-width:0.30000001;stroke-miterlimit:4;stroke-dasharray:none;stroke-opacity:1;paint-order:stroke fill markers"
       id="path8058"
       cx="228.99687"
       cy="88.838951"
       rx="5.238483"
       ry="4.8643055" />
    <path
       style="fill:none;fill-opacity:1;stroke:#00ff00;stroke-width:0.30000001;stroke-miterlimit:4;stroke-dasharray:none;stroke-opacity:1;paint-order:stroke fill markers"
       d="m 142.34616,75.318381 c -0.27042,3.194156 2.00986,-0.106812 2.64584,0.529167 0.12472,0.124725 -0.12473,0.404442 0,0.529167 0.12472,0.124724 0.3714,-0.07888 0.52916,0 0.22312,0.111559 0.30605,0.417607 0.52917,0.529166 0.15777,0.07888 0.40444,-0.124724 0.52917,0 0.12472,0.124725 -0.12473,0.404442 0,0.529167 0.12472,0.124725 0.40444,-0.124725 0.52916,0 0.12473,0.124725 -0.12472,0.404442 0,0.529167 0.12473,0.124724 0.40444,-0.124725 0.52917,0 0.24945,0.249451 -0.24945,0.808881 0,1.058333 0.12473,0.124725 0.40444,-0.124725 0.52917,0 0.12472,0.124725 -0.12473,0.404442 0,0.529167 0.12472,0.124724 0.40444,-0.124725 0.52916,0 0.12473,0.124724 -0.12472,0.404442 0,0.529166 0.12473,0.124725 0.40444,-0.124724 0.52917,0 0.12473,0.124725 -0.12473,0.404442 0,0.529167 0.24945,0.249452 0.80888,-0.249452 1.05833,0 0.12473,0.124725 -0.12472,0.404442 0,0.529167 0.24946,0.249451 0.7428,-0.157766 1.05834,0 0.22311,0.111559 0.30605,0.417607 0.52916,0.529166 0.31554,0.157766 0.80889,-0.249452 1.05834,0 0.12472,0.124725 -0.12473,0.404442 0,0.529167 0.26458,0.264583 1.32291,-0.264583 1.5875,0 0.12472,0.124725 -0.12473,0.404442 0,0.529167 0.12733,0.127333 1.98933,-0.127334 2.11666,0 0.12473,0.124724 -0.12472,0.404442 0,0.529166 0.16386,0.163854 2.48198,-0.163854 2.64584,0 0.12472,0.124725 -0.12473,0.404442 0,0.529167 0.12472,0.124724 0.35277,0 0.52916,0 1.23473,0 2.46945,0 3.70417,0 0.36806,0 2.45447,-0.09568 2.64583,0 1.30779,0.653891 -0.18265,0.529167 1.05834,0.529167 0.36805,0 2.45447,0.09568 2.64583,0 0.22312,-0.111559 0.30605,-0.417608 0.52917,-0.529167 0.16104,-0.08052 1.34918,0 1.5875,0 1.41111,0 2.82222,0 4.23333,0 0.36806,0 2.45447,-0.09568 2.64583,0 0.22312,0.111559 0.30605,0.417608 0.52917,0.529167 0.20981,0.104904 1.47932,-0.108181 1.5875,0 0.12473,0.124724 -0.12473,0.404442 0,0.529166 0.10818,0.10818 1.37769,-0.104904 1.5875,0 0.22312,0.111559 0.30605,0.417608 0.52917,0.529167 0.31553,0.157766 0.7428,-0.157766 1.05833,0 0.22312,0.111559 0.30605,0.417608 0.52917,0.529167 0.31553,0.157765 0.80888,-0.249452 1.05833,0 0.12473,0.124724 -0.12473,0.404442 0,0.529166 0.24945,0.249452 0.7428,-0.157766 1.05833,0 0.22312,0.111559 0.30605,0.417608 0.52917,0.529167 0.15777,0.07888 0.3714,-0.07888 0.52917,0 0.22311,0.111559 0.30605,0.417608 0.52916,0.529167 0.15777,0.07888 0.3714,-0.07888 0.52917,0 0.22312,0.111558 0.30605,0.417607 0.52917,0.529166 0.15776,0.07888 0.3714,-0.07888 0.52916,0 0.22312,0.111559 0.30605,0.417608 0.52917,0.529167 0.31554,0.157766 0.80888,-0.249452 1.05833,0 0.12473,0.124724 -0.12472,0.404442 0,0.529167 0.12473,0.124724 0.3714,-0.07888 0.52917,0 0.22312,0.111558 0.30605,0.417607 0.52917,0.529166 0.15776,0.07888 0.35277,0 0.52916,0 0.17639,0.17639 0.30605,0.417608 0.52917,0.529167 0.31554,0.157766 0.7428,-0.157769 1.05833,0 0.22312,0.111559 0.30605,0.417608 0.52917,0.529166 0.15777,0.07888 0.3714,-0.07888 0.52917,0 0.22311,0.111559 0.30605,0.417608 0.52916,0.529167 0.31554,0.157766 0.7428,-0.157768 1.05834,0 0.22311,0.111559 0.30605,0.417608 0.52916,0.529167 0.15777,0.07888 0.3714,-0.07888 0.52917,0 0.22312,0.111559 0.30605,0.417608 0.52917,0.529166 0.31553,0.157766 0.7428,-0.157768 1.05833,0 0.22312,0.111559 0.30605,0.417608 0.52917,0.529167 0.31553,0.157766 0.80888,-0.249452 1.05833,0 0.12473,0.124725 -0.12473,0.404442 0,0.529167 0.24945,0.249452 0.80888,-0.249452 1.05833,0 0.12473,0.124724 -0.12472,0.404442 0,0.529166 0.24946,0.249452 0.80889,-0.249451 1.05834,0 0.12472,0.124725 -0.12473,0.404443 0,0.529167 0.26458,0.264583 1.32291,-0.264583 1.5875,0 0.12472,0.124725 -0.12473,0.404442 0,0.529167 0.24945,0.249452 0.80888,-0.249452 1.05833,0 0.12473,0.124724 -0.12473,0.404442 0,0.529166 0.24945,0.249452 0.7428,-0.157768 1.05833,0 0.22312,0.111559 0.30605,0.417608 0.52917,0.529167 0.42333,0.211667 1.16417,-0.211667 1.5875,0 0.22312,0.111559 0.30605,0.417608 0.52917,0.529167 0.42333,0.211666 1.16416,-0.211667 1.5875,0 0.22311,0.111559 0.30605,0.417607 0.52916,0.529166 0.13682,0.06841 2.79993,0 3.175,0 2.29306,0 4.58611,0 6.87917,0 1.05833,0 2.11667,0 3.175,0 0.23831,0 1.42646,0.08052 1.5875,0 0.22312,-0.111559 0.30605,-0.417607 0.52917,-0.529166 0.66564,-0.332822 1.05833,0.759986 1.05833,-0.529167"
       id="path8213"
       inkscape:connector-curvature="0" />
  </g>
</svg>
