<?xml version="1.0" encoding="UTF-8" standalone="no"?>
<!-- Created with Inkscape (http://www.inkscape.org/) -->

<svg
   xmlns:dc="http://purl.org/dc/elements/1.1/"
   xmlns:cc="http://creativecommons.org/ns#"
   xmlns:rdf="http://www.w3.org/1999/02/22-rdf-syntax-ns#"
   xmlns:svg="http://www.w3.org/2000/svg"
   xmlns="http://www.w3.org/2000/svg"
   xmlns:xlink="http://www.w3.org/1999/xlink"
   xmlns:sodipodi="http://sodipodi.sourceforge.net/DTD/sodipodi-0.dtd"
   xmlns:inkscape="http://www.inkscape.org/namespaces/inkscape"
   width="304.09442mm"
   height="244.12222mm"
   viewBox="0 0 304.09442 244.12222"
   version="1.1"
   id="svg7430"
   inkscape:version="0.92.3 (2405546, 2018-03-11)"
   sodipodi:docname="center-ketrin-north.svg">
  <defs
     id="defs7424" />
  <sodipodi:namedview
     id="base"
     pagecolor="#ffffff"
     bordercolor="#666666"
     borderopacity="1.0"
     inkscape:pageopacity="0.0"
     inkscape:pageshadow="2"
     inkscape:zoom="0.5"
     inkscape:cx="251.11124"
     inkscape:cy="467.56832"
     inkscape:document-units="mm"
     inkscape:current-layer="layer1"
     showgrid="false"
     fit-margin-top="0"
     fit-margin-left="0"
     fit-margin-right="0"
     fit-margin-bottom="0"
     inkscape:window-width="1366"
     inkscape:window-height="715"
     inkscape:window-x="0"
     inkscape:window-y="0"
     inkscape:window-maximized="1" />
  <metadata
     id="metadata7427">
    <rdf:RDF>
      <cc:Work
         rdf:about="">
        <dc:format>image/svg+xml</dc:format>
        <dc:type
           rdf:resource="http://purl.org/dc/dcmitype/StillImage" />
        <dc:title></dc:title>
      </cc:Work>
    </rdf:RDF>
  </metadata>
  <g
     inkscape:label="Layer 1"
     inkscape:groupmode="layer"
     id="layer1"
     transform="translate(-3.3340356e-4,-3.2057017e-4)">
    <image
       sodipodi:absref="/home/aanper/project/luysy-imn-eh/pi/boot/bydefault/web/img/center.png"
       y="0.00032057017"
       x="0.00033340356"
       id="image8053"
       xlink:href="file:///home/aanper/project/luysy-imn-eh/pi/boot/bydefault/web/img/center.png"
       preserveAspectRatio="none"
       height="244.12222"
       width="304.09442" />
    <ellipse
       style="fill:none;fill-opacity:1;stroke:#00ff00;stroke-width:0.30000001;stroke-miterlimit:4;stroke-dasharray:none;stroke-opacity:1;paint-order:stroke fill markers"
       id="path8056"
       cx="87.557831"
       cy="140.10124"
       rx="5.238483"
       ry="4.4901276" />
    <ellipse
       style="fill:none;fill-opacity:1;stroke:#00ff00;stroke-width:0.30000001;stroke-miterlimit:4;stroke-dasharray:none;stroke-opacity:1;paint-order:stroke fill markers"
       id="path8058"
       cx="228.99687"
       cy="88.838951"
       rx="5.238483"
       ry="4.8643055" />
    <path
       style="fill:none;fill-opacity:1;stroke:#00ff00;stroke-width:0.30000001;stroke-miterlimit:4;stroke-dasharray:none;stroke-opacity:1;paint-order:stroke fill markers"
       d="m 230.18783,90.664214 c 0,1.5875 0,3.175 0,4.7625 0,0.17639 0,0.352777 0,0.529167 0,0.17639 0.0789,0.371398 0,0.529167 -0.11156,0.223115 -0.41761,0.306051 -0.52917,0.529166 -0.0789,0.157766 0.12473,0.404442 0,0.529167 -0.12472,0.124725 -0.40444,-0.124725 -0.52916,0 -0.12473,0.124725 0.12472,0.404442 0,0.529167 -0.12473,0.124724 -0.40444,-0.124725 -0.52917,0 -0.12473,0.124724 0.12473,0.404442 0,0.529166 -0.12473,0.124725 -0.3714,-0.07888 -0.52917,0 -0.22311,0.111559 -0.30605,0.417608 -0.52916,0.529167 -0.15777,0.07888 -0.3714,-0.07888 -0.52917,0 -0.22312,0.111559 -0.30605,0.417608 -0.52917,0.529167 -0.31553,0.157765 -0.80888,-0.249452 -1.05833,0 -0.12473,0.124724 0.12473,0.404442 0,0.529162 -0.24945,0.24946 -0.7428,-0.15776 -1.05833,0 -0.22312,0.11156 -0.30605,0.41761 -0.52917,0.52917 -0.42333,0.21167 -1.16417,-0.21167 -1.5875,0 -0.22312,0.11156 -0.30605,0.41761 -0.52917,0.52917 -0.42333,0.21166 -1.16416,-0.21167 -1.5875,0 -0.22311,0.11156 -0.29251,0.45028 -0.52916,0.52916 -0.50202,0.16734 -1.05834,0 -1.5875,0 -1.41112,0 -2.82223,0 -4.23334,0 -1.5875,0 -3.175,0 -4.7625,0 -0.44311,0 -2.24342,0.10061 -2.64583,0 -0.38264,-0.0957 -0.68416,-0.40444 -1.05833,-0.52916 -0.5623,-0.18744 -1.55437,0.18743 -2.11667,0 -0.37418,-0.12473 -0.68416,-0.40444 -1.05833,-0.52917 -0.16734,-0.0558 -0.3714,0.0789 -0.52917,0 -0.22312,-0.11156 -0.29252,-0.45028 -0.52917,-0.52917 -0.33467,-0.11155 -0.72366,0.11156 -1.05833,0 -0.23665,-0.0789 -0.30605,-0.417603 -0.52917,-0.529162 -0.15776,-0.07888 -0.3714,0.07888 -0.52916,0 -0.22312,-0.111559 -0.30605,-0.417608 -0.52917,-0.529167 -0.15777,-0.07888 -0.35278,0 -0.52917,0 -0.35278,0 -0.72365,0.111559 -1.05833,0 -0.23665,-0.07888 -0.30605,-0.417608 -0.52917,-0.529167 -0.31553,-0.157768 -0.74279,0.157766 -1.05833,0 -0.22312,-0.111559 -0.30605,-0.417607 -0.52917,-0.529166 -0.15776,-0.07888 -0.35278,0 -0.52916,0 -0.35278,0 -0.72366,0.111559 -1.05834,0 -0.23665,-0.07888 -0.30605,-0.417608 -0.52916,-0.529167 -0.15777,-0.07888 -0.3714,0.07888 -0.52917,0 -0.22312,-0.111559 -0.30605,-0.417608 -0.52917,-0.529167 -0.15776,-0.07888 -0.3714,0.07888 -0.52916,0 -0.22312,-0.111559 -0.29252,-0.450283 -0.52917,-0.529166 -0.33467,-0.111559 -0.70556,0 -1.05833,0 -0.17639,0 -0.3714,0.07888 -0.52917,0 -0.22312,-0.111559 -0.29252,-0.450284 -0.52917,-0.529167 -0.50201,-0.167338 -1.05833,0 -1.5875,0 -0.35278,0 -0.70555,0 -1.05833,0 -0.35278,0 -0.72366,0.111559 -1.05833,0 -0.23665,-0.07888 -0.29252,-0.450284 -0.52917,-0.529167 -0.3096,-0.1032 -2.7208,0 -3.175,0 -0.17639,0 -0.3714,0.07888 -0.52917,0 -1.75502,-1.755026 0.49891,0.249452 -1.05833,-0.529166 -0.22312,-0.111559 -0.29252,-0.450284 -0.52917,-0.529167 -0.33467,-0.111559 -0.72365,0.111559 -1.05833,0 -0.23665,-0.07888 -0.30605,-0.417608 -0.52917,-0.529167 -0.15776,-0.07888 -0.3714,0.07888 -0.52916,0 -0.22312,-0.111558 -0.30605,-0.417607 -0.52917,-0.529166 -0.15777,-0.07888 -0.3714,0.07888 -0.52917,0 -0.28262,-0.141309 -1.30891,-1.308912 -1.5875,-1.5875 -0.17639,-0.17639 -0.30605,-0.417608 -0.52916,-0.529167 -0.93674,-0.468371 -0.18082,0.787101 -1.05834,-0.529167 -0.21878,-0.328175 -0.31038,-0.730157 -0.52916,-1.058333 -0.27675,-0.415113 -0.83522,-0.6121 -1.05834,-1.058333 -0.0789,-0.157766 0,-0.352777 0,-0.529167 -0.17639,-0.352777 -0.31038,-0.730157 -0.52916,-1.058333 -0.13837,-0.207555 -0.3908,-0.321612 -0.52917,-0.529167 -0.65128,-0.976923 -0.93622,-2.198076 -1.5875,-3.175 -0.13837,-0.207555 -0.3908,-0.321611 -0.52917,-0.529166 -0.21878,-0.328176 -0.35277,-0.705557 -0.52916,-1.058334 -0.17639,-0.352777 -0.40444,-0.684157 -0.52917,-1.058333 -0.0558,-0.167338 0.0558,-0.361828 0,-0.529167 -0.12473,-0.374176 -0.35278,-0.705556 -0.52917,-1.058333 -0.17639,-0.352777 -0.31038,-0.730157 -0.52916,-1.058333 -0.27675,-0.415113 -0.90057,-0.585034 -1.05834,-1.058334 -0.11155,-0.334674 0.11156,-0.723659 0,-1.058333 -0.0789,-0.236651 -0.45028,-0.292515 -0.52916,-0.529167 0,-2.408917 0.24945,-0.03026 -0.52917,-1.5875 -0.17535,-0.350692 0.14784,-1.673158 0,-2.116666 -0.12473,-0.374177 -0.43351,-0.675693 -0.52917,-1.058334 -0.1006,-0.402412 0,-2.202714 0,-2.645833 0,-0.352777 0.11156,-0.723659 0,-1.058333 -0.0789,-0.236651 -0.45028,-0.292516 -0.52916,-0.529167 -0.11156,-0.334674 0,-0.705556 0,-1.058333 0,-0.295357 0.0807,-2.4036 0,-2.645833 -0.0789,-0.236652 -0.45029,-0.292516 -0.52917,-0.529167 -0.11156,-0.334674 0,-0.705557 0,-1.058333 0,-0.352777 0,-0.705557 0,-1.058334 0,-1.940277 0,-3.880556 0,-5.820833 0,-2.067163 -0.15777,-0.05587 0.52917,-2.116667 0.16901,-0.507052 -0.16341,-2.155608 0,-2.645833 0.0789,-0.236651 0.45028,-0.292515 0.52916,-0.529167 0.11156,-0.334674 -0.11155,-0.723659 0,-1.058333 0.0789,-0.236651 0.45029,-0.292515 0.52917,-0.529167 0.11156,-0.334674 -0.11156,-0.723659 0,-1.058333 0.0789,-0.236651 0.45028,-0.292515 0.52917,-0.529167 0.11155,-0.334674 -0.11156,-0.723659 0,-1.058333 0.0789,-0.236651 0.39079,-0.321609 0.52916,-0.529167 0.21879,-0.328176 0.31039,-0.730157 0.52917,-1.058333 0.13837,-0.207555 0.45028,-0.292515 0.52917,-0.529167 0.11155,-0.334674 -0.0856,-0.716089 0,-1.058333 0.28684,-1.147373 1.30066,-1.49846 1.5875,-2.645833 0.0856,-0.342244 -0.11156,-0.723659 0,-1.058334 0.0789,-0.236651 0.45028,-0.292515 0.52916,-0.529166 0,-2.408918 -0.24945,-0.03026 0.52917,-1.5875 0.0789,-0.157766 -0.0558,-0.361828 0,-0.529167 0.12473,-0.374176 0.40444,-0.684157 0.52917,-1.058333 0.0558,-0.167336 -0.0789,-0.371398 0,-0.529167 0.11155,-0.223115 0.41761,-0.306051 0.52916,-0.529166 0.0789,-0.157766 0,-0.352777 0,-0.529167 0.17639,-0.352777 0.31039,-0.730157 0.52917,-1.058333 0.13837,-0.207555 0.41761,-0.306052 0.52917,-0.529167 0.0789,-0.157766 -0.0558,-0.361828 0,-0.529167 0.12472,-0.374176 0.40444,-0.684157 0.52916,-1.058333 0.0558,-0.167336 0,-0.352777 0,-0.529167 0,-0.352777 -0.11155,-0.723659 0,-1.058333 0.0789,-0.236651 0.41761,-0.306052 0.52917,-0.529167 0.0789,-0.157765 0,-0.352777 0,-0.529166 0,-0.352778 0,-0.705556 0,-1.058333 0,-1.234723 0,-2.469445 0,-3.704167 0,-0.614717 -0.11993,-2.166119 0,-2.645833 0.0957,-0.382642 0.43351,-0.675692 0.52917,-1.058334 0.17112,-0.684489 -0.17112,-1.432177 0,-2.116666 0.0957,-0.382642 0.4335,-0.675692 0.52916,-1.058334 0.0856,-0.342244 0,-0.705555 0,-1.058333 0,-0.352778 0,-0.705556 0,-1.058333 0,-1.058334 0,-2.116667 0,-3.1750002 0,-1.411111 0,-2.822222 0,-4.2333333 0,-0.2383142 0.0805,-1.4264566 0,-1.5875 -0.65389,-1.3077848 -0.52916,0.1826567 -0.52916,-1.0583333 0,-0.5291666 0,-1.0583332 0,-1.5874999 0,-0.1763889 0.17639,-0.52916664 0,-0.52916664 -0.24945,0 -0.35278,0.35277774 -0.52917,0.52916664"
       id="path8083"
       inkscape:connector-curvature="0" />
  </g>
</svg>
