<?xml version="1.0" encoding="UTF-8" standalone="no"?>
<!-- Created with Inkscape (http://www.inkscape.org/) -->

<svg
   xmlns:dc="http://purl.org/dc/elements/1.1/"
   xmlns:cc="http://creativecommons.org/ns#"
   xmlns:rdf="http://www.w3.org/1999/02/22-rdf-syntax-ns#"
   xmlns:svg="http://www.w3.org/2000/svg"
   xmlns="http://www.w3.org/2000/svg"
   xmlns:xlink="http://www.w3.org/1999/xlink"
   xmlns:sodipodi="http://sodipodi.sourceforge.net/DTD/sodipodi-0.dtd"
   xmlns:inkscape="http://www.inkscape.org/namespaces/inkscape"
   version="1.1"
   id="svg815"
   width="1110.6667"
   height="812"
   viewBox="0 0 1110.6667 812"
   sodipodi:docname="chr-landrin-landrin.svg"
   inkscape:version="0.92.3 (2405546, 2018-03-11)">
  <metadata
     id="metadata821">
    <rdf:RDF>
      <cc:Work
         rdf:about="">
        <dc:format>image/svg+xml</dc:format>
        <dc:type
           rdf:resource="http://purl.org/dc/dcmitype/StillImage" />
        <dc:title></dc:title>
      </cc:Work>
    </rdf:RDF>
  </metadata>
  <defs
     id="defs819" />
  <sodipodi:namedview
     pagecolor="#ffffff"
     bordercolor="#666666"
     borderopacity="1"
     objecttolerance="10"
     gridtolerance="10"
     guidetolerance="10"
     inkscape:pageopacity="0"
     inkscape:pageshadow="2"
     inkscape:window-width="1366"
     inkscape:window-height="715"
     id="namedview817"
     showgrid="false"
     inkscape:zoom="0.84817981"
     inkscape:cx="1001.3183"
     inkscape:cy="255.4684"
     inkscape:window-x="0"
     inkscape:window-y="0"
     inkscape:window-maximized="1"
     inkscape:current-layer="svg815"
     fit-margin-top="0"
     fit-margin-left="0"
     fit-margin-right="0"
     fit-margin-bottom="0"
     showguides="false" />
  <image
     sodipodi:absref="/home/aanper/project/luysy-imn-eh/pi/boot/bydefault/web/svg/../img/chr.png"
     xlink:href="../img/chr.png"
     y="0"
     x="0"
     id="image823"
     preserveAspectRatio="none"
     height="812"
     width="1110.6667" />
  <ellipse
     style="fill:#00ff00;fill-opacity:1;stroke:#00ff00;stroke-width:1.00157475;stroke-miterlimit:4;stroke-dasharray:none;stroke-opacity:1;paint-order:stroke fill markers"
     id="path832"
     cx="377.23819"
     cy="655.68585"
     rx="6.2525668"
     ry="5.8357291" />
  <ellipse
     style="fill:#00ff00;fill-opacity:1;stroke:#00ff00;stroke-width:0.24566929;stroke-miterlimit:4;stroke-dasharray:none;stroke-opacity:1;paint-order:stroke fill markers"
     id="path843"
     cx="606.49896"
     cy="399.22638"
     rx="2.7094455"
     ry="2.1883984" />
  <circle
     style="fill:#00ff00;fill-opacity:1;stroke:#00ff00;stroke-width:0.24566929;stroke-miterlimit:4;stroke-dasharray:none;stroke-opacity:1;paint-order:stroke fill markers"
     id="path845"
     cx="475.19507"
     cy="635.2608"
     r="3.7515399" />
  <ellipse
     style="fill:#00ff00;fill-opacity:1;stroke:#00ff00;stroke-width:0.24566929;stroke-miterlimit:4;stroke-dasharray:none;stroke-opacity:1;paint-order:stroke fill markers"
     id="path847"
     cx="871.39941"
     cy="165.69302"
     rx="2.7094455"
     ry="2.5010266" />
  <ellipse
     style="fill:#00ff00;fill-opacity:1;stroke:#00ff00;stroke-width:0.24566929;stroke-miterlimit:4;stroke-dasharray:none;stroke-opacity:1;paint-order:stroke fill markers"
     id="path849"
     cx="404.43686"
     cy="128.38603"
     rx="3.6473305"
     ry="3.3347023" />
  <ellipse
     style="fill:#00ff00;fill-opacity:1;stroke:#00ff00;stroke-width:0.24566929;stroke-miterlimit:4;stroke-dasharray:none;stroke-opacity:1;paint-order:stroke fill markers"
     id="path851"
     cx="452.06058"
     cy="53.980492"
     rx="2.7094455"
     ry="3.1262834" />
  <ellipse
     style="fill:#00ff00;fill-opacity:1;stroke:#00ff00;stroke-width:0.24566929;stroke-miterlimit:4;stroke-dasharray:none;stroke-opacity:1;paint-order:stroke fill markers"
     id="path853"
     cx="288.76437"
     cy="90.662216"
     rx="2.8136551"
     ry="2.5010266" />
  <ellipse
     style="fill:#00ff00;fill-opacity:1;stroke:#00ff00;stroke-width:0.24566929;stroke-miterlimit:4;stroke-dasharray:none;stroke-opacity:1;paint-order:stroke fill markers"
     id="path855"
     cx="1073.2531"
     cy="687.88654"
     rx="3.4389117"
     ry="3.2304928" />
  <ellipse
     style="fill:#00ff00;fill-opacity:1;stroke:#00ff00;stroke-width:0.24566929;stroke-miterlimit:4;stroke-dasharray:none;stroke-opacity:1;paint-order:stroke fill markers"
     id="path857"
     cx="1017.3968"
     cy="608.89581"
     rx="3.022074"
     ry="2.6052361" />
  <path
     style="fill:none;fill-opacity:1;stroke:#00ff00;stroke-width:1.13385832;stroke-miterlimit:4;stroke-dasharray:none;stroke-opacity:1;paint-order:stroke fill markers"
     d="m 1018.6519,610.39181 c 3.7728,-5.03038 1.572,-4.71599 4.716,-4.71599 0.393,0 0.9011,0.2779 1.179,0 0.2779,-0.27789 -0.2779,-0.9011 0,-1.17899 0.2779,-0.27789 0.9011,0.27789 1.179,0 0.2779,-0.27789 -0.2779,-0.9011 0,-1.179 0.2779,-0.27789 0.9011,0.2779 1.179,0 0.2779,-0.27789 -0.2779,-0.9011 0,-1.17899 0.5558,-0.55579 1.655,0.35151 2.358,0 0.4971,-0.24856 0.6819,-0.93044 1.179,-1.179 0.3048,-0.15241 6.2383,0 7.074,0 0.393,0 0.8274,0.17576 1.1789,0 0.4972,-0.24855 0.6819,-0.93044 1.179,-1.17899 0.4264,-0.21318 5.075,0 5.895,0 0.393,0 0.9011,-0.27789 1.179,0 0.2779,0.27789 -0.2779,0.9011 0,1.17899 0.241,0.24103 3.0695,-0.23373 3.537,0 0.4971,0.24856 0.6819,0.93044 1.179,1.179 0.703,0.35151 1.655,-0.35151 2.358,0 0.4971,0.24855 0.6819,0.93044 1.179,1.17899 0.4674,0.23373 3.2959,-0.24103 3.537,0 0.2779,0.2779 -0.2779,0.90111 0,1.179 0.2779,0.27789 0.786,0 1.179,0 2.358,0 4.7159,0 7.0739,0 0.393,0 0.8275,0.17575 1.179,0 0.4971,-0.24855 0.6819,-0.93044 1.179,-1.179 0.4675,-0.23373 3.296,0.24103 3.537,0 0.2779,-0.27789 -0.2779,-0.9011 0,-1.17899 0.5558,-0.55579 1.655,0.35151 2.358,0 0.4971,-0.24856 0.6819,-0.93044 1.179,-1.179 0.703,-0.35151 1.655,0.35151 2.358,0 0.4971,-0.24855 0.6819,-0.93044 1.179,-1.17899 0.703,-0.35151 1.8022,0.55578 2.358,0 0.2779,-0.27789 -0.2779,-0.90111 0,-1.179 0.5558,-0.55578 1.8022,0.55579 2.358,0 0.5557,-0.55578 -0.3515,-1.65497 0,-2.35799 0.2485,-0.49711 0.9304,-0.68189 1.179,-1.17899 0.1757,-0.35151 -0.1758,-0.82749 0,-1.179 0.2485,-0.49711 0.9304,-0.68189 1.179,-1.17899 0.4071,-0.81438 -0.4139,-5.48113 0,-5.89498 0.2778,-0.27789 0.9011,0.27789 1.179,0 0.1179,-0.1179 0.1179,-3.41909 0,-3.53699 -0.2779,-0.27789 -0.9012,0.2779 -1.179,0 -0.2779,-0.27789 0,-0.78599 0,-1.17899 0,-0.82004 0.2131,-5.46861 0,-5.89498 -0.2486,-0.49711 -0.9305,-0.68188 -1.179,-1.17899 -0.2338,-0.46747 0.241,-3.29596 0,-3.53699 -0.2779,-0.27789 -0.9011,0.27789 -1.179,0 -0.3226,-0.3226 0.3198,-4.07639 0,-4.71598 -0.2486,-0.49711 -0.9305,-0.68189 -1.179,-1.179 -0.2132,-0.42636 0,-5.07493 0,-5.89497 0,-0.393 0.2779,-0.90111 0,-1.179 -0.2779,-0.27789 -0.9011,0.27789 -1.179,0 -0.2779,-0.27789 0,-0.78599 0,-1.17899 0,-2.35799 0,-4.71598 0,-7.07397 0,-1.965 0,-3.92999 0,-5.89498 0,-0.393 0.2779,-0.9011 0,-1.179 -0.2779,-0.27789 -0.9011,0.2779 -1.179,0 -0.038,-0.0379 0,-3.25104 0,-3.53698 0,-6.28798 0,-12.57595 0,-18.86393 0,-0.43297 0.047,-4.66853 0,-4.71598 -0.2779,-0.27789 -0.9011,0.27789 -1.179,0 -0.2837,-0.2837 0.2837,-4.43228 0,-4.71598 -0.2779,-0.27789 -0.9011,0.27789 -1.179,0 -0.241,-0.24103 0.2337,-3.06952 0,-3.53698 -0.2486,-0.49711 -0.9305,-0.68189 -1.179,-1.179 -0.3719,-0.74379 0.3719,-5.15118 0,-5.89498 -0.2486,-0.4971 -0.9304,-0.68188 -1.179,-1.17899 -0.4072,-0.81437 0.4138,-5.48113 0,-5.89498 -0.2779,-0.27789 -0.9011,0.27789 -1.179,0 -0.2837,-0.2837 0.2837,-4.43228 0,-4.71598 -0.2779,-0.27789 -0.9011,0.27789 -1.179,0 -0.5895,-0.5895 0.5895,-2.94749 0,-3.53698 -0.2779,-0.2779 -0.9011,0.27789 -1.179,0 -0.241,-0.24103 0.2337,-3.06953 0,-3.53699 -0.2485,-0.49711 -0.9304,-0.68189 -1.179,-1.179 -0.2337,-0.46746 0.241,-3.29595 0,-3.53698 -0.2779,-0.27789 -0.9011,0.27789 -1.179,0 -0.241,-0.24103 0.2338,-3.06953 0,-3.53699 -0.2485,-0.49711 -0.9304,-0.68189 -1.179,-1.17899 -0.3515,-0.70302 0.3515,-1.65498 0,-2.35799 -0.2485,-0.49711 -0.9304,-0.68189 -1.179,-1.179 -0.4716,-0.9432 0.4716,-2.59379 0,-3.53698 -0.2485,-0.49711 -0.9304,-0.68189 -1.179,-1.179 -0.3515,-0.70302 0.3515,-1.65497 0,-2.35799 -0.2485,-0.49711 -0.9304,-0.68189 -1.179,-1.179 -0.3515,-0.70301 0.5558,-1.8022 0,-2.35799 -0.2779,-0.27789 -0.9011,0.2779 -1.179,0 -0.241,-0.24103 0.2338,-3.06952 0,-3.53698 -0.2485,-0.49711 -0.9304,-0.68189 -1.1789,-1.179 -0.3516,-0.70301 0.3515,-1.65497 0,-2.35799 -0.2486,-0.49711 -0.9305,-0.68189 -1.179,-1.17899 -0.3516,-0.70302 0.5557,-1.80221 0,-2.35799 -0.2779,-0.2779 -0.9011,0.27789 -1.179,0 -0.5558,-0.55579 0.5557,-1.80221 0,-2.35799 -0.2779,-0.2779 -0.9011,0.27789 -1.179,0 -0.5558,-0.55579 0.5557,-1.80221 0,-2.358 -0.2779,-0.27789 -0.8275,0.17576 -1.179,0 -2.6069,-1.30341 -0.3659,-0.73173 -1.179,-2.35799 -0.2486,-0.4971 -0.9305,-0.68188 -1.179,-1.17899 -0.1758,-0.35151 0.1757,-0.82749 0,-1.179 -0.2486,-0.4971 -0.9305,-0.68188 -1.179,-1.17899 -0.3515,-0.70302 0.5558,-1.80221 0,-2.35799 -0.2779,-0.27789 -0.9011,0.27789 -1.179,0 -0.5895,-0.5895 0.5895,-2.94749 0,-3.53699 -0.2779,-0.27789 -0.9011,0.27789 -1.179,0 -0.038,-0.0379 0,-3.25105 0,-3.53698 0,-0.393 0,-0.786 0,-1.179 0,-0.393 -0.1758,-0.82749 0,-1.17899 0.2485,-0.49711 0.9304,-0.68189 1.179,-1.179 0.2337,-0.46746 -0.241,-3.29596 0,-3.53699 0.2779,-0.27789 0.9011,0.2779 1.179,0 0.2779,-0.27789 -0.2779,-0.9011 0,-1.17899 0.2779,-0.27789 0.9011,0.27789 1.179,0 0.2779,-0.27789 -0.2779,-0.9011 0,-1.179 0.2779,-0.27789 0.9011,0.2779 1.179,0 0.2779,-0.27789 -0.2779,-0.9011 0,-1.17899 0.5558,-0.55579 1.6549,0.35151 2.358,0 0.4971,-0.24856 0.6819,-0.93044 1.179,-1.179 0.3515,-0.17575 0.9011,0.27789 1.179,0 0.2778,-0.27789 -0.2779,-0.9011 0,-1.17899 0.2778,-0.27789 0.8274,0.17575 1.179,0 0.4971,-0.24856 0.6818,-0.93044 1.1789,-1.179 0.3516,-0.17575 0.9011,0.27789 1.179,0 0.2779,-0.27789 -0.2779,-0.9011 0,-1.17899 0.5558,-0.55579 1.8022,0.55578 2.358,0 0.2779,-0.27789 -0.2779,-0.90111 0,-1.179 0.2779,-0.27789 0.9011,0.27789 1.179,0 0.2779,-0.27789 -0.2779,-0.9011 0,-1.17899 0.5558,-0.55579 1.655,0.35151 2.358,0 0.4971,-0.24856 0.6819,-0.93044 1.179,-1.179 0.3515,-0.17575 0.9011,0.27789 1.179,0 0.2779,-0.27789 -0.2779,-0.9011 0,-1.17899 0.2779,-0.2779 0.9011,0.27789 1.179,0 0.2779,-0.2779 -0.2779,-0.90111 0,-1.179 0.2779,-0.27789 0.8275,0.17575 1.179,0 0.4971,-0.24855 0.6819,-0.93044 1.179,-1.17899 0.3515,-0.17576 0.9011,0.27789 1.179,0 0,-3.14399 -0.393,0.39299 1.179,-1.179 0.2779,-0.27789 -0.2779,-0.9011 0,-1.179 0.2779,-0.27789 0.786,0 1.179,0 0,-0.39299 -0.2779,-0.9011 0,-1.17899 0.2779,-0.27789 0.9011,0.27789 1.179,0 0.2779,-0.27789 -0.2779,-0.9011 0,-1.179 0.2779,-0.27789 0.9011,0.2779 1.179,0 0.2779,-0.27789 -0.1758,-0.82748 0,-1.17899 0.2485,-0.49711 0.9304,-0.68189 1.179,-1.179 0.1757,-0.3515 -0.1758,-0.82748 0,-1.17899 0.4971,-0.99422 1.8608,-1.36378 2.358,-2.35799 0.3515,-0.70302 -0.3516,-1.65498 0,-2.35799 0.2485,-0.49711 0.9304,-0.68189 1.179,-1.179 0.3515,-0.70302 -0.5558,-1.8022 0,-2.35799 0.2778,-0.27789 0.9011,0.27789 1.1789,0 0.5558,-0.55578 -0.5557,-1.80221 0,-2.35799 0.2779,-0.27789 0.9012,0.27789 1.179,0 0.2779,-0.27789 0,-0.786 0,-1.17899 0,-0.393 0,-0.786 0,-1.179 0,-0.393 0,-0.786 0,-1.179 0,-0.39299 -0.1757,-0.82748 0,-1.17899 0.2486,-0.49711 0.9305,-0.68189 1.179,-1.179 0.155,-0.31 0,-4.09946 0,-4.71598 0,-0.393 0,-0.78599 0,-1.17899 0,-0.393 0.2779,-0.90111 0,-1.179 -0.2779,-0.27789 -0.9011,0.27789 -1.179,0 -0.365,-0.36507 0.3651,-5.5299 0,-5.89497 -0.2778,-0.2779 -0.9011,0.27789 -1.179,0 -0.2778,-0.2779 0.1758,-0.82749 0,-1.179 -0.2485,-0.49711 -0.9304,-0.68189 -1.1789,-1.17899 -0.1758,-0.35151 0.2778,-0.90111 0,-1.179 -0.2779,-0.27789 -0.9012,0.27789 -1.179,0 -0.2779,-0.27789 0.2778,-0.9011 0,-1.179 -0.2779,-0.27789 -0.9011,0.2779 -1.179,0 -0.5558,-0.55578 0.5557,-1.8022 0,-2.35799 -0.2779,-0.27789 -0.9011,0.2779 -1.179,0 -0.5558,-0.55578 0.5557,-1.8022 0,-2.35799 -0.2779,-0.27789 -0.9011,0.2779 -1.179,0 -0.5558,-0.55578 0.5558,-1.8022 0,-2.35799 -0.2779,-0.27789 -0.9011,0.2779 -1.179,0 -0.2779,-0.27789 0.2779,-0.9011 0,-1.17899 -0.2779,-0.27789 -0.9011,0.27789 -1.179,0 -0.5558,-0.55579 0.3515,-1.65498 0,-2.35799 -1.3034,-2.60683 -0.7318,-0.36587 -2.358,-1.179 -0.9942,-0.49711 -1.3638,-1.86088 -2.358,-2.35799 -0.3515,-0.17575 -0.9011,0.27789 -1.179,0 -0.2779,-0.27789 0.2779,-0.9011 0,-1.17899 -0.7861,-0.78608 -1.5719,0.78608 -2.358,0 -0.2779,-0.2779 0.2779,-0.90111 0,-1.179 -0.5895,-0.5895 -2.9475,0.5895 -3.537,0 -0.2779,-0.27789 0.2779,-0.9011 0,-1.17899 -0.365,-0.36508 -5.5299,0.36507 -5.8949,0 -0.2779,-0.2779 0.2778,-0.90111 0,-1.179 -0.5895,-0.5895 -2.9475,0.5895 -3.537,0 -0.2779,-0.27789 0.2779,-0.9011 0,-1.17899 -0.2779,-0.2779 -0.8275,0.17575 -1.179,0 -0.4971,-0.24856 -0.6819,-0.93045 -1.179,-1.179 -0.703,-0.35151 -1.8022,0.55578 -2.358,0 -0.2779,-0.27789 0.2779,-0.9011 0,-1.179 -0.5558,-0.55578 -1.8022,0.55579 -2.358,0 -0.2779,-0.27789 0.2779,-0.9011 0,-1.17899 -0.2779,-0.27789 -0.8275,0.17575 -1.179,0 -0.4971,-0.24855 -0.6819,-0.93044 -1.179,-1.179 -0.3515,-0.17575 -0.9011,0.2779 -1.179,0 -0.2779,-0.27789 0.2779,-0.9011 0,-1.17899 -0.5558,-0.55579 -1.8022,0.55578 -2.358,0 -0.2779,-0.27789 0.2779,-0.9011 0,-1.179 -0.5558,-0.55578 -1.8022,0.55579 -2.358,0 -0.2779,-0.27789 0.2779,-0.9011 0,-1.17899 -0.5558,-0.55579 -1.6549,0.35151 -2.358,0 -0.4971,-0.24856 -0.6819,-0.93044 -1.179,-1.179 -0.703,-0.35151 -1.8022,0.55579 -2.358,0 -0.2778,-0.27789 0.2779,-0.9011 0,-1.17899 -0.2778,-0.27789 -0.8274,0.17575 -1.1789,0 -0.4972,-0.24856 -0.6819,-0.93044 -1.179,-1.179 -0.3515,-0.17575 -0.9011,0.27789 -1.179,0 -0.2779,-0.27789 0.2779,-0.9011 0,-1.17899 -0.2779,-0.27789 -0.8275,0.17575 -1.179,0 -0.9942,-0.49711 -1.3638,-1.86089 -2.358,-2.35799 -0.3515,-0.17576 -0.9011,0.27789 -1.179,0 -0.2779,-0.2779 0.2779,-0.90111 0,-1.179 -0.2779,-0.27789 -0.9011,0.27789 -1.179,0 -0.2779,-0.27789 0.2779,-0.9011 0,-1.17899 -0.2779,-0.2779 -0.786,0 -1.179,0 0,-0.393 0.2779,-0.90111 0,-1.179 -0.2779,-0.27789 -0.9011,0.27789 -1.179,0 -0.2779,-0.27789 0.2779,-0.9011 0,-1.17899 -3.144,0 0.393,0.39299 -1.179,-1.179 -0.2779,-0.27789 -0.9011,0.27789 -1.179,0 -0.2779,-0.27789 0.2779,-0.9011 0,-1.179 -0.038,-0.0379 -3.251,0 -3.537,0 -0.433,0 -4.6685,-0.0474 -4.716,0 -0.2779,0.2779 0.2779,0.90111 0,1.179 -3.1439,0 0.393,-0.393 -1.179,1.179 -0.2778,0.27789 -0.9011,-0.2779 -1.179,0 -0.2778,0.27789 0.2779,0.9011 0,1.17899 -0.2778,0.27789 -0.9011,-0.27789 -1.1789,0 -0.7805,0.78049 0.7804,1.5775 0,2.35799 -0.2779,0.27789 -0.9012,-0.27789 -1.179,0 -0.5895,0.5895 0.5895,2.94749 0,3.53699 -0.2779,0.27789 -0.9011,-0.27789 -1.179,0 -0.053,0.0534 0,5.33908 0,5.89497 0,0.393 -0.2779,0.90111 0,1.179 0.2779,0.27789 0.9011,-0.27789 1.179,0 0.5557,0.55578 -0.3516,1.65497 0,2.35799 0.2485,0.49711 0.9304,0.68189 1.179,1.17899 0.1757,0.35151 -0.2779,0.90111 0,1.179 0.2778,0.27789 0.9011,-0.27789 1.1789,0 0.2779,0.27789 -0.2778,0.9011 0,1.179 0.2779,0.27789 0.9012,-0.2779 1.179,0 2.4394,2.43938 -3.7277,-0.0954 1.179,2.35799 0.7031,0.3515 1.8022,-0.55579 2.358,0 0.2779,0.27789 -0.2779,0.9011 0,1.17899 0.5558,0.55578 1.655,-0.35151 2.358,0 0.4971,0.24855 0.6819,0.93044 1.179,1.179 0.703,0.3515 1.655,-0.35151 2.358,0 0.4971,0.24855 0.6819,0.93044 1.179,1.17899 0.4675,0.23373 3.296,-0.24103 3.537,0 0.2779,0.27789 -0.2779,0.9011 0,1.179 0.3226,0.3226 4.0764,-0.3198 4.716,0 0.4971,0.24855 0.6819,0.93044 1.179,1.17899 0.1316,0.0658 5.7633,0.0658 5.8949,0 0.4971,-0.24855 0.6819,-0.93044 1.179,-1.17899 0.7031,-0.35151 1.8022,0.55578 2.358,0 0.2779,-0.2779 -0.2779,-0.90111 0,-1.179 0.2779,-0.27789 0.8275,0.17576 1.179,0 0.4971,-0.24855 0.6819,-0.93044 1.179,-1.17899 0.3515,-0.17576 0.9011,0.27789 1.179,0 0.2779,-0.2779 -0.2779,-0.90111 0,-1.179 0.7861,-0.78608 1.5719,0.78608 2.358,0 0.2779,-0.27789 -0.2779,-0.9011 0,-1.17899 2.4394,-2.43939 -0.095,3.7277 2.358,-1.179 0.1757,-0.35151 -0.2779,-0.9011 0,-1.17899 0.2779,-0.2779 0.8275,0.17575 1.179,0 0.9942,-0.49711 1.3638,-1.86089 2.358,-2.358 0.3515,-0.17575 0.9011,0.2779 1.179,0 0.2779,-0.27789 -0.2779,-0.9011 0,-1.17899 0.2779,-0.27789 0.8275,0.17575 1.179,0 0.4971,-0.24855 0.6819,-0.93044 1.179,-1.179 0.3515,-0.17575 0.9011,0.2779 1.179,0 0.2779,-0.27789 -0.2779,-0.9011 0,-1.17899 0.2779,-0.27789 0.9011,0.27789 1.179,0 2.4393,-2.43938 -3.7277,0.0954 1.179,-2.35799 0.3515,-0.17576 0.9011,0.27789 1.1789,0 0.2779,-0.27789 -0.2778,-0.90111 0,-1.179 0.2779,-0.27789 0.8275,0.17576 1.179,0 0.9943,-0.49711 1.3638,-1.86088 2.358,-2.35799 0.3515,-0.17575 0.9011,0.27789 1.179,0 0.2779,-0.27789 -0.2779,-0.9011 0,-1.17899 0.5558,-0.55579 1.655,0.35151 2.358,0 0.4971,-0.24856 0.6819,-0.93044 1.179,-1.179 0.703,-0.35151 1.8022,0.55579 2.358,0 0.2779,-0.27789 -0.2779,-0.9011 0,-1.17899 0.2779,-0.2779 0.786,0 1.179,0 1.965,0 3.93,0 5.895,0 0.6165,0 4.4059,-0.15501 4.716,0 0.313,0.15651 3.3804,3.22395 3.5369,3.53698 0.1758,0.35151 -0.2778,0.90111 0,1.179 0.2779,0.27789 0.9011,-0.27789 1.179,0 0.2779,0.27789 -0.1757,0.82748 0,1.17899 0.2486,0.49711 0.9305,0.68189 1.179,1.179 0.3515,0.70302 -0.3515,1.65497 0,2.35799 0.2486,0.49711 0.9305,0.68189 1.179,1.17899 0.3198,0.63959 -0.3226,4.39339 0,4.71599 0.2779,0.27789 0.9011,-0.2779 1.179,0 0.2779,0.27789 0,0.78599 0,1.17899 0,0.55589 0.053,5.84154 0,5.89498 -0.2779,0.27789 -0.9011,-0.2779 -1.179,0 -0.5558,0.55578 0.5558,1.8022 0,2.35799 -0.2779,0.27789 -0.9011,-0.27789 -1.179,0 -0.2779,0.27789 0.2779,0.9011 0,1.17899 -0.2779,0.27789 -0.786,0 -1.179,0 0,0.393 0.1758,0.82749 0,1.179 -0.1128,0.22568 -4.4903,4.60314 -4.7159,4.71598 -0.3516,0.17575 -0.9011,-0.27789 -1.179,0 -0.2779,0.27789 0.2779,0.9011 0,1.17899 -0.2779,0.2779 -0.9011,-0.27789 -1.179,0 -0.2779,0.2779 0.2779,0.90111 0,1.179 -0.5558,0.55578 -1.8022,-0.55578 -2.358,0 -0.2779,0.27789 0.2779,0.9011 0,1.17899 -0.2779,0.2779 -0.8275,-0.17575 -1.179,0 -0.9942,0.49711 -1.3638,1.86089 -2.358,2.358 -0.3515,0.17575 -0.8275,-0.17576 -1.179,0 -0.4971,0.24855 -0.6819,0.93044 -1.179,1.17899 -0.3515,0.17576 -0.8275,-0.17575 -1.179,0 -0.9942,0.49711 -1.3638,1.86088 -2.358,2.35799 -0.3515,0.17576 -0.9011,-0.27789 -1.179,0 -0.2779,0.27789 0.2779,0.9011 0,1.179 -0.5558,0.55578 -1.8022,-0.55579 -2.358,0 -0.2779,0.27789 0.2779,0.9011 0,1.17899 -0.2779,0.27789 -0.8275,-0.17575 -1.179,0 -0.4971,0.24856 -0.6819,0.93044 -1.179,1.179 -0.3515,0.17575 -0.9011,-0.27789 -1.179,0 -0.2779,0.27789 0.2779,0.9011 0,1.17899 -0.5557,0.55579 -1.8022,-0.55578 -2.3579,0 0,3.14399 0.3929,-0.393 -1.179,1.179 -0.2779,0.27789 0.2778,0.9011 0,1.17899 -0.2779,0.2779 -0.8275,-0.17575 -1.179,0 -0.4971,0.24856 -0.6819,0.93044 -1.179,1.179 -0.3515,0.17575 -0.9011,-0.27789 -1.179,0 -0.2779,0.27789 0.2779,0.9011 0,1.17899 -0.2779,0.2779 -0.9011,-0.27789 -1.179,0 -0.2779,0.2779 0.2779,0.90111 0,1.179 -0.2779,0.27789 -0.9011,-0.27789 -1.179,0 -0.2779,0.27789 0.2779,0.9011 0,1.17899 -0.2779,0.2779 -0.786,0 -1.179,0 0,0.393 0.2779,0.90111 0,1.179 -0.2779,0.27789 -0.9011,-0.27789 -1.179,0 -0.2779,0.27789 0.2779,0.9011 0,1.17899 -0.2779,0.2779 -0.9011,-0.27789 -1.179,0 -0.2779,0.2779 0.1757,0.82749 0,1.179 -0.4971,0.99422 -1.8609,1.36377 -2.358,2.35799 -0.1758,0.35151 0.1758,0.82749 0,1.179 -0.2486,0.4971 -0.9304,0.68188 -1.179,1.17899 -0.1757,0.35151 0.1758,0.82749 0,1.179 -0.2485,0.4971 -0.9304,0.68188 -1.179,1.17899 -0.1757,0.35151 0.1758,0.82749 0,1.179 -0.2485,0.49711 -0.9304,0.68188 -1.179,1.17899 -0.1757,0.35151 0.1758,0.82749 0,1.179 -0.4971,0.99421 -1.8609,1.36377 -2.358,2.35799 -0.1757,0.35151 0.2779,0.9011 0,1.17899 -0.2779,0.2779 -0.9011,-0.27789 -1.179,0 -0.2779,0.2779 0.2779,0.90111 0,1.179 -0.2779,0.27789 -0.9011,-0.27789 -1.179,0 -0.2779,0.27789 0.2779,0.9011 0,1.17899 -0.2779,0.2779 -0.9011,-0.27789 -1.179,0 -0.2779,0.2779 0.2779,0.90111 0,1.179 -0.2779,0.27789 -0.9011,-0.27789 -1.179,0 -0.2778,0.27789 0.2779,0.9011 0,1.17899 -0.2778,0.2779 -0.9011,-0.27789 -1.179,0 -0.5557,0.55579 0.5558,1.80221 0,2.358 -0.2778,0.27789 -0.9011,-0.2779 -1.1789,0 -0.2779,0.27789 0.2778,0.9011 0,1.17899 -2.4394,2.43938 0.095,-3.7277 -2.358,1.179 -0.1758,0.3515 0.2779,0.9011 0,1.17899 -2.4394,2.43938 0.095,-3.7277 -2.358,1.179 -0.1758,0.35151 0.2779,0.9011 0,1.17899 -0.2779,0.27789 -0.8275,-0.17575 -1.179,0 -0.4971,0.24856 -0.786,0.786 -1.179,1.179 -0.393,0.393 -0.9305,0.68188 -1.179,1.17899 -0.1758,0.35151 0.2779,0.90111 0,1.179 -0.2779,0.27789 -0.8275,-0.17576 -1.179,0 -0.4971,0.24855 -0.6819,0.93044 -1.179,1.17899 -0.3515,0.17576 -0.9011,-0.27789 -1.179,0 -0.2779,0.27789 0.2779,0.90111 0,1.179 -0.2779,0.27789 -0.9011,-0.27789 -1.179,0 -2.4394,2.43938 3.7277,-0.0954 -1.179,2.35799 -0.3515,0.17575 -0.9011,-0.27789 -1.179,0 -0.2779,0.27789 0.2779,0.9011 0,1.17899 -0.2779,0.2779 -0.8275,-0.17575 -1.179,0 -0.4971,0.24856 -0.6819,0.93045 -1.179,1.179 -0.3515,0.17575 -0.8275,-0.17575 -1.179,0 -0.9942,0.49711 -1.3637,1.86088 -2.358,2.35799 -0.703,0.35151 -1.8022,-0.55578 -2.358,0 -0.2778,0.27789 0.2779,0.9011 0,1.179 -0.3226,0.32259 -4.0763,-0.3198 -4.7159,0 -0.4971,0.24855 -0.6819,0.93044 -1.179,1.17899 -0.3588,0.1794 -3.006,0 -3.537,0 -2.358,0 -4.716,0 -7.07399,0 -0.39299,0 -0.78599,0 -1.17899,0 -0.393,0 -0.9011,-0.27789 -1.179,0 -0.27789,0.27789 0.2779,0.9011 0,1.179 -0.27789,0.27789 -0.78599,0 -1.17899,0 -0.82004,0 -5.46861,-0.21319 -5.89498,0 -0.49711,0.24855 -0.68189,0.93044 -1.17899,1.17899 -0.9432,0.4716 -2.59379,-0.4716 -3.53699,0 -0.49711,0.24856 -0.68189,0.93044 -1.17899,1.179 -0.70302,0.3515 -1.65498,-0.35151 -2.358,0 -0.4971,0.24855 -0.68188,0.93044 -1.17899,1.17899 -0.70302,0.35151 -1.80221,-0.55578 -2.35799,0 -0.27789,0.27789 0.27789,0.90111 0,1.179 -0.55578,0.55578 -1.65497,-0.35151 -2.35799,0 -0.49711,0.24855 -0.68189,0.93044 -1.179,1.17899 -0.70301,0.35151 -1.8022,-0.55578 -2.35799,0 -0.27789,0.27789 0.27789,0.90111 0,1.179 -0.5895,0.5895 -2.94749,-0.5895 -3.53698,0 -0.2779,0.27789 0.27789,0.9011 0,1.17899 -0.2779,0.27789 -0.90111,-0.27789 -1.179,0 -0.27789,0.27789 0.27789,0.90111 0,1.179 -0.27789,0.27789 -0.9011,-0.27789 -1.17899,0 -0.2779,0.27789 0.27789,0.9011 0,1.17899 -0.2779,0.2779 -0.90111,-0.27789 -1.179,0 -0.55578,0.55579 0.55578,1.80221 0,2.35799 -0.27789,0.2779 -0.9011,-0.27789 -1.17899,0 -0.55579,0.55579 0.55578,1.80221 0,2.35799 -0.2779,0.2779 -0.90111,-0.27789 -1.179,0 -0.55578,0.55579 0.35151,1.65498 0,2.358 -0.24855,0.4971 -0.93044,0.68188 -1.17899,1.17899 -0.23374,0.46746 0.24102,3.29596 0,3.53699 -0.2779,0.27789 -0.90111,-0.2779 -1.179,0 -0.27789,0.27789 0,0.78599 0,1.17899 0,0.83568 -0.15242,6.76914 0,7.07397 0.24855,0.49711 0.93044,0.68189 1.179,1.179 0.37051,0.74102 -0.37052,3.97496 0,4.71598 0.24855,0.49711 0.93044,0.68189 1.17899,1.179 0.35151,0.70301 -0.35151,1.65497 0,2.35799 0.24855,0.4971 0.93044,0.68188 1.179,1.17899 0.37051,0.74103 -0.37052,3.97496 0,4.71598 0.24855,0.49711 0.93044,0.68189 1.17899,1.179 0.17576,0.35151 0,0.78599 0,1.17899 0,0.393 0,0.786 0,1.179 0,0.28594 -0.0379,3.49907 0,3.53698 0.27789,0.2779 0.9011,-0.27789 1.179,0 0.41385,0.41385 -0.40719,5.08061 0,5.89498 0.24855,0.49711 0.93044,0.68189 1.17899,1.179 0.4716,0.94319 -0.4716,2.59379 0,3.53698 0.24856,0.49711 0.93044,0.68189 1.179,1.179 0.37051,0.74102 -0.37052,3.97495 0,4.71598 0.24855,0.49711 0.93044,0.68189 1.17899,1.17899 0.4716,0.9432 -0.4716,2.59379 0,3.53699 0.24856,0.49711 0.93044,0.68189 1.179,1.17899 0.37189,0.7438 -0.3719,5.15119 0,5.89498 0.24855,0.49711 0.93044,0.68189 1.17899,1.179 0.4716,0.94319 -0.4716,2.59379 0,3.53698 0.24856,0.49711 0.93044,0.68189 1.179,1.179 0.23373,0.46746 -0.24103,3.29595 0,3.53698 0.27789,0.27789 0.9011,-0.27789 1.17899,0 0.28371,0.28371 -0.2837,4.43228 0,4.71598 0.2779,0.2779 0.90111,-0.27789 1.179,0 0.41385,0.41385 -0.40719,5.08061 0,5.89498 0.24855,0.49711 0.93044,0.68189 1.17899,1.179 0.3198,0.63959 -0.3226,4.39338 0,4.71598 0.2779,0.27789 0.90111,-0.27789 1.179,0 0.24103,0.24103 -0.23373,3.06952 0,3.53698 0.24855,0.49711 0.93044,0.68189 1.17899,1.179 0.4716,0.94319 -0.47159,2.59379 0,3.53698 0.24856,0.49711 0.93045,0.68189 1.179,1.179 0.37051,0.74102 -0.37051,3.97496 0,4.71598 0.24855,0.49711 0.93044,0.68189 1.17899,1.179 0.17576,0.3515 0,0.78599 0,1.17899 0,0.83568 -0.15241,6.76914 0,7.07397 0.24856,0.49711 0.93045,0.68189 1.179,1.179 0.35151,0.70302 -0.55578,1.80221 0,2.35799 0.27789,0.27789 0.9011,-0.27789 1.179,0 0.24103,0.24103 -0.23374,3.06952 0,3.53698 0.24855,0.49711 0.93044,0.68189 1.17899,1.179 0.23373,0.46746 -0.24103,3.29596 0,3.53699 0.27789,0.27789 0.9011,-0.2779 1.179,0 0.36507,0.36507 -0.36508,5.5299 0,5.89497 0.27789,0.27789 0.9011,-0.27789 1.17899,0 0.41385,0.41385 -0.40718,5.08061 0,5.89498 0.24856,0.49711 0.93044,0.68189 1.179,1.17899 0.47159,0.9432 -0.4716,2.59379 0,3.53699 0.24855,0.49711 0.93044,0.68189 1.17899,1.179 0.23373,0.46746 -0.24103,3.29595 0,3.53698 0.27789,0.27789 0.90111,-0.27789 1.179,0 0.0474,0.0475 0,4.28301 0,4.71598 0,0.61652 -0.15501,4.40598 0,4.71598 0.24855,0.49711 0.93044,0.68189 1.17899,1.179 0.3198,0.63959 -0.3226,4.39338 0,4.71598 0.27789,0.27789 0.90111,-0.27789 1.179,0 0.55578,0.55578 -0.55579,1.80221 0,2.35799 0.27789,0.27789 0.78599,0 1.17899,0 0,0.393 -0.27789,0.9011 0,1.179 0.55579,0.55578 1.80221,-0.55579 2.35799,0 0.2779,0.27789 -0.27789,0.9011 0,1.17899 0.36508,0.36507 5.52988,-0.36507 5.89498,0 0.2779,0.27789 -0.2779,0.9011 0,1.179 0.1179,0.1179 3.4191,0.1179 3.537,0 0.2779,-0.2779 -0.2779,-0.90111 0,-1.179 0.2779,-0.27789 0.786,0 1.179,0 0.393,0 0.786,0 1.179,0 1.572,0 3.144,0 4.716,0 0.786,0 1.5872,0.15415 2.3579,0 1.589,-0.31778 3.144,-0.786 4.716,-1.17899 z"
     id="path1578"
     inkscape:connector-curvature="0" />
</svg>
