<?xml version="1.0" encoding="UTF-8" standalone="no"?>
<!-- Created with Inkscape (http://www.inkscape.org/) -->

<svg
   xmlns:dc="http://purl.org/dc/elements/1.1/"
   xmlns:cc="http://creativecommons.org/ns#"
   xmlns:rdf="http://www.w3.org/1999/02/22-rdf-syntax-ns#"
   xmlns:svg="http://www.w3.org/2000/svg"
   xmlns="http://www.w3.org/2000/svg"
   xmlns:xlink="http://www.w3.org/1999/xlink"
   xmlns:sodipodi="http://sodipodi.sourceforge.net/DTD/sodipodi-0.dtd"
   xmlns:inkscape="http://www.inkscape.org/namespaces/inkscape"
   version="1.1"
   id="svg815"
   width="1110.6667"
   height="812"
   viewBox="0 0 1110.6667 812"
   sodipodi:docname="chr-savushkina-lesnaya.svg"
   inkscape:version="0.92.3 (2405546, 2018-03-11)">
  <metadata
     id="metadata821">
    <rdf:RDF>
      <cc:Work
         rdf:about="">
        <dc:format>image/svg+xml</dc:format>
        <dc:type
           rdf:resource="http://purl.org/dc/dcmitype/StillImage" />
        <dc:title></dc:title>
      </cc:Work>
    </rdf:RDF>
  </metadata>
  <defs
     id="defs819" />
  <sodipodi:namedview
     pagecolor="#ffffff"
     bordercolor="#666666"
     borderopacity="1"
     objecttolerance="10"
     gridtolerance="10"
     guidetolerance="10"
     inkscape:pageopacity="0"
     inkscape:pageshadow="2"
     inkscape:window-width="1366"
     inkscape:window-height="715"
     id="namedview817"
     showgrid="false"
     inkscape:zoom="0.84817981"
     inkscape:cx="718.31354"
     inkscape:cy="161.47232"
     inkscape:window-x="0"
     inkscape:window-y="0"
     inkscape:window-maximized="1"
     inkscape:current-layer="svg815"
     fit-margin-top="0"
     fit-margin-left="0"
     fit-margin-right="0"
     fit-margin-bottom="0"
     showguides="false" />
  <image
     sodipodi:absref="/home/aanper/project/luysy-imn-eh/pi/boot/bydefault/web/svg/../img/chr.png"
     xlink:href="../img/chr.png"
     y="0"
     x="0"
     id="image823"
     preserveAspectRatio="none"
     height="812"
     width="1110.6667" />
  <ellipse
     style="fill:#00ff00;fill-opacity:1;stroke:#00ff00;stroke-width:1.00157475;stroke-miterlimit:4;stroke-dasharray:none;stroke-opacity:1;paint-order:stroke fill markers"
     id="path832"
     cx="377.23819"
     cy="655.68585"
     rx="6.2525668"
     ry="5.8357291" />
  <ellipse
     style="fill:#00ff00;fill-opacity:1;stroke:#00ff00;stroke-width:0.24566929;stroke-miterlimit:4;stroke-dasharray:none;stroke-opacity:1;paint-order:stroke fill markers"
     id="path843"
     cx="606.49896"
     cy="399.22638"
     rx="2.7094455"
     ry="2.1883984" />
  <circle
     style="fill:#00ff00;fill-opacity:1;stroke:#00ff00;stroke-width:0.24566929;stroke-miterlimit:4;stroke-dasharray:none;stroke-opacity:1;paint-order:stroke fill markers"
     id="path845"
     cx="475.19507"
     cy="635.2608"
     r="3.7515399" />
  <ellipse
     style="fill:#00ff00;fill-opacity:1;stroke:#00ff00;stroke-width:0.24566929;stroke-miterlimit:4;stroke-dasharray:none;stroke-opacity:1;paint-order:stroke fill markers"
     id="path847"
     cx="871.39941"
     cy="165.69302"
     rx="2.7094455"
     ry="2.5010266" />
  <ellipse
     style="fill:#00ff00;fill-opacity:1;stroke:#00ff00;stroke-width:0.24566929;stroke-miterlimit:4;stroke-dasharray:none;stroke-opacity:1;paint-order:stroke fill markers"
     id="path849"
     cx="404.43686"
     cy="128.38603"
     rx="3.6473305"
     ry="3.3347023" />
  <ellipse
     style="fill:#00ff00;fill-opacity:1;stroke:#00ff00;stroke-width:0.24566929;stroke-miterlimit:4;stroke-dasharray:none;stroke-opacity:1;paint-order:stroke fill markers"
     id="path851"
     cx="452.06058"
     cy="53.980492"
     rx="2.7094455"
     ry="3.1262834" />
  <ellipse
     style="fill:#00ff00;fill-opacity:1;stroke:#00ff00;stroke-width:0.24566929;stroke-miterlimit:4;stroke-dasharray:none;stroke-opacity:1;paint-order:stroke fill markers"
     id="path853"
     cx="288.76437"
     cy="90.662216"
     rx="2.8136551"
     ry="2.5010266" />
  <ellipse
     style="fill:#00ff00;fill-opacity:1;stroke:#00ff00;stroke-width:0.24566929;stroke-miterlimit:4;stroke-dasharray:none;stroke-opacity:1;paint-order:stroke fill markers"
     id="path855"
     cx="1073.2531"
     cy="687.88654"
     rx="3.4389117"
     ry="3.2304928" />
  <ellipse
     style="fill:#00ff00;fill-opacity:1;stroke:#00ff00;stroke-width:0.24566929;stroke-miterlimit:4;stroke-dasharray:none;stroke-opacity:1;paint-order:stroke fill markers"
     id="path857"
     cx="1017.3968"
     cy="608.89581"
     rx="3.022074"
     ry="2.6052361" />
  <path
     style="fill:none;fill-opacity:1;stroke:#00ff00;stroke-width:1.13385832;stroke-miterlimit:4;stroke-dasharray:none;stroke-opacity:1;paint-order:stroke fill markers"
     d="m 378.45749,651.65664 c 1.17899,1.57199 2.14752,3.32652 3.53698,4.71598 0.2779,0.27789 0.82749,-0.17575 1.179,0 0.49711,0.24856 0.68189,0.93044 1.17899,1.179 0.35151,0.17575 0.90111,-0.27789 1.179,0 0.27789,0.27789 -0.27789,0.9011 0,1.17899 0.27789,0.27789 0.9011,-0.27789 1.17899,0 0.2779,0.27789 -0.17575,0.82749 0,1.179 0.49711,0.99421 1.86089,1.36377 2.358,2.35799 0.17575,0.35151 -0.2779,0.9011 0,1.17899 0.27789,0.2779 0.9011,-0.27789 1.17899,0 0.27789,0.2779 -0.17575,0.82749 0,1.179 0.24855,0.49711 0.93044,0.68189 1.179,1.17899 0.17575,0.35151 -0.2779,0.90111 0,1.179 0.27789,0.27789 0.9011,-0.27789 1.17899,0 0.27789,0.27789 -0.17575,0.82749 0,1.17899 0.24856,0.49711 0.93044,0.68189 1.179,1.179 0.17575,0.35151 -0.2779,0.9011 0,1.179 0.27789,0.27789 0.9011,-0.2779 1.17899,0 0.27789,0.27789 -0.17575,0.82748 0,1.17899 0.24856,0.49711 0.93044,0.68189 1.179,1.179 0.35151,0.70301 -0.35151,1.65497 0,2.35799 0.24855,0.4971 0.93044,0.68188 1.17899,1.17899 0.15242,0.30483 0,6.2383 0,7.07397 0,0.393 -0.27789,0.90111 0,1.179 0.27789,0.27789 0.90111,-0.27789 1.179,0 0.27789,0.27789 0,0.786 0,1.17899 0.393,0 0.9011,-0.27789 1.17899,0 0.27789,0.2779 -0.27789,0.90111 0,1.179 0.78368,0.78367 1.57432,-0.78367 2.35799,0 0.2779,0.27789 -0.27789,0.9011 0,1.17899 0.2779,0.2779 0.90111,-0.27789 1.179,0 0.27789,0.2779 -0.27789,0.90111 0,1.179 0.55578,0.55578 1.65497,-0.35151 2.35799,0 0.49711,0.24855 0.68189,0.93044 1.17899,1.179 0.81438,0.40718 5.48113,-0.41385 5.89498,0 0.27789,0.27789 -0.27789,0.9011 0,1.17899 0.27789,0.27789 0.786,0 1.179,0 0.39299,0 0.78599,0 1.17899,0 2.75099,0 5.50198,0 8.25297,0 0.53097,0 3.17818,-0.1794 3.53698,0 2.91378,1.45689 -0.40696,1.179 2.358,1.179 2.35799,0 4.71598,0 7.07397,0 0.393,0 0.9011,-0.2779 1.17899,0 0.27789,0.27789 -0.27789,0.9011 0,1.17899 0.41385,0.41385 5.08061,-0.40718 5.89498,0 0.49711,0.24856 0.68189,0.93044 1.17899,1.179 0.74103,0.37051 3.97496,-0.37052 4.71599,0 0.4971,0.24855 0.68188,0.93044 1.17899,1.17899 0.74103,0.37051 3.97496,-0.37051 4.71598,0 0.49711,0.24856 0.68189,0.93044 1.179,1.179 0.70301,0.35151 1.65497,-0.35151 2.35799,0 0.49711,0.24855 0.68188,0.93044 1.17899,1.17899 0.74379,0.3719 5.15119,-0.37189 5.89498,0 0.49711,0.24856 0.68189,0.93044 1.17899,1.179 0.9432,0.4716 2.59379,-0.4716 3.53699,0 0.49711,0.24855 0.68189,0.93044 1.179,1.17899 0.46746,0.23373 3.29595,-0.24103 3.53698,0 0.27789,0.27789 -0.27789,0.90111 0,1.179 0.3226,0.3226 4.07639,-0.3198 4.71598,0 0.49711,0.24855 0.68189,0.93044 1.179,1.17899 0.74102,0.37052 3.97495,-0.37051 4.71598,0 0.49711,0.24856 0.68189,0.93044 1.17899,1.179 0.71592,0.35795 6.35806,-0.35796 7.07398,0 0.4971,0.24855 0.68188,0.93044 1.17899,1.17899 0.46746,0.23374 3.29596,-0.24103 3.53699,0 0.27789,0.2779 -0.27789,0.90111 0,1.179 0.27789,0.27789 0.82748,-0.17575 1.17899,0 0.49711,0.24855 0.68189,0.93044 1.179,1.17899 0.35151,0.17576 0.82748,-0.17575 1.17899,0 0.49711,0.24856 0.68189,0.93045 1.179,1.179 0.35151,0.17575 0.82749,-0.17575 1.17899,0 0.49711,0.24855 0.68189,0.93044 1.179,1.179 0.35151,0.17575 0.9011,-0.2779 1.17899,0 0.2779,0.27789 -0.27789,0.9011 0,1.17899 0.55579,0.55578 1.80221,-0.55578 2.35799,0 0.2779,0.27789 -0.27789,0.9011 0,1.179 0.55579,0.55578 1.80221,-0.55579 2.358,0 0.27789,0.27789 -0.2779,0.9011 0,1.17899 0.55578,0.55578 1.65497,-0.35151 2.35799,0 0.4971,0.24856 0.68188,0.93044 1.17899,1.179 0.35151,0.17575 0.9011,-0.2779 1.179,0 0.27789,0.27789 -0.2779,0.9011 0,1.17899 0.55578,0.55579 1.65497,-0.35151 2.35799,0 3.91023,3.91024 -1.11157,-0.55578 2.35799,1.179 0.49711,0.24855 0.68188,0.93044 1.17899,1.17899 0.35151,0.17576 0.82749,-0.17575 1.179,0 0.49711,0.24856 0.68189,0.93044 1.17899,1.179 0.35151,0.17575 0.90111,-0.27789 1.179,0 0.27789,0.27789 -0.27789,0.9011 0,1.17899 0.55578,0.55579 1.65497,-0.35151 2.35799,0 0.49711,0.24856 0.68189,0.93044 1.17899,1.179 0.35151,0.17575 0.90111,-0.27789 1.179,0 0.27789,0.27789 -0.27789,0.9011 0,1.17899 0.27789,0.2779 0.82749,-0.17575 1.179,0 0.4971,0.24856 0.68188,0.93044 1.17899,1.179 0.70302,0.35151 1.80221,-0.55579 2.35799,0 0.27789,0.27789 -0.27789,0.9011 0,1.17899 0.55578,0.55579 1.80221,-0.55578 2.35799,0 0.27789,0.2779 -0.27789,0.90111 0,1.179 0.55579,0.55578 1.65498,-0.35151 2.35799,0 0.49711,0.24855 0.68189,0.93044 1.179,1.17899 0.70301,0.35151 1.65497,-0.3515 2.35799,0 0.49711,0.24856 0.68189,0.93045 1.17899,1.179 0.35151,0.17575 0.90111,-0.27789 1.179,0 0.27789,0.27789 -0.27789,0.9011 0,1.179 0.5895,0.58949 2.94749,-0.5895 3.53698,0 0.2779,0.27789 -0.27789,0.9011 0,1.17899 0.5895,0.5895 2.94749,-0.5895 3.53699,0 0.27789,0.27789 -0.27789,0.9011 0,1.179 0.5895,0.58949 2.94749,-0.5895 3.53699,0 0.27789,0.27789 -0.2779,0.9011 0,1.17899 0.27789,0.27789 0.82748,-0.17575 1.17899,0 3.91024,3.91024 -1.11157,-0.55578 2.35799,1.179 3.91024,3.91023 -1.11157,-0.55579 2.35799,1.17899 0.49711,0.24856 0.68189,0.93044 1.179,1.179 0.35151,0.17575 0.82748,-0.17576 1.17899,0 0.49711,0.24855 0.68189,0.93044 1.179,1.17899 0.70302,0.35151 1.65497,-0.35151 2.35799,0 0.49711,0.24856 0.68189,0.93044 1.17899,1.179 0.70302,0.35151 1.80221,-0.55579 2.358,0 0.27789,0.27789 -0.2779,0.9011 0,1.17899 0.55578,0.55579 1.65497,-0.35151 2.35799,0 0.4971,0.24856 0.68188,0.93044 1.17899,1.179 0.35151,0.17575 0.9011,-0.27789 1.179,0 0.27789,0.27789 -0.2779,0.9011 0,1.17899 0.27789,0.2779 0.9011,-0.27789 1.17899,0 0.27789,0.2779 -0.27789,0.90111 0,1.179 0.27789,0.27789 0.82749,-0.17576 1.179,0 0.4971,0.24855 0.68188,0.93044 1.17899,1.17899 0.35151,0.17576 0.90111,-0.27789 1.179,0 0.27789,0.2779 -0.27789,0.90111 0,1.179 0.27789,0.27789 0.82748,-0.17576 1.17899,0 0.77081,0.3854 1.58719,1.97259 2.35799,2.35799 0.35151,0.17575 0.82749,-0.17575 1.179,0 3.91023,3.91023 -1.11157,-0.55578 2.35799,1.17899 0.49711,0.24856 0.68189,0.93045 1.17899,1.179 0.35151,0.17575 0.90111,-0.27789 1.179,0 0.27789,0.27789 -0.27789,0.9011 0,1.179 0.5895,0.58949 2.94749,-0.5895 3.53699,0 0.27789,0.27789 -0.2779,0.9011 0,1.17899 0.24103,0.24103 3.06952,-0.23373 3.53698,0 0.49711,0.24855 0.68189,0.93044 1.179,1.179 0.46746,0.23373 3.29595,-0.24103 3.53698,0 0.27789,0.27789 -0.27789,0.9011 0,1.17899 0.27789,0.27789 0.82749,-0.17575 1.179,0 3.91023,3.91024 -1.11157,-0.55578 2.35799,1.179 0.49711,0.24855 0.68189,0.93044 1.17899,1.17899 0.70302,0.35151 1.65498,-0.35151 2.35799,0 0.49711,0.24856 0.68189,0.93044 1.179,1.179 0.9432,0.4716 2.59379,-0.4716 3.53699,0 0.4971,0.24855 0.68188,0.93044 1.17899,1.17899 0.70302,0.35151 1.65497,-0.35151 2.35799,0 0.49711,0.24856 0.68189,0.93044 1.179,1.179 0.94319,0.4716 2.59379,-0.4716 3.53698,0 0.49711,0.24855 0.68189,0.93044 1.179,1.17899 0.46746,0.23373 3.29595,-0.24103 3.53698,0 0.2779,0.2779 -0.27789,0.90111 0,1.179 0.41385,0.41385 5.08061,-0.40719 5.89498,0 0.49711,0.24855 0.68189,0.93044 1.179,1.17899 0.74102,0.37052 3.97495,-0.37051 4.71598,0 0.4971,0.24856 0.68188,0.93044 1.17899,1.179 0.9432,0.4716 2.59379,-0.4716 3.53699,0 0.49711,0.24855 0.68188,0.93044 1.17899,1.17899 0.74379,0.3719 5.15119,-0.37189 5.89498,0 0.49711,0.24856 0.68189,0.93045 1.17899,1.179 0.63959,0.31979 4.39339,-0.3226 4.71599,0 0.27789,0.27789 -0.2779,0.9011 0,1.17899 0.24103,0.24103 3.06952,-0.23373 3.53698,0 0.49711,0.24856 0.68189,0.93045 1.179,1.179 0.74102,0.37051 3.97495,-0.37051 4.71598,0 0.49711,0.24855 0.68189,0.93044 1.17899,1.179 0.70302,0.3515 1.65498,-0.35151 2.35799,0 0.49711,0.24855 0.68189,0.93044 1.179,1.17899 0.46746,0.23373 3.29596,-0.24103 3.53699,0 0.27789,0.27789 -0.2779,0.9011 0,1.179 0.32259,0.3226 4.07639,-0.3198 4.71598,0 0.4971,0.24855 0.68188,0.93044 1.17899,1.17899 0.9432,0.4716 2.59379,-0.4716 3.53699,0 0.49711,0.24856 0.68188,0.93044 1.17899,1.179 0.46746,0.23373 3.29596,-0.24103 3.53699,0 0.27789,0.27789 -0.27789,0.9011 0,1.17899 0.2837,0.2837 4.43228,-0.2837 4.71598,0 0.27789,0.27789 -0.27789,0.90111 0,1.179 0.55578,0.55578 1.65497,-0.35151 2.35799,0 0.49711,0.24855 0.68189,0.93044 1.179,1.17899 0.94319,0.4716 2.59379,-0.4716 3.53698,0 0.49711,0.24856 0.68189,0.93044 1.179,1.179 0.70301,0.35151 1.8022,-0.55579 2.35799,0 0.27789,0.27789 -0.27789,0.9011 0,1.17899 0.24103,0.24103 3.06952,-0.23373 3.53698,0 0.49711,0.24856 0.68189,0.93044 1.179,1.179 0.94319,0.4716 2.59379,-0.4716 3.53698,0 0.49711,0.24855 0.68189,0.93044 1.179,1.17899 0.74102,0.37052 3.97496,-0.37051 4.71598,0 0.49711,0.24856 0.68189,0.93044 1.179,1.179 0.94319,0.4716 2.59379,-0.4716 3.53698,0 0.49711,0.24855 0.68189,0.93044 1.179,1.17899 0.71591,0.35796 6.35806,-0.35795 7.07397,0 0.49711,0.24856 0.68189,0.93045 1.17899,1.179 0.74103,0.37051 3.97496,-0.37051 4.71599,0 0.4971,0.24855 0.68188,0.93044 1.17899,1.17899 0.30483,0.15242 6.2383,0 7.07397,0 2.35799,0 4.71598,0 7.07397,0 0.393,0 0.90111,-0.27789 1.179,0 0.27789,0.2779 -0.27789,0.90111 0,1.179 0.27789,0.27789 0.82749,-0.17575 1.17899,0 0.49711,0.24855 0.68189,0.93044 1.179,1.179 0.35151,0.17575 0.82749,-0.17576 1.179,0 0.4971,0.24855 0.68188,0.93044 1.17899,1.17899 0.35151,0.17575 0.82749,-0.17575 1.179,0 0.4971,0.24855 0.68188,0.93044 1.17899,1.179 0.35151,0.17575 0.82749,-0.17576 1.179,0 0.4971,0.24855 0.68188,0.93044 1.17899,1.17899 0.35151,0.17576 0.82749,-0.17575 1.179,0 0.99421,0.49711 1.30346,2.00648 2.35799,2.35799 5.36712,0 0.0674,-0.55578 3.53698,1.179 0.70302,0.35151 1.65498,-0.35151 2.35799,0 0.49711,0.24855 0.65174,1.00324 1.179,1.17899 1.09029,0.36343 6.29721,-0.38838 7.07397,0 0.49711,0.24856 0.68189,0.93044 1.179,1.179 0.3515,0.17575 0.78599,0 1.17899,0 0.786,0 1.572,0 2.35799,0 2.75099,0 5.50198,0 8.25297,0 0.53097,0 3.17818,-0.17941 3.53699,0 0.4971,0.24855 0.68188,0.93044 1.17899,1.17899 0.35151,0.17576 0.82749,-0.17575 1.179,0 0.4971,0.24856 0.68188,0.93044 1.17899,1.179 0.70302,0.35151 1.80221,-0.55579 2.35799,0 0.27789,0.27789 -0.27789,0.9011 0,1.17899 0.27789,0.2779 0.82749,-0.17575 1.179,0 3.91023,3.91024 -1.11157,-0.55578 2.35799,1.179 0.49711,0.24855 0.68188,0.93044 1.17899,1.17899 0.70302,0.35151 1.80221,-0.55578 2.35799,0 0.2779,0.2779 -0.27789,0.90111 0,1.179 0.55579,0.55578 1.65498,-0.35151 2.35799,0 0.49711,0.24855 0.68189,0.93044 1.179,1.17899 0.70302,0.35151 1.80221,-0.55578 2.35799,0 0.27789,0.2779 -0.27789,0.90111 0,1.179 0.2837,0.2837 4.43228,-0.2837 4.71598,0 0.27789,0.27789 -0.27789,0.9011 0,1.179 0.27789,0.27789 0.786,0 1.179,0 0.61652,0 4.40597,0.155 4.71598,0 0.49711,-0.24856 0.68188,-0.93045 1.17899,-1.179 0.70302,-0.35151 1.65498,0.35151 2.35799,0 0.49711,-0.24855 0.68189,-0.93044 1.179,-1.179 0.35151,-0.17575 0.82749,0.17576 1.17899,0 0.49711,-0.24855 0.68189,-0.93044 1.179,-1.17899 0.46746,-0.23373 3.29596,0.24103 3.53699,0 0.27789,-0.27789 -0.2779,-0.9011 0,-1.179 0.58949,-0.58949 2.94748,0.5895 3.53698,0 0.27789,-0.27789 -0.27789,-0.9011 0,-1.17899 0.5895,-0.5895 2.94749,0.5895 3.53699,0 0.27789,-0.27789 -0.2779,-0.9011 0,-1.179 0.78367,-0.78367 1.57431,0.78368 2.35799,0 0.27789,-0.27789 -0.27789,-0.9011 0,-1.17899 0.27789,-0.27789 0.82748,0.17575 1.17899,0 0.49711,-0.24856 0.68189,-0.93044 1.179,-1.179 0.35151,-0.17575 0.9011,0.27789 1.17899,0 0.2779,-0.27789 -0.27789,-0.9011 0,-1.17899 0.2779,-0.27789 0.786,0 1.179,0 0,-0.393 -0.17576,-0.82749 0,-1.179 0.31484,-0.62968 2.91629,-2.91628 3.53698,-3.53698 0.6207,-0.6207 2.90731,-3.22215 3.53699,-3.53699 0.35151,-0.17575 0.82749,0.17575 1.179,0 0.4971,-0.24855 0.68188,-0.93044 1.17899,-1.17899 0.35151,-0.17576 0.9011,0.27789 1.179,0 0.27789,-0.2779 -0.2779,-0.90111 0,-1.179 0.2837,-0.2837 4.43227,0.2837 4.71598,0 0.27789,-0.27789 -0.27789,-0.9011 0,-1.179 0.27789,-0.27789 0.82748,0.17576 1.17899,0 0.49711,-0.24855 0.68189,-0.93044 1.179,-1.17899 0.35151,-0.17575 0.9011,0.27789 1.17899,0 0.27789,-0.27789 -0.27789,-0.9011 0,-1.179 0.55579,-0.55578 1.80221,0.55579 2.35799,0 0.2779,-0.27789 -0.27789,-0.9011 0,-1.17899 0.2779,-0.27789 0.82749,0.17575 1.179,0 0.99422,-0.49711 1.36377,-1.86088 2.35799,-2.35799 0.35151,-0.17576 0.9011,0.27789 1.17899,0 0.2779,-0.27789 -0.27789,-0.90111 0,-1.179 0.2779,-0.27789 0.82749,0.17576 1.179,0 1.16017,-0.58008 3.55582,-4.1359 4.71598,-4.71598 0.35151,-0.17575 0.9011,0.27789 1.179,0 0.27789,-0.27789 -0.2779,-0.9011 0,-1.17899 0.27789,-0.2779 0.9011,0.27789 1.17899,0 0.27789,-0.2779 -0.27789,-0.90111 0,-1.179 0.27789,-0.27789 0.82749,0.17576 1.179,0 0.49711,-0.24855 0.68188,-0.93044 1.17899,-1.17899 0.35151,-0.17576 0.90111,0.27789 1.179,0 0.27789,-0.2779 -0.27789,-0.90111 0,-1.179 0.27789,-0.27789 0.82748,0.17576 1.17899,0 0.49711,-0.24855 0.786,-0.786 1.179,-1.17899 0.69342,-0.69342 4.17001,-4.443 4.71598,-4.71599 0.35151,-0.17575 0.9011,0.2779 1.17899,0 0.2779,-0.27789 -0.27789,-0.9011 0,-1.17899 0.2779,-0.27789 0.82749,0.17575 1.179,0 0.99422,-0.49711 1.36377,-1.86088 2.35799,-2.35799 0.35151,-0.17576 0.9011,0.27789 1.179,0 0.27789,-0.27789 -0.2779,-0.9011 0,-1.179 0.27789,-0.27789 0.9011,0.2779 1.17899,0 0.27789,-0.27789 -0.27789,-0.9011 0,-1.17899 0.27789,-0.27789 0.9011,0.27789 1.179,0 0.27789,-0.27789 -0.2779,-0.90111 0,-1.179 0.27789,-0.27789 0.9011,0.27789 1.17899,0 0.27789,-0.27789 -0.27789,-0.9011 0,-1.17899 0.27789,-0.27789 0.90111,0.27789 1.179,0 0.27789,-0.27789 -0.17576,-0.82749 0,-1.179 0.49711,-0.99421 1.86088,-1.36377 2.35799,-2.35799 0.17575,-0.35151 -0.27789,-0.9011 0,-1.17899 3.14399,0 -0.393,0.39299 1.17899,-1.179 0.27789,-0.27789 0.90111,0.27789 1.179,0 2.43938,-2.43938 -3.7277,0.0954 1.17899,-2.35799 0.35151,-0.17575 0.90111,0.27789 1.179,0 0.27789,-0.27789 -0.17576,-0.82749 0,-1.179 0.24855,-0.4971 0.93044,-0.68188 1.17899,-1.17899 0.17576,-0.35151 -0.17575,-0.82749 0,-1.179 0.49711,-0.99421 1.86089,-1.36377 2.35799,-2.35799 0.17576,-0.3515 -0.27789,-0.9011 0,-1.17899 0.2779,-0.27789 0.90111,0.27789 1.179,0 0.27789,-0.27789 -0.27789,-0.9011 0,-1.179 0.27789,-0.27789 0.9011,0.2779 1.179,0 0.27789,-0.27789 -0.17576,-0.82748 0,-1.17899 2.45334,-4.9067 -0.0814,1.26039 2.35799,-1.179 0.27789,-0.27789 0,-0.78599 0,-1.17899 0.39299,0 0.82748,0.17575 1.17899,0 0.31304,-0.15652 3.38047,-3.22395 3.53699,-3.53699 0.17575,-0.35151 -0.27789,-0.9011 0,-1.17899 0.27789,-0.2779 0.82748,0.17575 1.17899,0 0.99422,-0.49711 1.36378,-1.86089 2.35799,-2.35799 0.35151,-0.17576 0.82749,0.17575 1.179,0 0.49711,-0.24856 0.68189,-0.93045 1.17899,-1.179 0.70302,-0.35151 1.65498,0.35151 2.35799,0 0.49711,-0.24855 0.68189,-0.93044 1.179,-1.17899 0.70302,-0.35151 1.80221,0.55578 2.35799,0 0.27789,-0.2779 -0.27789,-0.90111 0,-1.179 0.55578,-0.55578 1.65497,0.35151 2.35799,0 0.49711,-0.24855 0.68189,-0.93044 1.179,-1.179 0.70301,-0.3515 1.8022,0.55579 2.35799,0 0.27789,-0.27789 -0.2779,-0.9011 0,-1.17899 0.55578,-0.55578 1.65497,0.35151 2.35799,0 0.4971,-0.24855 0.68188,-0.93044 1.17899,-1.179 0.35151,-0.17575 0.90111,0.2779 1.179,0 0.27789,-0.27789 -0.27789,-0.9011 0,-1.17899 0.27789,-0.27789 0.9011,0.27789 1.17899,0 0.27789,-0.27789 -0.27789,-0.9011 0,-1.179 0.27789,-0.27789 0.82749,0.17576 1.179,0 0.49711,-0.24855 0.78599,-0.78599 1.17899,-1.17899 0.393,-0.393 0.93044,-0.68189 1.179,-1.179 0.17575,-0.35151 -0.27789,-0.9011 0,-1.17899 0.27789,-0.27789 0.9011,0.27789 1.17899,0 0.2779,-0.27789 -0.27789,-0.90111 0,-1.179 0.2779,-0.27789 0.90111,0.27789 1.179,0 0.27789,-0.27789 -0.27789,-0.9011 0,-1.17899 0.27789,-0.27789 0.9011,0.27789 1.17899,0 0.2779,-0.27789 -0.17575,-0.82749 0,-1.179 0.3122,-0.62439 2.0458,-1.7336 2.358,-2.35799 0.17575,-0.35151 -0.2779,-0.9011 0,-1.17899 0.27789,-0.2779 0.9011,0.27789 1.17899,0 0.55578,-0.55579 -0.55578,-1.80221 0,-2.35799 0.27789,-0.2779 0.9011,0.27789 1.179,0 0.27789,-0.2779 -0.2779,-0.90111 0,-1.179 0.27789,-0.27789 0.9011,0.27789 1.17899,0 2.43938,-2.43938 -3.7277,0.0954 1.179,-2.35799 0.3515,-0.17575 0.9011,0.27789 1.17899,0 0.27789,-0.27789 -0.27789,-0.9011 0,-1.179 0.27789,-0.27789 0.82749,0.17576 1.179,0 0.4971,-0.24855 0.68188,-0.93044 1.17899,-1.17899 0.35151,-0.17576 0.90111,0.27789 1.179,0 0.27789,-0.27789 -0.27789,-0.9011 0,-1.179 0.55578,-0.55578 1.65497,0.35151 2.35799,0 0.49711,-0.24855 0.68189,-0.93044 1.17899,-1.17899 0.70302,-0.35151 1.80221,0.55578 2.35799,0 0.2779,-0.27789 -0.27789,-0.90111 0,-1.179 0.55579,-0.55578 1.65498,0.35151 2.35799,0 0.49711,-0.24855 0.68189,-0.93044 1.179,-1.17899 0.35151,-0.17576 0.9011,0.27789 1.17899,0 0.2779,-0.27789 -0.27789,-0.90111 0,-1.179 0.2779,-0.27789 0.90111,0.27789 1.179,0 0.27789,-0.27789 -0.27789,-0.9011 0,-1.17899 0.27789,-0.27789 0.82749,0.17575 1.179,0 0.4971,-0.24856 0.68188,-0.93044 1.17899,-1.179 0.35151,-0.17575 0.82749,0.17576 1.179,0 0.4971,-0.24855 0.68188,-0.93044 1.17899,-1.17899 0.35151,-0.17576 0.9011,0.27789 1.179,0 0.27789,-0.2779 -0.2779,-0.90111 0,-1.179 0.78688,-0.78688 1.5711,0.78689 2.35799,0 0.27789,-0.27789 -0.27789,-0.9011 0,-1.17899 0.27789,-0.2779 0.82748,0.17575 1.17899,0 0.49711,-0.24856 0.68189,-0.93045 1.179,-1.179 0.70301,-0.35151 1.8022,0.55578 2.35799,0 0.27789,-0.27789 -0.27789,-0.9011 0,-1.17899 0.5895,-0.5895 2.94749,0.58949 3.53698,0 0.2779,-0.2779 -0.27789,-0.90111 0,-1.179 0.55579,-0.55578 1.65498,0.35151 2.35799,0 0.4971,-0.24855 0.6819,-0.93044 1.179,-1.179 0.703,-0.3515 1.8022,0.55579 2.358,0 0.2779,-0.27789 -0.2779,-0.9011 0,-1.17899 0.5558,-0.55578 1.655,0.35151 2.358,0 0.4971,-0.24855 0.6819,-0.93044 1.179,-1.179 0.6396,-0.31979 4.3934,0.3226 4.716,0 0.2778,-0.27789 -0.2779,-0.9011 0,-1.17899 0.4138,-0.41385 5.0806,0.40718 5.8949,0 0.4971,-0.24856 0.6819,-0.93044 1.179,-1.179 0.703,-0.3515 1.655,0.35151 2.358,0 0.4971,-0.24855 0.6819,-0.93044 1.179,-1.17899 0.9432,-0.4716 2.5938,0.4716 3.537,0 0.4971,-0.24856 0.6819,-0.93044 1.179,-1.179 0.4675,-0.23373 3.296,0.24103 3.537,0 0.2779,-0.27789 -0.2779,-0.9011 0,-1.17899 0.038,-0.0379 3.251,0 3.537,0 2.358,0 4.7159,0 7.0739,0 0.393,0 0.9011,-0.27789 1.179,0 0.2779,0.27789 -0.2779,0.9011 0,1.17899 0.2779,0.27789 0.786,0 1.179,0 1.965,0 3.93,0 5.895,0 0.393,0 0.786,0 1.179,0 0.393,0 0.9011,0.27789 1.179,0 0.2779,-0.27789 -0.2779,-0.9011 0,-1.17899 0.038,-0.0379 3.251,0 3.537,0 0.82,0 5.4686,-0.21318 5.895,0 0.4971,0.24855 0.6818,0.93044 1.179,1.17899 0.9432,0.4716 2.5937,-0.4716 3.5369,0 0.4971,0.24856 0.786,0.786 1.179,1.179 0.393,0.393 0.9305,0.68189 1.179,1.17899 0.3705,0.74103 -0.3705,3.97496 0,4.71598 0.2486,0.49711 0.9305,0.68189 1.179,1.179 0.524,1.048 -0.131,1.70299 -1.179,1.179 -0.4971,-0.24856 -0.786,-0.786 -1.179,-1.179"
     id="path1449"
     inkscape:connector-curvature="0" />
</svg>
