<?xml version="1.0" encoding="UTF-8" standalone="no"?>
<!-- Created with Inkscape (http://www.inkscape.org/) -->

<svg
   xmlns:dc="http://purl.org/dc/elements/1.1/"
   xmlns:cc="http://creativecommons.org/ns#"
   xmlns:rdf="http://www.w3.org/1999/02/22-rdf-syntax-ns#"
   xmlns:svg="http://www.w3.org/2000/svg"
   xmlns="http://www.w3.org/2000/svg"
   xmlns:xlink="http://www.w3.org/1999/xlink"
   xmlns:sodipodi="http://sodipodi.sourceforge.net/DTD/sodipodi-0.dtd"
   xmlns:inkscape="http://www.inkscape.org/namespaces/inkscape"
   version="1.1"
   id="svg815"
   width="1110.6667"
   height="812"
   viewBox="0 0 1110.6667 812"
   sodipodi:docname="chr-ispytatelei-ispytatelei.svg.svg"
   inkscape:version="0.92.3 (2405546, 2018-03-11)">
  <metadata
     id="metadata821">
    <rdf:RDF>
      <cc:Work
         rdf:about="">
        <dc:format>image/svg+xml</dc:format>
        <dc:type
           rdf:resource="http://purl.org/dc/dcmitype/StillImage" />
        <dc:title></dc:title>
      </cc:Work>
    </rdf:RDF>
  </metadata>
  <defs
     id="defs819" />
  <sodipodi:namedview
     pagecolor="#ffffff"
     bordercolor="#666666"
     borderopacity="1"
     objecttolerance="10"
     gridtolerance="10"
     guidetolerance="10"
     inkscape:pageopacity="0"
     inkscape:pageshadow="2"
     inkscape:window-width="1366"
     inkscape:window-height="715"
     id="namedview817"
     showgrid="false"
     inkscape:zoom="0.84817981"
     inkscape:cx="435.40051"
     inkscape:cy="727.06651"
     inkscape:window-x="0"
     inkscape:window-y="0"
     inkscape:window-maximized="1"
     inkscape:current-layer="svg815"
     fit-margin-top="0"
     fit-margin-left="0"
     fit-margin-right="0"
     fit-margin-bottom="0"
     showguides="false" />
  <image
     sodipodi:absref="/home/aanper/project/luysy-imn-eh/pi/boot/bydefault/web/svg/../img/chr.png"
     xlink:href="../img/chr.png"
     y="0"
     x="0"
     id="image823"
     preserveAspectRatio="none"
     height="812"
     width="1110.6667" />
  <ellipse
     style="fill:#00ff00;fill-opacity:1;stroke:#00ff00;stroke-width:1.00157475;stroke-miterlimit:4;stroke-dasharray:none;stroke-opacity:1;paint-order:stroke fill markers"
     id="path832"
     cx="377.23819"
     cy="655.68585"
     rx="6.2525668"
     ry="5.8357291" />
  <ellipse
     style="fill:#00ff00;fill-opacity:1;stroke:#00ff00;stroke-width:0.24566929;stroke-miterlimit:4;stroke-dasharray:none;stroke-opacity:1;paint-order:stroke fill markers"
     id="path843"
     cx="606.49896"
     cy="399.22638"
     rx="2.7094455"
     ry="2.1883984" />
  <circle
     style="fill:#00ff00;fill-opacity:1;stroke:#00ff00;stroke-width:0.24566929;stroke-miterlimit:4;stroke-dasharray:none;stroke-opacity:1;paint-order:stroke fill markers"
     id="path845"
     cx="475.19507"
     cy="635.2608"
     r="3.7515399" />
  <ellipse
     style="fill:#00ff00;fill-opacity:1;stroke:#00ff00;stroke-width:0.24566929;stroke-miterlimit:4;stroke-dasharray:none;stroke-opacity:1;paint-order:stroke fill markers"
     id="path847"
     cx="871.39941"
     cy="165.69302"
     rx="2.7094455"
     ry="2.5010266" />
  <ellipse
     style="fill:#00ff00;fill-opacity:1;stroke:#00ff00;stroke-width:0.24566929;stroke-miterlimit:4;stroke-dasharray:none;stroke-opacity:1;paint-order:stroke fill markers"
     id="path849"
     cx="404.43686"
     cy="128.38603"
     rx="3.6473305"
     ry="3.3347023" />
  <ellipse
     style="fill:#00ff00;fill-opacity:1;stroke:#00ff00;stroke-width:0.24566929;stroke-miterlimit:4;stroke-dasharray:none;stroke-opacity:1;paint-order:stroke fill markers"
     id="path851"
     cx="452.06058"
     cy="53.980492"
     rx="2.7094455"
     ry="3.1262834" />
  <ellipse
     style="fill:#00ff00;fill-opacity:1;stroke:#00ff00;stroke-width:0.24566929;stroke-miterlimit:4;stroke-dasharray:none;stroke-opacity:1;paint-order:stroke fill markers"
     id="path853"
     cx="288.76437"
     cy="90.662216"
     rx="2.8136551"
     ry="2.5010266" />
  <ellipse
     style="fill:#00ff00;fill-opacity:1;stroke:#00ff00;stroke-width:0.24566929;stroke-miterlimit:4;stroke-dasharray:none;stroke-opacity:1;paint-order:stroke fill markers"
     id="path855"
     cx="1073.2531"
     cy="687.88654"
     rx="3.4389117"
     ry="3.2304928" />
  <ellipse
     style="fill:#00ff00;fill-opacity:1;stroke:#00ff00;stroke-width:0.24566929;stroke-miterlimit:4;stroke-dasharray:none;stroke-opacity:1;paint-order:stroke fill markers"
     id="path857"
     cx="1017.3968"
     cy="608.89581"
     rx="3.022074"
     ry="2.6052361" />
  <path
     style="fill:none;fill-opacity:1;stroke:#00ff00;stroke-width:1.13385832;stroke-miterlimit:4;stroke-dasharray:none;stroke-opacity:1;paint-order:stroke fill markers"
     d="m 290.03284,88.096893 c 3.51509,1.135193 -0.87877,4.137434 0,5.894976 0.24856,0.497108 0.93044,0.681887 1.179,1.178995 0.3515,0.703017 -0.55579,1.802207 0,2.357991 0.27789,0.277892 0.9011,-0.277892 1.17899,0 0.2837,0.283703 -0.2837,4.432275 0,4.715985 0.27789,0.27789 0.90111,-0.2779 1.179,0 0.3226,0.3226 -0.3198,4.07639 0,4.71598 0.24855,0.49711 0.93044,0.68188 1.17899,1.17899 0.35151,0.70302 -0.35151,1.65498 0,2.35799 0.24856,0.49711 0.93044,0.68189 1.179,1.179 0.37051,0.74102 -0.37051,3.97495 0,4.71598 0.24855,0.49711 0.93044,0.68189 1.17899,1.17899 0.23373,0.46747 -0.24103,3.29596 0,3.53699 0.27789,0.27789 0.90111,-0.27789 1.179,0 0.24103,0.24103 -0.23373,3.06952 0,3.53699 0.24855,0.4971 0.93044,0.68188 1.17899,1.17899 0.4716,0.9432 -0.47159,2.59379 0,3.53699 0.24856,0.49711 0.93044,0.68189 1.179,1.17899 0.23373,0.46747 -0.24103,3.29596 0,3.53699 0.27789,0.27789 0.9011,-0.27789 1.17899,0 0.3226,0.3226 -0.31979,4.07639 0,4.71598 0.24856,0.49711 0.93045,0.68189 1.179,1.179 0.17575,0.3515 0,0.78599 0,1.17899 0.393,0.393 0.93044,0.68189 1.17899,1.179 0.3198,0.63959 -0.32259,4.39338 0,4.71598 0.2779,0.27789 0.90111,-0.27789 1.179,0 0.27789,0.27789 0,0.78599 0,1.17899 0,0.393 0,0.786 0,1.179 0,2.75099 0,5.50198 0,8.25296 0,0.393 0.27789,0.90111 0,1.179 -0.27789,0.27789 -0.9011,-0.27789 -1.179,0 -0.27789,0.27789 0,0.786 0,1.179 0,2.75098 0,5.50197 0,8.25296 0,2.75099 0,5.50198 0,8.25297 0,0.393 0.2779,0.9011 0,1.17899 -0.27789,0.2779 -0.9011,-0.27789 -1.17899,0 -0.27789,0.2779 0,0.786 0,1.179 0,2.35799 0,4.71598 0,7.07397 0,0.28594 -0.0379,3.49907 0,3.53699 0.27789,0.27789 0.9011,-0.27789 1.17899,0 0.2779,0.27789 0,0.78599 0,1.17899 0,0.61652 0.15501,4.40598 0,4.71598 -0.24855,0.49711 -0.93044,0.68189 -1.17899,1.179 -0.23373,0.46746 0.24103,3.29596 0,3.53699 -0.27789,0.27789 -0.9011,-0.2779 -1.179,0 -0.55578,0.55578 0.55579,1.8022 0,2.35799 -0.27789,0.27789 -0.9011,-0.2779 -1.17899,0 -0.27789,0.27789 0.27789,0.9011 0,1.17899 -0.27789,0.27789 -0.9011,-0.27789 -1.179,0 -0.27789,0.27789 0.17576,0.82749 0,1.179 -0.15651,0.31303 -3.22395,3.38046 -3.53698,3.53698 -0.35151,0.17576 -0.90111,-0.27789 -1.179,0 -0.27789,0.27789 0.27789,0.90111 0,1.179 -0.27789,0.27789 -0.82748,-0.17576 -1.17899,0 -0.49711,0.24855 -0.68189,0.93044 -1.179,1.17899 -0.63959,0.3198 -4.39338,-0.3226 -4.71598,0 -0.27789,0.27789 0.27789,0.90111 0,1.179 -0.3226,0.3226 -4.07639,-0.3198 -4.71598,0 -0.49711,0.24855 -0.68189,0.93044 -1.179,1.17899 -0.3515,0.17576 -0.78599,0 -1.17899,0 -0.393,0 -0.786,0 -1.179,0 -1.96499,0 -3.92998,0 -5.89497,0 -0.61652,0 -4.40598,-0.155 -4.71598,0 -0.49711,0.24856 -0.68189,0.93044 -1.179,1.179 -0.81437,0.40718 -5.48113,-0.41385 -5.89498,0 -0.27789,0.27789 0.2779,0.9011 0,1.17899 -0.0534,0.0534 -5.33908,0 -5.89497,0 -0.393,0 -0.90111,-0.27789 -1.179,0 -0.27789,0.2779 0.27789,0.90111 0,1.179 -0.0379,0.0379 -3.25105,0 -3.53698,0 -3.14399,0 -6.28798,0 -9.43197,0 -0.53097,0 -3.17817,-0.1794 -3.53698,0 -0.49711,0.24855 -0.68189,0.93044 -1.179,1.17899 -0.63959,0.3198 -4.39338,-0.32259 -4.71598,0 -0.27789,0.2779 0.27789,0.90111 0,1.179 -0.2837,0.2837 -4.43228,-0.2837 -4.71598,0 -0.27789,0.27789 0.27789,0.9011 0,1.179 -0.55578,0.55578 -1.65497,-0.35151 -2.35799,0 -0.49711,0.24855 -0.68189,0.93044 -1.179,1.17899 -0.46746,0.23373 -3.29595,-0.24103 -3.53698,0 -0.27789,0.27789 0.27789,0.9011 0,1.179 -0.36507,0.36507 -5.5299,-0.36508 -5.89498,0 -0.27789,0.27789 0.27789,0.9011 0,1.17899 -0.24103,0.24103 -3.06952,-0.23373 -3.53698,0 -0.49711,0.24855 -0.68189,0.93044 -1.179,1.179 -2.09599,1.04799 -0.655,-0.655 -1.17899,-1.179 -0.1179,-0.1179 -3.41909,-0.1179 -3.53699,0 -0.27789,0.27789 0.27789,0.9011 0,1.179 -0.2837,0.2837 -4.43228,-0.28371 -4.71598,0 -0.27789,0.27789 0.27789,0.9011 0,1.17899 -0.3226,0.3226 -4.07639,-0.31979 -4.71598,0 -0.49711,0.24856 -0.68189,0.93044 -1.179,1.179 -0.46746,0.23373 -3.29595,-0.24103 -3.53698,0 -0.2779,0.27789 0.27789,0.9011 0,1.17899 -0.55579,0.55579 -1.65498,-0.35151 -2.35799,0 -0.49711,0.24856 -0.68189,0.93044 -1.179,1.179 -0.70302,0.35151 -1.65497,-0.35151 -2.35799,0 -0.49711,0.24855 -0.68189,0.93044 -1.17899,1.17899 -0.70302,0.35151 -1.65498,-0.35151 -2.358,0 -0.4971,0.24856 -0.68188,0.93044 -1.17899,1.179 -0.70302,0.35151 -1.65497,-0.35151 -2.35799,0 -0.49711,0.24855 -0.68189,0.93044 -1.179,1.17899 -0.35151,0.17576 -0.82748,-0.17575 -1.17899,0 -0.49711,0.24856 -0.68189,0.93044 -1.179,1.179 -0.70301,0.35151 -1.65497,-0.35151 -2.35799,0 -0.49711,0.24855 -0.68189,0.93044 -1.17899,1.17899 -0.70302,0.35151 -1.65498,-0.3515 -2.35799,0 -0.49711,0.24856 -0.68189,0.93045 -1.179,1.179 -0.70302,0.35151 -1.65497,-0.35151 -2.35799,0 -0.49711,0.24855 -0.68189,0.93044 -1.17899,1.17899 -0.9432,0.4716 -2.59379,-0.47159 -3.53699,0 -0.49711,0.24856 -0.68189,0.93045 -1.179,1.179 -0.30483,0.15241 -6.23829,0 -7.07397,0 -4.71598,0 -9.43196,0 -14.14794,0 -0.393,0 -0.786,0 -1.179,0 -0.39299,0 -0.9011,0.27789 -1.17899,0 -0.27789,-0.27789 0.27789,-0.9011 0,-1.179 -0.27789,-0.27789 -0.786,0 -1.179,0 -0.393,0 -0.78599,0 -1.17899,0 -2.75099,0 -5.50198,0 -8.25297,0 -0.53097,0 -3.17818,-0.1794 -3.53699,0 -0.4971,0.24856 -0.68188,0.93045 -1.17899,1.179 -0.35151,0.17575 -0.82749,-0.17575 -1.179,0 -0.4971,0.24855 -0.68188,0.93044 -1.17899,1.17899 -0.35151,0.17576 -0.82749,-0.17575 -1.179,0 -0.4971,0.24856 -0.68188,0.93045 -1.17899,1.179 -0.35151,0.17575 -0.90111,-0.27789 -1.179,0 -0.27789,0.27789 0.27789,0.9011 0,1.179 -0.58949,0.58949 -2.94749,-0.5895 -3.53698,0 -0.27789,0.27789 0.27789,0.9011 0,1.17899 -0.24103,0.24103 -3.06953,-0.23373 -3.53699,0 -0.49711,0.24855 -0.68189,0.93044 -1.17899,1.179 -0.9432,0.47159 -2.59379,-0.4716 -3.53699,0 -0.49711,0.24855 -0.68189,0.93044 -1.179,1.17899 -0.94319,0.4716 -2.593785,-0.4716 -3.536981,0 -0.497108,0.24856 -0.681887,0.93044 -1.178995,1.179 -0.310007,0.155 -4.099461,0 -4.715981,0 -0.392999,0 -0.901104,0.27789 -1.178996,0 -0.277892,-0.2779 0,-0.786 0,-1.179 -0.392998,0 -0.901103,0.27789 -1.178995,0 -0.277892,-0.27789 0.277892,-0.9011 0,-1.17899 -0.277892,-0.2779 -0.901103,0.27789 -1.178995,0 -0.277892,-0.2779 0.277892,-0.90111 0,-1.179 -0.277892,-0.27789 -0.901104,0.27789 -1.178996,0 -0.555783,-0.55578 0.555784,-1.80221 0,-2.35799 -0.277891,-0.27789 -0.901103,0.27789 -1.178995,0 -0.277892,-0.27789 0.175754,-0.82749 0,-1.179 -0.248554,-0.4971 -0.930441,-0.68188 -1.178995,-1.17899 -0.351509,-0.70302 0.351508,-1.65497 0,-2.35799 -0.248554,-0.49711 -0.930441,-0.68189 -1.178995,-1.179 -0.175755,-0.3515 0.175754,-0.82748 0,-1.17899 -0.248555,-0.49711 -0.930442,-0.68189 -1.178996,-1.179 -0.152415,-0.30483 0,-6.23829 0,-7.07397 0,-0.393 0.277892,-0.9011 0,-1.17899 -0.277892,-0.2779 -0.901103,0.27789 -1.178995,0 -0.277892,-0.2779 0,-0.786 0,-1.179 0,-0.82004 0.213182,-5.46861 0,-5.89498 -0.248554,-0.4971 -0.930441,-0.68188 -1.178995,-1.17899 -0.155004,-0.31001 0,-4.09946 0,-4.71598 0,-0.61652 0.155003,-4.40598 0,-4.71598 -0.248554,-0.49711 -0.930442,-0.68189 -1.178996,-1.179 -0.213182,-0.42636 0,-5.07494 0,-5.89497 0,-0.393 0.277892,-0.90111 0,-1.179 -0.277892,-0.27789 -0.901103,0.27789 -1.178995,0 -0.277892,-0.27789 0,-0.786 0,-1.179 0,-0.39299 0,-0.78599 0,-1.17899 0,-4.71598 0,-9.43196 0,-14.14794 0,-4.71599 0,-9.43197 0,-14.14795 0,-0.82004 0.213182,-5.46861 0,-5.89497 -0.248554,-0.49711 -0.930441,-0.68189 -1.178995,-1.179 -0.319795,-0.63959 0.322599,-4.39338 0,-4.71598 -0.277892,-0.27789 -0.901104,0.27789 -1.178996,0 -0.241029,-0.24103 0.233731,-3.06952 0,-3.53699 -0.248554,-0.4971 -0.930441,-0.68188 -1.178995,-1.17899 -0.351508,-0.70302 0.351509,-1.65498 0,-2.35799 -0.248554,-0.49711 -0.930441,-0.68189 -1.178995,-1.179 -0.351509,-0.70301 0.351508,-1.65497 0,-2.35799 -0.248554,-0.49711 -0.930441,-0.68189 -1.178995,-1.17899 -0.371896,-0.7438 0.371896,-5.15119 0,-5.89498 -0.248554,-0.49711 -0.930442,-0.68189 -1.178996,-1.179 -0.370512,-0.74102 0.370513,-3.97495 0,-4.71598 -0.248554,-0.4971 -0.930441,-0.68188 -1.178995,-1.17899 -0.370512,-0.74103 0.370512,-3.97496 0,-4.71598 -0.248554,-0.49711 -0.930441,-0.68189 -1.178995,-1.179 -0.351509,-0.70302 0.555783,-1.8022 0,-2.35799 -0.277892,-0.27789 -0.901104,0.27789 -1.178996,0 -0.589497,-0.5895 0.589498,-2.94749 0,-3.53698 -0.277891,-0.2779 -0.901103,0.27789 -1.178995,0 -0.277892,-0.2779 0,-0.786 0,-1.179 0,-0.393 0,-0.786 0,-1.179 0,-4.71598 0,-9.43196 0,-14.14794 0,-0.28594 0.03792,-3.499068 0,-3.536984 -0.277892,-0.277892 -0.901103,0.277894 -1.178995,0 -0.589498,-0.589498 0.589498,-2.947489 0,-3.536986 -0.277892,-0.277892 -0.901104,0.277892 -1.178995,0 -0.589498,-0.589498 0.589497,-2.947488 0,-3.536986 -0.277892,-0.277892 -0.901104,0.277892 -1.178996,0 -0.283703,-0.283703 0.283703,-4.432278 0,-4.715981 -0.277892,-0.277892 -0.901103,0.277892 -1.178995,0 -0.24103,-0.24103 0.233731,-3.069524 0,-3.536986 -0.248554,-0.497108 -0.930441,-0.681887 -1.178995,-1.178995 -0.175755,-0.351509 0,-0.785997 0,-1.178996 0,-0.392998 0,-0.785997 0,-1.178995 0,-1.964992 0,-3.929984 0,-5.894976 0,-0.392999 0.175754,-0.827487 0,-1.178996 -0.248554,-0.497108 -0.930442,-0.681887 -1.178996,-1.178995 -0.155003,-0.310007 0,-4.09946 0,-4.715981 0,-0.392999 -0.277891,-0.901104 0,-1.178995 0.277892,-0.277892 0.901104,0.277891 1.178996,0 0.322599,-0.3226 -0.319795,-4.076391 0,-4.715982 0.248554,-0.497108 0.930441,-0.681887 1.178995,-1.178995 0.471598,-0.943196 -0.471598,-2.59379 0,-3.536986 0.248554,-0.497108 0.930441,-0.681887 1.178995,-1.178995 0.233731,-0.467462 -0.241029,-3.295956 0,-3.536986 0.277892,-0.277892 0.901104,0.277892 1.178996,0 0.241029,-0.24103 -0.233731,-3.069524 0,-3.536986 0.248554,-0.497108 0.930441,-0.681887 1.178995,-1.178995 0.351508,-0.703017 -0.351509,-1.654974 0,-2.357991 0.248554,-0.497108 0.930441,-0.681887 1.178995,-1.178995 0.319795,-0.63959 -0.322599,-4.393382 0,-4.715981 0.277892,-0.277892 0.901104,0.277892 1.178995,0 0.24103,-0.24103 -0.233731,-3.069524 0,-3.536986 0.248554,-0.497108 0.930442,-0.681887 1.178996,-1.178995 0.351508,-0.703017 -0.555784,-1.802207 0,-2.357991 0.277892,-0.277892 0.901103,0.277892 1.178995,0 0.277892,-0.277892 -0.175754,-0.827487 0,-1.178995 0.248554,-0.497108 0.930441,-0.681887 1.178995,-1.178995 0.175755,-0.351509 -0.277892,-0.901104 0,-1.178996 0.277892,-0.277892 0.901104,0.277892 1.178996,0 2.439383,-2.439383 -3.727701,0.09536 1.178995,-2.35799 3.143987,0 -0.392999,0.392998 1.178995,-1.178996 0.555784,-0.555783 1.802207,0.555784 2.357991,0 0.277892,-0.277891 -0.277892,-0.901103 0,-1.178995 0.555783,-0.555784 1.654973,0.351509 2.35799,0 0.497108,-0.248554 0.681888,-0.930441 1.178996,-1.178995 0.426364,-0.213182 5.074938,0 5.894976,0 0.392999,0 0.901104,-0.277892 1.178995,0 0.277892,0.277892 -0.277891,0.901103 0,1.178995 0.555784,0.555784 1.802207,-0.555784 2.357991,0 0.277892,0.277892 -0.277892,0.901104 0,1.178995 0.277892,0.277892 0.785997,0 1.178995,0 0.392999,0 0.901104,-0.277891 1.178996,0 0.277891,0.277892 -0.277892,0.901104 0,1.178996 0.589497,0.589497 2.947488,-0.589498 3.536985,0 0.277892,0.277892 -0.277891,0.901103 0,1.178995 0.277892,0.277892 0.785997,0 1.178996,0 1.964992,0 3.929986,0 5.894976,0 0.53097,0 3.17818,-0.179404 3.53699,0 0.4971,0.248554 0.68188,0.930441 1.17899,1.178995 0.81437,0.407186 5.48113,-0.41385 5.89498,0 0.27789,0.277892 -0.27789,0.901104 0,1.178996 0.2837,0.283702 4.43228,-0.283703 4.71598,0 0.27789,0.277891 -0.27789,0.901103 0,1.178995 0.55578,0.555784 1.65497,-0.351509 2.35799,0 0.49711,0.248554 0.68189,0.930441 1.17899,1.178995 0.70302,0.351509 1.80221,-0.555784 2.358,0 0.27789,0.277892 -0.2779,0.901104 0,1.178995 0.55578,0.555784 1.65497,-0.351508 2.35799,0 0.4971,0.248554 0.68188,0.930442 1.17899,1.178996 0.35151,0.175754 0.82749,-0.175755 1.179,0 0.4971,0.248554 0.68188,0.930441 1.17899,1.178995 0.70302,0.351508 1.80221,-0.555784 2.35799,0 0.27789,0.277892 -0.27789,0.901103 0,1.178995 0.41385,0.413851 5.08061,-0.407185 5.89498,0 0.49711,0.248554 0.68189,0.930442 1.17899,1.178996 0.42637,0.213182 5.07494,0 5.89498,0 1.96499,0 3.92998,0 5.89498,0 0.393,0 0.9011,-0.277892 1.17899,0 1.572,1.571993 -1.96499,1.178995 1.179,1.178995 2.35799,0 4.71598,0 7.07397,0 0.393,0 0.786,0 1.17899,0 0.393,0 0.82749,-0.175754 1.179,0 0.49711,0.248554 0.68189,0.930441 1.179,1.178995 0.46746,0.233731 3.29595,-0.241029 3.53698,0 0.27789,0.277892 -0.27789,0.901104 0,1.178995 0.27789,0.277892 0.786,0 1.179,0 0.82003,0 5.46861,-0.213182 5.89497,0 0.49711,0.248554 0.68189,0.930442 1.179,1.178996 0.74102,0.370512 3.97495,-0.370513 4.71598,0 0.49711,0.248554 0.68189,0.930441 1.17899,1.178995 0.9432,0.471598 2.59379,-0.471598 3.53699,0 0.49711,0.248554 0.68189,0.930441 1.179,1.178995 0.46746,0.233731 3.29595,-0.241029 3.53698,0 0.27789,0.277892 -0.27789,0.901104 0,1.178996 0.41385,0.41385 5.08061,-0.407186 5.89498,0 0.49711,0.248554 0.68189,0.930441 1.17899,1.178995 0.74103,0.370512 3.97496,-0.370512 4.71598,0 0.49711,0.248554 0.68189,0.930441 1.179,1.178995 0.31001,0.155004 4.09946,0 4.71598,0 3.14399,0 6.28798,0 9.43196,0 0.53097,0 3.17818,-0.179404 3.53699,0 0.49711,0.248554 0.68189,0.930441 1.17899,1.178995 0.81438,0.407186 5.48113,-0.41385 5.89498,0 0.27789,0.277892 -0.27789,0.901104 0,1.178996 0.27789,0.277892 0.786,0 1.179,0 0.39299,0 0.78599,0 1.17899,0 0.28594,0 3.49907,-0.03792 3.53699,0 0.27789,0.277892 -0.27789,0.901103 0,1.178995 0.55578,0.555784 1.65497,-0.351508 2.35799,0 0.49711,0.248554 0.68188,0.930441 1.17899,1.178995 0.35151,0.175755 0.82749,-0.175754 1.179,0 0.49711,0.248554 0.68189,0.930442 1.17899,1.178996 0.35151,0.175754 0.82749,-0.175755 1.179,0 0.49711,0.248554 0.68189,0.930441 1.17899,1.178995 0.35151,0.175754 0.82749,-0.175754 1.179,0 0.49711,0.248554 0.68189,0.930441 1.17899,1.178995 0.35151,0.175754 0.90111,-0.277892 1.179,0 0.27789,0.277892 -0.27789,0.901104 0,1.178995 0.55578,0.555784 1.65497,-0.351508 2.35799,0 0.49711,0.248555 0.68189,0.930442 1.179,1.178996 0.70301,0.351508 1.8022,-0.555784 2.35799,0 0.27789,0.277892 -0.2779,0.901103 0,1.178995 0.27789,0.277892 0.9011,-0.277892 1.17899,0 0.27789,0.277892 -0.27789,0.901104 0,1.178995 0.55579,0.555784 1.80221,-0.555783 2.35799,0 0.27789,0.277892 -0.27789,0.901104 0,1.178996 0.27789,0.277892 0.82749,-0.175755 1.179,0 0.99421,0.497108 1.36377,1.860882 2.35799,2.35799 0.35151,0.175754 0.9011,-0.277892 1.17899,0 0.2779,0.277892 -0.27789,0.901104 0,1.178996 0.2779,0.277891 0.82749,-0.175755 1.179,0 0.49711,0.248554 0.68189,0.930441 1.17899,1.178995 1.62626,0.813128 1.05458,-1.427828 2.35799,1.178995 0.17576,0.351509 -0.27789,0.901104 0,1.178995 0.2779,0.277892 0.82749,-0.175754 1.179,0 0.49711,0.248554 0.68189,0.930442 1.179,1.178996 0.3515,0.175754 0.9011,-0.277892 1.17899,0 0.27789,0.277892 -0.27789,0.901103 0,1.178995 0.27789,0.277892 0.82749,-0.175754 1.179,0 0.99421,0.497108 1.36377,1.860882 2.35799,2.357991 0.70301,0.351508 1.8022,-0.555784 2.35799,0 0.27789,0.277891 -0.27789,0.901103 0,1.178995 0.55578,0.555784 1.8022,-0.555784 2.35799,0 0.27789,0.277892 -0.27789,0.901103 0,1.178995 0.27789,0.277892 0.9011,-0.277892 1.17899,0 1.572,1.571994 -1.96499,1.178995 1.179,1.178995 3.26486,0 -0.90687,1.178996 2.35799,1.178996 0.393,0 1.17899,0.392998 1.17899,0 0,-0.555784 -0.78599,-0.785997 -1.17899,-1.178996"
     id="path1521"
     inkscape:connector-curvature="0" />
</svg>
