<?xml version="1.0" encoding="UTF-8" standalone="no"?>
<!-- Created with Inkscape (http://www.inkscape.org/) -->

<svg
   xmlns:dc="http://purl.org/dc/elements/1.1/"
   xmlns:cc="http://creativecommons.org/ns#"
   xmlns:rdf="http://www.w3.org/1999/02/22-rdf-syntax-ns#"
   xmlns:svg="http://www.w3.org/2000/svg"
   xmlns="http://www.w3.org/2000/svg"
   xmlns:xlink="http://www.w3.org/1999/xlink"
   xmlns:sodipodi="http://sodipodi.sourceforge.net/DTD/sodipodi-0.dtd"
   xmlns:inkscape="http://www.inkscape.org/namespaces/inkscape"
   version="1.1"
   id="svg815"
   width="1110.6667"
   height="812"
   viewBox="0 0 1110.6667 812"
   sodipodi:docname="chr-ispytatelei-citymall.svg"
   inkscape:version="0.92.3 (2405546, 2018-03-11)">
  <metadata
     id="metadata821">
    <rdf:RDF>
      <cc:Work
         rdf:about="">
        <dc:format>image/svg+xml</dc:format>
        <dc:type
           rdf:resource="http://purl.org/dc/dcmitype/StillImage" />
        <dc:title></dc:title>
      </cc:Work>
    </rdf:RDF>
  </metadata>
  <defs
     id="defs819" />
  <sodipodi:namedview
     pagecolor="#ffffff"
     bordercolor="#666666"
     borderopacity="1"
     objecttolerance="10"
     gridtolerance="10"
     guidetolerance="10"
     inkscape:pageopacity="0"
     inkscape:pageshadow="2"
     inkscape:window-width="1366"
     inkscape:window-height="715"
     id="namedview817"
     showgrid="false"
     inkscape:zoom="0.84817981"
     inkscape:cx="532.59865"
     inkscape:cy="497.66696"
     inkscape:window-x="0"
     inkscape:window-y="0"
     inkscape:window-maximized="1"
     inkscape:current-layer="svg815"
     fit-margin-top="0"
     fit-margin-left="0"
     fit-margin-right="0"
     fit-margin-bottom="0"
     showguides="false" />
  <image
     sodipodi:absref="/home/aanper/project/luysy-imn-eh/pi/boot/bydefault/web/svg/../img/chr.png"
     xlink:href="../img/chr.png"
     y="0"
     x="0"
     id="image823"
     preserveAspectRatio="none"
     height="812"
     width="1110.6667" />
  <ellipse
     style="fill:#00ff00;fill-opacity:1;stroke:#00ff00;stroke-width:1.00157475;stroke-miterlimit:4;stroke-dasharray:none;stroke-opacity:1;paint-order:stroke fill markers"
     id="path832"
     cx="377.23819"
     cy="655.68585"
     rx="6.2525668"
     ry="5.8357291" />
  <ellipse
     style="fill:#00ff00;fill-opacity:1;stroke:#00ff00;stroke-width:0.24566929;stroke-miterlimit:4;stroke-dasharray:none;stroke-opacity:1;paint-order:stroke fill markers"
     id="path843"
     cx="606.49896"
     cy="399.22638"
     rx="2.7094455"
     ry="2.1883984" />
  <circle
     style="fill:#00ff00;fill-opacity:1;stroke:#00ff00;stroke-width:0.24566929;stroke-miterlimit:4;stroke-dasharray:none;stroke-opacity:1;paint-order:stroke fill markers"
     id="path845"
     cx="475.19507"
     cy="635.2608"
     r="3.7515399" />
  <ellipse
     style="fill:#00ff00;fill-opacity:1;stroke:#00ff00;stroke-width:0.24566929;stroke-miterlimit:4;stroke-dasharray:none;stroke-opacity:1;paint-order:stroke fill markers"
     id="path847"
     cx="871.39941"
     cy="165.69302"
     rx="2.7094455"
     ry="2.5010266" />
  <ellipse
     style="fill:#00ff00;fill-opacity:1;stroke:#00ff00;stroke-width:0.24566929;stroke-miterlimit:4;stroke-dasharray:none;stroke-opacity:1;paint-order:stroke fill markers"
     id="path849"
     cx="404.43686"
     cy="128.38603"
     rx="3.6473305"
     ry="3.3347023" />
  <ellipse
     style="fill:#00ff00;fill-opacity:1;stroke:#00ff00;stroke-width:0.24566929;stroke-miterlimit:4;stroke-dasharray:none;stroke-opacity:1;paint-order:stroke fill markers"
     id="path851"
     cx="452.06058"
     cy="53.980492"
     rx="2.7094455"
     ry="3.1262834" />
  <ellipse
     style="fill:#00ff00;fill-opacity:1;stroke:#00ff00;stroke-width:0.24566929;stroke-miterlimit:4;stroke-dasharray:none;stroke-opacity:1;paint-order:stroke fill markers"
     id="path853"
     cx="288.76437"
     cy="90.662216"
     rx="2.8136551"
     ry="2.5010266" />
  <ellipse
     style="fill:#00ff00;fill-opacity:1;stroke:#00ff00;stroke-width:0.24566929;stroke-miterlimit:4;stroke-dasharray:none;stroke-opacity:1;paint-order:stroke fill markers"
     id="path855"
     cx="1073.2531"
     cy="687.88654"
     rx="3.4389117"
     ry="3.2304928" />
  <ellipse
     style="fill:#00ff00;fill-opacity:1;stroke:#00ff00;stroke-width:0.24566929;stroke-miterlimit:4;stroke-dasharray:none;stroke-opacity:1;paint-order:stroke fill markers"
     id="path857"
     cx="1017.3968"
     cy="608.89581"
     rx="3.022074"
     ry="2.6052361" />
  <path
     style="fill:none;fill-opacity:1;stroke:#00ff00;stroke-width:1.13385832;stroke-miterlimit:4;stroke-dasharray:none;stroke-opacity:1;paint-order:stroke fill markers"
     d="m 451.5552,52.727034 c -2.14372,3.370861 2.61738,4.055775 3.53698,5.894976 0.35151,0.703017 -0.55578,1.802207 0,2.357991 0.27789,0.277892 0.9011,-0.277892 1.179,0 0.27789,0.277892 -0.17576,0.827487 0,1.178995 0.24855,0.497108 0.93044,0.681888 1.17899,1.178996 0.17576,0.351508 -0.17575,0.827486 0,1.178995 0.24856,0.497108 0.93044,0.681887 1.179,1.178995 0.35795,0.715913 -0.35796,6.35806 0,7.073972 0.24855,0.497108 0.93044,0.681887 1.17899,1.178995 0.17576,0.351509 0,0.785997 0,1.178996 0,2.35799 0,4.715981 0,7.073971 0,0.392999 0.27789,0.901104 0,1.178996 -0.27789,0.277891 -0.9011,-0.277892 -1.17899,0 -0.5895,0.589497 0.58949,2.947488 0,3.536985 -0.27789,0.277892 -0.90111,-0.277891 -1.179,0 -0.78527,0.785276 0.78528,1.572715 0,2.357991 -0.27789,0.277892 -0.82748,-0.175754 -1.17899,0 -0.49711,0.248554 -0.68189,0.930441 -1.179,1.178995 -0.35151,0.175755 -0.9011,-0.277892 -1.17899,0 -0.2779,0.277892 0.27789,0.901104 0,1.178996 -0.55579,0.555783 -1.80221,-0.555784 -2.35799,0 -0.2779,0.277891 0.27789,0.901103 0,1.178995 -0.24103,0.241029 -3.06953,-0.233731 -3.53699,0 -0.49711,0.248554 -0.68189,0.930441 -1.179,1.178995 -0.70301,0.351509 -1.65497,-0.351508 -2.35799,0 -0.4971,0.248554 -0.68188,0.930441 -1.17899,1.178995 -0.35151,0.175755 -0.9011,-0.277891 -1.179,0 -0.27789,0.277892 0.2779,0.901104 0,1.178996 -0.55578,0.555783 -1.8022,-0.555784 -2.35799,0 -0.27789,0.277892 0.27789,0.901103 0,1.178995 -0.27789,0.277892 -0.9011,-0.277892 -1.17899,0 -0.27789,0.277892 0.17575,0.827487 0,1.178995 -2.45335,4.9067 0.0814,-1.260388 -2.35799,1.178996 -0.2779,0.277894 0.27789,0.901104 0,1.178994 -0.2779,0.27789 -0.90111,-0.27789 -1.179,0 -0.27789,0.27789 0.27789,0.9011 0,1.179 -0.27789,0.27789 -0.82749,-0.17576 -1.17899,0 -0.49711,0.24855 -0.68189,0.93044 -1.179,1.17899 -0.35151,0.17576 -0.82749,-0.17575 -1.17899,0 -0.49711,0.24856 -0.68189,0.93044 -1.179,1.179 -0.35151,0.17575 -0.9011,-0.2779 -1.17899,0 -0.2779,0.27789 0.27789,0.9011 0,1.17899 -0.2779,0.27789 -0.82749,-0.17575 -1.179,0 -0.49711,0.24856 -0.68189,0.93044 -1.179,1.179 -0.70301,0.35151 -1.8022,-0.55579 -2.35799,0 -0.27789,0.27789 0.2779,0.9011 0,1.17899 -0.27789,0.27789 -0.82748,-0.17575 -1.17899,0 -0.49711,0.24856 -0.68189,0.93044 -1.179,1.179 -0.35151,0.17575 -0.9011,-0.27789 -1.17899,0 -0.27789,0.27789 0.27789,0.9011 0,1.17899 -0.55579,0.55579 -1.65498,-0.35151 -2.35799,0 -0.49711,0.24856 -0.68189,0.93044 -1.179,1.179 -0.35151,0.17575 -0.82748,-0.17576 -1.17899,0 -0.49711,0.24855 -0.68189,0.93044 -1.179,1.17899 -0.35881,0.17941 -3.00601,0 -3.53698,0 -3.14399,0 -6.28798,0 -9.43197,0 -0.39299,0 -0.78599,0 -1.17899,0 -0.393,0 -0.90111,-0.27789 -1.179,0 -0.27789,0.2779 0.27789,0.90111 0,1.179 -0.27789,0.27789 -0.78599,0 -1.17899,0 -0.393,0 -0.786,0 -1.179,0 -3.53698,0 -7.07397,0 -10.61096,0 -0.28593,0 -3.49906,0.0379 -3.53698,0 -0.27789,-0.27789 0.27789,-0.9011 0,-1.179 -0.27789,-0.27789 -0.786,0 -1.179,0 -1.96499,0 -3.92998,0 -5.89497,0 -0.393,0 -0.90111,0.2779 -1.179,0 -0.27789,-0.27789 0.27789,-0.9011 0,-1.17899 -0.27789,-0.27789 -0.786,0 -1.17899,0 -1.965,0 -3.92999,0 -5.89498,0 -2.35799,0 -4.71598,0 -7.07397,0 -0.393,0 -0.786,0 -1.179,0 -0.393,0 -0.82748,-0.17576 -1.17899,0 -0.49711,0.24855 -0.68189,0.93044 -1.179,1.17899 -0.35881,0.17941 -3.00601,0 -3.53698,0 -3.14399,0 -6.28798,0 -9.43197,0 -0.55589,0 -5.84154,0.0534 -5.89497,0 -0.27789,-0.27789 0.27789,-0.9011 0,-1.17899 -0.41385,-0.41385 -5.08061,0.40718 -5.89498,0 -0.49711,-0.24856 -0.68189,-0.93044 -1.17899,-1.179 -0.81438,-0.40718 -5.48113,0.41385 -5.89498,0 -0.27789,-0.27789 0.27789,-0.9011 0,-1.17899 -0.55578,-0.55579 -1.80221,0.55578 -2.35799,0 -0.27789,-0.27789 0.27789,-0.90111 0,-1.179 -0.27789,-0.27789 -0.82749,0.17576 -1.179,0 -0.4971,-0.24855 -0.68188,-0.93044 -1.17899,-1.17899 -0.35151,-0.17576 -0.82749,0.17575 -1.179,0 -0.4971,-0.24856 -0.68188,-0.93044 -1.17899,-1.179 -0.70302,-0.35151 -1.80221,0.55579 -2.35799,0 -0.27789,-0.27789 0.27789,-0.9011 0,-1.17899 -0.55579,-0.55579 -1.80221,0.55578 -2.35799,0 -0.2779,-0.2779 0.27789,-0.90111 0,-1.179 -0.2779,-0.27789 -0.82749,0.17576 -1.179,0 -0.49711,-0.24855 -0.68189,-0.93044 -1.17899,-1.17899 -0.35151,-0.17576 -0.90111,0.27789 -1.179,0 -0.27789,-0.2779 0.27789,-0.90111 0,-1.179 -0.27789,-0.27789 -0.9011,0.27789 -1.17899,0 -0.2779,-0.27789 0.27789,-0.9011 0,-1.178994 -0.2779,-0.277892 -0.82749,0.175754 -1.179,0 -0.49711,-0.248554 -0.68189,-0.930442 -1.17899,-1.178996 -0.35151,-0.175754 -0.90111,0.277892 -1.179,0 -0.27789,-0.277892 0.27789,-0.901103 0,-1.178995 -0.55578,-0.555784 -1.65497,0.351509 -2.35799,0 -0.49711,-0.248554 -0.68189,-0.930441 -1.179,-1.178995 -0.70301,-0.351509 -1.8022,0.555783 -2.35799,0 -0.27789,-0.277892 0.2779,-0.901104 0,-1.178996 -0.55578,-0.555783 -1.65497,0.351509 -2.35799,0 -0.49711,-0.248554 -0.68188,-0.930441 -1.17899,-1.178995 -1.62626,-0.813128 -1.05458,1.427828 -2.35799,-1.178995 -0.17576,-0.351509 0.27789,-0.901104 0,-1.178995 -0.27789,-0.277892 -0.90111,0.277891 -1.179,0 -0.27789,-0.277892 0.27789,-0.901104 0,-1.178996 -0.27789,-0.277892 -0.9011,-0.277892 -1.17899,0 -0.2779,0.277892 0,0.785997 0,1.178996"
     id="path1149"
     inkscape:connector-curvature="0" />
</svg>
