<?xml version="1.0" encoding="UTF-8" standalone="no"?>
<!-- Created with Inkscape (http://www.inkscape.org/) -->

<svg
   xmlns:dc="http://purl.org/dc/elements/1.1/"
   xmlns:cc="http://creativecommons.org/ns#"
   xmlns:rdf="http://www.w3.org/1999/02/22-rdf-syntax-ns#"
   xmlns:svg="http://www.w3.org/2000/svg"
   xmlns="http://www.w3.org/2000/svg"
   xmlns:xlink="http://www.w3.org/1999/xlink"
   xmlns:sodipodi="http://sodipodi.sourceforge.net/DTD/sodipodi-0.dtd"
   xmlns:inkscape="http://www.inkscape.org/namespaces/inkscape"
   version="1.1"
   id="svg815"
   width="1110.6667"
   height="812"
   viewBox="0 0 1110.6667 812"
   sodipodi:docname="chr-savushkina-chr.svg"
   inkscape:version="0.92.3 (2405546, 2018-03-11)">
  <metadata
     id="metadata821">
    <rdf:RDF>
      <cc:Work
         rdf:about="">
        <dc:format>image/svg+xml</dc:format>
        <dc:type
           rdf:resource="http://purl.org/dc/dcmitype/StillImage" />
        <dc:title></dc:title>
      </cc:Work>
    </rdf:RDF>
  </metadata>
  <defs
     id="defs819" />
  <sodipodi:namedview
     pagecolor="#ffffff"
     bordercolor="#666666"
     borderopacity="1"
     objecttolerance="10"
     gridtolerance="10"
     guidetolerance="10"
     inkscape:pageopacity="0"
     inkscape:pageshadow="2"
     inkscape:window-width="1366"
     inkscape:window-height="715"
     id="namedview817"
     showgrid="false"
     inkscape:zoom="2.3990148"
     inkscape:cx="419.08475"
     inkscape:cy="160.71003"
     inkscape:window-x="0"
     inkscape:window-y="0"
     inkscape:window-maximized="1"
     inkscape:current-layer="svg815"
     fit-margin-top="0"
     fit-margin-left="0"
     fit-margin-right="0"
     fit-margin-bottom="0"
     showguides="false" />
  <image
     sodipodi:absref="/home/aanper/project/luysy-imn-eh/pi/boot/bydefault/web/svg/../img/chr.png"
     xlink:href="../img/chr.png"
     y="0"
     x="0"
     id="image823"
     preserveAspectRatio="none"
     height="812"
     width="1110.6667" />
  <ellipse
     style="fill:#00ff00;fill-opacity:1;stroke:#00ff00;stroke-width:1.00157475;stroke-miterlimit:4;stroke-dasharray:none;stroke-opacity:1;paint-order:stroke fill markers"
     id="path832"
     cx="377.23819"
     cy="655.68585"
     rx="6.2525668"
     ry="5.8357291" />
  <ellipse
     style="fill:#00ff00;fill-opacity:1;stroke:#00ff00;stroke-width:0.24566929;stroke-miterlimit:4;stroke-dasharray:none;stroke-opacity:1;paint-order:stroke fill markers"
     id="path843"
     cx="606.49896"
     cy="399.22638"
     rx="2.7094455"
     ry="2.1883984" />
  <circle
     style="fill:#00ff00;fill-opacity:1;stroke:#00ff00;stroke-width:0.24566929;stroke-miterlimit:4;stroke-dasharray:none;stroke-opacity:1;paint-order:stroke fill markers"
     id="path845"
     cx="475.19507"
     cy="635.2608"
     r="3.7515399" />
  <ellipse
     style="fill:#00ff00;fill-opacity:1;stroke:#00ff00;stroke-width:0.24566929;stroke-miterlimit:4;stroke-dasharray:none;stroke-opacity:1;paint-order:stroke fill markers"
     id="path847"
     cx="871.39941"
     cy="165.69302"
     rx="2.7094455"
     ry="2.5010266" />
  <ellipse
     style="fill:#00ff00;fill-opacity:1;stroke:#00ff00;stroke-width:0.24566929;stroke-miterlimit:4;stroke-dasharray:none;stroke-opacity:1;paint-order:stroke fill markers"
     id="path849"
     cx="404.43686"
     cy="128.38603"
     rx="3.6473305"
     ry="3.3347023" />
  <ellipse
     style="fill:#00ff00;fill-opacity:1;stroke:#00ff00;stroke-width:0.24566929;stroke-miterlimit:4;stroke-dasharray:none;stroke-opacity:1;paint-order:stroke fill markers"
     id="path851"
     cx="452.06058"
     cy="53.980492"
     rx="2.7094455"
     ry="3.1262834" />
  <ellipse
     style="fill:#00ff00;fill-opacity:1;stroke:#00ff00;stroke-width:0.24566929;stroke-miterlimit:4;stroke-dasharray:none;stroke-opacity:1;paint-order:stroke fill markers"
     id="path853"
     cx="288.76437"
     cy="90.662216"
     rx="2.8136551"
     ry="2.5010266" />
  <ellipse
     style="fill:#00ff00;fill-opacity:1;stroke:#00ff00;stroke-width:0.24566929;stroke-miterlimit:4;stroke-dasharray:none;stroke-opacity:1;paint-order:stroke fill markers"
     id="path855"
     cx="1073.2531"
     cy="687.88654"
     rx="3.4389117"
     ry="3.2304928" />
  <ellipse
     style="fill:#00ff00;fill-opacity:1;stroke:#00ff00;stroke-width:0.24566929;stroke-miterlimit:4;stroke-dasharray:none;stroke-opacity:1;paint-order:stroke fill markers"
     id="path857"
     cx="1017.3968"
     cy="608.89581"
     rx="3.022074"
     ry="2.6052361" />
  <path
     style="fill:none;fill-opacity:1;stroke:#00ff00;stroke-width:1.13385832;stroke-miterlimit:4;stroke-dasharray:none;stroke-opacity:1;paint-order:stroke fill markers"
     d="m 377.23819,658.18686 c 0,-0.55579 -0.13479,-1.12816 0,-1.66735 0.0337,-0.1348 0.31859,0.0983 0.41684,0 0.0134,-0.0134 0,-1.14942 0,-1.25052 0,-0.29545 -0.0539,-2.39325 0,-2.50102 0.0879,-0.17576 0.32896,-0.24109 0.41684,-0.41684 0.16673,-0.33347 -0.16674,-0.91704 0,-1.25051 1.38248,-1.38248 -0.1965,0.39299 0.41684,-0.83368 0.17575,-0.35151 0.65792,-0.48217 0.83367,-0.83368 0.0621,-0.12427 -0.0983,-0.31858 0,-0.41683 0.1965,-0.1965 0.63718,0.1965 0.83368,0 0.0982,-0.0983 -0.0983,-0.31859 0,-0.41684 0.0982,-0.0983 0.31859,0.0983 0.41684,0 0.0982,-0.0983 -0.0983,-0.31859 0,-0.41684 0.19649,-0.1965 0.63717,0.1965 0.83367,0 0.0983,-0.0983 -0.0983,-0.31859 0,-0.41684 0.0983,-0.0983 0.31859,0.0983 0.41684,0 0.0982,-0.0983 -0.0983,-0.31858 0,-0.41683 0.1965,-0.1965 0.63717,0.1965 0.83367,0 0.0983,-0.0983 -0.0983,-0.31859 0,-0.41684 0.20842,-0.20842 1.0421,0.20842 1.25052,0 0.0983,-0.0983 -0.0983,-0.31859 0,-0.41684 0.1965,-0.1965 0.63717,0.1965 0.83367,0 0.0983,-0.0983 -0.0983,-0.31859 0,-0.41684 0.0983,-0.0983 0.29256,0.0621 0.41684,0 0.17575,-0.0879 0.24108,-0.32896 0.41684,-0.41684 0.12428,-0.0621 0.31859,0.0983 0.41684,0 0.0983,-0.0982 -0.0983,-0.31858 0,-0.41683 0.20842,-0.20842 1.04209,0.20842 1.25051,0 0.0983,-0.0983 -0.0983,-0.31859 0,-0.41684 0.1965,-0.1965 0.58512,0.12428 0.83368,0 0.17575,-0.0879 0.24108,-0.32896 0.41683,-0.41684 0.24856,-0.12428 0.58512,0.12428 0.83368,0 0.17575,-0.0879 0.24108,-0.32896 0.41684,-0.41684 0.26199,-0.13099 1.40536,0.131 1.66735,0 0.17575,-0.0879 0.24108,-0.32896 0.41684,-0.41683 0.33347,-0.16674 0.91704,0.16673 1.25051,0 0.17575,-0.0879 0.24108,-0.32896 0.41684,-0.41684 0.16527,-0.0826 1.16529,0.0852 1.25051,0 0.0983,-0.0983 -0.0983,-0.31859 0,-0.41684 0.1965,-0.1965 0.63718,0.1965 0.83368,0 0.0982,-0.0983 -0.0983,-0.31859 0,-0.41684 0.19649,-0.1965 0.58512,0.12428 0.83367,0 0.17576,-0.0879 0.24108,-0.32896 0.41684,-0.41684 0.12428,-0.0621 0.31859,0.0983 0.41684,0 0.0982,-0.0982 -0.0983,-0.31858 0,-0.41683 0.20842,-0.20842 1.04209,0.20842 1.25051,0 0.0983,-0.0982 -0.0983,-0.31859 0,-0.41684 0.0852,-0.0852 1.08524,0.0826 1.25051,0 0.17576,-0.0879 0.24109,-0.32896 0.41684,-0.41684 0.15074,-0.0754 1.79426,0 2.08419,0 0.13895,0 0.31859,0.0983 0.41684,0 0.0983,-0.0983 -0.0983,-0.31859 0,-0.41684 0.14632,-0.14631 1.79626,0.14397 2.08419,0 0.17575,-0.0879 0.24108,-0.32896 0.41683,-0.41683 0.12428,-0.0621 0.2779,0 0.41684,0 0.13895,0 0.27789,0 0.41684,0 0.69473,0 1.38946,0 2.08419,0 0.13894,0 0.29256,0.0621 0.41684,0 0.17575,-0.0879 0.24108,-0.32896 0.41683,-0.41684 0.262,-0.131 1.40536,0.13099 1.66736,0 0.17575,-0.0879 0.24108,-0.32896 0.41683,-0.41684 0.24856,-0.12428 0.58512,0.12428 0.83368,0 0.17575,-0.0879 0.24108,-0.32896 0.41684,-0.41684 0.16527,-0.0826 1.16529,0.0852 1.25051,0 0.0983,-0.0983 -0.0983,-0.31859 0,-0.41684 0.20842,-0.20841 1.04209,0.20842 1.25051,0 0.0983,-0.0982 -0.0982,-0.31858 0,-0.41683 0.1965,-0.1965 0.63718,0.1965 0.83368,0 0.0983,-0.0983 -0.0983,-0.31859 0,-0.41684 0.1965,-0.1965 0.58512,0.12428 0.83367,0 0.17576,-0.0879 0.24109,-0.32896 0.41684,-0.41684 0.12428,-0.0621 0.29256,0.0621 0.41684,0 0.17575,-0.0879 0.24108,-0.32896 0.41684,-0.41684 0.24855,-0.12427 0.63717,0.1965 0.83367,0 0.0983,-0.0983 -0.0983,-0.31858 0,-0.41683 0.0983,-0.0983 0.29256,0.0621 0.41684,0 0.17576,-0.0879 0.24108,-0.32896 0.41684,-0.41684 0.12428,-0.0621 0.29256,0.0621 0.41684,0 0.17575,-0.0879 0.24108,-0.32896 0.41683,-0.41684 0.12428,-0.0621 0.29257,0.0621 0.41684,0 0.17576,-0.0879 0.24109,-0.32896 0.41684,-0.41684 0.12428,-0.0621 0.29256,0.0621 0.41684,0 0.17575,-0.0879 0.24108,-0.32896 0.41684,-0.41684 0.12427,-0.0621 0.29256,0.0621 0.41683,0 0.14827,-0.0741 0.68542,-0.75954 0.83368,-0.83367 0.12428,-0.0621 0.29256,0.0621 0.41684,0 0.35151,-0.17576 0.48216,-0.65792 0.83367,-0.83368 0.12428,-0.0621 0.29256,0.0621 0.41684,0 0.17575,-0.0879 0.27789,-0.27789 0.41684,-0.41683 0.13894,-0.13895 0.24108,-0.32896 0.41684,-0.41684 0.24855,-0.12428 0.63717,0.1965 0.83367,0 0.0983,-0.0983 -0.0983,-0.31859 0,-0.41684 0.0983,-0.0983 0.29256,0.0621 0.41684,0 0.17575,-0.0879 0.24108,-0.32896 0.41684,-0.41684 0.12427,-0.0621 0.29256,0.0621 0.41683,0 0.17576,-0.0879 0.24109,-0.32896 0.41684,-0.41684 0.24856,-0.12427 0.63718,0.1965 0.83368,0 0.0983,-0.0982 -0.0983,-0.31858 0,-0.41683 0.0852,-0.0852 1.08524,0.0826 1.25051,0 0.17576,-0.0879 0.24108,-0.32896 0.41684,-0.41684 0.24855,-0.12428 0.58512,0.12428 0.83367,0 0.17576,-0.0879 0.24109,-0.32896 0.41684,-0.41684 0.24856,-0.12428 0.58512,0.12428 0.83368,0 0.17575,-0.0879 0.24108,-0.32896 0.41684,-0.41684 0.16527,-0.0826 1.16529,0.0852 1.25051,0 0.0983,-0.0983 -0.0983,-0.31858 0,-0.41683 0.0852,-0.0852 1.08524,0.0826 1.25051,0 0.17576,-0.0879 0.24109,-0.32896 0.41684,-0.41684 0.24855,-0.12428 0.58512,0.12428 0.83368,0 0.17575,-0.0879 0.24108,-0.32896 0.41683,-0.41684 0.24856,-0.12428 0.63718,0.1965 0.83368,0 0.0982,-0.0983 -0.0983,-0.31859 0,-0.41684 0.20842,-0.20842 1.04209,0.20842 1.25051,0 0.0983,-0.0983 -0.0983,-0.31859 0,-0.41684 0.20842,-0.20841 1.0421,0.20842 1.25052,0 0.0983,-0.0982 -0.0983,-0.31858 0,-0.41683 0.0134,-0.0134 1.14941,0 1.25051,0 0.21797,0 1.55775,0.0548 1.66735,0 0.17575,-0.0879 0.24108,-0.32896 0.41684,-0.41684 0.26199,-0.131 1.40536,0.131 1.66735,0 0.17575,-0.0879 0.24108,-0.32896 0.41684,-0.41684 0.26199,-0.13099 1.40536,0.131 1.66735,0 0.17575,-0.0879 0.24108,-0.32896 0.41684,-0.41684 0.16527,-0.0826 1.16529,0.0852 1.25051,0 0.0983,-0.0983 -0.0983,-0.31858 0,-0.41683 0.11406,-0.11406 1.44122,0.11306 1.66735,0 0.17575,-0.0879 0.24108,-0.32896 0.41684,-0.41684 0.12686,-0.0634 1.06279,0 1.25051,0 1.8063,0 3.6126,0 5.41889,0 0.29546,0 2.39326,-0.0539 2.50103,0 0.17575,0.0879 0.24108,0.32896 0.41684,0.41684 0.28792,0.14396 1.93787,-0.14632 2.08419,0 0.0983,0.0983 -0.0983,0.31858 0,0.41683 0.20841,0.20842 1.04209,-0.20842 1.25051,0 0.0983,0.0983 -0.0982,0.31859 0,0.41684 0.1965,0.1965 0.58512,-0.12428 0.83367,0 0.17576,0.0879 0.24109,0.32896 0.41684,0.41684 0.24856,0.12428 0.63718,-0.1965 0.83368,0 0.0983,0.0983 -0.0983,0.31859 0,0.41684 0.1965,0.1965 0.63717,-0.1965 0.83367,0 0.0983,0.0983 -0.0983,0.31859 0,0.41683 0.1965,0.1965 0.58513,-0.12427 0.83368,0 0.17575,0.0879 0.24108,0.32897 0.41684,0.41684 0.12427,0.0621 0.29256,-0.0621 0.41683,0 0.35151,0.17576 0.48217,0.65792 0.83368,0.83368 0.12428,0.0621 0.29256,-0.0621 0.41684,0 0.17575,0.0879 0.24108,0.32896 0.41684,0.41684 0.12427,0.0621 0.31858,-0.0983 0.41683,0 0.0983,0.0983 -0.0982,0.31858 0,0.41683 0.0983,0.0983 0.29256,-0.0621 0.41684,0 0.17576,0.0879 0.24109,0.32896 0.41684,0.41684 0.12428,0.0621 0.31859,-0.0983 0.41684,0 0.0982,0.0982 -0.0983,0.31859 0,0.41684 0.0982,0.0983 0.29256,-0.0621 0.41683,0 0.17576,0.0879 0.2779,0.27789 0.41684,0.41684 0.13895,0.13894 0.32896,0.24108 0.41684,0.41683 0.0621,0.12428 -0.0983,0.31859 0,0.41684 0.0983,0.0983 0.31859,-0.0983 0.41684,0 0.0982,0.0983 -0.0983,0.31859 0,0.41684 0.0982,0.0983 0.31859,-0.0983 0.41684,0 0.1965,0.1965 -0.1965,0.63718 0,0.83368 0.0983,0.0983 0.31858,-0.0983 0.41683,0 0.1965,0.1965 -0.1965,0.63717 0,0.83367 0.0983,0.0983 0.2779,0 0.41684,0 0,0.13895 -0.0621,0.29256 0,0.41684 0.0879,0.17575 0.32896,0.24108 0.41684,0.41684 0.12428,0.24855 -0.1965,0.63717 0,0.83367 0.0982,0.0983 0.31859,-0.0983 0.41684,0 0.1965,0.1965 -0.12428,0.58512 0,0.83368 0.0879,0.17575 0.32896,0.24108 0.41684,0.41684 0.0621,0.12427 0.13894,0.41683 0,0.41683 -0.13895,0 0,-0.27789 0,-0.41683 0,-0.13895 0,-0.2779 0,-0.41684"
     id="path908"
     inkscape:connector-curvature="0" />
</svg>
