<?xml version="1.0" encoding="UTF-8" standalone="no"?>
<!-- Created with Inkscape (http://www.inkscape.org/) -->

<svg
   xmlns:dc="http://purl.org/dc/elements/1.1/"
   xmlns:cc="http://creativecommons.org/ns#"
   xmlns:rdf="http://www.w3.org/1999/02/22-rdf-syntax-ns#"
   xmlns:svg="http://www.w3.org/2000/svg"
   xmlns="http://www.w3.org/2000/svg"
   xmlns:xlink="http://www.w3.org/1999/xlink"
   xmlns:sodipodi="http://sodipodi.sourceforge.net/DTD/sodipodi-0.dtd"
   xmlns:inkscape="http://www.inkscape.org/namespaces/inkscape"
   version="1.1"
   id="svg815"
   width="1110.6667"
   height="812"
   viewBox="0 0 1110.6667 812"
   sodipodi:docname="chr-savushkina-hackspace.svg"
   inkscape:version="0.92.3 (2405546, 2018-03-11)">
  <metadata
     id="metadata821">
    <rdf:RDF>
      <cc:Work
         rdf:about="">
        <dc:format>image/svg+xml</dc:format>
        <dc:type
           rdf:resource="http://purl.org/dc/dcmitype/StillImage" />
        <dc:title />
      </cc:Work>
    </rdf:RDF>
  </metadata>
  <defs
     id="defs819" />
  <sodipodi:namedview
     pagecolor="#ffffff"
     bordercolor="#666666"
     borderopacity="1"
     objecttolerance="10"
     gridtolerance="10"
     guidetolerance="10"
     inkscape:pageopacity="0"
     inkscape:pageshadow="2"
     inkscape:window-width="1366"
     inkscape:window-height="715"
     id="namedview817"
     showgrid="false"
     inkscape:zoom="1.1995074"
     inkscape:cx="420.67795"
     inkscape:cy="267.29955"
     inkscape:window-x="0"
     inkscape:window-y="0"
     inkscape:window-maximized="1"
     inkscape:current-layer="svg815"
     fit-margin-top="0"
     fit-margin-left="0"
     fit-margin-right="0"
     fit-margin-bottom="0"
     showguides="false" />
  <image
     sodipodi:absref="/home/aanper/project/luysy-imn-eh/pi/boot/bydefault/web/svg/../img/chr.png"
     xlink:href="../img/chr.png"
     y="0"
     x="0"
     id="image823"
     preserveAspectRatio="none"
     height="812"
     width="1110.6667" />
  <ellipse
     style="fill:#00ff00;fill-opacity:1;stroke:#00ff00;stroke-width:1.00157475;stroke-miterlimit:4;stroke-dasharray:none;stroke-opacity:1;paint-order:stroke fill markers"
     id="path832"
     cx="377.23819"
     cy="655.68585"
     rx="6.2525668"
     ry="5.8357291" />
  <ellipse
     style="fill:#00ff00;fill-opacity:1;stroke:#00ff00;stroke-width:0.24566929;stroke-miterlimit:4;stroke-dasharray:none;stroke-opacity:1;paint-order:stroke fill markers"
     id="path843"
     cx="606.49896"
     cy="399.22638"
     rx="2.7094455"
     ry="2.1883984" />
  <circle
     style="fill:#00ff00;fill-opacity:1;stroke:#00ff00;stroke-width:0.24566929;stroke-miterlimit:4;stroke-dasharray:none;stroke-opacity:1;paint-order:stroke fill markers"
     id="path845"
     cx="475.19507"
     cy="635.2608"
     r="3.7515399" />
  <ellipse
     style="fill:#00ff00;fill-opacity:1;stroke:#00ff00;stroke-width:0.24566929;stroke-miterlimit:4;stroke-dasharray:none;stroke-opacity:1;paint-order:stroke fill markers"
     id="path847"
     cx="871.39941"
     cy="165.69302"
     rx="2.7094455"
     ry="2.5010266" />
  <ellipse
     style="fill:#00ff00;fill-opacity:1;stroke:#00ff00;stroke-width:0.24566929;stroke-miterlimit:4;stroke-dasharray:none;stroke-opacity:1;paint-order:stroke fill markers"
     id="path849"
     cx="404.43686"
     cy="128.38603"
     rx="3.6473305"
     ry="3.3347023" />
  <ellipse
     style="fill:#00ff00;fill-opacity:1;stroke:#00ff00;stroke-width:0.24566929;stroke-miterlimit:4;stroke-dasharray:none;stroke-opacity:1;paint-order:stroke fill markers"
     id="path851"
     cx="452.06058"
     cy="53.980492"
     rx="2.7094455"
     ry="3.1262834" />
  <ellipse
     style="fill:#00ff00;fill-opacity:1;stroke:#00ff00;stroke-width:0.24566929;stroke-miterlimit:4;stroke-dasharray:none;stroke-opacity:1;paint-order:stroke fill markers"
     id="path853"
     cx="288.76437"
     cy="90.662216"
     rx="2.8136551"
     ry="2.5010266" />
  <ellipse
     style="fill:#00ff00;fill-opacity:1;stroke:#00ff00;stroke-width:0.24566929;stroke-miterlimit:4;stroke-dasharray:none;stroke-opacity:1;paint-order:stroke fill markers"
     id="path855"
     cx="1073.2531"
     cy="687.88654"
     rx="3.4389117"
     ry="3.2304928" />
  <ellipse
     style="fill:#00ff00;fill-opacity:1;stroke:#00ff00;stroke-width:0.24566929;stroke-miterlimit:4;stroke-dasharray:none;stroke-opacity:1;paint-order:stroke fill markers"
     id="path857"
     cx="1017.3968"
     cy="608.89581"
     rx="3.022074"
     ry="2.6052361" />
  <path
     style="fill:none;fill-opacity:1;stroke:#00ff00;stroke-width:1.13385832;stroke-miterlimit:4;stroke-dasharray:none;stroke-opacity:1;paint-order:stroke fill markers"
     d="m 376.82135,658.6037 c -1.11156,-0.55579 -3.89048,-0.55579 -3.3347,-1.66735 0.55579,-1.11157 2.77892,2.77891 3.3347,1.66735 0.786,-1.572 -1.37841,-3.26843 -1.66735,-5.00206 -0.006,-0.0345 2.40616,0.0949 2.50103,0 0.1965,-0.1965 -0.1965,-0.63717 0,-0.83367 0.393,-0.393 1.17024,0.24855 1.66735,0 2.06035,-1.03018 -0.28776,-0.83368 1.66735,-0.83368 0.27789,0 0.55579,0 0.83368,0 0.27789,0 0.63717,0.1965 0.83367,0 0.1965,-0.1965 -0.1965,-0.63717 0,-0.83367 0.17044,-0.17044 2.17048,0.16527 2.50103,0 0.35151,-0.17576 0.48217,-0.65793 0.83368,-0.83368 0.4971,-0.24855 1.27435,0.393 1.66735,0 0.1965,-0.1965 -0.1965,-0.63718 0,-0.83367 0.1965,-0.1965 0.58512,0.12427 0.83367,0 0.35151,-0.17576 0.55579,-0.55579 0.83368,-0.83368 0.27789,-0.27789 0.65792,-0.48217 0.83367,-0.83368 0.12428,-0.24855 -0.1965,-0.63717 0,-0.83367 0.1965,-0.1965 0.63718,0.1965 0.83368,0 0.1965,-0.1965 -0.12428,-0.58512 0,-0.83368 0.17575,-0.35151 0.65792,-0.48216 0.83368,-0.83367 0.0465,-0.0931 0.0465,-4.07533 0,-4.16838 -0.17576,-0.35151 -0.65793,-0.48217 -0.83368,-0.83368 -0.12428,-0.24855 0.1965,-0.63717 0,-0.83367 -0.1965,-0.1965 -0.63718,0.1965 -0.83368,0 -0.39299,-0.393 0.24856,-1.17024 0,-1.66735 -0.17575,-0.35151 -0.65792,-0.48217 -0.83367,-0.83368 -0.12428,-0.24855 0.1965,-0.63717 0,-0.83367 -0.1965,-0.1965 -0.63718,0.1965 -0.83368,0 -0.1965,-0.1965 0.12428,-0.58513 0,-0.83368 -0.17575,-0.35151 -0.65792,-0.48217 -0.83367,-0.83368 -0.12428,-0.24855 0.12427,-0.58512 0,-0.83367 -0.17576,-0.35151 -0.65792,-0.48217 -0.83368,-0.83368 -0.12428,-0.24855 0.12428,-0.58512 0,-0.83367 -0.17575,-0.35151 -0.65792,-0.48217 -0.83367,-0.83368 -0.12428,-0.24855 0.12427,-0.58512 0,-0.83367 -0.17576,-0.35151 -0.65793,-0.48217 -0.83368,-0.83368 -0.24855,-0.49711 0.393,-1.27435 0,-1.66735 -0.1965,-0.1965 -0.63718,0.1965 -0.83368,0 -0.19649,-0.1965 0.12428,-0.58512 0,-0.83368 -0.17575,-0.3515 -0.65792,-0.48216 -0.83367,-0.83367 -0.24855,-0.49711 0.393,-1.27435 0,-1.66735 -0.1965,-0.1965 -0.63718,0.1965 -0.83368,0 -0.39299,-0.393 0.24856,-1.17024 0,-1.66735 -0.17575,-0.35151 -0.65792,-0.48217 -0.83367,-0.83368 -0.24856,-0.49711 0.393,-1.27435 0,-1.66735 -0.1965,-0.1965 -0.63718,0.1965 -0.83368,0 -0.393,-0.393 0.24856,-1.17024 0,-1.66735 -0.17575,-0.35151 -0.65792,-0.48217 -0.83367,-0.83368 -0.12428,-0.24855 0.12427,-0.58512 0,-0.83367 -0.17576,-0.35151 -0.65792,-0.48217 -0.83368,-0.83368 -0.22613,-0.45226 0.22811,-3.10659 0,-3.3347 -0.1965,-0.1965 -0.63717,0.1965 -0.83367,0 -0.0268,-0.0268 0,-2.29884 0,-2.50103 0,-5.27994 0,-10.55989 0,-15.83983 0,-3.89049 0,-7.78097 0,-11.67146 0,-0.59091 0.10777,-4.78651 0,-5.00205 -0.17576,-0.35151 -0.65793,-0.48217 -0.83368,-0.83368 -0.16527,-0.33054 0.17043,-2.33059 0,-2.50103 -0.1965,-0.19649 -0.63718,0.1965 -0.83368,0 -0.2006,-0.2006 0.20061,-3.13409 0,-3.3347 -0.19649,-0.1965 -0.63717,0.1965 -0.83367,0 -0.17043,-0.17043 0.16527,-2.17048 0,-2.50102 -0.17575,-0.35151 -0.65792,-0.48217 -0.83368,-0.83368 -0.26199,-0.52398 0.262,-2.81072 0,-3.3347 -0.17575,-0.35151 -0.65792,-0.48217 -0.83367,-0.83368 -0.15074,-0.30148 0,-3.58852 0,-4.16838 0,-0.27789 0.1965,-0.63717 0,-0.83367 -0.1965,-0.1965 -0.63718,0.1965 -0.83368,0 -0.41684,-0.41684 0.41684,-2.08419 0,-2.50103 -0.1965,-0.1965 -0.63717,0.1965 -0.83367,0 -0.17044,-0.17043 0.16527,-2.17048 0,-2.50102 -0.17576,-0.35151 -0.65792,-0.48217 -0.83368,-0.83368 -0.25311,-0.50623 0.25311,-4.49583 0,-5.00205 -0.17575,-0.35151 -0.65792,-0.48217 -0.83367,-0.83368 -0.33347,-0.66694 0.33347,-1.83409 0,-2.50103 -0.17576,-0.3515 -0.65793,-0.48216 -0.83368,-0.83367 -0.12428,-0.24856 0.1965,-0.63718 0,-0.83368 -0.1965,-0.1965 -0.63718,0.1965 -0.83368,0 -0.39299,-0.393 0.24856,-1.17024 0,-1.66735 -0.17575,-0.35151 -0.65792,-0.48217 -0.83367,-0.83367 -0.12428,-0.24856 0,-0.55579 0,-0.83368 0,-0.55578 0.17575,-1.14009 0,-1.66735 -0.12428,-0.37283 -0.65792,-0.48217 -0.83368,-0.83368 -0.24855,-0.4971 0.24856,-1.17024 0,-1.66735 -0.17575,-0.35151 -0.65792,-0.48216 -0.83367,-0.83367 -0.12686,-0.25372 0,-2.12558 0,-2.50103 0,-2.22313 0,-4.44627 0,-6.6694 0,-0.39308 0.0378,-4.1306 0,-4.16838 -0.1965,-0.1965 -0.63718,0.1965 -0.83368,0 -0.1965,-0.1965 0.12428,-0.58512 0,-0.83368 -0.17575,-0.35151 -0.65792,-0.48216 -0.83367,-0.83367 -0.12428,-0.24856 0.12427,-0.58512 0,-0.83368 -0.17576,-0.35151 -0.65792,-0.48217 -0.83368,-0.83367 -0.24855,-0.49711 0.393,-1.27436 0,-1.66736 -0.1965,-0.19649 -0.63717,0.1965 -0.83367,0 -0.393,-0.39299 0.24855,-1.17024 0,-1.66735 -0.17576,-0.3515 -0.65793,-0.48216 -0.83368,-0.83367 -0.22613,-0.45226 0.22811,-3.10659 0,-3.3347 -0.1965,-0.1965 -0.63718,0.1965 -0.83368,0 -0.19649,-0.1965 0,-0.55579 0,-0.83368 0,-1.66735 0,-3.3347 0,-5.00205 0,-1.38946 0,-2.77892 0,-4.16838 0,-0.27789 -0.19649,-0.63718 0,-0.83368 0.1965,-0.1965 0.63718,0.1965 0.83368,0 0.17043,-0.17043 -0.16527,-2.17048 0,-2.50102 0.17575,-0.35151 0.65792,-0.48217 0.83368,-0.83368 0.24855,-0.49711 -0.24856,-1.17024 0,-1.66735 0.17575,-0.35151 0.55578,-0.55578 0.83367,-0.83368 0.27789,-0.27789 0.48217,-0.65792 0.83368,-0.83367 0.24855,-0.12428 0.58512,0.12428 0.83367,0 0.35151,-0.17576 0.48217,-0.65792 0.83368,-0.83368 0.24855,-0.12427 0.63717,0.1965 0.83367,0 0.1965,-0.1965 -0.1965,-0.63717 0,-0.83367 0.17044,-0.17044 2.17048,0.16527 2.50103,0 0.35151,-0.17576 0.48217,-0.65792 0.83368,-0.83368 0.52398,-0.26199 2.81071,0.26199 3.3347,0 0.35151,-0.17575 0.48217,-0.65792 0.83367,-0.83367 0.52399,-0.262 2.81072,0.26199 3.33471,0 0.3515,-0.17576 0.48216,-0.65792 0.83367,-0.83368 0.49711,-0.24855 1.17024,0.24856 1.66735,0 0.35151,-0.17575 0.48217,-0.65792 0.83368,-0.83367 0.24855,-0.12428 0.58512,0.12427 0.83367,0 0.35151,-0.17576 0.48217,-0.65793 0.83368,-0.83368 0.24855,-0.12428 0.58512,0.12428 0.83367,0 0.35151,-0.17575 0.48217,-0.65792 0.83368,-0.83368 0.24855,-0.12427 0.58512,0.12428 0.83368,0 0.70301,-0.3515 0.96433,-1.31584 1.66735,-1.66735 0.49711,-0.24855 1.27435,0.393 1.66735,0 0.1965,-0.1965 -0.1965,-0.63717 0,-0.83367 0.55331,-0.55332 1.11404,0.55331 1.66735,0 0.1965,-0.1965 -0.1965,-0.63718 0,-0.83368 0.1965,-0.1965 0.58512,0.12428 0.83368,0 0.3515,-0.17575 0.48216,-0.65792 0.83367,-0.83367 0.24855,-0.12428 0.63718,0.1965 0.83368,0 0.1965,-0.1965 -0.1965,-0.63718 0,-0.83368 0.1965,-0.1965 0.58512,0.12428 0.83367,0 0.35151,-0.17575 0.48217,-0.65792 0.83368,-0.83367 0.49711,-0.24856 1.27435,0.39299 1.66735,0 0.1965,-0.1965 -0.1965,-0.63718 0,-0.83368 0.393,-0.393 1.17024,0.24855 1.66735,0 0.35151,-0.17575 0.48217,-0.65792 0.83368,-0.83368 0.24855,-0.12427 0.58512,0.12428 0.83367,0 0.35151,-0.17575 0.48217,-0.65792 0.83368,-0.83367 0.4971,-0.24856 1.27435,0.393 1.66735,0 0.1965,-0.1965 -0.1965,-0.63718 0,-0.83368 0.393,-0.393 1.17024,0.24856 1.66735,0 0.35151,-0.17575 0.48217,-0.65792 0.83367,-0.83367 0.24856,-0.12428 0.58513,0.12427 0.83368,0 0.35151,-0.17576 0.48217,-0.65792 0.83368,-0.83368 0.24855,-0.12427 0.58512,0.12428 0.83367,0 0.35151,-0.17575 0.48217,-0.65792 0.83368,-0.83367 0.24855,-0.12428 0.58512,0.12427 0.83367,0 0.35151,-0.17576 0.48217,-0.65792 0.83368,-0.83368 0.49711,-0.24855 1.17024,0.24856 1.66735,0 0.35151,-0.17575 0.48217,-0.65792 0.83367,-0.83367 0.24856,-0.12428 0.63718,0.19649 0.83368,0 0.1965,-0.1965 -0.1965,-0.63718 0,-0.83368 0.393,-0.393 1.17024,0.24855 1.66735,0 0.35151,-0.17575 0.48217,-0.65792 0.83368,-0.83368 0.24855,-0.12427 0.58512,0.12428 0.83367,0 0.35151,-0.17575 0.48217,-0.65792 0.83368,-0.83367 0.24855,-0.12428 0.58512,0.12428 0.83367,0 0.35151,-0.17576 0.48217,-0.65792 0.83368,-0.83368 0.24855,-0.12427 0.58512,0.12428 0.83367,0 0.35151,-0.17575 0.48217,-0.65792 0.83368,-0.83367 0.24855,-0.12428 0.58512,0.12427 0.83368,0 0.70301,-0.35151 0.96433,-1.31584 1.66735,-1.66735 0.24855,-0.12428 0.58512,0.12427 0.83367,0 0.35151,-0.17576 0.48217,-0.65792 0.83368,-0.83368 0.24855,-0.12428 0.63717,0.1965 0.83367,0 0.1965,-0.1965 -0.1965,-0.63718 0,-0.83367 0.1965,-0.1965 0.58512,0.12427 0.83368,0 0.35151,-0.17576 0.48217,-0.65793 0.83367,-0.83368 0.24856,-0.12428 0.58513,0.12428 0.83368,0 1.00041,-0.50021 1.50062,-2.00082 2.50103,-2.50103 0.24855,-0.12427 0.63717,0.1965 0.83367,0 0.1965,-0.1965 -0.12427,-0.58512 0,-0.83367 1.73478,-3.46956 -0.0575,0.89123 1.66735,-0.83368 0.1965,-0.1965 -0.12427,-0.58512 0,-0.83367 0.50021,-1.00041 2.00082,-1.50062 2.50103,-2.50103 0.12428,-0.24855 -0.1965,-0.63718 0,-0.83368 0.1965,-0.19649 0.63718,0.1965 0.83368,0 0.19649,-0.19649 -0.12428,-0.58512 0,-0.83367 0.3515,-0.70302 1.31584,-0.96434 1.66735,-1.66735 0.12427,-0.24856 -0.1965,-0.63718 0,-0.83368 0.1965,-0.1965 0.63717,0.1965 0.83367,0 0.1965,-0.1965 -0.1965,-0.63717 0,-0.83367 0.1965,-0.1965 0.63718,0.1965 0.83368,0 0.1965,-0.1965 -0.1965,-0.63718 0,-0.83368 0.1965,-0.1965 0.58512,0.12428 0.83367,0 0.35151,-0.17575 0.48217,-0.65792 0.83368,-0.83367 0.24855,-0.12428 0.63718,0.19649 0.83367,0 0.1965,-0.1965 -0.19649,-0.63718 0,-0.83368 0.1965,-0.1965 0.63718,0.1965 0.83368,0 0.1965,-0.1965 -0.1965,-0.63718 0,-0.83368 0.1965,-0.1965 0.58512,0.12428 0.83368,0 1.00041,-0.5002 1.50061,-2.00082 2.50102,-2.50102 0.24856,-0.12428 0.63718,0.1965 0.83368,0 0.1965,-0.1965 -0.1965,-0.63718 0,-0.83368 0.1965,-0.1965 0.58512,0.12428 0.83367,0 0.35151,-0.17575 0.48217,-0.65792 0.83368,-0.83367 0.24855,-0.12428 0.63718,0.1965 0.83367,0 0.1965,-0.1965 -0.19649,-0.63718 0,-0.83368 0.1965,-0.1965 0.63718,0.1965 0.83368,0 0.1965,-0.1965 -0.1965,-0.63718 0,-0.83367 0.1965,-0.1965 0.58512,0.12427 0.83368,0 0.3515,-0.17576 0.48216,-0.65793 0.83367,-0.83368 0.24856,-0.12428 0.63718,0.1965 0.83368,0 0.1965,-0.1965 -0.1965,-0.63718 0,-0.83368 0.1965,-0.1965 0.63717,0.1965 0.83367,0 0.1965,-0.1965 -0.1965,-0.63717 0,-0.83367 0.1965,-0.1965 0.63718,0.1965 0.83368,0 0.1965,-0.1965 -0.1965,-0.63718 0,-0.83368 0.1965,-0.1965 0.63717,0.1965 0.83367,0 0.1965,-0.1965 -0.1965,-0.63717 0,-0.83367 0.1965,-0.1965 0.63718,0.1965 0.83368,0 0.1965,-0.1965 -0.1965,-0.63718 0,-0.83368 0.1965,-0.1965 0.63718,0.1965 0.83367,0 0.1965,-0.1965 -0.19649,-0.63717 0,-0.83367 0.1965,-0.1965 0.63718,0.1965 0.83368,0 1.7249,-1.72491 -2.63588,0.0674 0.83368,-1.66735 2.22313,0 -0.2779,0.27789 0.83367,-0.83368 0.1965,-0.1965 0.63718,0.1965 0.83368,0 0.1965,-0.1965 -0.1965,-0.63718 0,-0.83368 0.1965,-0.1965 0.63717,0.1965 0.83367,0 0.1965,-0.1965 -0.1965,-0.63717 0,-0.83367 0.1965,-0.1965 0.63718,0.1965 0.83368,0 0.1965,-0.1965 -0.1965,-0.63718 0,-0.83368 1.7249,-1.7249 -0.0674,2.63589 1.66735,-0.83367 0.12428,-0.24856 -0.1965,-0.63718 0,-0.83368 0.1965,-0.1965 0.58512,0.12428 0.83367,0 3.46956,-1.73478 -0.89122,0.0576 0.83368,-1.66735 0.1965,-0.1965 0.63718,0.1965 0.83368,0 0.19649,-0.1965 -0.1965,-0.63718 0,-0.83367 0.19649,-0.1965 0.63717,0.19649 0.83367,0 0.1965,-0.1965 -0.1965,-0.63718 0,-0.83368 0.1965,-0.1965 0.63718,0.1965 0.83368,0 0.1965,-0.1965 -0.1965,-0.63718 0,-0.83368 0.1965,-0.1965 0.63717,0.1965 0.83367,0 0.1965,-0.1965 -0.1965,-0.63717 0,-0.83367 0.1965,-0.1965 0.63718,0.1965 0.83368,0 1.7249,-1.72491 -2.63588,0.0674 0.83367,-1.66735 0.24856,-0.12428 0.63718,0.1965 0.83368,0 0.1965,-0.1965 -0.1965,-0.63718 0,-0.83368 1.7249,-1.7249 -0.0674,2.63588 1.66735,-0.83367 0.12428,-0.24856 -0.1965,-0.63718 0,-0.83368 0.1965,-0.1965 0.58512,0.12428 0.83368,0 0.70301,-0.35151 0.96433,-1.31584 1.66735,-1.66735 0.24855,-0.12428 0.63717,0.1965 0.83367,0 0.1965,-0.1965 -0.1965,-0.63718 0,-0.83368 0.1965,-0.1965 0.63718,0.1965 0.83368,0 0.1965,-0.1965 -0.12428,-0.58512 0,-0.83367 0.41018,-0.82036 2.92452,-2.51434 3.3347,-3.3347 0.12428,-0.24856 -0.1965,-0.63718 0,-0.83368 0.1965,-0.1965 0.63718,0.1965 0.83368,0 0.1965,-0.1965 -0.1965,-0.63718 0,-0.83368 0.1965,-0.19649 0.63717,0.1965 0.83367,0 0.393,-0.39299 -0.24855,-1.17024 0,-1.66735 0.17576,-0.3515 0.65792,-0.48216 0.83368,-0.83367 0.12427,-0.24856 -0.12428,-0.58512 0,-0.83368 0.17575,-0.35151 0.65792,-0.48216 0.83367,-0.83367 0.12428,-0.24856 -0.12427,-0.58512 0,-0.83368 0.17576,-0.35151 0.65792,-0.48217 0.83368,-0.83367 0.12428,-0.24856 -0.12428,-0.58513 0,-0.83368 0.5002,-1.00041 2.00082,-1.50062 2.50102,-2.50103 0.12428,-0.24855 -0.19649,-0.63717 0,-0.83367 0.1965,-0.1965 0.63718,0.1965 0.83368,0 0.1965,-0.1965 -0.1965,-0.63718 0,-0.83368 0.1965,-0.1965 0.63718,0.1965 0.83368,0 0.1965,-0.1965 -0.12428,-0.58512 0,-0.83367 0.17575,-0.35151 0.65792,-0.48217 0.83367,-0.83368 0.12428,-0.24855 -0.1965,-0.63717 0,-0.83367 0.1965,-0.1965 0.63718,0.1965 0.83368,0 0.1965,-0.1965 -0.12428,-0.58513 0,-0.83368 0.17575,-0.35151 0.65792,-0.48217 0.83367,-0.83368 0.12428,-0.24855 -0.1965,-0.63717 0,-0.83367 0.1965,-0.1965 0.63718,0.1965 0.83368,0 0.1965,-0.1965 -0.1965,-0.63718 0,-0.83368 0.1965,-0.1965 0.63717,0.1965 0.83367,0 0.1965,-0.1965 -0.12427,-0.58512 0,-0.83367 0.35151,-0.70302 1.31585,-0.96434 1.66735,-1.66735 0.12428,-0.24856 -0.12427,-0.58512 0,-0.83368 0.17576,-0.35151 0.65793,-0.48217 0.83368,-0.83367 0.12428,-0.24856 -0.1965,-0.63718 0,-0.83368 0.1965,-0.1965 0.63718,0.1965 0.83368,0 0.1965,-0.1965 -0.1965,-0.63718 0,-0.83368 0.1965,-0.19649 0.63717,0.1965 0.83367,0 0.1965,-0.19649 -0.1965,-0.63717 0,-0.83367 1.72491,-1.72491 -0.0674,2.63588 1.66735,-0.83368 0,-2.22313 -0.27789,0.2779 0.83368,-0.83367 0.1965,-0.1965 -0.1965,-0.63718 0,-0.83368 1.7249,-1.7249 -0.0674,2.63588 1.66735,-0.83367 0.12428,-0.24856 -0.12428,-0.58512 0,-0.83368 0.17575,-0.35151 0.55578,-0.55578 0.83368,-0.83367 0.27789,-0.2779 0.65792,-0.48217 0.83367,-0.83368 0.12428,-0.24855 -0.1965,-0.63718 0,-0.83368 0.1965,-0.19649 0.63718,0.1965 0.83368,0 0.55331,-0.55331 -0.55332,-1.11403 0,-1.66735 0.1965,-0.1965 0.63717,0.1965 0.83367,0 0.393,-0.39299 -0.24855,-1.17024 0,-1.66735 0.17576,-0.35151 0.65792,-0.48216 0.83368,-0.83367 0.12427,-0.24856 -0.1965,-0.63718 0,-0.83368 0.1965,-0.1965 0.63717,0.1965 0.83367,0 0.1965,-0.1965 -0.12427,-0.58512 0,-0.83367 0.17576,-0.35151 0.65792,-0.48217 0.83368,-0.83368 0.12428,-0.24855 -0.12428,-0.58512 0,-0.83368 0.17575,-0.3515 0.65792,-0.48216 0.83367,-0.83367 0.12428,-0.24856 -0.12427,-0.58512 0,-0.83368 0.35151,-0.70301 1.31585,-0.96433 1.66736,-1.66735 0.12427,-0.24855 -0.1965,-0.63717 0,-0.83367 0.19649,-0.1965 0.63717,0.1965 0.83367,0 0.1965,-0.1965 -0.1965,-0.63718 0,-0.83368 0.1965,-0.1965 0.63718,0.1965 0.83368,0 0.1965,-0.1965 -0.12428,-0.58512 0,-0.83367 0.3515,-0.70302 1.31584,-0.96434 1.66735,-1.66736 0.12427,-0.24855 -0.1965,-0.63717 0,-0.83367 0.1965,-0.1965 0.63717,0.1965 0.83367,0 0.1965,-0.1965 -0.1965,-0.63718 0,-0.83368 0.1965,-0.1965 0.63718,0.1965 0.83368,0 0.1965,-0.1965 -0.1965,-0.63717 0,-0.83367 0.1965,-0.1965 0.63717,0.1965 0.83367,0 0.1965,-0.1965 -0.1965,-0.63718 0,-0.83368 0.1965,-0.1965 0.63718,0.1965 0.83368,0 0.1965,-0.1965 -0.1965,-0.63717 0,-0.83367 0.1965,-0.1965 0.55578,0 0.83368,0 0,-0.2779 -0.12428,-0.58512 0,-0.83368 0.92165,-1.8433 0.51741,-0.25871 1.66735,-0.83367 0.70301,-0.35151 0.96433,-1.31585 1.66735,-1.66736 0.24855,-0.12427 0.63717,0.1965 0.83367,0 0.1965,-0.19649 -0.12427,-0.58512 0,-0.83367 0.17576,-0.35151 0.55579,-0.55578 0.83368,-0.83368 0.27789,-0.27789 0.48217,-0.65792 0.83367,-0.83367 0.24856,-0.12428 0.63718,0.1965 0.83368,0 0.1965,-0.1965 -0.1965,-0.63718 0,-0.83368 0.1965,-0.1965 0.58512,0.12428 0.83368,0 0.70301,-0.35151 0.96433,-1.31584 1.66735,-1.66735 0.24855,-0.12428 0.63717,0.1965 0.83367,0 0.1965,-0.1965 -0.1965,-0.63718 0,-0.83367 0.1965,-0.1965 0.63718,0.19649 0.83368,0 0.1965,-0.1965 -0.1965,-0.63718 0,-0.83368 0.393,-0.393 1.27435,0.393 1.66735,0 0.1965,-0.1965 -0.1965,-0.63718 0,-0.83368 0.1965,-0.19649 0.58512,0.12428 0.83367,0 0.35151,-0.17575 0.48217,-0.65792 0.83368,-0.83367 0.24855,-0.12428 0.63718,0.1965 0.83368,0 0.19649,-0.1965 -0.1965,-0.63718 0,-0.83368 0.19649,-0.1965 0.63717,0.1965 0.83367,0 0.1965,-0.1965 -0.1965,-0.63717 0,-0.83367 0.393,-0.393 1.27435,0.393 1.66735,0 0.1965,-0.1965 -0.1965,-0.63718 0,-0.83368 0.0335,-0.0336 3.02855,0 3.3347,0 0.2779,0 0.63718,-0.1965 0.83368,0 0.1965,0.1965 -0.1965,0.63718 0,0.83368 0.393,0.393 1.27435,-0.393 1.66735,0 0.1965,0.1965 -0.1965,0.63717 0,0.83367 0.393,0.393 1.17024,-0.24855 1.66735,0 0.35151,0.17576 0.48217,0.65792 0.83368,0.83368 0.24855,0.12428 0.63717,-0.1965 0.83367,0 0.1965,0.1965 -0.1965,0.63718 0,0.83367 0.1965,0.1965 0.63718,-0.19649 0.83368,0 0.1965,0.1965 -0.1965,0.63718 0,0.83368 0.1965,0.1965 0.55578,0 0.83367,0 0,0.27789 -0.12427,0.58512 0,0.83368 0.19303,0.38605 2.84439,2.84438 3.33471,3.3347 0.27789,0.27789 0.65792,0.48216 0.83367,0.83367 0.12428,0.24856 -0.12427,0.58512 0,0.83368 0.17576,0.35151 0.65792,0.48217 0.83368,0.83367 0.12427,0.24856 -0.1965,0.63718 0,0.83368 0.1965,0.1965 0.63717,-0.1965 0.83367,0 0.1965,0.1965 -0.1965,0.63718 0,0.83368 0.1965,0.19649 0.63718,-0.1965 0.83368,0 1.7249,1.7249 -2.63588,-0.0674 0.83367,1.66735 0.24856,0.12427 0.63718,-0.1965 0.83368,0 0.1965,0.1965 -0.1965,0.63717 0,0.83367 0.1965,0.1965 0.63718,-0.1965 0.83368,0 0.41683,0.41684 -0.41684,2.08419 0,2.50103 0.19649,0.1965 0.63717,-0.1965 0.83367,0 0.393,0.393 -0.24855,1.17024 0,1.66735 0.17576,0.35151 0.65792,0.48217 0.83368,0.83368 0.12427,0.24855 -0.12428,0.58512 0,0.83367 0.17575,0.35151 0.65792,0.48217 0.83367,0.83368 0.12428,0.24855 -0.12427,0.58512 0,0.83367 0.17576,0.35151 0.65792,0.48217 0.83368,0.83368 0.12427,0.24855 -0.1965,0.63717 0,0.83367 0.1965,0.1965 0.63717,-0.1965 0.83367,0 0.393,0.393 -0.24855,1.17025 0,1.66735 0.17576,0.35151 0.65792,0.48217 0.83368,0.83368 0.16527,0.33055 -0.17043,2.33059 0,2.50103 0.1965,0.1965 0.63718,-0.1965 0.83367,0 0.393,0.393 -0.24855,1.17024 0,1.66735 0.17576,0.35151 0.65793,0.48216 0.83368,0.83367 0.24855,0.49711 -0.24855,1.17025 0,1.66735 0.17575,0.35151 0.65792,0.48217 0.83368,0.83368 0.24855,0.49711 -0.24856,1.17024 0,1.66735 0.17575,0.35151 0.65792,0.48217 0.83367,0.83368 0.12428,0.24855 -0.12428,0.58512 0,0.83367 0.17576,0.35151 0.65792,0.48217 0.83368,0.83368 0.12427,0.24855 -0.12428,0.58512 0,0.83367 0.17575,0.35151 0.65792,0.48217 0.83367,0.83368 0.12428,0.24855 -0.1965,0.63718 0,0.83367 0.1965,0.1965 0.63718,-0.19649 0.83368,0 0.1965,0.1965 -0.1965,0.63718 0,0.83368 0.1965,0.1965 0.63717,-0.1965 0.83367,0 0.1965,0.1965 -0.12427,0.58512 0,0.83368 0.17576,0.3515 0.65792,0.48216 0.83368,0.83367 0.16527,0.33055 -0.17043,2.33059 0,2.50103 0.1965,0.1965 0.63718,-0.1965 0.83367,0 0.1965,0.1965 0,0.55578 0,0.83367 0,0.2779 0.1965,0.63718 0,0.83368 -0.19649,0.1965 -0.63717,-0.1965 -0.83367,0 -0.29264,0.29264 0.28792,3.59253 0,4.16838 -0.17576,0.35151 -0.65792,0.48216 -0.83368,0.83367 -0.12685,0.25372 0,2.12558 0,2.50103 0,1.94524 0,3.89049 0,5.83573 0,0.20219 -0.0268,2.47421 0,2.50102 0.1965,0.1965 0.63718,-0.19649 0.83368,0 0.1965,0.1965 -0.1965,0.63718 0,0.83368 0.1965,0.1965 0.63718,-0.1965 0.83367,0 0.1965,0.1965 -0.19649,0.63718 0,0.83368 0.393,0.39299 1.17025,-0.24856 1.66736,0 0.3515,0.17575 0.48216,0.65792 0.83367,0.83367 0.52398,0.26199 2.81072,-0.26199 3.3347,0 0.35151,0.17576 0.48217,0.65792 0.83368,0.83368 0.57585,0.28792 3.87574,-0.29264 4.16838,0 0.1965,0.1965 -0.1965,0.63717 0,0.83367 0.1965,0.1965 0.55578,0 0.83367,0 0.27789,0 0.58512,0.12428 0.83368,0 0.35151,-0.17575 0.48217,-0.65792 0.83367,-0.83367 0.33055,-0.16528 2.3306,0.17043 2.50103,0 0.1965,-0.1965 -0.1965,-0.63718 0,-0.83368 0.1965,-0.1965 0.58512,0.12428 0.83368,0 0.3515,-0.17575 0.48216,-0.65792 0.83367,-0.83367 0.24856,-0.12428 0.58512,0.12427 0.83368,0 0.70301,-0.35151 0.96433,-1.31585 1.66735,-1.66736 0.24855,-0.12427 0.63717,0.1965 0.83367,0 0.1965,-0.19649 -0.1965,-0.63717 0,-0.83367 0.393,-0.393 1.27436,0.393 1.66735,0 0.1965,-0.1965 -0.19649,-0.63718 0,-0.83368 0.1965,-0.1965 0.58513,0.12428 0.83368,0 0.35151,-0.17575 0.48217,-0.65792 0.83368,-0.83367 0.4971,-0.24856 1.27435,0.393 1.66735,0 0.1965,-0.1965 -0.1965,-0.63718 0,-0.83368 0.393,-0.393 1.17024,0.24856 1.66735,0 0.35151,-0.17575 0.48217,-0.65792 0.83367,-0.83367 0.49711,-0.24856 1.27436,0.393 1.66735,0 0.1965,-0.1965 -0.19649,-0.63718 0,-0.83368 0.393,-0.393 1.17025,0.24856 1.66736,0 0.3515,-0.17575 0.48216,-0.65792 0.83367,-0.83367 0.49711,-0.24856 1.27435,0.39299 1.66735,0 0.1965,-0.1965 -0.1965,-0.63718 0,-0.83368 0.393,-0.393 1.27436,0.393 1.66735,0 0.1965,-0.1965 -0.1965,-0.63718 0,-0.83368 0.55653,-0.55652 1.11083,0.55653 1.66735,0 0.1965,-0.19649 -0.19649,-0.63717 0,-0.83367 0.20061,-0.20061 3.1341,0.20061 3.33471,0 0.1965,-0.1965 -0.1965,-0.63718 0,-0.83368 0.1965,-0.1965 0.83367,-0.27789 0.83367,0 0,0.2779 -0.83367,0.2779 -0.83367,0 0,-1.73478 1.16912,-0.33544 1.66735,-0.83367 0.41684,-0.41684 -0.41684,-2.08419 0,-2.50103 0.1965,-0.1965 0.63717,0.1965 0.83367,0 0.0834,-0.0834 0.0834,-2.41766 0,-2.50103 -0.1965,-0.19649 -0.63717,0.1965 -0.83367,0 -0.393,-0.39299 0.393,-1.27435 0,-1.66735 -0.1965,-0.1965 -0.63718,0.1965 -0.83368,0 -0.1965,-0.1965 0.1965,-0.63717 0,-0.83367 -0.1965,-0.1965 -0.63717,0.1965 -0.83367,0 -0.1965,-0.1965 0.1965,-0.63718 0,-0.83368 -0.20061,-0.20061 -3.1341,0.20061 -3.33471,0 -0.19649,-0.1965 0.1965,-0.63717 0,-0.83367 -0.0268,-0.0268 -2.29883,0 -2.50102,0 -0.27789,0 -0.63718,-0.1965 -0.83368,0 -0.1965,0.1965 -0.1965,0.63717 0,0.83367 0.1965,0.1965 0.63718,-0.1965 0.83368,0 0.1965,0.1965 -0.1965,0.63718 0,0.83368 0.1965,0.1965 0.58512,-0.12428 0.83367,0 0.35151,0.17575 0.48217,0.65792 0.83368,0.83367 0.49711,0.24856 1.27435,-0.39299 1.66735,0 0.1965,0.1965 -0.1965,0.63718 0,0.83368 0.393,0.393 1.27435,-0.393 1.66735,0 0.1965,0.1965 -0.1965,0.63718 0,0.83367 0.1965,0.1965 0.63718,-0.19649 0.83368,0 0.1965,0.1965 -0.1965,0.63718 0,0.83368 0.1965,0.1965 0.63717,-0.1965 0.83367,0 0.1965,0.1965 -0.12427,0.58512 0,0.83368 0.17576,0.3515 0.65792,0.48216 0.83368,0.83367 0.24855,0.49711 -0.393,1.27435 0,1.66735 0.1965,0.1965 0.63717,-0.1965 0.83367,0 0.20061,0.20061 -0.2006,3.1341 0,3.3347 0.1965,0.1965 0.63718,-0.19649 0.83368,0 0.1965,0.1965 0,0.55579 0,0.83368 0,0.39308 0.0378,4.13059 0,4.16838 -0.1965,0.1965 -0.63718,-0.1965 -0.83368,0 -0.1965,0.1965 0.1965,0.63717 0,0.83367 -0.0378,0.0378 -3.7753,0 -4.16837,0 -0.20219,0 -2.47422,0.0268 -2.50103,0 -0.1965,-0.1965 0.12428,-0.58512 0,-0.83367 -0.17575,-0.35151 -0.65792,-0.48217 -0.83368,-0.83368 -0.0855,-0.17101 -0.11757,-2.38345 0,-2.50102 0.1965,-0.1965 0.63718,0.1965 0.83368,0 0.41684,-0.41684 -0.41684,-2.08419 0,-2.50103 0.1965,-0.1965 0.63718,0.1965 0.83367,0 0.393,-0.393 -0.39299,-1.27435 0,-1.66735 0.1965,-0.1965 0.63718,0.1965 0.83368,0 0.393,-0.393 -0.24855,-1.17024 0,-1.66735 0.17575,-0.35151 0.55578,-0.55579 0.83368,-0.83368 0.27789,-0.27789 0.48216,-0.65792 0.83367,-0.83367 0.24856,-0.12428 0.83368,-0.2779 0.83368,0 0,0.27789 -0.55579,0 -0.83368,0"
     id="path906"
     inkscape:connector-curvature="0" />
</svg>
