<?xml version="1.0" encoding="UTF-8" standalone="no"?>
<!-- Created with Inkscape (http://www.inkscape.org/) -->

<svg
   xmlns:dc="http://purl.org/dc/elements/1.1/"
   xmlns:cc="http://creativecommons.org/ns#"
   xmlns:rdf="http://www.w3.org/1999/02/22-rdf-syntax-ns#"
   xmlns:svg="http://www.w3.org/2000/svg"
   xmlns="http://www.w3.org/2000/svg"
   xmlns:xlink="http://www.w3.org/1999/xlink"
   xmlns:sodipodi="http://sodipodi.sourceforge.net/DTD/sodipodi-0.dtd"
   xmlns:inkscape="http://www.inkscape.org/namespaces/inkscape"
   version="1.1"
   id="svg815"
   width="1110.6667"
   height="812"
   viewBox="0 0 1110.6667 812"
   sodipodi:docname="chr-hackspace-citymall.svg"
   inkscape:version="0.92.3 (2405546, 2018-03-11)">
  <metadata
     id="metadata821">
    <rdf:RDF>
      <cc:Work
         rdf:about="">
        <dc:format>image/svg+xml</dc:format>
        <dc:type
           rdf:resource="http://purl.org/dc/dcmitype/StillImage" />
        <dc:title></dc:title>
      </cc:Work>
    </rdf:RDF>
  </metadata>
  <defs
     id="defs819" />
  <sodipodi:namedview
     pagecolor="#ffffff"
     bordercolor="#666666"
     borderopacity="1"
     objecttolerance="10"
     gridtolerance="10"
     guidetolerance="10"
     inkscape:pageopacity="0"
     inkscape:pageshadow="2"
     inkscape:window-width="1366"
     inkscape:window-height="715"
     id="namedview817"
     showgrid="false"
     inkscape:zoom="0.84817981"
     inkscape:cx="623.99392"
     inkscape:cy="350.11157"
     inkscape:window-x="0"
     inkscape:window-y="0"
     inkscape:window-maximized="1"
     inkscape:current-layer="svg815"
     fit-margin-top="0"
     fit-margin-left="0"
     fit-margin-right="0"
     fit-margin-bottom="0"
     showguides="false" />
  <image
     sodipodi:absref="/home/aanper/project/luysy-imn-eh/pi/boot/bydefault/web/svg/../img/chr.png"
     xlink:href="../img/chr.png"
     y="0"
     x="0"
     id="image823"
     preserveAspectRatio="none"
     height="812"
     width="1110.6667" />
  <ellipse
     style="fill:#00ff00;fill-opacity:1;stroke:#00ff00;stroke-width:1.00157475;stroke-miterlimit:4;stroke-dasharray:none;stroke-opacity:1;paint-order:stroke fill markers"
     id="path832"
     cx="377.23819"
     cy="655.68585"
     rx="6.2525668"
     ry="5.8357291" />
  <ellipse
     style="fill:#00ff00;fill-opacity:1;stroke:#00ff00;stroke-width:0.24566929;stroke-miterlimit:4;stroke-dasharray:none;stroke-opacity:1;paint-order:stroke fill markers"
     id="path843"
     cx="606.49896"
     cy="399.22638"
     rx="2.7094455"
     ry="2.1883984" />
  <circle
     style="fill:#00ff00;fill-opacity:1;stroke:#00ff00;stroke-width:0.24566929;stroke-miterlimit:4;stroke-dasharray:none;stroke-opacity:1;paint-order:stroke fill markers"
     id="path845"
     cx="475.19507"
     cy="635.2608"
     r="3.7515399" />
  <ellipse
     style="fill:#00ff00;fill-opacity:1;stroke:#00ff00;stroke-width:0.24566929;stroke-miterlimit:4;stroke-dasharray:none;stroke-opacity:1;paint-order:stroke fill markers"
     id="path847"
     cx="871.39941"
     cy="165.69302"
     rx="2.7094455"
     ry="2.5010266" />
  <ellipse
     style="fill:#00ff00;fill-opacity:1;stroke:#00ff00;stroke-width:0.24566929;stroke-miterlimit:4;stroke-dasharray:none;stroke-opacity:1;paint-order:stroke fill markers"
     id="path849"
     cx="404.43686"
     cy="128.38603"
     rx="3.6473305"
     ry="3.3347023" />
  <ellipse
     style="fill:#00ff00;fill-opacity:1;stroke:#00ff00;stroke-width:0.24566929;stroke-miterlimit:4;stroke-dasharray:none;stroke-opacity:1;paint-order:stroke fill markers"
     id="path851"
     cx="452.06058"
     cy="53.980492"
     rx="2.7094455"
     ry="3.1262834" />
  <ellipse
     style="fill:#00ff00;fill-opacity:1;stroke:#00ff00;stroke-width:0.24566929;stroke-miterlimit:4;stroke-dasharray:none;stroke-opacity:1;paint-order:stroke fill markers"
     id="path853"
     cx="288.76437"
     cy="90.662216"
     rx="2.8136551"
     ry="2.5010266" />
  <ellipse
     style="fill:#00ff00;fill-opacity:1;stroke:#00ff00;stroke-width:0.24566929;stroke-miterlimit:4;stroke-dasharray:none;stroke-opacity:1;paint-order:stroke fill markers"
     id="path855"
     cx="1073.2531"
     cy="687.88654"
     rx="3.4389117"
     ry="3.2304928" />
  <ellipse
     style="fill:#00ff00;fill-opacity:1;stroke:#00ff00;stroke-width:0.24566929;stroke-miterlimit:4;stroke-dasharray:none;stroke-opacity:1;paint-order:stroke fill markers"
     id="path857"
     cx="1017.3968"
     cy="608.89581"
     rx="3.022074"
     ry="2.6052361" />
  <path
     style="fill:none;fill-opacity:1;stroke:#00ff00;stroke-width:1.13385832;stroke-miterlimit:4;stroke-dasharray:none;stroke-opacity:1;paint-order:stroke fill markers"
     d="m 455.09218,48.011053 c -1.50612,3.882794 -1.17899,7.753985 -1.17899,11.789953 0,0.392998 0,0.785997 0,1.178995 0,0.392998 -0.2779,0.901104 0,1.178995 0.27789,0.277892 0.9011,-0.277891 1.17899,0 0.27789,0.277892 0,0.785997 0,1.178996 0,1.964992 0,3.929984 0,5.894976 0,0.392999 -0.27789,0.901104 0,1.178995 0.27789,0.277892 0.9011,-0.277891 1.179,0 0.3226,0.322599 -0.3198,4.076391 0,4.715982 0.24855,0.497108 0.93044,0.681887 1.17899,1.178995 0.17576,0.351508 -0.27789,0.901103 0,1.178995 0.27789,0.277892 0.90111,-0.277892 1.179,0 0.55578,0.555784 -0.55579,1.802207 0,2.357991 0.27789,0.277892 0.9011,-0.277892 1.17899,0 0.27789,0.277892 -0.17575,0.827486 0,1.178995 0.24856,0.497108 0.93044,0.681887 1.179,1.178995 0.17575,0.351509 -0.17576,0.827487 0,1.178996 0.24855,0.497108 0.93044,0.681887 1.17899,1.178995 0.17576,0.351508 -0.17575,0.827487 0,1.178995 0.24856,0.497108 0.93044,0.681887 1.179,1.178995 0.17575,0.351509 -0.27789,0.901104 0,1.178996 0.27789,0.277892 0.9011,-0.277892 1.17899,0 0.2779,0.277892 -0.17575,0.827487 0,1.178995 0.24856,0.497108 0.93045,0.681887 1.179,1.178995 0.17575,0.351509 -0.27789,0.901104 0,1.178996 0.27789,0.277891 0.9011,-0.277892 1.17899,0 0.2779,0.277891 -0.27789,0.901103 0,1.178995 0.2779,0.277892 0.90111,-0.277892 1.179,0 0.27789,0.277892 -0.27789,0.901103 0,1.178995 0.27789,0.277892 0.82749,-0.175754 1.17899,0 0.99422,0.497108 1.36378,1.860883 2.358,2.357991 0.3515,0.175754 0.9011,-0.277892 1.17899,0 0.27789,0.277892 -0.27789,0.901103 0,1.178995 0.27789,0.277892 0.9011,-0.277892 1.179,0 0.27789,0.277892 -0.2779,0.901103 0,1.178995 0.27789,0.277892 0.9011,-0.277892 1.17899,0 0.27789,0.277892 -0.27789,0.901104 0,1.178996 0.27789,0.277894 0.9011,-0.277892 1.179,0 0.27789,0.277894 -0.2779,0.901104 0,1.178994 0.27789,0.27789 0.9011,-0.27789 1.17899,0 0.27789,0.27789 -0.27789,0.9011 0,1.179 0.27789,0.27789 0.82749,-0.17576 1.179,0 0.49711,0.24855 0.68188,0.93044 1.17899,1.17899 0.35151,0.17576 0.90111,-0.27789 1.179,0 0.27789,0.27789 -0.27789,0.9011 0,1.179 0.55578,0.55578 1.8022,-0.55579 2.35799,0 0.27789,0.27789 -0.27789,0.9011 0,1.17899 0.0379,0.0379 3.25105,0 3.53698,0 0.61653,0 4.40598,-0.155 4.71599,0 0.4971,0.24856 0.68188,0.93044 1.17899,1.179 0.30483,0.15241 6.2383,0 7.07397,0 0.393,0 0.786,0 1.179,0 0.393,0 0.9011,-0.27789 1.17899,0 0.27789,0.27789 -0.27789,0.9011 0,1.17899 0.27789,0.27789 0.90111,-0.27789 1.179,0 0.27789,0.27789 0.393,1.179 0,1.179 -0.393,0 -0.393,-1.179 0,-1.179 0.55578,0 0.93044,0.68189 1.17899,1.179 0.3719,0.74379 -0.37189,5.15118 0,5.89497 0.24856,0.49711 0.93044,0.68189 1.179,1.179 0.31979,0.63959 -0.3226,4.39338 0,4.71598 0.27789,0.27789 0.9011,-0.27789 1.17899,0 0.2779,0.27789 -0.17575,0.82749 0,1.179 0.24856,0.4971 0.93045,0.68188 1.179,1.17899 0.17575,0.35151 -0.27789,0.9011 0,1.179 0.27789,0.27789 0.9011,-0.2779 1.17899,0 0.2779,0.27789 -0.27789,0.9011 0,1.17899 0.2779,0.27789 0.82749,-0.17575 1.179,0 0.49711,0.24856 0.68189,0.93044 1.179,1.179 0.3515,0.17575 0.82748,-0.17576 1.17899,0 0.99422,0.49711 1.36378,1.86088 2.35799,2.35799 0.35151,0.17575 0.9011,-0.27789 1.179,0 0.27789,0.27789 -0.2779,0.9011 0,1.17899 0.27789,0.27789 0.82748,-0.17575 1.17899,0 0.49711,0.24856 0.68189,0.93044 1.179,1.179 0.35151,0.17575 0.82748,-0.17576 1.17899,0 0.49711,0.24855 0.68189,0.93044 1.179,1.17899 0.70301,0.35151 1.65497,-0.3515 2.35799,0 0.49711,0.24856 0.68189,0.93044 1.17899,1.179 0.70302,0.35151 1.80221,-0.55578 2.35799,0 0.2779,0.27789 -0.27789,0.9011 0,1.17899 0.0534,0.0534 5.33909,0 5.89498,0 0.393,0 0.9011,-0.27789 1.179,0 0.27789,0.2779 -0.2779,0.90111 0,1.179 0.78688,0.78688 1.5711,-0.78689 2.35799,0 0.27789,0.27789 -0.2779,0.9011 0,1.17899 0.55578,0.55579 1.8022,-0.55578 2.35799,0 0.27789,0.2779 -0.27789,0.90111 0,1.179 0.24103,0.24103 3.06952,-0.23373 3.53698,0 0.49711,0.24855 0.68189,0.93044 1.179,1.179 0.46746,0.23373 3.29595,-0.24103 3.53698,0 0.2779,0.27789 -0.27789,0.9011 0,1.17899 0.0379,0.0379 3.25105,0 3.53699,0 3.14399,0 6.28797,0 9.43196,0 0.61652,0 4.40598,-0.155 4.71598,0 0.49711,0.24855 0.68189,0.93044 1.179,1.179 0.42636,0.21318 5.07494,0 5.89498,0 0.39299,0 0.9011,-0.2779 1.17899,0 0.27789,0.27789 -0.27789,0.9011 0,1.17899 0.55578,0.55578 1.80221,-0.55578 2.35799,0 0.27789,0.27789 -0.27789,0.9011 0,1.179 0.55578,0.55578 1.80221,-0.55579 2.35799,0 0.27789,0.27789 -0.27789,0.9011 0,1.17899 0.27789,0.27789 0.82749,-0.17575 1.179,0 0.99421,0.49711 1.36377,1.86088 2.35799,2.35799 0.35151,0.17576 0.9011,-0.27789 1.17899,0 0.27789,0.27789 -0.17575,0.82749 0,1.179 0.49711,0.99421 1.86089,1.36377 2.35799,2.35799 0.17576,0.35151 -0.27789,0.9011 0,1.17899 0.2779,0.2779 0.82749,-0.17575 1.179,0 0.49711,0.24856 0.68189,0.93044 1.17899,1.179 0.70302,0.35151 1.80221,-0.55578 2.35799,0 0.2779,0.27789 -0.27789,0.9011 0,1.17899 0.55579,0.55579 1.65498,-0.3515 2.35799,0 0.49711,0.24856 0.68189,0.93045 1.179,1.179 0.35151,0.17575 0.9011,-0.27789 1.179,0 0.27789,0.27789 -0.2779,0.9011 0,1.17899 0.27789,0.2779 0.9011,-0.27789 1.17899,0 0.27789,0.2779 -0.27789,0.90111 0,1.179 0.78689,0.78689 1.57111,-0.78689 2.35799,0 0.27789,0.27789 -0.27789,0.9011 0,1.179 0.27789,0.27789 0.9011,-0.2779 1.179,0 0.27789,0.27789 -0.2779,0.9011 0,1.17899 0.27789,0.27789 0.9011,-0.27789 1.17899,0 0.27789,0.27789 -0.17575,0.82749 0,1.179 0.58008,1.16016 4.1359,3.55581 4.71598,4.71598 0.17576,0.35151 -0.27789,0.9011 0,1.17899 0.27789,0.27789 0.90111,-0.27789 1.179,0 0.27789,0.27789 -0.17576,0.82749 0,1.179 0.24855,0.49711 0.93044,0.68188 1.17899,1.17899 0.17576,0.35151 -0.27789,0.90111 0,1.179 0.2779,0.27789 0.90111,-0.27789 1.179,0 0.5895,0.5895 -0.5895,2.94749 0,3.53698 0.27789,0.2779 0.9011,-0.27789 1.17899,0 0.28371,0.28371 -0.2837,4.43228 0,4.71599 0.2779,0.27789 0.90111,-0.2779 1.179,0 0.2837,0.2837 -0.2837,4.43227 0,4.71598 0.27789,0.27789 0.9011,-0.2779 1.17899,0 0.2779,0.27789 0,0.78599 0,1.17899 0,0.393 0,0.786 0,1.179 0,3.14398 0,6.28797 0,9.43196 0,0.393 0,0.786 0,1.17899 0,0.393 -0.27789,0.90111 0,1.179 0.2779,0.27789 0.90111,-0.27789 1.179,0 0.0534,0.0534 0,5.33908 0,5.89498 0,4.32298 0,8.64596 0,12.96894 0,0.393 0,0.786 0,1.179 0,0.393 -0.27789,0.9011 0,1.179 0.27789,0.27789 0.9011,-0.2779 1.179,0 0.58949,0.58949 -0.5895,2.94748 0,3.53698 0.27789,0.27789 0.9011,-0.27789 1.17899,0 0.55578,0.55578 -0.55578,1.80221 0,2.35799 0.27789,0.27789 0.9011,-0.27789 1.179,0 0.27789,0.27789 -0.2779,0.9011 0,1.179 0.27789,0.27789 0.9011,-0.2779 1.17899,0 0.27789,0.27789 -0.17575,0.82748 0,1.17899 0.24856,0.49711 0.93044,0.68189 1.179,1.179 0.17575,0.35151 -0.2779,0.9011 0,1.17899 0.27789,0.27789 0.82748,-0.17575 1.17899,0 0.99422,0.49711 1.36378,1.86089 2.35799,2.35799 0.35151,0.17576 0.90111,-0.27789 1.179,0 0.27789,0.2779 -0.27789,0.90111 0,1.179 0.5895,0.5895 2.94749,-0.5895 3.53698,0 0.2779,0.27789 -0.27789,0.9011 0,1.17899 0.55579,0.55579 1.65498,-0.3515 2.35799,0 0.49711,0.24856 0.68189,0.93045 1.179,1.179 0.35151,0.17575 0.9011,-0.27789 1.17899,0 0.2779,0.27789 -0.27789,0.9011 0,1.17899 0.2779,0.2779 0.90111,-0.27789 1.179,0 0.27789,0.2779 -0.27789,0.90111 0,1.179 2.43938,2.43938 -0.0954,-3.7277 2.35799,1.17899 0.17575,0.35151 -0.27789,0.90111 0,1.179 0.27789,0.27789 0.9011,-0.27789 1.179,0 0.27789,0.27789 -0.2779,0.9011 0,1.179 0.27789,0.27789 0.9011,-0.2779 1.17899,0 0.55578,0.55578 -0.55578,1.8022 0,2.35799 0.27789,0.27789 0.9011,-0.2779 1.179,0 0.3226,0.3226 -0.3198,4.07639 0,4.71598 0.24855,0.49711 0.93044,0.68188 1.17899,1.17899 0.4716,0.9432 -0.4716,2.59379 0,3.53699 0.24856,0.49711 0.93044,0.68189 1.179,1.17899 0.31979,0.63959 -0.3226,4.39339 0,4.71598 0.27789,0.2779 0.9011,-0.27789 1.17899,0 0.24103,0.24103 -0.23373,3.06953 0,3.53699 0.24856,0.49711 0.93044,0.68189 1.179,1.179 0.35151,0.70301 -0.35151,1.65497 0,2.35799 0.24855,0.4971 0.93044,0.68188 1.17899,1.17899 0.17576,0.35151 -0.17575,0.82749 0,1.179 0.24856,0.49711 0.93044,0.68188 1.179,1.17899 0.31979,0.63959 -0.3226,4.39338 0,4.71598 0.27789,0.2779 0.9011,-0.27789 1.17899,0 0.28371,0.28371 -0.2837,4.43228 0,4.71598 1.572,1.572 1.179,-1.96499 1.179,1.179 0,0.393 0,0.786 0,1.179 0,0.39299 -0.27789,0.9011 0,1.17899 0.27789,0.27789 0.9011,-0.27789 1.17899,0 0.55579,0.55578 -0.55578,1.80221 0,2.35799 0.2779,0.27789 0.90111,-0.27789 1.179,0 0.55578,0.55578 -0.35151,1.65497 0,2.35799 0.27298,0.54597 4.02256,4.02256 4.71598,4.71598 0.393,0.393 0.93044,0.68189 1.179,1.179 0.17575,0.35151 -0.2779,0.9011 0,1.17899 0.27789,0.2779 0.9011,-0.27789 1.17899,0 0.27789,0.2779 -0.17575,0.82749 0,1.179 0.58008,1.16016 4.1359,3.55581 4.71598,4.71598 0.17576,0.35151 -0.27789,0.9011 0,1.179 0.27789,0.27789 0.90111,-0.2779 1.179,0 0.27789,0.27789 -0.17576,0.82748 0,1.17899 0.24855,0.49711 0.93044,0.68189 1.17899,1.179 0.17576,0.3515 -0.27789,0.9011 0,1.17899 0.27789,0.27789 0.90111,-0.27789 1.179,0 0.27789,0.27789 -0.27789,0.9011 0,1.179 0.27789,0.27789 0.9011,-0.2779 1.17899,0 0.2779,0.27789 -0.17575,0.82748 0,1.17899 0.24856,0.49711 0.93044,0.68189 1.179,1.179 0.17575,0.35151 -0.27789,0.9011 0,1.17899 0.27789,0.27789 0.786,0 1.17899,0 0,0.393 -0.27789,0.90111 0,1.179 0.2779,0.27789 0.90111,-0.27789 1.179,0 0.27789,0.27789 -0.27789,0.9011 0,1.17899 0.27789,0.27789 0.9011,-0.27789 1.17899,0 0.2779,0.27789 -0.17575,0.82749 0,1.179 0.24856,0.49711 0.93045,0.68189 1.179,1.17899 0.17575,0.35151 -0.27789,0.90111 0,1.179 0.27789,0.27789 0.9011,-0.27789 1.179,0 0.27789,0.27789 -0.17576,0.82749 0,1.17899 0.24855,0.49711 0.93044,0.68189 1.17899,1.179 0.17575,0.35151 -0.27789,0.9011 0,1.17899 0.27789,0.2779 0.9011,-0.27789 1.179,0 0.27789,0.2779 -0.2779,0.90111 0,1.179 0.27789,0.27789 0.9011,-0.27789 1.17899,0 0.55578,0.55578 -0.55578,1.80221 0,2.35799 0.27789,0.27789 0.9011,-0.27789 1.179,0 0.78048,0.78049 -0.78049,1.5775 0,2.35799 0.27789,0.27789 0.9011,-0.27789 1.17899,0 0.27789,0.27789 -0.17575,0.82749 0,1.179 0.24856,0.4971 0.93044,0.68188 1.179,1.17899 0.17575,0.35151 -0.27789,0.90111 0,1.179 0.27789,0.27789 0.9011,-0.27789 1.17899,0 0.27789,0.27789 -0.17575,0.82748 0,1.17899 0.24856,0.49711 0.93044,0.68189 1.179,1.179 0.17575,0.35151 -0.27789,0.9011 0,1.17899 0.27789,0.27789 0.9011,-0.27789 1.17899,0 0.55579,0.55579 -0.35151,1.65498 0,2.35799 0.24856,0.49711 0.93044,0.68189 1.179,1.179 0.17575,0.35151 -0.17576,0.82749 0,1.17899 0.24855,0.49711 0.93044,0.68189 1.17899,1.179 0.17576,0.35151 -0.17575,0.82749 0,1.17899 0.49711,0.99422 1.86089,1.36378 2.35799,2.358 0.17576,0.3515 -0.17575,0.82748 0,1.17899 0.24856,0.49711 0.93045,0.68189 1.179,1.179 0.17575,0.3515 -0.27789,0.9011 0,1.17899 0.27789,0.27789 0.9011,-0.27789 1.17899,0 0.2779,0.27789 -0.27789,0.9011 0,1.179 0.2779,0.27789 0.90111,-0.2779 1.179,0 0.27789,0.27789 -0.17575,0.82748 0,1.17899 0.7074,1.4148 2.82959,2.12219 3.53699,3.53699 0.17575,0.35151 -0.17576,0.82748 0,1.17899 0.24855,0.49711 0.93044,0.68189 1.17899,1.179 0.17576,0.35151 -0.17575,0.82748 0,1.17899 0.24855,0.49711 0.93044,0.68189 1.179,1.179 0.17575,0.35151 -0.17576,0.82749 0,1.17899 0.24855,0.49711 0.93044,0.68189 1.17899,1.179 0.17576,0.35151 -0.27789,0.9011 0,1.17899 1.572,1.572 1.179,-1.96499 1.179,1.179 0,0.43297 0.0474,4.66854 0,4.71598 -0.2779,0.27789 -0.90111,-0.27789 -1.179,0 -0.55578,0.55578 0.35151,1.65497 0,2.35799 -0.49711,0.99422 -1.86088,1.36378 -2.35799,2.35799 -0.17575,0.35151 0.27789,0.90111 0,1.179 -0.27789,0.27789 -0.9011,-0.27789 -1.17899,0 -0.55579,0.55578 0.55578,1.8022 0,2.35799 -0.2779,0.27789 -0.90111,-0.27789 -1.179,0 -0.27789,0.27789 0.17575,0.82748 0,1.17899 -0.11284,0.22569 -4.4903,4.60314 -4.71598,4.71598 -0.35151,0.17576 -0.9011,-0.27789 -1.179,0 -0.27789,0.2779 0.2779,0.90111 0,1.179 -0.55578,0.55578 -1.65497,-0.35151 -2.35799,0 -0.4971,0.24855 -0.68188,0.93044 -1.17899,1.17899 -0.70302,0.35151 -1.80221,-0.55578 -2.35799,0 -0.27789,0.2779 0.27789,0.90111 0,1.179 -0.55579,0.55578 -1.65498,-0.35151 -2.35799,0 -0.49711,0.24855 -0.68189,0.93044 -1.179,1.179 -0.70302,0.3515 -1.80221,-0.55579 -2.35799,0 -0.27789,0.27789 0.27789,0.9011 0,1.17899 -0.27789,0.27789 -0.9011,-0.27789 -1.17899,0 0,3.14399 0.39299,-0.393 -1.179,1.179 -0.27789,0.27789 0.27789,0.9011 0,1.17899 -0.27789,0.27789 -0.9011,-0.27789 -1.17899,0 -0.2779,0.27789 0.27789,0.9011 0,1.179 -0.2779,0.27789 -0.90111,-0.2779 -1.179,0 -0.27789,0.27789 0.27789,0.9011 0,1.17899 -0.27789,0.27789 -0.9011,-0.27789 -1.179,0 -0.27789,0.27789 0.2779,0.90111 0,1.179 -0.27789,0.27789 -0.9011,-0.27789 -1.17899,0 -0.27789,0.27789 0.27789,0.9011 0,1.17899 -0.27789,0.27789 -0.9011,-0.27789 -1.179,0 -0.27789,0.27789 0.2779,0.90111 0,1.179 -0.27789,0.27789 -0.82748,-0.17576 -1.17899,0 -0.49711,0.24855 -0.68189,0.93044 -1.179,1.17899 -0.35151,0.17576 -0.82748,-0.17575 -1.17899,0 -0.49711,0.24856 -0.68189,0.93044 -1.179,1.179 -0.35151,0.17575 -0.9011,-0.27789 -1.17899,0 -0.27789,0.27789 0.27789,0.9011 0,1.17899 -0.55579,0.55579 -1.80221,-0.55578 -2.35799,0 -0.27789,0.2779 0.27789,0.90111 0,1.179 -0.27789,0.27789 -0.82749,-0.17576 -1.179,0 -0.49711,0.24855 -0.68189,0.93044 -1.17899,1.17899 -0.70302,0.35151 -1.80221,-0.55578 -2.35799,0 -0.2779,0.2779 0.27789,0.90111 0,1.179 -0.2779,0.27789 -0.82749,-0.17575 -1.179,0 -0.99422,0.49711 -1.36377,1.86088 -2.35799,2.35799 -0.35151,0.17575 -0.9011,-0.27789 -1.179,0 -0.27789,0.27789 0.2779,0.9011 0,1.179 -0.27789,0.27789 -0.9011,-0.2779 -1.17899,0 -0.27789,0.27789 0.27789,0.9011 0,1.17899 -0.0379,0.0379 -3.25105,0 -3.53699,0 -0.39299,0 -0.78599,0 -1.17899,0 -0.393,0 -0.90111,-0.27789 -1.179,0 -0.27789,0.27789 0.27789,0.9011 0,1.179 -0.2837,0.2837 -4.43228,-0.28371 -4.71598,0 -0.27789,0.27789 0.27789,0.9011 0,1.17899 -0.5895,0.5895 -2.94749,-0.5895 -3.53698,0 -0.2779,0.27789 0.27789,0.9011 0,1.179 -0.1179,0.1179 -3.41909,0.1179 -3.53699,0 -0.27789,-0.2779 0.17575,-0.82749 0,-1.179 -2.45335,-4.90669 0.0814,1.26039 -2.35799,-1.17899 -0.27789,-0.2779 0.17575,-0.82749 0,-1.179 -2.45335,-4.9067 0.0814,1.26039 -2.35799,-1.17899 -0.27789,-0.2779 0.27789,-0.90111 0,-1.179 -0.55578,-0.55578 -1.80221,0.55578 -2.35799,0 -0.27789,-0.27789 0.27789,-0.9011 0,-1.179 -0.27789,-0.27789 -0.82749,0.17576 -1.179,0 -0.49711,-0.24855 -0.68188,-0.93044 -1.17899,-1.17899 -0.35151,-0.17575 -0.82749,0.17575 -1.179,0 -0.49711,-0.24855 -0.68188,-0.93044 -1.17899,-1.179 -0.70302,-0.3515 -1.80221,0.55579 -2.35799,0 -0.2779,-0.27789 0.27789,-0.9011 0,-1.17899 -0.55579,-0.55578 -1.65498,0.35151 -2.35799,0 -0.49711,-0.24856 -0.68189,-0.93044 -1.179,-1.179 -0.46746,-0.23373 -3.29596,0.24103 -3.53699,0 -1.57199,-1.57199 1.965,-1.17899 -1.17899,-1.17899"
     id="path1263"
     inkscape:connector-curvature="0" />
</svg>
