<?xml version="1.0" encoding="UTF-8" standalone="no"?>
<!-- Created with Inkscape (http://www.inkscape.org/) -->

<svg
   xmlns:dc="http://purl.org/dc/elements/1.1/"
   xmlns:cc="http://creativecommons.org/ns#"
   xmlns:rdf="http://www.w3.org/1999/02/22-rdf-syntax-ns#"
   xmlns:svg="http://www.w3.org/2000/svg"
   xmlns="http://www.w3.org/2000/svg"
   xmlns:xlink="http://www.w3.org/1999/xlink"
   xmlns:sodipodi="http://sodipodi.sourceforge.net/DTD/sodipodi-0.dtd"
   xmlns:inkscape="http://www.inkscape.org/namespaces/inkscape"
   version="1.1"
   id="svg815"
   width="1110.6667"
   height="812"
   viewBox="0 0 1110.6667 812"
   sodipodi:docname="chr-pionerskaya-ispytatelei.svg"
   inkscape:version="0.92.3 (2405546, 2018-03-11)">
  <metadata
     id="metadata821">
    <rdf:RDF>
      <cc:Work
         rdf:about="">
        <dc:format>image/svg+xml</dc:format>
        <dc:type
           rdf:resource="http://purl.org/dc/dcmitype/StillImage" />
        <dc:title></dc:title>
      </cc:Work>
    </rdf:RDF>
  </metadata>
  <defs
     id="defs819" />
  <sodipodi:namedview
     pagecolor="#ffffff"
     bordercolor="#666666"
     borderopacity="1"
     objecttolerance="10"
     gridtolerance="10"
     guidetolerance="10"
     inkscape:pageopacity="0"
     inkscape:pageshadow="2"
     inkscape:window-width="1366"
     inkscape:window-height="715"
     id="namedview817"
     showgrid="false"
     inkscape:zoom="1.6963596"
     inkscape:cx="422.57319"
     inkscape:cy="611.92605"
     inkscape:window-x="0"
     inkscape:window-y="0"
     inkscape:window-maximized="1"
     inkscape:current-layer="svg815"
     fit-margin-top="0"
     fit-margin-left="0"
     fit-margin-right="0"
     fit-margin-bottom="0"
     showguides="false" />
  <image
     sodipodi:absref="/home/aanper/project/luysy-imn-eh/pi/boot/bydefault/web/svg/../img/chr.png"
     xlink:href="../img/chr.png"
     y="0"
     x="0"
     id="image823"
     preserveAspectRatio="none"
     height="812"
     width="1110.6667" />
  <ellipse
     style="fill:#00ff00;fill-opacity:1;stroke:#00ff00;stroke-width:1.00157475;stroke-miterlimit:4;stroke-dasharray:none;stroke-opacity:1;paint-order:stroke fill markers"
     id="path832"
     cx="377.23819"
     cy="655.68585"
     rx="6.2525668"
     ry="5.8357291" />
  <ellipse
     style="fill:#00ff00;fill-opacity:1;stroke:#00ff00;stroke-width:0.24566929;stroke-miterlimit:4;stroke-dasharray:none;stroke-opacity:1;paint-order:stroke fill markers"
     id="path843"
     cx="606.49896"
     cy="399.22638"
     rx="2.7094455"
     ry="2.1883984" />
  <circle
     style="fill:#00ff00;fill-opacity:1;stroke:#00ff00;stroke-width:0.24566929;stroke-miterlimit:4;stroke-dasharray:none;stroke-opacity:1;paint-order:stroke fill markers"
     id="path845"
     cx="475.19507"
     cy="635.2608"
     r="3.7515399" />
  <ellipse
     style="fill:#00ff00;fill-opacity:1;stroke:#00ff00;stroke-width:0.24566929;stroke-miterlimit:4;stroke-dasharray:none;stroke-opacity:1;paint-order:stroke fill markers"
     id="path847"
     cx="871.39941"
     cy="165.69302"
     rx="2.7094455"
     ry="2.5010266" />
  <ellipse
     style="fill:#00ff00;fill-opacity:1;stroke:#00ff00;stroke-width:0.24566929;stroke-miterlimit:4;stroke-dasharray:none;stroke-opacity:1;paint-order:stroke fill markers"
     id="path849"
     cx="404.43686"
     cy="128.38603"
     rx="3.6473305"
     ry="3.3347023" />
  <ellipse
     style="fill:#00ff00;fill-opacity:1;stroke:#00ff00;stroke-width:0.24566929;stroke-miterlimit:4;stroke-dasharray:none;stroke-opacity:1;paint-order:stroke fill markers"
     id="path851"
     cx="452.06058"
     cy="53.980492"
     rx="2.7094455"
     ry="3.1262834" />
  <ellipse
     style="fill:#00ff00;fill-opacity:1;stroke:#00ff00;stroke-width:0.24566929;stroke-miterlimit:4;stroke-dasharray:none;stroke-opacity:1;paint-order:stroke fill markers"
     id="path853"
     cx="288.76437"
     cy="90.662216"
     rx="2.8136551"
     ry="2.5010266" />
  <ellipse
     style="fill:#00ff00;fill-opacity:1;stroke:#00ff00;stroke-width:0.24566929;stroke-miterlimit:4;stroke-dasharray:none;stroke-opacity:1;paint-order:stroke fill markers"
     id="path855"
     cx="1073.2531"
     cy="687.88654"
     rx="3.4389117"
     ry="3.2304928" />
  <ellipse
     style="fill:#00ff00;fill-opacity:1;stroke:#00ff00;stroke-width:0.24566929;stroke-miterlimit:4;stroke-dasharray:none;stroke-opacity:1;paint-order:stroke fill markers"
     id="path857"
     cx="1017.3968"
     cy="608.89581"
     rx="3.022074"
     ry="2.6052361" />
  <path
     style="fill:none;fill-opacity:1;stroke:#00ff00;stroke-width:1.13385832;stroke-miterlimit:4;stroke-dasharray:none;stroke-opacity:1;paint-order:stroke fill markers"
     d="m 287.08535,91.633878 c 1.8864,-2.51519 0.786,-2.35799 2.35799,-2.35799 0.1965,0 0.45056,0.138946 0.5895,0 0.13895,-0.138946 -0.13894,-0.450552 0,-0.589498 0.27789,-0.277892 0.9011,0.277892 1.179,0 0.13894,-0.138946 -0.13895,-0.450552 0,-0.589498 0.29475,-0.294748 1.47374,0.294749 1.76849,0 0.13895,-0.138946 -0.13895,-0.450551 0,-0.589497 0.1613,-0.1613 2.03819,0.159897 2.35799,0 0.24855,-0.124277 0.34094,-0.465221 0.5895,-0.589498 0.40718,-0.203593 2.74056,0.206925 2.94749,0 0.13894,-0.138946 -0.13895,-0.450552 0,-0.589498 0.13894,-0.138946 0.39299,0 0.58949,0 0.21649,0 2.33427,-0.02372 2.35799,0 0.13895,0.138946 -0.13894,0.450552 0,0.589498 0.13895,0.138946 0.393,0 0.5895,0 0.27795,0 2.92077,-0.02672 2.94749,0 0.13895,0.138946 -0.13895,0.450552 0,0.589498 0.29475,0.294749 1.47374,-0.294749 1.76849,0 0.13895,0.138946 -0.13894,0.450551 0,0.589497 0.14185,0.141852 2.21614,-0.141851 2.35799,0 0.13895,0.138946 -0.13894,0.450552 0,0.589498 0.12052,0.120515 1.53477,-0.116866 1.7685,0 0.24855,0.124277 0.34094,0.465221 0.58949,0.589498 0.23374,0.116865 1.64798,-0.120515 1.7685,0 0.13894,0.138946 -0.13895,0.450551 0,0.589497 0.29475,0.294749 1.47374,-0.294749 1.76849,0 0.13895,0.138946 -0.13895,0.450552 0,0.589498 0.12051,0.120515 1.53476,-0.116866 1.76849,0 0.24856,0.124277 0.34095,0.465221 0.5895,0.589498 0.35151,0.175754 0.82749,-0.175755 1.179,0 0.24855,0.124277 0.34094,0.46522 0.58949,0.589497 0.4716,0.235799 1.2969,-0.235799 1.7685,0 0.24855,0.124277 0.34094,0.465221 0.58949,0.589498 0.4716,0.235799 1.2969,-0.235799 1.7685,0 0.24855,0.124277 0.34094,0.46522 0.58949,0.589497 0.3198,0.159898 2.1967,-0.161299 2.358,0 0.13894,0.138946 -0.13895,0.450552 0,0.589498 0.13894,0.138946 0.39299,0 0.58949,0 0.27795,0 2.92077,-0.02672 2.94749,0 0.13895,0.138946 -0.13894,0.450552 0,0.589498 0.0267,0.02672 2.66954,0 2.94749,0 1.57199,0 3.14399,0 4.71598,0 0.26549,0 1.58909,-0.0897 1.76849,0 0.24856,0.124277 0.34095,0.46522 0.5895,0.589497 0.23373,0.116866 1.64798,-0.120514 1.76849,0 0.13895,0.138946 -0.13894,0.450552 0,0.589498 0.20693,0.206925 2.54031,-0.203593 2.94749,0 0.24856,0.124277 0.34095,0.465221 0.5895,0.589498 0.35151,0.175754 0.82749,-0.175755 1.179,0 0.24855,0.124277 0.34094,0.46522 0.58949,0.589497 0.4716,0.235799 1.2969,-0.235799 1.7685,0 0.24855,0.124277 0.34094,0.465221 0.58949,0.589498 0.4716,0.235799 1.2969,-0.235799 1.7685,0 0.24855,0.124277 0.34094,0.465221 0.58949,0.589498 0.3198,0.159897 2.19669,-0.1613 2.35799,0 0.13895,0.138946 -0.13894,0.450551 0,0.589497 0.2779,0.277892 0.82749,-0.175754 1.179,0 0.24855,0.124277 0.34094,0.465221 0.5895,0.589498 0.17575,0.08788 0.45055,-0.138946 0.5895,0 0.13894,0.138946 -0.13895,0.450552 0,0.589498 0.29474,0.294748 1.47374,-0.294749 1.76849,0 0.13894,0.138946 -0.13895,0.450551 0,0.589497 0.27789,0.277895 0.82748,-0.175754 1.17899,0 0.24856,0.124275 0.34095,0.465225 0.5895,0.589495 0.17576,0.0879 0.41374,-0.0879 0.5895,0 0.24855,0.12428 0.34094,0.46522 0.5895,0.5895 0.47159,0.2358 1.29689,-0.2358 1.76849,0 0.24855,0.12428 0.34094,0.46522 0.5895,0.5895 0.6295,0.31475 0.54948,-0.31476 1.17899,0 0.24856,0.12428 0.34095,0.46522 0.5895,0.5895 0.17575,0.0879 0.41374,-0.0879 0.5895,0 0.24855,0.12427 0.34094,0.46522 0.58949,0.58949 0.4716,0.2358 1.2969,-0.2358 1.7685,0 1.95512,1.95512 -0.55579,-0.27789 1.17899,0.5895 0.24856,0.12428 0.34095,0.46522 0.5895,0.5895 0.35151,0.17575 0.82749,-0.17576 1.179,0 0.24855,0.12428 0.34094,0.46522 0.58949,0.5895 0.35151,0.17575 0.82749,-0.17576 1.179,0 0.24855,0.12427 0.34094,0.46522 0.5895,0.58949 0.17575,0.0879 0.41374,-0.0879 0.58949,0 0.24856,0.12428 0.34095,0.46522 0.5895,0.5895 0.35151,0.17576 0.90111,-0.27789 1.179,0 0.13894,0.13895 -0.13895,0.45055 0,0.5895 0.27789,0.27789 0.82748,-0.17575 1.17899,0 0.24856,0.12428 0.34095,0.46522 0.5895,0.5895 0.17575,0.0879 0.41374,-0.0879 0.5895,0 0.24855,0.12427 0.34094,0.46522 0.5895,0.58949 0.17575,0.0879 0.45055,-0.13894 0.58949,0 0.13895,0.13895 -0.13894,0.45056 0,0.5895 0.13895,0.13895 0.41375,-0.0879 0.5895,0 0.24855,0.12428 0.34094,0.46522 0.5895,0.5895 0.4716,0.2358 1.29689,-0.2358 1.76849,0 0.24856,0.12428 0.34095,0.46522 0.5895,0.5895 0.37051,0.18525 1.98748,-0.18526 2.35799,0 0.24855,0.12427 0.34094,0.46522 0.5895,0.5895 0.21318,0.10659 2.53747,0 2.94749,0 0.19649,0 0.45055,-0.13895 0.58949,0 0.13895,0.13894 -0.13894,0.45055 0,0.58949 0.019,0.019 1.62553,0 1.7685,0 1.57199,0 3.14398,0 4.71598,0 0.1965,0 0.45055,-0.13894 0.58949,0 0.13895,0.13895 -0.13894,0.45055 0,0.5895 0.2779,0.27789 0.90111,-0.27789 1.179,0 0.13895,0.13895 -0.13895,0.45055 0,0.5895 0.13895,0.13894 0.41374,-0.0879 0.5895,0 0.49711,0.24855 0.68189,0.93044 1.17899,1.17899 0.17576,0.0879 0.45055,-0.13894 0.5895,0 0.13895,0.13895 -0.13895,0.45056 0,0.5895 0.13895,0.13895 0.45055,-0.13894 0.5895,0 0.13894,0.13895 -0.0879,0.41374 0,0.5895 0.12428,0.24855 0.393,0.393 0.5895,0.5895 0.1965,0.1965 0.34094,0.46522 0.58949,0.58949 0.17576,0.0879 0.45056,-0.13894 0.5895,0 0.13895,0.13895 -0.0879,0.41375 0,0.5895 0.24856,0.49711 0.93044,0.68189 1.179,1.179 0.17575,0.35151 -0.17576,0.82748 0,1.17899 0.12427,0.24856 0.46522,0.34095 0.58949,0.5895 0.17576,0.35151 -0.17575,0.82749 0,1.179 0.12428,0.24855 0.46522,0.34094 0.5895,0.58949 0.0879,0.17576 -0.13894,0.45055 0,0.5895 0.13895,0.13895 0.45055,-0.13895 0.5895,0 0.13895,0.13895 0,0.393 0,0.5895 0,0.1965 0,0.393 0,0.5895 0,0.19649 0,0.39299 0,0.58949 0,0.1965 -0.0879,0.41375 0,0.5895 0.12428,0.24856 0.46522,0.34094 0.5895,0.5895 0.0879,0.17575 0,0.393 0,0.5895 0,0.1965 0,0.39299 0,0.58949 0,0.9825 0,1.965 0,2.94749 0,0.1965 0,0.393 0,0.5895 0,0.1965 0.1965,0.5895 0,0.5895 -0.1965,0 0,-0.393 0,-0.5895 0,-0.1965 0,-0.393 0,-0.5895"
     id="path1227"
     inkscape:connector-curvature="0" />
</svg>
