<?xml version="1.0" encoding="UTF-8" standalone="no"?>
<!-- Created with Inkscape (http://www.inkscape.org/) -->

<svg
   xmlns:dc="http://purl.org/dc/elements/1.1/"
   xmlns:cc="http://creativecommons.org/ns#"
   xmlns:rdf="http://www.w3.org/1999/02/22-rdf-syntax-ns#"
   xmlns:svg="http://www.w3.org/2000/svg"
   xmlns="http://www.w3.org/2000/svg"
   xmlns:xlink="http://www.w3.org/1999/xlink"
   xmlns:sodipodi="http://sodipodi.sourceforge.net/DTD/sodipodi-0.dtd"
   xmlns:inkscape="http://www.inkscape.org/namespaces/inkscape"
   version="1.1"
   id="svg815"
   width="1110.6667"
   height="812"
   viewBox="0 0 1110.6667 812"
   sodipodi:docname="chr-savushkina-savushkina-2.svg"
   inkscape:version="0.92.3 (2405546, 2018-03-11)">
  <metadata
     id="metadata821">
    <rdf:RDF>
      <cc:Work
         rdf:about="">
        <dc:format>image/svg+xml</dc:format>
        <dc:type
           rdf:resource="http://purl.org/dc/dcmitype/StillImage" />
        <dc:title></dc:title>
      </cc:Work>
    </rdf:RDF>
  </metadata>
  <defs
     id="defs819" />
  <sodipodi:namedview
     pagecolor="#ffffff"
     bordercolor="#666666"
     borderopacity="1"
     objecttolerance="10"
     gridtolerance="10"
     guidetolerance="10"
     inkscape:pageopacity="0"
     inkscape:pageshadow="2"
     inkscape:window-width="1366"
     inkscape:window-height="715"
     id="namedview817"
     showgrid="false"
     inkscape:zoom="2.3990148"
     inkscape:cx="343.39344"
     inkscape:cy="98.291459"
     inkscape:window-x="0"
     inkscape:window-y="0"
     inkscape:window-maximized="1"
     inkscape:current-layer="svg815"
     fit-margin-top="0"
     fit-margin-left="0"
     fit-margin-right="0"
     fit-margin-bottom="0"
     showguides="false" />
  <image
     sodipodi:absref="/home/aanper/project/luysy-imn-eh/pi/boot/bydefault/web/svg/../img/chr.png"
     xlink:href="../img/chr.png"
     y="0"
     x="0"
     id="image823"
     preserveAspectRatio="none"
     height="812"
     width="1110.6667" />
  <ellipse
     style="fill:#00ff00;fill-opacity:1;stroke:#00ff00;stroke-width:1.00157475;stroke-miterlimit:4;stroke-dasharray:none;stroke-opacity:1;paint-order:stroke fill markers"
     id="path832"
     cx="377.23819"
     cy="655.68585"
     rx="6.2525668"
     ry="5.8357291" />
  <ellipse
     style="fill:#00ff00;fill-opacity:1;stroke:#00ff00;stroke-width:0.24566929;stroke-miterlimit:4;stroke-dasharray:none;stroke-opacity:1;paint-order:stroke fill markers"
     id="path843"
     cx="606.49896"
     cy="399.22638"
     rx="2.7094455"
     ry="2.1883984" />
  <circle
     style="fill:#00ff00;fill-opacity:1;stroke:#00ff00;stroke-width:0.24566929;stroke-miterlimit:4;stroke-dasharray:none;stroke-opacity:1;paint-order:stroke fill markers"
     id="path845"
     cx="475.19507"
     cy="635.2608"
     r="3.7515399" />
  <ellipse
     style="fill:#00ff00;fill-opacity:1;stroke:#00ff00;stroke-width:0.24566929;stroke-miterlimit:4;stroke-dasharray:none;stroke-opacity:1;paint-order:stroke fill markers"
     id="path847"
     cx="871.39941"
     cy="165.69302"
     rx="2.7094455"
     ry="2.5010266" />
  <ellipse
     style="fill:#00ff00;fill-opacity:1;stroke:#00ff00;stroke-width:0.24566929;stroke-miterlimit:4;stroke-dasharray:none;stroke-opacity:1;paint-order:stroke fill markers"
     id="path849"
     cx="404.43686"
     cy="128.38603"
     rx="3.6473305"
     ry="3.3347023" />
  <ellipse
     style="fill:#00ff00;fill-opacity:1;stroke:#00ff00;stroke-width:0.24566929;stroke-miterlimit:4;stroke-dasharray:none;stroke-opacity:1;paint-order:stroke fill markers"
     id="path851"
     cx="452.06058"
     cy="53.980492"
     rx="2.7094455"
     ry="3.1262834" />
  <ellipse
     style="fill:#00ff00;fill-opacity:1;stroke:#00ff00;stroke-width:0.24566929;stroke-miterlimit:4;stroke-dasharray:none;stroke-opacity:1;paint-order:stroke fill markers"
     id="path853"
     cx="288.76437"
     cy="90.662216"
     rx="2.8136551"
     ry="2.5010266" />
  <ellipse
     style="fill:#00ff00;fill-opacity:1;stroke:#00ff00;stroke-width:0.24566929;stroke-miterlimit:4;stroke-dasharray:none;stroke-opacity:1;paint-order:stroke fill markers"
     id="path855"
     cx="1073.2531"
     cy="687.88654"
     rx="3.4389117"
     ry="3.2304928" />
  <ellipse
     style="fill:#00ff00;fill-opacity:1;stroke:#00ff00;stroke-width:0.24566929;stroke-miterlimit:4;stroke-dasharray:none;stroke-opacity:1;paint-order:stroke fill markers"
     id="path857"
     cx="1017.3968"
     cy="608.89581"
     rx="3.022074"
     ry="2.6052361" />
  <path
     style="fill:none;fill-opacity:1;stroke:#00ff00;stroke-width:1.13385832;stroke-miterlimit:4;stroke-dasharray:none;stroke-opacity:1;paint-order:stroke fill markers"
     d="m 378.07187,657.35318 c 0.97128,-0.0207 0.87159,-1.68631 1.66735,-2.08419 0.57497,-0.28748 0.37285,0.50482 0.83368,-0.41683 0.0621,-0.12428 -0.0983,-0.31859 0,-0.41684 0.0982,-0.0983 0.29256,0.0621 0.41683,0 0.17576,-0.0879 0.27789,-0.27789 0.41684,-0.41684 0.13895,-0.13895 0.24108,-0.32896 0.41684,-0.41684 0.12428,-0.0621 0.29256,0.0621 0.41684,0 0.17575,-0.0879 0.24108,-0.32896 0.41683,-0.41684 0.12428,-0.0621 0.29256,0.0621 0.41684,0 0.35151,-0.17575 0.48217,-0.65792 0.83368,-0.83367 0.12427,-0.0621 0.29256,0.0621 0.41684,0 1.79649,-0.89825 -0.96282,0.0646 0.83367,-0.83368 0.33347,-0.16673 0.91704,0.16674 1.25051,0 0.17576,-0.0879 0.24109,-0.32896 0.41684,-0.41683 0.24856,-0.12428 0.58512,0.12427 0.83368,0 0.17575,-0.0879 0.24108,-0.32896 0.41684,-0.41684 0.12427,-0.0621 0.31858,0.0983 0.41683,0 0.0983,-0.0983 -0.0983,-0.31859 0,-0.41684 0.0983,-0.0983 0.29256,0.0621 0.41684,0 0.17575,-0.0879 0.24108,-0.32896 0.41684,-0.41684 0.12428,-0.0621 0.31859,0.0983 0.41684,0 0.0983,-0.0983 -0.0983,-0.31859 0,-0.41684 0.0983,-0.0982 0.29256,0.0621 0.41683,0 0.35151,-0.17575 0.48217,-0.65792 0.83368,-0.83367 0.12428,-0.0621 0.31859,0.0983 0.41684,0 0.0983,-0.0983 -0.0621,-0.29256 0,-0.41684 0.86739,-1.73478 -0.0288,0.44562 0.83367,-0.41684 0.0983,-0.0983 -0.0983,-0.31858 0,-0.41683 0.0983,-0.0983 0.31859,0.0983 0.41684,0 0.0983,-0.0983 -0.0982,-0.31859 0,-0.41684 0.0983,-0.0983 0.31859,0.0983 0.41684,0 0.0983,-0.0983 -0.0983,-0.31859 0,-0.41684 0.0983,-0.0983 0.31859,0.0983 0.41684,0 0.0983,-0.0983 -0.0983,-0.31859 0,-0.41684 0.0983,-0.0983 0.29256,0.0621 0.41683,0 0.35151,-0.17575 0.48217,-0.65792 0.83368,-0.83367 0.12428,-0.0621 0.31859,0.0983 0.41684,0 0.0983,-0.0983 -0.0983,-0.31859 0,-0.41684 0.0983,-0.0982 0.29256,0.0621 0.41684,0 0.17575,-0.0879 0.24108,-0.32896 0.41683,-0.41684 0.12428,-0.0621 0.29256,0.0621 0.41684,0 0.17576,-0.0879 0.24108,-0.32896 0.41684,-0.41684 0.12428,-0.0621 0.29256,0.0621 0.41684,0 0.17575,-0.0879 0.24108,-0.32896 0.41683,-0.41683 0.24856,-0.12428 0.58513,0.12427 0.83368,0 0.17575,-0.0879 0.24108,-0.32896 0.41684,-0.41684 0.24855,-0.12428 0.58512,0.12428 0.83367,0 0.17576,-0.0879 0.24109,-0.32896 0.41684,-0.41684 0.16527,-0.0826 1.1653,0.0852 1.25051,0 0.0983,-0.0983 -0.0983,-0.31859 0,-0.41684 0.0134,-0.0134 1.14942,0 1.25052,0 1.11156,0 -0.13895,0.13895 0.41684,-0.41684 0.11405,-0.11405 1.44122,0.11307 1.66735,0 0.17575,-0.0879 0.24108,-0.32896 0.41683,-0.41683 0.24856,-0.12428 0.58513,0.12427 0.83368,0 0.17575,-0.0879 0.24108,-0.32896 0.41684,-0.41684 0.16527,-0.0826 1.16529,0.0852 1.25051,0 0.0983,-0.0983 -0.0983,-0.31859 0,-0.41684 0.0983,-0.0983 0.27789,0 0.41684,0 0.29545,0 2.39325,0.0539 2.50103,0 0.17575,-0.0879 0.24108,-0.32896 0.41683,-0.41684 0.33347,-0.16673 0.91705,0.16674 1.25052,0 0.17575,-0.0879 0.24108,-0.32896 0.41683,-0.41683 0.24856,-0.12428 0.58513,0.12427 0.83368,0 0.17575,-0.0879 0.24108,-0.32896 0.41684,-0.41684 0.24855,-0.12428 0.58512,0.12428 0.83367,0 0.17576,-0.0879 0.24109,-0.32896 0.41684,-0.41684 0.24856,-0.12428 0.58512,0.12428 0.83368,0 0.17575,-0.0879 0.24108,-0.32896 0.41683,-0.41684 0.12428,-0.0621 0.29257,0.0621 0.41684,0 0.17576,-0.0879 0.24109,-0.32896 0.41684,-0.41684 0.12428,-0.0621 0.27789,0 0.41684,0 0.27789,-0.13894 0.57516,-0.24449 0.83367,-0.41683 0.1635,-0.109 0.24109,-0.32896 0.41684,-0.41684 0.12428,-0.0621 0.29256,0.0621 0.41684,0 0.17575,-0.0879 0.24108,-0.32896 0.41684,-0.41684 0.12427,-0.0621 0.29256,0.0621 0.41683,0 0.17576,-0.0879 0.24109,-0.32896 0.41684,-0.41684 0.12428,-0.0621 0.29256,0.0621 0.41684,0 0.17575,-0.0879 0.24108,-0.32896 0.41684,-0.41683 0.12427,-0.0621 0.29256,0.0621 0.41684,0 0.3515,-0.17576 0.46084,-0.7094 0.83367,-0.83368 0.26363,-0.0879 0.57005,0.0879 0.83368,0 0.37283,-0.12428 0.48216,-0.65792 0.83367,-0.83368 0.12428,-0.0621 0.29256,0.0621 0.41684,0 0.35151,-0.17575 0.48217,-0.65792 0.83368,-0.83367 0.12427,-0.0621 0.29256,0.0621 0.41683,0 0.17576,-0.0879 0.24109,-0.32896 0.41684,-0.41684 0.12428,-0.0621 0.31859,0.0983 0.41684,0 0.0983,-0.0983 -0.0982,-0.31859 0,-0.41684 0.0983,-0.0983 0.31859,0.0982 0.41684,0 0.0983,-0.0983 -0.0983,-0.31858 0,-0.41683 0.0983,-0.0983 0.29256,0.0621 0.41683,0 0.35151,-0.17576 0.48217,-0.65793 0.83368,-0.83368 0.12428,-0.0621 0.31859,0.0983 0.41684,0 0,-1.11157 -0.13895,0.13895 0.41684,-0.41684 0.0983,-0.0983 -0.0983,-0.31859 0,-0.41684 0.0983,-0.0982 0.29256,0.0621 0.41683,0 0.17576,-0.0879 0.24109,-0.32896 0.41684,-0.41683 0.24856,-0.12428 0.58512,0.12427 0.83368,0 0.17575,-0.0879 0.24108,-0.32896 0.41683,-0.41684 0.12428,-0.0621 0.29257,0.0621 0.41684,0 0.17576,-0.0879 0.24109,-0.32896 0.41684,-0.41684 0.24855,-0.12428 0.63718,0.1965 0.83368,0 0.0982,-0.0983 -0.0983,-0.31859 0,-0.41684 0.19649,-0.1965 0.58512,0.12428 0.83367,0 0.17576,-0.0879 0.24108,-0.32896 0.41684,-0.41683 0.24855,-0.12428 0.58512,0.12427 0.83367,0 0.17576,-0.0879 0.24109,-0.32896 0.41684,-0.41684 0.24856,-0.12428 0.58512,0.12428 0.83368,0 0.17575,-0.0879 0.24108,-0.32896 0.41684,-0.41684 0.33347,-0.16673 0.91704,0.16674 1.25051,0 0.17575,-0.0879 0.24108,-0.32896 0.41684,-0.41684 0.33347,-0.16673 0.91704,0.16674 1.25051,0 0.17575,-0.0879 0.24108,-0.32896 0.41684,-0.41684 0.12427,-0.0621 0.27789,0 0.41684,0 0.13894,0 0.27789,0 0.41683,0 0.69473,0 1.38946,0 2.08419,0 0.13895,0 0.29256,0.0621 0.41684,0 0.17575,-0.0879 0.24108,-0.32896 0.41684,-0.41683 0.15074,-0.0754 1.79426,0 2.08419,0 0.29545,0 2.39325,-0.0539 2.50102,0 0.17576,0.0879 0.24109,0.32896 0.41684,0.41683 0.25311,0.12656 2.24791,-0.12655 2.50103,0 0.17575,0.0879 0.24108,0.32897 0.41684,0.41684 0.26297,0.13149 1.82121,-0.13148 2.08418,0 0.17576,0.0879 0.24109,0.32896 0.41684,0.41684 0.44522,0.22261 0.38846,-0.22261 0.83368,0 0.17575,0.0879 0.24108,0.32896 0.41684,0.41684 0.33347,0.16673 0.91704,-0.16674 1.25051,0 0.17575,0.0879 0.24108,0.32896 0.41684,0.41684 0.12427,0.0621 0.29256,-0.0621 0.41683,0 0.17576,0.0879 0.24109,0.32896 0.41684,0.41683 0.24856,0.12428 0.58512,-0.12427 0.83368,0 0.17575,0.0879 0.24108,0.32896 0.41684,0.41684 0.12427,0.0621 0.29256,-0.0621 0.41683,0 0.17576,0.0879 0.2779,0.27789 0.41684,0.41684 0.13895,0.13895 0.24109,0.32896 0.41684,0.41684 0.12428,0.0621 0.31859,-0.0983 0.41684,0 0.0983,0.0983 -0.0983,0.31859 0,0.41683 0.1965,0.1965 0.58512,-0.12427 0.83367,0 0.17576,0.0879 0.27789,0.2779 0.41684,0.41684 0.13895,0.13895 0.32896,0.24109 0.41684,0.41684 0.0621,0.12428 -0.0982,0.31859 0,0.41684 0.0983,0.0983 0.31859,-0.0983 0.41684,0 0,1.11157 -0.13895,-0.13895 0.41683,0.41684 0.0983,0.0983 -0.0983,0.31858 0,0.41683 0.0983,0.0982 0.31859,-0.0983 0.41684,0 0.0852,0.0852 -0.0826,1.08524 0,1.25052 0.0879,0.17575 0.32896,0.24108 0.41684,0.41683 0.0621,0.12428 -0.0982,0.31859 0,0.41684 0.0983,0.0983 0.31859,-0.0983 0.41684,0 0.1965,0.1965 -0.1965,0.63718 0,0.83368 0.0983,0.0983 0.31859,-0.0983 0.41683,0 0.0983,0.0983 -0.0621,0.29256 0,0.41684 0.17576,0.3515 0.65793,0.48216 0.83368,0.83367 0.0621,0.12428 -0.0982,0.31859 0,0.41684 0.0983,0.0983 0.31859,-0.0983 0.41684,0 0.0983,0.0983 -0.0983,0.31859 0,0.41684 0.0983,0.0983 0.31859,-0.0983 0.41684,0 0.0983,0.0983 -0.0621,0.29256 0,0.41683 0.0879,0.17576 0.32896,0.24109 0.41683,0.41684 0.0621,0.12428 -0.0621,0.29256 0,0.41684 0.0879,0.17575 0.32896,0.24108 0.41684,0.41684 0.0621,0.12428 -0.0982,0.31859 0,0.41684 0.0983,0.0983 0.29256,-0.0621 0.41684,0 0.22263,0.11131 1.03106,1.03106 1.25051,1.25051 0.21945,0.21945 1.1392,1.02789 1.25052,1.25051 0.0621,0.12428 -0.0983,0.31859 0,0.41684 0.0982,0.0983 0.31858,-0.0983 0.41683,0 0.1965,0.1965 -0.1965,0.63718 0,0.83368 0.0983,0.0983 0.31859,-0.0983 0.41684,0 0.0983,0.0983 -0.0621,0.29256 0,0.41683 0.20509,0.41018 1.46226,1.25717 1.66735,1.66735 0.0621,0.12428 -0.0983,0.31859 0,0.41684 0.0983,0.0983 0.31859,-0.0983 0.41684,0 0.0983,0.0983 -0.0983,0.31859 0,0.41684 0.86245,0.86245 -0.0337,-1.31794 0.83368,0.41684 0.0621,0.12428 -0.0983,0.31859 0,0.41684 0.0983,0.0983 0.29256,-0.0621 0.41683,0 0.17576,0.0879 0.2779,0.27789 0.41684,0.41683 0.13895,0.13895 0.32896,0.24109 0.41684,0.41684 0.12428,0.24856 -0.1965,0.63718 0,0.83368 0.0982,0.0983 0.31859,-0.0983 0.41684,0 0.0168,0.0168 0,1.51427 0,1.66735 0,0.97262 0,1.94524 0,2.91786 0,0.18773 0.0634,1.12366 0,1.25052 -0.0879,0.17575 -0.32896,0.24108 -0.41684,0.41683 -0.12428,0.24856 0.12428,0.58513 0,0.83368 -0.0879,0.17575 -0.32896,0.24108 -0.41684,0.41684 -0.0621,0.12427 0,0.27789 0,0.41684 0,0.13894 0,0.27789 0,0.41683 0,0.15308 0.0168,1.65058 0,1.66735 -0.0983,0.0983 -0.31859,-0.0983 -0.41684,0 -0.20842,0.20842 0.20842,1.0421 0,1.25052 -0.0983,0.0983 -0.31858,-0.0982 -0.41683,0 -0.1965,0.1965 0.1965,0.63717 0,0.83367 -0.0983,0.0983 -0.31859,-0.0983 -0.41684,0 -0.1965,0.1965 0.1965,0.63718 0,0.83368 -0.0983,0.0983 -0.31859,-0.0983 -0.41684,0 -0.1965,0.1965 0.12428,0.58512 0,0.83367 -1.38248,1.38248 0.1965,-0.39299 -0.41684,0.83368 -0.0879,0.17575 -0.32896,0.24108 -0.41684,0.41684 -0.12427,0.24855 0.12428,0.58512 0,0.83367 -0.0879,0.17576 -0.32896,0.24109 -0.41683,0.41684 -0.12428,0.24855 0.12427,0.58512 0,0.83368 -0.17576,0.3515 -0.65792,0.48216 -0.83368,0.83367 -0.0621,0.12428 0.0621,0.29256 0,0.41684 -1.38248,1.38248 0.1965,-0.393 -0.41684,0.83368 -0.0879,0.17575 -0.32896,0.24108 -0.41683,0.41683 -0.0621,0.12428 0.0621,0.29256 0,0.41684 -0.0879,0.17575 -0.32896,0.24108 -0.41684,0.41684 -0.0621,0.12428 0.0621,0.29256 0,0.41684 -0.17576,0.3515 -0.65792,0.48216 -0.83368,0.83367 -0.0621,0.12428 0.0621,0.29256 0,0.41684 -0.0879,0.17575 -0.32896,0.24108 -0.41684,0.41684 -0.0621,0.12427 0.0621,0.29256 0,0.41684 -0.0879,0.17575 -0.32896,0.24108 -0.41683,0.41683 -0.12428,0.24856 0.12427,0.58512 0,0.83368 -0.0879,0.17575 -0.32896,0.24108 -0.41684,0.41684 -0.12428,0.24855 0.12428,0.58512 0,0.83367 -0.0879,0.17576 -0.32896,0.24109 -0.41684,0.41684 -0.12428,0.24855 0.12428,0.58512 0,0.83368 -0.0879,0.17575 -0.32896,0.24108 -0.41684,0.41683 -0.12427,0.24856 0.12428,0.58512 0,0.83368 -0.0879,0.17575 -0.32896,0.24108 -0.41683,0.41684 -0.0826,0.16527 0.0852,1.16529 0,1.25051 -0.0983,0.0983 -0.31859,-0.0983 -0.41684,0 -0.20842,0.20842 0.20842,1.04209 0,1.25051 -0.0983,0.0983 -0.31859,-0.0983 -0.41684,0 -0.1003,0.10031 0.1003,1.56705 0,1.66735 -0.0982,0.0983 -0.31859,-0.0983 -0.41684,0 -0.0134,0.0134 0,1.14942 0,1.25052 0,0.13894 0,0.27789 0,0.41684 0,0.13894 0.0983,0.31858 0,0.41683 -0.0983,0.0983 -0.31859,-0.0983 -0.41684,0 -0.14631,0.14632 0.14397,1.79627 0,2.08419 -0.0879,0.17576 -0.32896,0.24109 -0.41683,0.41684 -0.11307,0.22613 0.11405,1.55329 0,1.66735 -0.0983,0.0983 -0.31859,-0.0983 -0.41684,0 -0.20842,0.20842 0.20842,1.0421 0,1.25051 -0.0982,0.0982 -0.31859,-0.0983 -0.41684,0 -0.1965,0.1965 0.12428,0.58513 0,0.83368 -0.0879,0.17575 -0.32896,0.24108 -0.41684,0.41684 -0.12427,0.24855 0.12428,0.58512 0,0.83367 -0.0879,0.17576 -0.32896,0.24109 -0.41683,0.41684 -0.12428,0.24855 0.12427,0.58512 0,0.83368 -0.0879,0.17575 -0.32896,0.24108 -0.41684,0.41683 -0.16674,0.33347 0.16673,0.91705 0,1.25052 -0.0879,0.17575 -0.32896,0.24108 -0.41684,0.41684 -0.16673,0.33347 0.16674,0.91704 0,1.25051 -0.0879,0.17575 -0.32896,0.24108 -0.41684,0.41684 -0.11306,0.22613 0.11406,1.55329 0,1.66735 -0.0983,0.0983 -0.31859,-0.0982 -0.41684,0 -0.0168,0.0168 0,1.51427 0,1.66735 0,0.97756 0.0983,-0.1965 -0.41683,0.83367 -0.0621,0.12428 0,0.2779 0,0.41684 0,0.13895 0,0.27789 0,0.41684 0,0.69473 0,1.38946 0,2.08419 0,0.13894 0,0.27789 0,0.41684 0,0.13894 0.0621,0.29256 0,0.41683 -0.0879,0.17576 -0.32896,0.24109 -0.41684,0.41684 -0.131,0.26199 0.131,1.40536 0,1.66735 -0.0879,0.17576 -0.32896,0.24109 -0.41684,0.41684 -0.12428,0.24856 0.12428,0.58512 0,0.83368 -0.0879,0.17575 -0.32896,0.24108 -0.41684,0.41683 -0.12427,0.24856 0.12428,0.58513 0,0.83368 -0.0879,0.17575 -0.32896,0.24108 -0.41683,0.41684 -0.0826,0.16527 0.0852,1.16529 0,1.25051 -0.0983,0.0983 -0.31859,-0.0983 -0.41684,0 -0.0168,0.0168 0,1.51427 0,1.66735 0,0.15308 -0.0168,1.65058 0,1.66735 0.0983,0.0983 0.31859,-0.0983 0.41684,0 0.11405,0.11406 -0.11307,1.44123 0,1.66735 0.0879,0.17576 0.32896,0.24109 0.41683,0.41684 0.0621,0.12428 0,0.27789 0,0.41684 0,0.13895 0,0.27789 0,0.41684 0,0.69473 0,1.38946 0,2.08419 0,0.21797 0.0548,1.55774 0,1.66735 -0.0879,0.17575 -0.32896,0.24108 -0.41683,0.41684 -0.0634,0.12685 0,1.06278 0,1.25051 0,0.13894 -0.0983,0.31859 0,0.41684 0.0983,0.0983 0.31858,-0.0983 0.41683,0 0.0983,0.0983 0,0.27789 0,0.41683 0,0.13895 0,0.2779 0,0.41684 0,0.83368 0,1.66735 0,2.50103 0,0.13895 0,0.27789 0,0.41684 0,0.13894 -0.0621,0.29256 0,0.41683 0.0879,0.17576 0.32896,0.24109 0.41684,0.41684 0.0539,0.10778 0,2.20557 0,2.50103 0,0.28993 0.0754,1.93345 0,2.08419 -0.0879,0.17575 -0.32896,0.24108 -0.41684,0.41684 -0.16673,0.33347 0.16674,0.91704 0,1.25051 -0.0879,0.17575 -0.32896,0.24108 -0.41683,0.41684 -0.12428,0.24855 0.12427,0.58512 0,0.83367 -0.0879,0.17576 -0.32896,0.24109 -0.41684,0.41684 -0.131,0.26199 0.13099,1.40536 0,1.66735 -0.0879,0.17576 -0.32896,0.24108 -0.41684,0.41684 -0.12428,0.24855 0.12428,0.58512 0,0.83367 -0.0879,0.17576 -0.32896,0.24109 -0.41684,0.41684 -0.16673,0.33347 0.16674,0.91705 0,1.25052 -0.0879,0.17575 -0.32896,0.24108 -0.41684,0.41683 -0.12427,0.24856 0.12428,0.58513 0,0.83368 -0.0879,0.17575 -0.35469,0.23042 -0.41683,0.41684 -0.0879,0.26363 0,0.55578 0,0.83367 0,0.13895 0.0621,0.29256 0,0.41684 -1.38248,1.38248 0.1965,-0.393 -0.41684,0.83368 -0.0879,0.17575 -0.32896,0.24108 -0.41684,0.41683 -0.0621,0.12428 0.0621,0.29256 0,0.41684 -0.0879,0.17576 -0.3547,0.23042 -0.41684,0.41684 -0.0879,0.26363 0.0879,0.57004 0,0.83367 -0.0621,0.18642 -0.32896,0.24109 -0.41683,0.41684 -0.12428,0.24856 0.0879,0.57005 0,0.83368 -0.0983,0.29475 -0.31859,0.53892 -0.41684,0.83367 -0.0439,0.13182 0.0439,0.28503 0,0.41684 -0.0983,0.29475 -0.31859,0.53893 -0.41684,0.83368 -0.0879,0.26363 0.0879,0.57004 0,0.83367 -0.0983,0.29475 -0.31859,0.53893 -0.41684,0.83368 -0.12505,0.37515 0.12505,0.87536 0,1.25051 -0.0621,0.18642 -0.32896,0.24109 -0.41684,0.41684 -0.12427,0.24855 0.12428,0.58512 0,0.83367 -0.0879,0.17576 -0.32896,0.24109 -0.41683,0.41684 -0.131,0.26199 0.13099,1.40536 0,1.66735 -0.0879,0.17576 -0.32896,0.24109 -0.41684,0.41684 -0.0548,0.10961 0,1.44938 0,1.66735 0,1.52841 0,3.05681 0,4.58522 0,0.18772 0.0634,1.12365 0,1.25051 -0.0879,0.17576 -0.32896,0.24109 -0.41684,0.41684 -0.0754,0.15074 0,1.79426 0,2.08419 0,0.13894 0.0983,0.31859 0,0.41684 -0.0983,0.0983 -0.31859,-0.0983 -0.41684,0 -0.0189,0.0189 0,1.88765 0,2.08419 0,0.13894 0.0983,0.31858 0,0.41683 -0.0982,0.0983 -0.31858,-0.0983 -0.41683,0 -0.0983,0.0983 0,0.27789 0,0.41684 0,0.13895 0,0.27789 0,0.41684 0,0.83367 0,1.66735 0,2.50103 0,0.13894 0.0982,0.31858 0,0.41683 -0.0983,0.0983 -0.31859,-0.0983 -0.41684,0 -0.20842,0.20842 0.20842,1.0421 0,1.25052 -0.0983,0.0983 -0.31859,-0.0983 -0.41684,0 -0.20842,0.20842 0.20842,1.04209 0,1.25051 -0.0983,0.0983 -0.31859,-0.0983 -0.41684,0 -0.0852,0.0852 0.0826,1.08524 0,1.25051 -0.0879,0.17576 -0.32896,0.24109 -0.41684,0.41684 -0.22325,0.44651 0.22326,0.38716 0,0.83368 -0.0879,0.17575 -0.32896,0.24108 -0.41683,0.41683 -0.12428,0.24856 0.12427,0.58513 0,0.83368 -0.0879,0.17575 -0.32896,0.24108 -0.41684,0.41684 -0.131,0.26199 0.131,1.40536 0,1.66735 -0.0879,0.17575 -0.32896,0.24108 -0.41684,0.41684 -0.0539,0.10777 0,2.20557 0,2.50102 0,0.13895 0.0621,0.29256 0,0.41684 -0.51509,1.03018 -0.41684,-0.14388 -0.41684,0.83368 0,0.18772 0.0634,1.12365 0,1.25051 -0.0879,0.17575 -0.32896,0.24108 -0.41683,0.41684 -0.16674,0.33347 0.16673,0.91704 0,1.25051 -0.0879,0.17576 -0.32896,0.24108 -0.41684,0.41684 -0.12656,0.25311 0.12655,2.24791 0,2.50103 -0.0879,0.17575 -0.32896,0.24108 -0.41684,0.41683 -0.14396,0.28793 0.14632,1.93787 0,2.08419 -0.0982,0.0983 -0.31859,-0.0983 -0.41684,0 -0.1003,0.10031 0.10031,1.56705 0,1.66735 -0.0983,0.0983 -0.31859,-0.0983 -0.41684,0 -0.1003,0.10031 0.10031,1.56705 0,1.66735 -0.0982,0.0983 -0.31858,-0.0983 -0.41683,0 -0.1965,0.1965 0.12427,0.58513 0,0.83368 -0.0879,0.17575 -0.32896,0.24108 -0.41684,0.41684 -0.12428,0.24855 0.12428,0.58512 0,0.83367 -0.0879,0.17576 -0.32896,0.24109 -0.41684,0.41684 -0.16673,0.33347 0.16674,0.91704 0,1.25051 -0.0879,0.17576 -0.32896,0.24109 -0.41684,0.41684 -0.16673,0.33347 0.16674,0.91705 0,1.25052 -0.0879,0.17575 -0.32896,0.24108 -0.41683,0.41683 -0.12428,0.24856 0.19649,0.63718 0,0.83368 -0.0983,0.0983 -0.31859,-0.0983 -0.41684,0 -0.0983,0.0983 0.0621,0.29256 0,0.41684 -0.0879,0.17575 -0.32896,0.24108 -0.41684,0.41683 -0.0621,0.12428 0.0983,0.31859 0,0.41684 -0.0983,0.0983 -0.31859,-0.0983 -0.41684,0 -0.0983,0.0983 0.0621,0.29256 0,0.41684 -0.0553,0.11067 -1.13984,1.19518 -1.25051,1.25051 -0.12428,0.0621 -0.31859,-0.0983 -0.41684,0 -0.0983,0.0983 0.0982,0.31859 0,0.41684 -0.1965,0.1965 -0.58512,-0.12428 -0.83367,0 -1.38248,1.38248 0.39299,-0.1965 -0.83368,0.41684 -0.17575,0.0879 -0.24108,0.32896 -0.41684,0.41684 -0.24855,0.12427 -0.63717,-0.1965 -0.83367,0 -0.0983,0.0983 0.0983,0.31858 0,0.41683 -0.0983,0.0983 -0.31859,-0.0983 -0.41684,0 -0.0983,0.0983 0.0982,0.31859 0,0.41684 -0.0983,0.0983 -0.29256,-0.0621 -0.41684,0 -0.17575,0.0879 -0.24108,0.32896 -0.41684,0.41684 -0.12427,0.0621 -0.31858,-0.0983 -0.41683,0 -0.0983,0.0983 0.0983,0.31859 0,0.41684 -0.20842,0.20842 -1.0421,-0.20842 -1.25052,0 -0.0983,0.0983 0.0983,0.31859 0,0.41684 -0.0983,0.0983 -0.27789,0 -0.41684,0 -0.13894,0 -0.27789,0 -0.41683,0 -1.66735,0 -3.33471,0 -5.00206,0 -0.13894,0 -0.27789,0 -0.41683,0 -0.13895,0 -0.31859,0.0983 -0.41684,0 -0.0983,-0.0983 0.0983,-0.31859 0,-0.41684 -0.12907,-0.12907 -1.95512,0.12907 -2.08419,0 -0.0982,-0.0983 0.0983,-0.31859 0,-0.41684 -0.11406,-0.11406 -1.44122,0.11306 -1.66735,0 -0.17576,-0.0879 -0.24109,-0.32896 -0.41684,-0.41684 -0.22613,-0.11306 -1.5533,0.11406 -1.66735,0 -0.0983,-0.0983 0.0983,-0.31859 0,-0.41684 -0.0852,-0.0852 -1.08524,0.0826 -1.25051,0 -0.17576,-0.0879 -0.24109,-0.32896 -0.41684,-0.41683 -0.33347,-0.16674 -0.91705,0.16673 -1.25052,0 -0.17575,-0.0879 -0.24108,-0.32896 -0.41683,-0.41684 -0.26297,-0.13149 -1.82122,0.13148 -2.08419,0 -0.17576,-0.0879 -0.24109,-0.32896 -0.41684,-0.41684 -0.1096,-0.0548 -1.44938,0 -1.66735,0 -0.97262,0 -1.94524,0 -2.91787,0 -0.13894,0 -0.31858,-0.0983 -0.41683,0 -0.0983,0.0983 0.0983,0.31859 0,0.41684 -0.0134,0.0134 -1.14942,0 -1.25052,0 -0.97756,0 0.1965,-0.0983 -0.83367,0.41684 -0.12428,0.0621 -0.27789,0 -0.41684,0 -0.13895,0 -0.27789,0 -0.41684,0 -0.83367,0 -1.66735,0 -2.50102,0 -0.13895,0 -0.2779,0 -0.41684,0 -0.13895,0 -0.31859,0.0983 -0.41684,0 -0.0983,-0.0982 0.0983,-0.31859 0,-0.41684 -0.0983,-0.0983 -0.27789,0 -0.41684,0 -0.69473,0 -1.38946,0 -2.08419,0 -0.13894,0 -0.31859,0.0983 -0.41683,0 -0.0983,-0.0983 0.0982,-0.31859 0,-0.41684 -0.0983,-0.0983 -0.2779,0 -0.41684,0 -0.83368,0 -1.66735,0 -2.50103,0 -0.13895,0 -0.31859,0.0983 -0.41684,0 -0.0983,-0.0983 0.0983,-0.31859 0,-0.41684 -0.0852,-0.0852 -1.08524,0.0826 -1.25051,0 -0.17575,-0.0879 -0.24108,-0.32896 -0.41684,-0.41683 -0.33347,-0.16674 -0.91704,0.16673 -1.25051,0 -0.17576,-0.0879 -0.24108,-0.32897 -0.41684,-0.41684 -0.12428,-0.0621 -0.29256,0.0621 -0.41684,0 -0.17575,-0.0879 -0.24108,-0.32896 -0.41683,-0.41684 -0.24856,-0.12428 -0.63718,0.1965 -0.83368,0 -0.0983,-0.0983 0.0983,-0.31859 0,-0.41684 -0.1965,-0.1965 -0.58512,0.12428 -0.83368,0 -0.17575,-0.0879 -0.24108,-0.32896 -0.41683,-0.41684 -0.16528,-0.0826 -1.1653,0.0852 -1.25052,0 -0.0983,-0.0983 0.0983,-0.31858 0,-0.41683 -0.11405,-0.11406 -1.44122,0.11306 -1.66735,0 -0.17575,-0.0879 -0.24108,-0.32896 -0.41684,-0.41684 -0.26199,-0.131 -1.40536,0.13099 -1.66735,0 -0.17575,-0.0879 -0.24108,-0.32896 -0.41683,-0.41684 -0.10778,-0.0539 -2.20558,0 -2.50103,0 -0.13895,0 -0.27789,0 -0.41684,0 -0.13895,0 -0.31859,0.0983 -0.41684,0 -0.0983,-0.0983 0.0983,-0.31859 0,-0.41684 -0.0983,-0.0983 -0.27789,0 -0.41683,0 -1.11157,0 -2.22314,0 -3.33471,0 -0.13894,0 -0.27789,0 -0.41683,0 -0.13895,0 -0.29257,0.0621 -0.41684,0 -0.17576,-0.0879 -0.24109,-0.32896 -0.41684,-0.41683 -0.15074,-0.0754 -1.79426,0 -2.08419,0 -0.13895,0 -0.27789,0 -0.41684,0 -0.13894,0 -0.31859,-0.0983 -0.41683,0 -0.0983,0.0983 0.0982,0.31858 0,0.41683 -0.11406,0.11406 -1.44123,-0.11306 -1.66736,0 -0.17575,0.0879 -0.24108,0.32896 -0.41683,0.41684 -0.24856,0.12428 -0.63718,-0.1965 -0.83368,0 -0.0982,0.0983 0.0983,0.31859 0,0.41684 -0.1965,0.1965 -0.58512,-0.12428 -0.83367,0 -0.17576,0.0879 -0.24109,0.32896 -0.41684,0.41684 -0.24856,0.12427 -0.57005,-0.0879 -0.83368,0 -0.29475,0.0983 -0.53893,0.31858 -0.83367,0.41683 -0.26364,0.0879 -0.58513,-0.12427 -0.83368,0 -0.17575,0.0879 -0.24108,0.32897 -0.41684,0.41684 -0.89609,0.44805 0.0624,-0.44804 -0.83367,0 -0.17576,0.0879 -0.24109,0.32896 -0.41684,0.41684 -0.12428,0.0621 -0.29256,-0.0621 -0.41684,0 -0.17575,0.0879 -0.24108,0.32896 -0.41684,0.41684 -0.16527,0.0826 -1.16529,-0.0852 -1.25051,0 -0.0983,0.0983 0.0982,0.31859 0,0.41684 -0.0134,0.0134 -1.14942,0 -1.25051,0 -1.25052,0 -2.50103,0 -3.75154,0 -0.13895,0 -0.27789,0 -0.41684,0 -0.13895,0 -0.31859,-0.0983 -0.41684,0 -0.0983,0.0983 0.0983,0.31858 0,0.41683 -0.0134,0.0134 -1.14942,0 -1.25051,0 -1.11157,0 -2.22314,0 -3.3347,0 -0.18773,0 -1.12366,-0.0634 -1.25052,0 -0.17575,0.0879 -0.24108,0.32896 -0.41684,0.41684 -0.15074,0.0754 -1.79426,0 -2.08418,0 -0.13895,0 -0.31859,-0.0983 -0.41684,0 -0.0982,0.0983 0.0983,0.31859 0,0.41684 -0.0982,0.0983 -0.27789,0 -0.41684,0 -0.19654,0 -2.0653,-0.0189 -2.08419,0 -0.0983,0.0983 0.0982,0.31859 0,0.41684 -0.0983,0.0983 -0.27789,0 -0.41684,0 -0.28992,0 -1.93344,-0.0754 -2.08419,0 -0.17575,0.0879 -0.24108,0.32896 -0.41683,0.41683 -0.26297,0.13149 -1.82122,-0.13148 -2.08419,0 -0.17576,0.0879 -0.24109,0.32897 -0.41684,0.41684 -0.12686,0.0634 -1.06279,0 -1.25051,0 -0.97262,0 -1.94525,0 -2.91787,0 -0.15308,0 -1.65057,0.0168 -1.66735,0 -0.0982,-0.0983 0.0983,-0.31859 0,-0.41684 -0.0982,-0.0983 -0.27789,0 -0.41684,0 -0.69473,0 -1.38946,0 -2.08419,0 -0.13894,0 -0.31858,0.0983 -0.41683,0 -0.0983,-0.0983 0.0983,-0.31858 0,-0.41683 -0.11406,-0.11406 -1.44122,0.11306 -1.66735,0 -0.17576,-0.0879 -0.24109,-0.32896 -0.41684,-0.41684 -0.26199,-0.131 -1.40536,0.13099 -1.66735,0 -0.17576,-0.0879 -0.24109,-0.32896 -0.41684,-0.41684 -0.1096,-0.0548 -1.44938,0 -1.66735,0 -1.11157,0 -2.22314,0 -3.3347,0 -0.13895,0 -0.2779,0 -0.41684,0 -0.13895,0 -0.29256,0.0621 -0.41684,0 -0.17575,-0.0879 -0.24108,-0.32896 -0.41684,-0.41684 -0.12686,-0.0634 -1.06278,0 -1.25051,0 -0.83368,0 -1.66735,0 -2.50103,0 -0.18772,0 -1.12365,0.0634 -1.25051,0 -0.17576,-0.0879 -0.24108,-0.32896 -0.41684,-0.41683 -0.22613,-0.11307 -1.55329,0.11405 -1.66735,0 -0.0982,-0.0983 0.0983,-0.31859 0,-0.41684 -0.1965,-0.1965 -0.58512,0.12427 -0.83368,0 -0.17575,-0.0879 -0.24108,-0.32896 -0.41683,-0.41684 -0.12428,-0.0621 -0.31859,0.0983 -0.41684,0 -0.0982,-0.0983 0,-0.27789 0,-0.41684 -0.13895,0 -0.31859,0.0983 -0.41684,0 -0.0983,-0.0983 0.0983,-0.31859 0,-0.41684 -0.0983,-0.0983 -0.31859,0.0983 -0.41684,0 -0.1965,-0.19649 0.1965,-0.63717 0,-0.83367 -0.0983,-0.0983 -0.31858,0.0983 -0.41683,0 -0.1965,-0.1965 0.19649,-0.63718 0,-0.83368 -0.0983,-0.0983 -0.31859,0.0983 -0.41684,0 -0.0852,-0.0852 0.0826,-1.08524 0,-1.25051 -0.0879,-0.17575 -0.32896,-0.24108 -0.41684,-0.41684 -0.11306,-0.22613 0.11406,-1.55329 0,-1.66735 -0.0983,-0.0983 -0.31859,0.0983 -0.41684,0 -0.0983,-0.0983 0,-0.27789 0,-0.41684 0,-0.29545 0.0539,-2.39325 0,-2.50102 -0.0879,-0.17576 -0.32896,-0.24109 -0.41684,-0.41684 -0.0539,-0.10777 0,-2.20557 0,-2.50103 0,-0.13894 0.0621,-0.29256 0,-0.41684 -0.0879,-0.17575 -0.32896,-0.24108 -0.41683,-0.41683 -0.0548,-0.10961 0,-1.44938 0,-1.66735 0,-1.52841 0,-3.05682 0,-4.58522 0,-1.8063 0,-3.61259 0,-5.41889 0,-0.28993 -0.0754,-1.93345 0,-2.08419 0.0879,-0.17575 0.32896,-0.24108 0.41683,-0.41684 0.13149,-0.26297 -0.13148,-1.82122 0,-2.08419 0.0879,-0.17575 0.32897,-0.24108 0.41684,-0.41683 0.16674,-0.33348 -0.16673,-0.91705 0,-1.25052 0.0879,-0.17575 0.32896,-0.24108 0.41684,-0.41684 0.12428,-0.24855 -0.1965,-0.63717 0,-0.83367 0.0983,-0.0982 0.31859,0.0983 0.41684,0 0.1965,-0.1965 -0.1965,-0.63718 0,-0.83368 0.0983,-0.0983 0.31859,0.0983 0.41684,0 0.86245,-0.86245 -1.31795,0.0337 0.41683,-0.83367 0.12428,-0.0621 0.29256,0.0621 0.41684,0 0.17576,-0.0879 0.27789,-0.27789 0.41684,-0.41684 0.13894,-0.13895 0.27789,-0.27789 0.41684,-0.41684 0.21945,-0.21945 1.02788,-1.1392 1.25051,-1.25051 0.12428,-0.0621 0.29256,0.0621 0.41684,0 1.38247,-1.38248 -0.393,0.1965 0.83367,-0.41684 1.03018,-0.51509 -0.14388,-0.41684 0.83368,-0.41684 1.11157,0 -0.13895,0.13895 0.41684,-0.41683 0.1965,-0.1965 0.58512,0.12427 0.83367,0 0.17576,-0.0879 0.24109,-0.32897 0.41684,-0.41684 0.12428,-0.0621 0.29256,0.0621 0.41684,0 0.17575,-0.0879 0.24108,-0.32896 0.41684,-0.41684 0.12427,-0.0621 0.29256,0.0621 0.41683,0 0.17576,-0.0879 0.24109,-0.32896 0.41684,-0.41684 0.44522,-0.22261 0.38846,0.22261 0.83368,0 0.17575,-0.0879 0.24108,-0.32896 0.41683,-0.41684 0.24856,-0.12427 0.58513,0.12428 0.83368,0 0.17575,-0.0879 0.24108,-0.32896 0.41684,-0.41683 0.33347,-0.16674 0.91704,0.16673 1.25051,0 0.17576,-0.0879 0.24108,-0.32896 0.41684,-0.41684 0.26199,-0.131 1.40536,0.13099 1.66735,0 0.17575,-0.0879 0.24108,-0.32896 0.41684,-0.41684 0.26199,-0.131 1.40536,0.131 1.66735,0 0.17575,-0.0879 0.24108,-0.32896 0.41684,-0.41684 0.10777,-0.0539 2.20557,0 2.50102,0 1.38946,0 2.77892,0 4.16838,0 0.13895,0 0.27789,0 0.41684,0 0.13895,0 0.31859,-0.0983 0.41684,0 0.0983,0.0983 -0.0983,0.31859 0,0.41684 0.0983,0.0983 0.27789,0 0.41683,0 0.13895,0 0.2779,0 0.41684,0 1.11157,0 2.22314,0 3.3347,0 0.18773,0 1.12366,0.0634 1.25052,0 0.17575,-0.0879 0.24108,-0.32896 0.41684,-0.41684 0.24855,-0.12427 0.58512,0.12428 0.83367,0 0.17576,-0.0879 0.24108,-0.32896 0.41684,-0.41683 0.33347,-0.16674 0.91704,0.16673 1.25051,0 0.17576,-0.0879 0.24109,-0.32897 0.41684,-0.41684 0.33347,-0.16674 0.91704,0.16673 1.25051,0 0.17576,-0.0879 0.24109,-0.32896 0.41684,-0.41684 0.12428,-0.0621 0.27789,0 0.41684,0 0.13895,0 0.27789,0 0.41684,0 0.69473,0 1.38946,0 2.08419,0 0.15307,0 1.65057,-0.0168 1.66735,0 0.0983,0.0983 -0.0983,0.31859 0,0.41684 0.0852,0.0852 1.08524,-0.0826 1.25051,0 0.17575,0.0879 0.24108,0.32896 0.41684,0.41684 0.22613,0.11306 1.55329,-0.11406 1.66735,0 0.0983,0.0982 -0.0983,0.31858 0,0.41683 0.1965,0.1965 0.58512,-0.12427 0.83367,0 0.17576,0.0879 0.24109,0.32896 0.41684,0.41684 0.12428,0.0621 0.31859,-0.0983 0.41684,0 0.0983,0.0983 -0.0983,0.31859 0,0.41684 0.1965,0.1965 0.63718,-0.1965 0.83368,0 0.0982,0.0983 -0.0983,0.31859 0,0.41684 0.0982,0.0983 0.29256,-0.0621 0.41683,0 0.17576,0.0879 0.24109,0.32896 0.41684,0.41683 0.24856,0.12428 0.58512,-0.12427 0.83368,0 0.17575,0.0879 0.24108,0.32896 0.41683,0.41684 0.24856,0.12428 0.63718,-0.1965 0.83368,0 0.0983,0.0983 -0.0983,0.31859 0,0.41684 0.1003,0.1003 1.56705,-0.1003 1.66735,0 0.0983,0.0983 -0.0983,0.31859 0,0.41684 0.1965,0.1965 0.63718,-0.1965 0.83368,0 0.0983,0.0983 -0.0983,0.31859 0,0.41684 0.0983,0.0982 0.27789,0 0.41683,0 0.13895,0 0.2779,0 0.41684,0 1.38946,0 2.77892,0 4.16838,0 2.63997,0 5.27995,0 7.91992,0 1.5284,0 3.05681,0 4.58521,0 0.21798,0 1.55775,-0.0548 1.66736,0 0.17575,0.0879 0.24108,0.32896 0.41683,0.41683 0.12428,0.0621 0.27789,0 0.41684,0 0.17535,0 2.37703,-0.062 2.50103,0 0.17575,0.0879 0.24108,0.32896 0.41684,0.41684 0.33347,0.16674 0.91704,-0.16673 1.25051,0 0.17575,0.0879 0.24108,0.32896 0.41684,0.41684 0.12427,0.0621 0.29256,-0.0621 0.41683,0 0.17576,0.0879 0.24109,0.32896 0.41684,0.41684 0.12428,0.0621 0.29256,-0.0621 0.41684,0 0.98715,0.49357 -0.15347,0.3401 0.83368,0.83367 0.44521,0.22261 0.38845,-0.22261 0.83367,0 0.17576,0.0879 0.24108,0.32896 0.41684,0.41684 0.33347,0.16673 0.91704,-0.16674 1.25051,0 0.17576,0.0879 0.24109,0.32896 0.41684,0.41684 0.26199,0.13099 1.40536,-0.131 1.66735,0 0.17576,0.0879 0.24108,0.32896 0.41684,0.41684 0.15074,0.0754 1.79426,0 2.08419,0 1.11156,0 2.22313,0 3.3347,0 0.18773,0 1.12366,-0.0634 1.25051,0 0.17576,0.0879 0.24109,0.32896 0.41684,0.41683 0.33347,0.16674 0.91704,-0.16673 1.25051,0 0.17576,0.0879 0.24109,0.32896 0.41684,0.41684 0.24856,0.12428 0.58512,-0.12428 0.83368,0 0.17575,0.0879 0.24108,0.32896 0.41684,0.41684 0.24855,0.12428 0.63717,-0.1965 0.83367,0 0.0983,0.0983 -0.0983,0.31859 0,0.41684 0.0983,0.0983 0.29256,-0.0621 0.41684,0 0.17575,0.0879 0.24108,0.32896 0.41684,0.41683 0.12427,0.0621 0.29256,-0.0621 0.41683,0 1.38248,1.38248 -0.39299,-0.1965 0.83368,0.41684 0.17575,0.0879 0.24108,0.32896 0.41684,0.41684 0.12427,0.0621 0.29256,-0.0621 0.41684,0 0.17575,0.0879 0.24108,0.32896 0.41683,0.41684 0.24856,0.12427 0.58512,-0.12428 0.83368,0 0.17575,0.0879 0.24108,0.32896 0.41684,0.41684 0.12427,0.0621 0.29256,-0.0621 0.41683,0 0.17576,0.0879 0.24109,0.32896 0.41684,0.41683 0.24856,0.12428 0.58512,-0.12427 0.83368,0 0.17575,0.0879 0.24108,0.32896 0.41684,0.41684 0.33347,0.16674 0.91704,-0.16673 1.25051,0 0.17575,0.0879 0.24108,0.32896 0.41684,0.41684 0.12685,0.0634 1.06278,0 1.25051,0 0.69473,0 1.38946,0 2.08419,0 0.13894,0 0.27789,0 0.41684,0 0.13894,0 0.29256,0.0621 0.41683,0 0.17576,-0.0879 0.24109,-0.32896 0.41684,-0.41684 0.12428,-0.0621 0.27789,0 0.41684,0 0.13895,0 0.27789,0 0.41684,0 0.69473,0 1.38946,0 2.08419,0 2.36208,0 4.72416,0 7.08624,0 1.11157,0 2.22313,0 3.3347,0 0.21797,0 1.55775,-0.0548 1.66735,0 0.17576,0.0879 0.24109,0.32896 0.41684,0.41684 0.25311,0.12656 2.24791,-0.12656 2.50103,0 0.17575,0.0879 0.24108,0.32896 0.41683,0.41684 0.33347,0.16673 0.91705,-0.16674 1.25052,0 0.17575,0.0879 0.24108,0.32896 0.41684,0.41683 0.10777,0.0539 2.20557,0 2.50102,0 0.1011,0 1.23711,0.0134 1.25052,0 0.0983,-0.0983 -0.0983,-0.31858 0,-0.41683 0.19649,-0.1965 0.58512,0.12427 0.83367,0 0.17576,-0.0879 0.24108,-0.32896 0.41684,-0.41684 0.24855,-0.12428 0.58512,0.12428 0.83367,0 0.17576,-0.0879 0.24109,-0.32896 0.41684,-0.41684 0.12428,-0.0621 0.31859,0.0982 0.41684,0 0.0983,-0.0983 -0.0982,-0.31859 0,-0.41684 0.0983,-0.0983 0.31859,0.0983 0.41684,0 0.0983,-0.0983 -0.0983,-0.31859 0,-0.41683 0.0983,-0.0983 0.29256,0.0621 0.41684,0 0.17575,-0.0879 0.24108,-0.32897 0.41683,-0.41684 0.12428,-0.0621 0.31859,0.0983 0.41684,0 0.0983,-0.0983 -0.0982,-0.31859 0,-0.41684 0.0983,-0.0983 0.31859,0.0983 0.41684,0 0.0983,-0.0983 -0.0983,-0.31859 0,-0.41684 0.0983,-0.0983 0.31859,0.0983 0.41684,0 0.0983,-0.0983 -0.0983,-0.31859 0,-0.41684 0.86245,-0.86245 -0.0337,1.31795 0.83367,-0.41683 0.0621,-0.12428 -0.0982,-0.31859 0,-0.41684 0.0983,-0.0982 0.31859,0.0983 0.41684,0 0.1965,-0.1965 -0.1965,-0.63718 0,-0.83368 0.0983,-0.0983 0.31859,0.0983 0.41684,0 0.0983,-0.0983 -0.0621,-0.29256 0,-0.41683 0.0879,-0.17576 0.32896,-0.24109 0.41684,-0.41684 0.0621,-0.12428 -0.0621,-0.29256 0,-0.41684 0.0879,-0.17575 0.32896,-0.24108 0.41683,-0.41684 0.0621,-0.12428 -0.0621,-0.29256 0,-0.41684 0.0879,-0.17575 0.32896,-0.24108 0.41684,-0.41683 0.0621,-0.12428 -0.0983,-0.31859 0,-0.41684 0.0983,-0.0983 0.31859,0.0983 0.41684,0 0.20842,-0.20842 -0.20842,-1.0421 0,-1.25051 0.0983,-0.0983 0.31859,0.0982 0.41684,0 0.1003,-0.10031 -0.10031,-1.56705 0,-1.66736 0.0982,-0.0983 0.31859,0.0983 0.41683,0 0.0134,-0.0134 0,-1.14942 0,-1.25051 0,-0.21797 -0.0548,-1.55775 0,-1.66735 0.0879,-0.17575 0.32897,-0.24108 0.41684,-0.41684 0.16674,-0.33347 -0.16673,-0.91704 0,-1.25051 0.0879,-0.17576 0.32896,-0.24109 0.41684,-0.41684 0.0826,-0.16527 -0.0852,-1.1653 0,-1.25051 0.0983,-0.0983 0.31859,0.0983 0.41684,0 0.1965,-0.1965 -0.12428,-0.58512 0,-0.83368 0.0879,-0.17575 0.32896,-0.24108 0.41684,-0.41684 0.12427,-0.24855 -0.1965,-0.63717 0,-0.83367 0.0983,-0.0983 0.31858,0.0983 0.41683,0 0.0983,-0.0983 -0.0621,-0.29256 0,-0.41684 0.0879,-0.17575 0.32896,-0.24108 0.41684,-0.41684 0.0634,-0.12686 0,-1.06278 0,-1.25051 0,-0.97262 0,-1.94524 0,-2.91787 0,-0.13894 0,-0.27789 0,-0.41683 0,-0.13895 0.0983,-0.31859 0,-0.41684 -0.0983,-0.0983 -0.31859,0.0983 -0.41684,0 -0.0983,-0.0983 0,-0.27789 0,-0.41684 0,-0.21797 -0.0548,-1.55775 0,-1.66735 0.0879,-0.17575 0.32896,-0.24108 0.41684,-0.41684 0.12656,-0.25311 -0.12656,-2.24791 0,-2.50102 0.0879,-0.17576 0.32896,-0.24109 0.41684,-0.41684 0.0548,-0.10961 0,-1.44938 0,-1.66735 0,-1.52841 0,-3.05681 0,-4.58522 0,-0.97262 0,-1.94524 0,-2.91786 0,-0.18773 0.0634,-1.12366 0,-1.25052 -0.0879,-0.17575 -0.32896,-0.24108 -0.41684,-0.41683 -0.13148,-0.26297 0.13149,-1.82122 0,-2.08419 -0.0879,-0.17576 -0.32896,-0.24109 -0.41684,-0.41684 -0.0621,-0.12428 0,-0.27789 0,-0.41684 0,-0.13894 0,-0.27789 0,-0.41684 0,-0.29545 0.0539,-2.39325 0,-2.50102 -0.0879,-0.17576 -0.32896,-0.24109 -0.41683,-0.41684 -0.0548,-0.1096 0,-1.44938 0,-1.66735 0,-1.25052 0,-2.50103 0,-3.75154 0,-1.25052 0,-2.50103 0,-3.75154 0,-0.21798 -0.0548,-1.55775 0,-1.66735 0.0879,-0.17576 0.32896,-0.24109 0.41683,-0.41684 0.0539,-0.10777 0,-2.20557 0,-2.50103 0,-0.21797 -0.0548,-1.55774 0,-1.66735 0.0879,-0.17575 0.32896,-0.24108 0.41684,-0.41684 0.12656,-0.25311 -0.12656,-2.24791 0,-2.50102 0.0879,-0.17576 0.32896,-0.24109 0.41684,-0.41684 0.0621,-0.12428 0,-0.27789 0,-0.41684 0,-0.13894 0,-0.27789 0,-0.41684 0,-0.97262 0,-1.94524 0,-2.91786 0,-0.18773 -0.0634,-1.12366 0,-1.25051 0.0879,-0.17576 0.32896,-0.24109 0.41684,-0.41684 0.13099,-0.26199 -0.131,-1.40536 0,-1.66735 0.0879,-0.17576 0.32896,-0.24109 0.41683,-0.41684 0.13149,-0.26297 -0.13148,-1.82122 0,-2.08419 0.0879,-0.17575 0.32897,-0.24108 0.41684,-0.41684 0.16674,-0.33347 -0.16673,-0.91704 0,-1.25051 0.0879,-0.17576 0.32896,-0.24108 0.41684,-0.41684 0.16674,-0.33347 -0.16673,-0.91704 0,-1.25051 0.0879,-0.17576 0.32896,-0.24109 0.41684,-0.41684 0.12428,-0.24855 -0.12428,-0.58512 0,-0.83368 0.0879,-0.17575 0.32896,-0.24108 0.41684,-0.41683 0.12427,-0.24856 -0.12428,-0.58512 0,-0.83368 0.0879,-0.17575 0.32896,-0.24108 0.41683,-0.41684 0.0621,-0.12427 -0.0621,-0.29256 0,-0.41683 0.0879,-0.17576 0.2779,-0.2779 0.41684,-0.41684 0.13895,-0.13895 0.32896,-0.24109 0.41684,-0.41684 0.12428,-0.24855 -0.12428,-0.58512 0,-0.83368 0.0879,-0.17575 0.32896,-0.24108 0.41684,-0.41683 0.0621,-0.12428 -0.0621,-0.29256 0,-0.41684 0.0879,-0.17576 0.32896,-0.24108 0.41683,-0.41684 0.0621,-0.12428 -0.0621,-0.29256 0,-0.41684 1.38248,-1.38247 -0.19649,0.393 0.41684,-0.83367 0.0879,-0.17576 0.32896,-0.24109 0.41684,-0.41684 0.12428,-0.24855 -0.1965,-0.63718 0,-0.83368 0.0983,-0.0983 0.31859,0.0982 0.41684,0 0.1965,-0.19649 -0.12428,-0.58512 0,-0.83367 0.0879,-0.17576 0.32896,-0.24108 0.41684,-0.41684 0.0621,-0.12428 -0.0621,-0.29256 0,-0.41684 0.0879,-0.17575 0.32896,-0.24108 0.41683,-0.41683 0.12428,-0.24856 -0.1965,-0.63718 0,-0.83368 0.0983,-0.0983 0.31859,0.0983 0.41684,0 0.0983,-0.0983 -0.0621,-0.29256 0,-0.41684 0.0879,-0.17575 0.32896,-0.24108 0.41684,-0.41684 0.12428,-0.24855 -0.1965,-0.63717 0,-0.83367 0.0983,-0.0983 0.31859,0.0983 0.41684,0 0.1965,-0.1965 -0.12428,-0.58512 0,-0.83368 0.0879,-0.17575 0.32896,-0.24108 0.41683,-0.41683 0.0621,-0.12428 -0.0621,-0.29257 0,-0.41684 0.0879,-0.17576 0.32897,-0.24109 0.41684,-0.41684 0.0621,-0.12428 -0.0621,-0.29256 0,-0.41684 0.0879,-0.17575 0.32896,-0.24108 0.41684,-0.41684 0.0621,-0.12427 -0.0982,-0.31858 0,-0.41683 0.0983,-0.0983 0.31859,0.0983 0.41684,0 0.0983,-0.0983 -0.0621,-0.29256 0,-0.41684 0.0879,-0.17576 0.32896,-0.24108 0.41684,-0.41684 0.0621,-0.12428 -0.0983,-0.31859 0,-0.41684 0.0983,-0.0983 0.31858,0.0983 0.41683,0 0.0983,-0.0983 -0.0621,-0.29256 0,-0.41683 0.0879,-0.17576 0.32896,-0.24109 0.41684,-0.41684 0.0621,-0.12428 -0.0621,-0.29256 0,-0.41684 0.2501,-0.50021 1.00041,-0.75031 1.25051,-1.25051 0.0621,-0.12428 -0.0621,-0.29256 0,-0.41684 0.25011,-0.50021 1.00042,-0.75031 1.25052,-1.25051 0.28748,-0.57497 -0.50482,-0.37285 0.41684,-0.83368 0.12427,-0.0621 0.31858,0.0983 0.41683,0 0.0983,-0.0983 -0.0621,-0.29256 0,-0.41684 0.20509,-0.41018 1.46226,-1.25717 1.66735,-1.66735 0.0621,-0.12428 -0.0982,-0.31859 0,-0.41684 0.0983,-0.0983 0.31859,0.0983 0.41684,0 0.0983,-0.0983 -0.0621,-0.29256 0,-0.41683 0.0879,-0.17576 0.32896,-0.24109 0.41684,-0.41684 0.0621,-0.12428 -0.0983,-0.31859 0,-0.41684 0.86245,-0.86245 -0.0337,1.31794 0.83368,-0.41684 0.0621,-0.12428 -0.0621,-0.29256 0,-0.41684 0.2501,-0.5002 1.00041,-0.7503 1.25051,-1.25051 0.0621,-0.12428 -0.0621,-0.29256 0,-0.41684 0.0879,-0.17575 0.32896,-0.24108 0.41684,-0.41683 0.0621,-0.12428 -0.0983,-0.31859 0,-0.41684 0.0983,-0.0983 0.31859,0.0983 0.41684,0 0.0982,-0.0983 -0.0621,-0.29256 0,-0.41684 0.0879,-0.17575 0.27789,-0.27789 0.41683,-0.41684 1.38248,-1.38248 -0.1965,0.393 0.41684,-0.83367 0.17575,-0.35151 0.65792,-0.48217 0.83368,-0.83368 0.12427,-0.24855 -0.12428,-0.58512 0,-0.83367 0.17575,-0.35151 0.65792,-0.48217 0.83367,-0.83368 0.12428,-0.24855 -0.12428,-0.58512 0,-0.83368 0.0879,-0.17575 0.32896,-0.24108 0.41684,-0.41683 0.12428,-0.24856 -0.1965,-0.63718 0,-0.83368 0.0983,-0.0983 0.31859,0.0983 0.41684,0 0.0189,-0.0189 0,-1.88765 0,-2.08419 0,-0.15308 0.0168,-1.65058 0,-1.66735 -0.0983,-0.0983 -0.31859,0.0983 -0.41684,0 -0.0852,-0.0852 0.0826,-1.08524 0,-1.25051 -0.0879,-0.17576 -0.32896,-0.24109 -0.41684,-0.41684 -0.0621,-0.12428 0,-0.27789 0,-0.41684 0,-0.29545 0.0539,-2.39325 0,-2.50103 -0.0879,-0.17575 -0.32896,-0.24108 -0.41684,-0.41683 -0.0826,-0.16528 0.0852,-1.1653 0,-1.25052 -0.0983,-0.0983 -0.31858,0.0982 -0.41683,0 -0.10031,-0.1003 0.1003,-1.56704 0,-1.66735 -0.0983,-0.0983 -0.31859,0.0983 -0.41684,0 -0.1965,-0.1965 0.1965,-0.63717 0,-0.83367 -0.0983,-0.0983 -0.31859,0.0983 -0.41684,0 -0.0983,-0.0983 0.0621,-0.29256 0,-0.41684 -0.0399,-0.0798 -1.58756,-1.62746 -1.66735,-1.66735 -0.12428,-0.0621 -0.31859,0.0983 -0.41684,0 -0.0983,-0.0983 0.0983,-0.31859 0,-0.41684 -0.0983,-0.0983 -0.27789,0 -0.41684,0 -0.97262,0 -1.94524,0 -2.91786,0 -1.11157,0 -2.22314,0 -3.3347,0 -0.13895,0 -0.31859,-0.0983 -0.41684,0 -0.0983,0.0983 0.0983,0.31859 0,0.41684 -0.1965,0.1965 -0.63718,-0.1965 -0.83368,0 -0.0983,0.0983 0.0983,0.31859 0,0.41684 -0.1965,0.1965 -0.63717,-0.1965 -0.83367,0 -0.0983,0.0983 0.0983,0.31858 0,0.41683 -0.0983,0.0983 -0.31859,-0.0983 -0.41684,0 -0.0982,0.0983 0.0983,0.31859 0,0.41684 -0.86245,0.86245 0.0337,-1.31794 -0.83368,0.41684 -0.0621,0.12428 0.0983,0.31859 0,0.41684 -0.0982,0.0983 -0.31858,-0.0983 -0.41683,0 -0.0983,0.0983 0.0621,0.29256 0,0.41683 -0.17576,0.35151 -0.65792,0.48217 -0.83368,0.83368 -0.0621,0.12428 0.0983,0.31859 0,0.41684 -0.0983,0.0983 -0.31859,-0.0983 -0.41684,0 -0.0983,0.0983 0.0621,0.29256 0,0.41684 -0.17575,0.3515 -0.65792,0.48216 -0.83367,0.83367 -0.0621,0.12428 0.0983,0.31859 0,0.41684 -0.0982,0.0983 -0.31859,-0.0983 -0.41684,0 -0.0983,0.0983 0.0983,0.31859 0,0.41684 -0.0983,0.0983 -0.31859,-0.0983 -0.41684,0 -0.0983,0.0983 0.0621,0.29256 0,0.41683 -0.2501,0.50021 -1.00041,0.75031 -1.25051,1.25052 -0.0621,0.12428 0.0983,0.31859 0,0.41684 -0.0983,0.0983 -0.31859,-0.0983 -0.41684,0 -0.0983,0.0983 0.0621,0.29256 0,0.41683 -0.0879,0.17576 -0.32896,0.24109 -0.41684,0.41684 -0.12427,0.24856 0.1965,0.63718 0,0.83368 -0.0983,0.0983 -0.31858,-0.0983 -0.41683,0 -0.1965,0.1965 0.12427,0.58512 0,0.83367 -0.0879,0.17576 -0.32896,0.24109 -0.41684,0.41684 -0.16674,0.33347 0.16673,0.91704 0,1.25051 -1.38248,1.38248 0.1965,-0.39299 -0.41684,0.83368 -0.0879,0.17575 -0.32896,0.24108 -0.41684,0.41684 -0.12427,0.24855 0.12428,0.58512 0,0.83367 -0.0879,0.17576 -0.32896,0.24109 -0.41684,0.41684 -0.0621,0.12428 0.0621,0.29256 0,0.41684 -0.0879,0.17575 -0.32896,0.24108 -0.41683,0.41684 -0.0621,0.12427 0.0983,0.31858 0,0.41683 -0.0983,0.0983 -0.31859,-0.0983 -0.41684,0 -0.0983,0.0983 0.0982,0.31859 0,0.41684 -0.0983,0.0983 -0.31859,-0.0983 -0.41684,0 -0.0983,0.0983 0.0983,0.31859 0,0.41684 -0.0983,0.0983 -0.31859,-0.0982 -0.41684,0 -0.0983,0.0983 0.0983,0.31859 0,0.41684 -0.0983,0.0983 -0.31858,-0.0983 -0.41683,0 -0.0983,0.0983 0.0983,0.31859 0,0.41684 -0.0983,0.0982 -0.29256,-0.0621 -0.41684,0 -0.35151,0.17575 -0.48217,0.65792 -0.83368,0.83367 -0.12427,0.0621 -0.31859,-0.0983 -0.41684,0 -0.0982,0.0983 0.0983,0.31859 0,0.41684 -0.19649,0.1965 -0.63717,-0.1965 -0.83367,0 -0.0983,0.0983 0.0983,0.31859 0,0.41684 -0.0983,0.0983 -0.29256,-0.0621 -0.41684,0 -0.17575,0.0879 -0.24108,0.32896 -0.41684,0.41683 -0.12427,0.0621 -0.29256,-0.0621 -0.41683,0 -0.17576,0.0879 -0.24109,0.32896 -0.41684,0.41684 -0.24856,0.12428 -0.63718,-0.1965 -0.83368,0 -0.0982,0.0982 0.0983,0.31859 0,0.41684 -0.1965,0.1965 -0.58512,-0.12428 -0.83367,0 -0.17576,0.0879 -0.24109,0.32896 -0.41684,0.41684 -0.12428,0.0621 -0.29256,-0.0621 -0.41684,0 -0.17575,0.0879 -0.24108,0.32896 -0.41684,0.41684 -0.12427,0.0621 -0.29256,-0.0621 -0.41683,0 -0.17576,0.0879 -0.24109,0.32896 -0.41684,0.41683 -0.24856,0.12428 -0.63718,-0.1965 -0.83368,0 -0.0983,0.0983 0.0983,0.31859 0,0.41684 -0.0983,0.0983 -0.29256,-0.0621 -0.41684,0 -0.17575,0.0879 -0.24108,0.32896 -0.41683,0.41684 -0.24856,0.12428 -0.63718,-0.1965 -0.83368,0 -0.0983,0.0983 0.0983,0.31859 0,0.41684 -0.1003,0.1003 -1.56705,-0.10031 -1.66735,0 -0.0983,0.0983 0.0983,0.31858 0,0.41683 -0.0983,0.0982 -0.27789,0 -0.41684,0 -0.13894,0 -0.27789,0 -0.41684,0 -0.83367,0 -1.66735,0 -2.50102,0 -0.18773,0 -1.12366,0.0634 -1.25052,0 -0.17575,-0.0879 -0.24108,-0.32896 -0.41683,-0.41683 -0.12686,-0.0634 -1.06279,0 -1.25052,0 -0.83367,0 -1.66735,0 -2.50102,0 -1.11157,0 -2.22314,0 -3.33471,0 -0.18772,0 -1.12365,-0.0634 -1.25051,0 -0.17575,0.0879 -0.24108,0.32896 -0.41684,0.41683 -0.26199,0.131 -1.40536,-0.13099 -1.66735,0 -0.17575,0.0879 -0.24108,0.32896 -0.41684,0.41684 -0.33347,0.16674 -0.91704,-0.16673 -1.25051,0 -0.17575,0.0879 -0.24108,0.32896 -0.41684,0.41684 -0.22102,0.11051 -1.80061,-0.0945 -2.08419,0 -0.18641,0.0621 -0.24108,0.32896 -0.41683,0.41684 -0.0934,0.0467 -1.5683,0 -1.66735,0 -0.97263,0 -1.94525,0 -2.91787,0 -0.10109,0 -1.23711,-0.0134 -1.25051,0 -0.0983,0.0983 0.0982,0.31859 0,0.41684 -0.12907,0.12907 -1.95512,-0.12908 -2.08419,0 -0.0983,0.0982 0.0983,0.31858 0,0.41683 -0.1965,0.1965 -0.58512,-0.12427 -0.83368,0 -0.17575,0.0879 -0.24108,0.32896 -0.41683,0.41684 -0.12428,0.0621 -0.31859,-0.0983 -0.41684,0 -0.0983,0.0983 0,0.27789 0,0.41684 -0.13895,0 -0.31859,-0.0983 -0.41684,0 -0.0983,0.0983 0.0983,0.31859 0,0.41684 -0.1965,0.1965 -0.63718,-0.1965 -0.83368,0 -0.0983,0.0983 0.0983,0.31858 0,0.41683 -0.0983,0.0983 -0.29256,-0.0621 -0.41683,0 -0.0798,0.0399 -1.62746,1.58756 -1.66735,1.66736 -0.0621,0.12427 0.0983,0.31858 0,0.41683 -0.0983,0.0983 -0.31859,-0.0983 -0.41684,0 -0.0983,0.0983 0.0983,0.31859 0,0.41684 -0.0983,0.0983 -0.29256,-0.0621 -0.41684,0 -0.50021,0.2501 -0.75031,1.00041 -1.25051,1.25051 -0.12428,0.0621 -0.31859,-0.0983 -0.41684,0 -0.0982,0.0983 0.0983,0.31859 0,0.41684 -0.69465,0.69465 -0.13903,-0.69464 -0.83368,0 -0.0983,0.0983 0.0983,0.31859 0,0.41684 -0.0852,0.0852 -1.08524,-0.0826 -1.25051,0 -0.17575,0.0879 -0.24108,0.32896 -0.41684,0.41684 -0.33347,0.16673 -0.91704,-0.16674 -1.25051,0 -0.17576,0.0879 -0.24108,0.32896 -0.41684,0.41684 -0.1096,0.0548 -1.44938,0 -1.66735,0 -0.29546,0 -2.39325,-0.0539 -2.50103,0 -0.17575,0.0879 -0.24108,0.32896 -0.41683,0.41683 -0.12428,0.0621 -0.2779,0 -0.41684,0 -0.13895,0 -0.27789,0 -0.41684,0 -0.83368,0 -1.66735,0 -2.50103,0 -0.13894,0 -0.27789,0 -0.41683,0 -0.13895,0 -0.29257,-0.0621 -0.41684,0 -0.17576,0.0879 -0.24109,0.32896 -0.41684,0.41684 -0.15074,0.0754 -1.79426,0 -2.08419,0 -0.28993,0 -1.93345,0.0754 -2.08419,0 -0.17575,-0.0879 -0.24108,-0.32896 -0.41684,-0.41684 -0.24855,-0.12427 -0.63717,0.1965 -0.83367,0 -0.0982,-0.0983 0.0983,-0.31859 0,-0.41683 -0.1965,-0.1965 -0.63718,0.19649 -0.83368,0 -0.0983,-0.0983 0.0983,-0.31859 0,-0.41684 -0.1965,-0.1965 -0.58512,0.12427 -0.83367,0 -0.17576,-0.0879 -0.24109,-0.32896 -0.41684,-0.41684 -0.24855,-0.12428 -0.63718,0.1965 -0.83368,0 -0.0983,-0.0983 0.0983,-0.31859 0,-0.41684 -0.41678,-0.41679 -0.41688,0.41679 -0.83367,0 -0.0983,-0.0983 0.0983,-0.31859 0,-0.41684 -0.41679,-0.41678 -0.41689,0.41679 -0.83368,0 -0.0983,-0.0983 0.0983,-0.31858 0,-0.41683 -0.0983,-0.0983 -0.29256,0.0621 -0.41683,0 -0.17576,-0.0879 -0.2779,-0.2779 -0.41684,-0.41684 -0.13895,-0.13895 -0.32896,-0.24108 -0.41684,-0.41684 -0.0621,-0.12428 0.0982,-0.31859 0,-0.41684 -0.0983,-0.0983 -0.29256,0.0621 -0.41684,0 -1.73478,-0.86739 0.44562,0.0288 -0.41684,-0.83367 -0.0983,-0.0983 -0.31858,0.0983 -0.41683,0 -0.0983,-0.0983 0.0983,-0.31859 0,-0.41684 -0.0983,-0.0983 -0.31859,0.0983 -0.41684,0 -0.0983,-0.0983 0.0621,-0.29256 0,-0.41684 -0.0879,-0.17575 -0.32896,-0.24108 -0.41684,-0.41684 -0.12428,-0.24855 0.1965,-0.63717 0,-0.83367 -0.0983,-0.0983 -0.31859,0.0983 -0.41684,0 -0.12907,-0.12907 0.12908,-1.95512 0,-2.08419 -0.0983,-0.0983 -0.31859,0.0983 -0.41683,0 -0.0134,-0.0134 0,-1.14942 0,-1.25051 0,-2.22314 0,-4.44627 0,-6.66941"
     id="path1077"
     inkscape:connector-curvature="0" />
</svg>
