<?xml version="1.0" encoding="UTF-8" standalone="no"?>
<!-- Created with Inkscape (http://www.inkscape.org/) -->

<svg
   xmlns:dc="http://purl.org/dc/elements/1.1/"
   xmlns:cc="http://creativecommons.org/ns#"
   xmlns:rdf="http://www.w3.org/1999/02/22-rdf-syntax-ns#"
   xmlns:svg="http://www.w3.org/2000/svg"
   xmlns="http://www.w3.org/2000/svg"
   xmlns:xlink="http://www.w3.org/1999/xlink"
   xmlns:sodipodi="http://sodipodi.sourceforge.net/DTD/sodipodi-0.dtd"
   xmlns:inkscape="http://www.inkscape.org/namespaces/inkscape"
   width="2096"
   height="1144"
   viewBox="0 0 554.56665 302.68332"
   version="1.1"
   id="svg6679"
   inkscape:version="0.92.3 (2405546, 2018-03-11)"
   sodipodi:docname="damba-west-east.svg">
  <defs
     id="defs6673" />
  <sodipodi:namedview
     id="base"
     pagecolor="#ffffff"
     bordercolor="#666666"
     borderopacity="1.0"
     inkscape:pageopacity="0.0"
     inkscape:pageshadow="2"
     inkscape:zoom="0.70710678"
     inkscape:cx="1206.6903"
     inkscape:cy="431.38364"
     inkscape:document-units="mm"
     inkscape:current-layer="layer1"
     showgrid="false"
     fit-margin-top="0"
     fit-margin-left="0"
     fit-margin-right="0"
     fit-margin-bottom="0"
     units="px"
     inkscape:window-width="1366"
     inkscape:window-height="715"
     inkscape:window-x="0"
     inkscape:window-y="0"
     inkscape:window-maximized="1" />
  <metadata
     id="metadata6676">
    <rdf:RDF>
      <cc:Work
         rdf:about="">
        <dc:format>image/svg+xml</dc:format>
        <dc:type
           rdf:resource="http://purl.org/dc/dcmitype/StillImage" />
        <dc:title></dc:title>
      </cc:Work>
    </rdf:RDF>
  </metadata>
  <g
     inkscape:label="Layer 1"
     inkscape:groupmode="layer"
     id="layer1"
     transform="translate(-1.666421e-4,9.7194934e-5)">
    <image
       sodipodi:absref="/home/aanper/project/luysy-imn-eh/pi/boot/bydefault/web/img/damba.png"
       y="-9.7194934e-05"
       x="0.0001666421"
       id="image7283"
       xlink:href="file:///home/aanper/project/luysy-imn-eh/pi/boot/bydefault/web/img/damba.png"
       preserveAspectRatio="none"
       height="302.68332"
       width="554.56665" />
    <circle
       style="fill:none;fill-opacity:1;stroke:#00ff00;stroke-width:0.30000001;stroke-miterlimit:4;stroke-dasharray:none;stroke-opacity:1;paint-order:stroke fill markers"
       id="path7286"
       cx="472.21198"
       cy="65.454803"
       r="3.7417734" />
    <ellipse
       style="fill:none;fill-opacity:1;stroke:#00ff00;stroke-width:0.30000001;stroke-miterlimit:4;stroke-dasharray:none;stroke-opacity:1;paint-order:stroke fill markers"
       id="path7288"
       cx="313.5314"
       cy="230.31969"
       rx="1.0583333"
       ry="0.92604166" />
    <circle
       style="fill:none;fill-opacity:1;stroke:#00ff00;stroke-width:0.30000001;stroke-miterlimit:4;stroke-dasharray:none;stroke-opacity:1;paint-order:stroke fill markers"
       id="path7290"
       cx="367.50641"
       cy="260.61447"
       r="0.79374999" />
    <path
       style="fill:none;fill-opacity:1;stroke:#00ff00;stroke-width:0.30000001;stroke-miterlimit:4;stroke-dasharray:none;stroke-opacity:1;paint-order:stroke fill markers"
       d="m 316.5542,225.6027 c 0.4989,0.49891 0.94575,1.05595 1.49669,1.49671 0.19479,0.15583 0.52525,-0.11156 0.74835,0 0.15777,0.0789 0.21643,0.29529 0.3742,0.37418 0.29932,0.14967 0.82317,-0.14967 1.12252,0 0.15777,0.0789 0.2164,0.29529 0.37418,0.37418 0.11157,0.0558 0.28598,-0.0882 0.37417,0 0.0882,0.0882 -0.0882,0.28598 0,0.37417 0.09,0.09 1.40668,-0.09 1.49672,0 0.0882,0.0882 -0.0882,0.28599 0,0.37418 0.1764,0.17639 0.52523,-0.11156 0.74835,0 0.15777,0.0789 0.2164,0.2953 0.37417,0.37418 0.11158,0.0558 0.24945,0 0.37418,0 0.12472,0.12472 0.21642,0.29529 0.3742,0.37417 0.22309,0.11156 0.52522,-0.11155 0.74834,0 0.15777,0.0789 0.21641,0.2953 0.37418,0.37418 0.11155,0.0558 0.26262,-0.0558 0.37417,0 0.15777,0.0789 0.2164,0.2953 0.37417,0.37418 0.22313,0.11156 0.52526,-0.11156 0.74835,0 0.15777,0.0789 0.21643,0.29529 0.3742,0.37418 0.14835,0.0742 1.04603,-0.0765 1.12252,0 0.0882,0.0882 -0.0882,0.28598 0,0.37418 0.0765,0.0765 0.97417,-0.0742 1.12252,0 0.15778,0.0789 0.21643,0.29529 0.3742,0.37417 0.20297,0.1015 1.39433,-0.10238 1.4967,0 0.0882,0.0882 -0.0882,0.28598 0,0.37418 0.0765,0.0765 0.97417,-0.0742 1.12255,0 0.15774,0.0789 0.2164,0.29529 0.37417,0.37418 0.23516,0.11759 1.26153,-0.11759 1.4967,0 0.15777,0.0789 0.2164,0.29529 0.37417,0.37417 0.0984,0.0492 1.30106,0 1.49672,0 0.12473,0 0.24945,0 0.37418,0 0.12472,0 0.28598,-0.0882 0.37417,0 0.0882,0.0882 -0.0882,0.28599 0,0.37418 0.0882,0.0882 0.24945,0 0.37417,0 0.62365,0 1.24728,0 1.8709,0 0.12472,0 0.28599,-0.0882 0.37417,0 0.0882,0.0882 -0.0882,0.28599 0,0.37418 0.0882,0.0882 0.24945,0 0.37418,0 0.87309,0 1.74617,0 2.61924,0 0.99782,0 1.99562,0 2.99341,0 0.12473,0 0.28599,-0.0882 0.37418,0 0.0882,0.0882 -0.0882,0.28598 0,0.37418 0.0882,0.0882 0.24945,0 0.3742,0 0.26024,0 1.73556,-0.0677 1.87087,0 0.15777,0.0789 0.2164,0.29529 0.37417,0.37417 0.22312,0.11156 0.52525,-0.11155 0.74837,0 0.15775,0.0789 0.21641,0.2953 0.37418,0.37418 0.11155,0.0558 0.28599,-0.0882 0.37417,0 0.0882,0.0882 -0.0882,0.28598 0,0.37418 0.1764,0.17639 0.57195,-0.17639 0.74835,0 0.0882,0.0882 -0.0882,0.28598 0,0.37418 0.0882,0.0882 0.26263,-0.0558 0.37417,0 0.15777,0.0789 0.21643,0.29529 0.37418,0.37417 0.11157,0.0558 0.28599,-0.0882 0.3742,0 0.0882,0.0882 -0.0882,0.28599 0,0.37418 0.0882,0.0882 0.28596,-0.0882 0.37417,0 0.0882,0.0882 -0.0882,0.28598 0,0.37418 0.0882,0.0882 0.28599,-0.0882 0.37418,0 0.0882,0.0882 -0.0882,0.28598 0,0.37417 0.0882,0.0882 0.28598,-0.0882 0.37417,0 0.0882,0.0882 -0.0558,0.26262 0,0.37418 0.2245,0.44901 0.89802,0.67352 1.12252,1.12253 0.0558,0.11156 -0.0882,0.28599 0,0.37418 0.0882,0.0882 0.28599,-0.0882 0.3742,0 0.0882,0.0882 -0.0558,0.26262 0,0.37418 0.0789,0.15777 0.29528,0.21641 0.37417,0.37418 0.11155,0.22311 -0.17639,0.57196 0,0.74835 0.0882,0.0882 0.28597,-0.0882 0.37418,0 0.17637,0.17639 -0.1764,0.57197 0,0.74836 0.0882,0.0882 0.28599,-0.0882 0.37417,0 0.0882,0.0882 -0.0558,0.26262 0,0.37417 0.0789,0.15777 0.2953,0.21641 0.37418,0.37418 0.0558,0.11156 -0.0882,0.28598 0,0.37418 0.0882,0.0882 0.28598,-0.0882 0.37417,0 0.0882,0.0882 -0.0558,0.26262 0,0.37417 0.0789,0.15777 0.2953,0.21641 0.37417,0.37418 0.0558,0.11156 -0.0882,0.28599 0,0.37418 0.0882,0.0882 0.28599,-0.0882 0.37418,0 0.0882,0.0882 -0.0882,0.28598 0,0.37418 0.0882,0.0882 0.28598,-0.0882 0.3742,0 0.77417,0.77418 -1.18306,-0.0303 0.37417,0.74835 0.11155,0.0558 0.28599,-0.0882 0.37417,0 0.0882,0.0882 -0.0882,0.28598 0,0.37418 0.0882,0.0882 0.26263,-0.0558 0.37418,0 0.15777,0.0789 0.2164,0.29529 0.37417,0.37418 0.11158,0.0558 0.28599,-0.0882 0.37418,0 0.0882,0.0882 -0.0882,0.28598 0,0.37417 0.0882,0.0882 0.26262,-0.0558 0.37417,0 0.15777,0.0789 0.21643,0.2953 0.3742,0.37418 0.11155,0.0558 0.2626,-0.0558 0.37417,0 0.15777,0.0789 0.21641,0.2953 0.37418,0.37418 0.22312,0.11156 0.57195,-0.17639 0.74834,0 0.0882,0.0882 -0.0882,0.28598 0,0.37417 0.1764,0.17639 0.57198,-0.17638 0.74835,0 0.0882,0.0882 -0.0882,0.28599 0,0.37418 0.1764,0.17639 0.57198,-0.17639 0.74838,0 0.0882,0.0882 -0.0882,0.28599 0,0.37418 0.17637,0.17639 0.57195,-0.17639 0.74834,0 0.0882,0.0882 -0.0882,0.28598 0,0.37418 0.0882,0.0882 0.26263,-0.0558 0.37418,0 0.31554,0.15776 0.43283,0.59059 0.74834,0.74835 0.11158,0.0558 0.28599,-0.0882 0.37418,0 0.0882,0.0882 -0.0882,0.28598 0,0.37418 0.1764,0.17639 0.57197,-0.17639 0.74837,0 0.0882,0.0882 -0.0882,0.28598 0,0.37418 0.17637,0.17638 0.57195,-0.17639 0.74835,0 0.0882,0.0882 -0.0882,0.28598 0,0.37417 0.1764,0.17639 0.57198,-0.17639 0.74835,0 0.0882,0.0882 -0.0882,0.28599 0,0.37418 0.0882,0.0882 0.28599,-0.0882 0.37417,0 0.0882,0.0882 -0.0882,0.28599 0,0.37418 0.0882,0.0882 0.28599,-0.0882 0.3742,0 0.0119,0.012 0,1.03178 0,1.12253 0,0.87308 0,1.74616 0,2.61924 0,0.16852 0.0569,1.00866 0,1.12253 -0.0789,0.15777 -0.2953,0.21641 -0.3742,0.37418 -0.0484,0.0967 0,1.97985 0,2.24507 0,0.12472 0.0558,0.26262 0,0.37417 -0.0487,0.0974 -0.66667,0.45585 -0.37417,0.74836 0.4989,0.4989 0.37417,-0.62363 0.37417,0.37417"
       id="path7359"
       inkscape:connector-curvature="0" />
  </g>
</svg>
