<?xml version="1.0" encoding="UTF-8" standalone="no"?>
<!-- Created with Inkscape (http://www.inkscape.org/) -->

<svg
   xmlns:dc="http://purl.org/dc/elements/1.1/"
   xmlns:cc="http://creativecommons.org/ns#"
   xmlns:rdf="http://www.w3.org/1999/02/22-rdf-syntax-ns#"
   xmlns:svg="http://www.w3.org/2000/svg"
   xmlns="http://www.w3.org/2000/svg"
   xmlns:xlink="http://www.w3.org/1999/xlink"
   xmlns:sodipodi="http://sodipodi.sourceforge.net/DTD/sodipodi-0.dtd"
   xmlns:inkscape="http://www.inkscape.org/namespaces/inkscape"
   width="1865.3333"
   height="566.66669"
   viewBox="0 0 493.5361 149.93056"
   version="1.1"
   id="svg5943"
   inkscape:version="0.92.3 (2405546, 2018-03-11)"
   sodipodi:docname="krasnenkaya-k-k.svg">
  <defs
     id="defs5937" />
  <sodipodi:namedview
     id="base"
     pagecolor="#ffffff"
     bordercolor="#666666"
     borderopacity="1.0"
     inkscape:pageopacity="0.0"
     inkscape:pageshadow="2"
     inkscape:zoom="0.7"
     inkscape:cx="1090.6021"
     inkscape:cy="409.07142"
     inkscape:document-units="mm"
     inkscape:current-layer="layer1"
     showgrid="false"
     fit-margin-top="0"
     fit-margin-left="0"
     fit-margin-right="0"
     fit-margin-bottom="0"
     units="px"
     inkscape:window-width="1366"
     inkscape:window-height="715"
     inkscape:window-x="0"
     inkscape:window-y="0"
     inkscape:window-maximized="1" />
  <metadata
     id="metadata5940">
    <rdf:RDF>
      <cc:Work
         rdf:about="">
        <dc:format>image/svg+xml</dc:format>
        <dc:type
           rdf:resource="http://purl.org/dc/dcmitype/StillImage" />
        <dc:title></dc:title>
      </cc:Work>
    </rdf:RDF>
  </metadata>
  <g
     inkscape:label="Layer 1"
     inkscape:groupmode="layer"
     id="layer1"
     transform="translate(0.15595132,0.0017341)">
    <image
       sodipodi:absref="/home/aanper/project/luysy-imn-eh/pi/boot/bydefault/web/img/krasnenkaya.png"
       y="-0.001734099"
       x="-0.15595132"
       id="image6547"
       xlink:href="file:///home/aanper/project/luysy-imn-eh/pi/boot/bydefault/web/img/krasnenkaya.png"
       preserveAspectRatio="none"
       height="149.93056"
       width="493.5361" />
    <ellipse
       style="fill:none;fill-opacity:1;stroke:#00ff00;stroke-width:0.30000001;stroke-miterlimit:4;stroke-dasharray:none;stroke-opacity:1;paint-order:stroke fill markers"
       id="path6550"
       cx="294.28751"
       cy="104.76067"
       rx="2.2678571"
       ry="2.0788691" />
    <circle
       style="fill:none;fill-opacity:1;stroke:#00ff00;stroke-width:0.30000001;stroke-miterlimit:4;stroke-dasharray:none;stroke-opacity:1;paint-order:stroke fill markers"
       id="path6552"
       cx="409.43457"
       cy="111.70928"
       r="1.0690781" />
    <ellipse
       style="fill:none;fill-opacity:1;stroke:#00ff00;stroke-width:0.30000001;stroke-miterlimit:4;stroke-dasharray:none;stroke-opacity:1;paint-order:stroke fill markers"
       id="path6554"
       cx="485.53958"
       cy="63.133045"
       rx="1.1358955"
       ry="1.2695302" />
    <path
       style="fill:none;fill-opacity:1;stroke:#00ff00;stroke-width:0.30000001;stroke-miterlimit:4;stroke-dasharray:none;stroke-opacity:1;paint-order:stroke fill markers"
       d="m 409.57023,112.13121 c -0.46231,-1.13629 -0.37796,-2.22533 -0.37796,-3.40179 0,-0.17022 -0.0575,-1.0189 0,-1.13393 0.0797,-0.15937 0.29829,-0.21861 0.37796,-0.37797 0.10252,-0.20505 -0.10343,-1.40849 0,-1.51191 0.0891,-0.0891 0.28889,0.0891 0.37798,0 0.0891,-0.0891 0,-0.25198 0,-0.37797 0,-0.17822 -0.0172,-1.87275 0,-1.88989 0.0891,-0.0891 0.2889,0.0891 0.37798,0 0.0891,-0.0891 0,-0.25198 0,-0.37797 0,-0.62996 0,-1.25992 0,-1.88988 0,-0.126 0.0891,-0.28889 0,-0.37798 -0.0891,-0.0891 -0.28889,0.0891 -0.37798,0 -0.091,-0.091 0.091,-1.420952 0,-1.511903 -0.0891,-0.08909 -0.2889,0.08909 -0.37798,0 -0.17817,-0.178181 0.11268,-0.530571 0,-0.755954 -0.0797,-0.159369 -0.29829,-0.218607 -0.37796,-0.377976 -0.0564,-0.112691 0.0891,-0.288885 0,-0.377976 -0.0891,-0.08909 -0.2889,0.08909 -0.37798,0 -0.0891,-0.08909 0.0563,-0.265284 0,-0.377975 -0.0797,-0.15937 -0.2983,-0.218607 -0.37799,-0.377976 -0.0563,-0.112692 0.0891,-0.288888 0,-0.377976 -0.25241,-0.252423 -0.50353,0.25242 -0.75594,0 -0.0891,-0.08909 0.0891,-0.288888 0,-0.377979 -0.0891,-0.08909 -0.2889,0.08909 -0.37798,0 -0.0891,-0.08909 0.0891,-0.288885 0,-0.377975 -0.18899,-0.188987 -0.94494,0.188989 -1.13393,0 -0.0891,-0.08909 0.0891,-0.288886 0,-0.377976 -0.0891,-0.08909 -0.25199,0 -0.37798,0 -0.126,0 -0.25199,0 -0.37799,0 -1.51188,0 -3.02379,0 -4.53569,0 -1.63791,0 -3.27581,0 -4.91369,0 -0.12599,0 -0.25199,0 -0.37798,0 -0.126,0 -0.2889,0.08909 -0.37798,0 -0.0891,-0.08909 0.0891,-0.288885 0,-0.377976 -0.0891,-0.08909 -0.25199,0 -0.37799,0 -0.26789,0 -2.17011,0.04886 -2.26785,0 -0.15936,-0.07968 -0.2186,-0.298291 -0.37798,-0.377976 -0.0977,-0.04886 -1.99993,0 -2.26785,0 -0.17822,0 -1.87275,0.01712 -1.88987,0 -0.0891,-0.08909 0.0891,-0.288888 0,-0.377976 -0.13269,-0.132678 -1.6288,0.130541 -1.88989,0 -0.15936,-0.07968 -0.2186,-0.298293 -0.37798,-0.377975 -0.23757,-0.118785 -1.27434,0.118782 -1.51191,0 -0.15936,-0.07968 -0.2186,-0.298294 -0.37796,-0.377979 -0.11269,-0.05634 -0.2653,0.05635 -0.37798,0 -0.15936,-0.07968 -0.2186,-0.298291 -0.37799,-0.377976 -0.11268,-0.05634 -0.26527,0.05635 -0.37795,0 -0.15939,-0.07968 -0.21863,-0.298291 -0.37799,-0.377975 -0.11268,-0.05635 -0.2653,0.05634 -0.37798,0 -1.57306,-0.786522 0.40407,0.02609 -0.37799,-0.755952 -0.0891,-0.08909 -0.26527,0.05635 -0.37795,0 -1.57306,-0.786524 0.40407,0.02609 -0.37799,-0.755952 -0.0891,-0.08909 -0.28889,0.08909 -0.37798,0 -0.0891,-0.08909 0.0891,-0.288888 0,-0.377978 -0.0891,-0.08909 -0.28887,0.08909 -0.37796,0 -0.17819,-0.178178 0.17817,-0.577771 0,-0.755952 -0.0891,-0.08909 -0.2889,0.08909 -0.37798,0 -0.0891,-0.08909 0.0563,-0.265284 0,-0.377976 -0.10094,-0.201871 -0.93493,-0.934936 -1.13393,-1.133927 -0.12599,-0.125995 -0.25198,-0.251986 -0.37798,-0.377978 -0.12599,-0.125992 -0.2186,-0.298292 -0.37798,-0.377976 -0.11269,-0.05635 -0.28888,0.08909 -0.37796,0 -0.0891,-0.08909 0.0891,-0.288886 0,-0.377976 -0.0891,-0.08909 -0.2889,0.08909 -0.37798,0 -0.0891,-0.08909 0.0891,-0.288885 0,-0.377976 -0.0891,-0.08909 -0.2653,0.05635 -0.37799,0 -0.15936,-0.07968 -0.2186,-0.298291 -0.37798,-0.377976 -0.11269,-0.05635 -0.25196,0 -0.37796,0 -0.12599,-0.125992 -0.21862,-0.298291 -0.37798,-0.377975 -0.23845,-0.119227 -1.65143,0.119226 -1.88989,0 -0.15936,-0.07968 -0.2186,-0.298294 -0.37796,-0.377976 -0.0994,-0.04969 -1.31427,0 -1.51191,0 -1.25992,0 -2.51984,0 -3.77976,0 -0.0917,0 -1.12178,0.01214 -1.13392,0 -0.0891,-0.08909 0.0891,-0.288888 0,-0.377979 -0.0891,-0.08909 -0.25199,0 -0.37799,0 -0.26289,0 -1.75321,0.06835 -1.88989,0 -0.93411,-0.467063 0.13047,-0.377976 -0.75594,-0.377976 -0.17822,0 -1.87275,0.01714 -1.88989,0 -0.0891,-0.08909 0.11268,-0.32163 0,-0.377975 -0.33806,-0.169037 -0.75594,0 -1.13393,0 -0.75594,0 -1.51191,0 -2.26785,0 -0.12599,0 -0.2653,-0.05635 -0.37798,0 -0.15936,0.07968 -0.2186,0.298291 -0.37798,0.377975 -0.0994,0.04969 -1.31424,0 -1.51189,0 -0.75596,0 -1.51191,0 -2.26787,0 -0.126,0 -0.25199,0 -0.37796,0 -0.12599,0 -0.2653,0.05635 -0.37798,0 -0.15939,-0.07968 -0.2186,-0.298291 -0.37799,-0.377975 -0.22537,-0.112692 -0.53057,0.112691 -0.75594,0 -0.15938,-0.07968 -0.21862,-0.298292 -0.37798,-0.377976 -0.20505,-0.102524 -1.40849,0.103423 -1.51191,0 -0.0891,-0.08909 0.0891,-0.288885 0,-0.377976 -0.0891,-0.08909 -0.25199,0 -0.37798,0 -0.12597,0 -0.25197,0 -0.37796,0 -1.38592,0 -2.77183,0 -4.15774,0 -0.75597,0 -1.51191,0 -2.26785,0 -0.17024,0 -1.01891,-0.05751 -1.13395,0 -0.15936,0.07969 -0.2186,0.298291 -0.37796,0.377976 -0.20042,0.100208 -1.63275,-0.08571 -1.88989,0 -0.16905,0.05635 -0.2186,0.298291 -0.37799,0.377976 -0.25048,0.125248 -1.19509,-0.105598 -1.51188,0 -0.26728,0.08909 -0.48869,0.288888 -0.75597,0.377975 -0.40163,0.133882 -1.11027,-0.133879 -1.51191,0 -0.26725,0.08909 -0.48262,0.309648 -0.75594,0.377976 -0.24447,0.06112 -0.50398,0 -0.75596,0 -0.62995,0 -1.25992,0 -1.88987,0 -0.12599,0 -0.25845,-0.03984 -0.37798,0 -0.26726,0.08909 -0.48869,0.288888 -0.75595,0.377979 -0.24669,0.08223 -1.81594,0 -2.26787,0 -0.17021,0 -1.01889,0.05752 -1.13393,0 -0.15935,-0.07968 -0.21859,-0.298294 -0.37795,-0.377979 -0.3024,-0.151188 -0.83156,0.151191 -1.13395,0 -0.15936,-0.07968 -0.2186,-0.298291 -0.37796,-0.377976 -0.40389,-0.201937 -0.35208,0.201938 -0.75597,0 -0.15936,-0.07968 -0.2186,-0.298291 -0.37796,-0.377975 -0.14988,-0.07493 -1.05666,0.07727 -1.13395,0 -0.0891,-0.08909 0.0891,-0.288886 0,-0.377976 -0.0773,-0.07727 -0.98406,0.07493 -1.13392,0 -0.15936,-0.07968 -0.2186,-0.298291 -0.37796,-0.377976 -0.22953,-0.114758 -2.03835,0.114758 -2.26788,0 -0.93411,-0.467066 0.13047,-0.377976 -0.75594,-0.377976 -0.26791,0 -2.17014,0.04886 -2.26785,0 -0.15938,-0.07968 -0.21862,-0.298294 -0.37798,-0.377976 -0.11269,-0.05635 -0.25199,0 -0.37798,0 -0.126,0 -0.25199,0 -0.37799,0 -0.75594,0 -1.51188,0 -2.26785,0 -0.12599,0 -0.25199,0 -0.37798,0 -0.12597,0 -0.26527,0.05634 -0.37796,0 -0.15938,-0.07968 -0.21862,-0.298293 -0.37798,-0.377978 -0.11269,-0.05634 -0.25199,0 -0.37799,0 -0.12599,0 -0.25198,0 -0.37795,0 -0.62998,0 -1.25992,0 -1.8899,0 -0.12599,0 -0.25198,0 -0.37798,0 -0.12599,0 -0.26527,0.05635 -0.37796,0 -0.15938,-0.07968 -0.21862,-0.298291 -0.37798,-0.377976 -0.11269,-0.05634 -0.25199,0 -0.37798,0 -0.126,0 -0.25199,0 -0.37799,0 -0.62994,0 -1.25992,0 -1.88986,0 -0.126,0 -0.25199,0 -0.37799,0 -0.12599,0 -0.26527,0.05635 -0.37798,0 -0.15936,-0.07968 -0.2186,-0.298291 -0.37796,-0.377976 -0.23757,-0.118782 -1.27434,0.118785 -1.51191,0 -0.15938,-0.07968 -0.2186,-0.298291 -0.37798,-0.377975 -0.11269,-0.05635 -0.25199,0 -0.37798,0 -0.26789,0 -2.17012,0.04886 -2.26785,0 -0.15936,-0.07968 -0.2186,-0.298292 -0.37799,-0.377976 -0.30236,-0.151191 -0.83153,0.151191 -1.13392,0 -0.15936,-0.07968 -0.2186,-0.298291 -0.37796,-0.377976 -0.2254,-0.112691 -0.5778,0.178178 -0.75597,0 -0.0891,-0.08909 0.0891,-0.288888 0,-0.377976 -0.17817,-0.178181 -0.53057,0.112689 -0.75594,0 -0.15938,-0.07968 -0.21862,-0.298294 -0.37798,-0.377978 -0.11269,-0.05634 -0.2653,0.05634 -0.37799,0 -0.15935,-0.07969 -0.21859,-0.298292 -0.37795,-0.377976 -0.2254,-0.112691 -0.53057,0.112691 -0.75597,0 -0.15936,-0.07968 -0.2186,-0.298291 -0.37798,-0.377976 -0.30237,-0.151191 -0.83154,0.151191 -1.13393,0 -0.15936,-0.07968 -0.2186,-0.298291 -0.37796,-0.377976 -0.0977,-0.04886 -1.99995,0 -2.26787,0 -0.126,0 -0.26527,0.05635 -0.37796,0 -0.15938,-0.07968 -0.21862,-0.298291 -0.37798,-0.377976 -0.0977,-0.04886 -1.99996,0 -2.26785,0 -0.126,0 -0.2653,0.05635 -0.37799,0 -0.93413,-0.467066 0.13047,-0.377975 -0.75596,-0.377975 -0.19765,0 -1.41251,0.04969 -1.51189,0 -0.15938,-0.07968 -0.21862,-0.298294 -0.37798,-0.377976 -0.30239,-0.151191 -0.83156,0.151188 -1.13392,0 -0.15939,-0.07968 -0.21863,-0.298294 -0.37799,-0.377979 -0.30239,-0.151188 -0.83156,0.151191 -1.13392,0 -0.15939,-0.07968 -0.2186,-0.298291 -0.37799,-0.377975 -0.20505,-0.102524 -1.40848,0.103423 -1.51191,0 -0.0891,-0.08909 0.0891,-0.288886 0,-0.377976 -0.17817,-0.178179 -0.57777,0.178181 -0.75594,0 -0.0891,-0.08909 0.0891,-0.288886 0,-0.377976 -0.0891,-0.08909 -0.26529,0.05635 -0.37798,0 -0.15936,-0.07968 -0.2186,-0.298291 -0.37798,-0.377976 -0.22538,-0.112691 -0.53057,0.112691 -0.75594,0 -0.15936,-0.07968 -0.2186,-0.298291 -0.37799,-0.377976 -0.11268,-0.05635 -0.26527,0.05635 -0.37796,0 -0.15938,-0.07968 -0.21862,-0.298294 -0.37798,-0.377975 -0.14986,-0.07493 -1.05667,0.07727 -1.13392,0 -0.0891,-0.08909 0.0891,-0.288888 0,-0.377979 -0.189,-0.188987 -0.94496,0.188989 -1.13393,0 -0.0891,-0.08909 0.0891,-0.288885 0,-0.377976 -0.1782,-0.178178 -0.53057,0.112692 -0.75597,0 -0.15936,-0.07968 -0.2186,-0.298291 -0.37798,-0.377976 -0.30237,-0.15119 -0.83153,0.151191 -1.13393,0 -0.15935,-0.07968 -0.21859,-0.298291 -0.37795,-0.377975 -0.30239,-0.151191 -0.83156,0.151191 -1.13395,0 -0.15936,-0.07968 -0.2186,-0.298292 -0.37796,-0.377976 -0.2254,-0.112691 -0.57777,0.178178 -0.75597,0 -0.0891,-0.08909 0.0891,-0.288888 0,-0.377976 -0.0891,-0.08909 -0.26527,0.05635 -0.37796,0 -0.15938,-0.07968 -0.25198,-0.251984 -0.37798,-0.377976 -0.12599,-0.125994 -0.29829,-0.218609 -0.37798,-0.377978 -0.0563,-0.112689 0.0891,-0.288886 0,-0.377976 -0.0891,-0.08909 -0.28888,0.08909 -0.37799,0 -0.0891,-0.08909 0.0891,-0.288885 0,-0.377976 -0.0891,-0.08909 -0.28887,0.08909 -0.37795,0 -0.0891,-0.08909 0.0891,-0.288885 0,-0.377976 -0.78206,-0.782047 0.0306,1.19507 -0.75597,-0.377975 -0.0563,-0.112692 0.0891,-0.288888 0,-0.377976 -0.0891,-0.08909 -0.28887,0.08909 -0.37796,0 -0.0891,-0.08909 0.0891,-0.288888 0,-0.377976 -0.0891,-0.08909 -0.2653,0.05634 -0.37798,0 -0.15939,-0.07968 -0.25199,-0.251987 -0.37799,-0.377979 -0.50395,-0.503967 -1.00793,-1.007935 -1.5119,-1.511903 -0.12599,-0.125992 -0.25198,-0.251984 -0.37797,-0.377976 -0.12599,-0.125991 -0.21861,-0.298293 -0.37798,-0.377975 -0.11269,-0.05635 -0.26529,0.05634 -0.37798,0 -1.57304,-0.786525 0.40407,0.02609 -0.37797,-0.755955 -0.0891,-0.08909 -0.28889,0.08909 -0.37798,0 -0.0891,-0.08909 0.0891,-0.288885 0,-0.377975 -0.0891,-0.08909 -0.28888,0.08909 -0.37797,0 -0.0891,-0.08909 0.0891,-0.288886 0,-0.377976 -0.0891,-0.08909 -0.28889,0.08909 -0.37798,0 -0.0891,-0.08909 0.0891,-0.288886 0,-0.377976 -0.0891,-0.08909 -0.28889,0.08909 -0.37798,0 -0.0891,-0.08909 0.0891,-0.288888 0,-0.377976 -0.0891,-0.08909 -0.28888,0.08909 -0.37797,0 -0.0891,-0.08909 0.0891,-0.288888 0,-0.377976 -0.0891,-0.08909 -0.28889,0.08909 -0.37798,0 -0.0891,-0.08909 0.0564,-0.265287 0,-0.377978 -0.78652,-1.573046 0.0261,0.404072 -0.75595,-0.377976 -0.0891,-0.08909 0.0891,-0.288885 0,-0.377976 -0.0891,-0.08909 -0.28889,0.08909 -0.37798,0 0,-1.007935 0.12599,0.125992 -0.37797,-0.377976 -0.0891,-0.08909 0.0891,-0.288885 0,-0.377975 -0.55616,0 -0.28889,0.08909 -0.75596,-0.377976 -0.50397,-0.503971 -1.00793,-1.007938 -1.5119,-1.511906 -0.12599,-0.125992 -0.25199,-0.251984 -0.37798,-0.377976 -0.12599,-0.125992 -0.2186,-0.298291 -0.37797,-0.377976 -0.11269,-0.05635 -0.28889,0.08909 -0.37798,0 -0.0891,-0.08909 0.0891,-0.288888 0,-0.377975 -0.0891,-0.08909 -0.28889,0.08909 -0.37798,0 -0.0891,-0.08909 0.0891,-0.288888 0,-0.377976 -0.17818,-0.178181 -0.57777,0.178178 -0.75595,0 -0.0891,-0.08909 0.0891,-0.288888 0,-0.377979 -0.17818,-0.178178 -0.57777,0.178181 -0.75595,0 -0.0891,-0.08909 0.0891,-0.288885 0,-0.377976 -0.17818,-0.178178 -0.53057,0.112692 -0.75595,0 -0.15937,-0.07968 -0.21861,-0.298291 -0.37798,-0.377975 -0.11269,-0.05635 -0.28889,0.08909 -0.37798,0 -0.0891,-0.08909 0.0891,-0.288886 0,-0.377976 -0.18898,-0.188989 -0.94494,0.188989 -1.13392,0 -0.0891,-0.08909 0.0891,-0.288885 0,-0.377976 -0.0891,-0.08909 -0.28889,0.08909 -0.37798,0 -0.0891,-0.08909 0.0564,-0.265287 0,-0.377976 -0.15937,-0.318738 -0.59658,-0.437216 -0.75595,-0.755954 -0.0563,-0.112689 0.0891,-0.288885 0,-0.377976 -0.0891,-0.08909 -0.28889,0.08909 -0.37798,0 -0.0891,-0.08909 0.0563,-0.265284 0,-0.377976 -0.0797,-0.159369 -0.25198,-0.251984 -0.37798,-0.377975 -0.12599,-0.125992 -0.2186,-0.298292 -0.37797,-0.377976 -0.11269,-0.05635 -0.28889,0.08909 -0.37798,0 -0.0891,-0.08909 0.0891,-0.288888 0,-0.377976 -0.0891,-0.08909 -0.28888,0.08909 -0.37797,0 -0.0891,-0.08909 0.0891,-0.288888 0,-0.377976 -0.0891,-0.08909 -0.26529,0.05634 -0.37798,0 -0.31874,-0.159369 -0.43721,-0.596585 -0.75595,-0.755954 -0.11269,-0.05635 -0.26529,0.05635 -0.37798,0 -0.15937,-0.07968 -0.21861,-0.298291 -0.37797,-0.377976 -0.1127,-0.05635 -0.28889,0.08909 -0.37798,0 -0.0891,-0.08909 0.0891,-0.288885 0,-0.377976 -0.17818,-0.178181 -0.53057,0.112692 -0.75595,0 -0.15937,-0.07968 -0.21861,-0.298291 -0.37798,-0.377976 -0.22538,-0.112691 -0.53057,0.112692 -0.75595,0 -0.15937,-0.07968 -0.21861,-0.298291 -0.37798,-0.377975 -0.11269,-0.05635 -0.26528,0.05635 -0.37797,0 -0.15937,-0.07969 -0.21861,-0.298294 -0.37798,-0.377976 -0.30238,-0.151191 -0.83155,0.151188 -1.13393,0 -0.15937,-0.07968 -0.21861,-0.298294 -0.37798,-0.377979 -0.23845,-0.119226 -1.65142,0.119227 -1.88988,0 -0.15936,-0.07968 -0.2186,-0.298291 -0.37797,-0.377975 -0.0994,-0.04969 -1.31425,0 -1.51191,0 -0.75595,0 -1.5119,0 -2.26785,0 -0.17023,0 -1.0189,-0.05752 -1.13393,0 -0.15937,0.07968 -0.21861,0.298291 -0.37798,0.377975 -0.0977,0.04886 -1.99995,0 -2.26786,0 -0.12599,0 -0.25198,0 -0.37797,0 -0.12599,0 -0.28889,-0.08909 -0.37798,0 -0.0891,0.08909 0.0891,0.288888 0,0.377979 -0.0773,0.07727 -0.98406,-0.07493 -1.13393,0 -1.25359,1.253588 0.35636,-0.178181 -0.75595,0.377976 -0.15937,0.07968 -0.21861,0.298291 -0.37798,0.377975 -0.11268,0.05635 -0.26528,-0.05635 -0.37797,0 -0.15937,0.07968 -0.21861,0.298292 -0.37798,0.377976 -0.11269,0.05635 -0.26528,-0.05635 -0.37797,0 -0.15937,0.07969 -0.21861,0.298292 -0.37798,0.377976 -0.11269,0.05635 -0.26529,-0.05635 -0.37797,0 -0.15937,0.07968 -0.21861,0.298291 -0.37798,0.377976 -0.11269,0.05635 -0.26529,-0.05635 -0.37798,0 -0.15937,0.07968 -0.21861,0.298291 -0.37798,0.377976 -0.11269,0.05635 -0.26528,-0.05634 -0.37797,0 -0.31874,0.159369 -0.43722,0.596585 -0.75595,0.755954 -0.11269,0.05635 -0.26529,-0.05635 -0.37798,0 -0.15937,0.07969 -0.21861,0.298291 -0.37798,0.377976 -0.11269,0.05635 -0.26528,-0.05635 -0.37797,0 -0.15937,0.07968 -0.21861,0.298291 -0.37798,0.377976 -0.22538,0.112691 -0.57777,-0.178181 -0.75595,0 -0.0891,0.08909 0.0891,0.288885 0,0.377975 -0.17818,0.178181 -0.57777,-0.178178 -0.75595,0 -0.0891,0.08909 0.0891,0.288888 0,0.377976 -0.0773,0.07727 -0.98407,-0.07493 -1.13393,0 -0.15937,0.07968 -0.21861,0.298291 -0.37798,0.377976 -0.22538,0.112691 -0.53057,-0.112689 -0.75595,0 -0.15937,0.07968 -0.21861,0.298294 -0.37797,0.377978 -0.22539,0.112689 -0.53058,-0.112691 -0.75596,0 -0.15937,0.07968 -0.21861,0.298292 -0.37797,0.377976 -0.22538,0.112689 -0.53058,-0.112691 -0.75596,0 -0.15937,0.07968 -0.2186,0.298291 -0.37797,0.377976 -0.22538,0.112691 -0.53057,-0.112691 -0.75596,0 -0.15936,0.07969 -0.2186,0.298291 -0.37797,0.377976 -0.23757,0.118782 -1.27434,-0.118782 -1.51191,0 -0.15936,0.07968 -0.2186,0.298291 -0.37797,0.377976 -0.11269,0.05635 -0.25199,0 -0.37798,0 -0.12599,0 -0.25198,0 -0.37798,0 -0.0917,0 -1.12177,-0.01214 -1.13392,0 -0.0891,0.08909 0.0891,0.288888 0,0.377975 -0.10343,0.103423 -1.30686,-0.102523 -1.51191,0 -0.15937,0.07969 -0.21861,0.298292 -0.37797,0.377976 -0.14987,0.07493 -1.05666,-0.07727 -1.13393,0 -0.0891,0.08909 0.0891,0.288888 0,0.377979 -0.0891,0.08909 -0.25199,0 -0.37798,0 -0.17821,0 -1.87275,-0.01714 -1.88988,0 -0.0891,0.08909 0.0891,0.288885 0,0.377976 -0.0121,0.01214 -1.04226,0 -1.13393,0 -0.88642,0 0.17818,-0.08909 -0.75595,0.377975 -0.22952,0.114758 -2.03834,-0.114757 -2.26786,0 -0.15937,0.07968 -0.21861,0.298292 -0.37797,0.377976 -0.23757,0.118782 -1.27434,-0.118782 -1.51191,0 -0.15937,0.07969 -0.21861,0.298291 -0.37798,0.377976 -0.20504,0.102523 -1.40848,-0.103423 -1.5119,0 -0.0891,0.08909 0.0891,0.288888 0,0.377976 -0.0773,0.07727 -0.98406,-0.07493 -1.13393,0 -0.15937,0.07968 -0.21861,0.298291 -0.37798,0.377976 -0.11268,0.05635 -0.26528,-0.05634 -0.37797,0 -0.15937,0.07968 -0.21861,0.298293 -0.37798,0.377978 -0.22538,0.112689 -0.57777,-0.178181 -0.75595,0 -0.0891,0.08909 0.0891,0.288885 0,0.377976 -0.17818,0.178178 -0.53057,-0.112691 -0.75595,0 -0.31874,0.159369 -0.43722,0.596582 -0.75595,0.755951 -0.22538,0.112692 -0.57778,-0.178181 -0.75596,0 -0.0891,0.08909 0.0891,0.288886 0,0.377976 -0.17818,0.178181 -0.57777,-0.178178 -0.75595,0 -0.0891,0.08909 0.0891,0.288888 0,0.377976 -0.0122,0.01217 -1.04226,0 -1.13393,0 -1.25992,0 -2.51984,0 -3.77976,0 -0.19765,0 -1.41252,-0.04969 -1.5119,0 -0.15937,0.07968 -0.21861,0.298291 -0.37798,0.377976 -0.14987,0.07493 -1.05666,-0.07727 -1.13393,0 -0.0891,0.08909 0.0891,0.288888 0,0.377978 -0.0773,0.07727 -0.98406,-0.07493 -1.13393,0 -0.15937,0.07968 -0.2186,0.298292 -0.37797,0.377976 -0.30239,0.151191 -0.83155,-0.151191 -1.13393,0 -0.15937,0.07969 -0.21861,0.298291 -0.37798,0.377976 -0.20505,0.102523 -1.40848,-0.103423 -1.5119,0 -0.0891,0.08909 0.0891,0.288885 0,0.377976 -0.0891,0.08909 -0.25199,0 -0.37798,0 -1.00794,0 -2.01587,0 -3.02381,0 -1.00794,0 -2.01587,0 -3.02381,0 -0.19765,0 -1.41252,-0.04969 -1.5119,0 -0.15937,0.07968 -0.21861,0.298291 -0.37798,0.377976 -0.11269,0.05634 -0.25198,0 -0.37797,0 -0.126,0 -0.25199,0 -0.37798,0 -0.62996,0 -1.25992,0 -1.88988,0 -0.12599,0 -0.26529,-0.05635 -0.37798,0 -0.15937,0.07968 -0.21861,0.298291 -0.37798,0.377975 -0.13668,0.06835 -1.62698,0 -1.88988,0 -0.12599,0 -0.28888,-0.08909 -0.37797,0 -0.0891,0.08909 0.0891,0.288888 0,0.377976 -0.0891,0.08909 -0.25198,0 -0.37798,0 -0.12599,0 -0.25198,0 -0.37798,0 -0.88194,0 -1.76388,0 -2.64583,0 -0.12599,0 -0.28888,-0.08909 -0.37797,0 -0.0891,0.08909 0.0891,0.288888 0,0.377979 -0.0891,0.08909 -0.26529,-0.05635 -0.37798,0 -0.15937,0.07968 -0.21861,0.298291 -0.37798,0.377975 -0.22538,0.112689 -0.57777,-0.178181 -0.75595,0 -0.0891,0.08909 0.0891,0.288886 0,0.377976 -0.0891,0.08909 -0.28889,-0.08909 -0.37798,0 -0.0891,0.08909 0.0891,0.288886 0,0.377976 -0.0891,0.08909 -0.26528,-0.05635 -0.37797,0 -1.57305,0.786524 0.40407,-0.02609 -0.37798,0.755952 -0.0891,0.08909 -0.28888,-0.08909 -0.37797,0 -0.0891,0.08909 0.0891,0.288888 0,0.377975 -0.0891,0.08909 -0.28889,-0.08909 -0.37798,0 -0.0891,0.08909 0.0891,0.288888 0,0.377979 -0.0891,0.08909 -0.28889,-0.08909 -0.37797,0 -0.0891,0.08909 0.0563,0.265284 0,0.377976 -0.0797,0.159369 -0.2983,0.218606 -0.37798,0.377976 -0.0563,0.112691 0.0563,0.265284 0,0.377975 -0.0797,0.159369 -0.29829,0.218607 -0.37798,0.377976 -0.11269,0.225383 0.17818,0.577773 0,0.755952 -0.0891,0.08909 -0.28888,-0.08909 -0.37798,0 -0.0891,0.08909 0,0.251984 0,0.377978 0,0.170223 -0.0575,1.018897 0,1.133928 0.0797,0.159369 0.2983,0.218606 0.37798,0.377975 0.0563,0.112692 -0.0891,0.288888 0,0.377976 0.0891,0.08909 0.28889,-0.08909 0.37798,0 0.0891,0.08909 -0.0563,0.265287 0,0.377976 0.15937,0.318738 0.59658,0.437216 0.75595,0.755954 0.0564,0.112689 -0.0891,0.288886 0,0.377976 0.0891,0.08909 0.28889,-0.08909 0.37798,0 0.0891,0.08909 -0.0891,0.288885 0,0.377976 0.17818,0.178178 0.57777,-0.178181 0.75595,0 0.0891,0.08909 -0.0891,0.288885 0,0.377976 0.17818,0.178181 0.53057,-0.112692 0.75595,0 0.15937,0.07968 0.21861,0.298291 0.37798,0.377976 0.11269,0.05634 0.28888,-0.08909 0.37797,0 0.0891,0.08909 -0.0891,0.288888 0,0.377975 0.0891,0.08909 0.26529,-0.05634 0.37798,0 0.31874,0.15937 0.43722,0.596586 0.75595,0.755955 0.11269,0.05635 0.26529,-0.05635 0.37798,0 0.15937,0.07968 0.21861,0.298291 0.37798,0.377975 0.11268,0.05635 0.28888,-0.08909 0.37797,0 0.0891,0.08909 -0.0891,0.288886 0,0.377976 0.17818,0.178179 0.57777,-0.178181 0.75595,0 0.0891,0.08909 -0.0891,0.288886 0,0.377976 0.0891,0.08909 0.26529,-0.05635 0.37798,0 0.15937,0.07968 0.21861,0.298291 0.37797,0.377976 0.1127,0.05635 0.26529,-0.05635 0.37798,0 0.15937,0.07968 0.21861,0.298291 0.37798,0.377976 0.23845,0.119226 1.65143,-0.119227 1.88988,0 0.15937,0.07968 0.21861,0.298294 0.37797,0.377978 0.30239,0.151188 0.83155,-0.151191 1.13393,0 0.15937,0.07968 0.21861,0.298291 0.37798,0.377976 0.30238,0.151191 0.83155,-0.151191 1.13393,0 0.15937,0.07969 0.21861,0.298291 0.37798,0.377976 0.30237,0.151191 0.83154,-0.151191 1.13392,0 0.15937,0.07968 0.21861,0.298291 0.37798,0.377976 0.23757,0.118782 1.27434,-0.118782 1.5119,0 0.15937,0.07968 0.21861,0.298291 0.37798,0.377975 0.22538,0.112692 0.57777,-0.178178 0.75595,0 0.0891,0.08909 -0.0891,0.288888 0,0.377976 0.0773,0.07727 0.98407,-0.07493 1.13393,0 0.15937,0.07968 0.21861,0.298291 0.37798,0.377976 0.11269,0.05635 0.28888,-0.08909 0.37797,0 0.0891,0.08909 -0.0891,0.288888 0,0.377978 0.17818,0.178179 0.53058,-0.112691 0.75596,0 0.15936,0.07968 0.2186,0.298292 0.37797,0.377976 0.22538,0.112689 0.53057,-0.112691 0.75596,0 0.15936,0.07968 0.2186,0.298291 0.37797,0.377976 0.11269,0.05635 0.26529,-0.05635 0.37798,0 0.15937,0.07969 0.2186,0.298291 0.37797,0.377976 0.11269,0.05635 0.26529,-0.05635 0.37798,0 0.15937,0.07968 0.21861,0.298291 0.37797,0.377976 0.1127,0.05634 0.26529,-0.05635 0.37798,0 0.15937,0.07968 0.21861,0.298291 0.37798,0.377975 0.11269,0.05635 0.26528,-0.05634 0.37797,0 0.31874,0.15937 0.43722,0.596586 0.75596,0.755955 0.11269,0.05634 0.26528,-0.05635 0.37797,0 0.15937,0.07968 0.21861,0.298291 0.37798,0.377976 0.11269,0.05635 0.26529,-0.05635 0.37797,0 0.15937,0.07968 0.21861,0.298291 0.37798,0.377975 0.11269,0.05635 0.26529,-0.05635 0.37798,0 0.15937,0.07968 0.2186,0.298292 0.37797,0.377976 0.1127,0.05635 0.26529,-0.05635 0.37798,0 0.15937,0.07969 0.21861,0.298291 0.37798,0.377976 0.11269,0.05635 0.26528,-0.05635 0.37797,0 0.15937,0.07968 0.21861,0.298291 0.37798,0.377976 0.11269,0.05634 0.26528,-0.05635 0.37798,0 0.31873,0.159369 0.43721,0.596585 0.75595,0.755954 0.11269,0.05634 0.26528,-0.05635 0.37797,0 0.15937,0.07968 0.21861,0.298291 0.37798,0.377976 0.11269,0.05635 0.26529,-0.05635 0.37797,0 0.31874,0.159369 0.43722,0.596582 0.75596,0.755951 0.11269,0.05635 0.26528,-0.05635 0.37797,0 0.31874,0.15937 0.43722,0.596583 0.75596,0.755952 0.11269,0.05635 0.26528,-0.05635 0.37797,0 0.15937,0.07968 0.21861,0.298291 0.37798,0.377976 0.11269,0.05635 0.26529,-0.05634 0.37797,0 0.15937,0.07968 0.21861,0.298294 0.37798,0.377978 0.11269,0.05634 0.26529,-0.05635 0.37798,0 0.15937,0.07968 0.20894,0.32163 0.37797,0.377976 0.23906,0.07968 0.5169,-0.07968 0.75596,0 0.16903,0.05635 0.2186,0.298291 0.37797,0.377976 0.11269,0.05635 0.26529,-0.05635 0.37798,0 0.15937,0.07969 0.21861,0.298291 0.37798,0.377976 0.11268,0.05635 0.26528,-0.05635 0.37797,0 0.30178,0.150892 0.45417,0.605062 0.75595,0.755951 0.11269,0.05635 0.26529,-0.05634 0.37798,0 0.15937,0.07969 0.21861,0.298292 0.37797,0.377976 0.22539,0.112692 0.57778,-0.178178 0.75596,0 0.0891,0.08909 -0.0891,0.288888 0,0.377979 0.0891,0.08909 0.26528,-0.05635 0.37797,0 0.15937,0.07968 0.21861,0.298291 0.37798,0.377975 0.11269,0.05635 0.26528,-0.05635 0.37798,0 0.31873,0.15937 0.43721,0.596583 0.75595,0.755952 0.22538,0.112691 0.53057,-0.112691 0.75595,0 0.31874,0.159369 0.43722,0.596583 0.75595,0.755952 0.1127,0.05634 0.25199,0 0.37798,0 0.12599,0.125992 0.21861,0.298291 0.37798,0.377975 0.22538,0.112692 0.53057,-0.112688 0.75595,0 0.31874,0.15937 0.43721,0.596586 0.75595,0.755955 0.11269,0.05635 0.26529,-0.05635 0.37798,0 0.15937,0.07968 0.2186,0.298291 0.37797,0.377976 0.22539,0.112691 0.53057,-0.112692 0.75595,0 0.15937,0.07968 0.21861,0.298291 0.37798,0.377975 0.11269,0.05635 0.26529,-0.05635 0.37798,0 0.15937,0.07968 0.21861,0.298292 0.37797,0.377976 0.1127,0.05635 0.25845,-0.03984 0.37798,0 0.26727,0.08909 0.48868,0.288888 0.75595,0.377976 0.11953,0.03984 0.26529,-0.05635 0.37798,0 0.15937,0.07968 0.21861,0.298291 0.37797,0.377976 0.11269,0.05634 0.25199,0 0.37798,0 0.12599,0.125992 0.21861,0.298294 0.37798,0.377978 0.11269,0.05634 0.26528,-0.05635 0.37797,0 0.15937,0.07968 0.20894,0.32163 0.37798,0.377976 0.23905,0.07968 0.50397,0 0.75595,0 0.12599,0 0.26529,-0.05635 0.37798,0 0.15937,0.07968 0.21861,0.298291 0.37798,0.377977 0.11268,0.0563 0.25198,0 0.37797,0 0.12599,0.12599 0.21861,0.29829 0.37798,0.37797 0.22538,0.1127 0.53057,-0.11269 0.75595,0 0.15937,0.0797 0.21861,0.2983 0.37797,0.37798 0.1127,0.0563 0.26529,-0.0564 0.37798,0 0.15937,0.0797 0.21861,0.29829 0.37798,0.37798 0.11269,0.0563 0.26528,-0.0563 0.37797,0 0.31874,0.15937 0.43722,0.59658 0.75596,0.75595 0.11269,0.0563 0.25845,-0.0398 0.37797,0 0.26727,0.0891 0.48868,0.28889 0.75595,0.37798 0.11953,0.0398 0.26529,-0.0564 0.37798,0 0.31874,0.15937 0.43722,0.59658 0.75595,0.75595 0.11269,0.0563 0.25845,-0.0398 0.37798,0 2.73784,0.91261 -0.59592,-0.10897 1.13393,0.75595 0.11269,0.0563 0.26528,-0.0564 0.37798,0 0.15936,0.0797 0.20893,0.32163 0.37797,0.37798 0.23905,0.0797 0.5169,-0.0797 0.75595,0 0.16904,0.0563 0.21861,0.29829 0.37798,0.37797 0.11269,0.0563 0.26529,-0.0563 0.37797,0 0.15937,0.0797 0.21861,0.2983 0.37798,0.37798 0.11269,0.0564 0.26529,-0.0563 0.37798,0 0.15936,0.0797 0.21861,0.29829 0.37797,0.37798 0.40539,0.20269 0.35057,-0.2027 0.75596,0 0.15937,0.0797 0.2186,0.29829 0.37797,0.37797 0.30238,0.15119 0.83155,-0.15119 1.13393,0 0.15937,0.0797 0.21861,0.29829 0.37798,0.37798 0.11269,0.0563 0.26528,-0.0563 0.37797,0 0.15937,0.0797 0.21861,0.29829 0.37798,0.37797 0.22538,0.11269 0.53057,-0.11269 0.75595,0 0.15937,0.0797 0.21861,0.29829 0.37798,0.37798 0.11269,0.0563 0.26528,-0.0563 0.37798,0 0.15936,0.0797 0.2186,0.29829 0.37797,0.37798 0.11269,0.0563 0.26529,-0.0563 0.37798,0 0.15937,0.0797 0.2186,0.29829 0.37797,0.37797 0.11269,0.0564 0.26529,-0.0563 0.37798,0 0.15937,0.0797 0.2186,0.29829 0.37797,0.37798 0.1127,0.0563 0.26529,-0.0564 0.37798,0 0.15937,0.0797 0.21861,0.29829 0.37798,0.37797 0.11269,0.0564 0.26528,-0.0563 0.37797,0 0.15937,0.0797 0.21861,0.2983 0.37798,0.37798 0.11269,0.0563 0.26528,-0.0564 0.37798,0 0.30178,0.15089 0.45417,0.60506 0.75595,0.75595 0.11269,0.0563 0.26528,-0.0563 0.37797,0 0.15937,0.0797 0.21861,0.2983 0.37798,0.37798 0.11269,0.0563 0.26529,-0.0563 0.37798,0 0.31873,0.15937 0.43721,0.59658 0.75595,0.75595 0.11269,0.0564 0.28888,-0.0891 0.37797,0 0.0891,0.0891 -0.0891,0.28889 0,0.37798 0.0891,0.0891 0.25846,-0.0398 0.37798,0 0.26727,0.0891 0.55674,0.17876 0.75595,0.37797 0.0891,0.0891 -0.11269,0.32163 0,0.37798 0.22538,0.11269 0.5169,-0.0797 0.75596,0 0.33807,0.11269 0.43721,0.59658 0.75595,0.75595 0.11269,0.0563 0.26529,-0.0563 0.37797,0 0.15937,0.0797 0.21861,0.29829 0.37798,0.37798 0.11269,0.0564 0.26529,-0.0563 0.37798,0 0.15936,0.0797 0.2186,0.29829 0.37797,0.37798 0.1127,0.0563 0.28889,-0.0891 0.37798,0 0.0891,0.0891 -0.11269,0.32163 0,0.37797 0.22538,0.11269 0.53057,-0.11269 0.75595,0 0.11269,0.0564 -0.0891,0.28889 0,0.37798 0.0891,0.0891 0.26529,-0.0563 0.37798,0 1.25359,1.25359 -0.35636,-0.17818 0.75595,0.37797 0.15937,0.0797 0.21861,0.29829 0.37798,0.37798 0.11269,0.0563 0.26528,-0.0563 0.37797,0 0.15937,0.0797 0.21861,0.29829 0.37798,0.37798 0.11269,0.0563 0.26528,-0.0563 0.37797,0 0.15937,0.0797 0.21861,0.29829 0.37798,0.37797 0.11269,0.0564 0.26529,-0.0563 0.37798,0 0.15937,0.0797 0.21861,0.29829 0.37797,0.37798 0.11269,0.0563 0.26529,-0.0564 0.37798,0 1.57305,0.78652 -0.40407,-0.0261 0.37798,0.75595 0.17817,0.17818 0.53057,-0.11269 0.75595,0 0.31874,0.15937 0.43721,0.59659 0.75595,0.75595 0.11269,0.0563 0.28889,-0.0891 0.37798,0 0.0891,0.0891 -0.0891,0.28889 0,0.37798 0.17818,0.17818 0.57777,-0.17818 0.75595,0 0.0891,0.0891 -0.0891,0.28889 0,0.37798 0.0891,0.0891 0.26528,-0.0564 0.37798,0 0.15936,0.0797 0.2186,0.29829 0.37797,0.37797 0.11269,0.0564 0.26529,-0.0563 0.37798,0 0.15937,0.0797 0.21861,0.29829 0.37797,0.37798 0.11269,0.0563 0.26529,-0.0564 0.37798,0 0.15937,0.0797 0.21861,0.29829 0.37798,0.37797 0.22538,0.11269 0.53057,-0.11269 0.75595,0 0.15937,0.0797 0.21861,0.29829 0.37797,0.37798 0.1127,0.0563 0.26529,-0.0564 0.37798,0 0.15937,0.0797 0.20894,0.32163 0.37798,0.37798 0.23905,0.0797 0.5169,-0.0797 0.75595,0 0.16903,0.0563 0.21861,0.29829 0.37798,0.37797 0.22538,0.11269 0.53057,-0.11269 0.75595,0 0.15937,0.0797 0.20894,0.32163 0.37797,0.37798 0.23906,0.0797 0.5169,-0.0797 0.75596,0 0.16903,0.0564 0.2186,0.29829 0.37797,0.37798 0.1127,0.0563 0.25845,-0.0399 0.37798,0 0.25198,0.12599 0.50397,0.25198 0.75595,0.37797 0.12599,0 0.25845,-0.0398 0.37798,0 0.26727,0.0891 0.48868,0.28889 0.75595,0.37798 0.11953,0.0398 0.26529,-0.0563 0.37798,0 0.15937,0.0797 0.2186,0.29829 0.37797,0.37797 0.30238,0.15119 0.83155,-0.15119 1.13393,0 0.15937,0.0797 0.21861,0.29829 0.37798,0.37798 0.23756,0.11878 1.27434,-0.11878 1.5119,0 0.15937,0.0797 0.21861,0.29829 0.37798,0.37798 0.14986,0.0749 1.05665,-0.0773 1.13393,0 0.0891,0.0891 -0.0891,0.28888 0,0.37797 0.17818,0.17818 0.53057,-0.11269 0.75595,0 0.15937,0.0797 0.21861,0.29829 0.37798,0.37798 0.24153,0.12076 1.20767,-0.10141 1.5119,0 0.26727,0.0891 0.48868,0.28888 0.75595,0.37797 0.22306,0.0744 1.6787,0 1.88989,0 1.00793,0 2.01586,0 3.02381,0 3.52777,0 7.05554,0 10.58334,0 2.01586,0 4.03174,0 6.04761,0 0.3656,0 2.15574,-0.056 2.26784,0 0.15939,0.0797 0.21863,0.2983 0.37799,0.37798 0.12044,0.0602 1.55207,0 1.88989,0 0.88194,0 1.76387,0 2.64583,0 0.17021,0 1.01889,0.0575 1.13393,0 0.15936,-0.0797 0.2186,-0.29829 0.37796,-0.37798 0.23846,-0.11922 1.65145,0.11923 1.88989,0 0.15936,-0.0797 0.2186,-0.29829 0.37798,-0.37797 0.23757,-0.11879 1.27434,0.11878 1.51191,0 0.15936,-0.0797 0.2186,-0.29829 0.37796,-0.37798 0.23757,-0.11878 1.27434,0.11878 1.51191,0 0.15938,-0.0797 0.2186,-0.29829 0.37798,-0.37797 0.0994,-0.0497 1.31424,0 1.51191,0 1.00793,0 2.01586,0 3.02379,0 1.25992,0 2.51986,0 3.77978,0 0.19765,0 1.41251,-0.0497 1.51189,0 0.15938,0.0797 0.21862,0.29829 0.37798,0.37797 0.30239,0.15119 0.83156,-0.15119 1.13392,0 0.15939,0.0797 0.21863,0.29829 0.37799,0.37798 0.30239,0.15119 0.83156,-0.15119 1.13392,0 0.15939,0.0797 0.2186,0.29829 0.37799,0.37797 0.0994,0.0497 1.31423,0 1.51191,0 0.0917,0 1.12175,-0.0121 1.13392,0 0.0891,0.0891 -0.0891,0.28889 0,0.37798 0.0891,0.0891 0.25199,0 0.37798,0 0.26289,0 1.75319,-0.0683 1.88987,0 0.15938,0.0797 0.2186,0.29829 0.37798,0.37798 0.26107,0.13054 1.75721,-0.13268 1.88987,0 0.0891,0.0891 -0.0891,0.28888 0,0.37797 0.0122,0.0121 1.04227,0 1.13395,0 1.38591,0 2.7718,0 4.15772,0 0.26291,0 1.7532,0.0683 1.88989,0 0.93414,-0.46706 -0.13047,-0.37797 0.75594,-0.37797 0.13883,0 1.49669,-0.0152 1.51191,0 0.0891,0.0891 -0.0891,0.28888 0,0.37797 0.0891,0.0891 0.25199,0 0.37798,0 1.00793,0 2.01586,0 3.02382,0 0.12599,0 0.25199,0 0.37796,0 0.12599,0 0.28889,0.0891 0.37798,0 0.0891,-0.0891 -0.0891,-0.28888 0,-0.37797 0.0891,-0.0891 0.25199,0 0.37798,0 0.126,0 0.25199,0 0.37799,0 0.75594,0 1.51188,0 2.26785,0 0.12599,0 0.25199,0 0.37798,0 0.12597,0 0.26527,-0.0563 0.37796,0 0.15938,0.0797 0.21862,0.29829 0.37798,0.37797 0.0994,0.0497 1.31427,0 1.51191,0 0.75594,0 1.51191,0 2.26785,0 0.17023,0 1.01891,0.0575 1.13392,0 0.15939,-0.0797 0.21863,-0.29829 0.37799,-0.37797 0.11268,-0.0563 0.25199,0 0.37798,0 0.126,0 0.25199,0 0.37796,0 0.75597,0 1.51191,0 2.26787,0 0.126,0 0.25199,0 0.37796,0 0.126,0 0.2889,0.0891 0.37799,0 0.0891,-0.0891 -0.0891,-0.28889 0,-0.37798 0.0891,-0.0891 0.25198,0 0.37798,0 0.75594,0 1.51191,0 2.26785,0 0.62997,0 1.25992,0 1.88989,0 0.126,0 0.28887,-0.0891 0.37796,0 0.0891,0.0891 -0.0891,0.28889 0,0.37798 0.1782,0.17818 0.53059,-0.1127 0.75597,0 0.15935,0.0797 0.21859,0.29829 0.37798,0.37797 0.26106,0.13054 1.7572,-0.13267 1.88987,0 0.0891,0.0891 -0.0891,0.28889 0,0.37798 0.0891,0.0891 0.25198,0 0.37798,0 0.17822,0 1.87275,-0.0171 1.88987,0 0.0891,0.0891 -0.0891,0.28889 0,0.37798 0.0891,0.0891 0.25198,0 0.37798,0 0.62997,0 1.25992,0 1.88989,0 0.126,0 0.25199,0 0.37796,0 0.12599,0 0.2889,0.0891 0.37798,0 0.0891,-0.0891 -0.0891,-0.28889 0,-0.37798 0.0891,-0.0891 0.25199,0 0.37799,0 0.12599,0 0.25199,0 0.37798,0 1.00793,0 2.01586,0 3.02379,0 0.12599,0 0.2889,-0.0891 0.37798,0 0.0891,0.0891 -0.0891,0.28889 0,0.37798 0.0891,0.0891 0.25199,0 0.37799,0 0.12599,0 0.25199,0 0.37796,0 1.00795,0 2.01588,0 3.02381,0 0.126,0 0.25199,0 0.37799,0 0.12599,0 0.28887,-0.0891 0.37798,0 0.0891,0.0891 -0.0891,0.28888 0,0.37797 0.11702,0.11704 1.77284,-0.11704 1.88987,0 0.0891,0.0891 -0.0891,0.28889 0,0.37798 0.0891,0.0891 0.25198,0 0.37798,0 0.62995,0 1.25992,0 1.88987,0 0.12599,0 0.28889,-0.0891 0.37798,0 0.0891,0.0891 -0.0891,0.28888 0,0.37797 0.0891,0.0891 0.25199,0 0.37798,0 0.75594,0 1.51191,0 2.26785,0 0.126,0 0.2653,0.0564 0.37799,0 0.15935,-0.0797 0.21859,-0.29829 0.37798,-0.37797 0.0994,-0.0497 1.31424,0 1.51188,0 1.00796,0 2.01589,0 3.02382,0 0.12599,0 0.25199,0 0.37798,0 0.126,0 0.28887,-0.0891 0.37799,0 0.0891,0.0891 -0.0891,0.28888 0,0.37797 0.0772,0.0773 0.98406,-0.0749 1.13392,0 0.15936,0.0797 0.2186,0.29829 0.37796,0.37798 0.30239,0.15119 0.83156,-0.15119 1.13395,0 0.15936,0.0797 0.2186,0.29829 0.37796,0.37798 0.11268,0.0563 0.25199,0 0.37798,0 0.126,0 0.25199,0 0.37798,0 0.75595,0 1.51191,0 2.26785,0 2.51984,0 5.03968,0 7.55952,0 1.00796,0 2.01589,0 3.02382,0 0.12599,0 0.2889,0.0891 0.37798,0 0.0891,-0.0891 -0.0891,-0.28889 0,-0.37798 0.18899,-0.18899 0.94493,0.18899 1.13393,0 0.0891,-0.0891 -0.0564,-0.26529 0,-0.37798 0.15935,-0.31873 0.59658,-0.43721 0.75594,-0.75595 0.0564,-0.11269 -0.0563,-0.26529 0,-0.37797 0.78652,-1.57305 -0.0262,0.40407 0.75596,-0.37798 0.0891,-0.0891 -0.0891,-0.28889 0,-0.37798 0.0891,-0.0891 0.28888,0.0891 0.37796,0 0.0891,-0.0891 -0.0891,-0.28888 0,-0.37797 0.0891,-0.0891 0.2889,0.0891 0.37799,0 0.0891,-0.0891 -0.0891,-0.28889 0,-0.37798 0.78205,-0.78204 -0.0306,1.19507 0.75596,-0.37798 0.0563,-0.11269 -0.0564,-0.26528 0,-0.37797 0.0797,-0.15937 0.29829,-0.21861 0.37796,-0.37798 0.0564,-0.11269 -0.0891,-0.28889 0,-0.37797 0.0891,-0.0891 0.2889,0.0891 0.37798,0 0.0891,-0.0891 -0.0564,-0.26529 0,-0.37798 0.0797,-0.15937 0.29829,-0.21861 0.37799,-0.37798 0.0563,-0.11269 -0.0891,-0.28888 0,-0.37797 0.0891,-0.0891 0.28887,0.0891 0.37795,0 0.0891,-0.0891 -0.0563,-0.26529 0,-0.37798 0.0797,-0.15937 0.2983,-0.21861 0.37799,-0.37797 0.0563,-0.1127 -0.0891,-0.28889 0,-0.37798 0.0891,-0.0891 0.2889,0.0891 0.37798,0 0.0891,-0.0891 -0.0564,-0.26529 0,-0.37798 1.2536,-1.25359 -0.17817,0.35636 0.37799,-0.75595 0.28551,-0.57105 0.4704,-0.1849 0.75594,-0.75595 0.0563,-0.11269 -0.0891,-0.28889 0,-0.37798 0.0891,-0.0891 0.2889,0.0891 0.37798,0 0.0891,-0.0891 -0.0564,-0.26529 0,-0.37797 0.0797,-0.15937 0.29829,-0.21861 0.37796,-0.37798 0.0564,-0.11269 -0.0891,-0.28889 0,-0.37798 0.0891,-0.0891 0.2889,0.0891 0.37798,0 0.0891,-0.0891 -0.0563,-0.26528 0,-0.37797 0.2268,-0.45357 0.90715,-0.68036 1.13393,-1.13393 0.0564,-0.11269 -0.0891,-0.28889 0,-0.37798 0.0891,-0.0891 0.28889,0.0891 0.37798,0 0.0891,-0.0891 -0.0891,-0.28889 0,-0.37797 0.0891,-0.0891 0.2889,0.0891 0.37798,0 0.17817,-0.17818 -0.17819,-0.57778 0,-0.75596 0.0891,-0.0891 0.28888,0.0891 0.37796,0 0.1782,-0.17818 -0.11268,-0.53057 0,-0.75595 0.46707,-0.93413 0.37798,0.13047 0.37798,-0.75595"
       id="path6606"
       inkscape:connector-curvature="0" />
  </g>
</svg>
