<?xml version="1.0" encoding="UTF-8" standalone="no"?>
<!-- Created with Inkscape (http://www.inkscape.org/) -->

<svg
   xmlns:dc="http://purl.org/dc/elements/1.1/"
   xmlns:cc="http://creativecommons.org/ns#"
   xmlns:rdf="http://www.w3.org/1999/02/22-rdf-syntax-ns#"
   xmlns:svg="http://www.w3.org/2000/svg"
   xmlns="http://www.w3.org/2000/svg"
   xmlns:xlink="http://www.w3.org/1999/xlink"
   xmlns:sodipodi="http://sodipodi.sourceforge.net/DTD/sodipodi-0.dtd"
   xmlns:inkscape="http://www.inkscape.org/namespaces/inkscape"
   width="1865.3333"
   height="566.66669"
   viewBox="0 0 493.5361 149.93056"
   version="1.1"
   id="svg5943"
   inkscape:version="0.92.3 (2405546, 2018-03-11)"
   sodipodi:docname="krasnenkaya-k-channel.svg">
  <defs
     id="defs5937" />
  <sodipodi:namedview
     id="base"
     pagecolor="#ffffff"
     bordercolor="#666666"
     borderopacity="1.0"
     inkscape:pageopacity="0.0"
     inkscape:pageshadow="2"
     inkscape:zoom="0.49497475"
     inkscape:cx="903.19077"
     inkscape:cy="360.67525"
     inkscape:document-units="mm"
     inkscape:current-layer="layer1"
     showgrid="false"
     fit-margin-top="0"
     fit-margin-left="0"
     fit-margin-right="0"
     fit-margin-bottom="0"
     units="px"
     inkscape:window-width="1366"
     inkscape:window-height="715"
     inkscape:window-x="0"
     inkscape:window-y="0"
     inkscape:window-maximized="1" />
  <metadata
     id="metadata5940">
    <rdf:RDF>
      <cc:Work
         rdf:about="">
        <dc:format>image/svg+xml</dc:format>
        <dc:type
           rdf:resource="http://purl.org/dc/dcmitype/StillImage" />
        <dc:title></dc:title>
      </cc:Work>
    </rdf:RDF>
  </metadata>
  <g
     inkscape:label="Layer 1"
     inkscape:groupmode="layer"
     id="layer1"
     transform="translate(0.15595132,0.0017341)">
    <image
       sodipodi:absref="/home/aanper/project/luysy-imn-eh/pi/boot/bydefault/web/img/krasnenkaya.png"
       y="-0.001734099"
       x="-0.15595132"
       id="image6547"
       xlink:href="file:///home/aanper/project/luysy-imn-eh/pi/boot/bydefault/web/img/krasnenkaya.png"
       preserveAspectRatio="none"
       height="149.93056"
       width="493.5361" />
    <ellipse
       style="fill:none;fill-opacity:1;stroke:#00ff00;stroke-width:0.30000001;stroke-miterlimit:4;stroke-dasharray:none;stroke-opacity:1;paint-order:stroke fill markers"
       id="path6550"
       cx="294.28751"
       cy="104.76067"
       rx="2.2678571"
       ry="2.0788691" />
    <circle
       style="fill:none;fill-opacity:1;stroke:#00ff00;stroke-width:0.30000001;stroke-miterlimit:4;stroke-dasharray:none;stroke-opacity:1;paint-order:stroke fill markers"
       id="path6552"
       cx="409.43457"
       cy="111.70928"
       r="1.0690781" />
    <ellipse
       style="fill:none;fill-opacity:1;stroke:#00ff00;stroke-width:0.30000001;stroke-miterlimit:4;stroke-dasharray:none;stroke-opacity:1;paint-order:stroke fill markers"
       id="path6554"
       cx="485.53958"
       cy="63.133045"
       rx="1.1358955"
       ry="1.2695302" />
    <path
       style="fill:none;fill-opacity:1;stroke:#00ff00;stroke-width:0.30000001;stroke-miterlimit:4;stroke-dasharray:none;stroke-opacity:1;paint-order:stroke fill markers"
       d="m 407.16281,113.58017 c -0.1782,0.71272 -0.35637,1.42544 -0.53454,2.13816 -0.1782,0 -0.40854,-0.126 -0.53454,0 -0.25199,0.25198 0.25197,0.81709 0,1.06907 -0.12599,0.126 -0.40854,-0.12599 -0.53453,0 -0.25199,0.25199 0.25196,0.8171 0,1.06908 -0.126,0.12599 -0.40857,-0.12599 -0.53454,0 -0.126,0.12599 0.0797,0.37517 0,0.53454 -0.11271,0.22538 -0.42185,0.30916 -0.53454,0.53454 -0.0797,0.15937 0.0797,0.37517 0,0.53454 -0.11271,0.22538 -0.42185,0.30916 -0.53456,0.53454 -0.0797,0.15937 0.12599,0.40855 0,0.53454 -0.12597,0.12599 -0.40855,-0.12599 -0.53454,0 -0.12597,0.12599 0.0797,0.37517 0,0.53454 -0.11269,0.22538 -0.42183,0.30915 -0.53454,0.53454 -0.0797,0.15937 0,0.35636 0,0.53453 -0.17817,0.17818 -0.42182,0.30916 -0.53454,0.53454 -0.0797,0.15937 0.126,0.40855 0,0.53454 -0.12599,0.12599 -0.40854,-0.12599 -0.53453,0 -0.126,0.12599 0.12599,0.40855 0,0.53454 -0.126,0.12599 -0.40855,-0.12599 -0.53454,0 -0.126,0.12599 0.0797,0.37517 0,0.53454 -0.11269,0.22538 -0.42185,0.30916 -0.53454,0.53454 -0.0797,0.15937 0.12599,0.40855 0,0.53454 -0.12599,0.12599 -0.40854,-0.12599 -0.53454,0 -0.12599,0.12599 0.126,0.40855 0,0.53454 -0.3565,0.35649 -0.71257,-0.35649 -1.06907,0 -0.126,0.12599 0.12599,0.40854 0,0.53454 -0.126,0.12599 -0.40855,-0.126 -0.53454,0 -0.126,0.12599 0.12599,0.40854 0,0.53454 -0.126,0.12599 -0.37518,-0.0797 -0.53454,0 -0.22537,0.11269 -0.30916,0.42185 -0.53454,0.53453 -0.31874,0.15937 -0.75033,-0.15937 -1.06907,0 -0.2254,0.1127 -0.30917,0.42185 -0.53454,0.53454 -0.15938,0.0797 -0.37518,-0.0797 -0.53454,0 -0.2254,0.1127 -0.30916,0.42185 -0.53453,0.53454 -0.13822,0.0691 -2.82837,0 -3.20726,0 -0.17817,0 -0.40854,-0.12599 -0.53453,0 -0.126,0.12599 0.12599,0.40855 0,0.53454 -0.0172,0.0172 -1.47397,0 -1.60362,0 -2.67269,0 -5.34537,0 -8.01809,0 -2.31632,0 -4.63267,0 -6.94899,0 -0.37888,0 -3.06903,0.0691 -3.20725,0 -0.22537,-0.11269 -0.30914,-0.42185 -0.53454,-0.53454 -0.15936,-0.0797 -0.35634,0 -0.53454,0 -0.17817,0 -0.35634,0 -0.53454,0 -1.06907,0 -2.13815,0 -3.20722,0 -1.78181,0 -3.5636,0 -5.34541,0 -0.45257,0 -1.85078,-0.0958 -2.13815,0 -0.23905,0.0797 -0.30914,0.42185 -0.53453,0.53454 -0.15936,0.0797 -0.35637,0 -0.53454,0 -0.35637,0 -0.71271,0 -1.06908,0 -1.42544,0 -2.85088,0 -4.2763,0 -4.63269,0 -9.26536,0 -13.89803,0 -9.79988,0 -19.59975,0 -29.39965,0 -3.20723,0 -6.41446,0 -9.62168,0 -1.06911,0 -2.13818,0 -3.20726,0 -0.35634,0 -0.72334,0.0864 -1.06907,0 -0.38653,-0.0966 -0.68255,-0.43791 -1.06908,-0.53454 -0.83849,-0.20962 -1.83419,0.20963 -2.67269,0 -0.38653,-0.0966 -0.69111,-0.40854 -1.06907,-0.53454 -0.51221,-0.17073 -2.1775,0.16507 -2.67272,0 -0.23905,-0.0797 -0.29548,-0.45485 -0.53453,-0.53454 -0.24469,-0.0816 -2.37432,0 -2.67269,0 -0.17817,0 -0.3655,0.0564 -0.53454,0 -0.37798,-0.12599 -0.69109,-0.40854 -1.06908,-0.53453 -0.45005,-0.15002 -2.35444,0.15912 -2.67268,0 -1.32107,-0.66054 0.18449,-0.53454 -1.06908,-0.53454 -1.06907,0 -2.13818,0 -3.20725,0 -0.24072,0 -1.44092,0.0813 -1.60361,0 -0.22538,-0.11269 -0.29549,-0.45486 -0.53454,-0.53454 -0.5071,-0.16904 -1.06908,0 -1.60362,0 -0.8909,0 -1.78181,0 -2.67268,0 -0.1782,0 -0.35637,0 -0.53454,0 -0.1782,0 -0.37518,0.0797 -0.53454,0 -0.2254,-0.11269 -0.30917,-0.42185 -0.53454,-0.53454 -0.33724,-0.16861 -2.33547,0.16861 -2.67271,0 -0.22537,-0.11269 -0.30914,-0.42185 -0.53454,-0.53454 -0.33721,-0.16861 -2.33546,0.16861 -2.67269,0 -0.22538,-0.11269 -0.30916,-0.42185 -0.53454,-0.53454 -0.33722,-0.16861 -2.33547,0.16861 -2.67269,0 -0.22539,-0.11269 -0.30916,-0.42185 -0.53454,-0.53454 -0.14055,-0.0703 -1.85864,0 -2.13816,0 -1.24726,0 -2.49451,0 -3.74177,0 -0.17818,0 -0.40855,0.12599 -0.53454,0 -0.12599,-0.12599 0.12599,-0.40855 0,-0.53454 -0.10928,-0.10928 -1.39168,0.10597 -1.60362,0 -0.22538,-0.11269 -0.30915,-0.42184 -0.53454,-0.53454 -0.31874,-0.15936 -0.75034,0.15937 -1.06908,0 -0.22538,-0.11269 -0.30915,-0.42184 -0.53453,-0.53454 -0.31539,-0.15769 -1.23595,0.12256 -1.60362,0 -0.37798,-0.12599 -0.6911,-0.40854 -1.06908,-0.53453 -0.36767,-0.12256 -1.28823,0.15769 -1.60362,0 -0.22538,-0.1127 -0.29548,-0.45486 -0.53454,-0.53454 -0.33807,-0.1127 -0.71271,0 -1.06907,0 -0.17818,0 -0.37517,0.0797 -0.53454,0 -0.22538,-0.1127 -0.30916,-0.42185 -0.53454,-0.53454 -0.15937,-0.0797 -0.36551,0.0563 -0.53454,0 -0.37798,-0.12599 -0.6911,-0.40855 -1.06908,-0.53454 -0.16903,-0.0564 -0.37517,0.0797 -0.53454,0 -0.22538,-0.11269 -0.29548,-0.45486 -0.53454,-0.53454 -0.33807,-0.11269 -0.71272,0 -1.06908,0 -0.17817,0 -0.37516,0.0797 -0.53453,0 -0.22539,-0.11269 -0.35636,-0.35636 -0.53454,-0.53454 -0.35636,0 -0.73101,0.11269 -1.06908,0 -0.23905,-0.0797 -0.29549,-0.45485 -0.53454,-0.53454 -0.33807,-0.11269 -0.73101,0.11269 -1.06908,0 -0.23905,-0.0797 -0.29548,-0.45485 -0.53454,-0.53454 -0.33807,-0.11269 -0.731,0.11269 -1.06908,0 -0.23905,-0.0797 -0.29548,-0.45485 -0.53453,-0.53454 -0.33808,-0.11269 -0.73101,0.11269 -1.06908,0 -0.23906,-0.0797 -0.29549,-0.45485 -0.53454,-0.53454 -0.33807,-0.11269 -0.73101,0.11269 -1.06908,0 -0.23905,-0.0797 -0.35636,-0.35636 -0.53454,-0.53453 -0.35636,0 -0.72336,0.0864 -1.06908,0 -0.96748,0.32218 -0.99414,-0.86593 -1.60361,-1.06908 -0.33808,-0.11269 -0.72336,0.0864 -1.06908,0 -0.38653,-0.0966 -0.71272,-0.35636 -1.06908,-0.53454 -0.71272,-0.35636 -1.3822,-0.8171 -2.13816,-1.06908 -0.16903,-0.0563 -0.3655,0.0564 -0.53453,0 -0.37798,-0.12599 -0.71272,-0.35636 -1.06908,-0.53454 -0.35636,-0.17818 -0.73757,-0.31353 -1.06908,-0.53454 -0.20966,-0.13978 -0.29549,-0.45485 -0.53454,-0.53454 -0.33807,-0.11269 -0.72336,0.0864 -1.06908,0 -0.96748,0.32218 -0.99415,-0.86592 -1.60361,-1.06907 -0.33808,-0.1127 -0.73101,0.11268 -1.06908,0 -0.23906,-0.0797 -0.32488,-0.39477 -0.53454,-0.53454 -0.33151,-0.22101 -0.69111,-0.40855 -1.06908,-0.53454 -0.16904,-0.0563 -0.3655,0.0563 -0.53454,0 -0.37798,-0.126 -0.6911,-0.40855 -1.06908,-0.53454 -0.16903,-0.0563 -0.3655,0.0563 -0.53454,0 -0.37797,-0.12599 -0.73757,-0.31354 -1.06908,-0.53454 -0.20966,-0.13978 -0.29548,-0.45486 -0.53453,-0.53454 -0.33808,-0.11269 -0.73101,0.11269 -1.06908,0 -0.23905,-0.0797 -0.30916,-0.42185 -0.53454,-0.53454 -0.15937,-0.0797 -0.3655,0.0563 -0.53454,0 -0.37798,-0.12599 -0.6911,-0.40855 -1.06908,-0.53454 -0.16903,-0.0563 -0.37517,0.0797 -0.53454,0 -0.22538,-0.11269 -0.29548,-0.45485 -0.53454,-0.53454 -0.33807,-0.11269 -0.731,0.11269 -1.06908,0 -0.23905,-0.0797 -0.30915,-0.42185 -0.53453,-0.53454 -0.15937,-0.0797 -0.36551,0.0563 -0.53454,0 -3.87189,-1.29063 0.84275,0.15411 -1.60362,-1.06907 -0.15937,-0.0797 -0.37517,0.0797 -0.53454,0 -0.22538,-0.1127 -0.30916,-0.42185 -0.53454,-0.53455 -0.15937,-0.0797 -0.37517,0.0797 -0.53454,0 -0.64144,-0.32072 -0.96217,-1.28289 -1.60361,-1.60361 -0.15937,-0.0797 -0.37518,0.0797 -0.53454,0 -0.64145,-0.32072 -0.96217,-1.28289 -1.60362,-1.60362 -0.15937,-0.0797 -0.37517,0.0797 -0.53454,0 -0.45076,-0.22538 -0.61832,-0.84369 -1.06908,-1.06908 -0.15937,-0.0797 -0.37517,0.0797 -0.53454,0 -0.45076,-0.225378 -0.61831,-0.843693 -1.06907,-1.069076 -0.15937,-0.07968 -0.37518,0.07968 -0.53454,0 -0.45077,-0.22538 -0.61832,-0.843695 -1.06908,-1.069078 -0.15937,-0.07968 -0.37517,0.07968 -0.53454,0 -0.45076,-0.22538 -0.61832,-0.843695 -1.06908,-1.069078 -0.15937,-0.07968 -0.37517,0.07969 -0.53454,0 -0.45076,-0.22538 -0.61831,-0.843695 -1.06908,-1.069078 -0.15937,-0.07968 -0.37517,0.07968 -0.53453,0 -2.44638,-1.223187 2.26827,0.221552 -1.60362,-1.069078 -0.16904,-0.05634 -0.37517,0.07968 -0.53454,0 -0.45076,-0.22538 -0.61832,-0.843695 -1.06908,-1.069078 -0.15937,-0.07968 -0.3655,0.05635 -0.53454,0 -3.87189,-1.290629 0.84276,0.154109 -1.60361,-1.069078 -0.15937,-0.07968 -0.37518,0.07968 -0.53455,0 -2.44637,-1.223187 2.26828,0.221552 -1.60361,-1.069078 -0.16904,-0.05635 -0.35636,0 -0.53454,0 -0.17818,-0.178178 -0.30916,-0.421849 -0.53454,-0.534538 -0.15937,-0.07968 -0.37517,0.07968 -0.53454,0 -0.22538,-0.112691 -0.30916,-0.421849 -0.53454,-0.53454 -0.15937,-0.07968 -0.37517,0.07968 -0.53454,0 -0.45076,-0.22538 -0.61831,-0.843695 -1.06908,-1.069078 -0.15936,-0.07969 -0.37517,0.07968 -0.53454,0 -0.22538,-0.112691 -0.30915,-0.421849 -0.53453,-0.534538 -0.15937,-0.07968 -0.37517,0.07969 -0.53454,0 -0.22538,-0.112691 -0.30916,-0.421849 -0.53454,-0.53454 -0.15937,-0.07968 -0.40855,0.125992 -0.53454,0 -0.12599,-0.125992 0.12599,-0.408546 0,-0.534538 -0.12599,-0.125992 -0.37517,0.07968 -0.53454,0 -0.22538,-0.112691 -0.30916,-0.421849 -0.53454,-0.53454 -0.15937,-0.07968 -0.40855,0.125992 -0.53454,0 -0.12599,-0.125992 0.12599,-0.408546 0,-0.534538 -0.25198,-0.251984 -0.81709,0.251984 -1.06908,0 -0.12599,-0.125992 0.126,-0.408548 0,-0.53454 -0.12599,-0.125992 -0.37517,0.07968 -0.53454,0 -0.22538,-0.112691 -0.30915,-0.421849 -0.53453,-0.534538 -0.15937,-0.07968 -0.37517,0.07969 -0.53454,0 -0.22538,-0.112691 -0.30916,-0.421849 -0.53454,-0.53454 -0.15937,-0.07968 -0.40855,0.125992 -0.53454,0 -0.12599,-0.125992 0.12599,-0.408546 0,-0.534538 -0.12599,-0.125992 -0.35636,0 -0.53454,0 -0.17818,0 -0.35636,0 -0.53454,0 -0.73345,0 -1.73058,-0.280622 -2.13816,0.534538 -0.0797,0.159369 0.126,0.408548 0,0.53454 -0.12599,0.125992 -0.40854,-0.125992 -0.53453,0 -0.25199,0.251984 0.25198,0.817094 0,1.069078 -0.126,0.125992 -0.40855,-0.125992 -0.53454,0 -0.126,0.125992 0.0797,0.375169 0,0.534538 -0.1127,0.225383 -0.42185,0.309158 -0.53454,0.53454 -0.0797,0.159369 0.0797,0.375169 0,0.534538 -0.11269,0.225383 -0.42185,0.309158 -0.53454,0.53454 -0.0797,0.159369 0.0797,0.375169 0,0.534538 -0.22538,0.450763 -0.8437,0.618315 -1.06908,1.069078 -0.0797,0.159369 0.0797,0.375171 0,0.53454 -0.11269,0.22538 -0.45485,0.295484 -0.53454,0.534538 0,2.433376 0.25199,0.03057 -0.53454,1.603618 -0.15937,0.318736 0.15937,0.75034 0,1.069079 -0.11269,0.22538 -0.42185,0.309157 -0.53454,0.534537 -0.0797,0.159369 0.0797,0.375171 0,0.534541 -0.11269,0.22538 -0.42185,0.309157 -0.53454,0.534537 -0.0797,0.159369 0.0797,0.375172 0,0.534541 -0.11269,0.22538 -0.42185,0.309157 -0.53453,0.534537 -0.15937,0.318739 0.25198,0.817095 0,1.069078 -0.126,0.125992 -0.40855,-0.125992 -0.53454,0 -0.25199,0.251984 0.15936,0.750343 0,1.069078 -0.1127,0.225383 -0.42185,0.309158 -0.53454,0.534541 -0.21382,0.427625 0.21381,1.175985 0,1.603615 -0.11269,0.22538 -0.42185,0.30916 -0.53454,0.53454 -0.21382,0.42763 0.21381,1.17599 0,1.60362 -0.11269,0.22538 -0.42185,0.30915 -0.53454,0.53454 -0.0797,0.15937 0.0564,0.3655 0,0.53453 -0.12599,0.37798 -0.40855,0.69111 -0.53454,1.06908 -0.0564,0.16904 0.0797,0.37517 0,0.53454 -0.11269,0.22539 -0.39476,0.32488 -0.53454,0.53454 -1.17768,0.26919 -0.28255,1.09965 -0.53454,1.60362 -0.11269,0.22538 -0.42185,0.30916 -0.53454,0.53454 -0.0797,0.15937 0.0797,0.37517 0,0.53454 -0.11269,0.22538 -0.42185,0.30915 -0.53454,0.53454 -0.0797,0.15936 0.126,0.40854 0,0.53454 -0.12599,0.12599 -0.40854,-0.126 -0.53453,0 -1.10599,1.10597 1.69008,-0.0432 -0.53454,1.06907 -0.15937,0.0797 -0.40855,-0.12599 -0.53454,0 -0.12599,0.126 0.12599,0.40855 0,0.53454 -0.12599,0.126 -0.40855,-0.12599 -0.53454,0 -0.12599,0.126 0.0797,0.37517 0,0.53454 -0.11269,0.22538 -0.35636,0.35636 -0.53454,0.53454 -0.17818,0.17818 -0.30916,0.42185 -0.53454,0.53454 -0.15937,0.0797 -0.40855,-0.12599 -0.53454,0 -0.12599,0.12599 0.12599,0.40855 0,0.53454 -0.12599,0.12599 -0.37517,-0.0797 -0.53454,0 -0.22538,0.11269 -0.30916,0.42185 -0.53454,0.53454 -0.1382,0.0691 -2.82835,0 -3.20723,0 -0.17818,0 -0.40855,0.12599 -0.53454,0 -0.12599,-0.12599 0.12599,-0.40855 0,-0.53454 -0.25198,-0.25198 -0.75034,0.15937 -1.06908,0 -0.22538,-0.11269 -0.30916,-0.42185 -0.53454,-0.53454 -0.15937,-0.0797 -0.37517,0.0797 -0.53454,0 -0.45076,-0.22538 -0.61831,-0.8437 -1.06908,-1.06908 -0.15936,-0.0797 -0.37517,0.0797 -0.53454,0 -1.77284,-1.77284 0.50397,0.25199 -1.06907,-0.53454 -0.45077,-0.22538 -0.61832,-0.84369 -1.06908,-1.06907 -0.15937,-0.0797 -0.37517,0.0797 -0.53454,0 -0.45076,-0.22539 -0.61831,-0.8437 -1.06908,-1.06908 -0.15937,-0.0797 -0.37517,0.0797 -0.53454,0 -0.45076,-0.22539 -0.61831,-0.8437 -1.06908,-1.06908 -0.15936,-0.0797 -0.37516,0.0797 -0.53453,0 -0.22539,-0.11269 -0.30916,-0.42185 -0.53454,-0.53454 -0.15937,-0.0797 -0.37517,0.0797 -0.53454,0 -0.22538,-0.11269 -0.30916,-0.42185 -0.53454,-0.53454 -0.31874,-0.15937 -0.75034,0.15937 -1.06908,0 -0.22538,-0.11269 -0.30916,-0.42185 -0.53454,-0.53454 -0.31874,-0.15937 -0.75034,0.15937 -1.06908,0 -0.22538,-0.11269 -0.30915,-0.42185 -0.53454,-0.53454 -0.15937,-0.0797 -0.37516,0.0797 -0.53453,0 -0.22539,-0.11269 -0.30916,-0.42185 -0.53454,-0.53454 -0.42763,-0.21381 -1.17599,0.21382 -1.60362,0 -0.22538,-0.11269 -0.30916,-0.42185 -0.53454,-0.53454 -0.31874,-0.15936 -0.81709,0.25199 -1.06908,0 -0.12599,-0.12599 0.12599,-0.40854 0,-0.53453 -0.25198,-0.25199 -0.75034,0.15936 -1.06908,0 -0.22538,-0.1127 -0.30915,-0.42185 -0.53453,-0.53455 -0.15937,-0.0797 -0.37518,0.0797 -0.53454,0 -0.22538,-0.11268 -0.30916,-0.42184 -0.53454,-0.53453 -0.15937,-0.0797 -0.37517,0.0797 -0.53454,0 -0.22538,-0.11269 -0.30916,-0.42185 -0.53454,-0.53454 -0.15937,-0.0797 -0.37517,0.0797 -0.53454,0 -0.22538,-0.11269 -0.30916,-0.42185 -0.53454,-0.53454 -0.15937,-0.0797 -0.37517,0.0797 -0.53454,0 -0.45076,-0.22538 -0.59097,-0.90971 -1.06908,-1.06908 -0.33807,-0.11269 -0.731,0.11269 -1.06907,0 -0.23906,-0.0797 -0.30916,-0.42185 -0.53454,-0.53454 -0.15937,-0.0797 -0.37517,0.0797 -0.53454,0 -2.44638,-1.22319 2.26827,0.22155 -1.60362,-1.06908 -0.16904,-0.0563 -0.37517,0.0797 -0.53454,0 -0.22538,-0.11269 -0.30916,-0.421844 -0.53454,-0.534535 -0.31873,-0.159369 -0.75034,0.159369 -1.06908,0 -1.77284,-1.772843 0.50397,0.251984 -1.06908,-0.534541 -0.22538,-0.112688 -0.30915,-0.421846 -0.53453,-0.534537 -0.31874,-0.159369 -0.75034,0.159369 -1.06908,0 -0.22538,-0.112692 -0.30916,-0.421849 -0.53454,-0.534541 -0.15937,-0.07968 -0.40855,0.125992 -0.53454,0 -0.12599,-0.125992 0.12599,-0.408545 0,-0.534537 -0.26727,-0.267269 -1.33635,0.267269 -1.60362,0 -0.12599,-0.125992 0.12599,-0.408549 0,-0.534541 -0.25198,-0.251984 -0.81709,0.251984 -1.06908,0 -0.12599,-0.125992 0.126,-0.408545 0,-0.534537 -0.12599,-0.125992 -0.37516,0.07968 -0.53453,0 -0.22539,-0.112692 -0.30916,-0.421849 -0.53454,-0.534541 -0.15937,-0.07968 -0.40855,0.125992 -0.53454,0 -0.12599,-0.125992 0.12599,-0.408545 0,-0.534537 -0.12599,-0.125992 -0.37517,0.07968 -0.53454,0 -0.22538,-0.112692 -0.30916,-0.421849 -0.53454,-0.534541 -0.15937,-0.07968 -0.40855,0.125992 -0.53454,0 -0.12599,-0.125992 0.12599,-0.408546 0,-0.534537 -0.25198,-0.251984 -0.81709,0.251983 -1.06908,0 -0.12599,-0.125992 0.12599,-0.408549 0,-0.534541 -0.12599,-0.125992 -0.37517,0.07968 -0.53454,0 -0.22538,-0.112691 -0.30915,-0.421846 -0.53454,-0.534538 -0.15936,-0.07968 -0.40854,0.125992 -0.53453,0 -0.126,-0.125991 0.12599,-0.408548 0,-0.53454 -0.25199,-0.251984 -0.75035,0.159369 -1.06908,0 -0.22538,-0.112691 -0.30916,-0.421846 -0.53454,-0.534538 -0.15937,-0.07968 -0.40855,0.125992 -0.53454,0 -0.12599,-0.125991 0.12599,-0.408548 0,-0.53454 -0.12599,-0.125992 -0.375171,0.07968 -0.53454,0 -0.22538,-0.112691 -0.309157,-0.421849 -0.534537,-0.534538 -0.15937,-0.07968 -0.375172,0.07968 -0.534541,0 -2.224622,-1.112313 0.571442,0.0369 -0.534538,-1.069078 -0.125991,-0.125992 -0.375171,0.07968 -0.53454,0 -1.321062,-0.660532 0.184513,-0.53454 -1.069078,-0.53454 -0.178178,0 -0.356359,0 -0.534538,0 -0.178181,0 -0.375171,0.07968 -0.53454,0 -0.22538,-0.112691 -0.309158,-0.421849 -0.534538,-0.534538 -0.159369,-0.07968 -0.356359,0 -0.53454,0 -0.178178,0 -0.356359,0 -0.534538,0 -0.890899,0 -1.781796,0 -2.672696,0 -0.129641,0 -1.586426,-0.0172 -1.603616,0 -0.125994,0.125992 0.125992,0.408546 0,0.534538 -0.125994,0.125992 -0.375171,-0.07969 -0.53454,0 -0.225383,0.112691 -0.309158,0.421849 -0.534541,0.53454 -0.159366,0.07968 -0.408545,-0.125992 -0.534537,0 -0.125992,0.125992 0.125992,0.408546 0,0.534538 -0.125992,0.125992 -0.408546,-0.125992 -0.534541,0 -0.125992,0.125992 0.07969,0.375171 0,0.53454 -0.22538,0.450763 -0.843695,0.618316 -1.069078,1.069078 -0.07968,0.15937 0.07968,0.375169 0,0.534538 -1.112311,2.224625 0.0369,-0.571442 -1.069078,0.53454 -0.125992,0.125992 0.07968,0.375169 0,0.534538 -0.112688,0.225383 -0.421846,0.309158 -0.534537,0.534541 -0.15937,0.318735 0.159369,0.750339 0,1.069078 -0.112692,0.22538 -0.421849,0.309157 -0.534541,0.534537 -0.07968,0.159369 0.07969,0.375172 0,0.534541 -0.112688,0.22538 -0.421846,0.309157 -0.534538,0.534537 -0.07968,0.159369 0.07968,0.375172 0,0.534541 -0.112691,0.22538 -0.421849,0.309157 -0.53454,0.534537 -0.07968,0.15937 0.07968,0.375172 0,0.534541 -0.112689,0.22538 -0.421846,0.309157 -0.534538,0.534537 -0.159369,0.318739 0.15937,0.750343 0,1.069076 -0.112691,0.22539 -0.421849,0.30916 -0.53454,0.53454 -0.07968,0.15937 0.07968,0.37517 0,0.53454 -0.112689,0.22538 -0.421846,0.30916 -0.534538,0.53454 -0.07968,0.15937 0.07968,0.37517 0,0.53454 -0.112691,0.22538 -0.421849,0.30916 -0.53454,0.53454 -0.159366,0.31874 0.251984,0.81709 0,1.06908 -0.125992,0.12599 -0.408546,-0.12599 -0.534538,0 -0.251984,0.25198 0.251984,0.81709 0,1.06908 -0.125992,0.12599 -0.408548,-0.126 -0.53454,0 -0.125992,0.12599 0.07968,0.37517 0,0.53453 -0.112689,0.22539 -0.421846,0.30916 -0.534538,0.53454 -0.07968,0.15937 0.07968,0.37517 0,0.53454 -0.112691,0.22538 -0.421849,0.30916 -0.53454,0.53454 -0.07968,0.15937 0.125992,0.40855 0,0.53454 -0.125992,0.12599 -0.408546,-0.12599 -0.534538,0 -0.125992,0.12599 0.07968,0.37517 0,0.53454 -0.320722,0.64145 -1.282893,0.96217 -1.603618,1.60362 -0.07968,0.15936 0.07968,0.37517 0,0.53454 -0.112689,0.22538 -0.421847,0.30915 -0.534538,0.53454 -0.07968,0.15936 0.125992,0.40854 0,0.53453 -0.125992,0.126 -0.408548,-0.12599 -0.53454,0 -0.125992,0.126 0.07968,0.37517 0,0.53454 -0.112689,0.22538 -0.421847,0.30916 -0.534538,0.53454 -0.07968,0.15937 0.07968,0.37517 0,0.53454 -0.112691,0.22538 -0.421849,0.30916 -0.53454,0.53454 -0.07968,0.15937 0.125992,0.40855 0,0.53454 -0.125992,0.12599 -0.408546,-0.12599 -0.534538,0 -1.105982,1.10598 1.690084,-0.0432 -0.53454,1.06908 -0.159369,0.0797 -0.408546,-0.12599 -0.534538,0 -0.125992,0.12599 0.07968,0.37517 0,0.53454 -0.112691,0.22538 -0.356359,0.35635 -0.53454,0.53454 -0.178179,0.17817 -0.35636,0.35636 -0.534538,0.53453 -0.281416,0.28142 -1.31813,1.46088 -1.603618,1.60362 -0.15937,0.0797 -0.408546,-0.12599 -0.534538,0 -1.105982,1.10598 1.690084,-0.0432 -0.53454,1.06908 -0.15937,0.0797 -0.375169,-0.0797 -0.534538,0 -0.526002,0.263 -1.612157,1.87515 -2.138156,2.13816 -0.159369,0.0797 -0.408549,-0.126 -0.534541,0 -0.125992,0.12599 0.125992,0.40854 0,0.53453 -0.125992,0.126 -0.408545,-0.12599 -0.534537,0 -1.105982,1.10599 1.690084,-0.0432 -0.534541,1.06908 -0.159369,0.0797 -0.408545,-0.12599 -0.534537,0 -1.105983,1.10598 1.690084,-0.0432 -0.534541,1.06908 -0.318738,0.15937 -0.75034,-0.15937 -1.069078,0 -0.22538,0.11269 -0.309157,0.42185 -0.534537,0.53454 -0.427633,0.21382 -1.175989,-0.21381 -1.603619,0 -0.225383,0.11269 -0.309158,0.42185 -0.534538,0.53454 -0.140554,0.0703 -1.858637,0 -2.138158,0 -0.178179,0 -0.408546,-0.12599 -0.534538,0 -0.125992,0.12599 0.125992,0.40855 0,0.53454 -0.125992,0.12599 -0.408546,0.12599 -0.53454,0 -0.125992,-0.12599 0.125994,-0.40855 0,-0.53454 -0.251984,-0.25199 -0.75034,0.15937 -1.069078,0 -0.22538,-0.11269 -0.309158,-0.42185 -0.534538,-0.53454 -0.159369,-0.0797 -0.408549,0.12599 -0.53454,0 -0.125992,-0.12599 0.125991,-0.40855 0,-0.53454 -0.125992,-0.12599 -0.375169,0.0797 -0.534538,0 -0.225383,-0.11269 -0.309158,-0.42185 -0.534541,-0.53454 -0.159366,-0.0797 -0.408545,0.12599 -0.534537,0 -0.125992,-0.12599 0.125992,-0.40855 0,-0.53454 -0.125992,-0.12599 -0.408549,0.12599 -0.534541,0 -0.125992,-0.12599 0.125992,-0.40854 0,-0.53454 -0.125992,-0.12599 -0.408545,0.126 -0.534537,0 -0.125992,-0.12599 0.07968,-0.37517 0,-0.53454 -0.112692,-0.22538 -0.421849,-0.30915 -0.534541,-0.53453 -0.07968,-0.15937 0.07968,-0.37518 0,-0.53454 -0.112688,-0.22538 -0.421846,-0.30916 -0.534537,-0.53454 -0.07969,-0.15937 0.07968,-0.37517 0,-0.53454 -0.112692,-0.22538 -0.421849,-0.30916 -0.534541,-0.53454 -0.159369,-0.31874 0.159369,-0.75034 0,-1.06908 -0.112688,-0.22538 -0.421846,-0.30916 -0.534537,-0.53454 -0.07968,-0.15937 0.05635,-0.3655 0,-0.53454 -1.29063,-3.87188 0.154109,0.84276 -1.069078,-1.60361 -0.07968,-0.15937 0.07968,-0.37518 0,-0.53454 -0.225383,-0.45076 -0.843698,-0.61832 -1.069078,-1.06908 -0.07969,-0.15937 0.07968,-0.37517 0,-0.53454 -0.112692,-0.22538 -0.421849,-0.30916 -0.534541,-0.53454 -0.07968,-0.15937 0.07969,-0.37517 0,-0.53454 -1.112311,-2.22462 0.0369,0.57144 -1.069078,-0.53454 -0.125992,-0.12599 0.07968,-0.37517 0,-0.53454 -0.22538,-0.45076 -0.843695,-0.61831 -1.069078,-1.06907 -0.07968,-0.15937 0.125992,-0.40855 0,-0.53454 -0.125992,-0.126 -0.375168,0.0797 -0.534538,0 -0.102322,-0.0512 -2.086996,-2.03584 -2.138156,-2.13816 -0.07968,-0.15937 0.125992,-0.40855 0,-0.53454 -0.125992,-0.12599 -0.408548,0.12599 -0.53454,0 -0.125992,-0.12599 0.125992,-0.40854 0,-0.53454 -0.125992,-0.12599 -0.408546,0.126 -0.534538,0 -0.251984,-0.25198 0.159369,-0.75034 0,-1.06908 -0.112691,-0.22538 -0.421849,-0.30915 -0.53454,-0.53453 -0.07968,-0.15937 0.125992,-0.40855 0,-0.53455 -0.125992,-0.12599 -0.408546,0.126 -0.534538,0 -0.251984,-0.25198 0.251984,-0.81709 0,-1.06907 -0.125992,-0.126 -0.408548,0.12599 -0.53454,0 -0.251984,-0.25199 0.159369,-0.75034 0,-1.06908 -0.112691,-0.22538 -0.421849,-0.30916 -0.534538,-0.53454 -0.07968,-0.15937 0.07968,-0.37517 0,-0.53454 -0.112691,-0.22538 -0.356359,-0.35636 -0.53454,-0.53454 -0.178179,-0.17818 -0.35636,-0.35636 -0.534538,-0.53454 -0.314386,-0.314383 -1.890622,-2.014387 -2.138156,-2.138154 -0.159369,-0.07968 -0.375171,0.07968 -0.53454,0 -0.22538,-0.112688 -0.309158,-0.421846 -0.534538,-0.534537 -0.159369,-0.07968 -0.375171,0.07968 -0.53454,0 -0.22538,-0.112692 -0.309158,-0.421849 -0.534538,-0.534541 -0.159369,-0.07968 -0.408549,0.125992 -0.53454,0 -0.125992,-0.125992 0.125991,-0.408545 0,-0.534537 -0.125992,-0.125992 -0.375172,0.07968 -0.534538,0 -0.225383,-0.112692 -0.309158,-0.421849 -0.534541,-0.534541 -0.159369,-0.07968 -0.408545,0.125992 -0.534537,0 -0.125995,-0.125992 0.07968,-0.375168 0,-0.534537 -0.225383,-0.450763 -0.843698,-0.618316 -1.069078,-1.069078 -0.07968,-0.15937 0.125992,-0.408549 0,-0.534541 -0.125995,-0.125992 -0.408549,0.125992 -0.534541,0 -0.125992,-0.125992 0.07968,-0.375168 0,-0.534538 -0.112691,-0.225382 -0.421849,-0.309157 -0.534537,-0.53454 -0.07969,-0.159369 0.125992,-0.408546 0,-0.534538 -0.125995,-0.125991 -0.408549,0.125992 -0.534541,0 -0.125992,-0.125991 0.07969,-0.375171 0,-0.53454 -0.112691,-0.22538 -0.421849,-0.309158 -0.53454,-0.534538 -0.07968,-0.159369 0.07969,-0.375171 0,-0.53454 -0.112689,-0.22538 -0.421846,-0.309158 -0.534538,-0.534538 -0.07968,-0.159369 0,-0.356359 0,-0.53454 0,-0.178178 0,-0.356359 0,-0.534538 0,-1.069078 0,-2.138156 0,-3.207234 0,-0.240734 0.08134,-1.440939 0,-1.603618 -0.05116,-0.102323 -2.035834,-2.086997 -2.138156,-2.138156 -0.159369,-0.07968 -0.534539,0.178181 -0.534539,0 0,-0.251984 0.356359,-0.35636 0.534539,-0.534538 0.17818,-0.178181 0.35636,-0.356359 0.534538,-0.53454"
       id="path6652"
       inkscape:connector-curvature="0" />
  </g>
</svg>
