<?xml version="1.0" encoding="UTF-8" standalone="no"?>
<!-- Created with Inkscape (http://www.inkscape.org/) -->

<svg
   xmlns:dc="http://purl.org/dc/elements/1.1/"
   xmlns:cc="http://creativecommons.org/ns#"
   xmlns:rdf="http://www.w3.org/1999/02/22-rdf-syntax-ns#"
   xmlns:svg="http://www.w3.org/2000/svg"
   xmlns="http://www.w3.org/2000/svg"
   xmlns:xlink="http://www.w3.org/1999/xlink"
   xmlns:sodipodi="http://sodipodi.sourceforge.net/DTD/sodipodi-0.dtd"
   xmlns:inkscape="http://www.inkscape.org/namespaces/inkscape"
   width="210mm"
   height="297mm"
   viewBox="0 0 210 297"
   version="1.1"
   id="svg4501"
   inkscape:version="0.92.3 (2405546, 2018-03-11)"
   sodipodi:docname="ohta-piskarevka-yandex.svg">
  <defs
     id="defs4495" />
  <sodipodi:namedview
     id="base"
     pagecolor="#ffffff"
     bordercolor="#666666"
     borderopacity="1.0"
     inkscape:pageopacity="0.0"
     inkscape:pageshadow="2"
     inkscape:zoom="0.7"
     inkscape:cx="571.26211"
     inkscape:cy="754.21793"
     inkscape:document-units="mm"
     inkscape:current-layer="layer1"
     showgrid="false"
     inkscape:window-width="1366"
     inkscape:window-height="715"
     inkscape:window-x="0"
     inkscape:window-y="0"
     inkscape:window-maximized="1" />
  <metadata
     id="metadata4498">
    <rdf:RDF>
      <cc:Work
         rdf:about="">
        <dc:format>image/svg+xml</dc:format>
        <dc:type
           rdf:resource="http://purl.org/dc/dcmitype/StillImage" />
        <dc:title></dc:title>
      </cc:Work>
    </rdf:RDF>
  </metadata>
  <g
     inkscape:label="Layer 1"
     inkscape:groupmode="layer"
     id="layer1">
    <image
       sodipodi:absref="/home/aanper/project/luysy-imn-eh/pi/boot/bydefault/web/img/ohta.png"
       xlink:href="/home/aanper/project/luysy-imn-eh/pi/boot/bydefault/web/img/ohta.png"
       width="265.28888"
       height="343.60559"
       preserveAspectRatio="none"
       id="image5121"
       x="-0.02204407"
       y="-0.0074072876" />
    <ellipse
       style="fill:#000000;fill-opacity:1;stroke:#00ff00;stroke-width:0.30000001;stroke-miterlimit:4;stroke-dasharray:none;stroke-opacity:1;paint-order:stroke fill markers"
       id="path5124"
       cx="137.58333"
       cy="52.827377"
       rx="5.2916665"
       ry="4.5357141" />
    <ellipse
       style="fill:#000000;fill-opacity:1;stroke:#00ff00;stroke-width:0.30000001;stroke-miterlimit:4;stroke-dasharray:none;stroke-opacity:1;paint-order:stroke fill markers"
       id="path5126"
       cx="50.45982"
       cy="313.25296"
       rx="2.8348215"
       ry="3.0238097" />
    <circle
       style="fill:#000000;fill-opacity:1;stroke:#00ff00;stroke-width:0.30000001;stroke-miterlimit:4;stroke-dasharray:none;stroke-opacity:1;paint-order:stroke fill markers"
       id="path5128"
       cx="220.73808"
       cy="98.5625"
       r="2.2678571" />
    <path
       style="fill:none;fill-opacity:1;stroke:#00ff00;stroke-width:0.30000001;stroke-miterlimit:4;stroke-dasharray:none;stroke-opacity:1;paint-order:stroke fill markers"
       d="m 176.51488,4.8244045 c -1.59313,0.3030212 -0.0907,1.3152689 -0.37798,1.8898809 -0.0797,0.1593689 -0.29829,0.2186075 -0.37797,0.3779763 -0.11879,0.2375665 0.11878,1.2743384 0,1.5119046 -0.0797,0.1593688 -0.32163,0.2089401 -0.37798,0.3779763 -0.0576,0.1728814 0.0841,1.3437144 0,1.5119044 -0.0797,0.159369 -0.32163,0.20894 -0.37798,0.377977 -0.0671,0.201183 0,2.699396 0,3.023809 0,2.141865 0,4.28373 0,6.425595 0,0.329246 0.0698,2.128346 0,2.267857 -0.0797,0.159369 -0.32163,0.20894 -0.37797,0.377977 -0.0857,0.257137 0.10021,1.689463 0,1.88988 -0.0797,0.159369 -0.29829,0.218608 -0.37798,0.377976 -0.11269,0.225382 0.11269,0.530572 0,0.755953 -0.0797,0.159369 -0.29829,0.218607 -0.37797,0.377976 -0.50422,1.008438 0.50421,-0.252484 0,0.755951 -1.25359,1.253591 0.17817,-0.356359 -0.37798,0.755955 -0.0797,0.159369 -0.29829,0.218606 -0.37798,0.377975 -0.11269,0.22538 0.11269,0.530572 0,0.755952 -0.0797,0.159369 -0.29829,0.218607 -0.37797,0.377976 -0.11269,0.225382 0.11269,0.530571 0,0.755954 -0.0797,0.159367 -0.2983,0.218607 -0.37798,0.377976 -0.11269,0.22538 0.11269,0.530569 0,0.755952 -0.0797,0.159369 -0.29829,0.218606 -0.37798,0.377975 -0.11269,0.225383 0.1127,0.530572 0,0.755952 -0.0797,0.159369 -0.29829,0.218609 -0.37797,0.377978 -0.11269,0.22538 0.11269,0.530569 0,0.755952 -0.0797,0.159369 -0.29829,0.218607 -0.37798,0.377976 -0.0563,0.112691 0.0398,0.25845 0,0.377976 -0.0891,0.267268 -0.28889,0.488682 -0.37797,0.755951 -0.0399,0.119528 0.0563,0.265287 0,0.377979 -0.0797,0.159366 -0.2983,0.218606 -0.37798,0.377975 -0.0563,0.112692 0.0563,0.265285 0,0.377976 -0.0797,0.159369 -0.29829,0.218607 -0.37798,0.377976 -0.0563,0.112691 0.0891,0.288885 0,0.377976 -0.0891,0.08909 -0.28888,-0.08909 -0.37797,0 -0.0891,0.08909 0.0563,0.265287 0,0.377976 -0.0797,0.159369 -0.29829,0.218609 -0.37798,0.377976 -0.0563,0.112691 0.0891,0.288887 0,0.377978 -0.0891,0.08909 -0.28888,-0.08909 -0.37797,0 -0.0891,0.08909 0.0563,0.265284 0,0.377976 -0.0797,0.159369 -0.2983,0.218606 -0.37798,0.377976 -0.0564,0.112691 0.0564,0.265284 0,0.377975 -0.78652,1.573046 0.0261,-0.404069 -0.75595,0.377976 -0.0891,0.08909 0.0563,0.265287 0,0.377976 -1.25359,1.253591 0.17818,-0.356359 -0.37798,0.755954 -0.15937,0.318736 -0.59658,0.437214 -0.75595,0.755952 -0.0564,0.112691 0.0563,0.265284 0,0.377976 -0.0797,0.159369 -0.29829,0.218606 -0.37798,0.377976 -0.0563,0.112691 0.0891,0.288887 0,0.377975 -0.0891,0.08909 -0.28889,-0.08909 -0.37797,0 -0.0891,0.08909 0.0563,0.265287 0,0.377976 -0.0797,0.159369 -0.29829,0.218609 -0.37798,0.377979 -0.0564,0.112688 0.0563,0.265284 0,0.377975 -0.0797,0.15937 -0.29829,0.218607 -0.37798,0.377976 -0.0563,0.112692 0.0564,0.265285 0,0.377976 -0.0797,0.159369 -0.29829,0.218607 -0.37797,0.377976 -0.0564,0.112691 0.0563,0.265287 0,0.377976 -0.15937,0.318738 -0.59659,0.437216 -0.75596,0.755954 -0.11269,0.22538 0.1127,0.530569 0,0.755951 -0.0797,0.15937 -0.29829,0.218607 -0.37797,0.377976 -0.0564,0.112692 0.0563,0.265285 0,0.377976 -0.0797,0.159369 -0.29829,0.218607 -0.37798,0.377976 -0.0563,0.112691 0.0564,0.265287 0,0.377976 -0.0797,0.159369 -0.29829,0.218609 -0.37797,0.377978 -0.11269,0.22538 0.17818,0.577771 0,0.755952 -0.0891,0.08909 -0.28889,-0.08909 -0.37798,0 -0.0891,0.08909 0.0563,0.265284 0,0.377976 -0.0797,0.159369 -0.29829,0.218606 -0.37798,0.377975 -0.0563,0.112692 0.0564,0.265288 0,0.377976 -0.0797,0.159369 -0.29829,0.21861 -0.37797,0.377976 -0.0564,0.112691 0.0891,0.288888 0,0.377978 -0.78205,0.782045 0.0306,-1.19507 -0.75595,0.377976 -0.0564,0.112692 0.0563,0.265285 0,0.377976 -0.0797,0.159369 -0.2983,0.218607 -0.37798,0.377976 -0.0564,0.112691 0.0564,0.265284 0,0.377976 -0.15937,0.318738 -0.59659,0.437216 -0.75595,0.755951 -0.0563,0.112692 0.0563,0.265287 0,0.377979 -0.15937,0.318735 -0.59659,0.437213 -0.75596,0.755951 -0.0563,0.112692 0.0564,0.265285 0,0.377976 -0.0502,0.100357 -1.03357,1.083749 -1.13392,1.133928 -0.11269,0.05635 -0.26529,-0.05634 -0.37798,0 -0.20187,0.100936 -0.93494,0.934939 -1.13393,1.13393 -0.62996,0.629959 -1.25992,1.259919 -1.88988,1.889881 -0.12599,0.125992 -0.25199,0.251984 -0.37798,0.377976 -0.12599,0.125992 -0.2186,0.298291 -0.37797,0.377976 -0.11269,0.05635 -0.26529,-0.05635 -0.37798,0 -0.31874,0.159369 -0.43721,0.596582 -0.75595,0.755952 -0.11269,0.05635 -0.26529,-0.05635 -0.37798,0 -0.15937,0.07968 -0.21861,0.298291 -0.37797,0.377975 -0.11269,0.05635 -0.28889,-0.08909 -0.37798,0 -0.0891,0.08909 0.0891,0.288888 0,0.377976 -0.0891,0.08909 -0.26528,-0.05634 -0.37798,0 -0.15937,0.07968 -0.2186,0.298294 -0.37797,0.377979 -0.22538,0.112688 -0.57778,-0.178181 -0.75595,0 -0.0891,0.08909 0.0891,0.288885 0,0.377975 -0.0891,0.08909 -0.26529,-0.05634 -0.37798,0 -0.15937,0.07969 -0.21861,0.298292 -0.37798,0.377976 -0.11269,0.05635 -0.26528,-0.05635 -0.37797,0 -0.15937,0.07968 -0.21861,0.298292 -0.37798,0.377976 -0.11269,0.05635 -0.26528,-0.05635 -0.37798,0 -0.15936,0.07969 -0.2186,0.298291 -0.37797,0.377976 -0.22538,0.112691 -0.57777,-0.178178 -0.75595,0 -0.0891,0.08909 0.0891,0.288888 0,0.377976 -0.17818,0.178181 -0.53057,-0.112689 -0.75596,0 -0.15937,0.07968 -0.2186,0.298294 -0.37797,0.377976 -0.30238,0.15119 -0.83155,-0.151189 -1.13393,0 -0.15937,0.07968 -0.21861,0.298293 -0.37798,0.377978 -0.11503,0.05752 -0.9637,0 -1.13393,0 -0.26289,0 -1.75319,0.06834 -1.88988,0 -0.15936,-0.07968 -0.2186,-0.298294 -0.37797,-0.377978 -0.22538,-0.112689 -0.53057,0.112691 -0.75596,0 -0.15936,-0.07968 -0.2186,-0.298292 -0.37797,-0.377976 -0.11269,-0.05635 -0.26529,0.05635 -0.37798,0 -0.15937,-0.07968 -0.21861,-0.298292 -0.37797,-0.377976 -0.11269,-0.05635 -0.28889,0.08909 -0.37798,0 -0.0891,-0.08909 0.0891,-0.288885 0,-0.377976 -0.0891,-0.08909 -0.28889,0.08909 -0.37798,0 -0.0891,-0.08909 0.0891,-0.288885 0,-0.377976 -0.0891,-0.08909 -0.28888,0.08909 -0.37797,0 -0.17818,-0.178181 0.11269,-0.530571 0,-0.755951 -0.0797,-0.159369 -0.29829,-0.21861 -0.37798,-0.377979 -0.0575,-0.11503 0,-0.963702 0,-1.133927 0,-0.197652 -0.0497,-1.412518 0,-1.511906 0.0797,-0.159367 0.29829,-0.218607 0.37798,-0.377976 0.11269,-0.22538 -0.17818,-0.577771 0,-0.755951 0.0891,-0.08909 0.28889,0.08909 0.37797,0 0.18899,-0.18899 -0.18898,-0.944941 0,-1.133928 0.0891,-0.08909 0.28889,0.08909 0.37798,0 0.0891,-0.08909 0,-0.251984 0,-0.377978 0,-0.125992 0,-0.251984 0,-0.377976"
       id="path5130"
       inkscape:connector-curvature="0" />
  </g>
</svg>
