<?xml version="1.0" encoding="UTF-8" standalone="no"?>
<!-- Created with Inkscape (http://www.inkscape.org/) -->

<svg
   xmlns:dc="http://purl.org/dc/elements/1.1/"
   xmlns:cc="http://creativecommons.org/ns#"
   xmlns:rdf="http://www.w3.org/1999/02/22-rdf-syntax-ns#"
   xmlns:svg="http://www.w3.org/2000/svg"
   xmlns="http://www.w3.org/2000/svg"
   xmlns:xlink="http://www.w3.org/1999/xlink"
   xmlns:sodipodi="http://sodipodi.sourceforge.net/DTD/sodipodi-0.dtd"
   xmlns:inkscape="http://www.inkscape.org/namespaces/inkscape"
   width="424.74442mm"
   height="241.3mm"
   viewBox="0 0 424.74442 241.3"
   version="1.1"
   id="svg3800"
   inkscape:version="0.92.3 (2405546, 2018-03-11)"
   sodipodi:docname="piskarevka-chr-sntx.svg">
  <defs
     id="defs3794" />
  <sodipodi:namedview
     id="base"
     pagecolor="#ffffff"
     bordercolor="#666666"
     borderopacity="1.0"
     inkscape:pageopacity="0.0"
     inkscape:pageshadow="2"
     inkscape:zoom="0.49497475"
     inkscape:cx="784.27432"
     inkscape:cy="506.53424"
     inkscape:document-units="px"
     inkscape:current-layer="layer1"
     showgrid="false"
     fit-margin-top="-2.7755576e-17"
     fit-margin-left="0"
     fit-margin-right="0"
     fit-margin-bottom="0"
     inkscape:window-width="1366"
     inkscape:window-height="715"
     inkscape:window-x="0"
     inkscape:window-y="0"
     inkscape:window-maximized="1" />
  <metadata
     id="metadata3797">
    <rdf:RDF>
      <cc:Work
         rdf:about="">
        <dc:format>image/svg+xml</dc:format>
        <dc:type
           rdf:resource="http://purl.org/dc/dcmitype/StillImage" />
        <dc:title></dc:title>
      </cc:Work>
    </rdf:RDF>
  </metadata>
  <g
     inkscape:label="Layer 1"
     inkscape:groupmode="layer"
     id="layer1"
     transform="translate(-0.05041131,0.32144204)">
    <image
       sodipodi:absref="/home/aanper/project/luysy-imn-eh/pi/boot/bydefault/web/img/piskarevka.png"
       xlink:href="/home/aanper/project/luysy-imn-eh/pi/boot/bydefault/web/img/piskarevka.png"
       width="424.74442"
       height="241.3"
       preserveAspectRatio="none"
       id="image4404"
       x="0.050411314"
       y="-0.32144204" />
    <ellipse
       style="fill:#000000;fill-opacity:1;stroke:#00ff00;stroke-width:0.30000001;stroke-miterlimit:4;stroke-dasharray:none;stroke-opacity:1;paint-order:stroke fill markers"
       id="path4407"
       cx="361.66611"
       cy="73.667831"
       rx="2.4054255"
       ry="2.6726952" />
    <circle
       style="fill:#000000;fill-opacity:1;stroke:#00ff00;stroke-width:0.30000001;stroke-miterlimit:4;stroke-dasharray:none;stroke-opacity:1;paint-order:stroke fill markers"
       id="path4409"
       cx="81.300346"
       cy="167.7467"
       r="2.6726952" />
    <path
       style="fill:none;fill-opacity:1;stroke:#00ff00;stroke-width:0.30000001;stroke-miterlimit:4;stroke-dasharray:none;stroke-opacity:1;paint-order:stroke fill markers"
       d="M 0.05041131,-0.32144204 C 5.9342006,-4.2984324 3.2067034,3.6177463 5.3958018,4.7122955 c 0.1593686,0.079685 0.3751702,-0.079684 0.534539,0 0.2253814,0.1126908 0.3091577,0.4218485 0.5345391,0.534539 0.3187374,0.1593689 0.7503406,-0.1593686 1.069078,0 0.2253816,0.1126908 0.3091577,0.4218485 0.534539,0.5345393 0.3187378,0.1593686 0.8170942,-0.2519841 1.0690784,0 0.1259919,0.125992 -0.1259922,0.4085468 0,0.534539 0.1092792,0.1092793 1.3916767,-0.1059703 1.6036167,0 0.225382,0.1126906 0.309158,0.4218483 0.534539,0.5345391 0.347249,0.1736243 2.333628,-0.1695337 2.672695,0 0.225382,0.1126905 0.309158,0.4218482 0.53454,0.534539 0.159368,0.079684 0.356359,0 0.534539,0 0.356359,0 0.731006,-0.1126908 1.069078,0 0.239053,0.079684 0.309157,0.4218482 0.534539,0.534539 0.159368,0.079684 0.37517,-0.079684 0.534539,0 0.225381,0.1126908 0.309158,0.4218482 0.534539,0.534539 0.159369,0.079684 0.356359,0 0.534539,0 0.356359,0 0.731006,-0.1126908 1.069078,0 0.239053,0.079684 0.309158,0.4218483 0.534539,0.5345391 0.318738,0.1593688 0.750341,-0.1593689 1.069078,0 0.225382,0.1126908 0.309158,0.4218482 0.534539,0.534539 0.324584,0.162292 2.882651,-0.162292 3.207234,0 0.225382,0.1126908 0.309158,0.4218485 0.53454,0.534539 0.159368,0.07968 0.356359,0 0.534539,0 0.178179,0 0.356359,0 0.534539,0 0.356359,0 0.712719,0 1.069078,0 0.178178,0 0.375171,-0.079684 0.534538,0 0.178181,0.17818 0.356359,0.356359 0.53454,0.534539 0.178178,0.17818 0.309158,0.421849 0.534538,0.534539 0.318738,0.159369 0.750342,-0.159369 1.06908,0 0.22538,0.112691 0.309155,0.421849 0.534538,0.534539 0.318738,0.159369 0.75034,-0.159369 1.069078,0 0.225383,0.112691 0.309158,0.421849 0.53454,0.534539 0.159367,0.07968 0.375169,-0.07968 0.534538,0 0.225383,0.112691 0.309158,0.421849 0.53454,0.534539 0.318736,0.159369 0.75034,-0.159368 1.069079,0 0.22538,0.112691 0.309157,0.421849 0.534537,0.534539 0.318738,0.159369 0.817094,-0.251984 1.069078,0 0.125992,0.125992 -0.125992,0.408547 0,0.534539 0.251984,0.251985 0.75034,-0.159368 1.069078,0 0.225383,0.112691 0.309158,0.421849 0.534541,0.534539 0.159366,0.07969 0.408545,-0.125991 0.534537,0 0.125992,0.125992 -0.125992,0.408548 0,0.534539 0.125992,0.125993 0.375172,-0.07968 0.534541,0 0.22538,0.112691 0.309157,0.421849 0.534537,0.53454 0.15937,0.07968 0.375172,-0.07968 0.534541,0 0.22538,0.11269 0.309157,0.421848 0.534537,0.534539 0.318739,0.159368 0.75034,-0.159369 1.069079,0 0.225382,0.11269 0.309157,0.421848 0.53454,0.534539 0.159369,0.07968 0.375168,-0.07969 0.534538,0 0.450762,0.225381 0.618315,0.843696 1.069078,1.069078 0.318738,0.159368 0.750342,-0.159369 1.069078,0 0.225382,0.11269 0.309157,0.421848 0.53454,0.534539 0.318736,0.159369 0.75034,-0.159369 1.069078,0 0.22538,0.11269 0.309158,0.421848 0.534538,0.534539 0.138205,0.0691 2.828353,0 3.207234,0 2.672696,0 5.34539,0 8.018087,0 0.712718,0 1.425437,0 2.138156,0 0.356359,0 0.731006,-0.112691 1.069078,0 0.377976,0.125992 0.691102,0.408547 1.069078,0.534539 0.315444,0.105148 2.374035,0 2.672696,0 0.279519,0 1.997602,-0.07028 2.138156,0 0.22538,0.112691 0.309158,0.421848 0.534538,0.534539 0.159369,0.07968 0.356359,0 0.53454,0 0.35636,0 0.712719,0 1.069078,0 1.069078,0 2.138157,0 3.207235,0 1.247256,0 2.494515,0 3.741771,0 0.240734,0 1.44094,0.08134 1.603619,0 0.22538,-0.112691 0.309158,-0.421848 0.534538,-0.534539 0.33597,-0.167985 1.802188,0.167985 2.138156,0 0.225382,-0.112691 0.309157,-0.421849 0.53454,-0.534539 0.138205,-0.0691 2.828351,0 3.207234,0 1.425438,0 2.850875,0 4.276312,0 0.36911,0 1.975636,-0.08126 2.138156,0 0.225383,0.11269 0.309158,0.421848 0.534541,0.534539 0.159366,0.07968 0.356359,0 0.534537,0 0.436981,0 3.470852,0.09031 3.741775,0 0.239051,-0.07969 0.309158,-0.421849 0.534538,-0.534539 0.159369,-0.07968 0.356359,0 0.53454,0 0.356359,0 0.712719,0 1.069078,0 0.485561,0 3.394761,0.11567 3.741771,0 0.23905,-0.07968 0.29549,-0.454855 0.53454,-0.534539 0.50711,-0.169036 1.06908,0 1.60362,0 1.06908,0 2.13815,0 3.20723,0 0.35636,0 0.72336,-0.08643 1.06908,0 0.38653,0.09663 0.6911,0.408547 1.06908,0.534539 0.16903,0.05635 0.35636,0 0.53454,0 0.35636,0 0.71272,0 1.06908,0 0.89089,0 1.78179,0 2.67269,0 3.74177,0 7.48355,0 11.22532,0 1.42544,0 2.85088,0 4.27631,0 0.35636,0 0.71272,0 1.06908,0 0.17818,0 0.3655,0.05635 0.53454,0 0.37798,-0.125992 0.67839,-0.456402 1.06908,-0.534539 0.87359,-0.17472 1.80839,0.216075 2.67269,0 0.38653,-0.09663 0.68256,-0.437908 1.06908,-0.534539 0.69144,-0.17286 1.44672,0.172859 2.13816,0 0.38652,-0.09663 0.68255,-0.437908 1.06907,-0.534539 0.69144,-0.17286 1.44672,0.172859 2.13816,0 0.38653,-0.09663 0.68255,-0.437908 1.06908,-0.534539 0.34572,-0.08643 0.71272,0 1.06908,0 1.06908,0 2.13815,0 3.20723,0 0.35636,0 0.72336,0.08643 1.06908,0 0.38653,-0.09663 0.6911,-0.408547 1.06908,-0.534539 0.34633,-0.115446 2.23507,0 2.67269,0 2.49452,0 4.98903,0 7.48355,0 1.7818,0 3.56359,0 5.34539,0 0.29836,0 2.428,-0.08156 2.6727,0 0.23905,0.07968 0.29548,0.454854 0.53453,0.534539 0.2447,0.08156 2.37434,0 2.6727,0 0.17818,0 0.3655,-0.05635 0.53454,0 0.37797,0.125992 0.6911,0.408547 1.06908,0.534539 0.16903,0.05635 0.35636,0 0.53454,0 0.44761,0 2.26619,-0.101625 2.67269,0 0.38653,0.09663 0.6911,0.408547 1.06908,0.534539 0.16904,0.05635 0.35636,0 0.53454,0 0.35636,0 0.71272,0 1.06908,0 1.06908,0 2.13815,0 3.20723,0 0.17818,0 0.3655,-0.05635 0.53454,0 0.37798,0.125992 0.6911,0.408547 1.06908,0.534539 0.35354,0.117847 2.68212,0 3.20723,0 2.13816,0 4.27632,0 6.41447,0 4.63267,0 9.26535,0 13.89802,0 1.60361,0 3.20723,0 4.81085,0 0.53454,0 1.07946,0.104832 1.60362,0 0.39068,-0.07814 0.68255,-0.437908 1.06907,-0.534539 0.34572,-0.08643 0.71272,0 1.06908,0 0.8909,0 1.7818,0 2.6727,0 2.67269,0 5.34539,0 8.01808,0 1.24726,0 2.49452,0 3.74178,0 0.53453,0 1.06907,0 1.60361,0 0.35636,0 0.71964,-0.06989 1.06908,0 0.55251,0.110502 1.05111,0.424036 1.60362,0.534539 0.69888,0.139776 1.42544,0 2.13815,0 1.24726,0 2.49452,0 3.74178,0 0.53454,0 1.07946,-0.104832 1.60361,0 0.39069,0.07814 0.68256,0.437907 1.06908,0.534539 0.34572,0.08643 0.71272,0 1.06908,0 1.06908,0 2.13816,0 3.20724,0 0.35635,0 0.72336,-0.08643 1.06907,0 0.38653,0.09663 0.68256,0.437907 1.06908,0.534539 0.34572,0.08643 0.71272,0 1.06908,0 0.8909,0 1.7818,0 2.6727,0 0.17817,0 0.3655,-0.05635 0.53453,0 0.37798,0.125992 0.69111,0.408547 1.06908,0.534539 0.33808,0.112691 0.73101,-0.112691 1.06908,0 0.37798,0.125992 0.6911,0.408547 1.06908,0.534539 0.33807,0.112691 0.731,-0.112691 1.06908,0 0.37797,0.125992 0.6911,0.408547 1.06907,0.534539 0.16904,0.05634 0.37517,-0.07968 0.53454,0 0.22538,0.112691 0.29549,0.454855 0.53454,0.534539 0.48109,0.160362 1.12253,-0.160362 1.60362,0 0.37798,0.125992 0.6911,0.408547 1.06908,0.534539 0.16904,0.05635 0.37517,-0.07968 0.53454,0 0.22538,0.112691 0.30915,0.421849 0.53454,0.534539 0.31873,0.159369 0.731,-0.11269 1.06907,0 0.37798,0.125992 0.69111,0.408547 1.06908,0.534539 0.33807,0.112691 0.75034,-0.159368 1.06908,0 0.22539,0.112691 0.30916,0.421849 0.53453,0.534539 0.31875,0.159369 0.73102,-0.11269 1.06908,0 0.37798,0.125992 0.69112,0.408547 1.06907,0.534539 0.33809,0.112691 0.73102,-0.11269 1.06911,0 0.37795,0.125992 0.69109,0.408547 1.06907,0.534539 0.33806,0.112691 0.75033,-0.159368 1.06908,0 0.22537,0.112691 0.30914,0.421849 0.53453,0.534539 0.15936,0.07969 0.3655,-0.05635 0.53454,0 0.37799,0.125992 0.69109,0.408547 1.06908,0.53454 0.16904,0.05635 0.37518,-0.07968 0.53453,0 0.22538,0.11269 0.30917,0.421848 0.53454,0.534539 0.15936,0.07968 0.37518,-0.07969 0.53454,0 0.22537,0.11269 0.29549,0.454854 0.53454,0.534539 0.33808,0.112691 0.73102,-0.112692 1.06907,0 0.23905,0.07968 0.30917,0.421849 0.53454,0.534538 0.31874,0.159369 0.75036,-0.159367 1.06908,0 0.22539,0.112691 0.35636,0.356359 0.53453,0.53454 0.35637,0 0.73102,-0.112691 1.06911,0 0.23905,0.07968 0.30914,0.421849 0.53453,0.534538 0.35425,0.177128 1.69014,-0.149337 2.13815,0 0.37799,0.125992 0.6911,0.408548 1.06908,0.53454 0.33806,0.112691 0.73099,-0.112691 1.06908,0 0.37798,0.125992 0.69109,0.408546 1.06907,0.534538 0.45006,0.150016 2.35445,-0.159123 2.67269,0 0.2254,0.112691 0.29549,0.454855 0.53454,0.53454 0.166,0.05533 3.7303,0.0057 3.74179,0 0.22537,-0.112691 0.30914,-0.421849 0.53453,-0.53454 0.31825,-0.159123 2.22266,0.150016 2.67269,0 0.37799,-0.125992 0.6911,-0.408546 1.06908,-0.534538 0.33808,-0.112691 0.71273,0 1.06907,0 0.71274,0 1.42545,0 2.13818,0 2.31632,0 4.63267,0 6.94899,0 1.24727,0 2.49452,0 3.74179,0 0.17817,0 0.35634,0 0.53454,0 0.17817,0 0.37515,-0.07968 0.53454,0 0.22537,0.112691 0.29548,0.454856 0.53454,0.534538 0.49403,0.164682 2.17408,-0.166204 2.67268,0 0.37799,0.125992 0.6911,0.408548 1.06908,0.53454 0.5066,0.16887 2.16609,-0.16887 2.67269,0 0.37798,0.125992 0.69112,0.408546 1.06907,0.534538 0.49864,0.166206 2.17866,-0.16468 2.67272,0 0.23905,0.07968 0.30914,0.421849 0.53454,0.53454 0.15935,0.07969 0.35634,0 0.53453,0 0.17817,0 0.35634,0 0.53454,0 0.18209,0 1.84886,-0.09643 2.13815,0 0.37799,0.125992 0.69109,0.408546 1.06908,0.534538 0.16904,0.05634 0.35636,0 0.53453,0 0.35637,0 0.71274,0 1.06908,0 1.06908,0 2.13815,0 3.20725,0 0.35634,0 0.71271,0 1.06908,0 0.17817,0 0.37515,-0.07968 0.53454,0 0.22537,0.112691 0.30914,0.421849 0.53453,0.53454 0.23786,0.118928 1.89365,-0.0815 2.13815,0 0.23906,0.07968 0.30917,0.421849 0.53454,0.53454 0.31539,0.157695 1.23595,-0.12256 1.60362,0 0.37798,0.125992 0.69111,0.408546 1.06907,0.534538 0.33552,0.111834 1.70783,0 2.13815,0 2.13818,0 4.27633,0 6.41448,0 0.37179,0 2.47938,-0.09665 2.67269,0 0.2254,0.112691 0.30916,0.421849 0.53454,0.53454 0.21195,0.105969 1.49434,-0.10928 1.60364,0 0.12596,0.125992 -0.126,0.408546 0,0.534538 0.12596,0.125992 0.40854,-0.125992 0.53453,0 0.12597,0.125992 -0.0797,0.375171 0,0.534541 0.11269,0.22538 0.42183,0.309157 0.53454,0.534537 0.0797,0.159369 -0.12599,0.408549 0,0.534541 0.126,0.125992 0.37515,-0.07968 0.53454,0 1.18189,0.590946 0.16587,0.331755 0.53454,1.069078 0.11268,0.22538 0.35634,0.356359 0.53453,0.534537 0.17818,0.178181 0.35635,0.35636 0.53454,0.534541 0.17817,0.178178 0.30917,0.421846 0.53454,0.534537 0.15936,0.07968 0.40854,-0.125992 0.53454,0 0.12599,0.125992 -0.126,0.408549 0,0.534541 0.12599,0.125992 0.40854,-0.125992 0.53454,0 0.12599,0.125992 -0.126,0.408545 0,0.534537 0.12599,0.125992 0.40854,-0.125992 0.53453,0 0.126,0.125992 -0.12599,0.408549 0,0.534541 0.25199,0.251984 0.75034,-0.159369 1.06908,0 0.2254,0.112688 0.30916,0.421846 0.53454,0.534537 0.31874,0.15937 0.81708,-0.251983 1.06907,0 0.126,0.125992 -0.12599,0.408549 0,0.534541 0.126,0.125992 0.37518,-0.07968 0.53454,0 0.2254,0.112688 0.30917,0.421846 0.53454,0.534538 0.31874,0.159369 0.81711,-0.251984 1.0691,0 0.12597,0.125991 -0.126,0.408548 0,0.53454 0.25196,0.251984 0.75033,-0.159369 1.06907,0 0.45075,0.22538 0.61831,0.843695 1.06908,1.069078 0.21193,0.105968 1.49434,-0.109281 1.60361,0 0.126,0.125992 -0.12599,0.408546 0,0.534538 0.18765,0.187634 2.30347,-0.184611 2.67269,0 0.22537,0.112691 0.30917,0.421849 0.53454,0.53454 0.15938,0.07968 0.37518,-0.07968 0.53454,0 1.04933,0.524661 0.24066,1.015833 0.53453,1.603616 0.11269,0.225382 0.42186,0.309157 0.53454,0.53454 0.21384,0.42763 -0.21381,1.175986 0,1.603616 0.11269,0.225382 0.42185,0.309157 0.53454,0.53454 0.0797,0.159369 -0.12599,0.408546 0,0.534538 0.12599,0.125992 0.40857,-0.125992 0.53454,0 1.10598,1.105982 -1.69008,-0.04323 0.53454,1.069078 0.15938,0.07968 0.40856,-0.125992 0.53456,0 0.12597,0.125992 -0.126,0.408548 0,0.53454 0.12597,0.125992 0.40854,-0.125992 0.53454,0 1.10596,1.10598 -1.69011,-0.04323 0.53453,1.069078 0.15936,0.07969 0.37516,-0.07968 0.53454,0 0.22537,0.112692 0.30914,0.421849 0.53454,0.534538 0.15936,0.07968 0.40854,-0.125992 0.53454,0 0.12599,0.125992 -0.126,0.408548 0,0.53454 0.12599,0.125992 0.37515,-0.07968 0.53454,0 0.22537,0.112692 0.30916,0.421849 0.53453,0.534538 0.15936,0.07968 0.40855,-0.125992 0.53454,0 0.126,0.125992 -0.12599,0.408548 0,0.53454 0.126,0.125992 0.37518,-0.07968 0.53454,0 0.22537,0.112692 0.30916,0.421849 0.53454,0.534538 0.15936,0.07969 0.40854,-0.125992 0.53453,0 0.126,0.125992 -0.12599,0.408549 0,0.53454 0.126,0.125992 0.37518,-0.07968 0.53454,0 0.22537,0.112692 0.30917,0.421849 0.53454,0.534538 0.15938,0.07968 0.37518,-0.07968 0.53454,0 0.2254,0.112691 0.30916,0.421849 0.53454,0.534541 0.15938,0.07968 0.37517,-0.07968 0.53453,0 0.2254,0.112691 0.30917,0.421849 0.53454,0.534537 0.31874,0.159369 0.75036,-0.159366 1.06908,0 0.22539,0.112692 0.30916,0.421849 0.53456,0.534541 0.15936,0.07968 0.37515,-0.07969 0.53454,0 0.22537,0.112691 0.30914,0.421849 0.53454,0.534537 0.15935,0.07969 0.37515,-0.07968 0.53453,0 0.22538,0.112692 0.30914,0.421849 0.53454,0.534541 0.31874,0.159369 0.75033,-0.15937 1.06908,0 0.22537,0.112691 0.30916,0.421849 0.53453,0.534537 0.15936,0.07968 0.37518,-0.07968 0.53454,0 0.22537,0.112692 0.30917,0.421849 0.53454,0.534541 0.15936,0.07968 0.37518,-0.07968 0.53454,0 0.22537,0.112691 0.30916,0.421849 0.53453,0.534537 0.31875,0.159369 0.75034,-0.159366 1.06908,0 0.2254,0.112692 0.30917,0.421849 0.53454,0.534541 0.15938,0.07968 0.37518,-0.07969 0.53454,0 0.22539,0.112691 0.30916,0.421849 0.53453,0.534537 0.15939,0.07968 0.36553,-0.05634 0.53454,0 0.37798,0.125995 0.69112,0.408549 1.0691,0.534541 0.16902,0.05635 0.37516,-0.07968 0.53454,0 0.22537,0.112691 0.30914,0.421849 0.53454,0.534537 0.15936,0.07968 0.37515,-0.07968 0.53454,0 0.22537,0.112692 0.30914,0.421849 0.53453,0.534541 0.15936,0.07968 0.37516,-0.07968 0.53454,0 0.22537,0.112691 0.30914,0.421849 0.53454,0.53454 0.15936,0.07968 0.37515,-0.07968 0.53454,0 0.45077,0.22538 0.6183,0.843696 1.06907,1.069078 0.15936,0.07968 0.37518,-0.07968 0.53454,0 0.22537,0.112689 0.30917,0.421847 0.53454,0.534538 0.15936,0.07968 0.37518,-0.07968 0.53454,0 0.45077,0.225383 0.61833,0.843698 1.06907,1.069078 0.15939,0.07968 0.37518,-0.07969 0.53454,0 0.45077,0.225383 0.61833,0.843698 1.06907,1.069078 0.15939,0.07968 0.37518,-0.07968 0.53454,0 0.45077,0.225383 0.61833,0.843698 1.0691,1.069078 0.15936,0.07968 0.37516,-0.07968 0.53454,0 0.22537,0.112691 0.30914,0.421849 0.53454,0.53454 0.15936,0.07968 0.37515,-0.07968 0.53454,0 0.22537,0.112689 0.30914,0.421847 0.53453,0.534538 0.15936,0.07968 0.37516,-0.07968 0.53454,0 0.22537,0.112691 0.30914,0.421849 0.53454,0.53454 0.14055,0.07028 1.85862,0 2.13815,0 1.06908,0 2.13815,0 3.20723,0 0.17819,0 0.40854,0.125992 0.53453,0 0.126,-0.125992 -0.12599,-0.408548 0,-0.53454 0.126,-0.125992 0.37518,0.07968 0.53454,0 0.45077,-0.22538 0.61833,-0.843695 1.0691,-1.069078 0.15936,-0.07968 0.40855,0.125992 0.53454,0 0.126,-0.125992 -0.0797,-0.375171 0,-0.534538 0.11269,-0.225382 0.35634,-0.356359 0.53454,-0.53454 0.17817,-0.178178 0.30914,-0.421849 0.53454,-0.534538 0.15936,-0.07968 0.37515,0.07968 0.53453,0 1.1819,-0.590949 0.16587,-0.331758 0.53454,-1.069078 0.22537,-0.450765 0.84371,-0.618315 1.06908,-1.069078 0.0797,-0.159369 -0.0797,-0.375171 0,-0.53454 0.11268,-0.225383 0.42185,-0.309158 0.53454,-0.534538 0.0967,-0.193307 0,-2.300904 0,-2.672696 0,-0.240734 0.0813,-1.44094 0,-1.603619 -0.11269,-0.22538 -0.42186,-0.309157 -0.53454,-0.534537 -0.0797,-0.15937 0.0797,-0.375172 0,-0.534541 -0.22537,-0.450762 -0.84371,-0.618315 -1.06908,-1.069078 -0.15938,-0.318735 0.25199,-0.817094 0,-1.069078 -0.12599,-0.125992 -0.40854,0.125992 -0.53454,0 -0.12599,-0.125992 0.0797,-0.375168 0,-0.534538 -0.11268,-0.225382 -0.42185,-0.309157 -0.53453,-0.53454 -0.0797,-0.159366 0.12599,-0.408546 0,-0.534538 -0.126,-0.125992 -0.40855,0.125992 -0.53454,0 -0.126,-0.125992 0.12599,-0.408548 0,-0.53454 -0.126,-0.125992 -0.40854,0.125992 -0.53454,0 -0.12599,-0.125992 0.126,-0.408546 0,-0.534538 -0.12599,-0.125992 -0.40857,0.125992 -0.53454,0 -0.12599,-0.125992 0.12597,-0.408548 0,-0.53454 -0.12599,-0.125992 -0.37518,0.07968 -0.53456,0 -0.22537,-0.112689 -0.30914,-0.421846 -0.53454,-0.534538 -0.15936,-0.07968 -0.37515,0.07969 -0.53454,0 -0.22537,-0.112691 -0.30913,-0.421849 -0.53453,-0.53454 -0.0456,-0.02278 -2.09259,-0.02278 -2.13815,0 -0.22538,0.112691 -0.30917,0.421849 -0.53454,0.53454 -0.15936,0.07969 -0.37518,-0.07968 -0.53454,0 -0.22537,0.112692 -0.35637,0.35636 -0.53454,0.534538 -0.17817,0.178181 -0.35636,0.356359 -0.53454,0.53454 -0.17817,0.178179 -0.35636,0.35636 -0.53453,0.534538 -0.17817,0.178181 -0.30917,0.421849 -0.53454,0.53454 -0.15939,0.07968 -0.40854,-0.125992 -0.53454,0 -0.25199,0.251984 0.15936,0.75034 0,1.069078 -0.2254,0.450763 -0.8437,0.618316 -1.06907,1.069079 -0.15939,0.318738 0.15935,0.750339 0,1.069078 -0.11269,0.22538 -0.42186,0.309157 -0.53454,0.534537 -0.0797,0.159369 0.0797,0.375171 0,0.534541 -0.2254,0.450762 -0.8437,0.618315 -1.06908,1.069078 -0.0797,0.159369 0.0797,0.375171 0,0.534537 -0.2254,0.450766 -0.8437,0.618316 -1.0691,1.069078 -0.0797,0.15937 0.0797,0.375172 0,0.534541 -0.22537,0.450762 -0.90969,0.59097 -1.06907,1.069078 -0.11269,0.338071 0.11271,0.731006 0,1.069078 -0.0703,0.210828 -1.85862,1.858634 -2.13815,2.138156 -1.06908,1.069078 -2.13816,2.138156 -3.20723,3.207234 -0.24075,0.240734 -1.35962,1.522278 -1.60361,1.603618 -0.33809,0.112689 -0.73102,-0.112691 -1.06908,0 -0.23908,0.07968 -0.35637,0.35636 -0.53454,0.534538 -0.17819,0.178181 -0.35636,0.35636 -0.53456,0.534541 -0.17817,0.178178 -0.35634,0.356359 -0.53454,0.534537 -0.17817,0.178181 -0.30914,0.421849 -0.53454,0.534541 -0.15936,0.07968 -0.37515,-0.07968 -0.53453,0 -0.45075,0.22538 -0.61831,0.843695 -1.06908,1.069078 -0.15936,0.07968 -0.37515,-0.07968 -0.53454,0 -0.45077,0.22538 -0.6183,0.843695 -1.06907,1.069078 -0.15936,0.07968 -0.40855,-0.125992 -0.53454,0 -0.126,0.125992 0.12599,0.408545 0,0.534537 -0.126,0.125992 -0.37518,-0.07968 -0.53454,0 -0.22537,0.112692 -0.30916,0.421849 -0.53454,0.534541 -0.15935,0.07968 -0.40854,-0.125992 -0.53453,0 -0.126,0.125992 0.12599,0.408545 0,0.534537 -1.10599,1.105983 0.0432,-1.690084 -1.06908,0.534541 -0.0797,0.159369 0.126,0.408546 0,0.534537 -0.12599,0.125992 -0.37518,-0.07968 -0.53454,0 -0.2254,0.112692 -0.35636,0.35636 -0.53453,0.534541 -0.1782,0.178178 -0.42186,0.309158 -0.53454,0.534538 -0.0797,0.159369 0.12597,0.408548 0,0.53454 -0.126,0.125992 -0.37518,-0.07968 -0.53454,0 -0.2254,0.112691 -0.30917,0.421849 -0.53456,0.534538 -0.15936,0.07968 -0.40855,-0.125992 -0.53454,0 -0.12597,0.125992 0.12599,0.408548 0,0.53454 -1.10596,1.105979 0.0432,-1.690084 -1.06908,0.534538 -0.0797,0.159369 0.126,0.408548 0,0.53454 -0.12599,0.125992 -0.37515,-0.07968 -0.53453,0 -0.22538,0.112691 -0.30914,0.421849 -0.53454,0.534538 -0.15936,0.07968 -0.37516,-0.07968 -0.53454,0 -0.22537,0.112691 -0.30917,0.421849 -0.53454,0.53454 -0.15936,0.07969 -0.37518,-0.07968 -0.53454,0 -0.22537,0.112691 -0.30916,0.421849 -0.53453,0.534538 -0.15936,0.07968 -0.37518,-0.07969 -0.53454,0 -0.22537,0.112691 -0.30917,0.421849 -0.53454,0.53454 -0.31874,0.159369 -0.75033,-0.159369 -1.06907,0 -0.2254,0.112691 -0.30917,0.421849 -0.53454,0.534538 -0.31875,0.159369 -0.75036,-0.159367 -1.06908,0 -0.2254,0.112691 -0.30916,0.421849 -0.53454,0.53454 -0.31874,0.159369 -0.75035,-0.159369 -1.06907,0 -0.43466,0.217321 -0.4423,0.847937 -1.0691,0.534538 -0.22537,-0.112689 -0.30914,-0.421847 -0.53454,-0.534538 -0.15936,-0.07968 -0.40854,0.125992 -0.53454,0 -0.12599,-0.125992 0.126,-0.408548 0,-0.53454 -0.12599,-0.125992 -0.40854,0.125992 -0.53454,0 -0.12599,-0.125992 0.0797,-0.375169 0,-0.534538 -0.11268,-0.225383 -0.42185,-0.309158 -0.53453,-0.53454 -0.15936,-0.318736 0.15938,-0.75034 0,-1.069078 -0.11269,-0.22538 -0.42185,-0.309158 -0.53454,-0.534538 -0.0797,-0.159369 0.12599,-0.408548 0,-0.53454 -0.126,-0.125992 -0.40854,0.125992 -0.53454,0 -0.12599,-0.125992 0.0797,-0.375169 0,-0.534538 -0.11268,-0.225383 -0.42185,-0.309158 -0.53454,-0.53454 -0.0797,-0.15937 0.126,-0.408546 0,-0.534538 -0.12599,-0.125992 -0.40854,0.125992 -0.53453,0 -0.126,-0.125992 0.12599,-0.408549 0,-0.53454 -0.3565,-0.356492 -0.71258,0.356491 -1.06908,0 -0.12599,-0.125992 0.126,-0.408546 0,-0.534538 -0.25199,-0.251984 -0.81709,0.251984 -1.06907,0 -0.126,-0.125992 0.12599,-0.408549 0,-0.534541 -0.126,-0.125991 -0.37518,0.07968 -0.53454,0 -1.1819,-0.590946 -0.1659,-0.331758 -0.53454,-1.069078 -0.66053,-1.321061 -0.53454,0.184513 -0.53454,-1.069078"
       id="path4411"
       inkscape:connector-curvature="0" />
  </g>
</svg>
