<?xml version="1.0" encoding="UTF-8" standalone="no"?>
<!-- Created with Inkscape (http://www.inkscape.org/) -->

<svg
   xmlns:dc="http://purl.org/dc/elements/1.1/"
   xmlns:cc="http://creativecommons.org/ns#"
   xmlns:rdf="http://www.w3.org/1999/02/22-rdf-syntax-ns#"
   xmlns:svg="http://www.w3.org/2000/svg"
   xmlns="http://www.w3.org/2000/svg"
   xmlns:xlink="http://www.w3.org/1999/xlink"
   xmlns:sodipodi="http://sodipodi.sourceforge.net/DTD/sodipodi-0.dtd"
   xmlns:inkscape="http://www.inkscape.org/namespaces/inkscape"
   width="1224"
   height="720"
   viewBox="0 0 323.85001 190.5"
   version="1.1"
   id="svg2961"
   sodipodi:docname="primorka-primorka-alg.svg"
   inkscape:version="0.92.3 (2405546, 2018-03-11)">
  <defs
     id="defs2955" />
  <sodipodi:namedview
     id="base"
     pagecolor="#ffffff"
     bordercolor="#666666"
     borderopacity="1.0"
     inkscape:pageopacity="0.0"
     inkscape:pageshadow="2"
     inkscape:zoom="0.7"
     inkscape:cx="549.84229"
     inkscape:cy="383.48018"
     inkscape:document-units="mm"
     inkscape:current-layer="layer1"
     showgrid="false"
     inkscape:window-width="1366"
     inkscape:window-height="715"
     inkscape:window-x="0"
     inkscape:window-y="0"
     inkscape:window-maximized="1"
     fit-margin-top="0"
     fit-margin-left="0"
     fit-margin-right="0"
     fit-margin-bottom="0"
     units="px" />
  <metadata
     id="metadata2958">
    <rdf:RDF>
      <cc:Work
         rdf:about="">
        <dc:format>image/svg+xml</dc:format>
        <dc:type
           rdf:resource="http://purl.org/dc/dcmitype/StillImage" />
        <dc:title></dc:title>
      </cc:Work>
    </rdf:RDF>
  </metadata>
  <g
     inkscape:label="Layer 1"
     inkscape:groupmode="layer"
     id="layer1"
     transform="translate(0.09449404,-0.00520833)">
    <image
       sodipodi:absref="/home/aanper/project/luysy-imn-eh/pi/boot/bydefault/web/img/primorka.png"
       y="0.0052083312"
       x="-0.094494045"
       id="image3565"
       xlink:href="file:///home/aanper/project/luysy-imn-eh/pi/boot/bydefault/web/img/primorka.png"
       preserveAspectRatio="none"
       height="190.5"
       width="323.85001"
       style="fill:#00ff00;fill-opacity:1" />
    <circle
       style="fill:#00ff00;fill-opacity:1;stroke:#00ff00;stroke-width:0.30000001;stroke-miterlimit:4;stroke-dasharray:none;stroke-opacity:1;paint-order:stroke fill markers"
       id="path3587"
       cx="64.633926"
       cy="51.315475"
       r="1.4174107" />
    <circle
       style="fill:#00ff00;fill-opacity:1;stroke:#00ff00;stroke-width:0.30000001;stroke-miterlimit:4;stroke-dasharray:none;stroke-opacity:1;paint-order:stroke fill markers"
       id="path3589"
       cx="260.70908"
       cy="99.034966"
       r="1.5119048" />
    <circle
       style="fill:#00ff00;fill-opacity:1;stroke:#00ff00;stroke-width:0.30000001;stroke-miterlimit:4;stroke-dasharray:none;stroke-opacity:1;paint-order:stroke fill markers"
       id="path3591"
       cx="105.73884"
       cy="116.23288"
       r="1.3229166" />
    <ellipse
       style="fill:#00ff00;fill-opacity:1;stroke:#00ff00;stroke-width:0.30000001;stroke-miterlimit:4;stroke-dasharray:none;stroke-opacity:1;paint-order:stroke fill markers"
       id="path3593"
       cx="125.67709"
       cy="54.811752"
       rx="1.0394346"
       ry="1.1339285" />
    <ellipse
       style="fill:none;fill-opacity:1;stroke:#00ff00;stroke-width:0.30000001;stroke-miterlimit:4;stroke-dasharray:none;stroke-opacity:1;paint-order:stroke fill markers"
       id="path3595"
       cx="234.25075"
       cy="148.45535"
       rx="1.1339285"
       ry="0.8504464" />
    <path
       style="fill:none;fill-opacity:1;stroke:#00ff00;stroke-width:0.30000001;stroke-miterlimit:4;stroke-dasharray:none;stroke-opacity:1;paint-order:stroke fill markers"
       d="m 125.3936,54.43378 c 0,0.503968 0,1.007936 0,1.511903 0.12599,0 0.28889,-0.08909 0.37798,0 0.17818,0.178181 -0.17818,0.577774 0,0.755952 0.0891,0.08909 0.28888,-0.08909 0.37797,0 0.17818,0.178181 -0.11269,0.530572 0,0.755954 0.0797,0.159369 0.29829,0.218607 0.37798,0.377976 0.0563,0.112691 -0.0563,0.265285 0,0.377976 0.15937,0.318738 0.59658,0.437216 0.75595,0.755952 0.0564,0.112691 -0.0563,0.265287 0,0.377975 0.0797,0.159369 0.29829,0.21861 0.37798,0.377979 0.0563,0.112688 -0.0891,0.288885 0,0.377976 0.0891,0.08909 0.28888,-0.08909 0.37797,0 0.0891,0.08909 -0.0563,0.265284 0,0.377975 0.78653,1.573046 -0.0261,-0.404071 0.75596,0.377976 0.0891,0.08909 -0.0891,0.288886 0,0.377976 0.0891,0.08909 0.26528,-0.05635 0.37797,0 0.15937,0.07968 0.21861,0.298291 0.37798,0.377976 0.11269,0.05635 0.26528,-0.05635 0.37797,0 0.15937,0.07968 0.21861,0.298291 0.37798,0.377976 0.30238,0.151191 0.83155,-0.151189 1.13393,0 0.15937,0.07968 0.21861,0.298294 0.37798,0.377978 0.23756,0.118782 1.27433,-0.118785 1.5119,0 0.15937,0.07968 0.21861,0.298291 0.37798,0.377976 0.20504,0.102523 1.40848,-0.103423 1.5119,0 0.0891,0.08909 -0.0891,0.288885 0,0.377976 0.17818,0.178178 0.53057,-0.112692 0.75595,0 0.15937,0.07968 0.21861,0.298291 0.37798,0.377976 0.14986,0.07493 1.05666,-0.07727 1.13393,0 0.0891,0.08909 -0.0891,0.288885 0,0.377975 0.17818,0.178181 0.53057,-0.112691 0.75595,0 0.15937,0.07968 0.21861,0.298292 0.37797,0.377976 0.22539,0.112691 0.57778,-0.178178 0.75596,0 0.0891,0.08909 -0.0891,0.288888 0,0.377976 0.0773,0.07727 0.98406,-0.07493 1.13393,0 0.15937,0.07968 0.2186,0.298294 0.37797,0.377978 0.22539,0.112689 0.53057,-0.112691 0.75596,0 0.15936,0.07968 0.2186,0.298292 0.37797,0.377976 0.14987,0.07493 1.05666,-0.07727 1.13393,0 0.0891,0.08909 -0.0891,0.288886 0,0.377976 0.0773,0.07727 0.98406,-0.07493 1.13393,0 0.15937,0.07968 0.21861,0.298291 0.37798,0.377976 0.30237,0.151191 0.83154,-0.151191 1.13392,0 0.15937,0.07968 0.21861,0.298291 0.37798,0.377976 0.30238,0.15119 0.83155,-0.151191 1.13393,0 0.15937,0.07968 0.21861,0.298291 0.37797,0.377975 0.13669,0.06834 1.62699,0 1.88989,0 0.12599,0 0.28888,-0.08909 0.37797,0 0.0891,0.08909 -0.0891,0.288888 0,0.377976 0.0891,0.08909 0.25199,0 0.37798,0 0.2629,0 1.75319,-0.06834 1.88988,0 0.15937,0.07968 0.21861,0.298294 0.37798,0.377979 0.13668,0.06834 1.62698,0 1.88987,0 0.126,0 0.28889,-0.08909 0.37798,0 0.0891,0.08909 -0.0891,0.288885 0,0.377976 0.11704,0.117038 1.77284,-0.117042 1.88988,0 0.0891,0.08909 -0.0891,0.288885 0,0.377975 0.0152,0.01521 1.3731,0 1.51191,0 0.17821,0 1.87275,-0.01714 1.88988,0 0.0891,0.08909 -0.0891,0.288886 0,0.377976 0.13268,0.132678 1.6288,-0.13054 1.88988,0 0.15937,0.07968 0.21861,0.298291 0.37797,0.377976 0.30239,0.151191 0.83155,-0.151191 1.13393,0 0.15937,0.07968 0.21861,0.298291 0.37798,0.377976 0.22538,0.112691 0.57777,-0.178179 0.75595,0 0.0891,0.08909 -0.0891,0.288888 0,0.377976 0.17818,0.178181 0.53057,-0.112689 0.75596,0 0.15936,0.07968 0.2186,0.298293 0.37797,0.377978 0.11269,0.05634 0.26529,-0.05635 0.37798,0 0.15937,0.07968 0.2186,0.298291 0.37797,0.377976 0.22539,0.112689 0.53058,-0.112692 0.75596,0 1.25359,1.253588 -0.35636,-0.178181 0.75595,0.377976 0.15937,0.07968 0.21861,0.298291 0.37798,0.377975 0.30237,0.151191 0.83154,-0.15119 1.13392,0 0.15937,0.07968 0.21861,0.298292 0.37798,0.377976 0.30238,0.151191 0.83155,-0.151191 1.13393,0 0.15937,0.07968 0.21861,0.298291 0.37797,0.377976 0.30239,0.151191 0.83155,-0.151191 1.13393,0 0.15937,0.07968 0.21861,0.298291 0.37798,0.377976 0.30238,0.151191 0.83155,-0.151188 1.13393,0 0.15937,0.07968 0.2186,0.298294 0.37797,0.377978 0.30239,0.151189 0.83155,-0.151191 1.13393,0 0.15937,0.07968 0.21861,0.298292 0.37798,0.377976 0.22538,0.112689 0.53057,-0.112691 0.75595,0 0.15937,0.07968 0.20894,0.32163 0.37798,0.377976 0.25714,0.08571 1.68946,-0.100208 1.88988,0 0.15937,0.07968 0.21861,0.298291 0.37797,0.377976 0.11503,0.05751 0.96371,0 1.13393,0 0.19765,0 1.41252,-0.04969 1.51191,0 0.15937,0.07968 0.2186,0.298291 0.37797,0.377976 0.22539,0.112691 0.53058,-0.112692 0.75596,0 0.15936,0.07968 0.2186,0.298291 0.37797,0.377975 0.22538,0.112692 0.53057,-0.112691 0.75596,0 0.15936,0.07968 0.2186,0.298292 0.37797,0.377976 0.11269,0.05635 0.28889,-0.08909 0.37798,0 0.0891,0.08909 -0.0891,0.288888 0,0.377979 0.17818,0.178178 0.53057,-0.112692 0.75595,0 0.15937,0.07968 0.21861,0.298291 0.37797,0.377975 0.1127,0.05635 0.26529,-0.05634 0.37798,0 0.15937,0.07969 0.21861,0.298292 0.37798,0.377976 0.22538,0.112692 0.53057,-0.112691 0.75595,0 0.15937,0.07968 0.21861,0.298291 0.37798,0.377976 0.22538,0.112691 0.53057,-0.112691 0.75595,0 0.15937,0.07968 0.21861,0.298291 0.37798,0.377976 0.22538,0.112691 0.57777,-0.178179 0.75595,0 0.0891,0.08909 -0.0891,0.288888 0,0.377976 0.10342,0.103423 1.30685,-0.102524 1.5119,0 0.15937,0.07968 0.21861,0.298291 0.37798,0.377975 0.22538,0.112692 0.53057,-0.112688 0.75595,0 0.15937,0.07968 0.21861,0.298294 0.37798,0.377979 0.22538,0.112689 0.53057,-0.112691 0.75595,0 0.15937,0.07968 0.21861,0.298291 0.37797,0.377976 0.22539,0.112688 0.53058,-0.112692 0.75596,0 0.15937,0.07968 0.21861,0.298291 0.37797,0.377976 0.16819,0.08409 1.33903,-0.05763 1.51191,0 0.16903,0.05634 0.21861,0.298291 0.37798,0.377975 0.30238,0.151191 0.83154,-0.151191 1.13392,0 0.15937,0.07968 0.21861,0.298292 0.37798,0.377976 0.11269,0.05635 0.25198,0 0.37798,0 0.25198,0 0.5169,-0.07968 0.75595,0 0.16903,0.05635 0.21861,0.298291 0.37798,0.377976 0.11269,0.05635 0.25845,-0.03984 0.37797,0 0.26727,0.08909 0.48868,0.288888 0.75595,0.377976 0.23906,0.07968 0.5169,-0.07968 0.75595,0 0.26728,0.08909 0.48869,0.288888 0.75596,0.377978 0.11952,0.03984 0.25845,-0.03984 0.37797,0 0.26727,0.08909 0.48869,0.288886 0.75596,0.377976 0.11952,0.03984 0.25845,-0.03984 0.37797,0 0.26727,0.08909 0.48868,0.288885 0.75596,0.377976 0.35858,0.119525 0.77534,-0.119528 1.13392,0 0.16904,0.05634 0.21861,0.298291 0.37798,0.377976 0.23757,0.118782 1.27434,-0.118782 1.51191,0 0.15936,0.07968 0.2186,0.298291 0.37797,0.377975 0.11269,0.05635 0.25198,0 0.37798,0 0.25198,0 0.5169,-0.07968 0.75595,0 0.16904,0.05635 0.21861,0.298292 0.37797,0.377976 0.30239,0.151191 0.83155,-0.151191 1.13393,0 0.15937,0.07968 0.21861,0.298291 0.37798,0.377976 0.30238,0.151191 0.83155,-0.151188 1.13393,0 0.15937,0.07968 0.21861,0.298294 0.37798,0.377979 0.22538,0.112688 0.53056,-0.112692 0.75595,0 0.15937,0.07968 0.2186,0.298291 0.37797,0.377975 0.22539,0.112689 0.57778,-0.178181 0.75595,0 0.0891,0.08909 -0.0891,0.288886 0,0.377976 0.0773,0.07727 0.98407,-0.07493 1.13393,0 0.15937,0.07968 0.21861,0.298291 0.37798,0.377976 0.11269,0.05635 0.26529,-0.05635 0.37798,0 0.15937,0.07968 0.2186,0.298291 0.37797,0.377976 0.11269,0.05634 0.26529,-0.05635 0.37798,0 0.15937,0.07968 0.21861,0.298291 0.37797,0.377976 0.30239,0.15119 0.83155,-0.151191 1.13393,0 0.15937,0.07968 0.21861,0.298291 0.37798,0.377975 0.22952,0.114758 2.03834,-0.114757 2.26786,0 0.15937,0.07968 0.2186,0.298294 0.37797,0.377979 0.14987,0.07493 1.05666,-0.07727 1.13393,0 0.0891,0.08909 -0.0891,0.288885 0,0.377976 0.17818,0.178178 0.53057,-0.112692 0.75595,0 0.15937,0.07968 0.21861,0.298291 0.37798,0.377975 0.11269,0.05635 0.26529,-0.05634 0.37798,0 0.15937,0.07969 0.2186,0.298292 0.37797,0.377976 0.22538,0.112692 0.53057,-0.112691 0.75595,0 0.15937,0.07968 0.21861,0.298291 0.37798,0.377976 0.11269,0.05635 0.26529,-0.05635 0.37798,0 0.15937,0.07968 0.2186,0.298291 0.37797,0.377976 0.22538,0.112691 0.53058,-0.112691 0.75596,0 0.15936,0.07968 0.2186,0.298291 0.37797,0.377976 0.30238,0.151191 0.83155,-0.151189 1.13393,0 0.15937,0.07968 0.21861,0.298294 0.37798,0.377978 0.22538,0.112689 0.53057,-0.112691 0.75595,0 0.15937,0.07968 0.21861,0.298291 0.37797,0.377976 0.30239,0.151191 0.83155,-0.151191 1.13393,0 0.15937,0.07968 0.21861,0.298291 0.37798,0.377976 0.20505,0.102523 1.40848,-0.103423 1.5119,0 0.0891,0.08909 -0.0891,0.288885 0,0.377976 0.091,0.09095 1.42096,-0.09095 1.51191,0 0.0891,0.08909 -0.0891,0.288885 0,0.377975 0.17818,0.178181 0.53057,-0.112691 0.75595,0 0.15937,0.07968 0.21861,0.298292 0.37798,0.377976 0.22538,0.112691 0.53057,-0.112691 0.75595,0 0.15937,0.07968 0.21861,0.298291 0.37798,0.377976 0.11269,0.05635 0.26528,-0.05634 0.37797,0 0.15937,0.07968 0.21861,0.298294 0.37798,0.377978 0.11269,0.05634 0.28889,-0.08909 0.37797,0 0.0891,0.08909 -0.0891,0.288886 0,0.377976 0.0891,0.08909 0.26529,-0.05634 0.37798,0 1.25359,1.253588 -0.35636,-0.178181 0.75595,0.377976 0.15937,0.07968 0.21861,0.298291 0.37798,0.377976 0.11269,0.05634 0.26528,-0.05635 0.37798,0 0.15937,0.07968 0.2186,0.298291 0.37797,0.377976 0.22538,0.112691 0.53057,-0.112692 0.75595,0 0.15937,0.07968 0.21861,0.298291 0.37798,0.377975 0.11269,0.05635 0.26529,-0.05634 0.37798,0 0.15937,0.07968 0.2186,0.298292 0.37797,0.377976 0.1127,0.05635 0.26529,-0.05634 0.37798,0 0.15937,0.07968 0.21861,0.298294 0.37798,0.377979 0.22538,0.112688 0.57777,-0.178181 0.75595,0 0.0891,0.08909 -0.0891,0.288885 0,0.377976 0.0891,0.08909 0.26528,-0.05635 0.37798,0 0.15936,0.07968 0.2186,0.298291 0.37797,0.377975 0.22538,0.112692 0.57777,-0.178181 0.75595,0 0.0891,0.08909 -0.0891,0.288886 0,0.377976 0.17818,0.178178 0.57778,-0.178181 0.75595,0 0.0891,0.08909 -0.0891,0.288885 0,0.377976 0.17819,0.178181 0.53058,-0.112691 0.75596,0 0.15937,0.07968 0.21861,0.298291 0.37797,0.377976 0.22538,0.112691 0.53058,-0.112692 0.75596,0 0.15937,0.07968 0.2186,0.298291 0.37797,0.377976 0.22538,0.112691 0.57778,-0.178179 0.75595,0 0.0891,0.08909 -0.0891,0.288888 0,0.377978 0.18899,0.188987 0.94494,-0.188989 1.13393,0 0.0891,0.08909 -0.0891,0.288885 0,0.377976 0.17818,0.178178 0.53058,-0.112692 0.75596,0 0.15936,0.07968 0.2186,0.298291 0.37797,0.377976 0.23757,0.118782 1.27434,-0.118785 1.51191,0 0.15937,0.07968 0.2186,0.298291 0.37797,0.377975 0.22539,0.112692 0.53057,-0.112691 0.75595,0 0.15937,0.07969 0.21861,0.298292 0.37798,0.377976 0.22538,0.112692 0.53057,-0.112691 0.75595,0 0.15937,0.07968 0.21861,0.298291 0.37798,0.377976 0.11269,0.05635 0.25198,0 0.37798,0 0.12599,0 0.25198,0 0.37797,0 0.12599,0 0.25199,0 0.37798,0 0.12599,0 0.28889,-0.08909 0.37797,0 0.0891,0.08909 -0.0891,0.288888 0,0.377976 0.0171,0.01714 1.71167,0 1.88989,0 0.37797,0 0.75595,0 1.13393,0 0.12599,0 0.37797,-0.125992 0.37797,0 0,0.125992 -0.28889,0.08909 -0.37797,0 -0.50398,-0.503968 0.62995,-0.377976 -0.37798,-0.377976"
       id="path3597"
       inkscape:connector-curvature="0" />
  </g>
</svg>
