<?xml version="1.0" encoding="UTF-8" standalone="no"?>
<!-- Created with Inkscape (http://www.inkscape.org/) -->

<svg
   xmlns:dc="http://purl.org/dc/elements/1.1/"
   xmlns:cc="http://creativecommons.org/ns#"
   xmlns:rdf="http://www.w3.org/1999/02/22-rdf-syntax-ns#"
   xmlns:svg="http://www.w3.org/2000/svg"
   xmlns="http://www.w3.org/2000/svg"
   xmlns:xlink="http://www.w3.org/1999/xlink"
   xmlns:sodipodi="http://sodipodi.sourceforge.net/DTD/sodipodi-0.dtd"
   xmlns:inkscape="http://www.inkscape.org/namespaces/inkscape"
   width="1224"
   height="720"
   viewBox="0 0 323.85001 190.5"
   version="1.1"
   id="svg2961"
   sodipodi:docname="primorka-primorka-park.svg"
   inkscape:version="0.92.3 (2405546, 2018-03-11)">
  <defs
     id="defs2955" />
  <sodipodi:namedview
     id="base"
     pagecolor="#ffffff"
     bordercolor="#666666"
     borderopacity="1.0"
     inkscape:pageopacity="0.0"
     inkscape:pageshadow="2"
     inkscape:zoom="0.7"
     inkscape:cx="549.84229"
     inkscape:cy="383.48018"
     inkscape:document-units="mm"
     inkscape:current-layer="layer1"
     showgrid="false"
     inkscape:window-width="1366"
     inkscape:window-height="715"
     inkscape:window-x="0"
     inkscape:window-y="0"
     inkscape:window-maximized="1"
     fit-margin-top="0"
     fit-margin-left="0"
     fit-margin-right="0"
     fit-margin-bottom="0"
     units="px" />
  <metadata
     id="metadata2958">
    <rdf:RDF>
      <cc:Work
         rdf:about="">
        <dc:format>image/svg+xml</dc:format>
        <dc:type
           rdf:resource="http://purl.org/dc/dcmitype/StillImage" />
        <dc:title></dc:title>
      </cc:Work>
    </rdf:RDF>
  </metadata>
  <g
     inkscape:label="Layer 1"
     inkscape:groupmode="layer"
     id="layer1"
     transform="translate(0.09449404,-0.00520833)">
    <image
       sodipodi:absref="/home/aanper/project/luysy-imn-eh/pi/boot/bydefault/web/img/primorka.png"
       y="0.0052083312"
       x="-0.094494045"
       id="image3565"
       xlink:href="file:///home/aanper/project/luysy-imn-eh/pi/boot/bydefault/web/img/primorka.png"
       preserveAspectRatio="none"
       height="190.5"
       width="323.85001"
       style="fill:#00ff00;fill-opacity:1" />
    <circle
       style="fill:#00ff00;fill-opacity:1;stroke:#00ff00;stroke-width:0.30000001;stroke-miterlimit:4;stroke-dasharray:none;stroke-opacity:1;paint-order:stroke fill markers"
       id="path3587"
       cx="64.633926"
       cy="51.315475"
       r="1.4174107" />
    <circle
       style="fill:#00ff00;fill-opacity:1;stroke:#00ff00;stroke-width:0.30000001;stroke-miterlimit:4;stroke-dasharray:none;stroke-opacity:1;paint-order:stroke fill markers"
       id="path3589"
       cx="260.70908"
       cy="99.034966"
       r="1.5119048" />
    <circle
       style="fill:#00ff00;fill-opacity:1;stroke:#00ff00;stroke-width:0.30000001;stroke-miterlimit:4;stroke-dasharray:none;stroke-opacity:1;paint-order:stroke fill markers"
       id="path3591"
       cx="105.73884"
       cy="116.23288"
       r="1.3229166" />
    <ellipse
       style="fill:#00ff00;fill-opacity:1;stroke:#00ff00;stroke-width:0.30000001;stroke-miterlimit:4;stroke-dasharray:none;stroke-opacity:1;paint-order:stroke fill markers"
       id="path3593"
       cx="125.67709"
       cy="54.811752"
       rx="1.0394346"
       ry="1.1339285" />
    <ellipse
       style="fill:none;fill-opacity:1;stroke:#00ff00;stroke-width:0.30000001;stroke-miterlimit:4;stroke-dasharray:none;stroke-opacity:1;paint-order:stroke fill markers"
       id="path3595"
       cx="234.25075"
       cy="148.45535"
       rx="1.1339285"
       ry="0.8504464" />
    <path
       style="fill:none;fill-opacity:1;stroke:#00ff00;stroke-width:0.30000001;stroke-miterlimit:4;stroke-dasharray:none;stroke-opacity:1;paint-order:stroke fill markers"
       d="m 125.3936,54.43378 c 0.37798,0.503968 0.75595,1.007936 1.13393,1.511903 0.12599,0 0.26528,-0.05635 0.37797,0 0.15937,0.07968 0.2983,0.218607 0.37798,0.377976 0.0564,0.112692 -0.0891,0.288888 0,0.377976 0.0891,0.08909 0.28889,-0.08909 0.37798,0 0.17818,0.178181 -0.17818,0.577773 0,0.755954 0.0891,0.08909 0.28888,-0.08909 0.37797,0 0.11704,0.117039 -0.11704,1.772841 0,1.889879 0.0891,0.08909 0.28889,-0.08909 0.37798,0 0.0773,0.07728 -0.0749,0.984065 0,1.13393 0.0797,0.15937 0.29829,0.218607 0.37798,0.377976 0.15119,0.302382 -0.15119,0.831549 0,1.133928 0.0797,0.159369 0.29829,0.218609 0.37797,0.377978 0.0684,0.136687 0,1.626981 0,1.889879 0,1.007938 0,2.015874 0,3.023809 0,0.170225 0.0575,1.0189 0,1.13393 -0.0797,0.159369 -0.29829,0.218607 -0.37797,0.377976 -0.13054,0.26108 0.13267,1.757204 0,1.889882 -0.0891,0.08909 -0.28889,-0.08909 -0.37798,0 -0.0773,0.07727 0.0749,0.984062 0,1.133927 -0.0797,0.159369 -0.29829,0.218607 -0.37798,0.377976 -0.0563,0.112691 0.0563,0.265287 0,0.377976 -0.0797,0.159369 -0.29829,0.218609 -0.37797,0.377978 -0.15119,0.302379 0.15119,0.831546 0,1.133928 -0.0797,0.159369 -0.2983,0.218606 -0.37798,0.377976 -0.11269,0.225382 0.11269,0.530571 0,0.755951 -0.0797,0.159369 -0.29829,0.218609 -0.37798,0.377979 -0.0563,0.112688 0.0563,0.265284 0,0.377975 -0.0797,0.15937 -0.29829,0.218607 -0.37797,0.377976 -0.0563,0.112692 0.0563,0.265285 0,0.377976 -0.0797,0.159369 -0.29829,0.218607 -0.37798,0.377976 -0.11269,0.225383 0.11269,0.530571 0,0.755951 -0.0797,0.15937 -0.29829,0.21861 -0.37797,0.377979 -0.11269,0.22538 0.11269,0.530569 0,0.755952 -0.0797,0.159369 -0.2983,0.218606 -0.37798,0.377975 -0.11269,0.225383 0.11269,0.530572 0,0.755952 -0.0797,0.159369 -0.29829,0.218609 -0.37798,0.377976 -0.11269,0.225382 0.17818,0.577773 0,0.755954 -0.0891,0.08909 -0.28888,-0.08909 -0.37797,0 -0.17818,0.178178 0.11269,0.530569 0,0.755952 -0.0797,0.159369 -0.29829,0.218606 -0.37798,0.377975 -0.11269,0.225383 0.11269,0.530572 0,0.755952 -0.0797,0.159369 -0.29829,0.218609 -0.37797,0.377979 -0.0749,0.149862 0.0773,1.056655 0,1.133927 -0.0891,0.08909 -0.28889,-0.08909 -0.37798,0 -0.18899,0.188989 0.18899,0.944941 0,1.133927 -0.0891,0.08909 -0.28889,-0.08909 -0.37798,0 -0.18899,0.18899 0.18899,0.944941 0,1.13393 -0.0891,0.08909 -0.28888,-0.08909 -0.37797,0 -0.10343,0.103423 0.10252,1.306857 0,1.511904 -0.0797,0.159369 -0.2983,0.218609 -0.37798,0.377978 -0.0563,0.112689 0.0564,0.265285 0,0.377976 -0.0797,0.159369 -0.29829,0.218607 -0.37798,0.377976 -0.15119,0.302381 0.15119,0.831548 0,1.133927 -1.25358,1.253591 0.17818,-0.356359 -0.37797,0.755954 -0.0797,0.159367 -0.29829,0.218607 -0.37798,0.377976 -0.15119,0.302379 0.15119,0.831546 0,1.133928 -0.0797,0.159369 -0.29829,0.218606 -0.37797,0.377975 -0.1127,0.225383 0.11269,0.530572 0,0.755955 -0.0797,0.159366 -0.2983,0.218606 -0.37798,0.377976 -0.0564,0.112688 0.0563,0.265284 0,0.377975 -0.0797,0.159369 -0.29829,0.218607 -0.37798,0.377976 -0.0563,0.112691 0.0564,0.265285 0,0.377976 -0.0797,0.159369 -0.29829,0.218607 -0.37797,0.377976 -0.0564,0.112691 0.0563,0.265287 0,0.377976 -0.0797,0.159369 -0.32163,0.208941 -0.37798,0.377978 -0.0797,0.239051 0.0797,0.516898 0,0.755952 -0.0563,0.169034 -0.29829,0.218606 -0.37798,0.377975 -0.11269,0.225383 0.0797,0.516898 0,0.755952 -0.0891,0.267272 -0.28888,0.488683 -0.37797,0.755954 -0.0398,0.119526 0.0563,0.265285 0,0.377976 -0.0797,0.159369 -0.32163,0.208939 -0.37798,0.377978 -0.0797,0.23905 0,0.50397 0,0.75595 0,0.12599 0.0563,0.26528 0,0.37798 -0.0797,0.15936 -0.29829,0.2186 -0.37797,0.37797 -0.0563,0.11269 0.0563,0.26529 0,0.37798 -0.0797,0.15937 -0.2983,0.21861 -0.37798,0.37798 -0.11269,0.22538 0.11269,0.53056 0,0.75595 -0.0797,0.15937 -0.25199,0.25198 -0.37798,0.37797 0,0.25199 0.0797,0.5169 0,0.75595 -0.0563,0.16904 -0.29829,0.21861 -0.37797,0.37798 -0.0563,0.11269 0.0563,0.26529 0,0.37798 -0.0797,0.15937 -0.29829,0.21861 -0.37798,0.37797 -0.0563,0.1127 0.0563,0.26529 0,0.37798 -0.0797,0.15937 -0.29829,0.21861 -0.37797,0.37798 -0.0563,0.11269 0.0563,0.26528 0,0.37797 -0.0797,0.15937 -0.32163,0.20894 -0.37798,0.37798 -0.0797,0.23905 0.11269,0.53057 0,0.75595 -0.0563,0.11269 -0.26529,-0.0563 -0.37798,0 -0.15937,0.0797 -0.29829,0.21861 -0.37797,0.37798 -0.0564,0.11269 0.0563,0.26528 0,0.37797 -0.0797,0.15937 -0.2983,0.21861 -0.37798,0.37798 -0.0563,0.11269 0.0564,0.26528 0,0.37798 -0.0797,0.15936 -0.29829,0.2186 -0.37798,0.37797 -0.0563,0.11269 0.0891,0.28889 0,0.37798 -0.0891,0.0891 -0.28888,-0.0891 -0.37797,0 -0.0891,0.0891 0.0891,0.28888 0,0.37798 -0.0891,0.0891 -0.28889,-0.0891 -0.37798,0 -0.0891,0.0891 0.0891,0.28888 0,0.37797 -0.0891,0.0891 -0.28889,-0.0891 -0.37797,0 -0.0891,0.0891 0.0891,0.28889 0,0.37798 -0.0891,0.0891 -0.28889,-0.0891 -0.37798,0 -0.0891,0.0891 0.0891,0.28888 0,0.37797 -0.0891,0.0891 -0.26529,-0.0563 -0.37798,0 -0.15936,0.0797 -0.2186,0.29829 -0.37797,0.37798 -0.11269,0.0563 -0.26529,-0.0564 -0.37798,0 -0.15937,0.0797 -0.21861,0.29829 -0.37798,0.37797 -0.11269,0.0564 -0.28888,-0.0891 -0.37797,0 -0.0891,0.0891 0.0891,0.28889 0,0.37798 -0.0891,0.0891 -0.26529,-0.0563 -0.37798,0 -0.15937,0.0797 -0.21861,0.29829 -0.37797,0.37798 -0.11269,0.0563 -0.26529,-0.0563 -0.37798,0 -0.45357,0.22678 -0.68036,0.90714 -1.13393,1.13393 -0.11269,0.0563 -0.28888,-0.0891 -0.37797,0 -0.0891,0.0891 0.0891,0.28888 0,0.37797 -0.0891,0.0891 -0.28889,-0.0891 -0.37798,0 -0.0891,0.0891 0.0891,0.28889 0,0.37798 -0.0891,0.0891 -0.28889,-0.0891 -0.37798,0 -0.0891,0.0891 0.0891,0.28889 0,0.37798 -0.50397,0.50396 -0.37797,-0.62997 -0.37797,0.37797"
       id="path3683"
       inkscape:connector-curvature="0" />
  </g>
</svg>
