<?xml version="1.0" encoding="UTF-8" standalone="no"?>
<!-- Created with Inkscape (http://www.inkscape.org/) -->

<svg
   xmlns:dc="http://purl.org/dc/elements/1.1/"
   xmlns:cc="http://creativecommons.org/ns#"
   xmlns:rdf="http://www.w3.org/1999/02/22-rdf-syntax-ns#"
   xmlns:svg="http://www.w3.org/2000/svg"
   xmlns="http://www.w3.org/2000/svg"
   xmlns:xlink="http://www.w3.org/1999/xlink"
   xmlns:sodipodi="http://sodipodi.sourceforge.net/DTD/sodipodi-0.dtd"
   xmlns:inkscape="http://www.inkscape.org/namespaces/inkscape"
   width="1224"
   height="720"
   viewBox="0 0 323.85001 190.5"
   version="1.1"
   id="svg2961"
   sodipodi:docname="primorka-selenga-kamen.svg"
   inkscape:version="0.92.3 (2405546, 2018-03-11)">
  <defs
     id="defs2955" />
  <sodipodi:namedview
     id="base"
     pagecolor="#ffffff"
     bordercolor="#666666"
     borderopacity="1.0"
     inkscape:pageopacity="0.0"
     inkscape:pageshadow="2"
     inkscape:zoom="0.7"
     inkscape:cx="778.41372"
     inkscape:cy="269.19446"
     inkscape:document-units="mm"
     inkscape:current-layer="layer1"
     showgrid="false"
     inkscape:window-width="1366"
     inkscape:window-height="715"
     inkscape:window-x="0"
     inkscape:window-y="0"
     inkscape:window-maximized="1"
     fit-margin-top="0"
     fit-margin-left="0"
     fit-margin-right="0"
     fit-margin-bottom="0"
     units="px" />
  <metadata
     id="metadata2958">
    <rdf:RDF>
      <cc:Work
         rdf:about="">
        <dc:format>image/svg+xml</dc:format>
        <dc:type
           rdf:resource="http://purl.org/dc/dcmitype/StillImage" />
        <dc:title></dc:title>
      </cc:Work>
    </rdf:RDF>
  </metadata>
  <g
     inkscape:label="Layer 1"
     inkscape:groupmode="layer"
     id="layer1"
     transform="translate(0.09449404,-0.00520833)">
    <image
       sodipodi:absref="/home/aanper/project/luysy-imn-eh/pi/boot/bydefault/web/img/primorka.png"
       y="0.0052083312"
       x="-0.094494045"
       id="image3565"
       xlink:href="file:///home/aanper/project/luysy-imn-eh/pi/boot/bydefault/web/img/primorka.png"
       preserveAspectRatio="none"
       height="190.5"
       width="323.85001"
       style="fill:#00ff00;fill-opacity:1" />
    <circle
       style="fill:#00ff00;fill-opacity:1;stroke:#00ff00;stroke-width:0.30000001;stroke-miterlimit:4;stroke-dasharray:none;stroke-opacity:1;paint-order:stroke fill markers"
       id="path3587"
       cx="64.633926"
       cy="51.315475"
       r="1.4174107" />
    <circle
       style="fill:#00ff00;fill-opacity:1;stroke:#00ff00;stroke-width:0.30000001;stroke-miterlimit:4;stroke-dasharray:none;stroke-opacity:1;paint-order:stroke fill markers"
       id="path3589"
       cx="260.70908"
       cy="99.034966"
       r="1.5119048" />
    <circle
       style="fill:#00ff00;fill-opacity:1;stroke:#00ff00;stroke-width:0.30000001;stroke-miterlimit:4;stroke-dasharray:none;stroke-opacity:1;paint-order:stroke fill markers"
       id="path3591"
       cx="105.73884"
       cy="116.23288"
       r="1.3229166" />
    <ellipse
       style="fill:#00ff00;fill-opacity:1;stroke:#00ff00;stroke-width:0.30000001;stroke-miterlimit:4;stroke-dasharray:none;stroke-opacity:1;paint-order:stroke fill markers"
       id="path3593"
       cx="125.67709"
       cy="54.811752"
       rx="1.0394346"
       ry="1.1339285" />
    <ellipse
       style="fill:none;fill-opacity:1;stroke:#00ff00;stroke-width:0.30000001;stroke-miterlimit:4;stroke-dasharray:none;stroke-opacity:1;paint-order:stroke fill markers"
       id="path3595"
       cx="234.25075"
       cy="148.45535"
       rx="1.1339285"
       ry="0.8504464" />
    <path
       style="fill:none;fill-opacity:1;stroke:#00ff00;stroke-width:0.30000001;stroke-miterlimit:4;stroke-dasharray:none;stroke-opacity:1;paint-order:stroke fill markers"
       d="m 234.62872,148.92782 c 0.97409,-0.51448 1.64608,1.20102 2.26786,1.51191 0.11268,0.0564 0.28888,-0.0891 0.37797,0 0.0891,0.0891 -0.0891,0.28889 0,0.37798 0.0891,0.0891 0.26529,-0.0564 0.37798,0 1.25359,1.25358 -0.35636,-0.17818 0.75595,0.37797 0.17503,0.0875 1.2896,1.2896 1.5119,1.51191 0.199,0.19899 1.033,0.93205 1.13393,1.13393 0.0564,0.11269 -0.0891,0.28888 0,0.37797 0.0891,0.0891 0.28889,-0.0891 0.37798,0 0.0891,0.0891 -0.0891,0.28889 0,0.37798 0.0891,0.0891 0.28889,-0.0891 0.37797,0 0.0891,0.0891 -0.0563,0.26528 0,0.37798 0.0797,0.15936 0.2983,0.2186 0.37798,0.37797 0.0563,0.11269 -0.0563,0.26529 0,0.37798 0.0797,0.15937 0.29829,0.2186 0.37798,0.37797 0.0563,0.11269 -0.0891,0.28889 0,0.37798 0.25273,0.25274 0.50321,-0.25274 0.75595,0 0.0891,0.0891 -0.0891,0.28889 0,0.37797 0.17818,0.17819 0.57777,-0.17817 0.75595,0 0.0891,0.0891 -0.0891,0.28889 0,0.37798 0.17818,0.17818 0.53057,-0.11269 0.75596,0 0.15936,0.0797 0.2186,0.29829 0.37797,0.37798 0.22538,0.11269 0.53057,-0.11269 0.75595,0 0.15937,0.0797 0.21861,0.29829 0.37798,0.37797 0.0994,0.0497 1.31425,0 1.5119,0 1.25992,0 2.51985,0 3.77977,0 0.62995,0 1.25992,0 1.88988,0 0.12599,0 0.25198,0 0.37797,0 0.12599,0 0.26529,0.0564 0.37798,0 0.15937,-0.0797 0.21861,-0.29829 0.37797,-0.37797 0.1127,-0.0564 0.25199,0 0.37798,0 0.75595,0 1.51191,0 2.26786,0 0.12599,0 0.28889,-0.0891 0.37797,0 0.0891,0.0891 -0.0891,0.28888 0,0.37797 0.091,0.091 1.42096,-0.0909 1.51191,0 0.0891,0.0891 -0.0891,0.28889 0,0.37798 0.0909,0.0909 1.42095,-0.0909 1.51191,0 0.0891,0.0891 -0.0891,0.28889 0,0.37798 0.091,0.0909 1.42095,-0.091 1.5119,0 0.0891,0.0891 -0.0891,0.28888 0,0.37797 0.091,0.091 1.42095,-0.091 1.5119,0 0.0891,0.0891 -0.0891,0.28889 0,0.37798 0.0891,0.0891 0.25199,0 0.37798,0 0.2629,0 1.7532,-0.0683 1.88988,0 0.15936,0.0797 0.2186,0.29829 0.37799,0.37797 0.11501,0.0575 0.96369,0 1.13392,0 0.88194,0 1.76387,0 2.64584,0 0.1702,0 1.01888,-0.0575 1.13392,0 0.15936,0.0797 0.2186,0.2983 0.37798,0.37798 0.23755,0.11878 1.27434,-0.11878 1.51189,0 0.15938,0.0797 0.21862,0.29829 0.37798,0.37798 0.23847,0.11922 1.65142,-0.11923 1.88989,0 0.15936,0.0797 0.2186,0.29829 0.37796,0.37797 0.11504,0.0575 0.96372,0 1.13395,0 0.88194,0 1.76387,0 2.64583,0 0.12597,0 0.25197,0 0.37796,0 0.126,0 0.2889,-0.0891 0.37799,0 0.0891,0.0891 -0.0891,0.28889 0,0.37798 0.18899,0.18899 0.94493,-0.18899 1.13392,0 0.0891,0.0891 -0.0891,0.28888 0,0.37798 0.67755,0.67754 0.0784,-0.67755 0.75597,0 0.0891,0.0891 -0.0891,0.28888 0,0.37797 0.17817,0.17818 0.53057,-0.11269 0.75594,0 0.15936,0.0797 0.2186,0.29829 0.37798,0.37798 0.20505,0.10252 1.40849,-0.10342 1.51191,0 0.0891,0.0891 -0.0891,0.28889 0,0.37798 0.0891,0.0891 0.28887,-0.0891 0.37796,0 0.0891,0.0891 -0.0891,0.28888 0,0.37797 0.69331,0.6933 0.0627,-0.6933 0.75597,0 0.0891,0.0891 -0.0891,0.28889 0,0.37798 0.0773,0.0773 0.98406,-0.0749 1.13392,0 0.15936,0.0797 0.2186,0.29829 0.37798,0.37797 0.11269,0.0563 0.25197,0 0.37796,0 0.75597,0 1.51191,0 2.26788,0 0.12597,0 0.28887,0.0891 0.37796,0 0.0891,-0.0891 -0.0891,-0.28888 0,-0.37797 0.0122,-0.0122 1.04227,0 1.13392,0 0.62997,0 1.25992,0 1.88989,0 0.126,0 0.2889,0.0891 0.37799,0 0.0891,-0.0891 -0.0891,-0.28889 0,-0.37798 0.17817,-0.17818 0.57777,0.17818 0.75594,0 0.0891,-0.0891 -0.0891,-0.28889 0,-0.37797 0.0891,-0.0891 0.2889,0.0891 0.37798,0 0.0891,-0.0891 -0.0564,-0.26529 0,-0.37798 1.2536,-1.25359 -0.17817,0.35636 0.37798,-0.75595 0.0797,-0.15937 0.2983,-0.21861 0.37796,-0.37798 0.0564,-0.11269 -0.0891,-0.28889 0,-0.37798 0.0891,-0.0891 0.2889,0.0891 0.37799,0 0.17817,-0.17818 -0.11269,-0.53057 0,-0.75595 0.15935,-0.31874 0.59658,-0.43721 0.75594,-0.75595 0.0564,-0.11269 -0.0563,-0.26529 0,-0.37798 0.41788,-0.83572 0.2346,-0.11729 0.75596,-0.37797 0.15936,-0.0797 0.2186,-0.29829 0.37799,-0.37798 0.11268,-0.0564 0.25196,0 0.37796,0 0.12599,0 0.25198,0 0.37798,0 0.12599,0 0.25199,0 0.37798,0 0.126,0 0.26527,-0.0564 0.37796,0 0.15938,0.0797 0.21863,0.29829 0.37798,0.37798 0.2254,0.11269 0.53057,-0.1127 0.75597,0 0.15936,0.0797 0.2186,0.29829 0.37796,0.37797 0.14986,0.0749 1.05666,-0.0773 1.13392,0 0.0891,0.0891 -0.0891,0.28889 0,0.37798 0.189,0.18899 0.94496,-0.18899 1.13395,0 0.0891,0.0891 -0.0891,0.28889 0,0.37797 0.17817,0.17818 0.57778,-0.17817 0.75595,0 0.0891,0.0891 -0.0891,0.28889 0,0.37798 0.17817,0.17818 0.57777,-0.17818 0.75594,0 0.0891,0.0891 -0.0891,0.28889 0,0.37798 1.00795,0 -0.12597,-0.12599 0.37798,0.37797 0.17817,0.17818 0.57777,-0.17818 0.75597,0 0.0891,0.0891 -0.0891,0.28889 0,0.37798 0.0891,0.0891 0.26527,-0.0563 0.37796,0 0.15938,0.0797 0.21862,0.29829 0.37798,0.37798 0.22537,0.11269 0.57777,-0.17818 0.75594,0 0.0891,0.0891 -0.0891,0.28888 0,0.37797 0.1782,0.17818 0.5306,-0.11269 0.75597,0 1.25359,1.25359 -0.35637,-0.17818 0.75594,0.37798 0.15938,0.0797 0.21862,0.29829 0.37798,0.37798 0.22537,0.11268 0.53057,-0.1127 0.75594,0 0.15939,0.0797 0.21863,0.29829 0.37799,0.37797 0.2254,0.11269 0.53057,-0.11269 0.75596,0 0.15936,0.0797 0.2186,0.29829 0.37796,0.37798 0.2254,0.11269 0.53057,-0.11269 0.75597,0 0.15936,0.0797 0.2186,0.29829 0.37796,0.37797 0.11271,0.0563 0.25199,0 0.37798,0 0.12599,0.12599 0.2186,0.29829 0.37798,0.37798 0.11269,0.0563 0.26528,-0.0563 0.37799,0 0.31871,0.15937 0.4372,0.59658 0.75594,0.75595 0.11268,0.0564 0.2889,-0.0891 0.37798,0 0.0891,0.0891 -0.0891,0.28889 0,0.37798 0.0891,0.0891 0.25199,0 0.37796,0 0,0.12599 -0.0891,0.28888 0,0.37797 0.0891,0.0891 0.2653,-0.0563 0.37798,0 0.15939,0.0797 0.2186,0.2983 0.37799,0.37798 0.11268,0.0564 0.26527,-0.0564 0.37798,0 0.15936,0.0797 0.2186,0.29829 0.37796,0.37798 0.2254,0.11269 0.57777,-0.17818 0.75597,0 0.0891,0.0891 -0.0891,0.28888 0,0.37797 0.17817,0.17818 0.57777,-0.17818 0.75594,0 0.0891,0.0891 0,0.25199 0,0.37798 0.12599,0 0.26529,-0.0563 0.37798,0 0.15936,0.0797 0.2186,0.29829 0.37798,0.37797 0.11269,0.0564 0.28888,-0.0891 0.37796,0 0.0891,0.0891 -0.0891,0.28889 0,0.37798 0.1782,0.17818 0.53057,-0.11269 0.75597,0 0.15936,0.0797 0.2186,0.29829 0.37796,0.37798 0.22539,0.11269 0.57779,-0.17818 0.75596,0 0.0891,0.0891 -0.0891,0.28888 0,0.37797 0.0891,0.0891 0.28888,0.0891 0.37799,0 0.0891,-0.0891 -0.0891,-0.28888 0,-0.37797 0.62994,-0.62996 0.37795,1.38591 0.37795,-0.75596"
       id="path3727"
       inkscape:connector-curvature="0" />
  </g>
</svg>
