<?xml version="1.0" encoding="UTF-8" standalone="no"?>
<!-- Created with Inkscape (http://www.inkscape.org/) -->

<svg
   xmlns:dc="http://purl.org/dc/elements/1.1/"
   xmlns:cc="http://creativecommons.org/ns#"
   xmlns:rdf="http://www.w3.org/1999/02/22-rdf-syntax-ns#"
   xmlns:svg="http://www.w3.org/2000/svg"
   xmlns="http://www.w3.org/2000/svg"
   xmlns:xlink="http://www.w3.org/1999/xlink"
   xmlns:sodipodi="http://sodipodi.sourceforge.net/DTD/sodipodi-0.dtd"
   xmlns:inkscape="http://www.inkscape.org/namespaces/inkscape"
   width="1224"
   height="720"
   viewBox="0 0 323.85001 190.5"
   version="1.1"
   id="svg2961"
   sodipodi:docname="primorka-primorka-selenga.svg"
   inkscape:version="0.92.3 (2405546, 2018-03-11)">
  <defs
     id="defs2955" />
  <sodipodi:namedview
     id="base"
     pagecolor="#ffffff"
     bordercolor="#666666"
     borderopacity="1.0"
     inkscape:pageopacity="0.0"
     inkscape:pageshadow="2"
     inkscape:zoom="0.7"
     inkscape:cx="549.84229"
     inkscape:cy="383.48018"
     inkscape:document-units="mm"
     inkscape:current-layer="layer1"
     showgrid="false"
     inkscape:window-width="1366"
     inkscape:window-height="715"
     inkscape:window-x="0"
     inkscape:window-y="0"
     inkscape:window-maximized="1"
     fit-margin-top="0"
     fit-margin-left="0"
     fit-margin-right="0"
     fit-margin-bottom="0"
     units="px" />
  <metadata
     id="metadata2958">
    <rdf:RDF>
      <cc:Work
         rdf:about="">
        <dc:format>image/svg+xml</dc:format>
        <dc:type
           rdf:resource="http://purl.org/dc/dcmitype/StillImage" />
        <dc:title></dc:title>
      </cc:Work>
    </rdf:RDF>
  </metadata>
  <g
     inkscape:label="Layer 1"
     inkscape:groupmode="layer"
     id="layer1"
     transform="translate(0.09449404,-0.00520833)">
    <image
       sodipodi:absref="/home/aanper/project/luysy-imn-eh/pi/boot/bydefault/web/img/primorka.png"
       y="0.0052083312"
       x="-0.094494045"
       id="image3565"
       xlink:href="file:///home/aanper/project/luysy-imn-eh/pi/boot/bydefault/web/img/primorka.png"
       preserveAspectRatio="none"
       height="190.5"
       width="323.85001"
       style="fill:#00ff00;fill-opacity:1" />
    <circle
       style="fill:#00ff00;fill-opacity:1;stroke:#00ff00;stroke-width:0.30000001;stroke-miterlimit:4;stroke-dasharray:none;stroke-opacity:1;paint-order:stroke fill markers"
       id="path3587"
       cx="64.633926"
       cy="51.315475"
       r="1.4174107" />
    <circle
       style="fill:#00ff00;fill-opacity:1;stroke:#00ff00;stroke-width:0.30000001;stroke-miterlimit:4;stroke-dasharray:none;stroke-opacity:1;paint-order:stroke fill markers"
       id="path3589"
       cx="260.70908"
       cy="99.034966"
       r="1.5119048" />
    <circle
       style="fill:#00ff00;fill-opacity:1;stroke:#00ff00;stroke-width:0.30000001;stroke-miterlimit:4;stroke-dasharray:none;stroke-opacity:1;paint-order:stroke fill markers"
       id="path3591"
       cx="105.73884"
       cy="116.23288"
       r="1.3229166" />
    <ellipse
       style="fill:#00ff00;fill-opacity:1;stroke:#00ff00;stroke-width:0.30000001;stroke-miterlimit:4;stroke-dasharray:none;stroke-opacity:1;paint-order:stroke fill markers"
       id="path3593"
       cx="125.67709"
       cy="54.811752"
       rx="1.0394346"
       ry="1.1339285" />
    <ellipse
       style="fill:none;fill-opacity:1;stroke:#00ff00;stroke-width:0.30000001;stroke-miterlimit:4;stroke-dasharray:none;stroke-opacity:1;paint-order:stroke fill markers"
       id="path3595"
       cx="234.25075"
       cy="148.45535"
       rx="1.1339285"
       ry="0.8504464" />
    <path
       style="fill:none;fill-opacity:1;stroke:#00ff00;stroke-width:0.30000001;stroke-miterlimit:4;stroke-dasharray:none;stroke-opacity:1;paint-order:stroke fill markers"
       d="m 127.66146,54.43378 c -0.72955,0.128447 -0.20829,2.514738 -0.37798,3.023809 -0.0563,0.169035 -0.29829,0.218607 -0.37798,0.377976 -0.0161,0.03222 -0.0161,1.479682 0,1.511903 0.0797,0.159369 0.2983,0.21861 0.37798,0.377979 0.0564,0.112688 -0.0563,0.265284 0,0.377976 0.0797,0.159369 0.29829,0.218606 0.37798,0.377975 0.0563,0.112692 -0.0564,0.265285 0,0.377976 0.78652,1.573046 -0.0261,-0.404069 0.75595,0.377976 0.78205,0.782048 -1.19507,-0.03057 0.37798,0.755952 0.11269,0.05635 0.28888,-0.08909 0.37797,0 0.0891,0.08909 -0.0891,0.288888 0,0.377978 0.0891,0.08909 0.26529,-0.05635 0.37798,0 1.25359,1.253588 -0.35636,-0.178181 0.75595,0.377976 0.31874,0.159369 0.43722,0.596582 0.75595,0.755952 0.11269,0.05635 0.26529,-0.05635 0.37798,0 0.15937,0.07968 0.21861,0.298291 0.37798,0.377975 0.22538,0.112692 0.51689,-0.07968 0.75595,0 0.26727,0.08909 0.48868,0.288888 0.75595,0.377976 0.11953,0.03984 0.26529,-0.05635 0.37798,0 0.15936,0.07968 0.2186,0.298291 0.37797,0.377976 0.30238,0.151191 0.83155,-0.151188 1.13393,0 0.15937,0.07968 0.21861,0.298294 0.37798,0.377978 0.23756,0.118782 1.27434,-0.118784 1.5119,0 0.15937,0.07968 0.21861,0.298292 0.37798,0.377976 0.23756,0.118782 1.27434,-0.118784 1.5119,0 0.15937,0.07968 0.21861,0.298291 0.37798,0.377976 0.208,0.104 1.97236,-0.0985 2.26786,0 0.16903,0.05635 0.2186,0.298291 0.37797,0.377976 0.22952,0.114758 2.03834,-0.114758 2.26786,0 0.15937,0.07968 0.21861,0.298291 0.37798,0.377976 0.11269,0.05635 0.25198,0 0.37797,0 0.12599,0 0.25199,0 0.37798,0 0.62996,0 1.25992,0 1.88988,0 0.62996,0 1.25992,0 1.88988,0 0.12599,0 0.25198,0 0.37798,0 0.12599,0 0.26528,-0.05635 0.37797,0 0.15937,0.07968 0.21861,0.298291 0.37798,0.377975 0.11269,0.05635 0.25198,0 0.37797,0 0.25199,0 0.50397,0 0.75596,0 0.75595,0 1.5119,0 2.26785,0 0.126,0 0.25199,0 0.37798,0 0.12599,0 0.26529,-0.05635 0.37797,0 0.15937,0.07968 0.21861,0.298292 0.37798,0.377976 0.11269,0.05635 0.25199,0 0.37798,0 0.12599,0 0.25198,0 0.37797,0 0.62996,0 1.25992,0 1.88989,0 0.62996,0 1.25992,0 1.88988,0 0.12599,0 0.28888,-0.08909 0.37797,0 0.0891,0.08909 -0.0891,0.288888 0,0.377979 0.18899,0.188986 0.94494,-0.18899 1.13393,0 0.0891,0.08909 -0.0891,0.288885 0,0.377976 0.17818,0.178178 0.53057,-0.112692 0.75595,0 0.15937,0.07968 0.21861,0.298291 0.37798,0.377975 0.22538,0.112692 0.57777,-0.178181 0.75595,0 0.0891,0.08909 -0.0891,0.288886 0,0.377976 0.0909,0.09095 1.42095,-0.09095 1.51191,0 0.0891,0.08909 -0.0891,0.288885 0,0.377976 0.18899,0.188989 0.94494,-0.188987 1.13393,0 0.0891,0.08909 -0.0891,0.288888 0,0.377976 0.17817,0.178181 0.53057,-0.112692 0.75595,0 0.15937,0.07968 0.2186,0.298291 0.37797,0.377976 0.1127,0.05634 0.28889,-0.08909 0.37798,0 0.0891,0.08909 -0.0564,0.265287 0,0.377978 1.25359,1.253588 -0.17818,-0.356359 0.37798,0.755952 0.0797,0.159369 0.29829,0.218606 0.37797,0.377975 0.11269,0.225383 -0.11269,0.530572 0,0.755952 0.0797,0.159369 0.2983,0.218609 0.37798,0.377976 0.0489,0.09773 0,1.999948 0,2.267857 0,1.007938 0,2.015874 0,3.023809 0,0.248373 0.0711,0.920676 0,1.133931 -0.0891,0.267268 -0.28889,0.488682 -0.37798,0.755951 -0.10141,0.304234 0.12077,1.270371 0,1.511906 -0.0797,0.159369 -0.29829,0.218607 -0.37797,0.377976 -0.0564,0.112691 0,0.251984 0,0.377976 0,0.251984 0,0.503967 0,0.755951 0,0.886423 0.0891,-0.178178 -0.37798,0.755955 -0.11737,0.234733 0.1211,2.025657 0,2.267854 -0.0797,0.159369 -0.29829,0.21861 -0.37798,0.377979 -0.11878,0.237564 0.11879,1.274336 0,1.511903 -0.0797,0.159369 -0.32163,0.208941 -0.37797,0.377976 -0.0576,0.172881 0.0841,1.343715 0,1.511906 -0.0797,0.159369 -0.29829,0.218606 -0.37798,0.377976 -0.0563,0.112691 0.0398,0.25845 0,0.377975 -0.0891,0.267269 -0.28889,0.488683 -0.37797,0.755952 -0.0797,0.239054 0.11269,0.530572 0,0.755954 -0.0797,0.159369 -0.32164,0.208939 -0.37798,0.377976 -0.11953,0.358579 0.11953,0.775348 0,1.133927 -0.0891,0.267272 -0.28889,0.488683 -0.37798,0.755955 -0.0398,0.119525 0.0563,0.265284 0,0.377976 -0.0797,0.159369 -0.32163,0.208938 -0.37797,0.377975 -0.0797,0.239054 0.0797,0.516898 0,0.755952 -0.0564,0.169037 -0.32163,0.208941 -0.37798,0.377976 -0.0797,0.239053 0.0611,0.511492 0,0.755954 -0.0683,0.273315 -0.28888,0.488683 -0.37798,0.755952 -0.0398,0.119525 0.0399,0.25845 0,0.377975 -0.0891,0.267269 -0.30964,0.482637 -0.37797,0.755952 -0.0611,0.244462 0.0797,0.516901 0,0.755954 -0.0563,0.169035 -0.32163,0.208939 -0.37798,0.377976 -0.0797,0.239048 0.0797,0.516898 0,0.755948 -0.0563,0.16904 -0.27914,0.22973 -0.37798,0.37798 -0.15627,0.23441 -0.28888,0.48868 -0.37797,0.75595 -0.0398,0.11953 0.0398,0.25845 0,0.37798 -0.0891,0.26727 -0.28889,0.48868 -0.37798,0.75595 -0.0398,0.11953 0.0399,0.25845 0,0.37798 -0.0891,0.26727 -0.28888,0.48868 -0.37797,0.75595 -0.0398,0.11953 0.0563,0.26529 0,0.37797 -0.0797,0.15937 -0.32163,0.20895 -0.37798,0.37798 -0.0797,0.23905 0.0797,0.5169 0,0.75595 -0.11269,0.33808 -0.59658,0.43722 -0.75595,0.75596 -0.0563,0.11269 0.0563,0.26528 0,0.37797 -0.0797,0.15937 -0.32163,0.20894 -0.37798,0.37798 -0.0797,0.23905 0.0797,0.5169 0,0.75595 -0.0563,0.16904 -0.29829,0.21861 -0.37797,0.37798 -0.0564,0.11269 0,0.25198 0,0.37797 -0.126,0.25199 -0.22171,0.52154 -0.37798,0.75596 -0.0988,0.14825 -0.32163,0.20894 -0.37798,0.37797 -0.0797,0.23905 0.0797,0.5169 0,0.75596 -0.0563,0.16903 -0.29829,0.2186 -0.37797,0.37797 -0.0564,0.11269 0.0398,0.25845 0,0.37798 -0.0891,0.26727 -0.28889,0.48868 -0.37798,0.75595 -0.0398,0.11953 0.0564,0.26529 0,0.37797 -0.0797,0.15937 -0.29829,0.21861 -0.37797,0.37798 -0.0564,0.11269 0.0398,0.25845 0,0.37798 -0.0891,0.26727 -0.28889,0.48868 -0.37798,0.75595 -0.0398,0.11953 0.0563,0.26528 0,0.37798 -0.0797,0.15937 -0.32163,0.20894 -0.37798,0.37797 -0.0797,0.23906 0,0.50397 0,0.75596 0,0.12599 0.0563,0.26528 0,0.37797 -0.0797,0.15937 -0.29829,0.21861 -0.37797,0.37798 -0.11269,0.22538 0.0797,0.5169 0,0.75595 -0.0891,0.26727 -0.28889,0.48868 -0.37798,0.75595 -0.0867,0.25999 0.11151,0.91092 0,1.13393 -0.0797,0.15937 -0.29829,0.21861 -0.37798,0.37798 -0.11475,0.22951 0.11476,2.03834 0,2.26785 -0.0797,0.15937 -0.29829,0.21861 -0.37797,0.37798 -0.0489,0.0977 0,1.99995 0,2.26786 0,0.88194 0,1.76389 0,2.64583 0,0.17023 -0.0575,1.0189 0,1.13393 0.0797,0.15937 0.29829,0.21861 0.37797,0.37797 0.1127,0.22539 -0.11269,0.53058 0,0.75596 0.0797,0.15937 0.2983,0.21861 0.37798,0.37797 0.11269,0.22538 -0.11269,0.53058 0,0.75596 0.0797,0.15936 0.29829,0.2186 0.37798,0.37797 0.11878,0.23757 -0.11879,1.27434 0,1.51191 0.0797,0.15937 0.29829,0.2186 0.37797,0.37797 0.11269,0.22539 -0.11269,0.53057 0,0.75595 0.0797,0.15937 0.2983,0.21861 0.37798,0.37798 0.11269,0.22538 -0.11269,0.53057 0,0.75596 0.0797,0.15936 0.29829,0.2186 0.37798,0.37797 0.11269,0.22538 -0.11269,0.53057 0,0.75595 0.0797,0.15937 0.29829,0.21861 0.37797,0.37798 0.0749,0.14986 -0.0773,1.05665 0,1.13393 0.0891,0.0891 0.28889,-0.0891 0.37798,0 0.17818,0.17818 -0.17818,0.57777 0,0.75595 0.0891,0.0891 0.28888,-0.0891 0.37797,0 0.17818,0.17818 -0.17817,0.57777 0,0.75595 0.0891,0.0891 0.28889,-0.0891 0.37798,0 0.0773,0.0773 -0.0749,0.98407 0,1.13393 0.0797,0.15937 0.29829,0.21861 0.37798,0.37798 0.11269,0.22538 -0.11269,0.53057 0,0.75595 0.0797,0.15937 0.29829,0.21861 0.37797,0.37797 0.0563,0.1127 0,0.25199 0,0.37798 0,0.25199 -0.0797,0.5169 0,0.75595 0.0563,0.16904 0.2983,0.21861 0.37798,0.37798 0.15119,0.30238 -0.15119,0.83155 0,1.13393 0.0797,0.15937 0.29829,0.21861 0.37798,0.37797 0.11269,0.22539 -0.0797,0.5169 0,0.75596 0.0891,0.26727 0.28888,0.48868 0.37797,0.75595 0.0867,0.25998 -0.1115,0.91092 0,1.13393 0.0797,0.15937 0.29829,0.21861 0.37798,0.37798 0.11878,0.23756 -0.11878,1.27433 0,1.5119 0.0797,0.15937 0.29829,0.21861 0.37797,0.37797 0.15119,0.30239 -0.15119,0.83155 0,1.13393 0.0797,0.15937 0.29829,0.21861 0.37798,0.37798 0.11269,0.22538 -0.11269,0.53057 0,0.75595 0.0797,0.15937 0.29829,0.21861 0.37797,0.37798 0.1127,0.22538 -0.11268,0.53057 0,0.75595 0.0797,0.15937 0.2983,0.21861 0.37798,0.37798 0.0749,0.14986 -0.0773,1.05665 0,1.13393 0.0891,0.0891 0.28889,-0.0891 0.37798,0 0.17818,0.17818 -0.11269,0.53057 0,0.75595 0.0797,0.15937 0.29829,0.21861 0.37797,0.37798 0.0564,0.11268 -0.0891,0.28888 0,0.37797 0.0891,0.0891 0.28889,-0.0891 0.37798,0 0.0891,0.0891 -0.0564,0.26529 0,0.37798 0.0797,0.15937 0.29829,0.2186 0.37798,0.37797 0.0563,0.11269 -0.0891,0.28889 0,0.37798 0.0891,0.0891 0.28888,-0.0891 0.37797,0 0.0891,0.0891 -0.0891,0.28889 0,0.37797 0.0891,0.0891 0.28889,-0.0891 0.37798,0 0.0891,0.0891 -0.0891,0.28889 0,0.37798 0.0891,0.0891 0.28889,-0.0891 0.37798,0 0.0891,0.0891 -0.0891,0.28889 0,0.37798 0.0891,0.0891 0.28888,-0.0891 0.37797,0 0.0891,0.0891 -0.0891,0.28888 0,0.37797 0.0891,0.0891 0.28889,-0.0891 0.37798,0 0.0891,0.0891 -0.0891,0.28889 0,0.37798 0.0891,0.0891 0.26528,-0.0564 0.37797,0 0.15937,0.0797 0.21861,0.29829 0.37798,0.37798 0.11269,0.0563 0.25198,0 0.37798,0 0.12599,0.12599 0.2186,0.29829 0.37797,0.37797 0.11269,0.0563 0.28889,-0.0891 0.37798,0 0.0891,0.0891 -0.0891,0.28889 0,0.37798 0.17818,0.17818 0.53057,-0.11269 0.75595,0 0.31874,0.15937 0.43721,0.59658 0.75595,0.75595 0.11269,0.0564 0.28889,-0.0891 0.37798,0 0.0891,0.0891 -0.0891,0.28889 0,0.37798 0.0891,0.0891 0.26529,-0.0564 0.37797,0 0.31874,0.15937 0.43722,0.59658 0.75596,0.75595 0.11269,0.0564 0.28888,-0.0891 0.37797,0 0.0891,0.0891 -0.0891,0.28888 0,0.37798 0.0891,0.0891 0.28889,-0.0891 0.37798,0 0.0891,0.0891 -0.0891,0.28888 0,0.37797 0.0891,0.0891 0.28889,-0.0891 0.37798,0 0.0891,0.0891 -0.0891,0.28889 0,0.37798 0.0891,0.0891 0.28888,-0.0891 0.37797,0 0.17818,0.17818 -0.17818,0.57777 0,0.75595 0.0891,0.0891 0.28889,-0.0891 0.37798,0 0.0891,0.0891 -0.0891,0.28889 0,0.37798 0.0891,0.0891 0.28889,-0.0891 0.37798,0 0.17817,0.17818 -0.17818,0.57777 0,0.75595 0.0891,0.0891 0.28888,-0.0891 0.37797,0 0.0891,0.0891 -0.0563,0.26529 0,0.37797 0.0797,0.15937 0.29829,0.21861 0.37798,0.37798 0.0563,0.11269 -0.0891,0.28889 0,0.37798 0.0891,0.0891 0.28888,-0.0891 0.37797,0 0.78205,0.78204 -1.19507,-0.0306 0.37798,0.75595 0.11269,0.0564 0.26529,-0.0564 0.37798,0 0.15936,0.0797 0.2186,0.29829 0.37797,0.37798 0.14987,0.0749 1.05666,-0.0773 1.13393,0 0.0891,0.0891 -0.0891,0.28888 0,0.37797 0.0378,0.0378 1.09613,0.0378 1.13393,0 0.0891,-0.0891 -0.0891,-0.28888 0,-0.37797 0.17818,-0.17818 0.53057,0.11269 0.75595,0 0.15937,-0.0797 0.21861,-0.2983 0.37798,-0.37798 0.11269,-0.0564 0.26528,0.0564 0.37797,0 0.15937,-0.0797 0.21861,-0.29829 0.37798,-0.37798 0.22538,-0.11269 0.53057,0.11269 0.75595,0 0.15937,-0.0797 0.21861,-0.29829 0.37798,-0.37797 0.11269,-0.0564 0.26528,0.0563 0.37798,0 0.15936,-0.0797 0.2186,-0.2983 0.37797,-0.37798 0.22538,-0.11269 0.53057,0.11269 0.75595,0 0.15937,-0.0797 0.21861,-0.29829 0.37798,-0.37798 0.22538,-0.11268 0.57777,0.17819 0.75595,0 0.0891,-0.0891 -0.0891,-0.28888 0,-0.37797 0.17818,-0.17818 0.57777,0.17818 0.75596,0 0.0891,-0.0891 0.0891,-0.28889 0,-0.37798 -0.0891,-0.0891 -0.28889,0.0891 -0.37798,0 -0.0891,-0.0891 0.0891,-0.28888 0,-0.37797 -0.0891,-0.0891 -0.28889,0.0891 -0.37798,0 -0.0891,-0.0891 0.0891,-0.28889 0,-0.37798 -0.17818,-0.17818 -0.57777,0.17818 -0.75595,0 -0.0891,-0.0891 0.0564,-0.26529 0,-0.37797 -0.78652,-1.57305 0.0261,0.40406 -0.75595,-0.37798 -0.0891,-0.0891 0.0891,-0.28889 0,-0.37798 -0.0891,-0.0891 -0.26529,0.0563 -0.37798,0 -0.15937,-0.0797 -0.25198,-0.25198 -0.37797,-0.37797 -0.126,-0.126 -0.21861,-0.2983 -0.37798,-0.37798 -0.22538,-0.11269 -0.57777,0.17818 -0.75595,0 -0.0891,-0.0891 0.0891,-0.28889 0,-0.37798 -0.17818,-0.17818 -0.57778,0.17818 -0.75596,0 -0.0891,-0.0891 0.0891,-0.28888 0,-0.37797 -0.17818,-0.17818 -0.53057,0.11269 -0.75595,0 -0.37194,-0.18597 -1.13996,-1.32594 -1.5119,-1.51191 -0.11269,-0.0563 -0.28889,0.0891 -0.37798,0 -0.0891,-0.0891 0.0564,-0.26528 0,-0.37797 -0.0797,-0.15937 -0.25198,-0.25199 -0.37797,-0.37798 -0.126,-0.12599 -0.2983,-0.21861 -0.37798,-0.37798 -0.0563,-0.11269 0.0891,-0.28888 0,-0.37797 -0.0891,-0.0891 -0.28889,0.0891 -0.37798,0 -0.0891,-0.0891 0.0891,-0.28889 0,-0.37798 -0.0891,-0.0891 -0.28888,0.0891 -0.37797,0 -0.0891,-0.0891 0.0891,-0.28888 0,-0.37798 -0.0891,-0.0891 -0.28889,0.0891 -0.37798,0 -0.17818,-0.17817 0.11269,-0.53056 0,-0.75595 -0.0797,-0.15937 -0.29829,-0.2186 -0.37798,-0.37797 -0.0211,-0.0422 -0.0211,-1.8477 0,-1.88988 0.0797,-0.15937 0.2983,-0.21861 0.37798,-0.37798 0.0564,-0.11269 -0.0891,-0.28889 0,-0.37798 0.0891,-0.0891 0.28889,0.0891 0.37798,0 0.0891,-0.0891 -0.0891,-0.28888 0,-0.37797 0.0891,-0.0891 0.28888,0.0891 0.37797,0 0.0891,-0.0891 -0.0891,-0.28889 0,-0.37798 0.0891,-0.0891 0.28889,0.0891 0.37798,0 0.0891,-0.0891 -0.0891,-0.28889 0,-0.37798 0.78204,-0.78204 -0.0306,1.19507 0.75595,-0.37797 0.0564,-0.11269 -0.0891,-0.28889 0,-0.37798 0.17818,-0.17818 0.57777,0.17818 0.75595,0 0.0891,-0.0891 -0.0891,-0.28888 0,-0.37797 0.0891,-0.0891 0.25199,0 0.37798,0 0.17821,0 1.87275,-0.0172 1.88988,0 0.0891,0.0891 -0.0891,0.28888 0,0.37797 0.10342,0.10343 1.30686,-0.10252 1.51191,0 0.15936,0.0797 0.2186,0.29829 0.37797,0.37798 0.22538,0.11269 0.57778,-0.17818 0.75595,0 0.0891,0.0891 -0.0891,0.28889 0,0.37797 0.18899,0.18899 0.94494,-0.18898 1.13393,0 0.0891,0.0891 -0.0891,0.28889 0,0.37798 0.18899,0.18899 0.94494,-0.18899 1.13393,0 0.0891,0.0891 -0.0891,0.28889 0,0.37798 0.18899,0.18898 0.94494,-0.18899 1.13393,0 0.0891,0.0891 -0.0891,0.28888 0,0.37797 0.0891,0.0891 0.25198,0 0.37797,0 0.126,0 0.25199,0 0.37798,0 0.19765,0 1.41252,-0.0497 1.51191,0 0.15937,0.0797 0.2186,0.2983 0.37797,0.37798 0.11269,0.0564 0.25199,0 0.37798,0 0.26791,0 2.17013,-0.0489 2.26786,0 0.15936,0.0797 0.2186,0.29829 0.37797,0.37798 0.0994,0.0497 1.31426,0 1.51191,0 1.00793,0 2.01587,0 3.02381,0 0.88642,0 -0.17818,0.0891 0.75595,-0.37798 0.30238,-0.15119 0.83155,0.15119 1.13393,0 0.15937,-0.0797 0.2186,-0.29829 0.37797,-0.37798 0.11269,-0.0563 0.25199,0 0.37798,0 0.12599,0 0.25198,0 0.37798,0 0.75595,0 1.5119,0 2.26785,0 1.88988,0 3.77977,0 5.66964,0 0.62997,0 1.25993,0 1.88989,0 0.12599,0 0.25198,0 0.37797,0 0.12599,0 0.26529,0.0564 0.37798,0 0.15937,-0.0797 0.21861,-0.29829 0.37797,-0.37797 0.1127,-0.0564 0.28889,0.0891 0.37798,0 0.0891,-0.0891 -0.0891,-0.28889 0,-0.37798 0.0891,-0.0891 0.28889,0.0891 0.37798,0 0.0891,-0.0891 -0.0891,-0.28889 0,-0.37798 0.0891,-0.0891 0.28888,0.0891 0.37797,0 0.0891,-0.0891 -0.0563,-0.26528 0,-0.37797 0.0797,-0.15937 0.2983,-0.21861 0.37798,-0.37798 0.11269,-0.22538 -0.17818,-0.57777 0,-0.75595 0.0891,-0.0891 0.28889,0.0891 0.37798,0 0.17818,-0.17818 -0.1127,-0.53057 0,-0.75595 0.0362,-0.0724 1.43955,-1.47573 1.5119,-1.51191 0.11269,-0.0563 0.26529,0.0563 0.37798,0 0.31874,-0.15937 0.43721,-0.59658 0.75595,-0.75595 0.11269,-0.0563 0.28889,0.0891 0.37797,0 0.0891,-0.0891 -0.0891,-0.28889 0,-0.37797 0.0891,-0.0891 0.25199,0 0.37798,0 0.2629,0 1.75319,0.0683 1.88988,0 0.15937,-0.0797 0.21861,-0.2983 0.37798,-0.37798 0.11503,-0.0575 0.9637,0 1.13393,0 1.00793,0 2.01587,0 3.02381,0 0.17821,0 1.87275,-0.0171 1.88988,0 0.0891,0.0891 -0.0891,0.28889 0,0.37798 0.17818,0.17817 0.53057,-0.1127 0.75595,0 0.15937,0.0797 0.21861,0.29829 0.37798,0.37797 0.14986,0.0749 1.05665,-0.0773 1.13392,0 0.0891,0.0891 -0.0891,0.28889 0,0.37798 0.0773,0.0773 0.98407,-0.0749 1.13393,0 0.15937,0.0797 0.21861,0.29829 0.37798,0.37797 0.22538,0.11269 0.53057,-0.11269 0.75595,0 0.15937,0.0797 0.21861,0.29829 0.37798,0.37798 0.22538,0.11269 0.57777,-0.17818 0.75595,0 0.0891,0.0891 -0.0891,0.28889 0,0.37797 0.0891,0.0891 0.26529,-0.0563 0.37798,0 0.93413,0.46707 -0.13047,0.37798 0.75595,0.37798 0.0917,0 1.12177,-0.0121 1.13393,0 0.0891,0.0891 -0.0891,0.28889 0,0.37798 0.0891,0.0891 0.25198,0 0.37797,0 0.126,0 0.28889,0.0891 0.37798,0 0.0891,-0.0891 0,-0.25199 0,-0.37798"
       id="path3706"
       inkscape:connector-curvature="0" />
  </g>
</svg>
