<?xml version="1.0" encoding="UTF-8" standalone="no"?>
<!-- Created with Inkscape (http://www.inkscape.org/) -->

<svg
   xmlns:dc="http://purl.org/dc/elements/1.1/"
   xmlns:cc="http://creativecommons.org/ns#"
   xmlns:rdf="http://www.w3.org/1999/02/22-rdf-syntax-ns#"
   xmlns:svg="http://www.w3.org/2000/svg"
   xmlns="http://www.w3.org/2000/svg"
   xmlns:xlink="http://www.w3.org/1999/xlink"
   xmlns:sodipodi="http://sodipodi.sourceforge.net/DTD/sodipodi-0.dtd"
   xmlns:inkscape="http://www.inkscape.org/namespaces/inkscape"
   width="1730.6667"
   height="1184"
   viewBox="0 0 457.90558 313.26666"
   version="1.1"
   id="svg1944"
   sodipodi:docname="strelka-sportivnaya-gorkovskaya.svg"
   inkscape:version="0.92.3 (2405546, 2018-03-11)">
  <defs
     id="defs1938" />
  <sodipodi:namedview
     id="base"
     pagecolor="#ffffff"
     bordercolor="#666666"
     borderopacity="1.0"
     inkscape:pageopacity="0.0"
     inkscape:pageshadow="2"
     inkscape:zoom="0.49497475"
     inkscape:cx="1033.6318"
     inkscape:cy="666.74266"
     inkscape:document-units="mm"
     inkscape:current-layer="layer1"
     showgrid="false"
     inkscape:window-width="1366"
     inkscape:window-height="715"
     inkscape:window-x="0"
     inkscape:window-y="0"
     inkscape:window-maximized="1"
     fit-margin-top="0"
     fit-margin-left="0"
     fit-margin-right="0"
     fit-margin-bottom="0"
     units="px" />
  <metadata
     id="metadata1941">
    <rdf:RDF>
      <cc:Work
         rdf:about="">
        <dc:format>image/svg+xml</dc:format>
        <dc:type
           rdf:resource="http://purl.org/dc/dcmitype/StillImage" />
        <dc:title></dc:title>
      </cc:Work>
    </rdf:RDF>
  </metadata>
  <g
     inkscape:label="Layer 1"
     inkscape:groupmode="layer"
     id="layer1"
     transform="translate(-5.5613631e-4,0.00661361)">
    <image
       sodipodi:absref="/home/aanper/project/luysy-imn-eh/pi/boot/bydefault/web/img/strelka.png"
       y="-0.006613608"
       x="0.00055613631"
       id="image2667"
       xlink:href="file:///home/aanper/project/luysy-imn-eh/pi/boot/bydefault/web/img/strelka.png"
       preserveAspectRatio="none"
       height="313.26666"
       width="457.90558"
       style="fill:none" />
    <ellipse
       style="fill:#00ff00;fill-opacity:1;stroke:#00ff00;stroke-width:0.30000001;stroke-miterlimit:4;stroke-dasharray:none;stroke-opacity:1;paint-order:stroke fill markers"
       id="path2670"
       cx="169.90086"
       cy="79.670769"
       rx="3.2127976"
       ry="3.0238097" />
    <circle
       style="fill:#00ff00;fill-opacity:1;stroke:#00ff00;stroke-width:0.30000001;stroke-miterlimit:4;stroke-dasharray:none;stroke-opacity:1;paint-order:stroke fill markers"
       id="path2672"
       cx="420.87701"
       cy="29.210947"
       r="2.4568453" />
    <ellipse
       style="fill:#00ff00;fill-opacity:1;stroke:#00ff00;stroke-width:0.30000001;stroke-miterlimit:4;stroke-dasharray:none;stroke-opacity:1;paint-order:stroke fill markers"
       id="path2674"
       cx="381.7565"
       cy="308.15735"
       rx="3.4017856"
       ry="2.8348215" />
    <circle
       style="fill:#00ff00;fill-opacity:1;stroke:#00ff00;stroke-width:0.30000001;stroke-miterlimit:4;stroke-dasharray:none;stroke-opacity:1;paint-order:stroke fill markers"
       id="path2676"
       cx="79.753525"
       cy="248.62613"
       r="2.2678571" />
    <ellipse
       style="fill:#00ff00;fill-opacity:1;stroke:#00ff00;stroke-width:0.30000001;stroke-miterlimit:4;stroke-dasharray:none;stroke-opacity:1;paint-order:stroke fill markers"
       id="path2678"
       cx="216.7699"
       cy="220.65588"
       rx="1.7008928"
       ry="1.5119048" />
    <circle
       style="fill:#00ff00;fill-opacity:1;stroke:#00ff00;stroke-width:0.30000001;stroke-miterlimit:4;stroke-dasharray:none;stroke-opacity:1;paint-order:stroke fill markers"
       id="path2680"
       cx="316.93359"
       cy="230.67224"
       r="1.7008928" />
    <path
       style="fill:none;fill-opacity:1;stroke:#00ff00;stroke-width:0.30000001;stroke-miterlimit:4;stroke-dasharray:none;stroke-opacity:1;paint-order:stroke fill markers"
       d="m 169.44943,78.597408 c 0.71272,0.356359 1.50069,0.590971 2.13816,1.069078 0.14254,0.106908 -0.12599,0.408546 0,0.534538 0.12599,0.125992 0.40855,-0.125992 0.53454,0 0.12599,0.125992 -0.12599,0.408548 0,0.53454 0.12599,0.125992 0.37517,-0.07968 0.53454,0 0.22538,0.112689 0.30916,0.421847 0.53454,0.534538 0.15937,0.07968 0.37517,-0.07968 0.53454,0 0.22538,0.112691 0.30915,0.421849 0.53454,0.53454 0.15937,0.07968 0.40854,-0.125992 0.53453,0 0.126,0.125992 -0.12599,0.408546 0,0.534538 0.126,0.125992 0.40855,-0.125992 0.53454,0 0.126,0.125992 -0.12599,0.408548 0,0.53454 0.126,0.125992 0.40855,-0.125992 0.53454,0 0.12599,0.125992 -0.0797,0.375169 0,0.534538 0.11269,0.225383 0.42185,0.309158 0.53454,0.53454 0.0797,0.159369 -0.12599,0.408546 0,0.534538 1.10598,1.10598 -0.0432,-1.690084 1.06908,0.53454 0,1.425438 -0.17818,-0.178181 0.53454,0.534538 0.12599,0.125992 -0.12599,0.408548 0,0.53454 0.12599,0.125992 0.40855,-0.125992 0.53454,0 0.12599,0.125992 -0.12599,0.408546 0,0.534538 0.12599,0.125992 0.40854,-0.125992 0.53454,0 0.12599,0.125992 -0.0797,0.375171 0,0.53454 0.11269,0.22538 0.35636,0.35636 0.53454,0.534538 0.17818,0.178181 0.30915,0.421849 0.53454,0.534541 0.15936,0.07968 0.40854,-0.125992 0.53453,0 0.126,0.125991 -0.12599,0.408545 0,0.534537 0.126,0.125992 0.40855,-0.125992 0.53454,0 0.126,0.125992 -0.0797,0.375171 0,0.534541 0.11269,0.22538 0.42185,0.309157 0.53454,0.534537 0.0797,0.159369 -0.12599,0.408549 0,0.534541 0.12599,0.125992 0.40855,-0.125992 0.53454,0 0.12599,0.125992 -0.12599,0.408545 0,0.534537 0.12599,0.125992 0.37517,-0.07968 0.53454,0 0.22538,0.112692 0.30916,0.421849 0.53454,0.534541 0.15937,0.07968 0.40855,-0.125992 0.53454,0 0.12599,0.125992 -0.12599,0.408545 0,0.534537 0.12599,0.125992 0.40855,-0.125992 0.53454,0 0.12599,0.125992 -0.12599,0.408549 0,0.534541 0.12599,0.125992 0.40854,-0.125992 0.53454,0 0.12599,0.125992 -0.126,0.408545 0,0.534537 0.12599,0.125992 0.40854,-0.125992 0.53454,0 0.12599,0.125992 -0.126,0.408549 0,0.534541 0.12599,0.125992 0.40854,-0.125992 0.53453,0 0.126,0.125992 -0.12599,0.408546 0,0.534537 0.126,0.125992 0.40855,-0.125991 0.53454,0 0.126,0.125992 -0.12599,0.408549 0,0.534541 0.126,0.125992 0.40855,-0.125992 0.53454,0 0.12599,0.125992 -0.12599,0.408546 0,0.534538 0.12599,0.125991 0.37517,-0.07968 0.53454,0 0.22538,0.112691 0.30916,0.421849 0.53454,0.53454 0.31874,0.159369 0.81709,-0.251984 1.06908,0 0.12599,0.125992 -0.12599,0.408546 0,0.534538 0.12599,0.125992 0.37517,-0.07968 0.53454,0 0.22538,0.112691 0.30916,0.421849 0.53454,0.53454 0.31874,0.159369 0.81709,-0.251984 1.06907,0 0.126,0.125992 -0.12599,0.408546 0,0.534538 0.26727,0.267271 1.33635,-0.267269 1.60362,0 0.126,0.125992 -0.12599,0.408548 0,0.53454 0.126,0.125992 0.37517,-0.07968 0.53454,0 0.22538,0.112691 0.30916,0.421849 0.53454,0.534538 0.15937,0.07968 0.40855,-0.125992 0.53454,0 0.12599,0.125992 -0.12599,0.408548 0,0.53454 0.25198,0.251984 0.81709,-0.251984 1.06908,0 0.12599,0.125992 -0.0797,0.375171 0,0.534538 1.11231,2.224621 -0.0369,-0.571439 1.06908,0.53454 0.12599,0.125991 -0.126,0.408541 0,0.534541 0.12599,0.12599 0.40854,-0.126 0.53454,0 0.12599,0.12599 -0.126,0.40855 0,0.53454 0.12599,0.12599 0.37516,-0.0797 0.53453,0 0.22539,0.11269 0.30916,0.42185 0.53454,0.53453 0.15937,0.0797 0.40855,-0.12599 0.53454,0 0.12599,0.126 -0.12599,0.40855 0,0.53455 0.12599,0.12599 0.40855,-0.126 0.53454,0 0.12599,0.12599 -0.12599,0.40854 0,0.53453 0.12599,0.126 0.37517,-0.0797 0.53454,0 0.45076,0.22539 0.61831,0.8437 1.06908,1.06908 0.15937,0.0797 0.40855,-0.12599 0.53454,0 0.12599,0.126 -0.12599,0.40855 0,0.53454 0.12599,0.12599 0.37517,-0.0797 0.53454,0 0.22538,0.11269 0.30915,0.42185 0.53454,0.53454 0.15936,0.0797 0.37517,-0.0797 0.53453,0 0.22539,0.11269 0.30916,0.42185 0.53454,0.53454 0.15937,0.0797 0.37517,-0.0797 0.53454,0 0.22538,0.11269 0.30916,0.42185 0.53454,0.53454 0.31874,0.15937 0.8171,-0.25199 1.06908,0 0.12599,0.12599 -0.12599,0.40855 0,0.53454 0.25198,0.25198 0.75034,-0.15937 1.06908,0 0.22538,0.11269 0.30916,0.42185 0.53454,0.53454 0.15936,0.0797 0.37517,-0.0797 0.53454,0 0.45076,0.22538 0.61831,0.84369 1.06907,1.06908 0.15937,0.0797 0.37518,-0.0797 0.53454,0 0.45077,0.22538 0.61832,0.84369 1.06908,1.06907 0.15937,0.0797 0.40855,-0.12599 0.53454,0 0.12599,0.126 -0.12599,0.40855 0,0.53454 0.25198,0.25199 0.81709,-0.25198 1.06908,0 0.12599,0.12599 -0.12599,0.40855 0,0.53454 0.25198,0.25199 0.75034,-0.15937 1.06908,0 0.22538,0.11269 0.30915,0.42185 0.53454,0.53454 0.15936,0.0797 0.37517,-0.0797 0.53453,0 0.22539,0.11269 0.30916,0.42185 0.53454,0.53454 0.31874,0.15937 0.75034,-0.15937 1.06908,0 0.22538,0.11269 0.30916,0.42185 0.53454,0.53454 0.21194,0.10597 1.49434,-0.10928 1.60362,0 0.12599,0.12599 -0.12599,0.40855 0,0.53454 0.12599,0.12599 0.35636,0 0.53454,0 0.8909,0 1.78179,0 2.67269,0 0.17818,0 0.40855,-0.12599 0.53454,0 0.12599,0.12599 -0.12599,0.40854 0,0.53454 0.12599,0.12599 0.35636,0 0.53454,0 0.25204,0 2.64847,-0.0242 2.67269,0 0.126,0.12599 -0.12599,0.40854 0,0.53454 0.126,0.12599 0.35636,0 0.53455,0 0.89089,0 1.78179,0 2.67269,0 0.12964,0 1.58643,0.0172 1.60362,0 0.12599,-0.126 -0.12599,-0.40855 0,-0.53454 0.12599,-0.126 0.40854,0.12599 0.53453,0 0.126,-0.126 -0.0797,-0.37518 0,-0.53454 0.22539,-0.45076 0.8437,-0.61832 1.06908,-1.06908 0.0797,-0.15937 -0.12599,-0.40855 0,-0.53454 0.12599,-0.12599 0.40855,0.12599 0.53454,0 0.26727,-0.26727 -0.26727,-1.33635 0,-1.60362 0.126,-0.12599 0.40855,0.126 0.53454,0 0.12599,-0.12599 0,-0.35636 0,-0.53454 0,-1.42543 0,-2.85087 0,-4.27631 0,-0.8909 0,-1.7818 0,-2.6727 0,-0.17817 0.12599,-0.40854 0,-0.53453 -0.12599,-0.12599 -0.40854,0.12599 -0.53454,0 -0.18763,-0.18764 0.18462,-2.303473 0,-2.672699 -0.11269,-0.22538 -0.42185,-0.309158 -0.53454,-0.534538 -0.16798,-0.335971 0.16799,-1.802186 0,-2.138156 -0.11269,-0.225383 -0.42184,-0.309158 -0.53453,-0.53454 -0.16862,-0.337225 0.16861,-2.33547 0,-2.672694 -0.1127,-0.225383 -0.42185,-0.309158 -0.53455,-0.534541 -0.0797,-0.159369 0,-0.356359 0,-0.534537 0,-0.178181 0,-0.35636 0,-0.534541 0,-0.890897 0,-1.781796 0,-2.672693 0,-0.178181 0,-0.35636 0,-0.534541 0,-0.178178 0.126,-0.408546 0,-0.534538 -0.12599,-0.125991 -0.40854,0.125992 -0.53453,0 -0.12599,-0.125991 0,-0.356359 0,-0.53454 0,-0.178178 0,-0.356359 0,-0.534538 0,-0.378883 0.0691,-3.069029 0,-3.207234 -0.11269,-0.225382 -0.42185,-0.309157 -0.53454,-0.53454 -0.16799,-0.335971 0.16798,-1.802186 0,-2.138156 -0.11269,-0.22538 -0.42185,-0.309158 -0.53454,-0.534538 -0.21382,-0.427633 0.21381,-1.175988 0,-1.603618 -0.11269,-0.22538 -0.42185,-0.309158 -0.53454,-0.534538 -0.15937,-0.318738 0.25198,-0.817094 0,-1.069078 -0.12599,-0.125995 -0.40855,0.125992 -0.53454,0 -0.25198,-0.251987 0.15937,-0.750342 0,-1.069078 -0.11269,-0.225383 -0.42185,-0.309158 -0.53454,-0.53454 -0.21381,-0.427631 0.21382,-1.175986 0,-1.603619 -0.11269,-0.22538 -0.42185,-0.309155 -0.53454,-0.534538 -0.21381,-0.42763 0.21382,-1.175985 0,-1.603618 -0.11269,-0.22538 -0.42185,-0.309158 -0.53454,-0.534538 -0.16229,-0.324585 0.1623,-2.882651 0,-3.207234 -0.11269,-0.225382 -0.42184,-0.309157 -0.53453,-0.53454 -0.0967,-0.193307 0,-2.300901 0,-2.672694 0,-0.178181 0.12599,-0.408548 0,-0.53454 -0.126,-0.125992 -0.40855,0.125992 -0.53455,0 -0.12599,-0.125992 0,-0.35636 0,-0.534538 0,-0.178181 -0.12599,-0.408548 0,-0.53454 0.126,-0.125992 0.37518,0.07968 0.53455,0 0.22538,-0.112689 0.30915,-0.421847 0.53453,-0.534538 0.15937,-0.07968 0.37517,0.07969 0.53454,0 0.22538,-0.112691 0.30916,-0.421849 0.53454,-0.53454 0.31874,-0.159369 0.75034,0.159369 1.06908,0 0.22538,-0.112689 0.30916,-0.421847 0.53454,-0.534538 0.073,-0.0365 3.13423,-0.0365 3.20723,0 0.22538,0.112691 0.30916,0.421849 0.53454,0.534538 0.36923,0.184613 2.48506,-0.187632 2.6727,0 0.12599,0.125992 -0.12599,0.408548 0,0.53454 0.25198,0.251984 0.75034,-0.159369 1.06908,0 0.22538,0.112691 0.30915,0.421849 0.53453,0.534538 0.31874,0.159369 0.75035,-0.159369 1.06908,0 0.22538,0.112691 0.30916,0.421849 0.53454,0.53454 0.15937,0.07968 0.37517,-0.07969 0.53454,0 0.22538,0.112691 0.30916,0.421849 0.53454,0.534538 0.33597,0.167986 1.80219,-0.167984 2.13816,0 0.22538,0.112691 0.30915,0.421849 0.53454,0.53454 0.32458,0.162293 2.88264,-0.162293 3.20723,0 0.22538,0.112691 0.30916,0.421849 0.53454,0.534538 0.14055,0.07028 1.85863,0 2.13815,0 0.27953,0 1.99761,0.07028 2.13816,0 0.22538,-0.112689 0.30916,-0.421847 0.53454,-0.534538 0.0597,-0.02983 2.61303,-0.02983 2.67269,0 0.22539,0.112691 0.30916,0.421849 0.53454,0.534538 0.16268,0.08134 1.36289,0 1.60362,0 1.06908,0 2.13816,0 3.20723,0 0.27953,0 1.99761,-0.07028 2.13816,0 0.22538,0.112691 0.30916,0.421849 0.53454,0.53454 0.14055,0.07028 1.85864,0 2.13816,0 1.60361,0 3.20722,0 4.81086,0 0.89088,0 1.78178,0 2.67269,0 0.17817,0 0.35637,0 0.53454,0 0.17817,0 0.37518,0.07968 0.53453,0 0.22538,-0.112691 0.30917,-0.421849 0.53454,-0.53454 0.14055,-0.07028 1.85865,0 2.13815,0 1.78181,0 3.5636,0 5.34541,0 0.17817,0 0.35634,0 0.53453,0 0.17817,0 0.40855,-0.125992 0.53454,0 0.126,0.125992 -0.12599,0.408548 0,0.53454 0.126,0.125992 0.35634,0 0.53454,0 0.17817,0 0.35637,0 0.53454,0 0.37888,0 3.06903,-0.0691 3.20722,0 0.2254,0.112691 0.30917,0.421849 0.53454,0.534538 0.16269,0.08134 1.3629,0 1.60361,0 1.24728,0 2.49452,0 3.74179,0 1.42545,0 2.85086,0 4.27631,0 0.24074,0 1.44094,0.08134 1.60361,0 0.2254,-0.112689 0.30916,-0.421847 0.53454,-0.534538 0.15938,-0.07968 0.35636,0 0.53453,0 0.1782,0 0.35637,0 0.53454,0 0.89091,0 1.78181,0 2.67272,0 0.17817,0 0.35634,0 0.53453,0 0.17818,0 0.40855,0.125992 0.53454,0 0.126,-0.125992 -0.12599,-0.408548 0,-0.53454 0.0172,-0.0172 1.47397,0 1.60362,0 0.17817,0 0.35636,0 0.53453,0 0.17817,0 0.37518,0.07968 0.53454,0 0.22537,-0.112689 0.30917,-0.421847 0.53454,-0.534538 0.32459,-0.162293 2.88266,0.162293 3.20722,0 0.2254,-0.112691 0.30917,-0.421849 0.53454,-0.53454 0.31875,-0.159369 0.81712,0.251984 1.0691,0 0.12597,-0.125992 -0.12599,-0.408546 0,-0.534538 0.26726,-0.267269 1.33634,0.267269 1.60362,0 0.12599,-0.125992 -0.126,-0.408548 0,-0.53454 0.25199,-0.251984 0.81708,0.251984 1.06907,0 0.126,-0.125992 -0.12599,-0.408546 0,-0.534538 0.126,-0.125992 0.37516,0.07969 0.53454,0 0.22537,-0.112691 0.30917,-0.421849 0.53454,-0.53454 0.15936,-0.07968 0.40854,0.125992 0.53454,0 0.12599,-0.125992 -0.126,-0.408546 0,-0.534538 0.12599,-0.125992 0.40854,0.125992 0.53453,0 0.126,-0.125992 -0.12599,-0.408548 0,-0.53454 0.126,-0.125992 0.40855,0.125992 0.53454,0 0.126,-0.125992 0,-0.35636 0,-0.534538 0,-0.371795 -0.0967,-2.479389 0,-2.672697 0.11269,-0.22538 0.42185,-0.309157 0.53454,-0.534537 0.15938,-0.318738 -0.25199,-0.817094 0,-1.069078 0.12599,-0.125992 0.40854,0.125992 0.53454,0 0.25199,-0.251984 -0.15936,-0.750343 0,-1.069078 0.11268,-0.225383 0.42185,-0.309158 0.53453,-0.534541 0.0797,-0.159369 -0.12599,-0.408545 0,-0.534537 0.126,-0.125992 0.40855,0.125992 0.53454,0 0.12864,-0.128628 -0.12861,-2.009532 0,-2.138156 0.126,-0.125992 0.40855,0.125991 0.53454,0 0.25199,-0.251984 -0.25196,-0.817095 0,-1.069079 0.12599,-0.125991 0.40854,0.125992 0.53454,0 0.25199,-0.251986 -0.15936,-0.750342 0,-1.069078 0.2254,-0.450765 0.8437,-0.618315 1.06907,-1.069078 0.0797,-0.159369 -0.12596,-0.408548 0,-0.53454 0.126,-0.125992 0.40857,0.125992 0.53457,0 0.12597,-0.125992 -0.126,-0.408546 0,-0.534538 0.12597,-0.125994 0.40854,0.125992 0.53454,0 0.12596,-0.125994 -0.126,-0.408548 0,-0.53454 0.12596,-0.125992 0.40854,0.125992 0.53453,0 0.126,-0.125992 -0.12599,-0.408546 0,-0.534538 0.126,-0.125994 0.37516,0.07968 0.53454,0 0.22537,-0.112691 0.30914,-0.421849 0.53454,-0.53454 0.15936,-0.07969 0.40854,0.125992 0.53454,0 0.12599,-0.125992 -0.0797,-0.375171 0,-0.534538 1.1123,-2.224624 -0.0369,0.571439 1.06907,-0.53454 0.126,-0.125992 -0.12599,-0.408546 0,-0.53454 0.126,-0.125992 0.37518,0.07968 0.53454,0 0.45077,-0.22538 0.6183,-0.843696 1.06907,-1.069079 0.15936,-0.07968 0.40855,0.125995 0.53454,0 0.126,-0.125991 -0.12599,-0.408545 0,-0.534537 0.126,-0.125992 0.40855,0.125992 0.53454,0 0.12599,-0.125992 -0.12599,-0.408549 0,-0.534541 0.12599,-0.125992 0.37518,0.07968 0.53454,0 0.45077,-0.22538 0.61833,-0.843695 1.06907,-1.069078 0.15939,-0.07968 0.40855,0.125992 0.53454,0 0.126,-0.125992 -0.12599,-0.408545 0,-0.534537 0.126,-0.125992 0.40854,0.125992 0.53454,0 0.12599,-0.125992 -0.0797,-0.375172 0,-0.534541 0.11271,-0.22538 0.35637,-0.356359 0.53454,-0.534537 0.17819,-0.178181 0.35636,-0.35636 0.53456,-0.534541 0.17817,-0.178178 0.30914,-0.421846 0.53454,-0.534537 0.15936,-0.07968 0.37515,0.07968 0.53454,0 0.22537,-0.112692 0.30913,-0.421849 0.53453,-0.534541 0.15936,-0.07968 0.40855,0.125992 0.53454,0 0.126,-0.125992 -0.12599,-0.408546 0,-0.534537 0.35587,-0.355868 0.71321,0.355867 1.06908,0 0.12599,-0.125992 -0.126,-0.408549 0,-0.534541 0.25199,-0.251984 0.81708,0.251984 1.06907,0 0.126,-0.125992 -0.12599,-0.408546 0,-0.534538 0.126,-0.125991 0.37518,0.07968 0.53454,0 0.22537,-0.112691 0.30917,-0.421849 0.53454,-0.53454 0.31874,-0.159369 0.81708,0.251984 1.06907,0 0.126,-0.125992 -0.12599,-0.408546 0,-0.534538 0.126,-0.125992 0.35637,0 0.53454,0 0.25204,0 2.64848,0.02424 2.67269,0 0.12599,-0.125992 -0.12597,-0.408548 0,-0.53454 0.16552,-0.165518 2.50719,0.165518 2.67271,0 0.126,-0.125992 -0.12599,-0.408546 0,-0.534538 0.26726,-0.267268 1.33633,0.267269 1.60362,0 0.12599,-0.125992 -0.126,-0.408548 0,-0.53454 0.12599,-0.125992 0.35636,0 0.53453,0 0.3718,0 2.47939,0.09666 2.67269,0 0.22538,-0.112689 0.30917,-0.421846 0.53454,-0.534538 0.31874,-0.159369 0.81709,0.251984 1.06908,0 0.12599,-0.125992 -0.126,-0.408548 0,-0.53454 0.3565,-0.356492 0.7126,0.356492 1.06907,0 0.126,-0.125992 -0.12599,-0.408546 0,-0.534538 0.126,-0.125992 0.40857,0.125992 0.53454,0 0.12599,-0.125992 -0.12597,-0.408548 0,-0.53454 0.12599,-0.125992 0.40857,0.125992 0.53454,0 0.12599,-0.125992 -0.12597,-0.408546 0,-0.534538 0.12599,-0.125992 0.37518,0.07968 0.53456,0 0.22537,-0.112691 0.30914,-0.421849 0.53454,-0.53454 0.31872,-0.159369 0.81709,0.251984 1.06907,0 0.126,-0.125992 -0.12599,-0.408546 0,-0.534538 0.25199,-0.251984 0.75034,0.159369 1.06908,0 0.22537,-0.112691 0.30914,-0.421849 0.53454,-0.53454 0.15936,-0.07969 0.37518,0.07968 0.53453,0 0.22538,-0.112691 0.30917,-0.421849 0.53454,-0.534538 0.21193,-0.105971 1.49434,0.109278 1.60362,0 0.12599,-0.125992 -0.126,-0.408548 0,-0.53454 0.12864,-0.128627 2.00953,0.128627 2.13815,0 0.12599,-0.125992 -0.126,-0.408546 0,-0.534538 0.14626,-0.146262 1.84819,0.144989 2.13817,0 0.22538,-0.112691 0.30914,-0.421849 0.53454,-0.53454 0.57036,-0.285192 0.49869,0.285194 1.06908,0 0.22537,-0.112692 0.30914,-0.421848 0.53453,-0.534539 0.33597,-0.167985 1.80219,0.167985 2.13816,0 0.22537,-0.112691 0.30916,-0.421848 0.53453,-0.534539 0.28999,-0.14499 1.99189,0.146262 2.13815,0 0.126,-0.125992 -0.12599,-0.408547 0,-0.534539 0.126,-0.125992 0.35637,0 0.53454,0 0.37889,0 3.06904,-0.0691 3.20725,0 0.22538,0.112691 0.30914,0.421848 0.53454,0.534539 0.31872,0.159369 0.75033,-0.159369 1.06908,0 0.22537,0.112691 0.30914,0.421848 0.53454,0.534539 0.15935,0.07969 0.37515,-0.07968 0.53453,0 0.22537,0.112691 0.30914,0.421847 0.53454,0.534539 0.31874,0.159369 0.75033,-0.159369 1.06908,0 0.22537,0.112691 0.30916,0.421849 0.53453,0.53454 0.57039,0.285192 0.49869,-0.285194 1.06908,0 0.22537,0.112689 0.30916,0.421846 0.53454,0.534538 0.13822,0.0691 2.82834,0 3.20722,0 1.42545,0 2.85089,0 4.27633,0 0.17817,0 0.35637,0 0.53454,0 0.17817,0 0.40854,-0.125992 0.53454,0 0.12599,0.125992 -0.126,0.408548 0,0.53454 0.10927,0.109278 1.39168,-0.105971 1.60361,0 0.22537,0.112689 0.30917,0.421847 0.53454,0.534538 0.21193,0.105971 1.49434,-0.109278 1.60361,0 0.12599,0.125992 -0.12599,0.408548 0,0.53454 0.12599,0.125992 0.35637,0 0.53454,0 0.17819,0 0.35637,0 0.53454,0 1.60364,0 3.20725,0 4.81086,0 0.17817,0 0.35637,0 0.53454,0 0.17817,0 0.40854,-0.125992 0.53454,0 0.12599,0.125992 -0.126,0.408546 0,0.534538 0.12599,0.125992 0.35636,0 0.53453,0 0.17818,0 0.35637,0 0.53454,0 0.89091,0 1.78181,0 2.67269,0 0.1782,0 0.35637,0 0.53454,0 0.1782,0 0.37518,-0.07969 0.53454,0 0.22539,0.112691 0.30916,0.421849 0.53453,0.53454 0.1627,0.08134 1.3629,0 1.60364,0 1.42542,0 2.85086,0 4.27631,0 0.12964,0 1.58641,0.0172 1.60361,0 0.12599,-0.125992 -0.126,-0.408548 0,-0.53454 0.16552,-0.165518 2.50719,0.165518 2.67269,0 0.12599,-0.125992 -0.12597,-0.408546 0,-0.534538 0.26728,-0.267271 1.33635,0.267269 1.60364,0 0.12599,-0.125992 -0.126,-0.408548 0,-0.53454 0.0172,-0.0172 1.47396,0 1.60361,0 1.24725,0 2.49452,0 3.74176,0 0.24075,0 1.44095,-0.08134 1.60362,0 0.22539,0.112691 0.30916,0.421849 0.53453,0.53454 0.36857,0.184282 1.60362,-0.403309 1.60362,0.534538 0,0.178181 -0.40855,0.125992 -0.53454,0 -0.28173,-0.281726 -0.35634,-0.712719 -0.53454,-1.069078"
       id="path2814"
       inkscape:connector-curvature="0" />
  </g>
</svg>
