<?xml version="1.0" encoding="UTF-8" standalone="no"?>
<!-- Created with Inkscape (http://www.inkscape.org/) -->

<svg
   xmlns:dc="http://purl.org/dc/elements/1.1/"
   xmlns:cc="http://creativecommons.org/ns#"
   xmlns:rdf="http://www.w3.org/1999/02/22-rdf-syntax-ns#"
   xmlns:svg="http://www.w3.org/2000/svg"
   xmlns="http://www.w3.org/2000/svg"
   xmlns:xlink="http://www.w3.org/1999/xlink"
   xmlns:sodipodi="http://sodipodi.sourceforge.net/DTD/sodipodi-0.dtd"
   xmlns:inkscape="http://www.inkscape.org/namespaces/inkscape"
   width="1730.6667"
   height="1184"
   viewBox="0 0 457.90558 313.26666"
   version="1.1"
   id="svg1944"
   sodipodi:docname="strelka-strelka-birzha.svg"
   inkscape:version="0.92.3 (2405546, 2018-03-11)">
  <defs
     id="defs1938" />
  <sodipodi:namedview
     id="base"
     pagecolor="#ffffff"
     bordercolor="#666666"
     borderopacity="1.0"
     inkscape:pageopacity="0.0"
     inkscape:pageshadow="2"
     inkscape:zoom="0.7"
     inkscape:cx="853.78847"
     inkscape:cy="359.98675"
     inkscape:document-units="mm"
     inkscape:current-layer="layer1"
     showgrid="false"
     inkscape:window-width="1366"
     inkscape:window-height="715"
     inkscape:window-x="0"
     inkscape:window-y="0"
     inkscape:window-maximized="1"
     fit-margin-top="0"
     fit-margin-left="0"
     fit-margin-right="0"
     fit-margin-bottom="0"
     units="px" />
  <metadata
     id="metadata1941">
    <rdf:RDF>
      <cc:Work
         rdf:about="">
        <dc:format>image/svg+xml</dc:format>
        <dc:type
           rdf:resource="http://purl.org/dc/dcmitype/StillImage" />
        <dc:title></dc:title>
      </cc:Work>
    </rdf:RDF>
  </metadata>
  <g
     inkscape:label="Layer 1"
     inkscape:groupmode="layer"
     id="layer1"
     transform="translate(-5.5613631e-4,0.00661361)">
    <image
       sodipodi:absref="/home/aanper/project/luysy-imn-eh/pi/boot/bydefault/web/img/strelka.png"
       y="-0.006613608"
       x="0.00055613631"
       id="image2667"
       xlink:href="file:///home/aanper/project/luysy-imn-eh/pi/boot/bydefault/web/img/strelka.png"
       preserveAspectRatio="none"
       height="313.26666"
       width="457.90558"
       style="fill:none" />
    <ellipse
       style="fill:#00ff00;fill-opacity:1;stroke:#00ff00;stroke-width:0.30000001;stroke-miterlimit:4;stroke-dasharray:none;stroke-opacity:1;paint-order:stroke fill markers"
       id="path2670"
       cx="169.90086"
       cy="79.670769"
       rx="3.2127976"
       ry="3.0238097" />
    <circle
       style="fill:#00ff00;fill-opacity:1;stroke:#00ff00;stroke-width:0.30000001;stroke-miterlimit:4;stroke-dasharray:none;stroke-opacity:1;paint-order:stroke fill markers"
       id="path2672"
       cx="420.87701"
       cy="29.210947"
       r="2.4568453" />
    <ellipse
       style="fill:#00ff00;fill-opacity:1;stroke:#00ff00;stroke-width:0.30000001;stroke-miterlimit:4;stroke-dasharray:none;stroke-opacity:1;paint-order:stroke fill markers"
       id="path2674"
       cx="381.7565"
       cy="308.15735"
       rx="3.4017856"
       ry="2.8348215" />
    <circle
       style="fill:#00ff00;fill-opacity:1;stroke:#00ff00;stroke-width:0.30000001;stroke-miterlimit:4;stroke-dasharray:none;stroke-opacity:1;paint-order:stroke fill markers"
       id="path2676"
       cx="79.753525"
       cy="248.62613"
       r="2.2678571" />
    <ellipse
       style="fill:#00ff00;fill-opacity:1;stroke:#00ff00;stroke-width:0.30000001;stroke-miterlimit:4;stroke-dasharray:none;stroke-opacity:1;paint-order:stroke fill markers"
       id="path2678"
       cx="216.7699"
       cy="220.65588"
       rx="1.7008928"
       ry="1.5119048" />
    <circle
       style="fill:#00ff00;fill-opacity:1;stroke:#00ff00;stroke-width:0.30000001;stroke-miterlimit:4;stroke-dasharray:none;stroke-opacity:1;paint-order:stroke fill markers"
       id="path2680"
       cx="316.93359"
       cy="230.67224"
       r="1.7008928" />
    <path
       style="fill:none;fill-opacity:1;stroke:#00ff00;stroke-width:0.30000001;stroke-miterlimit:4;stroke-dasharray:none;stroke-opacity:1;paint-order:stroke fill markers"
       d="m 218.47079,221.41184 c -0.82959,3.80691 1.3704,0.61445 1.88988,1.13393 0.0891,0.0891 -0.0891,0.28888 0,0.37797 0.17818,0.17818 0.57777,-0.17818 0.75596,0 0.0891,0.0891 -0.0891,0.28889 0,0.37798 0.0891,0.0891 0.28888,-0.0891 0.37797,0 0.0891,0.0891 -0.0891,0.28888 0,0.37797 0.78205,0.78205 -0.0306,-1.19507 0.75595,0.37798 0.0564,0.11269 -0.0891,0.28889 0,0.37797 0.0891,0.0891 0.28889,-0.0891 0.37798,0 0.0891,0.0891 -0.0564,0.26529 0,0.37798 0.0797,0.15937 0.29829,0.21861 0.37797,0.37798 0.0564,0.11269 -0.0891,0.28888 0,0.37797 0.0891,0.0891 0.28889,-0.0891 0.37798,0 0.17818,0.17818 -0.11269,0.53058 0,0.75596 0.0797,0.15937 0.29829,0.2186 0.37798,0.37797 0.0563,0.11269 -0.0564,0.26529 0,0.37798 0.0797,0.15937 0.29829,0.21861 0.37798,0.37798 0.0563,0.11268 -0.0564,0.26528 0,0.37797 1.25358,1.25359 -0.17819,-0.35636 0.37797,0.75595 0.15937,0.31874 0.59658,0.43722 0.75595,0.75596 0.11269,0.22538 -0.17818,0.57777 0,0.75595 0.0891,0.0891 0.28889,-0.0891 0.37798,0 0.0891,0.0891 -0.0564,0.26528 0,0.37798 0.0797,0.15936 0.29829,0.2186 0.37797,0.37797 0.0564,0.11269 -0.0563,0.26529 0,0.37798 0.0797,0.15937 0.2983,0.2186 0.37798,0.37797 0.0564,0.11269 -0.0891,0.28889 0,0.37798 0.0891,0.0891 0.28889,-0.0891 0.37798,0 0.17818,0.17818 -0.17818,0.57777 0,0.75595 0.0891,0.0891 0.28888,-0.0891 0.37797,0 0.17818,0.17818 -0.17818,0.57777 0,0.75595 0.0891,0.0891 0.28889,-0.0891 0.37798,0 0.17818,0.17818 -0.17818,0.57778 0,0.75596 0.0891,0.0891 0.28889,-0.0891 0.37798,0 0.0891,0.0891 -0.0563,0.26528 0,0.37797 0.0797,0.15937 0.29829,0.21861 0.37797,0.37798 0.0564,0.11269 -0.0891,0.28889 0,0.37798 0.0891,0.0891 0.26529,-0.0564 0.37798,0 0.15937,0.0797 0.21861,0.29829 0.37798,0.37797 0.11268,0.0563 0.25198,0 0.37797,0 0.12599,0 0.25199,0 0.37798,0 0.75595,0 1.5119,0 2.26785,0 0.126,0 0.28889,0.0891 0.37798,0 0.0891,-0.0891 -0.0891,-0.28889 0,-0.37797 0.0171,-0.0172 1.71167,0 1.88988,0 0.12599,0 0.28889,0.0891 0.37798,0 0.0891,-0.0891 -0.0891,-0.28889 0,-0.37798 0.18898,-0.18899 0.94494,0.18899 1.13393,0 0.0891,-0.0891 -0.0891,-0.28889 0,-0.37798 0.18898,-0.18898 0.94494,0.18899 1.13393,0 0.0891,-0.0891 -0.0891,-0.28888 0,-0.37797 0.17817,-0.17818 0.57777,0.17818 0.75595,0 0.0891,-0.0891 -0.0891,-0.28889 0,-0.37798 0.0891,-0.0891 0.26528,0.0563 0.37797,0 0.15937,-0.0797 0.21861,-0.29829 0.37798,-0.37798 0.11269,-0.0563 0.26529,0.0564 0.37797,0 0.31874,-0.15936 0.43722,-0.59658 0.75596,-0.75595 0.22538,-0.11269 0.57777,0.17818 0.75595,0 0.0891,-0.0891 -0.0891,-0.28889 0,-0.37798 0.17818,-0.17817 0.57777,0.17819 0.75595,0 0.0891,-0.0891 -0.0891,-0.28888 0,-0.37797 0.25274,-0.25274 0.50322,0.25274 0.75595,0 0.0891,-0.0891 -0.0891,-0.28889 0,-0.37798 0.17818,-0.17818 0.53058,0.11269 0.75596,0 0.15937,-0.0797 0.2186,-0.29829 0.37797,-0.37797 0.1127,-0.0563 0.26529,0.0563 0.37798,0 0.15937,-0.0797 0.21861,-0.29829 0.37798,-0.37798 0.22538,-0.11269 0.53057,0.11269 0.75595,0 0.15937,-0.0797 0.21861,-0.29829 0.37798,-0.37797 0.22538,-0.1127 0.57777,0.17817 0.75595,0 0.0891,-0.0891 -0.0891,-0.28889 0,-0.37798 0.0891,-0.0891 0.26528,0.0563 0.37797,0 0.15937,-0.0797 0.21861,-0.29829 0.37798,-0.37798 0.11269,-0.0563 0.26529,0.0564 0.37797,0 0.15937,-0.0797 0.21861,-0.29829 0.37798,-0.37797 0.11269,-0.0564 0.28889,0.0891 0.37798,0 0.0891,-0.0891 -0.0891,-0.28889 0,-0.37798 0.17818,-0.17818 0.57777,0.17818 0.75595,0 0.0891,-0.0891 -0.0891,-0.28889 0,-0.37798 0.25274,-0.25273 0.50322,0.25274 0.75595,0 0.0891,-0.0891 -0.0891,-0.28888 0,-0.37797 0.0891,-0.0891 0.28889,0.0891 0.37798,0 0.0891,-0.0891 -0.0891,-0.28889 0,-0.37798 0.17818,-0.17818 0.57777,0.17818 0.75595,0 0.0891,-0.0891 -0.0891,-0.28889 0,-0.37797 0.0891,-0.0891 0.26529,0.0563 0.37798,0 0.15937,-0.0797 0.2186,-0.2983 0.37797,-0.37798 0.22538,-0.11269 0.57778,0.17818 0.75596,0 0.0891,-0.0891 -0.0891,-0.28889 0,-0.37798 0.17818,-0.17818 0.57777,0.17818 0.75595,0 0.0891,-0.0891 -0.0891,-0.28888 0,-0.37797 0.18899,-0.18899 0.94494,0.18899 1.13393,0 0.0891,-0.0891 -0.0891,-0.28889 0,-0.37798 0.17818,-0.17818 0.53057,0.11269 0.75595,0 0.15937,-0.0797 0.21861,-0.29829 0.37797,-0.37798 0.13669,-0.0683 1.62699,0 1.88989,0 0.12599,0 0.28888,-0.0891 0.37797,0 0.0891,0.0891 -0.0891,0.28889 0,0.37798 0.18899,0.18899 0.94494,-0.18899 1.13393,0 0.0891,0.0891 -0.0891,0.28889 0,0.37798 0.0891,0.0891 0.26529,-0.0563 0.37798,0 0.15937,0.0797 0.2186,0.29829 0.37797,0.37797 0.1127,0.0564 0.26529,-0.0563 0.37798,0 1.57305,0.78653 -0.40407,-0.0261 0.37798,0.75596 0.0891,0.0891 0.28888,-0.0891 0.37797,0 0.0891,0.0891 -0.0891,0.28888 0,0.37797 0.0891,0.0891 0.28889,-0.0891 0.37798,0 0.0891,0.0891 -0.0891,0.28889 0,0.37798 0.0891,0.0891 0.28888,-0.0891 0.37798,0 0.0891,0.0891 -0.0891,0.28888 0,0.37797 0.78204,0.78205 -0.0306,-1.19507 0.75595,0.37798 0.0563,0.11269 -0.0564,0.26528 0,0.37798 0.15937,0.31873 0.59658,0.43721 0.75595,0.75595 0.0563,0.11269 -0.0891,0.28888 0,0.37798 0.0891,0.0891 0.28889,-0.0891 0.37797,0 0.0891,0.0891 -0.0563,0.26528 0,0.37797 0.15937,0.31874 0.59659,0.43721 0.75596,0.75595 0.0749,0.14987 -0.0773,1.05666 0,1.13393 0.0891,0.0891 0.28888,-0.0891 0.37797,0 0.091,0.091 -0.0909,1.42095 0,1.51191 0.0891,0.0891 0.28889,-0.0891 0.37798,0 0.0773,0.0773 -0.0749,0.98406 0,1.13393 0.0797,0.15936 0.29829,0.2186 0.37798,0.37797 0.0564,0.11269 -0.0891,0.28889 0,0.37798 0.0891,0.0891 0.28889,-0.0891 0.37798,0 0.0891,0.0891 -0.0891,0.28888 0,0.37797 0.0891,0.0891 0.28887,-0.0891 0.37796,0 0.0891,0.0891 -0.0891,0.28889 0,0.37798 0.0891,0.0891 0.26529,-0.0564 0.37798,0 0.15939,0.0797 0.2186,0.29829 0.37798,0.37798 0.11269,0.0563 0.26528,-0.0564 0.37799,0 0.15936,0.0797 0.2186,0.29829 0.37796,0.37797 0.11268,0.0564 0.25198,0 0.37798,0 0.12599,0 0.25199,0 0.37798,0 0.62995,0 1.25992,0 1.88987,0 0.0917,0 1.12178,0.0122 1.13392,0 0.0891,-0.0891 -0.0891,-0.28888 0,-0.37797 0.189,-0.18899 0.94496,0.18898 1.13396,0 0.0891,-0.0891 -0.0891,-0.28889 0,-0.37798 0.0151,-0.0152 1.37308,0 1.51188,0 1.13395,0 2.26787,0 3.4018,0 0.19764,0 1.4125,0.0497 1.51191,0 0.15935,-0.0797 0.2186,-0.29829 0.37795,-0.37798 0.14989,-0.0749 1.05667,0.0773 1.13395,0 0.0891,-0.0891 -0.0891,-0.28888 0,-0.37797 0.18897,-0.18899 0.94494,0.18898 1.13393,0 0.0891,-0.0891 -0.0891,-0.28889 0,-0.37798 0.17817,-0.17818 0.53057,0.11269 0.75594,0 0.15939,-0.0797 0.2186,-0.29829 0.37798,-0.37797 0.11269,-0.0564 0.26528,0.0563 0.37799,0 0.15936,-0.0797 0.2186,-0.2983 0.37796,-0.37798 0.22539,-0.11269 0.57777,0.17818 0.75596,0 0.0891,-0.0891 -0.0891,-0.28889 0,-0.37798 0.18899,-0.18898 0.94494,0.18899 1.13393,0 0.0891,-0.0891 -0.0891,-0.28888 0,-0.37797 0.18899,-0.18899 0.94493,0.18899 1.13392,0 0.0891,-0.0891 -0.0891,-0.28889 0,-0.37798 0.0891,-0.0891 0.2653,0.0563 0.37799,0 0.15935,-0.0797 0.2186,-0.29829 0.37795,-0.37798 0.11272,-0.0563 0.2653,0.0564 0.37799,0 0.15938,-0.0797 0.2186,-0.29829 0.37798,-0.37797 0.11269,-0.0563 0.28887,0.0891 0.37798,0 0.0891,-0.0891 -0.0891,-0.28889 0,-0.37798 0.0891,-0.0891 0.26528,0.0564 0.37796,0 0.15939,-0.0797 0.21863,-0.29829 0.37799,-0.37798 0.11268,-0.0563 0.28889,0.0891 0.37798,0 0.0891,-0.0891 -0.0891,-0.28888 0,-0.37797 0.0891,-0.0891 0.26527,0.0563 0.37796,0 0.31874,-0.15937 0.43722,-0.59658 0.75596,-0.75595 0.11269,-0.0563 0.28888,0.0891 0.37799,0 0.0891,-0.0891 -0.0891,-0.28889 0,-0.37798 0.0891,-0.0891 0.28887,0.0891 0.37796,0 0.0891,-0.0891 -0.0891,-0.28889 0,-0.37797 0.0891,-0.0891 0.28889,0.0891 0.37798,0 0.0891,-0.0891 -0.0891,-0.28889 0,-0.37798 0.0891,-0.0891 0.2653,0.0563 0.37798,0 0.15936,-0.0797 0.2186,-0.29829 0.37796,-0.37798 0.11271,-0.0563 0.2889,0.0891 0.37798,0 0.0891,-0.0891 -0.0891,-0.28888 0,-0.37797 0.25244,-0.25243 0.50353,0.25242 0.75597,0 0.0891,-0.0891 -0.0891,-0.28889 0,-0.37798 0.17817,-0.17818 0.57777,0.17818 0.75594,0 0.0891,-0.0891 -0.0891,-0.28889 0,-0.37798 0.17817,-0.17818 0.53057,0.11269 0.75594,0 0.15939,-0.0797 0.21863,-0.29829 0.37799,-0.37797 0.40338,-0.20169 0.35258,0.20168 0.75596,0 0.15936,-0.0797 0.2186,-0.29829 0.37796,-0.37798 0.20505,-0.10252 1.40848,0.10342 1.51191,0 0.0891,-0.0891 -0.0891,-0.28889 0,-0.37797 0.0533,-0.0533 1.0564,-0.0388 1.13393,0 0.15938,0.0797 0.21862,0.29829 0.37798,0.37797 0.23757,0.11878 1.27434,-0.11878 1.51191,0 0.15936,0.0797 0.2186,0.29829 0.37798,0.37798 0.14986,0.0749 1.05664,-0.0773 1.13393,0 0.0891,0.0891 -0.0891,0.28888 0,0.37797 0.17817,0.17818 0.57777,-0.17818 0.75594,0 0.0891,0.0891 -0.0891,0.28889 0,0.37798 0.17817,0.17818 0.57777,-0.17818 0.75596,0 0.0891,0.0891 -0.0891,0.28889 0,0.37798 0.0891,0.0891 0.26528,-0.0564 0.37796,0 0.15939,0.0797 0.21863,0.29829 0.37799,0.37797 0.11268,0.0564 0.28889,-0.0891 0.37798,0 0.0891,0.0891 -0.0564,0.26529 0,0.37798 0.0797,0.15937 0.25199,0.25198 0.37796,0.37798 0.29702,0.297 1.7695,1.64911 1.88989,1.88987 0.0564,0.1127 -0.0891,0.28889 0,0.37798 0.0891,0.0891 0.2889,-0.0891 0.37798,0 0.0891,0.0891 -0.0891,0.28889 0,0.37798 0.0891,0.0891 0.26527,-0.0563 0.37796,0 0.15938,0.0797 0.21863,0.29829 0.37798,0.37797 0.11269,0.0564 0.2889,-0.0891 0.37799,0 0.0891,0.0891 -0.0891,0.28889 0,0.37798 0.0891,0.0891 0.26527,-0.0564 0.37798,0 0.15936,0.0797 0.2186,0.29829 0.37796,0.37798 0.11268,0.0563 0.2889,-0.0891 0.37798,0 0.0891,0.0891 -0.0891,0.28888 0,0.37797 0.0773,0.0773 0.98407,-0.0749 1.13393,0 0.15938,0.0797 0.2186,0.29829 0.37798,0.37798 0.22537,0.11269 0.57777,-0.17818 0.75594,0 0.0891,0.0891 -0.0891,0.28889 0,0.37798 0.1782,0.17817 0.53057,-0.1127 0.75597,0 0.15936,0.0797 0.2186,0.29829 0.37796,0.37797 0.11504,0.0575 0.96371,0 1.13395,0 0.12597,0 0.28887,0.0891 0.37796,0 0.0891,-0.0891 -0.0891,-0.28889 0,-0.37797 0.0891,-0.0891 0.28889,0.0891 0.37798,0 0.0891,-0.0891 -0.0891,-0.28889 0,-0.37798 0.0891,-0.0891 0.2653,0.0563 0.37798,0 1.57303,-0.78652 -0.40407,0.0261 0.37796,-0.75595 0.0891,-0.0891 0.2889,0.0891 0.37798,0 0.0891,-0.0891 0,-0.25199 0,-0.37798 0,-0.12599 0.0891,-0.28889 0,-0.37798 -0.0891,-0.0891 -0.25199,0 -0.37798,0"
       id="path2703"
       inkscape:connector-curvature="0" />
  </g>
</svg>
