<?xml version="1.0" encoding="UTF-8" standalone="no"?>
<!-- Created with Inkscape (http://www.inkscape.org/) -->

<svg
   xmlns:dc="http://purl.org/dc/elements/1.1/"
   xmlns:cc="http://creativecommons.org/ns#"
   xmlns:rdf="http://www.w3.org/1999/02/22-rdf-syntax-ns#"
   xmlns:svg="http://www.w3.org/2000/svg"
   xmlns="http://www.w3.org/2000/svg"
   xmlns:xlink="http://www.w3.org/1999/xlink"
   xmlns:sodipodi="http://sodipodi.sourceforge.net/DTD/sodipodi-0.dtd"
   xmlns:inkscape="http://www.inkscape.org/namespaces/inkscape"
   width="1730.6667"
   height="1184"
   viewBox="0 0 457.90558 313.26666"
   version="1.1"
   id="svg1944"
   sodipodi:docname="strelka-sportivnaya-sportivnaya.svg"
   inkscape:version="0.92.3 (2405546, 2018-03-11)">
  <defs
     id="defs1938" />
  <sodipodi:namedview
     id="base"
     pagecolor="#ffffff"
     bordercolor="#666666"
     borderopacity="1.0"
     inkscape:pageopacity="0.0"
     inkscape:pageshadow="2"
     inkscape:zoom="0.49497475"
     inkscape:cx="872.00736"
     inkscape:cy="666.74266"
     inkscape:document-units="mm"
     inkscape:current-layer="layer1"
     showgrid="false"
     inkscape:window-width="1366"
     inkscape:window-height="715"
     inkscape:window-x="0"
     inkscape:window-y="0"
     inkscape:window-maximized="1"
     fit-margin-top="0"
     fit-margin-left="0"
     fit-margin-right="0"
     fit-margin-bottom="0"
     units="px" />
  <metadata
     id="metadata1941">
    <rdf:RDF>
      <cc:Work
         rdf:about="">
        <dc:format>image/svg+xml</dc:format>
        <dc:type
           rdf:resource="http://purl.org/dc/dcmitype/StillImage" />
        <dc:title></dc:title>
      </cc:Work>
    </rdf:RDF>
  </metadata>
  <g
     inkscape:label="Layer 1"
     inkscape:groupmode="layer"
     id="layer1"
     transform="translate(-5.5613631e-4,0.00661361)">
    <image
       sodipodi:absref="/home/aanper/project/luysy-imn-eh/pi/boot/bydefault/web/img/strelka.png"
       y="-0.006613608"
       x="0.00055613631"
       id="image2667"
       xlink:href="file:///home/aanper/project/luysy-imn-eh/pi/boot/bydefault/web/img/strelka.png"
       preserveAspectRatio="none"
       height="313.26666"
       width="457.90558"
       style="fill:none" />
    <ellipse
       style="fill:#00ff00;fill-opacity:1;stroke:#00ff00;stroke-width:0.30000001;stroke-miterlimit:4;stroke-dasharray:none;stroke-opacity:1;paint-order:stroke fill markers"
       id="path2670"
       cx="169.90086"
       cy="79.670769"
       rx="3.2127976"
       ry="3.0238097" />
    <circle
       style="fill:#00ff00;fill-opacity:1;stroke:#00ff00;stroke-width:0.30000001;stroke-miterlimit:4;stroke-dasharray:none;stroke-opacity:1;paint-order:stroke fill markers"
       id="path2672"
       cx="420.87701"
       cy="29.210947"
       r="2.4568453" />
    <ellipse
       style="fill:#00ff00;fill-opacity:1;stroke:#00ff00;stroke-width:0.30000001;stroke-miterlimit:4;stroke-dasharray:none;stroke-opacity:1;paint-order:stroke fill markers"
       id="path2674"
       cx="381.7565"
       cy="308.15735"
       rx="3.4017856"
       ry="2.8348215" />
    <circle
       style="fill:#00ff00;fill-opacity:1;stroke:#00ff00;stroke-width:0.30000001;stroke-miterlimit:4;stroke-dasharray:none;stroke-opacity:1;paint-order:stroke fill markers"
       id="path2676"
       cx="79.753525"
       cy="248.62613"
       r="2.2678571" />
    <ellipse
       style="fill:#00ff00;fill-opacity:1;stroke:#00ff00;stroke-width:0.30000001;stroke-miterlimit:4;stroke-dasharray:none;stroke-opacity:1;paint-order:stroke fill markers"
       id="path2678"
       cx="216.7699"
       cy="220.65588"
       rx="1.7008928"
       ry="1.5119048" />
    <circle
       style="fill:#00ff00;fill-opacity:1;stroke:#00ff00;stroke-width:0.30000001;stroke-miterlimit:4;stroke-dasharray:none;stroke-opacity:1;paint-order:stroke fill markers"
       id="path2680"
       cx="316.93359"
       cy="230.67224"
       r="1.7008928" />
    <path
       style="fill:none;fill-opacity:1;stroke:#00ff00;stroke-width:0.30000001;stroke-miterlimit:4;stroke-dasharray:none;stroke-opacity:1;paint-order:stroke fill markers"
       d="m 169.44943,80.201024 c -5.38379,1.173218 -0.86896,-1.938041 -1.60361,-2.672694 -0.12599,-0.125995 -0.37517,0.07968 -0.53454,0 -0.22538,-0.112691 -0.30916,-0.421849 -0.53454,-0.53454 -0.31874,-0.159369 -0.81709,0.251984 -1.06908,0 -0.12599,-0.125992 0.12599,-0.408546 0,-0.534538 -0.25198,-0.251987 -0.75034,0.159366 -1.06908,0 -0.22538,-0.112691 -0.30915,-0.421849 -0.53454,-0.53454 -0.15937,-0.07968 -0.40854,0.125992 -0.53453,0 -0.126,-0.125992 0.12599,-0.408546 0,-0.534538 -0.126,-0.125995 -0.37518,0.07968 -0.53454,0 -0.22538,-0.112691 -0.30916,-0.421849 -0.53454,-0.53454 -0.15937,-0.07968 -0.40855,0.125992 -0.53454,0 -0.12599,-0.125992 0.0797,-0.375172 0,-0.534541 -0.11269,-0.22538 -0.35636,-0.356359 -0.53454,-0.534537 -0.17818,-0.178181 -0.30916,-0.421849 -0.53454,-0.534541 -0.15937,-0.07968 -0.37517,0.07968 -0.53454,0 -0.22538,-0.112688 -0.30916,-0.421846 -0.53454,-0.534538 -0.15937,-0.07968 -0.40854,0.125992 -0.53454,0 -0.12599,-0.125991 0.126,-0.408545 0,-0.53454 -0.12599,-0.125992 -0.37517,0.07968 -0.53454,0 -0.22538,-0.112689 -0.30915,-0.421846 -0.53453,-0.534538 -0.15937,-0.07968 -0.40855,0.125992 -0.53455,0 -0.12599,-0.125991 0.126,-0.408548 0,-0.53454 -0.12599,-0.125992 -0.40854,0.125992 -0.53453,0 -0.12599,-0.125992 0.12599,-0.408546 0,-0.534538 -0.12599,-0.125992 -0.40855,0.125992 -0.53454,0 -0.126,-0.125992 0.12599,-0.408548 0,-0.53454 -0.126,-0.125992 -0.40855,0.125992 -0.53454,0 -0.12599,-0.125992 0.12599,-0.408546 0,-0.534538 -0.12599,-0.125992 -0.40855,0.125992 -0.53454,0 -0.12599,-0.125992 0.0797,-0.375171 0,-0.53454 -0.22538,-0.450763 -0.8437,-0.618315 -1.06908,-1.069078 -0.0797,-0.159367 0.12599,-0.408546 0,-0.534538 -1.42544,0 0.17818,0.178179 -0.53454,-0.53454 -0.12599,-0.125992 -0.40855,0.125992 -0.53454,0 -0.12599,-0.125992 0.12599,-0.408546 0,-0.534538 -0.12599,-0.125992 -0.37517,0.07968 -0.53453,0 -0.45077,-0.225382 -0.61832,-0.843698 -1.06908,-1.069078 -0.15937,-0.07968 -0.37517,0.07968 -0.53454,0 -0.22539,-0.112691 -0.30916,-0.421849 -0.53454,-0.53454 -0.15937,-0.07969 -0.40855,0.125992 -0.53454,0 -0.12599,-0.125992 0.12599,-0.408546 0,-0.534538 -0.25199,-0.251984 -0.8171,0.251984 -1.06908,0 -0.12599,-0.125992 0.12599,-0.408548 0,-0.53454 -0.12863,-0.128625 -2.00953,0.128627 -2.13816,0 -0.12599,-0.125992 0.126,-0.408546 0,-0.534538 -0.25198,-0.251984 -0.81709,0.251984 -1.06907,0 -0.126,-0.125992 0.12599,-0.408548 0,-0.53454 -0.126,-0.125992 -0.37517,0.07968 -0.53454,0 -0.22538,-0.112689 -0.30916,-0.421847 -0.53454,-0.534538 -0.15937,-0.07968 -0.40855,0.125992 -0.53454,0 -0.12599,-0.125992 0.12599,-0.408548 0,-0.53454 -0.12599,-0.125992 -0.37517,0.07968 -0.53454,0 -0.22538,-0.112689 -0.30916,-0.421847 -0.53454,-0.534538 -0.15937,-0.07968 -0.40855,0.125992 -0.53454,0 -0.12599,-0.125992 0.12599,-0.408548 0,-0.53454 -0.25198,-0.251984 -0.81709,0.251983 -1.06908,0 -0.12599,-0.125992 0.126,-0.408546 0,-0.534538 -0.25198,-0.251984 -0.81709,0.251984 -1.06907,0 -0.126,-0.125992 0.12599,-0.408549 0,-0.53454 -0.25199,-0.251984 -0.8171,0.251983 -1.06908,0 -0.12599,-0.125992 0.12599,-0.408546 0,-0.534538 -0.12599,-0.125992 -0.37517,0.07968 -0.53454,0 -0.22538,-0.112691 -0.30916,-0.421849 -0.53454,-0.53454 -0.15937,-0.07968 -0.40855,0.125991 -0.53454,0 -0.12599,-0.125992 0.12599,-0.408546 0,-0.534538 -0.25198,-0.251984 -0.75034,0.159369 -1.06908,0 -0.22538,-0.112692 -0.30916,-0.421849 -0.53454,-0.534541 -0.31873,-0.159369 -0.81709,0.251984 -1.06907,0 -0.126,-0.125991 0.12599,-0.408545 0,-0.534537 -0.25199,-0.251984 -0.8171,0.251984 -1.06908,0 -0.12599,-0.125992 0.12599,-0.408549 0,-0.534541 -0.26727,-0.267268 -1.33635,0.267269 -1.60362,0 -0.12599,-0.125992 0.12599,-0.408545 0,-0.534537 -0.12599,-0.125992 -0.37517,0.07968 -0.53454,0 -0.22538,-0.112692 -0.30916,-0.421849 -0.53454,-0.534541 -0.31874,-0.159369 -0.81709,0.251984 -1.06908,0 -0.12599,-0.125992 0.126,-0.408545 0,-0.534537 -0.25198,-0.251984 -0.81709,0.251984 -1.06907,0 -0.126,-0.125992 0.12599,-0.408549 0,-0.534541 -0.10928,-0.109278 -1.39168,0.105971 -1.60362,0 -0.22538,-0.112691 -0.30916,-0.421849 -0.53454,-0.534537 -0.28998,-0.144992 -1.9919,0.146261 -2.13816,0 -0.12599,-0.125992 0.126,-0.408549 0,-0.534541 -0.26727,-0.267269 -1.33634,0.267269 -1.60361,0 -0.12599,-0.125992 0.12599,-0.408546 0,-0.534537 -0.25199,-0.251984 -0.75035,0.159366 -1.06908,0 -0.22538,-0.112692 -0.30916,-0.421849 -0.53454,-0.534541 -0.31874,-0.159369 -0.8171,0.251984 -1.06908,0 -0.12599,-0.125992 0.12599,-0.408546 0,-0.534537 -0.12599,-0.125992 -0.37517,0.07968 -0.53454,0 -0.64144,-0.320726 -0.96217,-1.282896 -1.60362,-1.603619 -0.15936,-0.07968 -0.40854,0.125992 -0.53454,0 -0.12599,-0.125992 0.126,-0.408546 0,-0.534538 -0.12599,-0.125992 -0.40854,0.125992 -0.53453,0 -0.126,-0.125992 0.12599,-0.408548 0,-0.53454 -0.126,-0.125992 -0.40855,0.125992 -0.53454,0 -0.126,-0.125992 0.12599,-0.408546 0,-0.534538 -0.126,-0.125992 -0.37517,0.07968 -0.53454,0 -0.45076,-0.225382 -0.61832,-0.843698 -1.06908,-1.069078 -0.31874,-0.159369 -0.81709,0.251984 -1.06908,0 -0.12599,-0.125994 0.12599,-0.408548 0,-0.53454 -0.12599,-0.125992 -0.40855,0.125992 -0.53454,0 -1.10598,-1.10598 1.69009,0.04323 -0.53454,-1.069078 -0.15936,-0.07969 -0.37517,0.07968 -0.53454,0 -0.22538,-0.112691 -0.30915,-0.421849 -0.53453,-0.534538 -0.15937,-0.07968 -0.37517,0.07968 -0.53454,0 -0.22538,-0.112691 -0.30916,-0.421849 -0.53454,-0.53454 -0.15937,-0.07968 -0.40855,0.125992 -0.53454,0 -0.12599,-0.125992 0.12599,-0.408546 0,-0.53454 -0.12599,-0.125992 -0.37517,0.07968 -0.53454,0 -0.22538,-0.112689 -0.30916,-0.421847 -0.53454,-0.534538 -0.15937,-0.07968 -0.40855,0.125992 -0.53454,0 -0.12599,-0.125992 0.12599,-0.408546 0,-0.534541 -0.12599,-0.125991 -0.40855,0.125995 -0.53454,0 -0.12599,-0.125991 0.12599,-0.408545 0,-0.534537 -0.12599,-0.125992 -0.40854,0.125992 -0.53454,0 -0.12599,-0.125992 0.126,-0.408549 0,-0.534541 -0.26726,-0.267268 -1.33634,0.267272 -1.60361,0 -0.126,-0.125992 0.12599,-0.408545 0,-0.534537 -0.126,-0.125992 -0.35636,0 -0.53454,0 -0.17818,0 -0.35636,0 -0.53454,0 -0.24074,0 -1.44094,-0.08134 -1.60362,0 -0.22538,0.112691 -0.30916,0.421849 -0.53454,0.534537 -0.15937,0.07968 -0.40854,-0.125992 -0.53454,0 -0.12599,0.125992 0.0797,0.375172 0,0.534541 -0.11269,0.22538 -0.42184,0.309157 -0.53454,0.534537 -0.0797,0.15937 0.126,0.408549 0,0.534541 -0.71271,0.712719 -0.53453,-0.8909 -0.53453,0.534538 0,1.42544 0.17817,-0.178179 -0.53454,0.53454 -0.26727,0.267269 0.26726,1.336347 0,1.603618 -0.126,0.125992 -0.40855,-0.125994 -0.53454,0 -0.25199,0.251984 0.25198,0.817092 0,1.069078 -0.12599,0.125992 -0.40855,-0.125994 -0.534542,0 -0.125992,0.125992 0.07968,0.375169 0,0.534538 -0.112692,0.225383 -0.421849,0.309158 -0.534538,0.53454 -0.07968,0.159367 0.125992,0.408546 0,0.534538 -0.125992,0.125992 -0.408548,-0.125992 -0.53454,0 -0.125992,0.125992 0.07968,0.375171 0,0.53454 -1.112311,2.224622 0.0369,-0.571441 -1.069078,0.534538 -0.125992,0.125992 0.125992,0.408549 0,0.53454 -0.125992,0.125992 -0.408546,-0.125991 -0.534538,0 -0.125992,0.125992 0.125992,0.408546 0,0.534538 -0.251984,0.251984 -0.817094,-0.251984 -1.069078,0 -0.125992,0.125992 0.125992,0.408549 0,0.534541 -0.267272,0.267268 -1.33635,-0.267272 -1.603619,0 -0.125991,0.125991 0.125992,0.408545 0,0.534537 -0.125991,0.125992 -0.356359,0 -0.534537,0 -0.8909,0 -1.781797,0 -2.672697,0 -0.178178,0 -0.408545,-0.125992 -0.534537,0 -0.125995,0.125992 0.125992,0.408549 0,0.534541 -0.125995,0.125991 -0.35636,0 -0.534541,0 -0.371792,0 -2.479389,0.09665 -2.672696,0 -0.22538,-0.112692 -0.309155,-0.421849 -0.534538,-0.534541 -0.159369,-0.07968 -0.375171,0.07968 -0.53454,0 -0.22538,-0.112691 -0.35636,-0.356359 -0.534538,-0.534537 -0.178181,-0.178181 -0.421849,-0.309158 -0.53454,-0.534541 -0.07968,-0.159369 0.125992,-0.408546 0,-0.534538 -0.125992,-0.125991 -0.408546,0.125992 -0.534538,0 -0.125992,-0.125991 0.07968,-0.375171 0,-0.53454 -0.112691,-0.22538 -0.421849,-0.309158 -0.53454,-0.534538 -0.07968,-0.159369 0.125992,-0.408548 0,-0.53454 -0.125992,-0.125992 -0.408546,0.125992 -0.534538,0 -0.251984,-0.251984 0.251984,-0.817094 0,-1.069078 -0.125992,-0.125992 -0.408548,0.125992 -0.53454,0 -0.125992,-0.125992 0.125992,-0.408546 0,-0.534538 -0.125992,-0.125994 -0.408546,0.125992 -0.534538,0 -0.125992,-0.125994 0.125992,-0.408548 0,-0.53454 -0.125992,-0.125992 -0.408549,0.125992 -0.53454,0 -0.251984,-0.251984 0.251983,-0.817094 0,-1.069078 -0.125992,-0.125992 -0.408546,0.125992 -0.534538,0 -0.251984,-0.251984 0.251984,-0.817094 0,-1.069078 -0.125992,-0.125992 -0.408549,0.125992 -0.53454,0 -0.125992,-0.125992 0.07968,-0.375171 0,-0.53454 -0.112689,-0.22538 -0.35636,-0.35636 -0.534538,-0.534538 -0.178181,-0.178181 -0.309158,-0.421849 -0.534541,-0.534541 -0.159369,-0.07968 -0.408545,0.125995 -0.534537,0 -1.10598,-1.105979 1.690084,0.04324 -0.534541,-1.069078 -0.737319,-0.368659 -0.478128,0.647359 -1.069078,-0.534537 -0.07968,-0.159369 0.07968,-0.375171 0,-0.534541 -0.112688,-0.22538 -0.421846,-0.309157 -0.534537,-0.534537 -0.07968,-0.159369 0.125992,-0.408549 0,-0.534541 -0.125992,-0.125992 -0.408549,0.125992 -0.534541,0 -0.125992,-0.125992 0.07969,-0.375168 0,-0.534537 -0.112688,-0.225383 -0.356359,-0.35636 -0.534537,-0.534541 -0.178181,-0.178178 -0.309158,-0.421846 -0.534541,-0.534537 -0.159369,-0.07968 -0.408546,0.125992 -0.534537,0 -0.125992,-0.125992 0.07968,-0.375172 0,-0.534541 -0.112692,-0.22538 -0.421849,-0.309157 -0.534541,-0.534537 -0.07968,-0.15937 0.125992,-0.408549 0,-0.534541 -0.125992,-0.125992 -0.408546,0.125992 -0.534537,0 -0.251984,-0.251984 0.159369,-0.75034 0,-1.069078 -0.112692,-0.22538 -0.42185,-0.309158 -0.534541,-0.534538 -0.07968,-0.159369 0.125992,-0.408548 0,-0.53454 -0.125992,-0.125992 -0.408546,0.125992 -0.534538,0 -0.356491,-0.356492 0.356492,-0.712586 0,-1.069078 -0.125991,-0.125992 -0.408548,0.125992 -0.53454,0 -0.251984,-0.251984 0.251984,-0.817094 0,-1.069078 -0.125992,-0.125992 -0.408546,0.125992 -0.534538,0 -0.125992,-0.125992 0.07968,-0.375169 0,-0.534538 -0.112691,-0.225382 -0.356359,-0.356359 -0.53454,-0.53454 -0.178178,-0.178178 -0.309158,-0.421846 -0.534538,-0.534538 -0.318738,-0.159369 -0.817094,0.251984 -1.069078,0 -0.125992,-0.125992 0.125992,-0.408548 0,-0.53454 -0.125992,-0.125992 -0.408548,0.125992 -0.53454,0 -0.125992,-0.125992 0.125992,-0.408546 0,-0.534538 -0.125992,-0.125992 -0.375169,0.07969 -0.534538,0 -0.225382,-0.112691 -0.309157,-0.421849 -0.53454,-0.53454 -0.159369,-0.07969 -0.408546,0.125992 -0.534538,0 -0.125992,-0.125992 0.125992,-0.408546 0,-0.534538 -0.125992,-0.125992 -0.408548,0.125992 -0.53454,0 -0.125992,-0.125992 0.125992,-0.408548 0,-0.53454 -0.125992,-0.125992 -0.375171,0.07968 -0.534538,0 -0.102322,-0.05116 -2.086996,-2.035834 -2.138156,-2.138156 -0.07968,-0.159369 0.125992,-0.408547 0,-0.534539 -0.125992,-0.125992 -0.408548,0.125992 -0.53454,0 -0.125992,-0.125992 0.125992,-0.408547 0,-0.534539 -0.125992,-0.125992 -0.408546,0.125992 -0.534538,0 -0.125992,-0.125992 0.125992,-0.408547 0,-0.534539 -0.125992,-0.125992 -0.408548,0.125992 -0.53454,0 -0.251984,-0.251984 0.159369,-0.75034 0,-1.069078 -0.22538,-0.450763 -0.843696,-0.618315 -1.069078,-1.069078 -0.159369,-0.318738 0.251983,-0.817094 0,-1.069078 -0.125992,-0.125992 -0.408546,0.125992 -0.534538,0 -0.125995,-0.125992 0.125992,-0.408547 0,-0.534539 -0.125995,-0.125992 -0.408548,0.125992 -0.53454,0 -0.125992,-0.125992 0.125992,-0.408547 0,-0.534539 -0.125992,-0.125993 -0.408546,0.125992 -0.534538,0 -0.125995,-0.125993 0.125992,-0.408547 0,-0.534539 -0.251987,-0.251984 -0.817094,0.251984 -1.069081,0 -0.125992,-0.125993 0,-0.35636 0,-0.534539 -0.178178,0 -0.408546,0.125992 -0.534538,0 -0.125991,-0.125993 0.125992,-0.408547 0,-0.534539 -0.125991,-0.125993 -0.408545,0.125992 -0.53454,0 -0.251984,-0.251985 0.251987,-0.817095 0,-1.069079 -0.125992,-0.125992 -0.408546,0.125992 -0.534538,0 -0.125992,-0.125992 0.125992,-0.408547 0,-0.534539 -0.125992,-0.125992 -0.408545,0.125992 -0.53454,0 -0.125992,-0.125992 0.07968,-0.37517 0,-0.534539 -0.112689,-0.225381 -0.421846,-0.309157 -0.534538,-0.534539 -0.07968,-0.159369 0.07968,-0.37517 0,-0.534539 -0.112691,-0.225381 -0.421849,-0.309157 -0.53454,-0.534539 -0.07968,-0.159369 0.125992,-0.408547 0,-0.534539 -0.125992,-0.125992 -0.408546,0.125992 -0.534538,0 -0.125992,-0.125992 0.07969,-0.37517 0,-0.534539 -0.112691,-0.225381 -0.356359,-0.356359 -0.53454,-0.534539 -0.178178,-0.17818 -0.309158,-0.421848 -0.534538,-0.534539 -0.159369,-0.07968 -0.408548,0.125992 -0.53454,0 -0.125992,-0.125992 0.125992,-0.408547 0,-0.534539 -0.251984,-0.251984 -0.817094,0.251984 -1.069078,0 -0.125992,-0.125992 0.125992,-0.408547 0,-0.534539 -0.125992,-0.125992 -0.408546,0.125992 -0.534538,0 -0.125992,-0.125992 0.125992,-0.408547 0,-0.534539 -0.125992,-0.125992 -0.408548,0.125992 -0.53454,0 -0.125992,-0.125992 -0.125992,-0.408547 0,-0.534539 0.125992,-0.125992 0.53454,-0.17818 0.53454,0 0,0.178179 -0.408548,0.125992 -0.53454,0 -0.125992,-0.125992 -0.125992,-0.4085471 0,-0.5345393 0.125992,-0.1259919 0.53454,0.1781797 0.53454,0 0,-0.2519841 -0.53454,-0.2825549 -0.53454,-0.534539 0,-0.1781797 0.375171,0.079684 0.53454,0 0.22538,-0.1126908 0.309158,-0.4218483 0.534538,-0.5345391 0.318738,-0.1593688 0.750342,0.1593689 1.069078,0 0.225383,-0.1126908 0.309158,-0.4218482 0.53454,-0.534539 0.318739,-0.1593688 0.817094,0.2519842 1.069078,0 0.125992,-0.1259922 -0.125992,-0.4085471 0,-0.534539 0.125992,-0.1259922 0.35636,0 0.534538,0 0.8909,0 1.781797,0 2.672696,0 0.178179,0 0.408546,0.1259919 0.534538,0 0.125995,-0.1259922 -0.125992,-0.4085471 0,-0.534539 0.125995,-0.1259922 0.356362,0 0.534541,0 0.890899,0 1.781796,0 2.672696,0 0.178178,0 0.408546,0.1259919 0.534538,0 0.125992,-0.1259922 -0.125992,-0.4085471 0,-0.5345391 0.125992,-0.1259922 0.356359,0 0.53454,0 1.069078,0 2.138156,0 3.207234,0 0.178179,0 0.375169,-0.079684 0.534538,0 0.225383,0.1126906 0.309158,0.4218483 0.53454,0.5345391 0.289981,0.1449903 1.991895,-0.1462617 2.138156,0 0.712719,0.7127187 -0.890899,0.534539 0.534538,0.534539 1.069078,0 2.138156,0 3.207234,0 0.240734,0 1.44094,0.081339 1.603619,0 0.22538,-0.1126908 0.309157,-0.4218485 0.534537,-0.534539 0.138205,-0.069103 2.828354,0 3.207234,0 0.178181,0 0.375172,0.079684 0.534541,0 0.22538,-0.1126908 0.309157,-0.4218485 0.534537,-0.5345391 0.15937,-0.079684 0.375172,0.079684 0.534541,0 0.22538,-0.1126908 0.309157,-0.4218484 0.534538,-0.5345392 0.318738,-0.1593686 0.750342,0.1593688 1.069078,0 0.225382,-0.1126906 0.309157,-0.4218483 0.53454,-0.5345391 0.140552,-0.070276 1.858634,0 2.138156,0 1.781797,0 3.563593,0 5.34539,0 0.252034,0 2.648469,-0.024225 2.672697,0 0.125992,0.1259922 -0.125992,0.4085471 0,0.5345391 0.267269,0.2672696 1.336347,-0.2672694 1.603615,0 0.125992,0.1259922 -0.125991,0.408547 0,0.5345392 0.267269,0.2672694 1.336347,-0.2672696 1.603619,0 0.125992,0.125992 -0.125992,0.4085469 0,0.5345391 0.251984,0.2519841 0.817094,-0.2519842 1.069078,0 0.125992,0.1259919 -0.125992,0.4085468 0,0.534539 0.125992,0.1259919 0.375168,-0.079685 0.534538,0 0.225382,0.1126905 0.309157,0.4218482 0.53454,0.534539 0.159369,0.079684 0.408546,-0.1259922 0.534538,0 0.125992,0.125992 -0.125992,0.4085468 0,0.534539 0.251984,0.2519842 0.817094,-0.2519841 1.069078,0 0.125992,0.125992 -0.125992,0.4085471 0,0.5345391 0.125992,0.1259919 0.408552,-0.125992 0.534542,0 0.12599,0.1259919 -0.12599,0.4085471 0,0.534539 0.12599,0.1259922 0.37517,-0.079684 0.53454,0 2.22462,1.1123113 -0.57145,-0.036902 0.53454,1.0690783 0.12599,0.125992 0.40854,-0.125992 0.53453,0 0.126,0.125992 -0.12599,0.408547 0,0.534539 0.126,0.125992 0.40855,-0.125992 0.53454,0 0.126,0.125992 -0.12599,0.408547 0,0.534539 0.126,0.125992 0.40855,-0.125992 0.53454,0 0.12599,0.125992 0,0.356359 0,0.534539 0.17818,0 0.37517,-0.07968 0.53454,0 2.22462,1.112312 -0.57144,-0.0369 0.53454,1.069078 0.12599,0.125992 0.40855,-0.125992 0.53454,0 0.12599,0.125992 -0.12599,0.408547 0,0.534539 0.12599,0.125992 0.40855,-0.125992 0.53454,0 0.12599,0.125992 -0.12599,0.408547 0,0.534539 0.12599,0.125992 0.40855,-0.125992 0.53454,0 0.12599,0.125992 -0.12599,0.408547 0,0.534539 0.12599,0.125992 0.37517,-0.07968 0.53454,0 2.22462,1.112312 -0.57145,-0.0369 0.53454,1.069078 0.12599,0.125992 0.40854,-0.125992 0.53453,0 0.126,0.125992 -0.12599,0.408547 0,0.534539 0.126,0.125992 0.40855,-0.125992 0.53454,0 0.126,0.125992 -0.12599,0.408547 0,0.534539 0.126,0.125992 0.40855,-0.125992 0.53454,0 1.10598,1.105981 -1.69008,-0.04323 0.53454,1.069079 0.15937,0.07968 0.40855,-0.125993 0.53454,0 1.10598,1.10598 -1.69008,-0.04323 0.53454,1.069078 0.15937,0.07968 0.37517,-0.07969 0.53454,0 0.68494,0.342472 0.38413,0.726606 1.06908,1.069078 0.15937,0.07968 0.37517,-0.07968 0.53454,0 1.18189,0.590947 0.16587,0.331758 0.53453,1.069078 0.1127,0.225381 0.35636,0.356359 0.53454,0.534539 0.17818,0.178179 0.35636,0.356359 0.53454,0.534539 0.71272,0.712719 1.42544,1.425437 2.13816,2.138156 0.17818,0.17818 0.35636,0.35636 0.53454,0.534539 0.17818,0.17818 0.30916,0.421848 0.53454,0.534539 0.15937,0.07969 0.40854,-0.125992 0.53454,0 0.12599,0.125992 -0.0797,0.37517 0,0.534539 0.263,0.526003 1.87515,1.612155 2.13815,2.138157 0.0797,0.159369 -0.0797,0.375169 0,0.534538 1.11231,2.224624 -0.0369,-0.571442 1.06908,0.53454 0.12599,0.125992 -0.12599,0.408546 0,0.534538 0.12599,0.125992 0.40855,-0.125992 0.53454,0 0.12599,0.125992 -0.12599,0.408548 0,0.53454 0.12599,0.125992 0.40855,-0.125992 0.53454,0 0.12599,0.125992 -0.0797,0.375169 0,0.534538 0.22538,0.450763 0.8437,0.618315 1.06908,1.069078 0.0797,0.159369 -0.12599,0.408548 0,0.53454 0.12599,0.125992 0.40855,-0.125992 0.53454,0 0.12599,0.125992 -0.12599,0.408546 0,0.534538 0.12599,0.125992 0.40854,-0.125992 0.53454,0 0.25198,0.251984 -0.25199,0.817094 0,1.069078 0.12599,0.125992 0.40854,-0.125992 0.53454,0 0.12599,0.125992 -0.0797,0.375171 0,0.53454 0.0713,0.142598 0.99777,0.926481 1.06907,1.069078 0.0797,0.15937 -0.12599,0.408546 0,0.534538 0.126,0.125992 0.40855,-0.125992 0.53454,0 0.12599,0.125992 -0.0797,0.375171 0,0.534541 0.11269,0.22538 0.42185,0.309157 0.53454,0.534537 0.0797,0.159369 -0.12599,0.408549 0,0.534541 0.12599,0.125992 0.40855,-0.125992 0.53454,0 0.12599,0.125992 -0.12599,0.408545 0,0.534537 0.12599,0.125992 0.40855,-0.125992 0.53454,0 0.12599,0.125992 -0.0797,0.375172 0,0.534541 0.12377,0.247533 1.82377,1.82377 2.13816,2.138156 0.17817,0.178178 0.35636,0.356359 0.53453,0.534537 0.17818,0 0.40855,-0.125992 0.53454,0 0.126,0.125992 -0.0797,0.375172 0,0.534541 1.11231,2.224624 -0.0369,-0.571442 1.06908,0.534537 0.12599,0.125995 -0.12599,0.408549 0,0.534541 0.12599,0.125992 0.37517,-0.07968 0.53454,0 2.22462,1.112311 -0.57144,-0.0369 0.53454,1.069078 0.12599,0.125992 0.35636,0 0.53454,0 0,0.178178 -0.0797,0.375171 0,0.53454 1.11231,2.224622 -0.0369,-0.571442 1.06908,0.534538 0.12599,0.125992 -0.0797,0.375171 0,0.53454 0.22538,0.450763 0.84369,0.618313 1.06907,1.069078 0.0797,0.159367 -0.12599,0.408546 0,0.534538 0.126,0.125992 0.40855,-0.125992 0.53454,0 0.126,0.125992 -0.12599,0.408548 0,0.53454 0.126,0.125992 0.40855,-0.125992 0.53454,0 0.12599,0.125992 -0.12599,0.408546 0,0.534538 0.12599,0.125992 0.37517,-0.07968 0.53454,0 0.10232,0.05116 2.087,2.035834 2.13816,2.138156 0.0797,0.159369 -0.12599,0.408549 0,0.534541 0.12599,0.125991 0.37517,-0.07969 0.53454,0 0.45076,0.22538 0.61831,0.843695 1.06907,1.069078 0.15937,0.07968 0.40855,-0.125992 0.53454,0 0.126,0.125991 -0.12599,0.408545 0,0.534537 1.42544,0 -0.17818,-0.178178 0.53454,0.534541 0.12599,0.125992 0.37517,-0.07968 0.53454,0 0.64145,0.320722 0.96217,1.282893 1.60362,1.603615 0.15937,0.07968 0.40855,-0.125992 0.53454,0 0.12599,0.125992 -0.0797,0.375172 0,0.534541 0.11269,0.22538 0.35636,0.356359 0.53454,0.534537 0.17818,0.178181 0.30915,0.421849 0.53454,0.534541 0.15937,0.07968 0.37517,-0.07968 0.53453,0 0.22539,0.112688 0.30916,0.421846 0.53454,0.534537 0.15937,0.07969 0.40855,-0.125991 0.53454,0 0.126,0.125992 -0.12599,0.408549 0,0.534541 0.126,0.125992 0.37517,-0.07969 0.53454,0 0.45077,0.22538 0.61832,0.843695 1.06908,1.069078 0.15937,0.07968 0.37517,-0.07968 0.53454,0 0.45076,0.22538 0.61831,0.843695 1.06908,1.069078 0.15937,0.07968 0.40854,-0.125992 0.53454,0 0.12599,0.125992 -0.126,0.408546 0,0.534538 0.12599,0.125992 0.37517,-0.07968 0.53454,0 0.22538,0.112691 0.30915,0.421849 0.53453,0.53454 0.15937,0.07968 0.40855,-0.125992 0.53455,0 1.10597,1.105979 -1.69009,-0.04324 0.53453,1.069078 0.15937,0.07969 0.37517,-0.07968 0.53454,0 0.64145,0.320723 0.96217,1.282893 1.60362,1.603616 0.15937,0.07968 0.40855,-0.125992 0.53454,0 0.12599,0.125992 -0.12599,0.408548 0,0.53454 0.12599,0.125992 0.40854,-0.125992 0.53454,0 0.12599,0.125992 -0.126,0.408546 0,0.534538 0.12599,0.125992 0.40855,-0.125992 0.53454,0 0.12599,0.125992 -0.12599,0.408548 0,0.53454 0.12599,0.125992 0.40854,-0.125992 0.53453,0 0.126,0.125992 -0.12599,0.408546 0,0.534538 0.126,0.125992 0.40855,-0.125992 0.53455,0 0.12599,0.125992 -0.0797,0.375171 0,0.53454 0.22538,0.450763 0.84369,0.618316 1.06907,1.069078 0.0797,0.159369 -0.12599,0.408546 0,0.534538 0.126,0.125992 0.37517,-0.07969 0.53454,0 1.12889,0.564446 -0.0598,0.504634 1.06908,1.069078 0.15937,0.07968 0.40855,-0.125992 0.53454,0 0.12599,0.125992 -0.12599,0.408548 0,0.53454 0.12599,0.125992 0.40855,-0.125992 0.53454,0 0.12599,0.125992 -0.12599,0.408546 0,0.534538 0.12599,0.125992 0.40855,-0.125992 0.53454,0 0.12599,0.125992 -0.12599,0.408548 0,0.53454 0.12599,0.125992 0.40854,-0.125992 0.53454,0 0.12599,0.125992 -0.126,0.408546 0,0.534538 0.12599,0.125992 0.40854,-0.125992 0.53454,0 0.12599,0.125992 -0.126,0.408549 0,0.53454 0.12599,0.125992 0.40854,-0.125991 0.53453,0 0.126,0.125992 -0.12599,0.408546 0,0.534538 0.126,0.125995 0.40855,-0.125992 0.53454,0 0.126,0.125995 -0.0797,0.375171 0,0.53454 0.11269,0.225383 0.35636,0.35636 0.53454,0.534538 0.17818,0.178181 0.35636,0.35636 0.53454,0.534541"
       id="path2835"
       inkscape:connector-curvature="0" />
  </g>
</svg>
