<?xml version="1.0" encoding="UTF-8" standalone="no"?>
<!-- Created with Inkscape (http://www.inkscape.org/) -->

<svg
   xmlns:dc="http://purl.org/dc/elements/1.1/"
   xmlns:cc="http://creativecommons.org/ns#"
   xmlns:rdf="http://www.w3.org/1999/02/22-rdf-syntax-ns#"
   xmlns:svg="http://www.w3.org/2000/svg"
   xmlns="http://www.w3.org/2000/svg"
   xmlns:xlink="http://www.w3.org/1999/xlink"
   xmlns:sodipodi="http://sodipodi.sourceforge.net/DTD/sodipodi-0.dtd"
   xmlns:inkscape="http://www.inkscape.org/namespaces/inkscape"
   width="1730.6667"
   height="1184"
   viewBox="0 0 457.90558 313.26666"
   version="1.1"
   id="svg1944"
   sodipodi:docname="strelka-sportivnaya-strelka.svg"
   inkscape:version="0.92.3 (2405546, 2018-03-11)">
  <defs
     id="defs1938" />
  <sodipodi:namedview
     id="base"
     pagecolor="#ffffff"
     bordercolor="#666666"
     borderopacity="1.0"
     inkscape:pageopacity="0.0"
     inkscape:pageshadow="2"
     inkscape:zoom="0.49497475"
     inkscape:cx="802.60827"
     inkscape:cy="561.10774"
     inkscape:document-units="mm"
     inkscape:current-layer="layer1"
     showgrid="false"
     inkscape:window-width="1366"
     inkscape:window-height="715"
     inkscape:window-x="0"
     inkscape:window-y="0"
     inkscape:window-maximized="1"
     fit-margin-top="0"
     fit-margin-left="0"
     fit-margin-right="0"
     fit-margin-bottom="0"
     units="px" />
  <metadata
     id="metadata1941">
    <rdf:RDF>
      <cc:Work
         rdf:about="">
        <dc:format>image/svg+xml</dc:format>
        <dc:type
           rdf:resource="http://purl.org/dc/dcmitype/StillImage" />
        <dc:title></dc:title>
      </cc:Work>
    </rdf:RDF>
  </metadata>
  <g
     inkscape:label="Layer 1"
     inkscape:groupmode="layer"
     id="layer1"
     transform="translate(-5.5613631e-4,0.00661361)">
    <image
       sodipodi:absref="/home/aanper/project/luysy-imn-eh/pi/boot/bydefault/web/img/strelka.png"
       y="-0.006613608"
       x="0.00055613631"
       id="image2667"
       xlink:href="file:///home/aanper/project/luysy-imn-eh/pi/boot/bydefault/web/img/strelka.png"
       preserveAspectRatio="none"
       height="313.26666"
       width="457.90558"
       style="fill:none" />
    <ellipse
       style="fill:#00ff00;fill-opacity:1;stroke:#00ff00;stroke-width:0.30000001;stroke-miterlimit:4;stroke-dasharray:none;stroke-opacity:1;paint-order:stroke fill markers"
       id="path2670"
       cx="169.90086"
       cy="79.670769"
       rx="3.2127976"
       ry="3.0238097" />
    <circle
       style="fill:#00ff00;fill-opacity:1;stroke:#00ff00;stroke-width:0.30000001;stroke-miterlimit:4;stroke-dasharray:none;stroke-opacity:1;paint-order:stroke fill markers"
       id="path2672"
       cx="420.87701"
       cy="29.210947"
       r="2.4568453" />
    <ellipse
       style="fill:#00ff00;fill-opacity:1;stroke:#00ff00;stroke-width:0.30000001;stroke-miterlimit:4;stroke-dasharray:none;stroke-opacity:1;paint-order:stroke fill markers"
       id="path2674"
       cx="381.7565"
       cy="308.15735"
       rx="3.4017856"
       ry="2.8348215" />
    <circle
       style="fill:#00ff00;fill-opacity:1;stroke:#00ff00;stroke-width:0.30000001;stroke-miterlimit:4;stroke-dasharray:none;stroke-opacity:1;paint-order:stroke fill markers"
       id="path2676"
       cx="79.753525"
       cy="248.62613"
       r="2.2678571" />
    <ellipse
       style="fill:#00ff00;fill-opacity:1;stroke:#00ff00;stroke-width:0.30000001;stroke-miterlimit:4;stroke-dasharray:none;stroke-opacity:1;paint-order:stroke fill markers"
       id="path2678"
       cx="216.7699"
       cy="220.65588"
       rx="1.7008928"
       ry="1.5119048" />
    <circle
       style="fill:#00ff00;fill-opacity:1;stroke:#00ff00;stroke-width:0.30000001;stroke-miterlimit:4;stroke-dasharray:none;stroke-opacity:1;paint-order:stroke fill markers"
       id="path2680"
       cx="316.93359"
       cy="230.67224"
       r="1.7008928" />
    <path
       style="fill:none;fill-opacity:1;stroke:#00ff00;stroke-width:0.30000001;stroke-miterlimit:4;stroke-dasharray:none;stroke-opacity:1;paint-order:stroke fill markers"
       d="m 170.51851,82.33918 c 0,1.069078 0,2.138156 0,3.207234 0,0.178181 -0.0797,0.375171 0,0.53454 0.32073,0.641446 1.2829,0.962171 1.60362,1.603616 0.0797,0.159369 -0.12599,0.408549 0,0.534541 0.12599,0.125991 0.40855,-0.125992 0.53454,0 0.12599,0.125991 -0.0797,0.375168 0,0.534537 0.11269,0.225383 0.42185,0.309158 0.53454,0.534541 0.0797,0.159369 -0.12599,0.408545 0,0.534537 0.12599,0.125992 0.40854,-0.125992 0.53454,0 0.12599,0.125992 -0.126,0.408549 0,0.534541 0.25198,0.251983 0.81709,-0.251984 1.06907,0 0.126,0.125992 -0.12599,0.408545 0,0.534537 0.126,0.125992 0.40855,-0.125992 0.53454,0 0.126,0.125992 -0.12599,0.408549 0,0.534541 0.25199,0.251984 0.75034,-0.159369 1.06908,0 0.22538,0.112691 0.30916,0.421849 0.53454,0.534537 0.31874,0.15937 0.75034,-0.159369 1.06908,0 0.22538,0.112692 0.30916,0.421849 0.53454,0.534541 0.31874,0.159369 0.75034,-0.159369 1.06908,0 0.22538,0.112691 0.30915,0.421849 0.53454,0.534537 0.21194,0.105971 1.49433,-0.109278 1.60361,0 0.12599,0.125992 -0.12599,0.408549 0,0.534541 0.26727,0.267269 1.33635,-0.267269 1.60362,0 0.12599,0.125992 -0.12599,0.408546 0,0.534537 0.12599,0.125992 0.40855,-0.125991 0.53454,0 1.10598,1.105983 -1.69009,-0.04323 0.53454,1.069079 0.15937,0.07968 0.40854,-0.125992 0.53454,0 0.12599,0.125991 -0.126,0.408548 0,0.53454 0.25198,0.251984 0.75034,-0.159369 1.06907,0 0.22539,0.112691 0.30916,0.421849 0.53454,0.534538 0.15937,0.07968 0.37517,-0.07968 0.53454,0 0.22539,0.112691 0.30916,0.421849 0.53454,0.53454 0.15937,0.07968 0.37517,-0.07969 0.53454,0 0.22538,0.112691 0.30916,0.421849 0.53454,0.534538 0.15937,0.07968 0.37517,-0.07968 0.53454,0 0.22538,0.112691 0.30916,0.421849 0.53454,0.53454 0.15937,0.07968 0.37517,-0.07968 0.53454,0 0.22538,0.112691 0.30915,0.421849 0.53454,0.534538 0.15937,0.07968 0.37517,-0.07968 0.53453,0 0.22539,0.112691 0.30916,0.421849 0.53455,0.53454 0.15936,0.07968 0.40854,-0.125992 0.53453,0 0.12599,0.125992 -0.12599,0.408546 0,0.534538 0.25199,0.251986 0.8171,-0.251984 1.06908,0 0.12599,0.125992 -0.12599,0.408548 0,0.53454 0.25198,0.251981 0.8171,-0.251984 1.06908,0 0.12599,0.125991 -0.12599,0.408541 0,0.534541 0.25198,0.25198 0.75034,-0.15937 1.06908,0 0.22538,0.11269 0.30915,0.42185 0.53454,0.53454 0.15937,0.0797 0.37517,-0.0797 0.53454,0 0.22538,0.11269 0.30915,0.42185 0.53454,0.53453 0.15936,0.0797 0.37516,-0.0797 0.53453,0 0.22539,0.1127 0.30916,0.42185 0.53454,0.53455 0.15937,0.0797 0.37517,-0.0797 0.53454,0 0.22538,0.11269 0.30916,0.42184 0.53454,0.53453 0.31874,0.15937 0.75034,-0.15936 1.06908,0 0.22538,0.11269 0.30916,0.42185 0.53454,0.53454 0.15937,0.0797 0.40855,-0.12599 0.53454,0 0.12599,0.126 -0.12599,0.40855 0,0.53454 0.12599,0.126 0.37517,-0.0797 0.53454,0 0.22538,0.11269 0.30915,0.42185 0.53454,0.53454 0.15936,0.0797 0.37517,-0.0797 0.53453,0 0.22539,0.11269 0.30916,0.42185 0.53454,0.53454 0.15937,0.0797 0.37517,-0.0797 0.53454,0 0.45077,0.22538 0.61832,0.8437 1.06908,1.06908 0.15937,0.0797 0.40855,-0.12599 0.53454,0 0.12599,0.12599 -0.12599,0.40855 0,0.53454 0.12599,0.12599 0.37517,-0.0797 0.53454,0 0.22538,0.11269 0.30916,0.42185 0.53454,0.53454 0.15937,0.0797 0.40854,-0.126 0.53454,0 0.12599,0.12599 -0.126,0.40854 0,0.53454 0.12599,0.12599 0.37517,-0.0797 0.53454,0 0.45076,0.22538 0.61831,0.84369 1.06907,1.06907 0.15937,0.0797 0.40855,-0.12599 0.53454,0 0.126,0.126 -0.12599,0.40855 0,0.53454 0.126,0.126 0.37517,-0.0797 0.53454,0 0.22538,0.11269 0.30916,0.42185 0.53454,0.53454 0.15937,0.0797 0.40855,-0.12599 0.53454,0 0.12599,0.12599 -0.12599,0.40855 0,0.53454 0.12599,0.12599 0.37517,-0.0797 0.53454,0 0.22538,0.11269 0.30916,0.42185 0.53454,0.53454 0.15937,0.0797 0.37517,-0.0797 0.53454,0 0.22538,0.11269 0.30916,0.42185 0.53454,0.53454 0.15937,0.0797 0.37517,-0.0797 0.53454,0 2.22462,1.11231 -0.57145,-0.0369 0.53453,1.06908 0.126,0.12599 0.37518,-0.0797 0.53454,0 0.45077,0.22538 0.61832,0.84369 1.06908,1.06908 0.15937,0.0797 0.37517,-0.0797 0.53454,0 0.22538,0.11268 0.35636,0.35636 0.53454,0.53453 0.71272,0.71272 1.42544,1.42544 2.13816,2.13816 0.17818,0.17818 0.35636,0.35636 0.53453,0.53454 0.17819,0.17818 0.30916,0.42185 0.53454,0.53454 0.15937,0.0797 0.37517,-0.0797 0.53454,0 0.45077,0.22538 0.61832,0.8437 1.06908,1.06908 0.15937,0.0797 0.37517,-0.0797 0.53454,0 2.22462,1.11231 -0.57144,-0.0369 0.53454,1.06907 0.12599,0.126 0.40855,-0.12599 0.53454,0 0.12599,0.126 -0.12599,0.40855 0,0.53454 0.12599,0.126 0.37517,-0.0797 0.53454,0 0.22538,0.1127 0.30915,0.42185 0.53454,0.53454 0.15937,0.0797 0.40854,-0.12599 0.53453,0 0.126,0.12599 -0.12599,0.40855 0,0.53454 0.126,0.12599 0.40855,-0.12599 0.53455,0 0.12599,0.12599 -0.126,0.40855 0,0.53454 0.25198,0.25198 0.81709,-0.25198 1.06907,0 0.126,0.12599 -0.12599,0.40855 0,0.53454 0.126,0.12599 0.37517,-0.0797 0.53454,0 0.45076,0.22538 0.61832,0.8437 1.06908,1.06908 0.15937,0.0797 0.40855,-0.12599 0.53454,0 0.12599,0.12599 -0.12599,0.40854 0,0.53454 0.12599,0.12599 0.37517,-0.0797 0.53454,0 0.22538,0.11269 0.30915,0.42185 0.53454,0.53454 0.15937,0.0797 0.37517,-0.0797 0.53453,0 0.45077,0.22538 0.61832,0.84369 1.06908,1.06907 0.15937,0.0797 0.40855,-0.12599 0.53454,0 0.126,0.126 -0.12599,0.40855 0,0.53454 0.25199,0.25199 0.8171,-0.25198 1.06908,0 0.12599,0.12599 -0.12599,0.40855 0,0.53454 0.12599,0.12599 0.37517,-0.0797 0.53454,0 0.22538,0.11269 0.30916,0.42185 0.53454,0.53454 0.15937,0.0797 0.37517,-0.0797 0.53454,0 0.22538,0.11269 0.30915,0.42185 0.53454,0.53454 0.15937,0.0797 0.40854,-0.12599 0.53454,0 0.12599,0.12599 -0.126,0.40855 0,0.53454 0.25198,0.25198 0.81709,-0.25199 1.06907,0 0.126,0.12599 -0.12599,0.40855 0,0.53454 0.25199,0.25198 0.8171,-0.25199 1.06908,0 0.126,0.12599 -0.12599,0.40854 0,0.53454 0.126,0.12599 0.37517,-0.0797 0.53454,0 0.22538,0.11269 0.30916,0.42185 0.53454,0.53454 0.31874,0.15937 0.81709,-0.25199 1.06908,0 0.12599,0.12599 -0.12599,0.40854 0,0.53453 0.12599,0.126 0.37517,-0.0797 0.53454,0 0.22538,0.1127 0.30916,0.42185 0.53454,0.53454 0.31873,0.15937 0.75034,-0.15936 1.06908,0 0.22538,0.1127 0.30915,0.42185 0.53453,0.53454 0.31874,0.15937 0.75034,-0.15936 1.06908,0 0.22538,0.11269 0.30916,0.42185 0.53454,0.53454 0.31874,0.15937 0.75034,-0.15937 1.06908,0 0.22538,0.11269 0.30916,0.42185 0.53454,0.53454 0.31874,0.15937 0.75034,-0.15937 1.06908,0 0.22538,0.11269 0.30915,0.42185 0.53454,0.53454 0.31873,0.15937 0.75034,-0.15937 1.06907,0 0.22538,0.11269 0.30916,0.42185 0.53454,0.53454 0.42763,0.21382 1.17599,-0.21382 1.60362,0 0.22538,0.11269 0.30916,0.42185 0.53454,0.53454 0.15937,0.0797 0.37517,-0.0797 0.53454,0 0.22538,0.11269 0.30916,0.42185 0.53454,0.53454 0.31873,0.15937 0.75034,-0.15937 1.06907,0 0.22539,0.11269 0.30916,0.42185 0.53454,0.53454 0.15937,0.0797 0.37517,-0.0797 0.53454,0 0.22539,0.11269 0.30916,0.42185 0.53454,0.53454 0.31874,0.15936 0.75034,-0.15937 1.06908,0 0.22538,0.11269 0.30916,0.42184 0.53454,0.53454 0.31874,0.15936 0.81709,-0.25199 1.06908,0 0,1.42543 -0.17818,-0.17818 0.53454,0.53454 0.12599,0.12599 -0.126,0.40854 0,0.53453 0.12599,0.126 0.37517,-0.0797 0.53453,0 0.22539,0.11269 0.30916,0.42185 0.53454,0.53454 0.15937,0.0797 0.40855,-0.12599 0.53454,0 0.12599,0.126 -0.12599,0.40855 0,0.53454 0.12599,0.12599 0.40855,-0.12599 0.53454,0 0.12599,0.12599 -0.12599,0.40855 0,0.53454 0.12599,0.12599 0.37517,-0.0797 0.53454,0 0.45076,0.22538 0.61832,0.8437 1.06908,1.06908 0.15937,0.0797 0.37517,-0.0797 0.53454,0 0.22538,0.11269 0.30916,0.42185 0.53454,0.53454 0.15937,0.0797 0.40855,-0.12599 0.53454,0 0.12599,0.12599 -0.12599,0.40855 0,0.53454 0.25198,0.25198 0.81709,-0.25199 1.06907,0 0.12599,0.12599 -0.12599,0.40854 0,0.53454 0.12599,0.12599 0.37518,-0.0797 0.53454,0 0.2254,0.11269 0.30916,0.42184 0.53454,0.53454 0.15938,0.0797 0.40854,-0.126 0.53453,0 0.126,0.12599 -0.12599,0.40854 0,0.53453 0.126,0.126 0.40855,-0.12599 0.53454,0 0.126,0.126 -0.12599,0.40855 0,0.53454 0.126,0.126 0.40857,-0.12599 0.53454,0 1.10598,1.10598 -1.69008,-0.0432 0.53454,1.06908 0.15938,0.0797 0.40857,-0.12599 0.53456,0 0.12597,0.12599 -0.0797,0.37517 0,0.53454 0.11269,0.22538 0.35634,0.35636 0.53454,0.53454 0.17817,0.17818 0.30914,0.42185 0.53454,0.53454 0.15935,0.0797 0.40854,-0.12599 0.53453,0 0.126,0.12599 -0.0797,0.37517 0,0.53454 0.071,0.14192 1.46169,1.53265 1.60362,1.60361 1.42544,0 -0.17817,-0.17817 0.53453,0.53454 0.126,0.126 0.40855,-0.12599 0.53454,0 0.126,0.126 -0.12599,0.40855 0,0.53454 0.126,0.12599 0.40854,-0.12599 0.53454,0 0.12599,0.12599 -0.126,0.40855 0,0.53454 0.12599,0.12599 0.40854,-0.12599 0.53454,0 0.12599,0.12599 -0.126,0.40855 0,0.53454 0.12599,0.12599 0.40854,-0.12599 0.53453,0 0.126,0.12599 -0.12599,0.40855 0,0.53454 0.126,0.12599 0.35637,0 0.53454,0 0,0.17818 -0.12599,0.40855 0,0.53454 0.126,0.12599 0.40855,-0.12599 0.53454,0 0.12599,0.12599 -0.12599,0.40855 0,0.53454 0.12599,0.12599 0.40854,-0.12599 0.53454,0 0.12599,0.12599 -0.0797,0.37517 0,0.53454 0.071,0.14192 1.46169,1.53265 1.60361,1.60361 1.42544,0 -0.17817,-0.17818 0.53454,0.53454 0.12599,0.12599 0.40857,-0.12599 0.53456,0 0.12597,0.12599 -0.12599,0.40855 0,0.53454 0.12597,0.12599 0.40855,-0.12599 0.53454,0 0.12597,0.12599 -0.12599,0.40855 0,0.53454 0.12597,0.12599 0.40854,-0.12599 0.53454,0 0.25196,0.25198 -0.25199,0.81709 0,1.06908 0.12599,0.12599 0.40854,-0.12599 0.53454,0 0.12599,0.12599 -0.0797,0.37517 0,0.53454 0.11268,0.22538 0.42185,0.30916 0.53453,0.53454 0.0797,0.15937 -0.0797,0.37517 0,0.53454 0.22538,0.45076 0.84368,0.61831 1.06908,1.06907 0.0797,0.15937 -0.0797,0.37518 0,0.53454 0.11269,0.22538 0.42185,0.30916 0.53454,0.53454 0.0797,0.15937 -0.0797,0.37517 0,0.53454 0.11268,0.22538 0.42185,0.30916 0.53453,0.53454 0.0797,0.15937 -0.0797,0.37517 0,0.53454 0.11269,0.22538 0.42186,0.30916 0.53454,0.53454 0.15936,0.31874 -0.15936,0.75034 0,1.06908 0.11269,0.22538 0.42185,0.30915 0.53454,0.53453 0.15936,0.31874 -0.15936,0.75035 0,1.06909 0.11269,0.22538 0.42185,0.30915 0.53454,0.53453 0.21381,0.42763 -0.21381,1.17599 0,1.60362 0.11268,0.22538 0.42185,0.30916 0.53454,0.53454 0.0813,0.16268 0,1.36288 0,1.60362 0,1.06908 0,2.13815 0,3.20723 0,0.17818 0,0.35636 0,0.53454 0,0.17818 -0.0797,0.37517 0,0.53454 0.11268,0.22538 0.53453,0.28255 0.53453,0.53454 0,0.25198 -0.42185,0.30915 -0.53453,0.53454 -0.0797,0.15937 0,0.35636 0,0.53454 0,0.17818 0,0.35635 0,0.53454 0,0.89089 0,1.78179 0,2.67269 0,0.17818 0.0797,0.37517 0,0.53454 -0.11269,0.22538 -0.42186,0.30916 -0.53454,0.53454 -0.16862,0.33722 0.16862,2.33547 0,2.67269 -0.11269,0.22538 -0.42185,0.30916 -0.53454,0.53454 -0.0797,0.15937 0,0.35636 0,0.53454 0,0.37888 0.0691,3.06903 0,3.20724 -0.11269,0.22538 -0.42185,0.30915 -0.53454,0.53453 -0.0966,0.19331 0,2.30091 0,2.6727 0,1.24726 0,2.49452 0,3.74177 0,0.17818 -0.12599,0.40855 0,0.53454 0.126,0.12599 0.40855,-0.12599 0.53454,0 0.14626,0.14626 -0.14499,1.84818 0,2.13816 0.11269,0.22538 0.42185,0.30916 0.53454,0.53454 0.014,0.028 0.014,1.57565 0,1.60361 -0.11269,0.22539 -0.42185,0.30916 -0.53454,0.53454 -0.0813,0.16268 0,1.36289 0,1.60362 0,1.24726 0,2.49452 0,3.74178 0,0.12963 -0.0172,1.58642 0,1.60361 0.12599,0.12599 0.35637,0 0.53454,0 0,0.17818 -0.126,0.40855 0,0.53454 0.12599,0.12599 0.40854,-0.12599 0.53454,0 0.12599,0.12599 -0.126,0.40855 0,0.53454 0.12599,0.12599 0.40854,-0.12599 0.53453,0 0.126,0.12599 -0.12599,0.40855 0,0.53454 0.126,0.12599 0.35637,0 0.53454,0 0,0.17818 -0.12599,0.40855 0,0.53454 0.126,0.12599 0.37518,-0.0797 0.53454,0 0.14192,0.071 1.53265,1.46169 1.60361,1.60362 0.0797,0.15936 -0.12597,0.40854 0,0.53453 0.126,0.12599 0.40857,-0.12599 0.53454,0 0.12599,0.12599 -0.12597,0.40855 0,0.53454 0.12599,0.126 0.40857,-0.12599 0.53456,0 0.12597,0.126 -0.0797,0.37517 0,0.53454 0.11269,0.22538 0.42183,0.30916 0.53454,0.53454 0.0797,0.15937 0,0.35636 0,0.53454 0.17817,0.17818 0.42183,0.30916 0.53454,0.53454 0.0797,0.15937 -0.126,0.40855 0,0.53454 0.12599,0.12599 0.40854,-0.12599 0.53454,0 0.25196,0.25198 -0.25199,0.81709 0,1.06908 0.12599,0.12599 0.40854,-0.126 0.53453,0 0.25199,0.25198 -0.25198,0.81709 0,1.06907 0.126,0.126 0.40855,-0.12599 0.53454,0 0.126,0.126 -0.0797,0.37517 0,0.53454 0.11269,0.22538 0.42185,0.30916 0.53454,0.53454 0.0797,0.15937 -0.12599,0.40855 0,0.53454 0.12599,0.12599 0.40854,-0.12599 0.53454,0 0.12599,0.12599 -0.0797,0.37517 0,0.53454 0.11268,0.22538 0.42185,0.30916 0.53454,0.53454 0.0797,0.15937 -0.126,0.40855 0,0.53454 0.12599,0.12599 0.40854,-0.12599 0.53453,0 0.126,0.12599 -0.12599,0.40855 0,0.53454 0.126,0.12599 0.40855,-0.12599 0.53454,0 0.126,0.12599 -0.12599,0.40854 0,0.53454 0.126,0.12599 0.37518,-0.0797 0.53454,0 0.22537,0.11269 0.30916,0.42184 0.53454,0.53454 0.31874,0.15936 0.81708,-0.25199 1.06907,0 0.126,0.12599 -0.12599,0.40854 0,0.53453 0.25199,0.25199 0.75036,-0.15936 1.06908,0 0.2254,0.11269 0.30916,0.42185 0.53453,0.53454 0.15939,0.0797 0.37518,-0.0797 0.53454,0 0.2254,0.1127 0.30917,0.42185 0.53457,0.53454 0.31871,0.15937 0.75033,-0.15936 1.06907,0 0.45075,0.22538 0.61831,0.8437 1.06908,1.06908 0.15936,0.0797 0.40854,-0.12599 0.53453,0 0.126,0.12599 -0.12599,0.40855 0,0.53454 0.126,0.12599 0.37516,-0.0797 0.53454,0 0.22537,0.11269 0.35637,0.35636 0.53454,0.53454 0.17817,0.17818 0.42185,0.30916 0.53454,0.53454 0.0797,0.15937 -0.126,0.40854 0,0.53454 0.12599,0.12599 0.40854,-0.126 0.53454,0 0.12599,0.12599 -0.126,0.40854 0,0.53454 0.12599,0.12599 0.37517,-0.0797 0.53453,0 0.22538,0.11269 0.30917,0.42185 0.53454,0.53454 0.15936,0.0797 0.35637,0 0.53454,0 0.17817,0 0.35637,0 0.53454,0 0.8909,0 1.78181,0 2.67268,0 0.1782,0 0.35637,0 0.53454,0 0.1782,0 0.40857,-0.126 0.53457,0 0.12596,0.12599 -0.126,0.40854 0,0.53453 0.10927,0.10928 1.39165,-0.10597 1.60361,0 0.22537,0.1127 0.30914,0.42185 0.53454,0.53454 0.21193,0.10597 1.49434,-0.10928 1.60361,0 0.126,0.126 -0.12599,0.40855 0,0.53454 0.0214,0.0215 1.94186,0 2.13815,0 0.17817,0 0.40854,0.12599 0.53454,0 0.12599,-0.12599 0,-0.35636 0,-0.53454 0,-0.17818 0,-0.35635 0,-0.53454"
       id="path2934"
       inkscape:connector-curvature="0" />
  </g>
</svg>
