<?xml version="1.0" encoding="UTF-8" standalone="no"?>
<!-- Created with Inkscape (http://www.inkscape.org/) -->

<svg
   xmlns:dc="http://purl.org/dc/elements/1.1/"
   xmlns:cc="http://creativecommons.org/ns#"
   xmlns:rdf="http://www.w3.org/1999/02/22-rdf-syntax-ns#"
   xmlns:svg="http://www.w3.org/2000/svg"
   xmlns="http://www.w3.org/2000/svg"
   xmlns:xlink="http://www.w3.org/1999/xlink"
   xmlns:sodipodi="http://sodipodi.sourceforge.net/DTD/sodipodi-0.dtd"
   xmlns:inkscape="http://www.inkscape.org/namespaces/inkscape"
   width="1730.6667"
   height="1184"
   viewBox="0 0 457.90558 313.26666"
   version="1.1"
   id="svg1944"
   sodipodi:docname="strelka-gorkovskaya-petrogradka-ext.svg"
   inkscape:version="0.92.3 (2405546, 2018-03-11)">
  <defs
     id="defs1938" />
  <sodipodi:namedview
     id="base"
     pagecolor="#ffffff"
     bordercolor="#666666"
     borderopacity="1.0"
     inkscape:pageopacity="0.0"
     inkscape:pageshadow="2"
     inkscape:zoom="0.49497475"
     inkscape:cx="802.60827"
     inkscape:cy="722.73215"
     inkscape:document-units="mm"
     inkscape:current-layer="layer1"
     showgrid="false"
     inkscape:window-width="1366"
     inkscape:window-height="715"
     inkscape:window-x="0"
     inkscape:window-y="0"
     inkscape:window-maximized="1"
     fit-margin-top="0"
     fit-margin-left="0"
     fit-margin-right="0"
     fit-margin-bottom="0"
     units="px" />
  <metadata
     id="metadata1941">
    <rdf:RDF>
      <cc:Work
         rdf:about="">
        <dc:format>image/svg+xml</dc:format>
        <dc:type
           rdf:resource="http://purl.org/dc/dcmitype/StillImage" />
        <dc:title></dc:title>
      </cc:Work>
    </rdf:RDF>
  </metadata>
  <g
     inkscape:label="Layer 1"
     inkscape:groupmode="layer"
     id="layer1"
     transform="translate(-5.5613631e-4,0.00661361)">
    <image
       sodipodi:absref="/home/aanper/project/luysy-imn-eh/pi/boot/bydefault/web/img/strelka.png"
       y="-0.006613608"
       x="0.00055613631"
       id="image2667"
       xlink:href="file:///home/aanper/project/luysy-imn-eh/pi/boot/bydefault/web/img/strelka.png"
       preserveAspectRatio="none"
       height="313.26666"
       width="457.90558"
       style="fill:none" />
    <ellipse
       style="fill:#00ff00;fill-opacity:1;stroke:#00ff00;stroke-width:0.30000001;stroke-miterlimit:4;stroke-dasharray:none;stroke-opacity:1;paint-order:stroke fill markers"
       id="path2670"
       cx="169.90086"
       cy="79.670769"
       rx="3.2127976"
       ry="3.0238097" />
    <circle
       style="fill:#00ff00;fill-opacity:1;stroke:#00ff00;stroke-width:0.30000001;stroke-miterlimit:4;stroke-dasharray:none;stroke-opacity:1;paint-order:stroke fill markers"
       id="path2672"
       cx="420.87701"
       cy="29.210947"
       r="2.4568453" />
    <ellipse
       style="fill:#00ff00;fill-opacity:1;stroke:#00ff00;stroke-width:0.30000001;stroke-miterlimit:4;stroke-dasharray:none;stroke-opacity:1;paint-order:stroke fill markers"
       id="path2674"
       cx="381.7565"
       cy="308.15735"
       rx="3.4017856"
       ry="2.8348215" />
    <circle
       style="fill:#00ff00;fill-opacity:1;stroke:#00ff00;stroke-width:0.30000001;stroke-miterlimit:4;stroke-dasharray:none;stroke-opacity:1;paint-order:stroke fill markers"
       id="path2676"
       cx="79.753525"
       cy="248.62613"
       r="2.2678571" />
    <ellipse
       style="fill:#00ff00;fill-opacity:1;stroke:#00ff00;stroke-width:0.30000001;stroke-miterlimit:4;stroke-dasharray:none;stroke-opacity:1;paint-order:stroke fill markers"
       id="path2678"
       cx="216.7699"
       cy="220.65588"
       rx="1.7008928"
       ry="1.5119048" />
    <circle
       style="fill:#00ff00;fill-opacity:1;stroke:#00ff00;stroke-width:0.30000001;stroke-miterlimit:4;stroke-dasharray:none;stroke-opacity:1;paint-order:stroke fill markers"
       id="path2680"
       cx="316.93359"
       cy="230.67224"
       r="1.7008928" />
    <path
       style="fill:none;fill-opacity:1;stroke:#00ff00;stroke-width:0.30000001;stroke-miterlimit:4;stroke-dasharray:none;stroke-opacity:1;paint-order:stroke fill markers"
       d="m 171.05305,79.666486 c 1.14876,2.297523 1.06908,1.341311 1.06908,2.672694 0,0.178181 -0.12599,0.408548 0,0.53454 0.12599,0.125992 0.40855,-0.125992 0.53454,0 0.25198,0.251984 -0.25199,0.817094 0,1.069078 0.12599,0.125992 0.40855,-0.125992 0.53454,0 0.25198,0.251984 -0.25199,0.817095 0,1.069078 0.12599,0.125992 0.40854,-0.125992 0.53454,0 0.12599,0.125992 -0.0797,0.375169 0,0.534538 0.11269,0.225383 0.42184,0.309158 0.53454,0.53454 0.0797,0.15937 -0.0797,0.375169 0,0.534538 0.22538,0.450763 0.84369,0.618315 1.06907,1.069078 0.0797,0.159369 -0.0797,0.375171 0,0.534541 1.11232,2.224621 -0.0369,-0.571442 1.06908,0.534537 0.12599,0.125992 -0.12599,0.408549 0,0.534541 0.0172,0.0172 1.47398,0 1.60362,0 0.17818,0 0.37517,-0.07968 0.53454,0 0.13917,0.06958 0.65121,0.952402 1.06908,0.534537 0.12599,-0.125992 -0.126,-0.408545 0,-0.534537 0.26727,-0.267272 1.33634,0.267268 1.60361,0 0.126,-0.125992 -0.12599,-0.408549 0,-0.534541 0.126,-0.125992 0.37517,0.07968 0.53454,0 0.14193,-0.07096 1.53266,-1.46169 1.60362,-1.603616 0.0797,-0.159369 -0.12599,-0.408548 0,-0.53454 0.12599,-0.125992 0.40855,0.125992 0.53454,0 0.12599,-0.125992 -0.12599,-0.408546 0,-0.534538 0.12599,-0.125992 0.40855,0.125992 0.53454,0 0.12599,-0.125992 -0.0797,-0.375171 0,-0.53454 0.22538,-0.450763 0.84369,-0.618315 1.06908,-1.069078 0.0797,-0.159369 -0.0797,-0.375169 0,-0.534538 0.32072,-0.641448 1.28289,-0.96217 1.60361,-1.603618 0.0797,-0.159369 -0.0797,-0.375171 0,-0.534538 0.11269,-0.225382 0.42185,-0.309157 0.53454,-0.53454 0.0797,-0.159369 -0.0797,-0.375171 0,-0.534538 0.11269,-0.225382 0.42185,-0.309157 0.53454,-0.53454 0.0797,-0.159369 -0.0797,-0.375171 0,-0.534538 0.11269,-0.225383 0.42185,-0.309158 0.53454,-0.53454 0.0797,-0.159369 -0.0797,-0.375171 0,-0.534538 0.11269,-0.225383 0.42185,-0.309158 0.53454,-0.53454 0.0797,-0.159369 -0.0797,-0.375171 0,-0.534538 0.11269,-0.225383 0.42185,-0.309158 0.53454,-0.53454 0.0797,-0.159369 -0.0797,-0.375172 0,-0.534538 0.11269,-0.225383 0.42185,-0.309158 0.53454,-0.53454 0.0797,-0.159369 -0.126,-0.408546 0,-0.534538 0.12599,-0.125995 0.40855,0.125992 0.53454,0 0.12599,-0.125995 -0.0797,-0.375171 0,-0.53454 0.11269,-0.225383 0.42184,-0.309158 0.53453,-0.534541 0.0797,-0.159366 -0.12599,-0.408546 0,-0.534537 0.126,-0.125992 0.40855,0.125991 0.53455,0 0.12599,-0.125992 -0.0797,-0.375172 0,-0.534541 0.263,-0.525999 1.87515,-1.612154 2.13815,-2.138156 0.0797,-0.159366 -0.12599,-0.408546 0,-0.534538 0.12599,-0.125992 0.40855,0.125992 0.53454,0 0.12599,-0.125992 -0.12599,-0.408548 0,-0.53454 0.12599,-0.125992 0.40855,0.125992 0.53454,0 0.12599,-0.125992 -0.12599,-0.408546 0,-0.534538 0.12599,-0.125992 0.35636,0 0.53454,0 0,-0.178181 -0.0797,-0.375171 0,-0.53454 0.11269,-0.22538 0.35636,-0.356359 0.53454,-0.534538 0.17818,-0.178181 0.30916,-0.421849 0.53454,-0.53454 0.15936,-0.07969 0.40854,0.125992 0.53454,0 0.12599,-0.125992 -0.0797,-0.375169 0,-0.534538 0.32072,-0.641448 1.28289,-0.96217 1.60361,-1.603618 0.0797,-0.159369 -0.0797,-0.375169 0,-0.534538 0.11269,-0.225383 0.42185,-0.309158 0.53454,-0.53454 0.0797,-0.159369 -0.12599,-0.408546 0,-0.534538 0.12599,-0.125992 0.40855,0.125992 0.53454,0 0.12599,-0.125992 -0.0797,-0.375171 0,-0.53454 0.22538,-0.450763 0.8437,-0.618316 1.06908,-1.069078 0.0797,-0.159369 -0.12599,-0.408546 0,-0.534538 0.12599,-0.125992 0.40855,0.125992 0.53454,0 0.12599,-0.125992 -0.0797,-0.375171 0,-0.53454 0.22538,-0.450763 0.84369,-0.618316 1.06908,-1.069078 0.0797,-0.15937 -0.126,-0.408546 0,-0.534538 0.12599,-0.125992 0.40854,0.125992 0.53453,0 0.126,-0.125992 -0.0797,-0.375171 0,-0.53454 0.22539,-0.450763 0.8437,-0.618316 1.06908,-1.069078 0.0797,-0.15937 -0.12599,-0.408546 0,-0.534538 0.12599,-0.125992 0.37517,0.07968 0.53454,0 0.28549,-0.142746 1.3222,-1.322202 1.60362,-1.603619 0.28141,-0.281416 1.46087,-1.318127 1.60362,-1.603615 0.0797,-0.159369 -0.126,-0.408549 0,-0.534541 0.12599,-0.125992 0.37517,0.07969 0.53453,0 0.22539,-0.112691 0.35637,-0.356359 0.53454,-0.534537 0.71272,-0.712719 1.42544,-1.425438 2.13816,-2.138156 0.17818,-0.178181 0.35636,-0.35636 0.53454,-0.534541 0.17818,-0.178178 0.30916,-0.421849 0.53454,-0.534538 0.15937,-0.07968 0.40855,0.125992 0.53454,0 0.12599,-0.125991 -0.0797,-0.375171 0,-0.53454 0.49204,-0.984094 1.11157,-0.08498 1.60361,-1.069078 0.0797,-0.159369 -0.12599,-0.408546 0,-0.534538 1.10598,-1.105982 -0.0432,1.690085 1.06908,-0.53454 0.0797,-0.159369 -0.12599,-0.408546 0,-0.534538 0.12599,-0.125994 0.37517,0.07968 0.53454,0 0.22538,-0.112691 0.35636,-0.356359 0.53454,-0.53454 0.17818,-0.178178 0.42185,-0.309158 0.53454,-0.534538 0.36866,-0.737322 -0.64736,-0.478131 0.53454,-1.069078 0.15937,-0.07968 0.37517,0.07968 0.53454,0 1.18189,-0.590949 0.16588,-0.331758 0.53454,-1.06908 0.11269,-0.22538 0.35636,-0.35636 0.53454,-0.534538 0.17818,-0.178181 0.30915,-0.421849 0.53453,-0.534541 0.15937,-0.07968 0.40855,0.125995 0.53454,0 0.126,-0.125991 -0.0797,-0.375168 0,-0.534537 0.26301,-0.526002 1.87516,-1.612154 2.13816,-2.138156 0.0797,-0.159369 -0.0797,-0.375172 0,-0.534541 0.17024,-0.340484 2.25267,-2.25267 2.67269,-2.672693 0.17819,-0.178181 0.42185,-0.309158 0.53455,-0.534541 0.0797,-0.159369 -0.126,-0.408546 0,-0.534538 1.10597,-1.105979 -0.0432,1.690085 1.06907,-0.53454 0.36866,-0.73732 -0.64735,-0.478128 0.53454,-1.069078 1.42544,0 -0.17818,0.178181 0.53454,-0.534538 0.12599,-0.125992 0.40855,0.125992 0.53454,0 1.10598,-1.105982 -1.69009,0.04323 0.53454,-1.069078 0.15937,-0.07968 0.40854,0.125992 0.53454,0 0.12599,-0.125992 -0.0797,-0.375171 0,-0.53454 0.22538,-0.450763 0.84369,-0.618315 1.06907,-1.069078 0.0797,-0.159369 -0.12599,-0.408546 0,-0.534538 0.126,-0.125992 0.40855,0.125992 0.53455,0 0.12599,-0.125992 -0.0797,-0.375171 0,-0.53454 0.11269,-0.22538 0.42184,-0.309158 0.53453,-0.534538 0.0797,-0.159369 -0.12599,-0.408548 0,-0.53454 0.12599,-0.125992 0.40855,0.125992 0.53454,0 0.126,-0.125992 -0.0797,-0.375169 0,-0.534538 0.11269,-0.225383 0.42185,-0.309158 0.53454,-0.53454 0.0797,-0.159369 -0.0797,-0.375169 0,-0.534538 0.22538,-0.450763 0.8437,-0.618315 1.06908,-1.069079 0.0797,-0.159369 -0.12599,-0.408547 0,-0.534539 0.12599,-0.125992 0.40855,0.125992 0.53454,0 0.12599,-0.125992 -0.0797,-0.37517 0,-0.534539 0.11269,-0.225381 0.42185,-0.309157 0.53454,-0.534539 0.0797,-0.159369 -0.0797,-0.37517 0,-0.534539 0.11269,-0.225381 0.42185,-0.309158 0.53454,-0.534539 0.0797,-0.159369 -0.12599,-0.408547 0,-0.534539 0.12599,-0.125992 0.40854,0.125992 0.53454,0 0.12599,-0.125992 -0.0797,-0.37517 0,-0.534539 0.11269,-0.225382 0.35635,-0.35636 0.53454,-0.534539 0.31438,-0.314386 2.01438,-1.890623 2.13815,-2.138156 0.0797,-0.159369 -0.12599,-0.408547 0,-0.534539 0.12599,-0.125993 0.40855,0.125992 0.53454,0 0.12599,-0.125993 -0.0797,-0.375171 0,-0.534539 0.11269,-0.225382 0.42185,-0.309158 0.53454,-0.534539 0.0797,-0.159369 -0.12599,-0.408547 0,-0.53454 0.12599,-0.125992 0.40855,0.125993 0.53454,0 0.12599,-0.125992 -0.0797,-0.37517 0,-0.534539 0.11269,-0.225381 0.42185,-0.309157 0.53454,-0.534539 0.0797,-0.159368 -0.12599,-0.408547 0,-0.534539 0.12599,-0.125992 0.40854,0.125992 0.53454,0 0.12599,-0.125992 -0.126,-0.408547 0,-0.534539 0.12599,-0.125992 0.40854,0.125992 0.53454,0 0.25198,-0.251984 -0.25199,-0.817094 0,-1.069078 0.12599,-0.125992 0.40854,0.125992 0.53454,0 0.12599,-0.125992 -0.0797,-0.37517 0,-0.534539 0.11268,-0.225381 0.42184,-0.309158 0.53453,-0.534539 0.0797,-0.159369 -0.0797,-0.37517 0,-0.534539 0.22539,-0.450763 0.8437,-0.618315 1.06908,-1.069078 0.0797,-0.159369 -0.0797,-0.37517 0,-0.534539 0.11269,-0.225382 0.35636,-0.35636 0.53454,-0.534539 0.17818,-0.17818 0.35636,-0.35636 0.53454,-0.534539 0.17818,-0.17818 0.35636,-0.3563596 0.53454,-0.5345393 0.17818,-0.1781797 0.42185,-0.3091577 0.53454,-0.534539 0.0797,-0.1593689 -0.12599,-0.4085471 0,-0.5345391 0.12599,-0.1259922 0.40855,0.125992 0.53454,0 0.12599,-0.1259922 -0.12599,-0.408547 0,-0.534539 0.12599,-0.1259922 0.40854,0.125992 0.53454,0 0.12599,-0.1259922 -0.0797,-0.3751704 0,-0.534539 0.11269,-0.2253816 0.42185,-0.3091577 0.53454,-0.534539 0.0797,-0.1593689 -0.126,-0.4085471 0,-0.5345391 0.12599,-0.1259922 0.40854,0.125992 0.53453,0 0.126,-0.1259922 -0.12599,-0.408547 0,-0.5345392 0.126,-0.125992 0.40855,0.1259922 0.53454,0 0.126,-0.125992 -0.0797,-0.3751702 0,-0.5345391 0.22538,-0.4507627 0.8437,-0.6183151 1.06908,-1.069078 0.0797,-0.1593686 -0.12599,-0.4085468 0,-0.534539 0.71272,-0.7127187 0.53454,0.8908983 0.53454,-0.5345391"
       id="path2911"
       inkscape:connector-curvature="0" />
  </g>
</svg>
