<?xml version="1.0" encoding="UTF-8" standalone="no"?>
<!-- Created with Inkscape (http://www.inkscape.org/) -->

<svg
   xmlns:dc="http://purl.org/dc/elements/1.1/"
   xmlns:cc="http://creativecommons.org/ns#"
   xmlns:rdf="http://www.w3.org/1999/02/22-rdf-syntax-ns#"
   xmlns:svg="http://www.w3.org/2000/svg"
   xmlns="http://www.w3.org/2000/svg"
   xmlns:xlink="http://www.w3.org/1999/xlink"
   xmlns:sodipodi="http://sodipodi.sourceforge.net/DTD/sodipodi-0.dtd"
   xmlns:inkscape="http://www.inkscape.org/namespaces/inkscape"
   width="304.09442mm"
   height="244.12222mm"
   viewBox="0 0 304.09442 244.12222"
   version="1.1"
   id="svg7430"
   inkscape:version="0.92.3 (2405546, 2018-03-11)"
   sodipodi:docname="center-ketrin-east.svg">
  <defs
     id="defs7424" />
  <sodipodi:namedview
     id="base"
     pagecolor="#ffffff"
     bordercolor="#666666"
     borderopacity="1.0"
     inkscape:pageopacity="0.0"
     inkscape:pageshadow="2"
     inkscape:zoom="0.5"
     inkscape:cx="251.11124"
     inkscape:cy="467.56832"
     inkscape:document-units="mm"
     inkscape:current-layer="layer1"
     showgrid="false"
     fit-margin-top="0"
     fit-margin-left="0"
     fit-margin-right="0"
     fit-margin-bottom="0"
     inkscape:window-width="1366"
     inkscape:window-height="715"
     inkscape:window-x="0"
     inkscape:window-y="0"
     inkscape:window-maximized="1" />
  <metadata
     id="metadata7427">
    <rdf:RDF>
      <cc:Work
         rdf:about="">
        <dc:format>image/svg+xml</dc:format>
        <dc:type
           rdf:resource="http://purl.org/dc/dcmitype/StillImage" />
        <dc:title></dc:title>
      </cc:Work>
    </rdf:RDF>
  </metadata>
  <g
     inkscape:label="Layer 1"
     inkscape:groupmode="layer"
     id="layer1"
     transform="translate(-3.3340356e-4,-3.2057017e-4)">
    <image
       sodipodi:absref="/home/aanper/project/luysy-imn-eh/pi/boot/bydefault/web/img/center.png"
       y="0.00032057017"
       x="0.00033340356"
       id="image8053"
       xlink:href="file:///home/aanper/project/luysy-imn-eh/pi/boot/bydefault/web/img/center.png"
       preserveAspectRatio="none"
       height="244.12222"
       width="304.09442" />
    <ellipse
       style="fill:none;fill-opacity:1;stroke:#00ff00;stroke-width:0.30000001;stroke-miterlimit:4;stroke-dasharray:none;stroke-opacity:1;paint-order:stroke fill markers"
       id="path8056"
       cx="87.557831"
       cy="140.10124"
       rx="5.238483"
       ry="4.4901276" />
    <ellipse
       style="fill:none;fill-opacity:1;stroke:#00ff00;stroke-width:0.30000001;stroke-miterlimit:4;stroke-dasharray:none;stroke-opacity:1;paint-order:stroke fill markers"
       id="path8058"
       cx="228.99687"
       cy="88.838951"
       rx="5.238483"
       ry="4.8643055" />
    <path
       style="fill:none;fill-opacity:1;stroke:#00ff00;stroke-width:0.30000001;stroke-miterlimit:4;stroke-dasharray:none;stroke-opacity:1;paint-order:stroke fill markers"
       d="m 229.1295,93.839214 c 0,5.27394 -0.49891,0.589693 0.52916,2.645834 0.15777,0.315534 -0.15776,0.742799 0,1.058333 0.11156,0.223115 0.41761,0.306052 0.52917,0.529167 0.0789,0.157765 -0.0789,0.371398 0,0.529166 1.10113,2.202266 -0.0365,-0.565697 1.05833,0.529167 0.12473,0.124725 -0.12472,0.404442 0,0.529167 0.24945,0.249452 0.7428,-0.157769 1.05834,0 0.22311,0.111559 0.30605,0.417612 0.52916,0.529162 0.15777,0.0789 0.3714,-0.0789 0.52917,0 0.22312,0.11156 0.30605,0.41761 0.52917,0.52917 0.31553,0.15777 0.80888,-0.24945 1.05833,0 0.12473,0.12473 -0.12473,0.40444 0,0.52917 0.12473,0.12472 0.40444,-0.12473 0.52917,0 0.12472,0.12472 -0.12473,0.40444 0,0.52916 0.12472,0.12473 0.3714,-0.0789 0.52916,0 0.33707,0.16854 2.23003,2.23003 2.64584,2.64584 0.4158,0.4158 2.4773,2.30877 2.64583,2.64583 0.0789,0.15777 -0.0789,0.3714 0,0.52917 1.10113,2.20226 -0.0365,-0.5657 1.05833,0.52916 0.12473,0.12473 -0.0789,0.3714 0,0.52917 0.58501,1.17002 0.32843,0.16421 1.05834,0.52917 0.9742,0.4871 0.0841,1.10039 1.05833,1.5875 0.15777,0.0789 0.3714,-0.0789 0.52917,0 0.635,0.3175 0.9525,1.27 1.5875,1.5875 0.15776,0.0789 0.40444,-0.12473 0.52916,0 0.12473,0.12472 -0.0789,0.3714 0,0.52916 0.11156,0.22312 0.35278,0.35278 0.52917,0.52917 0.17639,0.17639 0.30605,0.41761 0.52917,0.52917 0.15776,0.0789 0.3714,-0.0789 0.52916,0 0.44623,0.22311 0.64322,0.78159 1.05834,1.05833 0.26648,1.16584 1.08859,0.27972 1.5875,0.52917 2.42178,1.21089 -2.24548,-0.21933 1.5875,1.05833 0.16733,0.0558 0.3714,-0.0789 0.52916,0 2.42179,1.2109 -2.24547,-0.21933 1.5875,1.05833 0.16734,0.0558 0.3714,-0.0789 0.52917,0 0.635,0.3175 0.9525,1.27 1.5875,1.5875 0.15777,0.0789 0.35278,0 0.52917,0 0.35277,0.17639 0.73015,0.31039 1.05833,0.52917 0.77865,0.5191 1.33801,1.59756 2.11667,2.11667 0.32817,0.21878 0.73015,0.31038 1.05833,0.52916 0.41511,0.27675 0.6121,0.83522 1.05833,1.05834 0.15777,0.0789 0.3714,-0.0789 0.52917,0 0.52071,0.26036 1.59594,1.85631 2.11667,2.11666 0.15777,0.0789 0.37139,-0.0789 0.52916,0 0.22313,0.11156 0.3216,0.3908 0.52917,0.52917 0.32816,0.21878 0.73014,0.31038 1.05833,0.52917 0.20757,0.13837 0.30605,0.41761 0.52917,0.52916 0.15777,0.0789 0.3714,-0.0789 0.52917,0 0.22312,0.11156 0.3216,0.3908 0.52916,0.52917 0.32817,0.21878 0.73015,0.31038 1.05834,0.52917 0.20756,0.13837 0.30604,0.41761 0.52916,0.52916 0.15777,0.0789 0.35277,0 0.52917,0 0.35277,0.17639 0.73014,0.31039 1.05833,0.52917 0.41511,0.27674 0.58502,0.90057 1.05834,1.05833 0.33467,0.11156 0.72366,-0.11155 1.05833,0 0.23664,0.0789 0.35277,0.35278 0.52917,0.52917 0.35277,0.17639 0.68416,0.40444 1.05833,0.52917 0.16735,0.0558 0.35277,0 0.52917,0 0.17639,0.17639 0.30604,0.41761 0.52916,0.52916 0.15777,0.0789 0.35277,0 0.52917,0 0.35277,0.17639 0.73014,0.31039 1.05833,0.52917 0.41511,0.27674 0.61209,0.83522 1.05834,1.05833 0.15777,0.0789 0.37139,-0.0789 0.52916,0 0.22313,0.11156 0.3216,0.3908 0.52917,0.52917 0.32816,0.21878 0.73014,0.31038 1.05833,0.52917 0.20757,0.13837 0.30605,0.41761 0.52917,0.52916 0.15777,0.0789 0.35277,0 0.52917,0 0.35277,0.17639 0.73014,0.31039 1.05833,0.52917 0.4151,0.27674 0.58502,0.90057 1.05833,1.05833 0.33467,0.11156 0.72367,-0.11156 1.05834,0 0.47328,0.15777 0.61208,0.83522 1.05833,1.05834 0.15777,0.0789 0.3714,-0.0789 0.52917,0 0.22312,0.11156 0.30604,0.4176 0.52916,0.52916 0.15777,0.0789 0.3714,-0.0789 0.52917,0 0.22312,0.11156 0.30604,0.41761 0.52917,0.52917 0.15777,0.0789 0.37139,-0.0789 0.52916,0 0.22313,0.11156 0.30605,0.41761 0.52917,0.52917 0.15777,0.0789 0.40444,-0.12473 0.52917,0 0.12472,0.12472 -0.12473,0.40444 0,0.52916 0.12472,0.12473 0.37139,-0.0789 0.52916,0 0.52073,0.26036 1.59594,1.85631 2.11667,2.11667 0.15777,0.0789 0.40444,-0.12473 0.52917,0 0.12472,0.12473 -0.12473,0.40444 0,0.52917 0.12472,0.12472 0.40444,-0.12473 0.52916,0 0.12473,0.12472 -0.12472,0.40444 0,0.52916 0.12473,0.12473 0.40445,-0.12472 0.52917,0 0.12472,0.12473 -0.12472,0.40444 0,0.52917 0.12472,0.12473 0.40444,-0.12473 0.52917,0 0.12472,0.12473 -0.12473,0.40444 0,0.52917 0.12472,0.12472 0.40444,-0.12473 0.52916,0 0.12473,0.12472 -0.12472,0.40444 0,0.52916 0.12473,0.12473 0.3714,-0.0789 0.52917,0 0.52073,0.26036 1.59594,1.85631 2.11667,2.11667 0.15777,0.0789 0.40444,-0.12473 0.52916,0 0.12473,0.12473 -0.12472,0.40444 0,0.52917 0.12473,0.12472 0.40445,-0.12473 0.52917,0 0.12472,0.12472 -0.12472,0.40444 0,0.52916 0.12472,0.12473 0.40444,-0.12472 0.52917,0 0.12472,0.12473 -0.0789,0.3714 0,0.52917 1.10114,2.20227 -0.0365,-0.5657 1.05833,0.52917 0.12472,0.12472 -0.12472,0.40444 0,0.52916 0.12472,0.12473 0.35277,0 0.52917,0 0,0.17639 -0.0789,0.3714 0,0.52917 0.11154,0.22312 0.41761,0.30605 0.52916,0.52917 0.0789,0.15776 -0.12472,0.40444 0,0.52916 0.12473,0.12473 0.40445,-0.12472 0.52917,0 0.12472,0.12473 -0.12472,0.40444 0,0.52917 0.12472,0.12472 0.52917,-0.17639 0.52917,0 0,0.17639 -0.40445,0.12472 -0.52917,0 -0.12472,-0.12473 0,-0.35278 0,-0.52917 0,-0.17639 0,-0.35277 0,-0.52916"
       id="path8104"
       inkscape:connector-curvature="0" />
  </g>
</svg>
