<?xml version="1.0" encoding="UTF-8" standalone="no"?>
<!-- Created with Inkscape (http://www.inkscape.org/) -->

<svg
   xmlns:dc="http://purl.org/dc/elements/1.1/"
   xmlns:cc="http://creativecommons.org/ns#"
   xmlns:rdf="http://www.w3.org/1999/02/22-rdf-syntax-ns#"
   xmlns:svg="http://www.w3.org/2000/svg"
   xmlns="http://www.w3.org/2000/svg"
   xmlns:xlink="http://www.w3.org/1999/xlink"
   xmlns:sodipodi="http://sodipodi.sourceforge.net/DTD/sodipodi-0.dtd"
   xmlns:inkscape="http://www.inkscape.org/namespaces/inkscape"
   width="304.09442mm"
   height="244.12222mm"
   viewBox="0 0 304.09442 244.12222"
   version="1.1"
   id="svg7430"
   inkscape:version="0.92.3 (2405546, 2018-03-11)"
   sodipodi:docname="center-workshop-south.svg">
  <defs
     id="defs7424" />
  <sodipodi:namedview
     id="base"
     pagecolor="#ffffff"
     bordercolor="#666666"
     borderopacity="1.0"
     inkscape:pageopacity="0.0"
     inkscape:pageshadow="2"
     inkscape:zoom="0.5"
     inkscape:cx="251.11124"
     inkscape:cy="467.56832"
     inkscape:document-units="mm"
     inkscape:current-layer="layer1"
     showgrid="false"
     fit-margin-top="0"
     fit-margin-left="0"
     fit-margin-right="0"
     fit-margin-bottom="0"
     inkscape:window-width="1366"
     inkscape:window-height="715"
     inkscape:window-x="0"
     inkscape:window-y="0"
     inkscape:window-maximized="1" />
  <metadata
     id="metadata7427">
    <rdf:RDF>
      <cc:Work
         rdf:about="">
        <dc:format>image/svg+xml</dc:format>
        <dc:type
           rdf:resource="http://purl.org/dc/dcmitype/StillImage" />
        <dc:title></dc:title>
      </cc:Work>
    </rdf:RDF>
  </metadata>
  <g
     inkscape:label="Layer 1"
     inkscape:groupmode="layer"
     id="layer1"
     transform="translate(-3.3340356e-4,-3.2057017e-4)">
    <image
       sodipodi:absref="/home/aanper/project/luysy-imn-eh/pi/boot/bydefault/web/img/center.png"
       y="0.00032057017"
       x="0.00033340356"
       id="image8053"
       xlink:href="file:///home/aanper/project/luysy-imn-eh/pi/boot/bydefault/web/img/center.png"
       preserveAspectRatio="none"
       height="244.12222"
       width="304.09442" />
    <ellipse
       style="fill:none;fill-opacity:1;stroke:#00ff00;stroke-width:0.30000001;stroke-miterlimit:4;stroke-dasharray:none;stroke-opacity:1;paint-order:stroke fill markers"
       id="path8056"
       cx="87.557831"
       cy="140.10124"
       rx="5.238483"
       ry="4.4901276" />
    <ellipse
       style="fill:none;fill-opacity:1;stroke:#00ff00;stroke-width:0.30000001;stroke-miterlimit:4;stroke-dasharray:none;stroke-opacity:1;paint-order:stroke fill markers"
       id="path8058"
       cx="228.99687"
       cy="88.838951"
       rx="5.238483"
       ry="4.8643055" />
    <path
       style="fill:none;fill-opacity:1;stroke:#00ff00;stroke-width:0.30000001;stroke-miterlimit:4;stroke-dasharray:none;stroke-opacity:1;paint-order:stroke fill markers"
       d="m 84.666999,144.11005 c -2.230379,0.42423 -0.126939,1.84137 -0.529167,2.64583 -0.111559,0.22312 -0.417607,0.30605 -0.529166,0.52917 -0.157769,0.31553 0.157765,0.7428 0,1.05833 -0.111559,0.22312 -0.417608,0.30605 -0.529167,0.52917 -0.06957,0.13914 0,1.83995 0,2.11666 0,0.23832 -0.08052,1.42646 0,1.5875 0.111559,0.22312 0.352777,0.35278 0.529167,0.52917 0.176389,0.17639 0.306049,0.41761 0.529166,0.52917 0.157766,0.0789 0.40444,-0.12473 0.529167,0 0.124725,0.12472 -0.124727,0.40444 0,0.52916 0.124725,0.12473 0.371398,-0.0789 0.529167,0 0.223115,0.11156 0.306048,0.41761 0.529166,0.52917 0.157766,0.0789 0.371399,-0.0789 0.529167,0 0.223115,0.11156 0.306049,0.41761 0.529167,0.52917 0.157765,0.0789 0.371398,-0.0789 0.529166,0 0.223115,0.11156 0.306049,0.4176 0.529167,0.52916 0.157766,0.0789 0.371398,-0.0789 0.529167,0 0.223115,0.11156 0.306048,0.41761 0.529166,0.52917 0.157766,0.0789 0.371399,-0.0789 0.529167,0 0.223115,0.11156 0.306049,0.41761 0.529167,0.52917 0.315534,0.15776 0.723659,-0.11156 1.058333,0 0.374176,0.12472 0.684154,0.40444 1.058333,0.52916 0.167336,0.0558 0.371399,-0.0789 0.529167,0 0.223115,0.11156 0.306049,0.41761 0.529167,0.52917 0.315534,0.15777 0.742799,-0.15777 1.058333,0 0.223115,0.11156 0.306049,0.41761 0.529167,0.52917 0.157765,0.0789 0.361828,-0.0558 0.529166,0 0.374177,0.12472 0.684154,0.40444 1.058334,0.52916 0.334674,0.11156 0.742799,-0.15776 1.058333,0 0.223115,0.11156 0.292515,0.45029 0.529167,0.52917 0.334674,0.11156 0.705553,0 1.058333,0 0.176387,0 0.371398,-0.0789 0.529166,0 0.223116,0.11156 0.292516,0.45028 0.529165,0.52917 0.48935,0.16312 2.82637,-0.17432 3.175,0 0.22312,0.11156 0.29252,0.45028 0.52917,0.52916 0.24203,0.0807 1.8812,-0.11773 2.11667,0 0.22311,0.11156 0.29251,0.45029 0.52916,0.52917 0.24203,0.0807 1.8812,-0.11773 2.11667,0 0.22311,0.11156 0.30605,0.41761 0.52917,0.52917 0.56444,0.28222 0.49388,-0.28223 1.05833,0 0.22311,0.11156 0.30605,0.4176 0.52917,0.52916 0.42333,0.21167 1.16416,-0.21166 1.5875,0 0.22311,0.11156 0.30604,0.41761 0.52916,0.52917 0.31554,0.15777 0.7428,-0.15777 1.05834,0 0.22311,0.11156 0.30604,0.41761 0.52916,0.52917 0.31554,0.15776 0.7428,-0.15777 1.05834,0 2.20226,1.10113 -0.5657,-0.0365 0.52916,1.05833 0.12473,0.12472 0.3714,-0.0789 0.52917,0 0.10129,0.0506 2.06602,2.01537 2.11667,2.11667 0.0789,0.15776 -0.0789,0.3714 0,0.52916 1.10113,2.20227 -0.0365,-0.56569 1.05833,0.52917 0.12472,0.12472 -0.0789,0.3714 0,0.52917 0.11155,0.22311 0.41761,0.30605 0.52917,0.52916 0.21166,0.42334 -0.21167,1.16417 0,1.5875 0.11155,0.22312 0.4176,0.30605 0.52916,0.52917 0.0805,0.16104 0,1.34918 0,1.5875 0,1.41111 0,2.82222 0,4.23333 0,0.2226 0.0787,3.01759 0,3.175 -0.11156,0.22312 -0.41761,0.30605 -0.52916,0.52917 -0.21167,0.42333 0.21166,1.16417 0,1.5875 -0.11156,0.22312 -0.45029,0.29252 -0.52917,0.52917 -0.11156,0.33467 0,0.70555 0,1.05833 0,0.17639 0.0789,0.3714 0,0.52917 -0.11156,0.22311 -0.41761,0.30605 -0.52917,0.52916 -0.15777,0.31554 0.11156,0.72366 0,1.05834 -0.12473,0.37417 -0.40444,0.68415 -0.52916,1.05833 -0.0558,0.16734 0.0789,0.3714 0,0.52917 -1.2109,2.42178 0.21932,-2.24548 -1.05834,1.5875 -0.0558,0.16733 0.0789,0.37139 0,0.52916 -0.11156,0.22312 -0.45028,0.29252 -0.52916,0.52917 -0.11156,0.33467 0.11155,0.72366 0,1.05833 -0.0789,0.23665 -0.41762,0.30605 -0.52917,0.52917 -0.0789,0.15777 0.0558,0.36183 0,0.52917 -0.12473,0.37417 -0.40444,0.68415 -0.52917,1.05833 -0.0558,0.16734 0.0558,0.36183 0,0.52917 -0.12473,0.37417 -0.40444,0.68415 -0.52916,1.05833 -0.0558,0.16734 0.0558,0.36183 0,0.52917 -0.12473,0.37417 -0.40445,0.68415 -0.52917,1.05833 -0.15875,0.47625 0.15875,1.11125 0,1.5875 -0.0789,0.23665 -0.45029,0.29252 -0.52917,0.52917 0,3.51005 0.24945,-0.74836 -0.52916,1.5875 -0.11156,0.33467 0,0.70555 0,1.05833 0,0.17639 0.0789,0.3714 0,0.52917 -0.11156,0.22311 -0.35278,0.35277 -0.52917,0.52916 0,0.35278 0.11155,0.72366 0,1.05834 -0.0789,0.23665 -0.45029,0.29251 -0.52917,0.52916 -0.11156,0.33468 0,0.70556 0,1.05834 0,0.17638 0.0789,0.37139 0,0.52916 -0.11156,0.22312 -0.45028,0.29252 -0.52916,0.52917 -0.11156,0.33467 0.11155,0.72366 0,1.05833 -0.0789,0.23665 -0.41761,0.30605 -0.52917,0.52917 -0.15777,0.31553 0.11156,0.72366 0,1.05833 -0.12473,0.37418 -0.40444,0.68416 -0.52917,1.05834 -0.0558,0.16733 0.0789,0.37139 0,0.52916 -0.11156,0.22312 -0.45028,0.29252 -0.52916,0.52917 -0.11156,0.33467 0.11155,0.72366 0,1.05833 -0.0789,0.23665 -0.41761,0.30605 -0.52917,0.52917 -0.0789,0.15777 0.0558,0.36183 0,0.52917 -0.12473,0.37417 -0.40444,0.68415 -0.52917,1.05833 -0.0558,0.16734 0,0.35278 0,0.52917 -0.17639,0.35277 -0.40444,0.68415 -0.52916,1.05833 -0.0558,0.16734 0.0789,0.3714 0,0.52917 -0.11156,0.22311 -0.45029,0.29251 -0.52917,0.52916 -0.11156,0.33468 0,0.70556 0,1.05834 0,0.17638 0.0789,0.37139 0,0.52916 -0.11156,0.22312 -0.41761,0.30605 -0.52917,0.52917 -0.0789,0.15777 0,0.35278 0,0.52917 0,0.35277 0.11156,0.72366 0,1.05833 -0.0789,0.23665 -0.41761,0.30605 -0.52916,0.52917 -0.29029,0.58057 0.29028,0.47776 0,1.05833 -0.11156,0.22311 -0.41761,0.30605 -0.52917,0.52917 -0.15777,0.31553 0.15776,0.7428 0,1.05833 -0.11156,0.22311 -0.41761,0.30605 -0.52917,0.52917 -0.15777,0.31553 0.15777,0.7428 0,1.05833 -0.11156,0.22311 -0.45028,0.29251 -0.52916,0.52917 -0.11156,0.33467 0,0.70555 0,1.05833 0,0.17639 0.0789,0.3714 0,0.52917 -0.11156,0.22311 -0.41761,0.30604 -0.52917,0.52916 -0.15777,0.31554 0.11156,0.72366 0,1.05834 -0.12473,0.37417 -0.40444,0.68415 -0.52917,1.05833 -0.11156,0.33467 0.15777,0.7428 0,1.05833 -0.11156,0.22312 -0.41761,0.30605 -0.52916,0.52917 -0.0789,0.15777 0.0789,0.3714 0,0.52917 -0.11156,0.22311 -0.41761,0.30604 -0.52917,0.52916 -0.15777,0.31554 0.24945,0.80888 0,1.05834 -0.12473,0.12472 -0.40444,-0.12473 -0.52917,0 -0.24945,0.24945 0.24945,0.80888 0,1.05833 -0.12473,0.12472 -0.40444,-0.12473 -0.52916,0 -0.24946,0.24945 0.15776,0.7428 0,1.05833 -0.11156,0.22312 -0.41761,0.30605 -0.52917,0.52917 -0.0789,0.15777 0.12472,0.40444 0,0.52917 -0.12473,0.12472 -0.40444,-0.12473 -0.52917,0 -0.24945,0.24945 0.15777,0.7428 0,1.05833 -0.11156,0.22311 -0.41761,0.30605 -0.52916,0.52917 -0.0789,0.15776 0.0789,0.37139 0,0.52916 -0.11156,0.22312 -0.41761,0.30605 -0.52917,0.52917 -0.0789,0.15777 0.0789,0.3714 0,0.52917 -0.11156,0.22311 -0.41761,0.30604 -0.52917,0.52916 -0.07888,0.15777 0.0789,0.3714 0,0.52917 -0.111557,0.22311 -0.417606,0.30605 -0.529165,0.52917 -0.157768,0.31553 0.249452,0.80888 0,1.05833 -0.124727,0.12472 -0.404442,-0.12473 -0.529166,0 -0.264584,0.26458 0.264583,1.32292 0,1.5875 -0.124727,0.12472 -0.404442,-0.12473 -0.529167,0 -0.124727,0.12472 0,0.70555 0,0.52917 0,-0.35278 0,-0.70556 0,-1.05834"
       id="path8146"
       inkscape:connector-curvature="0" />
  </g>
</svg>
