<?xml version="1.0" encoding="UTF-8" standalone="no"?>
<!-- Created with Inkscape (http://www.inkscape.org/) -->

<svg
   xmlns:dc="http://purl.org/dc/elements/1.1/"
   xmlns:cc="http://creativecommons.org/ns#"
   xmlns:rdf="http://www.w3.org/1999/02/22-rdf-syntax-ns#"
   xmlns:svg="http://www.w3.org/2000/svg"
   xmlns="http://www.w3.org/2000/svg"
   xmlns:xlink="http://www.w3.org/1999/xlink"
   xmlns:sodipodi="http://sodipodi.sourceforge.net/DTD/sodipodi-0.dtd"
   xmlns:inkscape="http://www.inkscape.org/namespaces/inkscape"
   width="304.09442mm"
   height="244.12222mm"
   viewBox="0 0 304.09442 244.12222"
   version="1.1"
   id="svg7430"
   inkscape:version="0.92.3 (2405546, 2018-03-11)"
   sodipodi:docname="center-workshop-north.svg">
  <defs
     id="defs7424" />
  <sodipodi:namedview
     id="base"
     pagecolor="#ffffff"
     bordercolor="#666666"
     borderopacity="1.0"
     inkscape:pageopacity="0.0"
     inkscape:pageshadow="2"
     inkscape:zoom="0.5"
     inkscape:cx="251.11124"
     inkscape:cy="467.56832"
     inkscape:document-units="mm"
     inkscape:current-layer="layer1"
     showgrid="false"
     fit-margin-top="0"
     fit-margin-left="0"
     fit-margin-right="0"
     fit-margin-bottom="0"
     inkscape:window-width="1366"
     inkscape:window-height="715"
     inkscape:window-x="0"
     inkscape:window-y="0"
     inkscape:window-maximized="1" />
  <metadata
     id="metadata7427">
    <rdf:RDF>
      <cc:Work
         rdf:about="">
        <dc:format>image/svg+xml</dc:format>
        <dc:type
           rdf:resource="http://purl.org/dc/dcmitype/StillImage" />
        <dc:title></dc:title>
      </cc:Work>
    </rdf:RDF>
  </metadata>
  <g
     inkscape:label="Layer 1"
     inkscape:groupmode="layer"
     id="layer1"
     transform="translate(-3.3340356e-4,-3.2057017e-4)">
    <image
       sodipodi:absref="/home/aanper/project/luysy-imn-eh/pi/boot/bydefault/web/img/center.png"
       y="0.00032057017"
       x="0.00033340356"
       id="image8053"
       xlink:href="file:///home/aanper/project/luysy-imn-eh/pi/boot/bydefault/web/img/center.png"
       preserveAspectRatio="none"
       height="244.12222"
       width="304.09442" />
    <ellipse
       style="fill:none;fill-opacity:1;stroke:#00ff00;stroke-width:0.30000001;stroke-miterlimit:4;stroke-dasharray:none;stroke-opacity:1;paint-order:stroke fill markers"
       id="path8056"
       cx="87.557831"
       cy="140.10124"
       rx="5.238483"
       ry="4.4901276" />
    <ellipse
       style="fill:none;fill-opacity:1;stroke:#00ff00;stroke-width:0.30000001;stroke-miterlimit:4;stroke-dasharray:none;stroke-opacity:1;paint-order:stroke fill markers"
       id="path8058"
       cx="228.99687"
       cy="88.838951"
       rx="5.238483"
       ry="4.8643055" />
    <path
       style="fill:none;fill-opacity:1;stroke:#00ff00;stroke-width:0.30000001;stroke-miterlimit:4;stroke-dasharray:none;stroke-opacity:1;paint-order:stroke fill markers"
       d="m 86.783666,136.70171 c 0,-0.70555 0,-1.41111 0,-2.11666 0,-0.5329 -0.09755,-2.88237 0,-3.175 0.07888,-0.23665 0.450283,-0.29252 0.529166,-0.52917 0.16341,-0.49022 -0.169018,-2.13878 0,-2.64583 0.124725,-0.37418 0.433507,-0.6757 0.529167,-1.05834 0.08556,-0.34224 0,-0.70555 0,-1.05833 0.17639,-0.35278 0.404439,-0.68416 0.529167,-1.05833 0.167335,-0.50202 -0.128342,-1.07414 0,-1.5875 0.09566,-0.38264 0.433506,-0.6757 0.529166,-1.05834 0.171122,-0.68449 -0.223118,-1.44731 0,-2.11666 0.07888,-0.23665 0.450284,-0.29252 0.529167,-0.52917 0.223115,-0.66935 -0.223118,-1.44732 0,-2.11667 0.07888,-0.23665 0.450284,-0.29251 0.529167,-0.52916 0.146089,-0.43827 -0.16826,-2.30932 0,-2.64584 0.111559,-0.22311 0.417607,-0.30605 0.529166,-0.52916 0.211667,-0.42334 -0.211666,-1.16417 0,-1.5875 0.111559,-0.22312 0.417608,-0.30605 0.529167,-0.52917 0.156109,-0.31222 -0.121327,-1.22352 0,-1.5875 0.124725,-0.37418 0.404439,-0.68416 0.529167,-1.05833 0.187433,-0.5623 -0.187434,-1.55437 0,-2.11667 0.124724,-0.37418 0.404439,-0.68416 0.529166,-1.05833 0.167336,-0.50201 -0.128341,-1.07414 0,-1.5875 0.09566,-0.38264 0.40444,-0.68416 0.529167,-1.05834 0.05578,-0.16733 -0.05578,-0.36182 0,-0.52916 0.124724,-0.37418 0.404439,-0.68416 0.529167,-1.05834 0.05578,-0.16733 -0.05578,-0.36182 0,-0.52916 0.124724,-0.37418 0.404439,-0.68416 0.529166,-1.05834 0.05578,-0.16733 -0.05578,-0.361824 0,-0.529162 0.124725,-0.374177 0.40444,-0.684157 0.529167,-1.058334 0.05578,-0.167338 -0.05578,-0.361828 0,-0.529166 0.124724,-0.374177 0.404439,-0.684157 0.529167,-1.058334 0.05578,-0.167338 -0.07888,-0.371401 0,-0.529166 0.111558,-0.223115 0.390794,-0.321612 0.529166,-0.529167 0.872633,0.319929 0.41084,-1.350849 0.529167,-1.5875 1.210895,-2.421789 -0.219326,2.245474 1.058333,-1.5875 0.05578,-0.167338 -0.07888,-0.371401 0,-0.529167 0.111559,-0.223115 0.352777,-0.352776 0.529167,-0.529166 0.176387,-0.17639 0.352777,-0.352777 0.529167,-0.529167 1.755023,-1.755026 -0.249452,0.498904 0.529166,-1.058333 0.223115,-0.446233 0.835216,-0.6121 1.058333,-1.058333 0.07888,-0.157766 -0.07888,-0.371401 0,-0.529167 0.223116,-0.446233 0.835215,-0.6121 1.058335,-1.058333 0.0789,-0.157766 -0.0789,-0.371401 0,-0.529167 0.22311,-0.446233 0.83521,-0.6121 1.05833,-1.058333 0.0789,-0.157766 -0.0789,-0.371401 0,-0.529167 0.22312,-0.446233 0.83522,-0.6121 1.05834,-1.058333 0.0789,-0.157766 -0.0789,-0.371401 0,-0.529167 0.1413,-0.28262 1.30891,-1.308912 1.5875,-1.5875 0.27858,-0.278588 1.30488,-1.446191 1.5875,-1.5875 0.31553,-0.157766 0.74279,0.157766 1.05833,0 0.22311,-0.111559 0.30605,-0.417608 0.52917,-0.529167 0.15776,-0.07888 0.37139,0.07888 0.52916,0 0.22312,-0.111559 0.30605,-0.417607 0.52917,-0.529166 0.32132,-0.160661 2.85368,0.16066 3.175,0 0.22311,-0.111559 0.29251,-0.450284 0.52917,-0.529167 0.0436,-0.01453 2.44663,-0.0664 2.64583,0 0.37418,0.124725 0.68415,0.404442 1.05833,0.529167 0.16734,0.05578 0.35278,0 0.52917,0 0.35278,0 0.70555,0 1.05833,0 1.23472,0 2.46945,0 3.70417,0 0.52917,0 1.08549,-0.167339 1.5875,0 1.96167,0.653891 -0.64503,0.529166 1.05833,0.529166 0.2226,0 3.01759,-0.07871 3.175,0 0.22312,0.111559 0.30605,0.417608 0.52917,0.529167 0.42333,0.211667 1.16417,-0.211667 1.5875,0 0.22311,0.111559 0.30605,0.417608 0.52917,0.529167 0.42333,0.211666 1.16416,-0.211667 1.5875,0 0.22311,0.111559 0.30604,0.417607 0.52916,0.529166 0.33259,0.166296 1.78407,-0.166296 2.11667,0 0.22311,0.111559 0.30605,0.417608 0.52917,0.529167 0.33383,0.166918 2.31199,-0.166918 2.64583,0 0.22311,0.111559 0.30605,0.417608 0.52917,0.529167 0.16104,0.08052 1.34918,0 1.58749,0 1.05834,0 2.11667,0 3.175,0 0.27672,0 1.97753,0.06957 2.11667,0 0.22312,-0.111559 0.30605,-0.417608 0.52917,-0.529167 0.31553,-0.157766 0.7428,0.157766 1.05833,0 0.44623,-0.223115 0.6121,-0.835218 1.05833,-1.058333 0.15777,-0.07888 0.3714,0.07888 0.52917,0 0.44623,-0.223116 0.6121,-0.835219 1.05833,-1.058334 0.15777,-0.07888 0.3714,0.07888 0.52917,0 0.44623,-0.223115 0.6121,-0.835218 1.05833,-1.058333 0.15777,-0.07888 0.40444,0.124725 0.52917,0 1.09487,-1.094864 -1.6731,0.0428 0.52917,-1.058333 0.15776,-0.07888 0.3714,0.07888 0.52916,0 0.1405,-0.07025 1.51726,-1.447001 1.5875,-1.5875 0.0789,-0.157766 0,-0.352777 0,-0.529167 0.17639,-0.352777 0.31039,-0.730157 0.52917,-1.058333 0.27674,-0.415113 0.83522,-0.612101 1.05833,-1.058334 0.0789,-0.157765 -0.0558,-0.361828 0,-0.529166 1.27766,-3.832974 -0.15256,0.834287 1.05834,-1.5875 0.0789,-0.157766 -0.0789,-0.371401 0,-0.529167 0.11155,-0.223115 0.39079,-0.321612 0.52916,-0.529167 1.78217,-2.673246 0.004,-0.01225 0.52917,-1.5875 -0.31894,-0.957759 0.85722,-0.984157 1.05833,-1.5875 0.11156,-0.334674 -0.0856,-0.716089 0,-1.058333 -0.31894,-0.95776 0.85722,-0.984157 1.05834,-1.5875 0.11155,-0.334674 -0.0856,-0.716089 0,-1.058333 0.26271,-1.050864 1.32478,-2.124136 1.5875,-3.175 0.0856,-0.342244 -0.0856,-0.71609 0,-1.058333 0.27637,-1.105475 0.78196,-1.011193 1.05833,-2.116667 0.0856,-0.342244 -0.11156,-0.723659 0,-1.058333 0.0789,-0.236652 0.35278,-0.352777 0.52917,-0.529167 0.17639,-0.352777 0.4335,-0.675693 0.52916,-1.058333 0.0856,-0.342244 -0.0856,-0.71609 0,-1.058334 0.0957,-0.38264 0.35278,-0.705556 0.52917,-1.058333 0.17639,-0.529167 0.41978,-1.04054 0.52917,-1.5875 0.0692,-0.345927 -0.0856,-0.71609 0,-1.058333 0.27637,-1.105474 0.78196,-1.011193 1.05833,-2.116667 0.0856,-0.342244 -0.0856,-0.716089 0,-1.058333 0.26272,-1.050864 1.32478,-2.124136 1.5875,-3.175 0.0856,-0.342244 -0.0856,-0.71609 0,-1.058334 0.0957,-0.38264 0.43351,-0.675692 0.52917,-1.058333 0.0856,-0.342244 -0.11156,-0.723659 0,-1.058333 0.0789,-0.236651 0.35277,-0.352777 0.52916,-0.529167 0.17639,-0.352777 0.43351,-0.675693 0.52917,-1.058333 0.0856,-0.342244 -0.11156,-0.723659 0,-1.058334 0.0789,-0.236651 0.41761,-0.306051 0.52917,-0.529166 0.0789,-0.157766 -0.0558,-0.361828 0,-0.529167 0.12472,-0.374176 0.40444,-0.684157 0.52916,-1.058333 0.0558,-0.167336 -0.0789,-0.371398 0,-0.529167 0.11156,-0.223115 0.41761,-0.306051 0.52917,-0.529166 0.0789,-0.157766 0,-0.352777 0,-0.529167 0,-0.352777 -0.11156,-0.723659 0,-1.058333 0.0789,-0.236652 0.41761,-0.306052 0.52917,-0.529167 0.15776,-0.315534 -0.11156,-0.723659 0,-1.058333 0.12472,-0.374177 0.40444,-0.684157 0.52916,-1.058334 0.0558,-0.167335 -0.0789,-0.371398 0,-0.529166 0.11156,-0.223116 0.45029,-0.292516 0.52917,-0.529167 0.15875,-0.47625 -0.15875,-1.11125 0,-1.5875 0.12473,-0.374176 0.40444,-0.684157 0.52917,-1.058333 0.11155,-0.334674 -0.11156,-0.723659 0,-1.058333 0.12472,-0.374178 0.40444,-0.684156 0.52916,-1.058334 0.21094,-0.632803 -0.21093,-0.42553 0,-1.058333 0.12473,-0.374178 0.40444,-0.684156 0.52917,-1.058333 0.15875,-0.47625 -0.15875,-1.11125 0,-1.5875 0.0789,-0.236651 0.41761,-0.306051 0.52917,-0.529167 0.0789,-0.157767 -0.0558,-0.361829 0,-0.529167 0.12472,-0.374177 0.40444,-0.684156 0.52916,-1.058333 0.0558,-0.167337 -0.0789,-0.3714 0,-0.529167 0.11156,-0.223116 0.45029,-0.292516 0.52917,-0.529166 0.11156,-0.334675 0,-0.705556 0,-1.058334 0,-0.176389 -0.0789,-0.371399 0,-0.529166 0.11156,-0.223117 0.41761,-0.306051 0.52917,-0.529167 0.0843,-0.168631 0,-2.172905 0,-2.645833 0,-0.176389 -0.12473,-0.404441 0,-0.529167 0.12472,-0.124726 0.40444,0.124726 0.52916,0 0.12473,-0.124726 0,-0.352778 0,-0.529167 0,-0.176388 0,-0.352777 0,-0.529166 0,-2.1166669 0,-4.2333335 0,-6.3500002"
       id="path8167"
       inkscape:connector-curvature="0" />
  </g>
</svg>
