<?xml version="1.0" encoding="UTF-8" standalone="no"?>
<!-- Created with Inkscape (http://www.inkscape.org/) -->

<svg
   xmlns:dc="http://purl.org/dc/elements/1.1/"
   xmlns:cc="http://creativecommons.org/ns#"
   xmlns:rdf="http://www.w3.org/1999/02/22-rdf-syntax-ns#"
   xmlns:svg="http://www.w3.org/2000/svg"
   xmlns="http://www.w3.org/2000/svg"
   xmlns:xlink="http://www.w3.org/1999/xlink"
   xmlns:sodipodi="http://sodipodi.sourceforge.net/DTD/sodipodi-0.dtd"
   xmlns:inkscape="http://www.inkscape.org/namespaces/inkscape"
   version="1.1"
   id="svg815"
   width="1110.6667"
   height="812"
   viewBox="0 0 1110.6667 812"
   sodipodi:docname="chr-savushkina-novorossiyskaya-ext.svg"
   inkscape:version="0.92.3 (2405546, 2018-03-11)">
  <metadata
     id="metadata821">
    <rdf:RDF>
      <cc:Work
         rdf:about="">
        <dc:format>image/svg+xml</dc:format>
        <dc:type
           rdf:resource="http://purl.org/dc/dcmitype/StillImage" />
        <dc:title></dc:title>
      </cc:Work>
    </rdf:RDF>
  </metadata>
  <defs
     id="defs819" />
  <sodipodi:namedview
     pagecolor="#ffffff"
     bordercolor="#666666"
     borderopacity="1"
     objecttolerance="10"
     gridtolerance="10"
     guidetolerance="10"
     inkscape:pageopacity="0"
     inkscape:pageshadow="2"
     inkscape:window-width="1366"
     inkscape:window-height="715"
     id="namedview817"
     showgrid="false"
     inkscape:zoom="0.5997537"
     inkscape:cx="546.04832"
     inkscape:cy="412.42048"
     inkscape:window-x="0"
     inkscape:window-y="0"
     inkscape:window-maximized="1"
     inkscape:current-layer="svg815"
     fit-margin-top="0"
     fit-margin-left="0"
     fit-margin-right="0"
     fit-margin-bottom="0"
     showguides="false" />
  <image
     sodipodi:absref="/home/aanper/project/luysy-imn-eh/pi/boot/bydefault/web/svg/../img/chr.png"
     xlink:href="../img/chr.png"
     y="0"
     x="0"
     id="image823"
     preserveAspectRatio="none"
     height="812"
     width="1110.6667" />
  <ellipse
     style="fill:#00ff00;fill-opacity:1;stroke:#00ff00;stroke-width:1.00157475;stroke-miterlimit:4;stroke-dasharray:none;stroke-opacity:1;paint-order:stroke fill markers"
     id="path832"
     cx="377.23819"
     cy="655.68585"
     rx="6.2525668"
     ry="5.8357291" />
  <ellipse
     style="fill:#00ff00;fill-opacity:1;stroke:#00ff00;stroke-width:0.24566929;stroke-miterlimit:4;stroke-dasharray:none;stroke-opacity:1;paint-order:stroke fill markers"
     id="path843"
     cx="606.49896"
     cy="399.22638"
     rx="2.7094455"
     ry="2.1883984" />
  <circle
     style="fill:#00ff00;fill-opacity:1;stroke:#00ff00;stroke-width:0.24566929;stroke-miterlimit:4;stroke-dasharray:none;stroke-opacity:1;paint-order:stroke fill markers"
     id="path845"
     cx="475.19507"
     cy="635.2608"
     r="3.7515399" />
  <ellipse
     style="fill:#00ff00;fill-opacity:1;stroke:#00ff00;stroke-width:0.24566929;stroke-miterlimit:4;stroke-dasharray:none;stroke-opacity:1;paint-order:stroke fill markers"
     id="path847"
     cx="871.39941"
     cy="165.69302"
     rx="2.7094455"
     ry="2.5010266" />
  <ellipse
     style="fill:#00ff00;fill-opacity:1;stroke:#00ff00;stroke-width:0.24566929;stroke-miterlimit:4;stroke-dasharray:none;stroke-opacity:1;paint-order:stroke fill markers"
     id="path849"
     cx="404.43686"
     cy="128.38603"
     rx="3.6473305"
     ry="3.3347023" />
  <ellipse
     style="fill:#00ff00;fill-opacity:1;stroke:#00ff00;stroke-width:0.24566929;stroke-miterlimit:4;stroke-dasharray:none;stroke-opacity:1;paint-order:stroke fill markers"
     id="path851"
     cx="452.06058"
     cy="53.980492"
     rx="2.7094455"
     ry="3.1262834" />
  <ellipse
     style="fill:#00ff00;fill-opacity:1;stroke:#00ff00;stroke-width:0.24566929;stroke-miterlimit:4;stroke-dasharray:none;stroke-opacity:1;paint-order:stroke fill markers"
     id="path853"
     cx="288.76437"
     cy="90.662216"
     rx="2.8136551"
     ry="2.5010266" />
  <ellipse
     style="fill:#00ff00;fill-opacity:1;stroke:#00ff00;stroke-width:0.24566929;stroke-miterlimit:4;stroke-dasharray:none;stroke-opacity:1;paint-order:stroke fill markers"
     id="path855"
     cx="1073.2531"
     cy="687.88654"
     rx="3.4389117"
     ry="3.2304928" />
  <ellipse
     style="fill:#00ff00;fill-opacity:1;stroke:#00ff00;stroke-width:0.24566929;stroke-miterlimit:4;stroke-dasharray:none;stroke-opacity:1;paint-order:stroke fill markers"
     id="path857"
     cx="1017.3968"
     cy="608.89581"
     rx="3.022074"
     ry="2.6052361" />
  <path
     style="fill:none;fill-opacity:1;stroke:#00ff00;stroke-width:1.13385832;stroke-miterlimit:4;stroke-dasharray:none;stroke-opacity:1;paint-order:stroke fill markers"
     d="m 373.48665,655.26899 c 0.55579,-2.22313 0.81629,-4.54175 1.66735,-6.6694 0.21842,-0.54605 4.35515,-4.35515 5.00206,-5.00205 0.55578,-0.55579 1.31584,-0.96434 1.66735,-1.66735 0.24855,-0.49711 -0.393,-1.27436 0,-1.66736 0.393,-0.39299 1.27435,0.393 1.66735,0 0.393,-0.39299 -0.393,-1.27435 0,-1.66735 0.393,-0.393 1.27435,0.393 1.66735,0 0.393,-0.393 -0.393,-1.27435 0,-1.66735 0.393,-0.393 1.27435,0.393 1.66735,0 0.393,-0.393 -0.393,-1.27435 0,-1.66735 0.393,-0.393 1.27435,0.393 1.66735,0 0.393,-0.393 0,-1.11157 0,-1.66735 0,-0.61231 0.0671,-6.60231 0,-6.66941 -2.22313,-2.22313 -1.66735,2.77892 -1.66735,-1.66735 0,-0.55578 0,-1.11156 0,-1.66735 0,-0.55578 0.393,-1.27435 0,-1.66735 -0.393,-0.393 -1.27435,0.393 -1.66735,0 -0.83368,-0.83367 0.83368,-4.16838 0,-5.00205 -0.393,-0.393 -1.27435,0.393 -1.66735,0 -0.40122,-0.40122 0.40122,-6.26819 0,-6.66941 -0.393,-0.39299 -1.27435,0.393 -1.66735,0 -0.786,-0.78599 0.78599,-2.5487 0,-3.3347 -0.393,-0.393 -1.27435,0.393 -1.66735,0 -0.786,-0.786 0.78599,-2.5487 0,-3.3347 -0.393,-0.393 -1.27436,0.393 -1.66735,0 -0.83368,-0.83368 0.83367,-4.16838 0,-5.00205 -0.393,-0.393 -1.27436,0.39299 -1.66736,0 -0.34086,-0.34087 0.33055,-4.34097 0,-5.00206 -0.3515,-0.70301 -1.31584,-0.96433 -1.66735,-1.66735 -0.45226,-0.90452 0.45623,-6.21318 0,-6.6694 -0.39299,-0.393 -1.27435,0.393 -1.66735,0 -0.393,-0.393 0,-1.11157 0,-1.66735 0,-2.77892 0,-5.55784 0,-8.33676 0,-3.89049 0,-7.78097 0,-11.67146 0,-0.55578 -0.393,-1.27435 0,-1.66735 0.393,-0.393 1.27436,0.393 1.66735,0 0.393,-0.393 -0.39299,-1.27435 0,-1.66735 0.393,-0.393 1.27436,0.393 1.66735,0 0.393,-0.393 -0.39299,-1.27435 0,-1.66735 0.393,-0.393 1.17025,0.24855 1.66736,0 0.70301,-0.35151 0.96433,-1.31584 1.66735,-1.66735 1.04796,-0.52399 5.62143,0.52398 6.6694,0 0.70302,-0.35151 0.96434,-1.31585 1.66735,-1.66735 0.66109,-0.33055 4.66119,0.34086 5.00206,0 0.39299,-0.393 -0.393,-1.27436 0,-1.66735 0.40121,-0.40122 6.26818,0.40121 6.6694,0 0.393,-0.393 -0.393,-1.27436 0,-1.66736 0.0536,-0.0536 4.59768,0 5.00205,0 0.8719,0 6.23099,0.21921 6.66941,0 0.70302,-0.3515 0.96433,-1.31584 1.66735,-1.66735 1.15169,-0.57584 7.75148,0.58528 8.33676,0 0.39299,-0.393 -0.393,-1.27435 0,-1.66735 0.78599,-0.78599 2.34048,0.49711 3.3347,0 0.70301,-0.35151 0.96433,-1.31584 1.66735,-1.66735 0.99421,-0.49711 2.34048,0.49711 3.3347,0 0.70302,-0.35151 0.96433,-1.31584 1.66735,-1.66735 0.99422,-0.49711 2.54871,0.786 3.3347,0 0.393,-0.393 -0.39299,-1.27435 0,-1.66735 0.34087,-0.34087 4.34097,0.33054 5.00206,0 0.70301,-0.35151 0.96433,-1.31584 1.66735,-1.66735 0.49711,-0.24856 1.17024,0.24855 1.66735,0 0.70302,-0.35151 0.96433,-1.31585 1.66735,-1.66735 0.49711,-0.24856 1.17024,0.24855 1.66735,0 0.70302,-0.35151 0.96434,-1.31585 1.66735,-1.66735 0.49711,-0.24856 1.17025,0.24855 1.66735,0 0.70302,-0.35151 0.96434,-1.31585 1.66736,-1.66736 0.4971,-0.24855 1.27435,0.393 1.66735,0 0.39299,-0.39299 -0.393,-1.27435 0,-1.66735 0.78599,-0.78599 2.34048,0.49711 3.3347,0 0.70302,-0.35151 0.96433,-1.31584 1.66735,-1.66735 0.49711,-0.24855 1.11157,0 1.66735,0 0.55578,-0.55578 0.96434,-1.31584 1.66735,-1.66735 0.99422,-0.49711 2.34049,0.49711 3.3347,0 0.70302,-0.35151 0.96434,-1.31584 1.66736,-1.66735 0.99421,-0.49711 2.5487,0.786 3.3347,0 0.393,-0.393 -0.393,-1.27435 0,-1.66735 0.78599,-0.786 2.5487,0.786 3.3347,0 0.393,-0.393 -0.393,-1.27435 0,-1.66735 0.393,-0.393 1.17024,0.24855 1.66735,0 0.70302,-0.35151 0.96434,-1.31585 1.66735,-1.66735 0.49711,-0.24856 1.11157,0 1.66735,0 0.55579,-0.55579 0.96434,-1.31585 1.66735,-1.66735 0.49711,-0.24856 1.17025,0.24855 1.66736,0 0.70301,-0.35151 0.96433,-1.31585 1.66735,-1.66736 0.4971,-0.24855 1.27435,0.393 1.66735,0 0.393,-0.39299 -0.393,-1.27435 0,-1.66735 0.393,-0.393 1.17024,0.24856 1.66735,0 0.70302,-0.35151 0.96433,-1.31584 1.66735,-1.66735 0.49711,-0.24855 1.11157,0 1.66735,0 0.55579,-0.55578 0.96434,-1.31584 1.66735,-1.66735 0.49711,-0.24855 1.17025,0.24855 1.66735,0 1.40604,-0.70302 1.92867,-2.63168 3.33471,-3.3347 0.4971,-0.24856 1.17024,0.24855 1.66735,0 0.70301,-0.35151 0.96433,-1.31584 1.66735,-1.66735 0.49711,-0.24856 1.27435,0.393 1.66735,0 0.393,-0.393 -0.393,-1.27436 0,-1.66735 0.393,-0.393 1.17024,0.24855 1.66735,0 5.52991,-5.52991 -1.57199,0.78599 3.3347,-1.66736 1.80706,-0.90352 1.52765,-2.43117 3.3347,-3.3347 0.49711,-0.24855 1.17025,0.24856 1.66736,0 0.70301,-0.35151 0.96433,-1.31584 1.66735,-1.66735 0.49711,-0.24855 1.17024,0.24856 1.66735,0 1.40603,-0.70302 1.92867,-2.63168 3.3347,-3.3347 0.49711,-0.24855 1.17024,0.24855 1.66735,0 5.52991,-5.52991 -1.57199,0.786 3.3347,-1.66735 0.70302,-0.35151 1.01337,-1.23136 1.66735,-1.66735 1.03405,-0.68937 2.30066,-0.97799 3.33471,-1.66735 1.30798,-0.87199 1.92867,-2.63169 3.3347,-3.33471 0.49711,-0.24855 1.17024,0.24856 1.66735,0 1.27367,-0.63683 3.87301,-4.6257 5.00205,-5.00205 1.05453,-0.35151 2.28018,0.35151 3.33471,0 1.49132,-0.49711 1.92866,-2.63169 3.3347,-3.3347 0.49711,-0.24856 1.17024,0.24855 1.66735,0 0.70302,-0.35151 1.01336,-1.23136 1.66735,-1.66735 0.83967,-3.67345 3.43006,-0.88136 5.00205,-1.66735 1.40604,-0.70302 1.92867,-2.63169 3.33471,-3.33471 0.4971,-0.24855 1.17024,0.24856 1.66735,0 5.52991,-5.5299 -1.572,0.786 3.3347,-1.66735 1.40603,-0.70301 1.92867,-2.63168 3.3347,-3.3347 0.49711,-0.24855 1.17025,0.24855 1.66735,0 1.40604,-0.70302 1.92867,-2.63169 3.33471,-3.3347 0.4971,-0.24856 1.17024,0.24855 1.66735,0 1.40603,-0.70302 1.92866,-2.63169 3.3347,-3.3347 0.49711,-0.24856 1.17024,0.24855 1.66735,0 2.00082,-1.00042 3.00123,-4.00165 5.00205,-5.00206 0.49711,-0.24855 1.17025,0.24856 1.66735,0 2.00083,-1.00041 3.00124,-4.00164 5.00206,-5.00205 0.49711,-0.24856 1.17024,0.24855 1.66735,0 0.70302,-0.35151 1.11157,-1.11157 1.66735,-1.66735 1.66735,-1.66735 3.3347,-3.3347 5.00205,-5.00206 0.55579,-0.55578 1.01337,-1.23135 1.66735,-1.66735 1.11157,-0.55578 2.22314,-1.11156 3.33471,-1.66735 0.55578,0 1.17024,0.24856 1.66735,0 1.40603,-0.70301 2.02672,-2.46271 3.3347,-3.3347 1.03405,-0.68937 2.30066,-0.97799 3.3347,-1.66735 2.45347,-1.63564 4.21594,-5.03376 6.66941,-6.66941 1.03404,-0.68936 2.30065,-0.97798 3.3347,-1.66735 2.45346,-1.63564 4.21594,-5.03376 6.6694,-6.6694 1.03405,-0.68937 2.30066,-0.97799 3.33471,-1.66735 1.92386,-1.28258 3.07818,-3.71948 5.00205,-5.00206 1.03405,-0.68936 2.30065,-0.97798 3.3347,-1.66735 1.51782,-1.01187 3.52422,-4.26313 5.00205,-5.00205 0.49711,-0.24855 1.11157,0 1.66736,0 1.11156,-0.55578 2.30065,-0.97799 3.3347,-1.66735 1.30798,-0.87199 2.02672,-2.46272 3.3347,-3.3347 1.03405,-0.68937 2.30066,-0.97799 3.3347,-1.66735 1.30798,-0.87199 2.02673,-2.46272 3.33471,-3.33471 1.03404,-0.68936 2.30065,-0.97798 3.3347,-1.66735 1.30798,-0.87198 2.22313,-2.22313 3.3347,-3.3347 2.77892,-2.77892 5.55784,-5.55784 8.33676,-8.33676 0.55578,-0.55578 1.11156,-1.11156 1.66735,-1.66735 0.55578,-0.55578 0.96433,-1.31584 1.66735,-1.66735 0.49711,-0.24855 1.17024,0.24856 1.66735,0 1.40603,-0.70302 1.92867,-2.63168 3.3347,-3.3347 0.49711,-0.24855 1.17024,0.24855 1.66735,0 1.40604,-0.70302 1.92867,-2.63169 3.3347,-3.3347 0.49711,-0.24856 1.17025,0.24855 1.66736,0 2.00082,-1.00041 3.00123,-4.00165 5.00205,-5.00206 0.49711,-0.24855 1.17024,0.24856 1.66735,0 0.70302,-0.3515 0.92169,-1.41879 1.66735,-1.66735 1.05453,-0.35151 2.28018,0.35151 3.3347,0 0.74567,-0.24855 0.96434,-1.31584 1.66735,-1.66735 0.49711,-0.24855 1.17025,0.24856 1.66736,0 0.70301,-0.35151 0.92168,-1.4188 1.66735,-1.66735 1.05452,-0.35151 2.28017,0.35151 3.3347,0 0.74566,-0.24855 0.96433,-1.31584 1.66735,-1.66735 0.49711,-0.24855 1.17024,0.24855 1.66735,0 1.40604,-0.70302 1.84338,-2.8376 3.3347,-3.3347 1.05453,-0.35151 2.28018,0.35151 3.33471,0 0.74566,-0.24856 0.96433,-1.31585 1.66735,-1.66735 0.4971,-0.24856 1.17024,0.24855 1.66735,0 0.70301,-0.35151 0.96433,-1.31585 1.66735,-1.66736 0.49711,-0.24855 1.17024,0.24856 1.66735,0 0.70302,-0.3515 0.96433,-1.31584 1.66735,-1.66735 0.49711,-0.24855 1.17024,0.24856 1.66735,0 7.63081,-3.8154 -7.07526,0.69107 5.00206,-3.3347 0.52726,-0.17575 1.11156,0 1.66735,0 0.55578,-0.55578 0.96433,-1.31584 1.66735,-1.66735 0.49711,-0.24855 1.17024,0.24855 1.66735,0 0.70302,-0.35151 0.92169,-1.4188 1.66735,-1.66735 1.05453,-0.35151 2.28018,0.35151 3.3347,0 0.74566,-0.24856 0.96434,-1.31584 1.66735,-1.66735 0.49711,-0.24856 1.17025,0.24855 1.66735,0 0.70302,-0.35151 0.96434,-1.31584 1.66736,-1.66735 0.99421,-0.49711 2.34048,0.4971 3.3347,0 0.70302,-0.35151 0.96433,-1.31585 1.66735,-1.66735 0.49711,-0.24856 1.17024,0.24855 1.66735,0 0.70302,-0.35151 0.96433,-1.31585 1.66735,-1.66736 0.49711,-0.24855 1.17024,0.24856 1.66735,0 0.70302,-0.3515 0.96434,-1.31584 1.66735,-1.66735 0.49711,-0.24855 1.17025,0.24856 1.66735,0 0.70302,-0.35151 1.01337,-1.23136 1.66736,-1.66735 -0.18988,-3.15867 3.89048,-1.11157 5.00205,-1.66735 0.70302,-0.35151 0.96433,-1.31584 1.66735,-1.66735 0.49711,-0.24855 1.17024,0.24855 1.66735,0 2.00082,-1.00041 3.00123,-4.00164 5.00206,-5.00205 0.4971,-0.24856 1.17024,0.24855 1.66735,0 1.40603,-0.70302 1.92866,-2.63169 3.3347,-3.33471 0.49711,-0.24855 1.17024,0.24856 1.66735,0 1.40603,-0.70301 1.92867,-2.63168 3.3347,-3.3347 0.49711,-0.24855 1.17024,0.24856 1.66735,0 1.40604,-0.70301 1.92867,-2.63168 3.33471,-3.3347 0.4971,-0.24855 1.17024,0.24855 1.66735,0 1.40603,-0.70302 1.92866,-2.63169 3.3347,-3.3347 0.49711,-0.24856 1.14009,0.17575 1.66735,0 1.179,-0.393 2.15571,-1.27436 3.3347,-1.66735 0.52726,-0.17576 1.17025,0.24855 1.66735,0 1.40604,-0.70302 1.92867,-2.63169 3.33471,-3.33471 0.4971,-0.24855 1.14008,0.17576 1.66735,0 1.17899,-0.39299 2.1557,-1.27435 3.3347,-1.66735 0.52726,-0.17575 1.17024,0.24856 1.66735,0 1.40603,-0.70301 1.84338,-2.83759 3.3347,-3.3347 1.05453,-0.35151 2.28018,0.35151 3.3347,0 0.74567,-0.24855 0.96434,-1.31584 1.66736,-1.66735 0.4971,-0.24855 1.11156,0 1.66735,0 1.11156,-0.55578 2.30065,-0.97799 3.3347,-1.66735 0.65399,-0.43599 0.96433,-1.31584 1.66735,-1.66735 0.49711,-0.24856 1.17024,0.24855 1.66735,0 0.70302,-0.35151 0.96434,-1.31585 1.66735,-1.66735 0.49711,-0.24856 1.14009,0.17575 1.66735,0 12.07732,-4.02578 -2.62875,0.4807 5.00206,-3.33471 0.4971,-0.24855 1.17024,0.24856 1.66735,0 0.70301,-0.3515 0.96433,-1.31584 1.66735,-1.66735 0.49711,-0.24855 1.17024,0.24856 1.66735,0 0.70302,-0.35151 0.96433,-1.31584 1.66735,-1.66735 0.49711,-0.24855 1.17024,0.24856 1.66735,0 0.70302,-0.35151 0.96434,-1.31584 1.66735,-1.66735 0.49711,-0.24855 1.17025,0.24855 1.66735,0 0.70302,-0.35151 0.96434,-1.31584 1.66736,-1.66735 0.4971,-0.24855 1.17024,0.24855 1.66735,0 0.70301,-0.35151 0.96433,-1.31584 1.66735,-1.66735 0.49711,-0.24856 1.17024,0.24855 1.66735,0 0.70302,-0.35151 0.96433,-1.31584 1.66735,-1.66735 0.49711,-0.24856 1.17024,0.24855 1.66735,0 0.70302,-0.35151 0.96434,-1.31585 1.66735,-1.66735 4.9067,-2.45335 -2.1952,3.86255 3.3347,-1.66735 0.55579,-0.55579 0.96434,-1.31585 1.66736,-1.66736 0.4971,-0.24855 1.27435,0.393 1.66735,0 0.393,-0.39299 -0.393,-1.27435 0,-1.66735 0.393,-0.393 1.17024,0.24856 1.66735,0 5.52991,-5.5299 -1.572,0.786 3.3347,-1.66735 1.40603,-0.70302 1.92867,-2.63168 3.3347,-3.3347 0.49711,-0.24855 1.27436,0.393 1.66735,0 0.393,-0.393 -0.39299,-1.27435 0,-1.66735 0.393,-0.393 1.17025,0.24855 1.66735,0 0.70302,-0.35151 0.96434,-1.31584 1.66736,-1.66735 0.4971,-0.24856 1.27435,0.393 1.66735,0 0.393,-0.393 -0.393,-1.27436 0,-1.66735 0.393,-0.393 1.17024,0.24855 1.66735,0 2.00082,-1.00041 3.00123,-4.00165 5.00205,-5.00206 0.49711,-0.24855 1.11157,0 1.66735,0 0.55579,-0.55578 0.96434,-1.31584 1.66735,-1.66735 0.49711,-0.24855 1.27436,0.393 1.66736,0 0.39299,-0.393 -0.393,-1.27435 0,-1.66735 0.78599,-0.786 2.5487,0.786 3.3347,0 0.393,-0.393 -0.393,-1.27435 0,-1.66735 0.78599,-0.786 2.34048,0.49711 3.3347,0 0.70302,-0.35151 0.96433,-1.31584 1.66735,-1.66735 1.33388,-0.66694 3.66817,0.66694 5.00205,0 0.70302,-0.35151 0.96434,-1.31584 1.66736,-1.66735 0.14213,-0.0711 6.52726,-0.0711 6.6694,0 0.70302,0.35151 0.96433,1.31584 1.66735,1.66735 0.99422,0.49711 2.34049,-0.49711 3.3347,0 0.70302,0.35151 0.96434,1.31584 1.66735,1.66735 0.99422,0.49711 2.34049,-0.49711 3.33471,0 0.70301,0.35151 0.96433,1.31584 1.66735,1.66735 0.99421,0.49711 2.28017,-0.35151 3.3347,0 1.179,0.393 2.15571,1.27435 3.3347,1.66735 0.52726,0.17576 1.17025,-0.24855 1.66735,0 0.70302,0.35151 0.96434,1.31584 1.66735,1.66735 0.49711,0.24856 1.11157,0 1.66736,0 1.11156,0.55579 2.30065,0.97799 3.3347,1.66735 0.65399,0.436 0.92169,1.4188 1.66735,1.66735 1.05452,0.35151 2.28018,-0.3515 3.3347,0 0.74566,0.24856 1.01336,1.23136 1.66735,1.66736 8.42314,5.61542 0.0386,0.0129 5.00206,1.66735 1.17899,0.393 2.30065,0.97798 3.3347,1.66735 0.65399,0.43599 0.92169,1.4188 1.66735,1.66735 1.05452,0.35151 2.28018,-0.35151 3.3347,0 0.74566,0.24855 0.92169,1.4188 1.66735,1.66735 1.05453,0.35151 2.25633,-0.26959 3.3347,0 1.20567,0.30142 2.15571,1.27435 3.33471,1.66735 0.52726,0.17576 1.14009,-0.17575 1.66735,0 1.17899,0.393 2.15571,1.27435 3.3347,1.66735 0.52726,0.17576 1.14009,-0.17575 1.66735,0 1.179,0.393 2.15571,1.27436 3.3347,1.66735 0.52727,0.17576 1.17025,-0.24855 1.66735,0 0.70302,0.35151 0.92169,1.4188 1.66736,1.66736 1.05452,0.3515 2.28017,-0.35151 3.3347,0 0.74566,0.24855 0.96433,1.31584 1.66735,1.66735 0.49711,0.24855 1.11157,0 1.66735,0 1.11157,0 2.28018,-0.35151 3.3347,0 0.74566,0.24855 0.96434,1.31584 1.66735,1.66735 0.49711,0.24855 1.14009,-0.17576 1.66736,0 1.17899,0.393 2.15567,1.27435 3.33467,1.66735 1.0546,0.35151 2.2802,-0.35151 3.3347,0 1.179,0.393 2.1557,1.27435 3.3347,1.66735 1.0546,0.35151 2.3405,-0.49711 3.3347,0 0.7031,0.35151 0.9644,1.31584 1.6674,1.66735 1.3339,0.66694 3.6682,-0.66694 5.002,0 4.1207,2.06035 -0.5755,1.66735 3.3347,1.66735 0.6124,0 6.6023,-0.0671 6.6694,0 0.393,0.393 -0.393,1.27435 0,1.66735 0.4013,0.40122 6.2682,-0.40121 6.6694,0 0.393,0.393 -0.3929,1.27436 0,1.66735 0.8337,0.83368 4.1684,-0.83367 5.0021,0 0.393,0.393 -0.393,1.27436 0,1.66736 0.8337,0.83367 4.1684,-0.83368 5.0021,0 0.393,0.39299 -0.393,1.27435 0,1.66735 0.786,0.78599 2.3404,-0.49711 3.3347,0 0.703,0.3515 0.9643,1.31584 1.6673,1.66735 0.6611,0.33054 4.6612,-0.34087 5.0021,0 0.393,0.393 -0.393,1.27435 0,1.66735 0.4562,0.45622 5.7649,-0.45226 6.6694,0 0.703,0.35151 0.9643,1.31584 1.6673,1.66735 1.0519,0.52594 7.2849,-0.52594 8.3368,0 0.703,0.35151 0.9643,1.31584 1.6673,1.66735 1.0125,0.50623 8.9917,-0.50623 10.0041,0 0.703,0.35151 0.9644,1.31584 1.6674,1.66735 0.5074,0.25372 4.2511,0 5.002,0 1.1597,0 7.7338,-0.30148 8.3368,0 0.703,0.35151 1.6673,0.88136 1.6673,1.66735 0,0.55579 -1.14,-0.17575 -1.6673,0 -1.179,0.393 -2.2231,1.11157 -3.3347,1.66735"
     id="path1858"
     inkscape:connector-curvature="0" />
</svg>
