<?xml version="1.0" encoding="UTF-8" standalone="no"?>
<!-- Created with Inkscape (http://www.inkscape.org/) -->

<svg
   xmlns:dc="http://purl.org/dc/elements/1.1/"
   xmlns:cc="http://creativecommons.org/ns#"
   xmlns:rdf="http://www.w3.org/1999/02/22-rdf-syntax-ns#"
   xmlns:svg="http://www.w3.org/2000/svg"
   xmlns="http://www.w3.org/2000/svg"
   xmlns:xlink="http://www.w3.org/1999/xlink"
   xmlns:sodipodi="http://sodipodi.sourceforge.net/DTD/sodipodi-0.dtd"
   xmlns:inkscape="http://www.inkscape.org/namespaces/inkscape"
   version="1.1"
   id="svg815"
   width="1110.6667"
   height="812"
   viewBox="0 0 1110.6667 812"
   sodipodi:docname="chr-ispytatelei-sampsonievskiy-ext.svg"
   inkscape:version="0.92.3 (2405546, 2018-03-11)">
  <metadata
     id="metadata821">
    <rdf:RDF>
      <cc:Work
         rdf:about="">
        <dc:format>image/svg+xml</dc:format>
        <dc:type
           rdf:resource="http://purl.org/dc/dcmitype/StillImage" />
        <dc:title></dc:title>
      </cc:Work>
    </rdf:RDF>
  </metadata>
  <defs
     id="defs819" />
  <sodipodi:namedview
     pagecolor="#ffffff"
     bordercolor="#666666"
     borderopacity="1"
     objecttolerance="10"
     gridtolerance="10"
     guidetolerance="10"
     inkscape:pageopacity="0"
     inkscape:pageshadow="2"
     inkscape:window-width="1366"
     inkscape:window-height="715"
     id="namedview817"
     showgrid="false"
     inkscape:zoom="0.5997537"
     inkscape:cx="546.04832"
     inkscape:cy="412.42048"
     inkscape:window-x="0"
     inkscape:window-y="0"
     inkscape:window-maximized="1"
     inkscape:current-layer="svg815"
     fit-margin-top="0"
     fit-margin-left="0"
     fit-margin-right="0"
     fit-margin-bottom="0"
     showguides="false" />
  <image
     sodipodi:absref="/home/aanper/project/luysy-imn-eh/pi/boot/bydefault/web/svg/../img/chr.png"
     xlink:href="../img/chr.png"
     y="0"
     x="0"
     id="image823"
     preserveAspectRatio="none"
     height="812"
     width="1110.6667" />
  <ellipse
     style="fill:#00ff00;fill-opacity:1;stroke:#00ff00;stroke-width:1.00157475;stroke-miterlimit:4;stroke-dasharray:none;stroke-opacity:1;paint-order:stroke fill markers"
     id="path832"
     cx="377.23819"
     cy="655.68585"
     rx="6.2525668"
     ry="5.8357291" />
  <ellipse
     style="fill:#00ff00;fill-opacity:1;stroke:#00ff00;stroke-width:0.24566929;stroke-miterlimit:4;stroke-dasharray:none;stroke-opacity:1;paint-order:stroke fill markers"
     id="path843"
     cx="606.49896"
     cy="399.22638"
     rx="2.7094455"
     ry="2.1883984" />
  <circle
     style="fill:#00ff00;fill-opacity:1;stroke:#00ff00;stroke-width:0.24566929;stroke-miterlimit:4;stroke-dasharray:none;stroke-opacity:1;paint-order:stroke fill markers"
     id="path845"
     cx="475.19507"
     cy="635.2608"
     r="3.7515399" />
  <ellipse
     style="fill:#00ff00;fill-opacity:1;stroke:#00ff00;stroke-width:0.24566929;stroke-miterlimit:4;stroke-dasharray:none;stroke-opacity:1;paint-order:stroke fill markers"
     id="path847"
     cx="871.39941"
     cy="165.69302"
     rx="2.7094455"
     ry="2.5010266" />
  <ellipse
     style="fill:#00ff00;fill-opacity:1;stroke:#00ff00;stroke-width:0.24566929;stroke-miterlimit:4;stroke-dasharray:none;stroke-opacity:1;paint-order:stroke fill markers"
     id="path849"
     cx="404.43686"
     cy="128.38603"
     rx="3.6473305"
     ry="3.3347023" />
  <ellipse
     style="fill:#00ff00;fill-opacity:1;stroke:#00ff00;stroke-width:0.24566929;stroke-miterlimit:4;stroke-dasharray:none;stroke-opacity:1;paint-order:stroke fill markers"
     id="path851"
     cx="452.06058"
     cy="53.980492"
     rx="2.7094455"
     ry="3.1262834" />
  <ellipse
     style="fill:#00ff00;fill-opacity:1;stroke:#00ff00;stroke-width:0.24566929;stroke-miterlimit:4;stroke-dasharray:none;stroke-opacity:1;paint-order:stroke fill markers"
     id="path853"
     cx="288.76437"
     cy="90.662216"
     rx="2.8136551"
     ry="2.5010266" />
  <ellipse
     style="fill:#00ff00;fill-opacity:1;stroke:#00ff00;stroke-width:0.24566929;stroke-miterlimit:4;stroke-dasharray:none;stroke-opacity:1;paint-order:stroke fill markers"
     id="path855"
     cx="1073.2531"
     cy="687.88654"
     rx="3.4389117"
     ry="3.2304928" />
  <ellipse
     style="fill:#00ff00;fill-opacity:1;stroke:#00ff00;stroke-width:0.24566929;stroke-miterlimit:4;stroke-dasharray:none;stroke-opacity:1;paint-order:stroke fill markers"
     id="path857"
     cx="1017.3968"
     cy="608.89581"
     rx="3.022074"
     ry="2.6052361" />
  <path
     style="fill:none;fill-opacity:1;stroke:#00ff00;stroke-width:1.13385832;stroke-miterlimit:4;stroke-dasharray:none;stroke-opacity:1;paint-order:stroke fill markers"
     d="m 291.78645,90.036962 c 2.22313,-0.555784 4.37785,-1.667351 6.6694,-1.667351 0.786,0 0.96434,1.315843 1.66735,1.667351 0.50743,0.253716 4.25115,0 5.00206,0 3.3347,0 6.6694,0 10.0041,0 0.55579,0 1.11157,0 1.66735,0 0.55579,0 1.27436,-0.392998 1.66736,0 0.39299,0.392998 -0.393,1.274353 0,1.667351 0.78599,0.785997 2.5487,-0.785997 3.3347,0 0.393,0.392999 -0.393,1.274353 0,1.667351 0.393,0.392999 1.17024,-0.248554 1.66735,0 0.70302,0.351509 0.96433,1.315843 1.66735,1.667351 0.49711,0.248554 1.17024,-0.248554 1.66735,0 0.70302,0.351509 0.96434,1.315843 1.66735,1.667352 0.99422,0.497108 2.34049,-0.497108 3.3347,0 0.70302,0.351508 0.96434,1.315842 1.66736,1.667351 0.99421,0.497108 2.5487,-0.785997 3.3347,0 0.393,0.392998 -0.393,1.274352 0,1.667352 0.78599,0.786 2.5487,-0.785998 3.3347,0 0.393,0.393 -0.393,1.27435 0,1.66735 0.34087,0.34087 4.34096,-0.33055 5.00205,0 0.70302,0.35151 0.96434,1.31584 1.66735,1.66735 1.01246,0.50623 8.99166,-0.50623 10.00411,0 0.70302,0.35151 0.96434,1.31584 1.66735,1.66735 0.4311,0.21555 8.82229,0 10.00411,0 0.55578,0 1.17024,-0.24855 1.66735,0 0.70302,0.35151 0.96433,1.31584 1.66735,1.66735 0.50743,0.25372 4.25115,0 5.00205,0 3.33471,0 6.66941,0 10.00411,0 0.55579,0 1.11157,0 1.66735,0 0.55579,0 1.17025,-0.24855 1.66735,0 0.70302,0.35151 0.96434,1.31585 1.66735,1.66735 0.4311,0.21555 8.82229,0 10.00411,0 0.55579,0 1.11157,0 1.66735,0 0.55579,0 1.27436,-0.39299 1.66735,0 0.393,0.393 -0.39299,1.27436 0,1.66736 0.393,0.39299 1.11157,0 1.66735,0 1.11157,0 2.22314,0 3.33471,0 0.55578,0 1.66735,-0.55579 1.66735,0 0,0.55578 -1.66735,0.55578 -1.66735,0 0,-0.55579 1.11156,0 1.66735,0 0.55578,0 1.11157,0 1.66735,0 0.55578,0 1.27435,-0.393 1.66735,0 0.393,0.39299 -0.393,1.27435 0,1.66735 0.34087,0.34086 4.34096,-0.33055 5.00205,0 0.70302,0.35151 0.96434,1.31584 1.66736,1.66735 0.4971,0.24855 1.11156,0 1.66735,0 0.55578,0.55578 0.96433,1.31584 1.66735,1.66735 0.99421,0.49711 2.5487,-0.786 3.3347,0 0.393,0.393 -0.393,1.27435 0,1.66735 0.83368,0.83368 4.16838,-0.83368 5.00205,0 0.393,0.393 -0.393,1.27435 0,1.66735 0.45623,0.45623 5.76489,-0.45226 6.66941,0 0.70301,0.35151 0.96433,1.31584 1.66735,1.66735 0.49711,0.24856 1.11157,0 1.66735,0 0.55578,0 1.11157,0 1.66735,0 3.3347,0 6.66941,0 10.00411,0 0.55578,0 1.11157,0 1.66735,0 0.55578,0 1.27435,-0.393 1.66735,0 0.393,0.393 -0.393,1.27436 0,1.66735 0.393,0.393 1.11157,0 1.66735,0 1.18182,0 9.57301,-0.21554 10.00411,0 0.70301,0.35151 0.96433,1.31585 1.66735,1.66735 0.43841,0.21921 5.79751,0 6.6694,0 3.33471,0 6.66941,0 10.00411,0 0.55578,0 1.11157,0 1.66735,0 0.55579,0 1.17024,-0.24855 1.66735,0 0.70302,0.35151 0.96434,1.31585 1.66735,1.66736 1.01246,0.50622 8.99166,-0.50623 10.00411,0 0.70302,0.3515 0.96433,1.31584 1.66735,1.66735 1.05188,0.52594 7.28488,-0.52594 8.33676,0 0.70301,0.35151 0.96433,1.31584 1.66735,1.66735 1.33388,0.66694 3.66817,-0.66694 5.00205,0 0.70302,0.35151 0.96434,1.31584 1.66735,1.66735 1.33388,0.66694 3.66818,-0.66694 5.00206,0 0.70301,0.35151 0.96433,1.31584 1.66735,1.66735 1.77572,0.88786 1.55898,-0.88786 3.3347,0 0.70302,0.35151 0.96433,1.31584 1.66735,1.66735 0.66109,0.33055 4.66119,-0.34087 5.00205,0 0.393,0.393 -0.39299,1.27435 0,1.66735 0.786,0.786 2.34049,-0.49711 3.33471,0 0.70301,0.35151 0.96433,1.31585 1.66735,1.66735 0.49711,0.24856 1.17024,-0.24855 1.66735,0 0.70302,0.35151 0.96433,1.31585 1.66735,1.66735 0.49711,0.24856 1.17024,-0.24855 1.66735,0 0.70302,0.35151 0.96433,1.31585 1.66735,1.66736 0.49711,0.24855 1.17024,-0.24856 1.66735,0 0.70302,0.3515 0.96434,1.31584 1.66735,1.66735 0.49711,0.24855 1.17025,-0.24856 1.66736,0 0.70301,0.35151 0.96433,1.31584 1.66735,1.66735 0.4971,0.24855 1.27435,-0.393 1.66735,0 0.393,0.393 -0.393,1.27435 0,1.66735 0.78599,0.786 2.5487,-0.786 3.3347,0 0.393,0.393 -0.393,1.27435 0,1.66735 0.786,0.786 2.34049,-0.49711 3.3347,0 0.70302,0.35151 0.96434,1.31584 1.66735,1.66735 0.49711,0.24856 1.11157,0 1.66735,0 0.55579,0.55579 0.96434,1.31584 1.66736,1.66735 1.33388,0.66694 3.66817,-0.66694 5.00205,0 4.1207,2.06035 -0.57553,1.66735 3.3347,1.66735 0.61231,0 6.60231,-0.0671 6.66941,0 0.39299,0.393 -0.393,1.27436 0,1.66735 0.39299,0.393 1.11156,0 1.66735,0 1.15971,0 7.73378,-0.30148 8.33675,0 0.70302,0.35151 0.96434,1.31585 1.66735,1.66736 0.49711,0.24855 1.11157,0 1.66735,0 0.55579,0 1.11157,0 1.66736,0 3.3347,0 6.6694,0 10.0041,0 0.55579,0 1.11157,0 1.66735,0 0.55579,0 1.27436,0.39299 1.66735,0 0.393,-0.393 -0.39299,-1.27436 0,-1.66736 0.40122,-0.40121 6.26819,0.40122 6.66941,0 0.393,-0.39299 -0.393,-1.27435 0,-1.66735 0.34087,-0.34086 4.34096,0.33055 5.00205,0 0.70302,-0.3515 0.96434,-1.31584 1.66735,-1.66735 1.04797,-0.52398 5.62144,0.52399 6.66941,0 0.70302,-0.35151 0.96433,-1.31584 1.66735,-1.66735 1.33388,-0.66694 3.66817,0.66694 5.00205,0 0.70302,-0.35151 0.96434,-1.31584 1.66735,-1.66735 1.04797,-0.52398 5.62144,0.52398 6.66941,0 0.70302,-0.35151 0.96433,-1.31584 1.66735,-1.66735 0.99422,-0.49711 2.34049,0.49711 3.3347,0 0.70302,-0.35151 0.96434,-1.31584 1.66735,-1.66735 1.33388,-0.66694 3.66818,0.66694 5.00206,0 0.70301,-0.35151 0.96433,-1.31584 1.66735,-1.66735 0.99421,-0.49711 2.34048,0.49711 3.3347,0 0.70302,-0.35151 0.96433,-1.31585 1.66735,-1.66735 1.33388,-0.66694 3.66817,0.66694 5.00205,0 0.70302,-0.35151 0.96434,-1.31585 1.66736,-1.66736 1.15169,-0.57584 7.75148,0.58528 8.33675,0 0.393,-0.39299 -0.393,-1.27435 0,-1.66735 0.45622,-0.45622 5.76489,0.45226 6.66941,0 0.70301,-0.3515 0.96433,-1.31584 1.66735,-1.66735 0.66109,-0.33054 4.66118,0.34087 5.00205,0 0.393,-0.393 -0.393,-1.27435 0,-1.66735 0.45622,-0.45622 5.76489,0.45226 6.6694,0 0.70302,-0.35151 0.96434,-1.31584 1.66736,-1.66735 1.15169,-0.57585 7.75148,0.58527 8.33675,0 0.393,-0.393 -0.393,-1.27435 0,-1.66735 0.0756,-0.0756 7.5506,0 8.33676,0 0.55578,0 1.27435,0.393 1.66735,0 0.393,-0.393 -0.393,-1.27435 0,-1.66735 0.45622,-0.45623 5.76489,0.45226 6.6694,0 0.70302,-0.35151 0.96434,-1.31584 1.66735,-1.66735 0.66109,-0.33055 4.66119,0.34086 5.00206,0 0.393,-0.393 -0.393,-1.27436 0,-1.66735 0.51629,-0.51629 7.82046,0.51629 8.33675,0 0.393,-0.393 -0.393,-1.27436 0,-1.66736 0.40122,-0.40121 6.26819,0.40122 6.66941,0 0.393,-0.39299 -0.393,-1.27435 0,-1.66735 0.45622,-0.45622 5.76488,0.45226 6.6694,0 0.70302,-0.35151 0.96434,-1.31584 1.66735,-1.66735 0.90452,-0.45226 6.21318,0.45623 6.66941,0 0.393,-0.393 -0.393,-1.27435 0,-1.66735 0.78599,-0.786 2.5487,0.786 3.3347,0 0.393,-0.393 -0.393,-1.27435 0,-1.66735 0.786,-0.786 2.34049,0.49711 3.3347,0 0.70302,-0.35151 0.96434,-1.31584 1.66735,-1.66735 0.66109,-0.33055 4.66119,0.34087 5.00206,0 0.39299,-0.393 -0.393,-1.27435 0,-1.66735 0.39299,-0.393 1.11156,0 1.66735,0 4.44627,0 8.89254,0 13.33881,0 0.55578,0 1.11156,0 1.66735,0 0.55578,0 1.27435,0.393 1.66735,0 0.393,-0.393 -0.393,-1.27435 0,-1.66735 0.393,-0.393 1.11157,0 1.66735,0 2.77892,0 5.55784,0 8.33676,0 3.89048,0 7.78097,0 11.67145,0 0.75091,0 4.49463,0.25371 5.00206,0 0.70301,-0.35151 0.96433,-1.31585 1.66735,-1.66735 0.43841,-0.21921 5.79751,0 6.6694,0 5.00206,0 10.00411,0 15.00616,0 0.61231,0 6.60231,0.0671 6.66941,0 0.393,-0.393 -0.393,-1.27436 0,-1.66736 0.393,-0.39299 1.11156,0 1.66735,0 0.55578,0 1.11157,0 1.66735,0 4.44627,0 8.89254,0 13.33881,0 0.55578,0 1.11157,0 1.66735,0 0.55578,0 1.27435,0.393 1.66735,0 0.393,-0.39299 -0.55578,-1.66735 0,-1.66735 0.786,0 1.11157,1.11157 1.66735,1.66735 0.55579,0.55579 1.31584,0.96434 1.66735,1.66736 0.49711,0.99421 -0.78599,2.5487 0,3.3347 0.393,0.393 1.27436,-0.393 1.66735,0 0.786,0.78599 -0.4971,2.34048 0,3.3347 0.70302,1.40603 2.63169,1.92867 3.33471,3.3347 0.24855,0.49711 -0.24856,1.17025 0,1.66735 0.3515,0.70302 1.31584,0.96434 1.66735,1.66735 0.52398,1.04797 -0.52399,5.62144 0,6.66941 0.35151,0.70302 1.31584,0.96433 1.66735,1.66735 0.49711,0.99422 -0.49711,2.34049 0,3.3347 0.35151,0.70302 1.31584,0.96434 1.66735,1.66735 0.49711,0.99422 -0.786,2.54871 0,3.33471 0.393,0.39299 1.27435,-0.393 1.66735,0 0.40122,0.40121 -0.40122,6.26818 0,6.6694 0.393,0.393 1.27435,-0.393 1.66735,0 0.786,0.786 -0.786,2.54871 0,3.3347 0.393,0.393 1.27435,-0.393 1.66735,0 0.786,0.786 -0.78599,2.54871 0,3.3347 0.393,0.393 1.27436,-0.39299 1.66735,0 0.83368,0.83368 -0.83367,4.16838 0,5.00206 0.393,0.393 1.27436,-0.393 1.66736,0 0.45622,0.45622 -0.45226,5.76489 0,6.6694 0.3515,0.70302 1.31584,0.96434 1.66735,1.66735 0.2192,0.43842 0,5.79752 0,6.66941 0,4.44627 0,8.89254 0,13.33881 0,0.7509 -0.25372,4.49462 0,5.00205 0.3515,0.70302 1.31584,0.96433 1.66735,1.66735 0.57584,1.1517 -0.58528,7.75148 0,8.33676 0.393,0.393 1.27435,-0.393 1.66735,0 0.786,0.78599 -0.49711,2.34048 0,3.3347 0.35151,0.70302 1.31584,0.96433 1.66735,1.66735 0.49711,0.99422 -0.786,2.54871 0,3.3347 0.393,0.393 1.27435,-0.393 1.66735,0 0.83368,0.83368 -0.83367,4.16838 0,5.00206 0.393,0.393 1.27435,-0.393 1.66735,0 0.40122,0.40121 -0.40121,6.26818 0,6.6694 0.393,0.393 1.27435,-0.393 1.66735,0 0.393,0.393 0,1.11157 0,1.66735 0,3.3347 0,6.66941 0,10.00411 0,0.55578 -0.393,1.27435 0,1.66735 0.393,0.393 1.27436,-0.393 1.66735,0 0.58528,0.58527 -0.57584,7.18506 0,8.33676 0.35151,0.70301 1.31585,0.96433 1.66736,1.66735 0.4971,0.99421 -0.49711,2.34048 0,3.3347 0.3515,0.70302 1.31584,0.96433 1.66735,1.66735 0.66694,1.33388 -0.66694,3.66817 0,5.00205 0.3515,0.70302 1.31584,0.96434 1.66735,1.66735 0.49711,0.99422 -0.49711,2.34049 0,3.33471 0.35151,0.70301 1.31584,0.96433 1.66735,1.66735 0.49711,0.99421 -0.49711,2.34048 0,3.3347 0.35151,0.70302 1.31584,0.96433 1.66735,1.66735 0.66694,1.33388 -0.66694,3.66817 0,5.00205 0.35151,0.70302 1.31584,0.96434 1.66735,1.66736 0.52398,1.04796 -0.52398,5.62143 0,6.6694 0.35151,0.70302 1.31584,0.96433 1.66735,1.66735 0.52399,1.04797 -0.52398,5.62144 0,6.66941 0.35151,0.70301 1.31584,0.96433 1.66735,1.66735 0.49711,0.99421 -0.4971,2.34048 0,3.3347 0.35151,0.70302 1.31585,0.96433 1.66735,1.66735 0.24856,0.49711 -0.24855,1.17024 0,1.66735 0.35151,0.70302 1.31585,0.96434 1.66736,1.66735 0.24855,0.49711 0,1.11157 0,1.66735 0,0.55579 0,1.11157 0,1.66736 0,3.3347 0,6.6694 0,10.0041 0,0.55579 0,1.11157 0,1.66735 0,0.55579 -0.393,1.27436 0,1.66735 0.39299,0.393 1.27435,-0.39299 1.66735,0 0.0756,0.0756 0,7.55061 0,8.33676 0,0.55578 -0.393,1.27435 0,1.66735 0.39299,0.393 1.27435,-0.393 1.66735,0 0.34086,0.34087 -0.33055,4.34096 0,5.00205 0.35151,0.70302 1.31584,0.96434 1.66735,1.66736 0.52398,1.04796 -0.52398,5.62143 0,6.6694 0.35151,0.70302 1.31584,0.96433 1.66735,1.66735 0.21555,0.4311 0,8.82229 0,10.00411 0,0.7509 -0.25372,4.49462 0,5.00205 0.35151,0.70302 1.31584,0.96434 1.66735,1.66735 0.50623,1.01246 -0.50623,8.99166 0,10.00411 0.35151,0.70302 1.31584,0.96433 1.66735,1.66735 0.30149,0.60297 0,7.17705 0,8.33676 0,5.36712 -0.393,-2.84635 1.66735,3.3347 0.28633,0.85897 0,9.9077 0,11.67146 0,1.11156 -0.35151,2.28017 0,3.3347 0.393,1.17899 1.27436,2.15571 1.66735,3.3347 0.35151,1.05453 -0.4971,2.34049 0,3.3347 0.35151,0.70302 1.31585,0.96434 1.66736,1.66735 0.66694,1.33388 -0.66694,3.66818 0,5.00206 0.24855,0.49711 1.27435,-0.393 1.66735,0 0.78599,0.78599 -0.49711,2.34048 0,3.3347 0.35151,0.70302 1.31584,0.96433 1.66735,1.66735 0.49711,0.99422 -0.786,2.54871 0,3.3347 0.393,0.393 1.27435,-0.393 1.66735,0 0.786,0.786 -0.786,2.54871 0,3.33471 0.393,0.39299 1.27435,-0.393 1.66735,0 0.786,0.78599 -0.786,2.5487 0,3.3347 0.393,0.393 1.27435,-0.393 1.66735,0 0.786,0.78599 -0.786,2.5487 0,3.3347 0.393,0.393 1.27435,-0.393 1.66735,0 0.0671,0.0671 0,6.05709 0,6.6694 0,0.55579 0,1.11157 0,1.66736 0,0.55578 -0.24855,1.17024 0,1.66735 0.35151,0.70301 1.31584,0.96433 1.66735,1.66735 0.25372,0.50743 0,4.25115 0,5.00205 0,3.3347 0,6.66941 0,10.00411 0,0.55578 0,1.11157 0,1.66735 0,0.55578 -0.24855,1.17024 0,1.66735 0.35151,0.70302 1.31585,0.96433 1.66735,1.66735 0.24856,0.49711 0,1.11157 0,1.66735 0,0.55579 0,1.11157 0,1.66735 0,2.77892 0,5.55784 0,8.33676 0,0.55578 0,1.11157 0,1.66735 0,0.55578 -0.24855,1.17024 0,1.66735 0.35151,0.70302 1.31585,0.96434 1.66736,1.66735 0.66694,1.33388 -0.66694,3.66817 0,5.00206 0.3515,0.70301 1.31584,0.96433 1.66735,1.66735 0.66694,1.33388 -0.66694,3.66817 0,5.00205 0.35151,0.70302 1.31584,0.96433 1.66735,1.66735 0.66694,1.33388 -0.66694,3.66817 0,5.00205 0.35151,0.70302 1.31584,0.96434 1.66735,1.66736 0.66694,1.33388 -0.66694,3.66817 0,5.00205 0.35151,0.70302 1.31584,0.96433 1.66735,1.66735 0.52594,1.05188 -0.52594,7.28488 0,8.33676 0.35151,0.70301 1.31584,0.96433 1.66735,1.66735 0.21555,0.43109 0,8.82228 0,10.0041 0,8.33676 0,16.67352 0,25.01027 0,0.78615 -0.0756,8.26119 0,8.33676 0.393,0.39299 1.27435,-0.393 1.66735,0 0.34087,0.34086 -0.33054,4.34096 0,5.00205 0.35151,0.70302 1.31585,0.96433 1.66735,1.66735 0.33055,0.66109 -0.34086,4.66119 0,5.00205 0.393,0.393 1.27436,-0.39299 1.66735,0 0.786,0.786 -0.4971,2.34049 0,3.33471 0.35151,0.70301 1.31585,0.96433 1.66736,1.66735 0.24855,0.49711 -0.24856,1.17024 0,1.66735 0.70301,1.40603 2.63168,1.92867 3.3347,3.3347 0.24855,0.49711 -0.24856,1.17024 0,1.66735 0.35151,0.70302 1.31584,0.96434 1.66735,1.66735 0.24855,0.49711 -0.24855,1.17025 0,1.66735 0.35151,0.70302 1.31584,0.96434 1.66735,1.66736 0.24855,0.4971 -0.393,1.27435 0,1.66735 0.393,0.393 1.27435,-0.393 1.66735,0 0.786,0.78599 -0.49711,2.34048 0,3.3347 0.35151,0.70302 1.31584,0.96433 1.66735,1.66735 0.49711,0.99422 -0.78599,2.54871 0,3.3347 0.393,0.393 1.27436,-0.393 1.66735,0 0.786,0.786 -0.78599,2.54871 0,3.3347 0.393,0.393 1.27436,-0.39299 1.66735,0 0.786,0.786 -0.4971,2.34049 0,3.33471 0.35151,0.70301 1.31585,0.96433 1.66736,1.66735 0.4971,0.99421 -0.786,2.5487 0,3.3347 0.39299,0.393 1.27435,-0.393 1.66735,0 0.78599,0.786 -0.49711,2.34049 0,3.3347 0.35151,0.70302 1.31584,0.96434 1.66735,1.66735 0.49711,0.99422 -0.49711,2.34049 0,3.33471 0.35151,0.70301 1.31584,0.96433 1.66735,1.66735 0.52398,1.04796 -0.52398,5.62143 0,6.6694 0.35151,0.70302 1.31584,0.96434 1.66735,1.66735 0.52398,1.04797 -0.52398,5.62144 0,6.66941 0.35151,0.70301 1.31584,0.96433 1.66735,1.66735 0.45226,0.90452 -0.45622,6.21318 0,6.6694 2.22314,2.22314 1.66735,-2.77892 1.66735,1.66735 0,1.15971 -0.30148,7.73379 0,8.33676 0.35151,0.70302 1.31585,0.96433 1.66735,1.66735 0.24856,0.49711 0,1.11157 0,1.66735 0,0.55579 0,1.11157 0,1.66735 0,2.77892 0,5.55784 0,8.33676 0,0.55578 0,1.11157 0,1.66735 0,0.55578 -0.39299,1.27435 0,1.66735 0.393,0.393 1.27436,-0.393 1.66736,0 0.39299,0.393 0,1.11157 0,1.66735 0,2.77892 0,5.55784 0,8.33676 0,0.55578 -0.393,1.27435 0,1.66735 0.39299,0.393 1.27437,-0.393 1.66737,0 0.076,0.0756 0,7.5506 0,8.33675 0,0.55579 -0.393,1.27436 0,1.66736 0.393,0.39299 1.2743,-0.393 1.6673,0 0.3409,0.34086 -0.3305,4.34096 0,5.00205 0.3515,0.70302 1.3159,0.96433 1.6674,1.66735 0.6669,1.33388 -0.667,3.66817 0,5.00205 0.3515,0.70302 1.3158,0.96434 1.6673,1.66735 0.524,1.04797 -0.524,5.62144 0,6.66941 0.3515,0.70302 1.3159,0.96433 1.6674,1.66735 0.5259,1.05188 -0.526,7.28488 0,8.33676 0.3515,0.70301 1.3158,0.96433 1.6673,1.66735 0.2486,0.4971 0,1.11156 0,1.66735 0,0.55578 0,1.11157 0,1.66735 0,1.18182 -0.2155,9.57301 0,10.00411 0.3515,0.70301 1.3159,0.96433 1.6674,1.66735 0.4971,0.99421 -0.4971,2.34048 0,3.3347 0.3515,0.70302 1.3158,0.96433 1.6673,1.66735 0.2486,0.49711 0,1.11157 0,1.66735 0.5558,0.55579 1.3159,0.96434 1.6674,1.66735 0.2485,0.49711 -0.2486,1.17025 0,1.66735 0.703,1.40604 2.6317,1.92867 3.3347,3.33471 0.2485,0.4971 -0.393,1.27435 0,1.66735 0.393,0.393 1.2743,-0.393 1.6673,0 0.393,0.393 -0.2485,1.17024 0,1.66735 0.3515,0.70302 1.3159,0.96433 1.6674,1.66735 0.2485,0.49711 -0.2486,1.17024 0,1.66735 0.3515,0.70302 1.3158,0.96433 1.6673,1.66735 0.2486,0.49711 -0.2485,1.17024 0,1.66735 0.7031,1.40604 2.6317,1.92867 3.3347,3.33471 0.2486,0.4971 -0.2485,1.17024 0,1.66735 0.3516,0.70301 1.3159,0.96433 1.6674,1.66735 0.2485,0.49711 -0.393,1.27435 0,1.66735 0.393,0.393 1.2743,-0.393 1.6673,0 0.786,0.786 -0.786,2.5487 0,3.3347 0.393,0.393 1.2744,-0.393 1.6674,0 0.393,0.393 0,1.11157 0,1.66735 0,0.61231 0.067,6.60231 0,6.66941 -0.393,0.39299 -1.2744,-0.393 -1.6674,0 -0.8336,0.83367 0.8337,4.16837 0,5.00205 -0.393,0.393 -1.2743,-0.393 -1.6673,0 -0.786,0.786 0.4971,2.34049 0,3.3347 -0.3515,0.70302 -1.3158,0.96434 -1.6674,1.66735 -0.2485,0.49711 0,1.11157 0,1.66735 0,0.55579 0,1.11157 0,1.66736 0,3.3347 0,6.6694 0,10.0041 0,0.55579 0,1.11157 0,1.66735 0,0.55579 0.393,1.27436 0,1.66735 -1.3085,1.30857 -4.2781,-2.61078 -5.002,-3.3347"
     id="path1765"
     inkscape:connector-curvature="0" />
</svg>
