<?xml version="1.0" encoding="UTF-8" standalone="no"?>
<!-- Created with Inkscape (http://www.inkscape.org/) -->

<svg
   xmlns:dc="http://purl.org/dc/elements/1.1/"
   xmlns:cc="http://creativecommons.org/ns#"
   xmlns:rdf="http://www.w3.org/1999/02/22-rdf-syntax-ns#"
   xmlns:svg="http://www.w3.org/2000/svg"
   xmlns="http://www.w3.org/2000/svg"
   xmlns:xlink="http://www.w3.org/1999/xlink"
   xmlns:sodipodi="http://sodipodi.sourceforge.net/DTD/sodipodi-0.dtd"
   xmlns:inkscape="http://www.inkscape.org/namespaces/inkscape"
   version="1.1"
   id="svg815"
   width="1110.6667"
   height="812"
   viewBox="0 0 1110.6667 812"
   sodipodi:docname="chr-savushkina-chr-2.svg"
   inkscape:version="0.92.3 (2405546, 2018-03-11)">
  <metadata
     id="metadata821">
    <rdf:RDF>
      <cc:Work
         rdf:about="">
        <dc:format>image/svg+xml</dc:format>
        <dc:type
           rdf:resource="http://purl.org/dc/dcmitype/StillImage" />
        <dc:title></dc:title>
      </cc:Work>
    </rdf:RDF>
  </metadata>
  <defs
     id="defs819" />
  <sodipodi:namedview
     pagecolor="#ffffff"
     bordercolor="#666666"
     borderopacity="1"
     objecttolerance="10"
     gridtolerance="10"
     guidetolerance="10"
     inkscape:pageopacity="0"
     inkscape:pageshadow="2"
     inkscape:window-width="1366"
     inkscape:window-height="715"
     id="namedview817"
     showgrid="false"
     inkscape:zoom="2.3990148"
     inkscape:cx="419.08475"
     inkscape:cy="160.71003"
     inkscape:window-x="0"
     inkscape:window-y="0"
     inkscape:window-maximized="1"
     inkscape:current-layer="svg815"
     fit-margin-top="0"
     fit-margin-left="0"
     fit-margin-right="0"
     fit-margin-bottom="0"
     showguides="false" />
  <image
     sodipodi:absref="/home/aanper/project/luysy-imn-eh/pi/boot/bydefault/web/svg/../img/chr.png"
     xlink:href="../img/chr.png"
     y="0"
     x="0"
     id="image823"
     preserveAspectRatio="none"
     height="812"
     width="1110.6667" />
  <ellipse
     style="fill:#00ff00;fill-opacity:1;stroke:#00ff00;stroke-width:1.00157475;stroke-miterlimit:4;stroke-dasharray:none;stroke-opacity:1;paint-order:stroke fill markers"
     id="path832"
     cx="377.23819"
     cy="655.68585"
     rx="6.2525668"
     ry="5.8357291" />
  <ellipse
     style="fill:#00ff00;fill-opacity:1;stroke:#00ff00;stroke-width:0.24566929;stroke-miterlimit:4;stroke-dasharray:none;stroke-opacity:1;paint-order:stroke fill markers"
     id="path843"
     cx="606.49896"
     cy="399.22638"
     rx="2.7094455"
     ry="2.1883984" />
  <circle
     style="fill:#00ff00;fill-opacity:1;stroke:#00ff00;stroke-width:0.24566929;stroke-miterlimit:4;stroke-dasharray:none;stroke-opacity:1;paint-order:stroke fill markers"
     id="path845"
     cx="475.19507"
     cy="635.2608"
     r="3.7515399" />
  <ellipse
     style="fill:#00ff00;fill-opacity:1;stroke:#00ff00;stroke-width:0.24566929;stroke-miterlimit:4;stroke-dasharray:none;stroke-opacity:1;paint-order:stroke fill markers"
     id="path847"
     cx="871.39941"
     cy="165.69302"
     rx="2.7094455"
     ry="2.5010266" />
  <ellipse
     style="fill:#00ff00;fill-opacity:1;stroke:#00ff00;stroke-width:0.24566929;stroke-miterlimit:4;stroke-dasharray:none;stroke-opacity:1;paint-order:stroke fill markers"
     id="path849"
     cx="404.43686"
     cy="128.38603"
     rx="3.6473305"
     ry="3.3347023" />
  <ellipse
     style="fill:#00ff00;fill-opacity:1;stroke:#00ff00;stroke-width:0.24566929;stroke-miterlimit:4;stroke-dasharray:none;stroke-opacity:1;paint-order:stroke fill markers"
     id="path851"
     cx="452.06058"
     cy="53.980492"
     rx="2.7094455"
     ry="3.1262834" />
  <ellipse
     style="fill:#00ff00;fill-opacity:1;stroke:#00ff00;stroke-width:0.24566929;stroke-miterlimit:4;stroke-dasharray:none;stroke-opacity:1;paint-order:stroke fill markers"
     id="path853"
     cx="288.76437"
     cy="90.662216"
     rx="2.8136551"
     ry="2.5010266" />
  <ellipse
     style="fill:#00ff00;fill-opacity:1;stroke:#00ff00;stroke-width:0.24566929;stroke-miterlimit:4;stroke-dasharray:none;stroke-opacity:1;paint-order:stroke fill markers"
     id="path855"
     cx="1073.2531"
     cy="687.88654"
     rx="3.4389117"
     ry="3.2304928" />
  <ellipse
     style="fill:#00ff00;fill-opacity:1;stroke:#00ff00;stroke-width:0.24566929;stroke-miterlimit:4;stroke-dasharray:none;stroke-opacity:1;paint-order:stroke fill markers"
     id="path857"
     cx="1017.3968"
     cy="608.89581"
     rx="3.022074"
     ry="2.6052361" />
  <path
     style="fill:none;fill-opacity:1;stroke:#00ff00;stroke-width:1.13385832;stroke-miterlimit:4;stroke-dasharray:none;stroke-opacity:1;paint-order:stroke fill markers"
     d="m 377.65503,658.18686 c 1.42742,0.43543 1.28843,-1.26947 2.08419,-1.66735 0.12428,-0.0621 0.31859,0.0983 0.41684,0 0.86245,-0.86245 -1.31794,0.0337 0.41684,-0.83368 1.11156,0 -0.13895,0.13895 0.41683,-0.41684 0.0983,-0.0983 0.31859,0.0983 0.41684,0 0.0983,-0.0983 -0.0983,-0.31858 0,-0.41683 0.0983,-0.0983 0.31859,0.0983 0.41684,0 0.0982,-0.0983 -0.0983,-0.31859 0,-0.41684 0.0982,-0.0983 0.29256,0.0621 0.41684,0 0.5002,-0.2501 0.7503,-1.00041 1.25051,-1.25052 0.12428,-0.0621 0.31859,0.0983 0.41684,0 0.0983,-0.0982 -0.0983,-0.31858 0,-0.41683 0.0983,-0.0983 0.31859,0.0983 0.41684,0 0.0982,-0.0983 -0.0983,-0.31859 0,-0.41684 0.19649,-0.1965 0.58512,0.12428 0.83367,0 0.17575,-0.0879 0.24108,-0.32896 0.41684,-0.41684 0.24855,-0.12428 0.58512,0.12428 0.83367,0 0.17576,-0.0879 0.24109,-0.32896 0.41684,-0.41684 0.16527,-0.0826 1.1653,0.0852 1.25052,0 0.0982,-0.0983 -0.0983,-0.31858 0,-0.41683 0.1003,-0.10031 1.56704,0.1003 1.66735,0 0.0983,-0.0983 -0.0983,-0.31859 0,-0.41684 0.20842,-0.20842 1.04209,0.20842 1.25051,0 0.0983,-0.0983 -0.0982,-0.31859 0,-0.41684 0.1965,-0.1965 0.63718,0.1965 0.83368,0 0.0982,-0.0983 -0.0983,-0.31859 0,-0.41684 0.0982,-0.0983 0.31858,0.0983 0.41683,0 0.86246,-0.86245 -1.31794,0.0337 0.41684,-0.83367 1.11157,0 -0.13895,0.13894 0.41684,-0.41684 0.0983,-0.0983 0.31859,0.0983 0.41684,0 0.0983,-0.0983 -0.0983,-0.31859 0,-0.41684 0.0983,-0.0983 0.29256,0.0621 0.41683,0 0.17576,-0.0879 0.24109,-0.32896 0.41684,-0.41684 0.12428,-0.0621 0.31859,0.0983 0.41684,0 0.0983,-0.0983 -0.0983,-0.31858 0,-0.41683 0.0983,-0.0983 0.31859,0.0983 0.41684,0 0.0983,-0.0983 -0.0983,-0.31859 0,-0.41684 0.0983,-0.0983 0.29256,0.0621 0.41684,0 0.17575,-0.0879 0.24108,-0.32896 0.41683,-0.41684 0.12428,-0.0621 0.29256,0.0621 0.41684,0 0.17576,-0.0879 0.24108,-0.32896 0.41684,-0.41684 0.12428,-0.0621 0.31859,0.0983 0.41684,0 0.0982,-0.0983 -0.0983,-0.31859 0,-0.41684 0.1965,-0.19649 0.63717,0.1965 0.83367,0 0.0983,-0.0982 -0.0983,-0.31858 0,-0.41683 0.20842,-0.20842 1.0421,0.20842 1.25052,0 0.0982,-0.0983 -0.0983,-0.31859 0,-0.41684 0.0982,-0.0982 0.27789,0 0.41683,0 0.13895,0 0.27789,0 0.41684,0 0.97756,0 -0.1965,0.0983 0.83368,-0.41684 0.12427,-0.0621 0.27789,0 0.41683,0 0.13895,0 0.2779,0 0.41684,0 0.83368,0 1.66735,0 2.50103,0 0.10109,0 1.23711,-0.0134 1.25051,0 0.0983,0.0983 -0.0983,0.31859 0,0.41684 0.1965,0.1965 0.63718,-0.1965 0.83368,0 0.0983,0.0983 -0.0983,0.31859 0,0.41684 0.0983,0.0983 0.31859,-0.0983 0.41684,0 0.0982,0.0983 -0.0983,0.31859 0,0.41683 0.0982,0.0983 0.29256,-0.0621 0.41683,0 0.17576,0.0879 0.2779,0.2779 0.41684,0.41684 0.13895,0.13895 0.32896,0.24109 0.41684,0.41684 0.0621,0.12428 -0.0982,0.31859 0,0.41684 0.0983,0.0983 0.31859,-0.0983 0.41684,0 0.0983,0.0983 -0.0621,0.29256 0,0.41684 0.0879,0.17575 0.32896,0.24108 0.41683,0.41683 0.12428,0.24856 -0.19649,0.63718 0,0.83368 0.0983,0.0983 0.31859,-0.0983 0.41684,0 0.0134,0.0134 0,1.14942 0,1.25051 0,1.66735 0,3.3347 0,5.00206 0,0.13894 0,0.27789 0,0.41683 0,0.13895 0.0983,0.31859 0,0.41684 -0.55578,0.55579 -0.41684,-0.69473 -0.41684,0.41684 0,0.10109 0.0134,1.23711 0,1.25051 -0.0983,0.0983 -0.31858,-0.0983 -0.41683,0 -0.14632,0.14632 0.14396,1.79627 0,2.08419 -0.0879,0.17576 -0.32896,0.24109 -0.41684,0.41684 -0.0826,0.16527 0.0852,1.1653 0,1.25051 -0.0982,0.0983 -0.31859,-0.0983 -0.41684,0 -0.0852,0.0852 0.0826,1.08524 0,1.25052 -0.0879,0.17575 -0.32896,0.24108 -0.41684,0.41683 -0.12427,0.24856 0.12428,0.58513 0,0.83368 -0.0879,0.17575 -0.32896,0.24108 -0.41683,0.41684 -0.12428,0.24855 0.19649,0.63717 0,0.83367 -0.0983,0.0983 -0.31859,-0.0983 -0.41684,0 -0.0852,0.0852 0.0826,1.08524 0,1.25052 -0.0879,0.17575 -0.32896,0.24108 -0.41684,0.41683 -0.12428,0.24856 0.12428,0.58513 0,0.83368 -0.0879,0.17575 -0.32896,0.24108 -0.41684,0.41684 -0.0539,0.10777 0,2.20557 0,2.50102 0,0.13895 0,0.2779 0,0.41684 0,0.13895 -0.0983,0.31859 0,0.41684 0.0983,0.0983 0.31859,-0.0983 0.41684,0 0.0983,0.0983 -0.0983,0.31859 0,0.41684 0.0983,0.0983 0.31859,-0.0983 0.41684,0 0.0983,0.0983 -0.0983,0.31859 0,0.41684 0.1965,0.19649 0.63717,-0.1965 0.83367,0 0.0983,0.0982 -0.0983,0.31858 0,0.41683 0.11406,0.11406 1.44122,-0.11306 1.66735,0 0.10853,0.0543 0.50783,0.74269 0.83368,0.41684 0.0983,-0.0983 -0.0982,-0.31859 0,-0.41684 0.0983,-0.0983 0.27789,0 0.41684,0 0.13894,0 0.27789,0 0.41684,0 1.11156,0 2.22313,0 3.3347,0 0.13894,0 0.27789,0 0.41684,0 0.13894,0 0.31858,0.0983 0.41683,0 0.0983,-0.0983 -0.0982,-0.31859 0,-0.41683 0.0983,-0.0983 0.2779,0 0.41684,0 0.29546,0 2.39325,0.0539 2.50103,0 0.17575,-0.0879 0.24108,-0.32897 0.41684,-0.41684 0.10777,-0.0539 2.20557,0 2.50102,0 0.13895,0 0.31859,0.0983 0.41684,0 0.0982,-0.0983 -0.0983,-0.31859 0,-0.41684 0.1965,-0.1965 0.63718,0.1965 0.83368,0 0.0983,-0.0983 -0.0983,-0.31859 0,-0.41684 0.20841,-0.20842 1.04209,0.20842 1.25051,0 0.0983,-0.0983 -0.0983,-0.31859 0,-0.41684 0.1965,-0.1965 0.58512,0.12428 0.83367,0 0.17576,-0.0879 0.24109,-0.32896 0.41684,-0.41683 0.28793,-0.14397 1.93787,0.14631 2.08419,0 0.55578,-0.55579 -0.69473,-0.41684 0.41684,-0.41684 0.10109,0 1.23711,0.0134 1.25051,0 0.0983,-0.0983 -0.0983,-0.31859 0,-0.41684 0.0852,-0.0852 1.08524,0.0826 1.25052,0 0.17575,-0.0879 0.24108,-0.32896 0.41683,-0.41684 0.44522,-0.22261 0.38846,0.22261 0.83368,0 0.17575,-0.0879 0.24108,-0.32896 0.41684,-0.41683 0.24855,-0.12428 0.58512,0.12427 0.83367,0 0.17576,-0.0879 0.24109,-0.32897 0.41684,-0.41684 0.12428,-0.0621 0.31859,0.0983 0.41684,0 0.0983,-0.0983 -0.0983,-0.31859 0,-0.41684 0.1965,-0.1965 0.63717,0.1965 0.83367,0 0.0983,-0.0983 -0.0982,-0.31859 0,-0.41684 0.1965,-0.1965 0.63718,0.1965 0.83368,0 0.0983,-0.0983 -0.0983,-0.31859 0,-0.41684 0.1965,-0.1965 0.63718,0.1965 0.83367,0 0.0983,-0.0983 -0.0982,-0.31858 0,-0.41683 0.1965,-0.1965 0.58513,0.12427 0.83368,0 0.17575,-0.0879 0.24108,-0.32896 0.41684,-0.41684 0.12427,-0.0621 0.29256,0.0621 0.41684,0 0.17575,-0.0879 0.24108,-0.32896 0.41683,-0.41684 0.16528,-0.0826 1.1653,0.0852 1.25052,0 0.0983,-0.0983 -0.0983,-0.31859 0,-0.41684 0.0983,-0.0983 0.27789,0 0.41683,0 0.69473,0 1.38946,0 2.08419,0 1.11157,0 -0.13894,0.13895 0.41684,-0.41683 0.0982,-0.0983 0.27789,0 0.41684,0 0.13895,0 0.27789,0 0.41684,0 0.83367,0 1.66735,0 2.50102,0 0.13895,0 0.2779,0 0.41684,0 0.13895,0 0.29256,0.0621 0.41684,0 0.17575,-0.0879 0.24108,-0.32897 0.41684,-0.41684 0.16527,-0.0826 1.16529,0.0852 1.25051,0 0.0983,-0.0983 -0.0982,-0.31859 0,-0.41684 0.0983,-0.0982 0.29256,0.0621 0.41684,0 0.17575,-0.0879 0.24108,-0.32896 0.41684,-0.41684 0.12427,-0.0621 0.29256,0.0621 0.41683,0 0.17576,-0.0879 0.24109,-0.32896 0.41684,-0.41684 0.12428,-0.0621 0.29256,0.0621 0.41684,0 0.35151,-0.17575 0.48217,-0.65792 0.83367,-0.83367 0.12428,-0.0621 0.29257,0.0621 0.41684,0 0.35151,-0.17576 0.48217,-0.65792 0.83368,-0.83368 0.12428,-0.0621 0.31859,0.0983 0.41684,0 0.0982,-0.0983 -0.0983,-0.31859 0,-0.41683 0.0982,-0.0983 0.29256,0.0621 0.41683,0 0.35151,-0.17576 0.48217,-0.65793 0.83368,-0.83368 0.12428,-0.0621 0.29256,0.0621 0.41684,0 0.17575,-0.0879 0.27789,-0.27789 0.41683,-0.41684 0.13895,-0.13894 0.32897,-0.24108 0.41684,-0.41684 0.0621,-0.12427 -0.0983,-0.31858 0,-0.41683 0.0983,-0.0983 0.29256,0.0621 0.41684,0 0.35151,-0.17576 0.48217,-0.65793 0.83368,-0.83368 0.12427,-0.0621 0.31858,0.0983 0.41683,0 0.0983,-0.0983 -0.0983,-0.31859 0,-0.41684 0.0983,-0.0983 0.31859,0.0983 0.41684,0 0.0983,-0.0983 -0.0983,-0.31859 0,-0.41683 0.0983,-0.0982 0.31859,0.0982 0.41684,0 0.0982,-0.0982 -0.0983,-0.31859 0,-0.41684 0.86245,-0.86245 -0.0337,1.31794 0.83367,-0.41684 0.0621,-0.12428 -0.0982,-0.31859 0,-0.41684 0.0983,-0.0983 0.31859,0.0983 0.41684,0 0.0983,-0.0983 -0.0621,-0.29256 0,-0.41684 0.0879,-0.17575 0.27789,-0.27789 0.41684,-0.41683 0.24516,-0.24516 1.57084,-1.47433 1.66735,-1.66736 0.0621,-0.12427 -0.0983,-0.31858 0,-0.41683 0.0982,-0.0983 0.29256,0.0621 0.41684,0 1.73478,-0.86739 -0.44562,0.0288 0.41684,-0.83368 0.0983,-0.0983 0.31859,0.0983 0.41683,0 0.86246,-0.86245 -1.31794,0.0337 0.41684,-0.83367 0.12428,-0.0621 0.31859,0.0983 0.41684,0 0.0983,-0.0983 -0.0621,-0.29256 0,-0.41684 0.20509,-0.41018 1.46226,-1.25717 1.66735,-1.66735 0.0621,-0.12428 -0.0983,-0.31859 0,-0.41684 0.0983,-0.0983 0.31859,0.0983 0.41684,0 0.0983,-0.0983 -0.0982,-0.31859 0,-0.41684 0.0983,-0.0983 0.29256,0.0621 0.41684,0 1.73478,-0.86739 -0.44562,0.0288 0.41683,-0.83367 0.0983,-0.0983 0.29257,0.0621 0.41684,0 1.73478,-0.86739 -0.44561,0.0288 0.41684,-0.83368 0.0983,-0.0983 0.31859,0.0983 0.41684,0 0.0983,-0.0983 -0.0983,-0.31859 0,-0.41684 0.0983,-0.0983 0.31859,0.0983 0.41684,0 0.1965,-0.1965 -0.1965,-0.63717 0,-0.83367 0.0983,-0.0983 0.31858,0.0983 0.41683,0 0.0983,-0.0983 -0.0621,-0.29256 0,-0.41684 0.0879,-0.17575 0.32896,-0.24108 0.41684,-0.41684 0.0621,-0.12428 -0.0982,-0.31859 0,-0.41684 0.0983,-0.0983 0.31859,0.0983 0.41684,0 0,-1.11156 -0.13895,0.13895 0.41684,-0.41683 0.0983,-0.0983 -0.0983,-0.31859 0,-0.41684 0.0983,-0.0983 0.31859,0.0983 0.41683,0 0.0983,-0.0983 -0.0982,-0.31859 0,-0.41684 1.11157,0 -0.13894,0.13895 0.41684,-0.41684 0.0983,-0.0983 0.31859,0.0983 0.41684,0 0.0983,-0.0983 -0.0983,-0.31859 0,-0.41684 0.0983,-0.0982 0.29256,0.0621 0.41684,0 0.5002,-0.2501 0.75031,-1.00041 1.25051,-1.25051 0.12428,-0.0621 0.31859,0.0983 0.41684,0 0,-1.11157 -0.13895,0.13895 0.41684,-0.41684 0.0982,-0.0983 -0.0983,-0.31858 0,-0.41683 0.1965,-0.1965 0.63717,0.1965 0.83367,0 0.0983,-0.0983 -0.0983,-0.31859 0,-0.41684 0.0983,-0.0983 0.29256,0.0621 0.41684,0 0.50021,-0.2501 0.75031,-1.00041 1.25051,-1.25052 0.57497,-0.28748 0.37285,0.50482 0.83368,-0.41683 0.0621,-0.12428 -0.0983,-0.31859 0,-0.41684 0.0982,-0.0983 0.31859,0.0983 0.41684,0 0.0983,-0.0983 0,-0.27789 0,-0.41684 0,-0.13894 0.0983,-0.31859 0,-0.41684 -0.0983,-0.0983 -0.31859,0.0983 -0.41684,0 -0.0983,-0.0983 0,-0.27789 0,-0.41683"
     id="path929"
     inkscape:connector-curvature="0" />
</svg>
