<?xml version="1.0" encoding="UTF-8" standalone="no"?>
<!-- Created with Inkscape (http://www.inkscape.org/) -->

<svg
   xmlns:dc="http://purl.org/dc/elements/1.1/"
   xmlns:cc="http://creativecommons.org/ns#"
   xmlns:rdf="http://www.w3.org/1999/02/22-rdf-syntax-ns#"
   xmlns:svg="http://www.w3.org/2000/svg"
   xmlns="http://www.w3.org/2000/svg"
   xmlns:xlink="http://www.w3.org/1999/xlink"
   xmlns:sodipodi="http://sodipodi.sourceforge.net/DTD/sodipodi-0.dtd"
   xmlns:inkscape="http://www.inkscape.org/namespaces/inkscape"
   version="1.1"
   id="svg815"
   width="1110.6667"
   height="812"
   viewBox="0 0 1110.6667 812"
   sodipodi:docname="chr-landrin-lesnaya.svg"
   inkscape:version="0.92.3 (2405546, 2018-03-11)">
  <metadata
     id="metadata821">
    <rdf:RDF>
      <cc:Work
         rdf:about="">
        <dc:format>image/svg+xml</dc:format>
        <dc:type
           rdf:resource="http://purl.org/dc/dcmitype/StillImage" />
        <dc:title></dc:title>
      </cc:Work>
    </rdf:RDF>
  </metadata>
  <defs
     id="defs819" />
  <sodipodi:namedview
     pagecolor="#ffffff"
     bordercolor="#666666"
     borderopacity="1"
     objecttolerance="10"
     gridtolerance="10"
     guidetolerance="10"
     inkscape:pageopacity="0"
     inkscape:pageshadow="2"
     inkscape:window-width="1366"
     inkscape:window-height="715"
     id="namedview817"
     showgrid="false"
     inkscape:zoom="0.84817981"
     inkscape:cx="718.31354"
     inkscape:cy="161.47232"
     inkscape:window-x="0"
     inkscape:window-y="0"
     inkscape:window-maximized="1"
     inkscape:current-layer="svg815"
     fit-margin-top="0"
     fit-margin-left="0"
     fit-margin-right="0"
     fit-margin-bottom="0"
     showguides="false" />
  <image
     sodipodi:absref="/home/aanper/project/luysy-imn-eh/pi/boot/bydefault/web/svg/../img/chr.png"
     xlink:href="../img/chr.png"
     y="0"
     x="0"
     id="image823"
     preserveAspectRatio="none"
     height="812"
     width="1110.6667" />
  <ellipse
     style="fill:#00ff00;fill-opacity:1;stroke:#00ff00;stroke-width:1.00157475;stroke-miterlimit:4;stroke-dasharray:none;stroke-opacity:1;paint-order:stroke fill markers"
     id="path832"
     cx="377.23819"
     cy="655.68585"
     rx="6.2525668"
     ry="5.8357291" />
  <ellipse
     style="fill:#00ff00;fill-opacity:1;stroke:#00ff00;stroke-width:0.24566929;stroke-miterlimit:4;stroke-dasharray:none;stroke-opacity:1;paint-order:stroke fill markers"
     id="path843"
     cx="606.49896"
     cy="399.22638"
     rx="2.7094455"
     ry="2.1883984" />
  <circle
     style="fill:#00ff00;fill-opacity:1;stroke:#00ff00;stroke-width:0.24566929;stroke-miterlimit:4;stroke-dasharray:none;stroke-opacity:1;paint-order:stroke fill markers"
     id="path845"
     cx="475.19507"
     cy="635.2608"
     r="3.7515399" />
  <ellipse
     style="fill:#00ff00;fill-opacity:1;stroke:#00ff00;stroke-width:0.24566929;stroke-miterlimit:4;stroke-dasharray:none;stroke-opacity:1;paint-order:stroke fill markers"
     id="path847"
     cx="871.39941"
     cy="165.69302"
     rx="2.7094455"
     ry="2.5010266" />
  <ellipse
     style="fill:#00ff00;fill-opacity:1;stroke:#00ff00;stroke-width:0.24566929;stroke-miterlimit:4;stroke-dasharray:none;stroke-opacity:1;paint-order:stroke fill markers"
     id="path849"
     cx="404.43686"
     cy="128.38603"
     rx="3.6473305"
     ry="3.3347023" />
  <ellipse
     style="fill:#00ff00;fill-opacity:1;stroke:#00ff00;stroke-width:0.24566929;stroke-miterlimit:4;stroke-dasharray:none;stroke-opacity:1;paint-order:stroke fill markers"
     id="path851"
     cx="452.06058"
     cy="53.980492"
     rx="2.7094455"
     ry="3.1262834" />
  <ellipse
     style="fill:#00ff00;fill-opacity:1;stroke:#00ff00;stroke-width:0.24566929;stroke-miterlimit:4;stroke-dasharray:none;stroke-opacity:1;paint-order:stroke fill markers"
     id="path853"
     cx="288.76437"
     cy="90.662216"
     rx="2.8136551"
     ry="2.5010266" />
  <ellipse
     style="fill:#00ff00;fill-opacity:1;stroke:#00ff00;stroke-width:0.24566929;stroke-miterlimit:4;stroke-dasharray:none;stroke-opacity:1;paint-order:stroke fill markers"
     id="path855"
     cx="1073.2531"
     cy="687.88654"
     rx="3.4389117"
     ry="3.2304928" />
  <ellipse
     style="fill:#00ff00;fill-opacity:1;stroke:#00ff00;stroke-width:0.24566929;stroke-miterlimit:4;stroke-dasharray:none;stroke-opacity:1;paint-order:stroke fill markers"
     id="path857"
     cx="1017.3968"
     cy="608.89581"
     rx="3.022074"
     ry="2.6052361" />
  <path
     style="fill:none;fill-opacity:1;stroke:#00ff00;stroke-width:1.13385832;stroke-miterlimit:4;stroke-dasharray:none;stroke-opacity:1;paint-order:stroke fill markers"
     d="m 1018.6519,606.85482 c -0.6025,-4.56803 4.478,2.59597 5.895,1.179 0.2779,-0.2779 -0.2779,-0.90111 0,-1.179 0.5558,-0.55578 1.8022,0.55578 2.358,0 0.2779,-0.27789 -0.2779,-0.9011 0,-1.179 0.2779,-0.27789 0.786,0 1.179,0 0.393,0 0.786,0 1.179,0 4.323,0 8.646,0 12.9689,0 0.393,0 0.786,0 1.179,0 0.393,0 0.9011,-0.27789 1.179,0 0.2779,0.2779 -0.2779,0.90111 0,1.179 0.5558,0.55578 1.8022,-0.55578 2.358,0 0.2779,0.27789 -0.2779,0.9011 0,1.179 2.4394,2.43938 -0.095,-3.72771 2.358,1.17899 0.3515,0.70302 -0.3515,1.65497 0,2.35799 0.2486,0.49711 0.9304,0.68189 1.179,1.179 0.1758,0.3515 -0.1758,0.82748 0,1.17899 0.2486,0.49711 0.9304,0.68189 1.179,1.179 0.2337,0.46746 -0.241,3.29595 0,3.53698 0.2779,0.27789 0.9011,-0.27789 1.179,0 0.2779,0.27789 0,0.786 0,1.179 0,1.96499 0,3.92998 0,5.89497 0,0.393 -0.2779,0.90111 0,1.179 0.2779,0.27789 0.9011,-0.27789 1.179,0 0.047,0.0474 0,4.28301 0,4.71598 0,0.82004 -0.2132,5.46861 0,5.89498 0.2485,0.49711 0.9304,0.68188 1.179,1.17899 0.2337,0.46746 -0.241,3.29596 0,3.53699 0.2779,0.27789 0.9011,-0.27789 1.179,0 0.241,0.24103 -0.2338,3.06952 0,3.53698 0.2485,0.49711 0.9304,0.68189 1.179,1.179 0.3515,0.70302 -0.3515,1.65497 0,2.35799 0.1128,0.22568 4.4903,4.60314 4.716,4.71598 0.3515,0.17576 0.8274,-0.17575 1.179,0 0.4971,0.24856 0.6818,0.93044 1.1789,1.179 0.4675,0.23373 3.296,-0.24103 3.537,0 0.2779,0.27789 -0.2779,0.9011 0,1.17899 0.2779,0.27789 0.8275,-0.17575 1.179,0 0.4971,0.24856 0.786,0.786 1.179,1.179 0.393,0.393 0.9305,0.68188 1.179,1.17899 0.1758,0.35151 -0.2779,0.90111 0,1.179 0.2779,0.27789 0.9011,-0.27789 1.179,0 0.5558,0.55578 -0.3515,1.65497 0,2.35799 0.2486,0.49711 0.9305,0.68189 1.179,1.17899 0.1758,0.35151 -0.2779,0.90111 0,1.179 0.2779,0.27789 0.9011,-0.27789 1.179,0 0.5558,0.55578 -0.5558,1.80221 0,2.35799 0.2779,0.27789 0.9011,-0.27789 1.179,0 0.3226,0.3226 -0.3198,4.07639 0,4.71598 0.2486,0.49711 0.9304,0.68189 1.179,1.179 0.1757,0.3515 0,0.78599 0,1.17899 0,0.393 0.2779,0.9011 0,1.179 -0.2779,0.27789 -0.9011,-0.2779 -1.179,0 -0.053,0.0534 0,5.33908 0,5.89497"
     id="path1500"
     inkscape:connector-curvature="0" />
</svg>
