<?xml version="1.0" encoding="UTF-8" standalone="no"?>
<!-- Created with Inkscape (http://www.inkscape.org/) -->

<svg
   xmlns:dc="http://purl.org/dc/elements/1.1/"
   xmlns:cc="http://creativecommons.org/ns#"
   xmlns:rdf="http://www.w3.org/1999/02/22-rdf-syntax-ns#"
   xmlns:svg="http://www.w3.org/2000/svg"
   xmlns="http://www.w3.org/2000/svg"
   xmlns:xlink="http://www.w3.org/1999/xlink"
   xmlns:sodipodi="http://sodipodi.sourceforge.net/DTD/sodipodi-0.dtd"
   xmlns:inkscape="http://www.inkscape.org/namespaces/inkscape"
   version="1.1"
   id="svg815"
   width="1110.6667"
   height="812"
   viewBox="0 0 1110.6667 812"
   sodipodi:docname="chr-landrin-medikov-ext.svg"
   inkscape:version="0.92.3 (2405546, 2018-03-11)">
  <metadata
     id="metadata821">
    <rdf:RDF>
      <cc:Work
         rdf:about="">
        <dc:format>image/svg+xml</dc:format>
        <dc:type
           rdf:resource="http://purl.org/dc/dcmitype/StillImage" />
        <dc:title></dc:title>
      </cc:Work>
    </rdf:RDF>
  </metadata>
  <defs
     id="defs819" />
  <sodipodi:namedview
     pagecolor="#ffffff"
     bordercolor="#666666"
     borderopacity="1"
     objecttolerance="10"
     gridtolerance="10"
     guidetolerance="10"
     inkscape:pageopacity="0"
     inkscape:pageshadow="2"
     inkscape:window-width="1366"
     inkscape:window-height="715"
     id="namedview817"
     showgrid="false"
     inkscape:zoom="0.5997537"
     inkscape:cx="412.66023"
     inkscape:cy="345.72643"
     inkscape:window-x="0"
     inkscape:window-y="0"
     inkscape:window-maximized="1"
     inkscape:current-layer="svg815"
     fit-margin-top="0"
     fit-margin-left="0"
     fit-margin-right="0"
     fit-margin-bottom="0"
     showguides="false" />
  <image
     sodipodi:absref="/home/aanper/project/luysy-imn-eh/pi/boot/bydefault/web/svg/../img/chr.png"
     xlink:href="../img/chr.png"
     y="0"
     x="0"
     id="image823"
     preserveAspectRatio="none"
     height="812"
     width="1110.6667" />
  <ellipse
     style="fill:#00ff00;fill-opacity:1;stroke:#00ff00;stroke-width:1.00157475;stroke-miterlimit:4;stroke-dasharray:none;stroke-opacity:1;paint-order:stroke fill markers"
     id="path832"
     cx="377.23819"
     cy="655.68585"
     rx="6.2525668"
     ry="5.8357291" />
  <ellipse
     style="fill:#00ff00;fill-opacity:1;stroke:#00ff00;stroke-width:0.24566929;stroke-miterlimit:4;stroke-dasharray:none;stroke-opacity:1;paint-order:stroke fill markers"
     id="path843"
     cx="606.49896"
     cy="399.22638"
     rx="2.7094455"
     ry="2.1883984" />
  <circle
     style="fill:#00ff00;fill-opacity:1;stroke:#00ff00;stroke-width:0.24566929;stroke-miterlimit:4;stroke-dasharray:none;stroke-opacity:1;paint-order:stroke fill markers"
     id="path845"
     cx="475.19507"
     cy="635.2608"
     r="3.7515399" />
  <ellipse
     style="fill:#00ff00;fill-opacity:1;stroke:#00ff00;stroke-width:0.24566929;stroke-miterlimit:4;stroke-dasharray:none;stroke-opacity:1;paint-order:stroke fill markers"
     id="path847"
     cx="871.39941"
     cy="165.69302"
     rx="2.7094455"
     ry="2.5010266" />
  <ellipse
     style="fill:#00ff00;fill-opacity:1;stroke:#00ff00;stroke-width:0.24566929;stroke-miterlimit:4;stroke-dasharray:none;stroke-opacity:1;paint-order:stroke fill markers"
     id="path849"
     cx="404.43686"
     cy="128.38603"
     rx="3.6473305"
     ry="3.3347023" />
  <ellipse
     style="fill:#00ff00;fill-opacity:1;stroke:#00ff00;stroke-width:0.24566929;stroke-miterlimit:4;stroke-dasharray:none;stroke-opacity:1;paint-order:stroke fill markers"
     id="path851"
     cx="452.06058"
     cy="53.980492"
     rx="2.7094455"
     ry="3.1262834" />
  <ellipse
     style="fill:#00ff00;fill-opacity:1;stroke:#00ff00;stroke-width:0.24566929;stroke-miterlimit:4;stroke-dasharray:none;stroke-opacity:1;paint-order:stroke fill markers"
     id="path853"
     cx="288.76437"
     cy="90.662216"
     rx="2.8136551"
     ry="2.5010266" />
  <ellipse
     style="fill:#00ff00;fill-opacity:1;stroke:#00ff00;stroke-width:0.24566929;stroke-miterlimit:4;stroke-dasharray:none;stroke-opacity:1;paint-order:stroke fill markers"
     id="path855"
     cx="1073.2531"
     cy="687.88654"
     rx="3.4389117"
     ry="3.2304928" />
  <ellipse
     style="fill:#00ff00;fill-opacity:1;stroke:#00ff00;stroke-width:0.24566929;stroke-miterlimit:4;stroke-dasharray:none;stroke-opacity:1;paint-order:stroke fill markers"
     id="path857"
     cx="1017.3968"
     cy="608.89581"
     rx="3.022074"
     ry="2.6052361" />
  <path
     style="fill:none;fill-opacity:1;stroke:#00ff00;stroke-width:1.13385832;stroke-miterlimit:4;stroke-dasharray:none;stroke-opacity:1;paint-order:stroke fill markers"
     d="m 1018.7515,611.91786 c 0,5.00206 0,10.00411 0,15.00616 0,0.55579 -0.393,1.27436 0,1.66736 0.393,0.39299 1.2744,-0.393 1.6674,0 0.8337,0.83367 -0.8337,4.16837 0,5.00205 0.393,0.393 1.2743,-0.393 1.6673,0 0.8337,0.83367 -0.8336,4.16838 0,5.00205 0.393,0.393 1.2744,-0.393 1.6674,0 0.393,0.393 0,1.11157 0,1.66735 0,0.75091 0.2537,4.49463 0,5.00206 -0.3515,0.70301 -1.3159,0.96433 -1.6674,1.66735 -0.4971,0.99421 0.786,2.5487 0,3.3347 -0.393,0.393 -1.2743,-0.393 -1.6673,0 -0.393,0.393 0.393,1.27435 0,1.66735 -0.393,0.393 -1.1116,0 -1.6674,0 0,0.55579 0.393,1.27435 0,1.66735 -0.393,0.393 -1.2743,-0.393 -1.6673,0 -0.393,0.393 0.2485,1.17025 0,1.66735 -0.3515,0.70302 -1.3159,0.96434 -1.6674,1.66736 -0.2485,0.4971 0.393,1.27435 0,1.66735 -0.393,0.39299 -1.2743,-0.393 -1.6673,0 -0.8337,0.83367 0.8337,4.16837 0,5.00205 -0.393,0.393 -1.2744,-0.393 -1.6674,0 -0.4012,0.40122 0.4013,6.26819 0,6.6694 -0.393,0.393 -1.2743,-0.39299 -1.6673,0 -0.4562,0.45623 0.4522,5.76489 0,6.66941 -0.3515,0.70302 -1.3159,0.96433 -1.6674,1.66735 -0.2155,0.43109 0,8.82228 0,10.00411 0,0.55578 0.393,1.27435 0,1.66735 -0.393,0.393 -1.2743,-0.393 -1.6673,0 -0.8337,0.83367 0.8337,4.16838 0,5.00205 -0.393,0.393 -1.2744,-0.393 -1.6674,0 -0.393,0.393 0.2486,1.17024 0,1.66735 -0.2213,0.4427 -4.5593,4.78071 -5.002,5.00206 -0.49713,0.24855 -1.27438,-0.393 -1.66737,0 -0.393,0.39299 0.39299,1.27435 0,1.66735 -0.393,0.393 -1.17025,-0.24856 -1.66736,0 -1.40603,0.70301 -1.92866,2.63168 -3.3347,3.3347 -0.49711,0.24855 -1.27435,-0.393 -1.66735,0 -0.393,0.393 0.393,1.27435 0,1.66735 -0.393,0.393 -1.27435,-0.393 -1.66735,0 -0.393,0.393 0.393,1.27435 0,1.66735 -0.393,0.393 -1.17024,-0.24855 -1.66735,0 -0.70302,0.35151 -0.96434,1.31584 -1.66735,1.66735 -0.49711,0.24856 -1.27436,-0.393 -1.66735,0 -0.393,0.393 0.24855,1.17025 0,1.66735 -3.46956,6.93912 0.1151,-1.78245 -3.33471,1.66735 -0.39299,0.393 0.393,1.27436 0,1.66736 -0.39299,0.39299 -1.17024,-0.24856 -1.66735,0 -2.00082,1.00041 -3.00123,4.00164 -5.00205,5.00205 -0.49711,0.24855 -1.27435,-0.393 -1.66735,0 -0.393,0.393 0.393,1.27435 0,1.66735 -0.393,0.393 -1.17024,-0.24855 -1.66735,0 -0.70302,0.35151 -0.96434,1.31584 -1.66735,1.66735 -0.49711,0.24856 -1.27436,-0.393 -1.66736,0 -0.39299,0.393 0.393,1.27435 0,1.66735 -0.39299,0.393 -1.27435,-0.393 -1.66735,0 -0.39299,0.393 0.393,1.27436 0,1.66735 -0.39299,0.393 -1.17024,-0.24855 -1.66735,0 -1.40603,0.70302 -1.92867,2.63169 -3.3347,3.33471 -0.49711,0.24855 -1.27435,-0.393 -1.66735,0 -0.393,0.39299 0.393,1.27435 0,1.66735 -0.393,0.393 -1.27435,-0.393 -1.66735,0 -0.393,0.393 0.393,1.27435 0,1.66735 -0.393,0.393 -1.27435,-0.393 -1.66735,0 -0.393,0.393 0.393,1.27435 0,1.66735 -0.393,0.393 -1.17025,-0.24855 -1.66735,0 -0.70302,0.35151 -0.96434,1.31584 -1.66736,1.66735 -0.4971,0.24855 -1.27435,-0.393 -1.66735,0 -0.39299,0.393 0.393,1.27435 0,1.66735 -0.39299,0.393 -1.17024,-0.24855 -1.66735,0 -0.70301,0.35151 -0.96433,1.31584 -1.66735,1.66735 -0.49711,0.24856 -1.27435,-0.393 -1.66735,0 -0.393,0.393 0.393,1.27436 0,1.66735 -0.393,0.393 -1.17024,-0.24855 -1.66735,0 -1.40603,0.70302 -1.92867,2.63169 -3.3347,3.33471 -0.49711,0.24855 -1.27436,-0.393 -1.66735,0 -0.393,0.39299 0.39299,1.27435 0,1.66735 -0.393,0.393 -1.27436,-0.393 -1.66736,0 -0.39299,0.393 0.393,1.27435 0,1.66735 -0.39299,0.393 -1.17024,-0.24856 -1.66735,0 -1.40603,0.70302 -1.92867,2.63168 -3.3347,3.3347 -0.49711,0.24855 -1.17024,-0.24855 -1.66735,0 -1.06206,0.53103 -7.02661,7.02661 -8.33676,8.33676 -0.55578,0.55578 -0.96433,1.31584 -1.66735,1.66735 -0.4971,0.24855 -1.27435,-0.393 -1.66735,0 -0.393,0.393 0.24856,1.17024 0,1.66735 -0.35151,0.70302 -1.11157,1.11157 -1.66735,1.66735 -0.55578,0.55578 -0.96433,1.31584 -1.66735,1.66735 -0.49711,0.24855 -1.27435,-0.393 -1.66735,0 -0.393,0.393 0,1.11157 0,1.66735 -0.55579,0 -1.17024,-0.24855 -1.66735,0 -6.93912,3.46956 1.78246,-0.1151 -1.66735,3.3347 -0.393,0.393 -1.27436,-0.39299 -1.66735,0 -0.393,0.393 0.24855,1.17025 0,1.66736 -0.15959,0.31916 -6.35024,6.50982 -6.66941,6.6694 -0.49711,0.24855 -1.27435,-0.393 -1.66735,0 -0.393,0.393 0.393,1.27435 0,1.66735 -0.393,0.393 -1.27435,-0.393 -1.66735,0 -0.393,0.393 0.393,1.27435 0,1.66735 -0.786,0.786 -2.54871,-0.78599 -3.3347,0 -0.393,0.393 0.39299,1.27435 0,1.66735 -0.393,0.393 -1.17025,-0.24855 -1.66735,0 -0.70302,0.35151 -0.96434,1.31585 -1.66736,1.66735 -0.4971,0.24856 -1.27435,-0.39299 -1.66735,0 -0.393,0.393 0.393,1.27436 0,1.66736 -0.78599,0.78599 -2.5487,-0.786 -3.3347,0 -0.393,0.39299 0.393,1.27435 0,1.66735 -0.393,0.39299 -1.17024,-0.24856 -1.66735,0 -0.70302,0.3515 -0.96433,1.31584 -1.66735,1.66735 -0.49711,0.24855 -1.17024,-0.24856 -1.66735,0 -0.70302,0.35151 -1.11157,1.11157 -1.66735,1.66735 -0.98065,0.98064 -5.89729,6.28335 -6.66941,6.6694 -0.49711,0.24856 -1.17024,-0.24855 -1.66735,0 -0.70302,0.35151 -0.96433,1.31585 -1.66735,1.66735 -0.49711,0.24856 -1.27435,-0.39299 -1.66735,0 -0.393,0.393 0.393,1.27436 0,1.66736 -0.393,0.39299 -1.27435,-0.393 -1.66735,0 -0.393,0.39299 0.393,1.27435 0,1.66735 -0.393,0.393 -1.66735,0.55578 -1.66735,0 0,-0.55579 2.22313,0 1.66735,0 -9.44833,0 -0.55579,-1.11157 -3.33471,1.66735 -0.39299,0.393 -1.17024,-0.24856 -1.66735,0 -0.70301,0.35151 -1.11156,1.11157 -1.66735,1.66735"
     id="path1719"
     inkscape:connector-curvature="0" />
</svg>
