<?xml version="1.0" encoding="UTF-8" standalone="no"?>
<!-- Created with Inkscape (http://www.inkscape.org/) -->

<svg
   xmlns:dc="http://purl.org/dc/elements/1.1/"
   xmlns:cc="http://creativecommons.org/ns#"
   xmlns:rdf="http://www.w3.org/1999/02/22-rdf-syntax-ns#"
   xmlns:svg="http://www.w3.org/2000/svg"
   xmlns="http://www.w3.org/2000/svg"
   xmlns:xlink="http://www.w3.org/1999/xlink"
   xmlns:sodipodi="http://sodipodi.sourceforge.net/DTD/sodipodi-0.dtd"
   xmlns:inkscape="http://www.inkscape.org/namespaces/inkscape"
   version="1.1"
   id="svg815"
   width="1110.6667"
   height="812"
   viewBox="0 0 1110.6667 812"
   sodipodi:docname="chr-savushkina-sampsonievskiy-ext.svg"
   inkscape:version="0.92.3 (2405546, 2018-03-11)">
  <metadata
     id="metadata821">
    <rdf:RDF>
      <cc:Work
         rdf:about="">
        <dc:format>image/svg+xml</dc:format>
        <dc:type
           rdf:resource="http://purl.org/dc/dcmitype/StillImage" />
        <dc:title></dc:title>
      </cc:Work>
    </rdf:RDF>
  </metadata>
  <defs
     id="defs819" />
  <sodipodi:namedview
     pagecolor="#ffffff"
     bordercolor="#666666"
     borderopacity="1"
     objecttolerance="10"
     gridtolerance="10"
     guidetolerance="10"
     inkscape:pageopacity="0"
     inkscape:pageshadow="2"
     inkscape:window-width="1366"
     inkscape:window-height="715"
     id="namedview817"
     showgrid="false"
     inkscape:zoom="0.5997537"
     inkscape:cx="546.04832"
     inkscape:cy="412.42048"
     inkscape:window-x="0"
     inkscape:window-y="0"
     inkscape:window-maximized="1"
     inkscape:current-layer="svg815"
     fit-margin-top="0"
     fit-margin-left="0"
     fit-margin-right="0"
     fit-margin-bottom="0"
     showguides="false" />
  <image
     sodipodi:absref="/home/aanper/project/luysy-imn-eh/pi/boot/bydefault/web/svg/../img/chr.png"
     xlink:href="../img/chr.png"
     y="0"
     x="0"
     id="image823"
     preserveAspectRatio="none"
     height="812"
     width="1110.6667" />
  <ellipse
     style="fill:#00ff00;fill-opacity:1;stroke:#00ff00;stroke-width:1.00157475;stroke-miterlimit:4;stroke-dasharray:none;stroke-opacity:1;paint-order:stroke fill markers"
     id="path832"
     cx="377.23819"
     cy="655.68585"
     rx="6.2525668"
     ry="5.8357291" />
  <ellipse
     style="fill:#00ff00;fill-opacity:1;stroke:#00ff00;stroke-width:0.24566929;stroke-miterlimit:4;stroke-dasharray:none;stroke-opacity:1;paint-order:stroke fill markers"
     id="path843"
     cx="606.49896"
     cy="399.22638"
     rx="2.7094455"
     ry="2.1883984" />
  <circle
     style="fill:#00ff00;fill-opacity:1;stroke:#00ff00;stroke-width:0.24566929;stroke-miterlimit:4;stroke-dasharray:none;stroke-opacity:1;paint-order:stroke fill markers"
     id="path845"
     cx="475.19507"
     cy="635.2608"
     r="3.7515399" />
  <ellipse
     style="fill:#00ff00;fill-opacity:1;stroke:#00ff00;stroke-width:0.24566929;stroke-miterlimit:4;stroke-dasharray:none;stroke-opacity:1;paint-order:stroke fill markers"
     id="path847"
     cx="871.39941"
     cy="165.69302"
     rx="2.7094455"
     ry="2.5010266" />
  <ellipse
     style="fill:#00ff00;fill-opacity:1;stroke:#00ff00;stroke-width:0.24566929;stroke-miterlimit:4;stroke-dasharray:none;stroke-opacity:1;paint-order:stroke fill markers"
     id="path849"
     cx="404.43686"
     cy="128.38603"
     rx="3.6473305"
     ry="3.3347023" />
  <ellipse
     style="fill:#00ff00;fill-opacity:1;stroke:#00ff00;stroke-width:0.24566929;stroke-miterlimit:4;stroke-dasharray:none;stroke-opacity:1;paint-order:stroke fill markers"
     id="path851"
     cx="452.06058"
     cy="53.980492"
     rx="2.7094455"
     ry="3.1262834" />
  <ellipse
     style="fill:#00ff00;fill-opacity:1;stroke:#00ff00;stroke-width:0.24566929;stroke-miterlimit:4;stroke-dasharray:none;stroke-opacity:1;paint-order:stroke fill markers"
     id="path853"
     cx="288.76437"
     cy="90.662216"
     rx="2.8136551"
     ry="2.5010266" />
  <ellipse
     style="fill:#00ff00;fill-opacity:1;stroke:#00ff00;stroke-width:0.24566929;stroke-miterlimit:4;stroke-dasharray:none;stroke-opacity:1;paint-order:stroke fill markers"
     id="path855"
     cx="1073.2531"
     cy="687.88654"
     rx="3.4389117"
     ry="3.2304928" />
  <ellipse
     style="fill:#00ff00;fill-opacity:1;stroke:#00ff00;stroke-width:0.24566929;stroke-miterlimit:4;stroke-dasharray:none;stroke-opacity:1;paint-order:stroke fill markers"
     id="path857"
     cx="1017.3968"
     cy="608.89581"
     rx="3.022074"
     ry="2.6052361" />
  <path
     style="fill:none;fill-opacity:1;stroke:#00ff00;stroke-width:1.13385832;stroke-miterlimit:4;stroke-dasharray:none;stroke-opacity:1;paint-order:stroke fill markers"
     d="m 380.15606,653.60164 c 7.43193,-1.85798 5.04903,-0.047 8.33675,-3.3347 0.55579,-0.55578 1.31585,-0.96433 1.66735,-1.66735 0.24856,-0.49711 -0.24855,-1.17024 0,-1.66735 0.70302,-1.40604 2.63169,-1.92867 3.33471,-3.3347 0.24855,-0.49711 -0.393,-1.27436 0,-1.66735 0.39299,-0.393 1.27435,0.39299 1.66735,0 0.393,-0.393 0,-1.11157 0,-1.66736 0,-3.3347 0,-6.6694 0,-10.0041 0,-0.78616 0.0756,-8.26119 0,-8.33676 -0.393,-0.393 -1.27436,0.393 -1.66735,0 -0.0756,-0.0756 0,-7.5506 0,-8.33675 0,-0.55579 0.39299,-1.27436 0,-1.66736 -0.393,-0.39299 -1.27436,0.393 -1.66736,0 -0.83367,-0.83367 0.83368,-4.16837 0,-5.00205 -0.39299,-0.393 -1.27435,0.393 -1.66735,0 -0.39299,-0.393 0,-1.11157 0,-1.66735 0,-0.55578 0,-1.11157 0,-1.66735 0,-4.44627 0.55579,0.55578 -1.66735,-1.66735 -0.83367,-0.83368 0.83368,-4.16838 0,-5.00206 -0.393,-0.39299 -1.27435,0.393 -1.66735,0 -0.786,-0.78599 0.786,-2.5487 0,-3.3347 -0.393,-0.393 -1.27435,0.393 -1.66735,0 -0.83368,-0.83367 0.83368,-4.16838 0,-5.00205 -0.393,-0.393 -1.27435,0.393 -1.66735,0 -0.34087,-0.34087 0.33054,-4.34096 0,-5.00205 -0.35151,-0.70302 -1.31584,-0.96434 -1.66735,-1.66736 -0.24856,-0.4971 0,-1.11156 0,-1.66735 0,-0.55578 -0.393,-1.27435 0,-1.66735 0.393,-0.393 1.27435,0.393 1.66735,0 0.34087,-0.34087 -0.33055,-4.34096 0,-5.00205 0.70302,-1.40604 2.63168,-1.92867 3.3347,-3.3347 0.24856,-0.49711 -0.393,-1.27436 0,-1.66735 0.786,-0.786 2.54871,0.78599 3.3347,0 0.393,-0.393 -0.39299,-1.27436 0,-1.66736 0.393,-0.39299 1.27436,0.393 1.66735,0 0.393,-0.39299 -0.39299,-1.27435 0,-1.66735 0.786,-0.78599 2.54871,0.786 3.33471,0 0.393,-0.393 -0.393,-1.27435 0,-1.66735 1.10345,-1.10345 2.23125,1.10345 3.3347,0 0.393,-0.393 -0.393,-1.27435 0,-1.66735 0.45622,-0.45622 5.76489,0.45226 6.6694,0 0.70302,-0.35151 0.96434,-1.31584 1.66735,-1.66735 0.90452,-0.45226 6.21319,0.45622 6.66941,0 0.393,-0.393 -0.393,-1.27435 0,-1.66735 0.51629,-0.51629 7.82046,0.51629 8.33676,0 0.39299,-0.393 -0.393,-1.27435 0,-1.66735 0.78599,-0.786 2.5487,0.78599 3.3347,0 0.393,-0.393 -0.393,-1.27436 0,-1.66735 0.83367,-0.83368 4.16838,0.83367 5.00205,0 0.393,-0.393 -0.393,-1.27436 0,-1.66735 0.83368,-0.83368 4.16838,0.83367 5.00205,0 0.393,-0.393 -0.39299,-1.27436 0,-1.66736 0.786,-0.78599 2.54871,0.786 3.33471,0 0.39299,-0.39299 -0.393,-1.27435 0,-1.66735 0.78599,-0.78599 2.5487,0.786 3.3347,0 0.393,-0.393 -0.393,-1.27435 0,-1.66735 0.786,-0.78599 2.34048,0.49711 3.3347,0 0.70302,-0.35151 0.96434,-1.31584 1.66735,-1.66735 0.99422,-0.49711 2.54871,0.786 3.3347,0 0.393,-0.393 -0.39299,-1.27435 0,-1.66735 0.40122,-0.40122 6.26819,0.40122 6.66941,0 0.393,-0.393 -0.393,-1.27435 0,-1.66735 0.786,-0.786 2.34048,0.49711 3.3347,0 1.40603,-0.70302 1.92867,-2.63169 3.3347,-3.3347 0.49711,-0.24856 1.27436,0.39299 1.66735,0 0.393,-0.393 -0.39299,-1.27436 0,-1.66735 0.393,-0.393 1.17025,0.24855 1.66736,0 0.70301,-0.35151 0.96433,-1.31585 1.66735,-1.66736 0.4971,-0.24855 1.27435,0.393 1.66735,0 0.393,-0.39299 -0.393,-1.27435 0,-1.66735 0.393,-0.393 1.27435,0.393 1.66735,0 0.393,-0.393 -0.393,-1.27435 0,-1.66735 0.786,-0.786 2.5487,0.786 3.3347,0 0,-4.44627 -0.55578,0.55579 1.66735,-1.66735 0.393,-0.393 -0.393,-1.27435 0,-1.66735 0.786,-0.786 2.54871,0.786 3.3347,0 0.393,-0.393 -0.39299,-1.27435 0,-1.66735 0.393,-0.393 1.17025,0.24855 1.66736,0 0.70301,-0.35151 0.96433,-1.31584 1.66735,-1.66735 0.4971,-0.24856 1.17024,0.24855 1.66735,0 0.70301,-0.35151 0.96433,-1.31585 1.66735,-1.66735 0.49711,-0.24856 1.17024,0.24855 1.66735,0 0.70302,-0.35151 0.96433,-1.31585 1.66735,-1.66735 0.49711,-0.24856 1.27435,0.39299 1.66735,0 0.393,-0.393 0,-1.11157 0,-1.66736 0.55579,0 1.27436,0.393 1.66735,0 0.393,-0.39299 -0.39299,-1.27435 0,-1.66735 0.393,-0.393 1.17025,0.24856 1.66735,0 0.70302,-0.35151 0.96434,-1.31584 1.66736,-1.66735 0.4971,-0.24855 1.27435,0.393 1.66735,0 0.393,-0.393 -0.393,-1.27435 0,-1.66735 0.393,-0.393 1.27435,0.393 1.66735,0 0.393,-0.393 -0.393,-1.27435 0,-1.66735 0.393,-0.393 1.27435,0.393 1.66735,0 0.393,-0.393 -0.393,-1.27435 0,-1.66735 0.393,-0.393 1.17024,0.24855 1.66735,0 1.40603,-0.70302 1.92867,-2.63169 3.3347,-3.3347 0.49711,-0.24856 1.27436,0.39299 1.66735,0 0.393,-0.393 -0.39299,-1.27436 0,-1.66736 0.393,-0.39299 1.17025,0.24856 1.66735,0 1.40604,-0.70301 1.92867,-2.63168 3.33471,-3.3347 0.49711,-0.24855 1.17024,0.24856 1.66735,0 0.70302,-0.35151 0.96433,-1.31584 1.66735,-1.66735 0.49711,-0.24855 1.27435,0.393 1.66735,0 0.393,-0.393 -0.393,-1.27435 0,-1.66735 0.393,-0.393 1.27435,0.393 1.66735,0 0.393,-0.393 -0.393,-1.27435 0,-1.66735 0.393,-0.393 1.17024,0.24855 1.66735,0 0.70302,-0.35151 0.96434,-1.31584 1.66735,-1.66735 0.49711,-0.24856 1.27436,0.393 1.66735,0 0.393,-0.393 -0.39299,-1.27435 0,-1.66735 0.393,-0.393 1.27436,0.393 1.66736,0 0.39299,-0.393 -0.24856,-1.17025 0,-1.66735 0.53102,-1.06206 7.0266,-7.02661 8.33675,-8.33676 0.55579,-0.55578 0.96434,-1.31584 1.66735,-1.66735 0.49711,-0.24855 1.27436,0.393 1.66735,0 0.393,-0.393 -0.39299,-1.27435 0,-1.66735 0.0536,-0.0536 4.59768,0 5.00206,0 0.55578,0 1.27435,-0.393 1.66735,0 0.393,0.393 -0.393,1.27435 0,1.66735 0.393,0.393 1.27435,-0.393 1.66735,0 0.393,0.393 -0.393,1.27435 0,1.66735 0.393,0.393 1.17024,-0.24855 1.66735,0 0.70302,0.35151 0.96433,1.31584 1.66735,1.66735 0.49711,0.24856 1.27435,-0.393 1.66735,0 0.393,0.393 -0.393,1.27435 0,1.66735 0.393,0.393 1.27436,-0.393 1.66735,0 0.393,0.393 -0.39299,1.27436 0,1.66735 0.393,0.393 1.27436,-0.39299 1.66736,0 0.39299,0.393 -0.393,1.27436 0,1.66735 3.4498,3.44981 -0.13486,-5.27176 3.3347,1.66736 0.24855,0.4971 -0.24856,1.17024 0,1.66735 0.35151,0.70301 1.31584,0.96433 1.66735,1.66735 0.24855,0.49711 -0.393,1.27435 0,1.66735 0.393,0.393 1.27435,-0.393 1.66735,0 0.393,0.393 -0.393,1.27435 0,1.66735 0.393,0.393 1.27435,-0.393 1.66735,0 0.393,0.393 -0.24855,1.17024 0,1.66735 0.70302,1.40604 2.63169,1.92867 3.3347,3.3347 0.24856,0.49711 -0.393,1.27436 0,1.66735 0.393,0.393 1.27436,-0.39299 1.66735,0 0.393,0.393 -0.24855,1.17025 0,1.66736 5.52991,5.5299 -0.78599,-1.572 1.66736,3.3347 1.79649,3.59298 1.53821,-0.25828 3.3347,3.3347 0.49711,0.99422 -0.786,2.54871 0,3.3347 0.393,0.393 1.27435,-0.393 1.66735,0 0.393,0.393 -0.24856,1.17025 0,1.66735 0.35151,0.70302 1.31584,0.96434 1.66735,1.66736 0.49711,0.99421 -0.786,2.5487 0,3.3347 0.393,0.393 1.27435,-0.393 1.66735,0 0.34087,0.34086 -0.33054,4.34096 0,5.00205 0.35151,0.70302 1.31584,0.96433 1.66735,1.66735 0.33055,0.66109 -0.34087,4.66119 0,5.00206 0.393,0.39299 1.27435,-0.393 1.66735,0 0.393,0.39299 -0.24855,1.17024 0,1.66735 0.35151,0.70301 1.31585,0.96433 1.66735,1.66735 0.24856,0.49711 -0.39299,1.27435 0,1.66735 0.393,0.393 1.27436,-0.393 1.66736,0 0.39299,0.393 -0.24856,1.17024 0,1.66735 3.46955,6.93912 -0.11511,-1.78246 3.3347,1.66735 0.393,0.393 -0.24856,1.17024 0,1.66735 3.46956,6.93912 -0.11511,-1.78246 3.3347,1.66735 0.393,0.393 -0.393,1.27436 0,1.66735 0.393,0.393 1.17024,-0.24855 1.66735,0 0.70302,0.35151 0.96434,1.31585 1.66735,1.66736 0.49711,0.24855 1.27435,-0.393 1.66735,0 0.393,0.39299 -0.393,1.27435 0,1.66735 0.393,0.39299 1.27436,-0.393 1.66735,0 0.393,0.39299 -0.39299,1.27435 0,1.66735 4.44627,0 -0.55578,-0.55579 1.66736,1.66735 0.39299,0.393 1.27435,-0.393 1.66735,0 0.393,0.393 -0.393,1.27435 0,1.66735 0.393,0.393 1.17024,-0.24855 1.66735,0 0.70301,0.35151 0.96433,1.31584 1.66735,1.66735 0.49711,0.24855 1.27435,-0.393 1.66735,0 0.393,0.393 -0.393,1.27435 0,1.66735 0.786,0.786 2.54871,-0.78599 3.3347,0 0.393,0.393 -0.393,1.27435 0,1.66735 0.393,0.393 1.17025,-0.24855 1.66735,0 0.70302,0.35151 0.96434,1.31585 1.66735,1.66735 0.6611,0.33055 4.66119,-0.34086 5.00206,0 0.393,0.393 -0.393,1.27436 0,1.66736 0.83367,0.83367 4.16838,-0.83368 5.00205,0 0.393,0.39299 -0.393,1.27435 0,1.66735 0.34087,0.34086 4.34096,-0.33055 5.00205,0 0.70302,0.35151 0.96434,1.31584 1.66736,1.66735 0.99421,0.49711 2.5487,-0.786 3.3347,0 0.393,0.393 -0.393,1.27435 0,1.66735 0.393,0.393 1.17024,-0.24856 1.66735,0 0.70302,0.35151 0.96433,1.31584 1.66735,1.66735 0.49711,0.24855 1.17024,-0.24855 1.66735,0 0.70302,0.35151 0.96434,1.31584 1.66735,1.66735 0.99422,0.49711 2.54871,-0.786 3.3347,0 0.393,0.393 -0.39299,1.27435 0,1.66735 0.786,0.786 2.54871,-0.78599 3.33471,0 0.393,0.393 -0.393,1.27435 0,1.66735 0.78599,0.786 2.5487,-0.78599 3.3347,0 0.393,0.393 -0.393,1.27436 0,1.66735 0.83368,0.83368 4.16838,-0.83367 5.00205,0 0.393,0.393 -0.393,1.27436 0,1.66736 0.786,0.78599 2.54871,-0.786 3.33471,0 0.39299,0.39299 -0.393,1.27435 0,1.66735 0.78599,0.78599 2.5487,-0.786 3.3347,0 0.393,0.393 -0.393,1.27435 0,1.66735 0.83367,0.83367 4.16838,-0.83368 5.00205,0 0.393,0.393 -0.393,1.27435 0,1.66735 0.786,0.786 2.34049,-0.49711 3.3347,0 0.70302,0.35151 0.96434,1.31584 1.66735,1.66735 0.49711,0.24855 1.11157,0 1.66736,0 0.55578,0.55578 0.96433,1.31584 1.66735,1.66735 0.99421,0.49711 2.5487,-0.786 3.3347,0 0.393,0.393 -0.393,1.27435 0,1.66735 0.34087,0.34087 4.34096,-0.33054 5.00205,0 0.70302,0.35151 0.96434,1.31585 1.66735,1.66735 0.49711,0.24856 1.17025,-0.24855 1.66735,0 0.70302,0.35151 0.96434,1.31585 1.66736,1.66735 0.4971,0.24856 1.11156,0 1.66735,0 0.55578,0.55579 0.96433,1.31585 1.66735,1.66736 0.49711,0.24855 1.27435,-0.393 1.66735,0 0.393,0.39299 -0.393,1.27435 0,1.66735 0.83367,0.83367 4.16838,-0.83368 5.00205,0 0.393,0.393 -0.393,1.27435 0,1.66735 0.786,0.78599 2.34049,-0.49711 3.3347,0 0.70302,0.35151 0.96434,1.31584 1.66736,1.66735 0.4971,0.24855 1.27435,-0.393 1.66735,0 0.393,0.393 -0.393,1.27435 0,1.66735 0.78599,0.786 2.34048,-0.49711 3.3347,0 0.70302,0.35151 0.96433,1.31584 1.66735,1.66735 1.04797,0.52399 5.62144,-0.52398 6.6694,0 0.70302,0.35151 0.96434,1.31584 1.66736,1.66735 0.90451,0.45226 6.21318,-0.45622 6.6694,0 0.393,0.393 -0.393,1.27436 0,1.66735 0.786,0.786 2.34049,-0.4971 3.3347,0 0.70302,0.35151 0.96434,1.31585 1.66735,1.66735 0.99422,0.49711 2.34049,-0.4971 3.33471,0 0.70301,0.35151 0.96433,1.31585 1.66735,1.66736 0.99421,0.4971 2.34048,-0.49711 3.3347,0 0.70302,0.3515 0.96433,1.31584 1.66735,1.66735 0.99422,0.49711 2.34049,-0.49711 3.3347,0 0.70302,0.35151 0.96434,1.31584 1.66735,1.66735 0.99422,0.49711 2.28018,-0.35151 3.33471,0 1.17899,0.393 2.1557,1.27435 3.3347,1.66735 1.05452,0.35151 2.34048,-0.49711 3.3347,0 0.70302,0.35151 0.96433,1.31584 1.66735,1.66735 0.49711,0.24855 1.17024,-0.24855 1.66735,0 0.70302,0.35151 0.96434,1.31584 1.66735,1.66735 0.99422,0.49711 2.34049,-0.49711 3.33471,0 0.70301,0.35151 0.96433,1.31584 1.66735,1.66735 0.99421,0.49711 2.34048,-0.49711 3.3347,0 0.70302,0.35151 0.96433,1.31585 1.66735,1.66735 1.33388,0.66694 3.66817,-0.66694 5.00205,0 0.70302,0.35151 0.96434,1.31585 1.66736,1.66735 0.50743,0.25372 4.25114,0 5.00205,0 1.15971,0 7.73378,0.30149 8.33675,0 0.70302,-0.3515 0.96434,-1.31584 1.66736,-1.66735 1.33388,-0.66694 3.66817,0.66694 5.00205,0 0.70302,-0.3515 0.96433,-1.31584 1.66735,-1.66735 0.50743,-0.25371 4.25115,0 5.00205,0 1.15971,0 7.73379,-0.30148 8.33676,0 0.70302,0.35151 0.96433,1.31585 1.66735,1.66735 0.99422,0.49711 2.34049,-0.4971 3.3347,0 0.70302,0.35151 0.96434,1.31585 1.66735,1.66735 1.77573,0.88787 1.55898,-0.88786 3.33471,0 0.70301,0.35151 0.96433,1.31585 1.66735,1.66736 0.99421,0.4971 2.5487,-0.786 3.3347,0 0.393,0.39299 -0.393,1.27435 0,1.66735 0.393,0.393 1.17024,-0.24856 1.66735,0 0.70302,0.35151 0.96433,1.31584 1.66735,1.66735 0.49711,0.24855 1.17024,-0.24856 1.66735,0 0.70302,0.35151 0.96434,1.31584 1.66735,1.66735 0.99422,0.49711 2.54871,-0.786 3.33471,0 0.39299,0.393 -0.393,1.27435 0,1.66735 0.83367,0.83368 4.16837,-0.83368 5.00205,0 0.393,0.393 -0.393,1.27435 0,1.66735 0.393,0.393 1.17024,-0.24855 1.66735,0 0.70302,0.35151 0.96433,1.31584 1.66735,1.66735 0.49711,0.24856 1.27435,-0.393 1.66735,0 0.393,0.393 -0.393,1.27436 0,1.66735 0.786,0.786 2.34049,-0.4971 3.3347,0 0.70302,0.35151 0.96434,1.31585 1.66736,1.66736 0.99421,0.4971 2.5487,-0.786 3.3347,0 0.393,0.39299 -0.393,1.27435 0,1.66735 0.83367,0.83367 4.16838,-0.83368 5.00205,0 0.393,0.39299 -0.393,1.27435 0,1.66735 0.786,0.78599 2.54871,-0.786 3.3347,0 0.393,0.393 -0.39299,1.27435 0,1.66735 0.786,0.786 2.54871,-0.786 3.33471,0 0.39299,0.393 -0.393,1.27435 0,1.66735 0.78599,0.786 2.34048,-0.49711 3.3347,0 0.70302,0.35151 0.96433,1.31584 1.66735,1.66735 0.99422,0.49711 2.5487,-0.786 3.3347,0 0.393,0.393 -0.393,1.27435 0,1.66735 0.393,0.393 1.17024,-0.24855 1.66735,0 0.70302,0.35151 0.96434,1.31584 1.66735,1.66735 0.49711,0.24856 1.17025,-0.24855 1.66735,0 0.70302,0.35151 0.96434,1.31585 1.66736,1.66735 0.99421,0.49711 2.5487,-0.78599 3.3347,0 0.393,0.393 -0.393,1.27436 0,1.66736 0.34087,0.34086 4.34096,-0.33055 5.00205,0 0.70302,0.3515 0.96434,1.31584 1.66735,1.66735 0.66109,0.33054 4.66119,-0.34087 5.00206,0 0.39299,0.39299 -0.393,1.27435 0,1.66735 0.78599,0.78599 2.34048,-0.49711 3.3347,0 0.70302,0.35151 0.96433,1.31584 1.66735,1.66735 0.49711,0.24855 1.17024,-0.24856 1.66735,0 0.70302,0.35151 0.96433,1.31584 1.66735,1.66735 0.99422,0.49711 2.54871,-0.786 3.3347,0 0.393,0.393 -0.39299,1.27435 0,1.66735 0.40122,0.40122 6.26819,-0.40122 6.66941,0 0.393,0.393 -0.393,1.27435 0,1.66735 0.40122,0.40122 6.26819,-0.40121 6.6694,0 0.393,0.393 -0.393,1.27435 0,1.66735 0.786,0.786 2.34049,-0.4971 3.33471,0 0.70301,0.35151 0.96433,1.31585 1.66735,1.66735 0.4971,0.24856 1.17024,-0.24855 1.66735,0 0.70301,0.35151 0.96433,1.31585 1.66735,1.66736 0.49711,0.24855 1.17024,-0.24856 1.66735,0 0.70302,0.3515 0.96433,1.31584 1.66735,1.66735 0.99422,0.4971 2.54871,-0.786 3.3347,0 0.393,0.39299 -0.393,1.27435 0,1.66735 0.786,0.78599 2.54871,-0.786 3.33471,0 0.39299,0.393 -0.393,1.27435 0,1.66735 0.0536,0.0536 4.59767,0 5.00205,0 6.11362,0 12.22724,0 18.34086,0 0.55579,0 1.11157,0 1.66735,0 0.55579,0 1.27436,-0.393 1.66735,0 0.393,0.393 -0.39299,1.27435 0,1.66735 0.0756,0.0756 7.55061,0 8.33676,0 0.55578,0 1.27435,-0.393 1.66735,0 0.393,0.393 -0.393,1.27435 0,1.66735 0.786,0.786 2.34049,-0.49711 3.3347,0 0.70302,0.35151 0.96434,1.31584 1.66735,1.66735 0.99422,0.49711 2.34049,-0.49711 3.33471,0 0.70301,0.35151 0.96433,1.31584 1.66735,1.66735 0.99421,0.49711 2.5487,-0.78599 3.3347,0 0.393,0.393 -0.393,1.27436 0,1.66735 0.786,0.786 2.5487,-0.78599 3.3347,0 3.44981,3.44981 -5.27176,-0.13485 1.66735,3.33471 0.49711,0.24855 1.17025,-0.24856 1.66735,0 0.70302,0.35151 0.96434,1.31584 1.66736,1.66735 0.4971,0.24855 1.27437,-0.393 1.66737,0 0.393,0.393 -0.393,1.27435 0,1.66735 0.393,0.393 1.2743,-0.393 1.6673,0 0.393,0.393 -0.393,1.27435 0,1.66735 0.393,0.393 1.2744,-0.393 1.6674,0 0.393,0.393 -0.393,1.27435 0,1.66735 0.393,0.393 1.1702,-0.24855 1.6673,0 0.703,0.35151 1.1116,1.11157 1.6674,1.66735 0.5558,0.55579 1.3158,0.96434 1.6673,1.66735 0.2486,0.49711 -0.393,1.27436 0,1.66735 0.393,0.393 1.2744,-0.39299 1.6674,0 0.393,0.393 -0.2486,1.17025 0,1.66736 0.3515,0.70301 1.3158,0.96433 1.6673,1.66735 0.2486,0.4971 0,1.11156 0,1.66735 0.5558,0.55578 1.3159,0.96433 1.6674,1.66735 0.4971,0.99422 -0.4971,2.34049 0,3.3347 0.3515,0.70302 1.3158,0.96434 1.6673,1.66735 0.5759,1.1517 -0.5852,7.75149 0,8.33676 0.393,0.393 1.2744,-0.393 1.6674,0 0.393,0.393 0,1.11157 0,1.66735 0,1.15971 -0.3015,7.73378 0,8.33675 0.3515,0.70302 1.3158,0.96434 1.6673,1.66736 0.5063,1.01245 -0.5062,8.99165 0,10.0041 0.3515,0.70302 1.3159,0.96434 1.6674,1.66735 0.2485,0.49711 0,1.11157 0,1.66735 0,0.55579 0,1.11157 0,1.66736 0,3.3347 0,6.6694 0,10.0041 0,0.55579 0,1.11157 0,1.66735 0,0.55579 -0.2486,1.17025 0,1.66736 0.3515,0.70301 1.3158,0.96433 1.6673,1.66735 0.4971,0.99421 -0.4971,2.34048 0,3.3347 0.3515,0.70302 1.3159,0.96433 1.6674,1.66735 0.2485,0.49711 -0.393,1.27435 0,1.66735 0.393,0.393 1.2743,-0.393 1.6673,0 0.393,0.393 -0.2485,1.17024 0,1.66735 0.3516,0.70302 1.3159,0.96434 1.6674,1.66735 0.2485,0.49711 -0.2486,1.17025 0,1.66735 0.3515,0.70302 1.3158,0.96434 1.6673,1.66736 0.4972,0.99421 -0.4971,2.34048 0,3.3347 0.3516,0.70301 1.3159,0.96433 1.6674,1.66735 0.6669,1.33388 -0.6669,3.66817 0,5.00205 0.3515,0.70302 1.3158,0.96434 1.6673,1.66735 0.4972,0.99422 -0.4971,2.34049 0,3.33471 0.3516,0.70301 1.3159,0.96433 1.6674,1.66735 0.4971,0.99421 -0.786,2.5487 0,3.3347 0.393,0.393 1.2744,-0.393 1.6673,0 0.4563,0.45622 -0.4522,5.76489 0,6.6694 2.0604,4.1207 1.6674,0.99646 1.6674,0"
     id="path1801"
     inkscape:connector-curvature="0" />
</svg>
