<?xml version="1.0" encoding="UTF-8" standalone="no"?>
<!-- Created with Inkscape (http://www.inkscape.org/) -->

<svg
   xmlns:dc="http://purl.org/dc/elements/1.1/"
   xmlns:cc="http://creativecommons.org/ns#"
   xmlns:rdf="http://www.w3.org/1999/02/22-rdf-syntax-ns#"
   xmlns:svg="http://www.w3.org/2000/svg"
   xmlns="http://www.w3.org/2000/svg"
   xmlns:xlink="http://www.w3.org/1999/xlink"
   xmlns:sodipodi="http://sodipodi.sourceforge.net/DTD/sodipodi-0.dtd"
   xmlns:inkscape="http://www.inkscape.org/namespaces/inkscape"
   version="1.1"
   id="svg815"
   width="1110.6667"
   height="812"
   viewBox="0 0 1110.6667 812"
   sodipodi:docname="chr-savushkina-primorskaya-ext.svg"
   inkscape:version="0.92.3 (2405546, 2018-03-11)">
  <metadata
     id="metadata821">
    <rdf:RDF>
      <cc:Work
         rdf:about="">
        <dc:format>image/svg+xml</dc:format>
        <dc:type
           rdf:resource="http://purl.org/dc/dcmitype/StillImage" />
        <dc:title></dc:title>
      </cc:Work>
    </rdf:RDF>
  </metadata>
  <defs
     id="defs819" />
  <sodipodi:namedview
     pagecolor="#ffffff"
     bordercolor="#666666"
     borderopacity="1"
     objecttolerance="10"
     gridtolerance="10"
     guidetolerance="10"
     inkscape:pageopacity="0"
     inkscape:pageshadow="2"
     inkscape:window-width="1366"
     inkscape:window-height="715"
     id="namedview817"
     showgrid="false"
     inkscape:zoom="0.84817981"
     inkscape:cx="435.40051"
     inkscape:cy="255.4684"
     inkscape:window-x="0"
     inkscape:window-y="0"
     inkscape:window-maximized="1"
     inkscape:current-layer="svg815"
     fit-margin-top="0"
     fit-margin-left="0"
     fit-margin-right="0"
     fit-margin-bottom="0"
     showguides="false" />
  <image
     sodipodi:absref="/home/aanper/project/luysy-imn-eh/pi/boot/bydefault/web/svg/../img/chr.png"
     xlink:href="../img/chr.png"
     y="0"
     x="0"
     id="image823"
     preserveAspectRatio="none"
     height="812"
     width="1110.6667" />
  <ellipse
     style="fill:#00ff00;fill-opacity:1;stroke:#00ff00;stroke-width:1.00157475;stroke-miterlimit:4;stroke-dasharray:none;stroke-opacity:1;paint-order:stroke fill markers"
     id="path832"
     cx="377.23819"
     cy="655.68585"
     rx="6.2525668"
     ry="5.8357291" />
  <ellipse
     style="fill:#00ff00;fill-opacity:1;stroke:#00ff00;stroke-width:0.24566929;stroke-miterlimit:4;stroke-dasharray:none;stroke-opacity:1;paint-order:stroke fill markers"
     id="path843"
     cx="606.49896"
     cy="399.22638"
     rx="2.7094455"
     ry="2.1883984" />
  <circle
     style="fill:#00ff00;fill-opacity:1;stroke:#00ff00;stroke-width:0.24566929;stroke-miterlimit:4;stroke-dasharray:none;stroke-opacity:1;paint-order:stroke fill markers"
     id="path845"
     cx="475.19507"
     cy="635.2608"
     r="3.7515399" />
  <ellipse
     style="fill:#00ff00;fill-opacity:1;stroke:#00ff00;stroke-width:0.24566929;stroke-miterlimit:4;stroke-dasharray:none;stroke-opacity:1;paint-order:stroke fill markers"
     id="path847"
     cx="871.39941"
     cy="165.69302"
     rx="2.7094455"
     ry="2.5010266" />
  <ellipse
     style="fill:#00ff00;fill-opacity:1;stroke:#00ff00;stroke-width:0.24566929;stroke-miterlimit:4;stroke-dasharray:none;stroke-opacity:1;paint-order:stroke fill markers"
     id="path849"
     cx="404.43686"
     cy="128.38603"
     rx="3.6473305"
     ry="3.3347023" />
  <ellipse
     style="fill:#00ff00;fill-opacity:1;stroke:#00ff00;stroke-width:0.24566929;stroke-miterlimit:4;stroke-dasharray:none;stroke-opacity:1;paint-order:stroke fill markers"
     id="path851"
     cx="452.06058"
     cy="53.980492"
     rx="2.7094455"
     ry="3.1262834" />
  <ellipse
     style="fill:#00ff00;fill-opacity:1;stroke:#00ff00;stroke-width:0.24566929;stroke-miterlimit:4;stroke-dasharray:none;stroke-opacity:1;paint-order:stroke fill markers"
     id="path853"
     cx="288.76437"
     cy="90.662216"
     rx="2.8136551"
     ry="2.5010266" />
  <ellipse
     style="fill:#00ff00;fill-opacity:1;stroke:#00ff00;stroke-width:0.24566929;stroke-miterlimit:4;stroke-dasharray:none;stroke-opacity:1;paint-order:stroke fill markers"
     id="path855"
     cx="1073.2531"
     cy="687.88654"
     rx="3.4389117"
     ry="3.2304928" />
  <ellipse
     style="fill:#00ff00;fill-opacity:1;stroke:#00ff00;stroke-width:0.24566929;stroke-miterlimit:4;stroke-dasharray:none;stroke-opacity:1;paint-order:stroke fill markers"
     id="path857"
     cx="1017.3968"
     cy="608.89581"
     rx="3.022074"
     ry="2.6052361" />
  <path
     style="fill:none;fill-opacity:1;stroke:#00ff00;stroke-width:1.13385832;stroke-miterlimit:4;stroke-dasharray:none;stroke-opacity:1;paint-order:stroke fill markers"
     d="m 379.63648,656.37262 c -1.37258,9.22627 4.39849,0.8615 5.89498,2.35799 0.27789,0.27789 -0.27789,0.90111 0,1.179 0.27789,0.27789 0.82749,-0.17576 1.17899,0 0.49711,0.24855 0.68189,0.93044 1.179,1.17899 0.35151,0.17576 0.9011,-0.27789 1.179,0 0.27789,0.27789 -0.2779,0.90111 0,1.179 0.27789,0.27789 0.9011,-0.27789 1.17899,0 0.27789,0.27789 -0.17575,0.82749 0,1.17899 0.24855,0.49711 0.786,0.786 1.179,1.179 0.39299,0.393 0.68188,0.93044 1.17899,1.17899 0.35151,0.17576 0.9011,-0.27789 1.179,0 0.27789,0.2779 -0.2779,0.90111 0,1.179 0.27789,0.27789 0.9011,-0.27789 1.17899,0 0.27789,0.27789 -0.27789,0.9011 0,1.17899 0.27789,0.2779 0.90111,-0.27789 1.179,0 0.27789,0.2779 -0.27789,0.90111 0,1.179 0.27789,0.27789 0.82748,-0.17575 1.17899,0 0.31304,0.15652 3.38047,3.22395 3.53699,3.53699 0.17575,0.3515 -0.17576,0.82748 0,1.17899 0.24855,0.49711 0.93044,0.68189 1.17899,1.179 0.35151,0.70301 -0.55578,1.8022 0,2.35799 0.2779,0.27789 0.90111,-0.27789 1.179,0 0.55578,0.55578 -0.35151,1.65497 0,2.35799 0.24855,0.49711 0.93044,0.68188 1.17899,1.17899 0.4716,0.9432 -0.47159,2.59379 0,3.53699 0.24856,0.49711 0.93045,0.68189 1.179,1.17899 0.155,0.31001 0,4.09946 0,4.71599 0,0.39299 0.27789,0.9011 0,1.17899 -0.27789,0.27789 -0.9011,-0.27789 -1.179,0 -0.27789,0.27789 0.2779,0.9011 0,1.179 -0.27789,0.27789 -0.9011,-0.2779 -1.17899,0 0,3.14398 0.393,-0.393 -1.179,1.17899 -0.27789,0.27789 0.2779,0.9011 0,1.179 -0.27789,0.27789 -0.9011,-0.2779 -1.17899,0 -0.27789,0.27789 0.27789,0.9011 0,1.17899 -0.27789,0.27789 -0.82749,-0.17575 -1.179,0 -0.49711,0.24856 -0.68188,0.93044 -1.17899,1.179 -0.35151,0.17575 -0.90111,-0.27789 -1.179,0 -0.27789,0.27789 0.27789,0.9011 0,1.17899 -0.27789,0.27789 -0.82748,-0.17575 -1.17899,0 -0.49711,0.24856 -0.68189,0.93044 -1.179,1.179 -0.35151,0.17575 -0.82749,-0.17576 -1.17899,0 -0.49711,0.24855 -0.68189,0.93044 -1.179,1.17899 -0.35151,0.17576 -0.9011,-0.27789 -1.17899,0 -0.2779,0.27789 0.27789,0.90111 0,1.179 -0.2779,0.27789 -0.786,0 -1.179,0 -1.96499,0 -3.92998,0 -5.89498,0 -0.39299,0 -0.9011,-0.27789 -1.17899,0 -0.27789,0.27789 0.27789,0.9011 0,1.17899 -0.27789,0.2779 -0.786,0 -1.179,0 -0.39299,0 -0.78599,0 -1.17899,0 -5.89498,0 -11.78995,0 -17.68493,0 -0.82004,0 -5.46861,-0.21318 -5.89498,0 -0.49711,0.24856 -0.68188,0.93044 -1.17899,1.179 -0.35151,0.17575 -0.786,0 -1.179,0 -0.393,0 -0.78599,0 -1.17899,0 -1.965,0 -3.92999,0 -5.89498,0 -0.393,0 -0.786,0 -1.179,0 -0.39299,0 -0.82748,-0.17576 -1.17899,0 -0.49711,0.24855 -0.68189,0.93044 -1.179,1.17899 -0.30483,0.15242 -6.23829,0 -7.07397,0 -0.393,0 -0.9011,-0.27789 -1.17899,0 -0.27789,0.2779 0.27789,0.90111 0,1.179 -0.3226,0.3226 -4.07639,-0.3198 -4.71598,0 -0.49711,0.24855 -0.68189,0.93044 -1.179,1.17899 -0.74102,0.37052 -3.97496,-0.37051 -4.71598,0 -0.49711,0.24856 -0.68189,0.93045 -1.179,1.179 -0.94319,0.4716 -2.59379,-0.4716 -3.53698,0 -0.49711,0.24855 -0.68189,0.93044 -1.179,1.179 -0.81437,0.40718 -5.48112,-0.41386 -5.89497,0 -0.2779,0.27789 0.27789,0.9011 0,1.17899 -0.2779,0.27789 -0.786,0 -1.179,0 -0.83567,0 -6.76914,-0.15241 -7.07397,0 -0.49711,0.24855 -0.68189,0.93044 -1.179,1.179 -0.74379,0.37189 -5.15118,-0.3719 -5.89497,0 -0.49711,0.24855 -0.68189,0.93044 -1.179,1.17899 -0.42636,0.21318 -5.07494,0 -5.89497,0 -0.393,0 -0.90111,-0.27789 -1.179,0 -0.27789,0.27789 0.27789,0.9011 0,1.179 -0.27789,0.27789 -0.786,0 -1.17899,0 -2.35799,0 -4.71599,0 -7.07398,0 -6.28797,0 -12.57595,0 -18.86392,0 -2.35799,0 -4.71598,0 -7.07397,0 -0.53097,0 -3.17818,-0.17941 -3.53699,0 -0.49711,0.24855 -0.68189,0.93044 -1.17899,1.17899 -0.31001,0.155 -4.09946,0 -4.71598,0 -2.75099,0 -5.50198,0 -8.25297,0 -0.53097,0 -3.17818,0.17941 -3.53699,0 -0.49711,-0.24855 -0.68188,-0.93044 -1.17899,-1.17899 -0.31001,-0.15501 -4.09946,0 -4.71598,0 -3.92999,0 -7.85997,0 -11.78996,0 -0.83567,0 -6.76914,-0.15242 -7.07397,0 -0.49711,0.24855 -0.68189,0.93044 -1.17899,1.17899 -0.35151,0.17576 -0.82749,-0.17575 -1.179,0 -0.49711,0.24856 -0.68189,0.93044 -1.17899,1.179 -0.9432,0.4716 -2.59379,-0.4716 -3.53699,0 -0.49711,0.24855 -0.68189,0.93044 -1.179,1.17899 -0.70301,0.35151 -1.65497,-0.35151 -2.35799,0 -0.4971,0.24856 -0.68188,0.93044 -1.17899,1.179 -0.70302,0.35151 -1.80221,-0.55579 -2.35799,0 -0.27789,0.27789 0.27789,0.9011 0,1.17899 -0.55579,0.55579 -1.65498,-0.35151 -2.35799,0 -0.49711,0.24856 -0.68189,0.93044 -1.179,1.179 -0.70301,0.35151 -1.8022,-0.55579 -2.35799,0 -0.27789,0.27789 0.27789,0.9011 0,1.17899 -0.24103,0.24103 -3.06952,-0.23373 -3.53698,0 -0.49711,0.24856 -0.68189,0.93044 -1.179,1.179 -0.81437,0.40718 -5.48113,-0.41385 -5.89498,0 -0.27789,0.27789 0.2779,0.9011 0,1.17899 -0.41385,0.41385 -5.0806,-0.40718 -5.89497,0 -0.49711,0.24856 -0.68189,0.93045 -1.179,1.179 -0.70301,0.35151 -1.65497,-0.35151 -2.35799,0 -0.49711,0.24855 -0.68189,0.93044 -1.17899,1.17899 -0.46747,0.23374 -3.29596,-0.24103 -3.53699,0 -0.27789,0.2779 0.27789,0.90111 0,1.179 -0.5895,0.5895 -2.94749,-0.5895 -3.53699,0 -0.27789,0.27789 0.2779,0.9011 0,1.179 -0.24103,0.24102 -3.06952,-0.23374 -3.53698,0 -0.49711,0.24855 -0.68189,0.93044 -1.179,1.17899 -0.94319,0.4716 -2.59379,-0.4716 -3.53698,0 -0.49711,0.24855 -0.68189,0.93044 -1.179,1.179 -0.46746,0.23373 -3.29595,-0.24103 -3.53698,0 -0.2779,0.27789 0.27789,0.9011 0,1.17899 -0.3226,0.3226 -4.07639,-0.31979 -4.71598,0 -0.49711,0.24855 -0.68189,0.93044 -1.179,1.179 -0.9432,0.47159 -2.59379,-0.4716 -3.53699,0 -0.4971,0.24855 -0.68188,0.93044 -1.17899,1.17899 -0.63959,0.3198 -4.39338,-0.3226 -4.71598,0 -0.27789,0.27789 0.27789,0.9011 0,1.179 -0.28371,0.2837 -4.43228,-0.28371 -4.71598,0 -0.2779,0.27789 0.27789,0.9011 0,1.17899 -0.5895,0.5895 -2.94749,-0.5895 -3.53699,0 -0.27789,0.27789 0.27789,0.90111 0,1.179 -0.2837,0.2837 -4.43228,-0.28371 -4.71598,0 -0.27789,0.27789 0.27789,0.9011 0,1.17899 -0.36507,0.36508 -5.5299,-0.36507 -5.89498,0 -0.27789,0.27789 0.27789,0.90111 0,1.179 -0.27789,0.27789 -0.78599,0 -1.17899,0 -0.393,0 -0.786,0 -1.179,0 -0.83567,0 -6.76914,-0.15242 -7.07397,0 -0.49711,0.24855 -0.68189,0.93044 -1.17899,1.17899 -0.35151,0.17576 -0.786,0 -1.179,0 -0.393,0 -0.786,0 -1.179,0 -2.357986,0 -4.715976,0 -7.073967,0 -7.859968,0 -15.719937,0 -23.579906,0 -2.35799,0 -4.715981,0 -7.073971,0 -0.392999,0 -0.901104,-0.27789 -1.178996,0 -0.277892,0.2779 0.277892,0.90111 0,1.179 -0.03792,0.0379 -3.251048,0 -3.536986,0 -3.143987,0 -6.287974,0 -9.431962,0 -0.616521,0 -4.405974,-0.155 -4.715981,0 -0.497108,0.24855 -0.681887,0.93044 -1.178995,1.17899 -0.639591,0.3198 -4.393382,-0.3226 -4.715981,0 -0.277892,0.2779 0.277891,0.90111 0,1.179 -0.283703,0.2837 -4.432279,-0.2837 -4.715982,0 -0.277891,0.27789 0.277892,0.9011 0,1.17899 -0.277891,0.2779 -0.785996,0 -1.178995,0 -3.143987,0 -6.287975,0 -9.431962,0 -0.835674,0 -6.769142,0.15242 -7.073972,0 -0.497108,-0.24855 -0.681887,-0.93044 -1.178995,-1.17899 -0.741025,-0.37051 -3.974957,0.37051 -4.715981,0 -0.497108,-0.24855 -0.6818876,-0.93044 -1.1789957,-1.179 -0.3515085,-0.17575 -0.9011034,0.2779 -1.1789953,0 -0.2778918,-0.27789 0.2778919,-0.9011 0,-1.17899 -0.5894976,-0.5895 -2.9474882,0.5895 -3.5369858,0 -0.2778919,-0.27789 0.2778918,-0.9011 0,-1.179 -0.047444,-0.0474 -4.28301101,0 -4.7159812,0"
     id="path1616"
     inkscape:connector-curvature="0" />
</svg>
