<?xml version="1.0" encoding="UTF-8" standalone="no"?>
<!-- Created with Inkscape (http://www.inkscape.org/) -->

<svg
   xmlns:dc="http://purl.org/dc/elements/1.1/"
   xmlns:cc="http://creativecommons.org/ns#"
   xmlns:rdf="http://www.w3.org/1999/02/22-rdf-syntax-ns#"
   xmlns:svg="http://www.w3.org/2000/svg"
   xmlns="http://www.w3.org/2000/svg"
   xmlns:xlink="http://www.w3.org/1999/xlink"
   xmlns:sodipodi="http://sodipodi.sourceforge.net/DTD/sodipodi-0.dtd"
   xmlns:inkscape="http://www.inkscape.org/namespaces/inkscape"
   version="1.1"
   id="svg815"
   width="1110.6667"
   height="812"
   viewBox="0 0 1110.6667 812"
   sodipodi:docname="chr-savushkina-hackspace-2.svg"
   inkscape:version="0.92.3 (2405546, 2018-03-11)">
  <metadata
     id="metadata821">
    <rdf:RDF>
      <cc:Work
         rdf:about="">
        <dc:format>image/svg+xml</dc:format>
        <dc:type
           rdf:resource="http://purl.org/dc/dcmitype/StillImage" />
        <dc:title></dc:title>
      </cc:Work>
    </rdf:RDF>
  </metadata>
  <defs
     id="defs819" />
  <sodipodi:namedview
     pagecolor="#ffffff"
     bordercolor="#666666"
     borderopacity="1"
     objecttolerance="10"
     gridtolerance="10"
     guidetolerance="10"
     inkscape:pageopacity="0"
     inkscape:pageshadow="2"
     inkscape:window-width="1366"
     inkscape:window-height="715"
     id="namedview817"
     showgrid="false"
     inkscape:zoom="1.6963596"
     inkscape:cx="543.56195"
     inkscape:cy="285.21404"
     inkscape:window-x="0"
     inkscape:window-y="0"
     inkscape:window-maximized="1"
     inkscape:current-layer="svg815"
     fit-margin-top="0"
     fit-margin-left="0"
     fit-margin-right="0"
     fit-margin-bottom="0"
     showguides="false" />
  <image
     sodipodi:absref="/home/aanper/project/luysy-imn-eh/pi/boot/bydefault/web/svg/../img/chr.png"
     xlink:href="../img/chr.png"
     y="0"
     x="0"
     id="image823"
     preserveAspectRatio="none"
     height="812"
     width="1110.6667" />
  <ellipse
     style="fill:#00ff00;fill-opacity:1;stroke:#00ff00;stroke-width:1.00157475;stroke-miterlimit:4;stroke-dasharray:none;stroke-opacity:1;paint-order:stroke fill markers"
     id="path832"
     cx="377.23819"
     cy="655.68585"
     rx="6.2525668"
     ry="5.8357291" />
  <ellipse
     style="fill:#00ff00;fill-opacity:1;stroke:#00ff00;stroke-width:0.24566929;stroke-miterlimit:4;stroke-dasharray:none;stroke-opacity:1;paint-order:stroke fill markers"
     id="path843"
     cx="606.49896"
     cy="399.22638"
     rx="2.7094455"
     ry="2.1883984" />
  <circle
     style="fill:#00ff00;fill-opacity:1;stroke:#00ff00;stroke-width:0.24566929;stroke-miterlimit:4;stroke-dasharray:none;stroke-opacity:1;paint-order:stroke fill markers"
     id="path845"
     cx="475.19507"
     cy="635.2608"
     r="3.7515399" />
  <ellipse
     style="fill:#00ff00;fill-opacity:1;stroke:#00ff00;stroke-width:0.24566929;stroke-miterlimit:4;stroke-dasharray:none;stroke-opacity:1;paint-order:stroke fill markers"
     id="path847"
     cx="871.39941"
     cy="165.69302"
     rx="2.7094455"
     ry="2.5010266" />
  <ellipse
     style="fill:#00ff00;fill-opacity:1;stroke:#00ff00;stroke-width:0.24566929;stroke-miterlimit:4;stroke-dasharray:none;stroke-opacity:1;paint-order:stroke fill markers"
     id="path849"
     cx="404.43686"
     cy="128.38603"
     rx="3.6473305"
     ry="3.3347023" />
  <ellipse
     style="fill:#00ff00;fill-opacity:1;stroke:#00ff00;stroke-width:0.24566929;stroke-miterlimit:4;stroke-dasharray:none;stroke-opacity:1;paint-order:stroke fill markers"
     id="path851"
     cx="452.06058"
     cy="53.980492"
     rx="2.7094455"
     ry="3.1262834" />
  <ellipse
     style="fill:#00ff00;fill-opacity:1;stroke:#00ff00;stroke-width:0.24566929;stroke-miterlimit:4;stroke-dasharray:none;stroke-opacity:1;paint-order:stroke fill markers"
     id="path853"
     cx="288.76437"
     cy="90.662216"
     rx="2.8136551"
     ry="2.5010266" />
  <ellipse
     style="fill:#00ff00;fill-opacity:1;stroke:#00ff00;stroke-width:0.24566929;stroke-miterlimit:4;stroke-dasharray:none;stroke-opacity:1;paint-order:stroke fill markers"
     id="path855"
     cx="1073.2531"
     cy="687.88654"
     rx="3.4389117"
     ry="3.2304928" />
  <ellipse
     style="fill:#00ff00;fill-opacity:1;stroke:#00ff00;stroke-width:0.24566929;stroke-miterlimit:4;stroke-dasharray:none;stroke-opacity:1;paint-order:stroke fill markers"
     id="path857"
     cx="1017.3968"
     cy="608.89581"
     rx="3.022074"
     ry="2.6052361" />
  <path
     style="fill:none;fill-opacity:1;stroke:#00ff00;stroke-width:1.13385832;stroke-miterlimit:4;stroke-dasharray:none;stroke-opacity:1;paint-order:stroke fill markers"
     d="m 379.04699,658.14111 c -0.68511,-1.61472 -0.5895,-3.06132 -0.5895,-4.71598 0,-0.1965 -0.13895,-0.45055 0,-0.58949 0.13894,-0.13895 0.45055,0.13894 0.5895,0 0.27789,-0.2779 -0.2779,-0.90111 0,-1.179 0.13894,-0.13895 0.45055,0.13895 0.58949,0 0.13895,-0.13895 -0.13894,-0.45055 0,-0.5895 0.13895,-0.13894 0.45055,0.13895 0.5895,0 0.13895,-0.13894 0,-0.393 0,-0.58949 0.1965,0 0.45055,0.13894 0.5895,0 0.13894,-0.13895 -0.13895,-0.45056 0,-0.5895 0.13894,-0.13895 0.41374,0.0879 0.5895,0 0.4971,-0.24856 0.68188,-0.93044 1.17899,-1.179 0.17576,-0.0879 0.45055,0.13895 0.5895,0 0.13894,-0.13894 -0.13895,-0.45055 0,-0.5895 0.27789,-0.27789 0.9011,0.2779 1.17899,0 0.13895,-0.13894 -0.13894,-0.45055 0,-0.58949 0.2779,-0.27789 0.90111,0.27789 1.179,0 0.13895,-0.13895 -0.13895,-0.45055 0,-0.5895 0.13895,-0.13895 0.393,0 0.5895,0 0.1965,0 0.393,0 0.58949,0 0.41784,0 3.38458,0.0762 3.53699,0 0.24855,-0.12428 0.34094,-0.46522 0.5895,-0.5895 0.23373,-0.11686 1.64798,0.12052 1.76849,0 0.13895,-0.13894 -0.13894,-0.45055 0,-0.5895 0.27789,-0.27789 0.82749,0.17576 1.179,0 0.24855,-0.12427 0.34094,-0.46522 0.58949,-0.58949 0.23374,-0.11687 1.64798,0.12051 1.7685,0 0.13894,-0.13895 -0.13895,-0.45056 0,-0.5895 0.29475,-0.29475 1.47374,0.29475 1.76849,0 0.13895,-0.13895 -0.13895,-0.45055 0,-0.5895 0.18254,-0.18253 2.76495,0.18254 2.94749,0 0.13894,-0.13894 -0.13895,-0.45055 0,-0.5895 0.27789,-0.27789 0.82749,0.17576 1.17899,0 1.95512,-1.95511 -0.55578,0.2779 1.179,-0.58949 0.24855,-0.12428 0.34094,-0.46522 0.5895,-0.5895 0.17575,-0.0879 0.41374,0.0879 0.58949,0 0.24856,-0.12428 0.34095,-0.46522 0.5895,-0.5895 0.17576,-0.0879 0.45055,0.13895 0.5895,0 0.13895,-0.13895 -0.13895,-0.45055 0,-0.5895 0.27789,-0.27789 0.82749,0.17576 1.17899,0 0.24856,-0.12427 0.34095,-0.46522 0.5895,-0.58949 0.35151,-0.17576 0.90111,0.27789 1.179,0 0.13894,-0.13895 -0.13895,-0.45056 0,-0.5895 0.29475,-0.29475 1.47374,0.29475 1.76849,0 0.13895,-0.13895 -0.13895,-0.45055 0,-0.5895 0.29475,-0.29475 1.47374,0.29475 1.76849,0 0.13895,-0.13895 -0.13894,-0.45055 0,-0.5895 0.29475,-0.29475 1.47375,0.29475 1.7685,0 0.13894,-0.13894 -0.13895,-0.45055 0,-0.5895 0.27789,-0.27789 0.82748,0.17576 1.17899,0 0.24856,-0.12427 0.34095,-0.46522 0.5895,-0.58949 0.35151,-0.17576 0.82749,0.17575 1.17899,0 0.24856,-0.12428 0.34095,-0.46522 0.5895,-0.5895 0.17576,-0.0879 0.41375,0.0879 0.5895,0 0.24855,-0.12428 0.34094,-0.46522 0.5895,-0.5895 0.23373,-0.11686 1.64798,0.12052 1.76849,0 0.13895,-0.13894 -0.13895,-0.45055 0,-0.5895 0.12052,-0.12051 1.53476,0.11687 1.76849,0 0.24856,-0.12427 0.34095,-0.46522 0.5895,-0.58949 0.4716,-0.2358 1.2969,0.2358 1.76849,0 0.24856,-0.12428 0.34095,-0.46522 0.5895,-0.5895 0.17576,-0.0879 0.45055,0.13894 0.5895,0 0.13895,-0.13895 -0.13895,-0.45055 0,-0.5895 0.27789,-0.27789 0.82749,0.17576 1.17899,0 0.24856,-0.12428 0.34095,-0.46522 0.5895,-0.5895 0.17576,-0.0879 0.45055,0.13895 0.5895,0 0.13895,-0.13894 -0.13895,-0.45055 0,-0.58949 0.13895,-0.13895 0.45055,0.13894 0.5895,0 0.13894,-0.13895 -0.13895,-0.45056 0,-0.5895 0.27789,-0.27789 0.9011,0.27789 1.17899,0 0.13895,-0.13895 -0.13894,-0.45055 0,-0.5895 0.13895,-0.13895 0.41375,0.0879 0.5895,0 0.24855,-0.12428 0.34094,-0.46522 0.5895,-0.5895 0.17575,-0.0879 0.41374,0.0879 0.5895,0 0.24855,-0.12427 0.34094,-0.46522 0.58949,-0.58949 0.17576,-0.0879 0.45056,0.13894 0.5895,0 0.13895,-0.13895 -0.13894,-0.45056 0,-0.5895 0.29475,-0.29475 1.47375,0.29475 1.76849,0 0.13895,-0.13895 -0.13894,-0.45055 0,-0.5895 0.2779,-0.27789 0.90111,0.27789 1.179,0 0.13895,-0.13895 -0.13895,-0.45055 0,-0.5895 0.27789,-0.27789 0.9011,0.27789 1.17899,0 0.13895,-0.13894 -0.13894,-0.45055 0,-0.5895 0.13895,-0.13894 0.41375,0.0879 0.5895,0 1.95512,-1.95511 -0.55578,0.2779 1.179,-0.58949 0.24855,-0.12428 0.34094,-0.46522 0.5895,-0.5895 0.17575,-0.0879 0.41374,0.0879 0.58949,0 0.24856,-0.12428 0.34095,-0.46522 0.5895,-0.5895 0.35151,-0.17575 0.82749,0.17576 1.179,0 0.24855,-0.12428 0.34094,-0.46522 0.58949,-0.5895 0.35151,-0.17575 0.82749,0.17576 1.179,0 0.24855,-0.12427 0.34094,-0.46522 0.5895,-0.58949 0.40718,-0.2036 2.74056,0.20692 2.94748,0 0.13895,-0.13895 -0.13894,-0.45056 0,-0.5895 0.2779,-0.27789 0.82749,0.17575 1.179,0 0.24855,-0.12428 0.34094,-0.46522 0.5895,-0.5895 0.35151,-0.17575 0.82748,0.17576 1.17899,0 0.24856,-0.12428 0.34095,-0.46522 0.5895,-0.5895 0.35151,-0.17575 0.9011,0.2779 1.179,0 0.13894,-0.13894 -0.13895,-0.45055 0,-0.58949 0.27789,-0.2779 0.9011,0.27789 1.17899,0 0.13895,-0.13895 -0.13894,-0.45056 0,-0.5895 0.13895,-0.13895 0.45055,0.13894 0.5895,0 0.27789,-0.27789 -0.17576,-0.82749 0,-1.179 0.12428,-0.24855 0.46522,-0.34094 0.5895,-0.58949 0.17575,-0.35151 -0.17576,-0.82749 0,-1.179 1.95511,-1.95512 -0.2779,0.55578 0.58949,-1.179 0.12428,-0.24855 0.46522,-0.34094 0.5895,-0.58949 0.0879,-0.17576 -0.13894,-0.45055 0,-0.5895 0.13895,-0.13895 0.45055,0.13895 0.5895,0 0.13895,-0.13895 -0.0879,-0.41374 0,-0.5895 0.12428,-0.24855 0.46522,-0.34094 0.5895,-0.5895 0.0879,-0.17575 -0.13895,-0.45055 0,-0.58949 0.13894,-0.13895 0.45055,0.13894 0.58949,0 0.13895,-0.13895 -0.13894,-0.45056 0,-0.5895 0.13895,-0.13895 0.45056,0.13894 0.5895,0 0.13895,-0.13895 -0.13894,-0.45055 0,-0.5895 0.13895,-0.13894 0.45055,0.13895 0.5895,0 0.13895,-0.13894 -0.13895,-0.45055 0,-0.5895 0.13895,-0.13894 0.45055,0.13895 0.5895,0 0.13894,-0.13894 -0.13895,-0.45055 0,-0.58949 0.13894,-0.13895 0.45055,0.13894 0.5895,0 0.13894,-0.13895 -0.13895,-0.45056 0,-0.5895 0.27789,-0.27789 0.9011,0.27789 1.17899,0 0.13895,-0.13895 -0.13895,-0.45055 0,-0.5895 0.27789,-0.27789 0.9011,0.27789 1.179,0 0.13894,-0.13895 -0.13895,-0.45055 0,-0.5895 0.12051,-0.12051 1.53476,0.11687 1.76849,0 0.24855,-0.12427 0.34094,-0.46522 0.5895,-0.58949 0.37189,-0.18595 2.57559,0.18594 2.94748,0 0.24856,-0.12428 0.34095,-0.46523 0.5895,-0.5895 0.3198,-0.1599 2.19669,0.1613 2.35799,0 0.13895,-0.13895 -0.13894,-0.45055 0,-0.5895 0.13895,-0.13895 0.393,0 0.5895,0 0.9825,0 1.96499,0 2.94749,0 0.1965,0 0.45055,0.13895 0.5895,0 0.13894,-0.13895 -0.13895,-0.45055 0,-0.5895 0.0267,-0.0267 2.66954,0 2.94748,0 0.1965,0 0.393,0 0.5895,0 0.1965,0 0.45055,-0.13894 0.5895,0 0.13895,0.13895 -0.13895,0.45055 0,0.5895 0.13895,0.13895 0.393,0 0.5895,0 0.1965,0 0.45055,0.13895 0.5895,0 0.13894,-0.13895 -0.13895,-0.45055 0,-0.5895 0.16129,-0.1613 2.03819,0.1599 2.35799,0 0.24855,-0.12427 0.34094,-0.46522 0.58949,-0.5895 0.35151,-0.17575 0.82749,0.17576 1.179,0 0.24855,-0.12427 0.34094,-0.46522 0.5895,-0.58949 0.3515,-0.17576 0.82748,0.17575 1.17899,0 0.24856,-0.12428 0.34095,-0.46522 0.5895,-0.5895 0.40718,-0.20359 2.74056,0.20692 2.94749,0 0.13894,-0.13895 -0.13895,-0.45055 0,-0.5895 0.27789,-0.27789 0.9011,0.27789 1.17899,0 0.13895,-0.13894 -0.13894,-0.45055 0,-0.5895 0.27789,-0.27789 0.90111,0.2779 1.179,0 0.13894,-0.13894 -0.13895,-0.45055 0,-0.58949 1.21969,-1.21969 -0.0477,1.86385 1.17899,-0.5895 0.0879,-0.17576 -0.0879,-0.41374 0,-0.5895 0.12428,-0.24855 0.46522,-0.34094 0.5895,-0.5895 0.17576,-0.3515 -0.17575,-0.82748 0,-1.17899 0.12428,-0.24856 0.46522,-0.34095 0.5895,-0.5895 0.17575,-0.35151 -0.27789,-0.9011 0,-1.17899 0.13894,-0.13895 0.45055,0.13894 0.5895,0 0.019,-0.019 0,-1.62553 0,-1.7685 0,-1.37549 0,-2.75099 0,-4.12648 0,-0.26549 0.0897,-1.58909 0,-1.76849 -0.12428,-0.24856 -0.46522,-0.34095 -0.5895,-0.5895 -0.0775,-0.155 0,-2.04973 0,-2.35799 0,-1.3755 0,-2.75099 0,-4.12649 0,-0.26548 0.0897,-1.58908 0,-1.76849 -0.12428,-0.24855 -0.46522,-0.34094 -0.5895,-0.5895 -0.0879,-0.17575 0,-0.39299 0,-0.58949 0,-0.1965 0,-0.393 0,-0.5895 0,-0.9825 0,-1.96499 0,-2.94749 0,-0.1965 0.0879,-0.41374 0,-0.5895 -0.12428,-0.24855 -0.46522,-0.34094 -0.5895,-0.58949 -0.0762,-0.15242 0,-3.11915 0,-3.53699 0,-0.21649 0.0237,-2.33427 0,-2.35799 -0.13894,-0.13895 -0.45055,0.13894 -0.58949,0 -0.1613,-0.1613 0.15989,-2.0382 0,-2.35799 -0.12428,-0.24856 -0.46522,-0.34095 -0.5895,-0.5895 -0.1599,-0.31979 0.1613,-2.19669 0,-2.35799 -0.13895,-0.13895 -0.45055,0.13895 -0.5895,0 -0.14185,-0.14185 0.14185,-2.21614 0,-2.35799 -0.13895,-0.13895 -0.45055,0.13895 -0.5895,0 -0.0267,-0.0267 0,-2.66954 0,-2.94749 0,-2.55449 0,-5.10898 0,-7.66347 0,-0.1965 0,-0.393 0,-0.5895 0,-0.1965 0.13895,-0.45055 0,-0.58949 -0.13894,-0.13895 -0.45055,0.13894 -0.58949,0 -0.18254,-0.18254 0.18253,-2.76496 0,-2.94749 -0.13895,-0.13895 -0.45056,0.13894 -0.5895,0 -0.29475,-0.29475 0.29475,-1.47375 0,-1.76849 -0.13895,-0.13895 -0.45055,0.13894 -0.5895,0 -0.27789,-0.2779 0.27789,-0.90111 0,-1.179 -0.13895,-0.13895 -0.45055,0.13895 -0.5895,0 -0.27789,-0.27789 0.27789,-0.9011 0,-1.179 -0.13894,-0.13894 -0.45055,0.13895 -0.5895,0 -0.27789,-0.27789 0.2779,-0.9011 0,-1.17899 -0.13894,-0.13895 -0.45055,0.13895 -0.58949,0 -0.13895,-0.13895 0.0879,-0.41374 0,-0.5895 -0.12428,-0.24855 -0.46522,-0.34094 -0.5895,-0.5895 -0.0879,-0.17575 0.0879,-0.41374 0,-0.58949 -0.12428,-0.24856 -0.46522,-0.34095 -0.5895,-0.5895 -0.0879,-0.17576 0.13895,-0.45055 0,-0.5895 -0.13894,-0.13894 -0.45055,0.13895 -0.5895,0 -0.27789,-0.27789 0.2779,-0.9011 0,-1.17899 -0.13894,-0.13895 -0.45055,0.13894 -0.58949,0 -0.29475,-0.29475 0.29475,-1.47375 0,-1.7685 -0.13895,-0.13894 -0.45056,0.13895 -0.5895,0 -0.14185,-0.14185 0.14185,-2.21614 0,-2.35799 -0.13895,-0.13894 -0.45055,0.13895 -0.5895,0 -0.27789,-0.27789 0.27789,-0.9011 0,-1.17899 -0.13894,-0.13895 -0.45055,0.13894 -0.5895,0 -0.29475,-0.29475 0.29475,-1.47375 0,-1.7685 -0.13894,-0.13894 -0.45055,0.13895 -0.58949,0 -0.13895,-0.13894 0.13894,-0.45055 0,-0.58949 -0.13895,-0.13895 -0.45056,0.13894 -0.5895,0 -0.27789,-0.2779 0.17575,-0.82749 0,-1.179 -0.12428,-0.24855 -0.46522,-0.34094 -0.5895,-0.5895 -0.17575,-0.3515 0.27789,-0.9011 0,-1.17899 -0.13895,-0.13895 -0.45055,0.13894 -0.5895,0 -0.0267,-0.0267 0,-2.66954 0,-2.94749 0,-0.1965 -0.13894,-0.45055 0,-0.5895 0.13895,-0.13894 0.45055,0.13895 0.5895,0 0.14185,-0.14185 -0.14185,-2.21614 0,-2.35799 0.13895,-0.13894 0.45055,0.13895 0.5895,0 0.27789,-0.27789 -0.17576,-0.82749 0,-1.17899 0.12428,-0.24856 0.46522,-0.34095 0.5895,-0.5895 0.0879,-0.17576 -0.0879,-0.41374 0,-0.5895 0.12427,-0.24855 0.46522,-0.34094 0.58949,-0.5895 0.0879,-0.17575 -0.13894,-0.45055 0,-0.58949 0.13895,-0.13895 0.45056,0.13894 0.5895,0 0.13895,-0.13895 -0.13894,-0.45056 0,-0.5895 0.13895,-0.13895 0.45055,0.13894 0.5895,0 0.13894,-0.13895 -0.13895,-0.45055 0,-0.5895 0.13894,-0.13895 0.41374,0.0879 0.5895,0 0.24855,-0.12428 0.34094,-0.46522 0.58949,-0.5895 0.17576,-0.0879 0.45056,0.13895 0.5895,0 0.13895,-0.13894 -0.13894,-0.45055 0,-0.58949 0.29475,-0.29475 1.47375,0.29474 1.76849,0 0.13895,-0.13895 -0.13894,-0.45056 0,-0.5895 0.12052,-0.12052 1.53477,0.11686 1.7685,0 0.24855,-0.12428 0.34094,-0.46522 0.5895,-0.5895 0.3515,-0.17575 0.82748,0.17575 1.17899,0 0.24855,-0.12428 0.34094,-0.46522 0.5895,-0.5895 0.17575,-0.0879 0.41374,0.0879 0.5895,0 0.24855,-0.12427 0.34094,-0.46522 0.58949,-0.5895 0.17576,-0.0879 0.393,0 0.5895,0 0.1965,-0.19649 0.34094,-0.46522 0.5895,-0.58949 0.17575,-0.0879 0.41374,0.0879 0.5895,0 0.4971,-0.24856 0.68188,-0.93044 1.17899,-1.179 0.17576,-0.0879 0.41374,0.0879 0.5895,0 0.24855,-0.12428 0.34094,-0.46522 0.5895,-0.5895 0.17575,-0.0879 0.41374,0.0879 0.58949,0 0.24856,-0.12427 0.34095,-0.46522 0.5895,-0.58949 0.35151,-0.17576 0.90111,0.27789 1.179,0 0.13894,-0.13895 -0.13895,-0.45056 0,-0.5895 0.13894,-0.13895 0.41374,0.0879 0.5895,0 0.24855,-0.12428 0.34094,-0.46522 0.58949,-0.5895 0.35151,-0.17575 0.90111,0.27789 1.179,0 0.13894,-0.13894 -0.13895,-0.45055 0,-0.5895 0.13894,-0.13894 0.41374,0.0879 0.5895,0 0.24855,-0.12427 0.34094,-0.46522 0.58949,-0.58949 0.17576,-0.0879 0.45055,0.13894 0.5895,0 0.13895,-0.13895 -0.13895,-0.45056 0,-0.5895 0.27789,-0.27789 0.9011,0.27789 1.179,0 0.13894,-0.13895 -0.13895,-0.45055 0,-0.5895 0.13894,-0.13895 0.41374,0.0879 0.58949,0 0.24856,-0.12428 0.34095,-0.46522 0.5895,-0.5895 0.17576,-0.0879 0.41374,0.0879 0.5895,0 0.49711,-0.24855 0.68189,-0.93044 1.17899,-1.17899 0.17576,-0.0879 0.41375,0.0879 0.5895,0 0.24856,-0.12428 0.34095,-0.46522 0.5895,-0.5895 0.17575,-0.0879 0.45055,0.13895 0.5895,0 0.13894,-0.13895 -0.13895,-0.45055 0,-0.5895 0.13894,-0.13894 0.41374,0.0879 0.5895,0 0.62693,-0.31347 0.55205,-0.86552 1.17899,-1.17899 0.17575,-0.0879 0.45055,0.13894 0.5895,0 0.13894,-0.13895 -0.13895,-0.45055 0,-0.5895 0.13894,-0.13895 0.41374,0.0879 0.5895,0 0.70739,-0.3537 1.06109,-1.41479 1.76849,-1.76849 0.17575,-0.0879 0.45055,0.13894 0.5895,0 0.13894,-0.13895 -0.13895,-0.45056 0,-0.5895 0.13894,-0.13895 0.41374,0.0879 0.58949,0 0.24856,-0.12428 0.34095,-0.46522 0.5895,-0.5895 0.17576,-0.0879 0.45055,0.13895 0.5895,0 0.13895,-0.13894 -0.13895,-0.45055 0,-0.5895 0.13895,-0.13894 0.41374,0.0879 0.5895,0 0.24855,-0.12427 0.34094,-0.46522 0.58949,-0.58949 0.17576,-0.0879 0.45056,0.13894 0.5895,0 0.13895,-0.13895 -0.13894,-0.45056 0,-0.5895 0.27789,-0.27789 0.90111,0.27789 1.179,0 0.13894,-0.13895 -0.13895,-0.45055 0,-0.5895 0.13894,-0.13895 0.41374,0.0879 0.58949,0 0.24856,-0.12428 0.34095,-0.46522 0.5895,-0.5895 0.17576,-0.0879 0.41375,0.0879 0.5895,0 0.24855,-0.12427 0.34094,-0.46522 0.5895,-0.58949 0.17575,-0.0879 0.41374,0.0879 0.5895,0 0.24855,-0.12428 0.34094,-0.46523 0.58949,-0.5895 0.17576,-0.0879 0.41375,0.0879 0.5895,0 0.24855,-0.12428 0.34094,-0.46522 0.5895,-0.5895 0.17575,-0.0879 0.41374,0.0879 0.5895,0 0.24855,-0.12428 0.34094,-0.46522 0.58949,-0.5895 0.17576,-0.0879 0.41375,0.0879 0.5895,0 0.49711,-0.24855 0.68189,-0.93044 1.179,-1.17899 0.17575,-0.0879 0.41374,0.0879 0.58949,0 0.24856,-0.12428 0.34095,-0.46522 0.5895,-0.5895 0.17576,-0.0879 0.41375,0.0879 0.5895,0 0.24855,-0.12428 0.34094,-0.46522 0.5895,-0.5895 0.17575,-0.0879 0.41374,0.0879 0.58949,0 0.24856,-0.12428 0.34095,-0.46522 0.5895,-0.5895 0.17576,-0.0879 0.41375,0.0879 0.5895,0 0.24855,-0.12427 0.34094,-0.46522 0.5895,-0.58949 0.17575,-0.0879 0.41374,0.0879 0.5895,0 0.24855,-0.12428 0.34094,-0.46522 0.58949,-0.5895 0.35151,-0.17576 0.82749,0.17575 1.179,0 0.24855,-0.12428 0.34094,-0.46522 0.5895,-0.5895 0.3515,-0.17575 0.9011,0.27789 1.17899,0 0.13895,-0.13894 -0.13894,-0.45055 0,-0.5895 0.27789,-0.27789 0.9011,0.2779 1.179,0 0.13894,-0.13894 -0.13895,-0.45055 0,-0.58949 0.13894,-0.13895 0.41374,0.0879 0.58949,0 0.24856,-0.12428 0.34095,-0.46522 0.5895,-0.5895 0.17576,-0.0879 0.45055,0.13894 0.5895,0 0.13895,-0.13895 -0.13895,-0.45055 0,-0.5895 0.13895,-0.13895 0.41374,0.0879 0.5895,0 0.24855,-0.12428 0.34094,-0.46522 0.58949,-0.5895 0.17576,-0.0879 0.45056,0.13895 0.5895,0 0.13895,-0.13894 -0.13894,-0.45055 0,-0.58949 0.13895,-0.13895 0.41375,0.0879 0.5895,0 0.49711,-0.24856 0.68189,-0.93045 1.179,-1.179 0.17575,-0.0879 0.41374,0.0879 0.58949,0 0.24856,-0.12428 0.34095,-0.46522 0.5895,-0.5895 0.17575,-0.0879 0.45055,0.13895 0.5895,0 1.21969,-1.21969 -1.86385,0.0477 0.5895,-1.17899 0.17575,-0.0879 0.41374,0.0879 0.58949,0 0.24856,-0.12428 0.34095,-0.46522 0.5895,-0.5895 0.17576,-0.0879 0.41374,0.0879 0.5895,0 0.7074,-0.3537 1.06109,-1.41479 1.76849,-1.76849 0.17576,-0.0879 0.41375,0.0879 0.5895,0 0.15652,-0.0783 1.69023,-1.61198 1.76849,-1.7685 0.0879,-0.17575 -0.0879,-0.41374 0,-0.58949 0.12428,-0.24856 0.393,-0.393 0.5895,-0.5895 0.1965,-0.1965 0.32587,-0.50162 0.5895,-0.5895 0.37283,-0.12428 0.80616,0.12428 1.17899,0 0.39918,-0.13306 1.31819,-1.54334 1.7685,-1.76849 0.81312,-0.40657 0.52729,0.71391 1.17899,-0.5895 0.0879,-0.17575 -0.13894,-0.45055 0,-0.5895 0.13895,-0.13894 0.41374,0.0879 0.5895,0 0.24855,-0.12427 0.34094,-0.46522 0.5895,-0.5895 0.17575,-0.0879 0.45055,0.13895 0.58949,0 0.13895,-0.13894 -0.13894,-0.45055 0,-0.58949 0.13895,-0.13895 0.45056,0.13894 0.5895,0 0.13895,-0.13895 -0.13894,-0.45055 0,-0.5895 0.13895,-0.13895 0.45055,0.13895 0.5895,0 0.13895,-0.13895 -0.13895,-0.45055 0,-0.5895 0.13895,-0.13894 0.41374,0.0879 0.5895,0 0.24855,-0.12428 0.34094,-0.46522 0.58949,-0.5895 0.17576,-0.0879 0.45056,0.13895 0.5895,0 0.13895,-0.13894 -0.13894,-0.45055 0,-0.58949 0.13895,-0.13895 0.45055,0.13894 0.5895,0 0.13895,-0.13895 -0.13895,-0.45056 0,-0.5895 0.13895,-0.13895 0.41374,0.0879 0.5895,0 0.70739,-0.3537 1.06109,-1.4148 1.76849,-1.76849 0.17575,-0.0879 0.41374,0.0879 0.5895,0 1.95512,-1.95512 -0.55579,0.27789 1.17899,-0.5895 0.49711,-0.24856 0.68189,-0.93044 1.179,-1.179 0.17575,-0.0879 0.45055,0.13895 0.5895,0 0.13894,-0.13894 -0.13895,-0.45055 0,-0.58949 0.13894,-0.13895 0.45055,0.13894 0.58949,0 0.13895,-0.13895 -0.13894,-0.45056 0,-0.5895 0.13895,-0.13895 0.45056,0.13894 0.5895,0 0.13895,-0.13895 -0.13894,-0.45055 0,-0.5895 0.13895,-0.13895 0.45055,0.13895 0.5895,0 0.13895,-0.13895 -0.13895,-0.45055 0,-0.5895 0.13895,-0.13894 0.41374,0.0879 0.5895,0 0.24855,-0.12427 0.393,-0.393 0.58949,-0.5895 0.34671,-0.3467 2.08501,-2.22149 2.358,-2.35799 0.17575,-0.0879 0.45055,0.13895 0.58949,0 0.13895,-0.13894 -0.13894,-0.45055 0,-0.58949 0.13895,-0.13895 0.41375,0.0879 0.5895,0 0.49711,-0.24856 0.68189,-0.93044 1.179,-1.179 0.17575,-0.0879 0.45055,0.13895 0.58949,0 0.13895,-0.13894 -0.13894,-0.45055 0,-0.5895 0.13895,-0.13894 0.41375,0.0879 0.5895,0 0.24856,-0.12427 0.34094,-0.46522 0.5895,-0.58949 0.17575,-0.0879 0.45055,0.13894 0.5895,0 0.13894,-0.13895 -0.13895,-0.45056 0,-0.5895 0.13894,-0.13895 0.45055,0.13894 0.58949,0 0.13895,-0.13895 -0.13894,-0.45055 0,-0.5895 0.2779,-0.27789 0.90111,0.27789 1.179,0 0.13895,-0.13895 -0.13895,-0.45055 0,-0.5895 0.27789,-0.27789 0.9011,0.2779 1.17899,0 0.13895,-0.13894 -0.13894,-0.45055 0,-0.58949 0.13895,-0.13895 0.41375,0.0879 0.5895,0 0.24856,-0.12428 0.34095,-0.46523 0.5895,-0.5895 0.17575,-0.0879 0.45055,0.13894 0.5895,0 0.13894,-0.13895 -0.13895,-0.45055 0,-0.5895 0.27789,-0.27789 0.9011,0.27789 1.17899,0 0.13895,-0.13895 -0.13894,-0.45055 0,-0.5895 0.29475,-0.29475 1.47375,0.29475 1.7685,0 0.13894,-0.13894 -0.13895,-0.45055 0,-0.5895 0.27789,-0.27789 0.9011,0.2779 1.17899,0 0.13895,-0.13894 -0.13894,-0.45055 0,-0.58949 0.27789,-0.27789 0.82749,0.17575 1.179,0 0.24855,-0.12428 0.34094,-0.46522 0.58949,-0.5895 0.17576,-0.0879 0.41375,0.0879 0.5895,0 0.24856,-0.12428 0.34095,-0.46522 0.5895,-0.5895 0.17575,-0.0879 0.45055,0.13895 0.5895,0 0.13894,-0.13894 -0.13895,-0.45055 0,-0.5895 0.13894,-0.13894 0.41374,0.0879 0.58949,0 0.24856,-0.12427 0.34095,-0.46522 0.5895,-0.58949 0.17576,-0.0879 0.41375,0.0879 0.5895,0 0.24855,-0.12428 0.34094,-0.46522 0.5895,-0.5895 0.17575,-0.0879 0.41374,0.0879 0.5895,0 0.24855,-0.12428 0.34094,-0.46522 0.58949,-0.5895 0.35151,-0.17575 0.90111,0.27789 1.179,0 0.13894,-0.13894 -0.13895,-0.45055 0,-0.5895 0.13894,-0.13894 0.45055,0.13895 0.5895,0 0.13894,-0.13894 -0.13895,-0.45055 0,-0.58949 0.27789,-0.2779 0.9011,0.27789 1.17899,0 0.13895,-0.13895 -0.13894,-0.45056 0,-0.5895 0.13895,-0.13895 0.45055,0.13894 0.5895,0 0.13894,-0.13895 -0.13895,-0.45055 0,-0.5895 0.13894,-0.13895 0.41374,0.0879 0.5895,0 0.24855,-0.12428 0.34094,-0.46522 0.58949,-0.5895 0.17576,-0.0879 0.45056,0.13895 0.5895,0 1.21969,-1.21969 -1.86385,0.0477 0.5895,-1.17899 0.17575,-0.0879 0.41374,0.0879 0.5895,0 0.24855,-0.12428 0.34094,-0.46522 0.58949,-0.5895 0.17576,-0.0879 0.45056,0.13895 0.5895,0 1.21969,-1.21969 -1.86385,0.0477 0.5895,-1.17899 0.17575,-0.0879 0.41374,0.0879 0.5895,0 0.24855,-0.12428 0.34094,-0.46523 0.5895,-0.5895 0.17575,-0.0879 0.41374,0.0879 0.58949,0 0.7074,-0.3537 1.0611,-1.4148 1.7685,-1.7685 0.17575,-0.0879 0.41374,0.0879 0.58949,0 0.24856,-0.12427 0.34095,-0.46522 0.5895,-0.58949 0.17576,-0.0879 0.45055,0.13894 0.5895,0 0.13894,-0.13895 -0.13895,-0.45055 0,-0.5895 0.13894,-0.13895 0.41374,0.0879 0.5895,0 0.24855,-0.12428 0.34094,-0.46522 0.58949,-0.5895 0.17576,-0.0879 0.45056,0.13895 0.5895,0 0.13895,-0.13894 -0.13894,-0.45055 0,-0.5895 0.27789,-0.27789 0.90111,0.2779 1.179,0 0.13894,-0.13894 -0.13895,-0.45055 0,-0.58949 0.13894,-0.13895 0.41374,0.0879 0.58949,0 0.24856,-0.12428 0.34095,-0.46522 0.5895,-0.5895 0.17576,-0.0879 0.45055,0.13894 0.5895,0 0.13895,-0.13895 -0.13895,-0.45055 0,-0.5895 0.13895,-0.13895 0.41374,0.0879 0.5895,0 0.24855,-0.12428 0.34094,-0.46522 0.5895,-0.5895 0.17575,-0.0879 0.45055,0.13895 0.58949,0 0.13895,-0.13894 -0.13894,-0.45055 0,-0.58949 0.13895,-0.13895 0.41375,0.0879 0.5895,0 0.24855,-0.12428 0.34094,-0.46523 0.5895,-0.5895 0.17575,-0.0879 0.45055,0.13894 0.5895,0 0.13894,-0.13895 -0.13895,-0.45055 0,-0.5895 0.13894,-0.13895 0.45055,0.13895 0.58949,0 0.13895,-0.13895 -0.13894,-0.45055 0,-0.5895 0.2779,-0.27789 0.90111,0.27789 1.179,0 0.13894,-0.13894 -0.13895,-0.45055 0,-0.58949 0.27789,-0.2779 0.82749,0.17575 1.17899,0 0.24856,-0.12428 0.34095,-0.46523 0.5895,-0.5895 0.35151,-0.17576 0.90111,0.27789 1.179,0 0.13894,-0.13895 -0.13895,-0.45055 0,-0.5895 0.27789,-0.27789 0.82748,0.17575 1.17899,0 0.24856,-0.12428 0.34095,-0.46522 0.5895,-0.5895 0.17575,-0.0879 0.41374,0.0879 0.5895,0 0.24855,-0.12427 0.393,-0.393 0.5895,-0.5895 0.19649,-0.19649 0.46522,-0.34094 0.58949,-0.58949 0.0897,-0.17941 0,-1.50301 0,-1.7685 0,-0.1965 0.13895,-0.45055 0,-0.58949 -0.13894,-0.13895 -0.45055,0.13894 -0.58949,0 -1.2197,-1.2197 1.86385,0.0477 -0.5895,-1.179 -0.17576,-0.0879 -0.45055,0.13895 -0.5895,0 -0.13895,-0.13894 0.13895,-0.45055 0,-0.5895 -0.13895,-0.13894 -0.41374,0.0879 -0.5895,0 -0.24855,-0.12427 -0.34094,-0.46522 -0.5895,-0.58949 -0.17575,-0.0879 -0.45055,0.13894 -0.58949,0 -0.13895,-0.13895 0.13894,-0.45056 0,-0.5895 -0.13895,-0.13895 -0.45055,0.13894 -0.5895,0 -0.13895,-0.13895 0.13895,-0.45055 0,-0.5895 -0.13895,-0.13895 -0.41374,0.0879 -0.5895,0 -0.49711,-0.24855 -0.68189,-0.93044 -1.17899,-1.17899 -0.35151,-0.17576 -0.90111,0.27789 -1.179,0 -0.13894,-0.13895 0.13895,-0.45056 0,-0.5895 -0.13894,-0.13895 -0.45055,0.13894 -0.5895,0 -0.13894,-0.13895 0.13895,-0.45055 0,-0.5895 -1.21969,-1.21969 0.0477,1.86385 -1.17899,-0.5895 -0.0879,-0.17575 0.0879,-0.41374 0,-0.5895 -0.12428,-0.24855 -0.46522,-0.34094 -0.5895,-0.58949 -0.0879,-0.17576 0.13895,-0.45055 0,-0.5895 -0.13895,-0.13895 -0.45055,0.13895 -0.5895,0 -0.13894,-0.13895 0.0879,-0.41374 0,-0.5895 -0.12427,-0.24855 -0.46522,-0.34094 -0.58949,-0.5895 -0.17576,-0.3515 0.27789,-0.9011 0,-1.17899 -0.13895,-0.13895 -0.45056,0.13894 -0.5895,0 -0.27789,-0.27789 0.17575,-0.82749 0,-1.179 -0.12428,-0.24855 -0.46522,-0.34094 -0.5895,-0.58949 -0.17575,-0.35151 0.27789,-0.90111 0,-1.179 -0.13895,-0.13895 -0.45055,0.13895 -0.5895,0 -0.13894,-0.13895 0.0879,-0.41374 0,-0.5895 -0.12427,-0.24855 -0.46522,-0.34094 -0.5895,-0.58949 -0.17575,-0.35151 0.2779,-0.90111 0,-1.179 -0.13894,-0.13895 -0.45055,0.13895 -0.58949,0 -0.12052,-0.12051 0.11686,-1.53476 0,-1.76849 -0.12428,-0.24856 -0.46522,-0.34095 -0.5895,-0.5895 -0.17575,-0.35151 0.27789,-0.9011 0,-1.179 -0.13895,-0.13894 -0.45055,0.13895 -0.5895,0 -0.27789,-0.27789 0.27789,-0.9011 0,-1.17899 -0.13894,-0.13895 -0.45055,0.13894 -0.5895,0 -0.29474,-0.29475 0.29475,-1.47375 0,-1.76849 -0.13894,-0.13895 -0.45055,0.13894 -0.58949,0 -0.2779,-0.2779 0.27789,-0.90111 0,-1.179 -0.13895,-0.13895 -0.45056,0.13895 -0.5895,0 -0.27789,-0.27789 0.27789,-0.9011 0,-1.17899 -0.13895,-0.13895 -0.45055,0.13894 -0.5895,0 -0.29475,-0.29475 0.29475,-1.47375 0,-1.7685 -0.13894,-0.13894 -0.45055,0.13895 -0.5895,0 -0.13894,-0.13894 0.13895,-0.45055 0,-0.5895 -0.27789,-0.27789 -0.82748,0.17576 -1.17899,0 -0.24856,-0.12427 -0.393,-0.39299 -0.5895,-0.58949"
     id="path965"
     inkscape:connector-curvature="0" />
</svg>
