<?xml version="1.0" encoding="UTF-8" standalone="no"?>
<!-- Created with Inkscape (http://www.inkscape.org/) -->

<svg
   xmlns:dc="http://purl.org/dc/elements/1.1/"
   xmlns:cc="http://creativecommons.org/ns#"
   xmlns:rdf="http://www.w3.org/1999/02/22-rdf-syntax-ns#"
   xmlns:svg="http://www.w3.org/2000/svg"
   xmlns="http://www.w3.org/2000/svg"
   xmlns:xlink="http://www.w3.org/1999/xlink"
   xmlns:sodipodi="http://sodipodi.sourceforge.net/DTD/sodipodi-0.dtd"
   xmlns:inkscape="http://www.inkscape.org/namespaces/inkscape"
   version="1.1"
   id="svg815"
   width="1110.6667"
   height="812"
   viewBox="0 0 1110.6667 812"
   sodipodi:docname="chr-ispytatelei-bogatyrskiy-ext.svg"
   inkscape:version="0.92.3 (2405546, 2018-03-11)">
  <metadata
     id="metadata821">
    <rdf:RDF>
      <cc:Work
         rdf:about="">
        <dc:format>image/svg+xml</dc:format>
        <dc:type
           rdf:resource="http://purl.org/dc/dcmitype/StillImage" />
        <dc:title></dc:title>
      </cc:Work>
    </rdf:RDF>
  </metadata>
  <defs
     id="defs819" />
  <sodipodi:namedview
     pagecolor="#ffffff"
     bordercolor="#666666"
     borderopacity="1"
     objecttolerance="10"
     gridtolerance="10"
     guidetolerance="10"
     inkscape:pageopacity="0"
     inkscape:pageshadow="2"
     inkscape:window-width="1366"
     inkscape:window-height="715"
     id="namedview817"
     showgrid="false"
     inkscape:zoom="0.5997537"
     inkscape:cx="412.66023"
     inkscape:cy="479.11452"
     inkscape:window-x="0"
     inkscape:window-y="0"
     inkscape:window-maximized="1"
     inkscape:current-layer="svg815"
     fit-margin-top="0"
     fit-margin-left="0"
     fit-margin-right="0"
     fit-margin-bottom="0"
     showguides="false" />
  <image
     sodipodi:absref="/home/aanper/project/luysy-imn-eh/pi/boot/bydefault/web/svg/../img/chr.png"
     xlink:href="../img/chr.png"
     y="0"
     x="0"
     id="image823"
     preserveAspectRatio="none"
     height="812"
     width="1110.6667" />
  <ellipse
     style="fill:#00ff00;fill-opacity:1;stroke:#00ff00;stroke-width:1.00157475;stroke-miterlimit:4;stroke-dasharray:none;stroke-opacity:1;paint-order:stroke fill markers"
     id="path832"
     cx="377.23819"
     cy="655.68585"
     rx="6.2525668"
     ry="5.8357291" />
  <ellipse
     style="fill:#00ff00;fill-opacity:1;stroke:#00ff00;stroke-width:0.24566929;stroke-miterlimit:4;stroke-dasharray:none;stroke-opacity:1;paint-order:stroke fill markers"
     id="path843"
     cx="606.49896"
     cy="399.22638"
     rx="2.7094455"
     ry="2.1883984" />
  <circle
     style="fill:#00ff00;fill-opacity:1;stroke:#00ff00;stroke-width:0.24566929;stroke-miterlimit:4;stroke-dasharray:none;stroke-opacity:1;paint-order:stroke fill markers"
     id="path845"
     cx="475.19507"
     cy="635.2608"
     r="3.7515399" />
  <ellipse
     style="fill:#00ff00;fill-opacity:1;stroke:#00ff00;stroke-width:0.24566929;stroke-miterlimit:4;stroke-dasharray:none;stroke-opacity:1;paint-order:stroke fill markers"
     id="path847"
     cx="871.39941"
     cy="165.69302"
     rx="2.7094455"
     ry="2.5010266" />
  <ellipse
     style="fill:#00ff00;fill-opacity:1;stroke:#00ff00;stroke-width:0.24566929;stroke-miterlimit:4;stroke-dasharray:none;stroke-opacity:1;paint-order:stroke fill markers"
     id="path849"
     cx="404.43686"
     cy="128.38603"
     rx="3.6473305"
     ry="3.3347023" />
  <ellipse
     style="fill:#00ff00;fill-opacity:1;stroke:#00ff00;stroke-width:0.24566929;stroke-miterlimit:4;stroke-dasharray:none;stroke-opacity:1;paint-order:stroke fill markers"
     id="path851"
     cx="452.06058"
     cy="53.980492"
     rx="2.7094455"
     ry="3.1262834" />
  <ellipse
     style="fill:#00ff00;fill-opacity:1;stroke:#00ff00;stroke-width:0.24566929;stroke-miterlimit:4;stroke-dasharray:none;stroke-opacity:1;paint-order:stroke fill markers"
     id="path853"
     cx="288.76437"
     cy="90.662216"
     rx="2.8136551"
     ry="2.5010266" />
  <ellipse
     style="fill:#00ff00;fill-opacity:1;stroke:#00ff00;stroke-width:0.24566929;stroke-miterlimit:4;stroke-dasharray:none;stroke-opacity:1;paint-order:stroke fill markers"
     id="path855"
     cx="1073.2531"
     cy="687.88654"
     rx="3.4389117"
     ry="3.2304928" />
  <ellipse
     style="fill:#00ff00;fill-opacity:1;stroke:#00ff00;stroke-width:0.24566929;stroke-miterlimit:4;stroke-dasharray:none;stroke-opacity:1;paint-order:stroke fill markers"
     id="path857"
     cx="1017.3968"
     cy="608.89581"
     rx="3.022074"
     ry="2.6052361" />
  <path
     style="fill:none;fill-opacity:1;stroke:#00ff00;stroke-width:1.13385832;stroke-miterlimit:4;stroke-dasharray:none;stroke-opacity:1;paint-order:stroke fill markers"
     d="m 290.1191,86.70226 c 3.96307,-1.691471 6.30156,-1.667351 10.0041,-1.667351 0.55579,0 1.27436,-0.392999 1.66735,0 0.393,0.392998 -0.39299,1.274352 0,1.667351 0.786,0.785997 2.54871,-0.785997 3.33471,0 0.39299,0.392998 -0.393,1.274353 0,1.667351 0.78599,0.785997 2.5487,-0.785997 3.3347,0 0.786,0.785997 -0.786,2.548705 0,3.334702 0.393,0.392999 1.27435,-0.392998 1.66735,0 0.786,0.785997 -0.786,2.548706 0,3.334702 0.393,0.392999 1.27435,-0.392998 1.66735,0 0.393,0.392999 -0.24855,1.170244 0,1.667352 0.35151,0.703017 1.31584,0.964334 1.66735,1.667351 0.66694,1.333881 -0.66694,3.668172 0,5.002052 0.35151,0.70302 1.31584,0.96434 1.66735,1.66735 0.52399,1.04797 -0.52398,5.62144 0,6.66941 0.35151,0.70301 1.31585,0.96433 1.66735,1.66735 0.25372,0.50743 0,4.25115 0,5.00205 0,3.89049 0,7.78097 0,11.67146 0,4.44627 0,8.89254 0,13.33881 0,0.87189 -0.2192,6.23099 0,6.6694 0.35151,0.70302 1.31585,0.96434 1.66736,1.66735 0.24855,0.49711 0,1.11157 0,1.66735 0,2.77892 0,5.55784 0,8.33676 0,0.55578 0,1.11157 0,1.66735 0,0.55579 -0.24856,1.17024 0,1.66735 0.3515,0.70302 1.31584,0.96434 1.66735,1.66735 0.24855,0.49711 0,1.11157 0,1.66736 0,0.55578 0,1.11156 0,1.66735 0,1.18182 -0.21555,9.57301 0,10.0041 0.3515,0.70302 1.31584,0.96434 1.66735,1.66735 0.30148,0.60297 0,7.17705 0,8.33676 0,0.87189 0.21921,6.23099 0,6.6694 -0.35151,0.70302 -1.11157,1.11157 -1.66735,1.66736 -0.55579,0.55578 -0.96434,1.31584 -1.66735,1.66735 -0.99422,0.4971 -2.54871,-0.786 -3.33471,0 -0.393,0.39299 0.393,1.27435 0,1.66735 -0.78599,0.78599 -2.34048,-0.49711 -3.3347,0 -0.70302,0.35151 -0.96433,1.31584 -1.66735,1.66735 -0.66109,0.33054 -4.66119,-0.34087 -5.00205,0 -0.393,0.393 0.39299,1.27435 0,1.66735 -0.0536,0.0536 -4.59768,0 -5.00206,0 -4.44627,0 0.55579,-0.55578 -1.66735,1.66735 -0.45622,0.45622 -5.76489,-0.45226 -6.6694,0 -0.70302,0.35151 -0.96434,1.31584 -1.66735,1.66735 -0.99422,0.49711 -2.54871,-0.78599 -3.33471,0 -0.39299,0.393 0.393,1.27435 0,1.66735 -0.40121,0.40122 -6.26818,-0.40121 -6.6694,0 -0.393,0.393 0.393,1.27436 0,1.66735 -0.34087,0.34087 -4.34096,-0.33054 -5.00205,0 -0.70302,0.35151 -0.96434,1.31585 -1.66736,1.66736 -1.33388,0.66694 -3.66817,-0.66695 -5.00205,0 -0.70302,0.3515 -0.96433,1.31584 -1.66735,1.66735 -1.04797,0.52398 -5.62144,-0.52399 -6.6694,0 -0.70302,0.35151 -0.96434,1.31584 -1.66736,1.66735 -1.33388,0.66694 -3.66817,-0.66694 -5.00205,0 -0.70302,0.35151 -0.96433,1.31584 -1.66735,1.66735 -1.33388,0.66694 -3.66817,-0.66694 -5.00205,0 -0.70302,0.35151 -0.96434,1.31584 -1.66735,1.66735 -1.33389,0.66694 -3.66818,-0.66694 -5.00206,0 -0.70301,0.35151 -0.96433,1.31584 -1.66735,1.66735 -1.33388,0.66694 -3.66817,-0.66694 -5.00205,0 -0.70302,0.35151 -0.96434,1.31584 -1.66735,1.66735 -1.05188,0.52594 -7.28488,-0.52594 -8.33676,0 -0.70302,0.35151 -0.96433,1.31584 -1.66735,1.66735 -1.33388,0.66694 -3.66817,-0.66694 -5.00205,0 -0.70302,0.35151 -0.96434,1.31585 -1.66735,1.66735 -0.99422,0.49711 -2.34049,-0.4971 -3.33471,0 -0.70301,0.35151 -0.96433,1.31585 -1.66735,1.66736 -0.99421,0.4971 -2.34048,-0.49711 -3.3347,0 -0.70302,0.3515 -0.96433,1.31584 -1.66735,1.66735 -1.05188,0.52594 -7.28488,-0.52594 -8.33676,0 -0.70301,0.35151 -0.96433,1.31584 -1.66735,1.66735 -1.04797,0.52398 -5.62144,-0.52399 -6.6694,0 -0.70302,0.35151 -0.96434,1.31584 -1.66735,1.66735 -0.90452,0.45226 -6.21318,-0.45623 -6.66941,0 -0.393,0.393 0.393,1.27435 0,1.66735 -0.40121,0.40122 -6.26819,-0.40122 -6.6694,0 -0.393,0.393 0.393,1.27435 0,1.66735 -0.34087,0.34087 -4.34097,-0.33054 -5.00206,0 -0.70301,0.35151 -0.96433,1.31584 -1.66735,1.66735 -0.49711,0.24856 -1.17024,-0.24855 -1.66735,0 -0.70302,0.35151 -0.96433,1.31584 -1.66735,1.66735 -0.99422,0.49711 -2.34049,-0.4971 -3.3347,0 -0.70302,0.35151 -0.96434,1.31585 -1.66735,1.66735 -0.99422,0.49711 -2.34049,-0.4971 -3.33471,0 -0.70301,0.35151 -0.96433,1.31585 -1.66735,1.66736 -1.33388,0.66694 -3.66817,-0.66694 -5.00205,0 -0.70302,0.3515 -0.96433,1.31584 -1.66735,1.66735 -0.50743,0.25371 -4.25115,0 -5.00205,0 -0.55579,0 -1.11157,0 -1.66736,0 -0.55578,0 -1.27435,-0.393 -1.66735,0 -0.39299,0.393 0.393,1.27435 0,1.66735 -0.58527,0.58527 -7.18506,-0.57585 -8.33675,0 -0.70302,0.35151 -0.96434,1.31584 -1.66735,1.66735 -0.50743,0.25371 -4.25115,0 -5.00206,0 -3.89048,0 -7.78097,0 -11.67145,0 -7.22519,0 -14.450381,0 -21.675569,0 -1.159709,0 -7.733786,0.30148 -8.336756,0 -0.703017,-0.35151 -0.964334,-1.31584 -1.667351,-1.66735 -1.151695,-0.57585 -7.751483,0.58527 -8.336756,0 -0.392998,-0.393 0.392999,-1.27435 0,-1.66735 -0.07557,-0.0756 -7.550603,0 -8.336755,0 -0.555784,0 -1.274353,0.393 -1.667351,0 -0.392999,-0.393 0.392998,-1.27436 0,-1.66735 -0.456224,-0.45623 -5.764888,0.45225 -6.669405,0 -0.703017,-0.35151 -0.964334,-1.31585 -1.667351,-1.66736 -0.497108,-0.24855 -1.274353,0.393 -1.667351,0 -0.392998,-0.39299 0.392998,-1.27435 0,-1.66735 -0.833676,-0.83367 -4.168378,0.83368 -5.002053,0 -0.392999,-0.39299 0.392998,-1.27435 0,-1.66735 -0.785997,-0.78599 -2.548706,0.786 -3.334703,0 -0.392998,-0.393 0.392999,-1.27435 0,-1.66735 -0.392998,-0.393 -1.170243,0.24856 -1.667351,0 -0.703017,-0.35151 -0.964334,-1.31584 -1.667351,-1.66735 -0.994216,-0.49711 -2.548705,0.786 -3.334702,0 -0.392999,-0.393 0.392998,-1.27435 0,-1.66735 -0.392999,-0.393 -1.111568,0 -1.667351,0 -0.555784,0 -1.111568,0 -1.667351,0 -2.778919,0 -5.557838,0 -8.336756,0 -0.555784,0 -1.111568,0 -1.667351,0 -0.555784,0 -1.170243,0.24855 -1.667351,0 -4.120699,-2.06035 0.575533,-1.66735 -3.334703,-1.66735 -0.555783,0 -1.111567,0 -1.667351,0 -0.555783,0 -1.274352,0.393 -1.667351,0 -0.392998,-0.393 0.392999,-1.27435 0,-1.66735 -0.392998,-0.393 -1.170243,0.24855 -1.667351,0 -1.406034,-0.70302 -1.928668,-2.63169 -3.334702,-3.33471 -0.4971083,-0.24855 -1.2743529,0.393 -1.6673514,0 -0.3929984,-0.39299 0.3929985,-1.27435 0,-1.66735 -0.3929984,-0.393 -1.2743527,-0.393 -1.6673511,0 -0.3929984,0.393 -0.248554,1.17025 0,1.66735 0.3515085,0.70302 1.1115674,1.11157 1.6673511,1.66736"
     id="path1744"
     inkscape:connector-curvature="0" />
</svg>
