<?xml version="1.0" encoding="UTF-8" standalone="no"?>
<!-- Created with Inkscape (http://www.inkscape.org/) -->

<svg
   xmlns:dc="http://purl.org/dc/elements/1.1/"
   xmlns:cc="http://creativecommons.org/ns#"
   xmlns:rdf="http://www.w3.org/1999/02/22-rdf-syntax-ns#"
   xmlns:svg="http://www.w3.org/2000/svg"
   xmlns="http://www.w3.org/2000/svg"
   xmlns:xlink="http://www.w3.org/1999/xlink"
   xmlns:sodipodi="http://sodipodi.sourceforge.net/DTD/sodipodi-0.dtd"
   xmlns:inkscape="http://www.inkscape.org/namespaces/inkscape"
   width="2096"
   height="1144"
   viewBox="0 0 554.56665 302.68332"
   version="1.1"
   id="svg6679"
   inkscape:version="0.92.3 (2405546, 2018-03-11)"
   sodipodi:docname="damba-west-kad.svg">
  <defs
     id="defs6673" />
  <sodipodi:namedview
     id="base"
     pagecolor="#ffffff"
     bordercolor="#666666"
     borderopacity="1.0"
     inkscape:pageopacity="0.0"
     inkscape:pageshadow="2"
     inkscape:zoom="0.35355339"
     inkscape:cx="1032.3926"
     inkscape:cy="525.59744"
     inkscape:document-units="mm"
     inkscape:current-layer="layer1"
     showgrid="false"
     fit-margin-top="0"
     fit-margin-left="0"
     fit-margin-right="0"
     fit-margin-bottom="0"
     units="px"
     inkscape:window-width="1366"
     inkscape:window-height="715"
     inkscape:window-x="0"
     inkscape:window-y="0"
     inkscape:window-maximized="1" />
  <metadata
     id="metadata6676">
    <rdf:RDF>
      <cc:Work
         rdf:about="">
        <dc:format>image/svg+xml</dc:format>
        <dc:type
           rdf:resource="http://purl.org/dc/dcmitype/StillImage" />
        <dc:title></dc:title>
      </cc:Work>
    </rdf:RDF>
  </metadata>
  <g
     inkscape:label="Layer 1"
     inkscape:groupmode="layer"
     id="layer1"
     transform="translate(-1.666421e-4,9.7194934e-5)">
    <image
       sodipodi:absref="/home/aanper/project/luysy-imn-eh/pi/boot/bydefault/web/img/damba.png"
       y="-9.7194934e-05"
       x="0.0001666421"
       id="image7283"
       xlink:href="file:///home/aanper/project/luysy-imn-eh/pi/boot/bydefault/web/img/damba.png"
       preserveAspectRatio="none"
       height="302.68332"
       width="554.56665" />
    <circle
       style="fill:none;fill-opacity:1;stroke:#00ff00;stroke-width:0.30000001;stroke-miterlimit:4;stroke-dasharray:none;stroke-opacity:1;paint-order:stroke fill markers"
       id="path7286"
       cx="472.21198"
       cy="65.454803"
       r="3.7417734" />
    <ellipse
       style="fill:none;fill-opacity:1;stroke:#00ff00;stroke-width:0.30000001;stroke-miterlimit:4;stroke-dasharray:none;stroke-opacity:1;paint-order:stroke fill markers"
       id="path7288"
       cx="313.5314"
       cy="230.31969"
       rx="1.0583333"
       ry="0.92604166" />
    <circle
       style="fill:none;fill-opacity:1;stroke:#00ff00;stroke-width:0.30000001;stroke-miterlimit:4;stroke-dasharray:none;stroke-opacity:1;paint-order:stroke fill markers"
       id="path7290"
       cx="367.50641"
       cy="260.61447"
       r="0.79374999" />
    <path
       style="fill:none;fill-opacity:1;stroke:#00ff00;stroke-width:0.30000001;stroke-miterlimit:4;stroke-dasharray:none;stroke-opacity:1;paint-order:stroke fill markers"
       d="m 312.06406,230.09283 c 0.4989,-0.99781 0.9978,-1.99561 1.49672,-2.99342 0.24945,0 0.57195,0.17639 0.74835,0 0.35277,-0.35278 -0.35277,-1.14393 0,-1.49671 0.1764,-0.17639 0.57195,0.17639 0.74835,0 0.17639,-0.17639 0,-0.4989 0,-0.74835 0,-1.24726 0,-2.49452 0,-3.74178 0,-0.24945 0.17639,-0.57196 0,-0.74835 -0.1764,-0.17639 -0.57195,0.17639 -0.74835,0 -0.26268,-0.26269 0.25844,-3.22486 0,-3.74177 -0.92475,-1.84949 -0.74835,0.25831 -0.74835,-1.49671 0,-0.1815 0.0241,-2.221 0,-2.24507 -0.1764,-0.17639 -0.57197,0.17639 -0.74837,0 -0.35277,-0.35278 0.22312,-1.05047 0,-1.49671 -0.15777,-0.31553 -0.59058,-0.43282 -0.74835,-0.74835 -0.14835,-0.29672 0.15298,-2.09207 0,-2.24507 -0.1764,-0.17638 -0.57198,0.17639 -0.74835,0 -0.35279,-0.35277 0.22313,-1.05047 0,-1.4967 -0.15777,-0.31554 -0.5906,-0.43283 -0.74834,-0.74836 -0.22313,-0.44623 0.35276,-1.14393 0,-1.49671 -0.1764,-0.17639 -0.57198,0.17639 -0.74838,0 -0.35277,-0.35278 0.22312,-1.05048 0,-1.49671 -0.15777,-0.31553 -0.59058,-0.43282 -0.74835,-0.74835 -0.22312,-0.44623 0.22313,-1.05048 0,-1.49671 -0.15777,-0.31554 -0.59057,-0.43282 -0.74834,-0.74836 -0.11158,-0.22311 0.11154,-0.52524 0,-0.74835 -0.15777,-0.31554 -0.59061,-0.43282 -0.74838,-0.74836 -0.22309,-0.44623 0.22313,-1.05047 0,-1.4967 -0.15774,-0.31554 -0.59057,-0.43283 -0.74835,-0.74836 -0.22312,-0.44623 0.22313,-1.05048 0,-1.49671 -0.15777,-0.31553 -0.59057,-0.43282 -0.74834,-0.74835 -0.22313,-0.44624 0.22312,-1.05048 0,-1.49671 -0.15777,-0.31554 -0.59061,-0.43282 -0.74835,-0.74836 -0.22312,-0.44623 0.2231,-1.05048 0,-1.49671 -0.15777,-0.31553 -0.5906,-0.43282 -0.74837,-0.74835 -0.2231,-0.44623 0.35279,-1.14393 0,-1.49671 -0.17638,-0.17639 -0.57195,0.17639 -0.74835,0 -0.35277,-0.35278 0.22312,-1.05048 0,-1.49671 -0.31554,-0.63107 -1.18118,-0.86564 -1.4967,-1.49671 -0.11157,-0.22312 0.11155,-0.52524 0,-0.74835 -0.15777,-0.31554 -0.5906,-0.43282 -0.74837,-0.74836 -0.11155,-0.22311 0.11157,-0.52524 0,-0.74835 -0.15777,-0.31554 -0.59058,-0.43283 -0.74835,-0.74836 -0.11155,-0.22312 0.11155,-0.52524 0,-0.74835 -0.15777,-0.31554 -0.59057,-0.43282 -0.74835,-0.74836 -0.11157,-0.22311 0.11155,-0.52524 0,-0.74835 -0.15777,-0.31554 -0.5906,-0.43282 -0.74837,-0.74836 -0.11155,-0.22311 0.11158,-0.52524 0,-0.74835 -0.31552,-0.63107 -1.18115,-0.86564 -1.49669,-1.49671 -0.11155,-0.22312 0.11154,-0.52524 0,-0.74836 -0.3682,-0.7364 -2.62523,-2.25701 -2.99342,-2.99341 -1.10114,-2.20227 1.73363,0.98527 -0.74835,-1.49671 -0.44016,-0.44014 -2.82017,-2.64688 -2.99344,-2.99342 -0.11155,-0.22312 0.11157,-0.52524 0,-0.74836 -0.449,-0.89802 -1.79605,-1.34704 -2.24504,-2.24506 -0.11158,-0.22312 0.11154,-0.52524 0,-0.74836 -0.15777,-0.31553 -0.49893,-0.4989 -0.74838,-0.74835 -0.24945,-0.24945 -0.4989,-0.4989 -0.74835,-0.74835 -0.24944,-0.24946 -0.4328,-0.59059 -0.74834,-0.74836 -1.03225,-0.51613 -0.6694,0.9063 -1.49672,-0.74836 -0.51613,-1.03224 0.9063,-0.66938 -0.74835,-1.4967 -1.03225,-0.51613 -0.66937,0.90629 -1.49672,-0.74836 -0.51613,-1.03225 0.9063,-0.66938 -0.74835,-1.49671 -0.22312,-0.11156 -0.57195,0.17639 -0.74835,0 -1.54837,-1.54837 2.36612,0.0605 -0.74835,-1.49671 -1.03224,-0.51612 -0.66939,0.9063 -1.49672,-0.74835 -0.11155,-0.22312 0.1764,-0.57197 0,-0.74836 -0.17639,-0.17639 -0.52522,0.11156 -0.74834,0 -0.73642,-0.3682 -2.25703,-2.62521 -2.99342,-2.99342 -0.22312,-0.11155 -0.52525,0.11156 -0.74837,0 -0.31552,-0.15776 -0.43281,-0.59058 -0.74835,-0.74835 -0.22313,-0.11156 -0.52523,0.11156 -0.74835,0 -0.63106,-0.31553 -0.86564,-1.18117 -1.49672,-1.49671 -0.2231,-0.11156 -0.52523,0.11156 -0.74835,0 -0.31554,-0.15777 -0.4328,-0.59059 -0.74835,-0.74835 -0.22312,-0.11156 -0.52525,0.11155 -0.74834,0 -0.63109,-0.31554 -0.86567,-1.18118 -1.49673,-1.49671 -0.22312,-0.11156 -0.57197,0.17638 -0.74834,0 -0.1764,-0.17639 0.11155,-0.52524 0,-0.74836 -0.15777,-0.31553 -0.4989,-0.4989 -0.74835,-0.74835 -0.24948,-0.24946 -0.43283,-0.59059 -0.74837,-0.74836 -0.2231,-0.11156 -0.52523,0.11156 -0.74835,0 -0.31554,-0.15776 -0.43282,-0.59059 -0.74836,-0.74835 -0.22311,-0.11156 -0.52523,0.11156 -0.74835,0 -0.63107,-0.31554 -0.86564,-1.18118 -1.49671,-1.49671 -0.22312,-0.11156 -0.52524,0.11156 -0.74836,0 -0.31553,-0.15777 -0.43282,-0.59059 -0.74835,-0.74836 -0.22312,-0.11155 -0.52524,0.11156 -0.74835,0 -0.63107,-0.31553 -0.86565,-1.18117 -1.49672,-1.49671 -0.44623,-0.22311 -1.05047,0.22312 -1.4967,0 -0.31554,-0.15776 -0.43282,-0.59058 -0.74836,-0.74835 -0.22311,-0.11156 -0.52524,0.11156 -0.74835,0 -0.63107,-0.31553 -0.86564,-1.18118 -1.49671,-1.49671 -2.20227,-1.10113 0.98527,1.73363 -1.49671,-0.74835 -2.48198,-2.48198 0.70555,0.35277 -1.49671,-0.74836 -0.63107,-0.31553 -0.86564,-1.18117 -1.49671,-1.49671 -0.22312,-0.11156 -0.52524,0.11156 -0.74836,0 -0.31553,-0.15776 -0.4989,-0.4989 -0.74835,-0.74835 -0.24945,-0.24945 -0.59059,-0.43282 -0.74835,-0.74836 -0.11156,-0.22311 0.17638,-0.57196 0,-0.74835 -0.17639,-0.17639 -0.52524,0.11156 -0.74836,0 -0.63107,-0.31554 -0.86564,-1.18118 -1.49671,-1.49671 -0.22311,-0.11156 -0.57197,0.17639 -0.74835,0 -0.17639,-0.17639 0.11156,-0.52524 0,-0.74836 -0.82733,-1.65465 -0.46447,-0.23223 -1.49671,-0.74835 -0.63107,-0.31554 -0.86564,-1.18118 -1.49671,-1.49671 -0.44623,-0.22311 -1.14393,0.35278 -1.49671,0 -0.17639,-0.17639 0.17639,-0.57197 0,-0.74836 -0.23173,-0.23172 -3.51005,0.23173 -3.74177,0 -0.17639,-0.17638 0.17639,-0.57196 0,-0.74835 -0.17639,-0.17639 -0.49891,0 -0.74836,0 -0.24945,0 -0.4989,0 -0.74835,0 -2.74397,0 -5.48794,0 -8.2319,0 -0.24946,0 -0.49891,0 -0.74836,0 -0.24945,0 -0.57197,0.17639 -0.74836,0 -0.17638,-0.17639 0.17639,-0.57196 0,-0.74835 -0.15299,-0.15299 -1.94834,0.14835 -2.24506,0 -0.31553,-0.15777 -0.43282,-0.59059 -0.74835,-0.74836 -0.22312,-0.11156 -0.49891,0 -0.74836,0 -0.24945,0 -0.4989,0 -0.74835,0 -1.99561,0 0.24945,0.24945 -0.74836,-0.74835 -0.17638,-0.17639 -0.57196,0.17639 -0.74835,0 -0.17639,-0.17639 0.17639,-0.57197 0,-0.74836 -0.17639,-0.17639 -0.57197,0.17639 -0.74836,0 -0.0339,-0.0339 0,-3.38892 0,-3.74177 0,-0.24945 0,-0.49891 0,-0.74835 0,-0.24946 -0.17639,-0.57197 0,-0.74836 0.17639,-0.17639 0.57197,0.17639 0.74836,0 0.35278,-0.35278 -0.22312,-1.05048 0,-1.49671 0.15777,-0.31553 0.59059,-0.43282 0.74835,-0.74835 0.11156,-0.22312 -0.11155,-0.52524 0,-0.74836 0.15777,-0.31553 0.59059,-0.43282 0.74836,-0.74835 0.11156,-0.22312 -0.17639,-0.57197 0,-0.74836 0.17639,-0.17639 0.57196,0.17639 0.74835,0 0.17639,-0.17639 -0.11156,-0.52524 0,-0.74835 0.19985,-0.39969 1.85108,-1.85109 2.24507,-2.24507 0.39398,-0.39398 1.84538,-2.04522 2.24506,-2.24506 0.22312,-0.11156 0.52524,0.11156 0.74836,0 0.31553,-0.15777 0.43281,-0.59059 0.74835,-0.74836 0.22312,-0.11155 0.57196,0.17639 0.74835,0 0.17639,-0.17638 -0.17639,-0.57196 0,-0.74835 0.35278,-0.35278 1.05048,0.22312 1.49671,0 0.31554,-0.15777 0.43282,-0.59059 0.74836,-0.74836 0.22312,-0.11155 0.57196,0.17639 0.74835,0 0.17639,-0.17638 -0.17639,-0.57196 0,-0.74835 0.17639,-0.17639 0.52524,0.11156 0.74836,0 0.31553,-0.15777 0.43282,-0.59059 0.74835,-0.74835 0.44623,-0.22312 1.05048,0.22311 1.49671,0 0.31554,-0.15777 0.43282,-0.59059 0.74836,-0.74836 0.44623,-0.22311 1.05047,0.22312 1.49671,0 0.31553,-0.15777 0.43282,-0.59059 0.74835,-0.74835 0.24945,0 0.4989,0 0.74835,0 0.24946,0 0.52524,0.11155 0.74836,0 0.31553,-0.15777 0.43282,-0.59059 0.74835,-0.74836 0.44624,-0.22312 1.05048,0.22312 1.49671,0 0.31554,-0.15777 0.41368,-0.63679 0.74836,-0.74835 0.4733,-0.15777 1.02341,0.15777 1.49671,0 0.33467,-0.11156 0.43282,-0.59059 0.74835,-0.74836 0.22312,-0.11155 0.51171,0.0789 0.74836,0 0.52916,-0.17639 0.96754,-0.57196 1.49671,-0.74835 0.4733,-0.15777 1.0234,0.15776 1.49671,0 0.52916,-0.17639 0.96754,-0.57197 1.4967,-0.74836 0.23666,-0.0789 0.52524,0.11156 0.74836,0 0.31553,-0.15776 0.41368,-0.636793 0.74835,-0.748352 0.47331,-0.157766 0.99781,0 1.49671,0 0.24946,0 0.52524,0.111559 0.74836,0 0.31553,-0.157766 0.43282,-0.590587 0.74835,-0.748353 0.47036,-0.23518 2.52306,0.235177 2.99342,0 0.31554,-0.157768 0.43282,-0.59059 0.74836,-0.748356 0.19943,-0.09972 4.15157,0 4.49012,0 0.24946,0 0.52524,0.111559 0.74836,0 0.31553,-0.157768 0.43282,-0.590587 0.74835,-0.748355 0.22312,-0.111559 0.49891,0 0.74836,0 0.24945,0 0.4989,0 0.74835,0 1.24726,0 2.49453,0 3.74177,0 0.64852,0 2.55993,0.144502 2.99342,0 0.52917,-0.176387 0.96756,-0.571966 1.49672,-0.748355 0.23665,-0.07888 0.4989,0 0.74835,0 1.74617,0 3.49231,0 5.23849,0 0.49889,0 1.01269,0.121002 1.49669,0 0.54115,-0.135284 0.96756,-0.571966 1.49672,-0.748353 0.23665,-0.07888 0.4989,0 0.74835,0 0.4989,0 0.99782,0 1.49672,0 0.9978,0 1.99559,0 2.99342,0 0.24945,0 0.5117,0.07888 0.74834,0 0.52917,-0.17639 0.95557,-0.613071 1.49673,-0.748356 0.98393,-0.245985 2.81233,0.309806 3.74176,0 0.33467,-0.111558 0.41368,-0.636796 0.74835,-0.748355 0.47331,-0.157766 0.99782,0 1.49672,0 0.7834,0 3.88157,0.152141 4.49011,0 0.54115,-0.135284 0.96756,-0.571966 1.49672,-0.748353 0.23665,-0.07888 0.4989,0 0.74835,0 0.4989,0 0.99782,0 1.49672,0 1.74614,0 3.49232,0 5.23849,0 0.49175,0 1.82284,0.14074 2.24507,0 0.52916,-0.17639 0.96752,-0.571965 1.49669,-0.748355 0.45656,-0.152189 3.91216,0 4.49014,0 0.24945,0 0.5117,0.07888 0.74835,0 0.52916,-0.17639 0.96752,-0.571966 1.49669,-0.748356 0.79523,-0.26507 2.19821,0.265071 2.99344,0 0.33467,-0.111559 0.41368,-0.636796 0.74835,-0.748355 0.50202,-0.167336 1.74305,0.167338 2.24507,0 0.52917,-0.176387 0.96753,-0.571966 1.49669,-0.748353 0.67353,-0.224507 1.57155,0.224507 2.24507,0 0.33467,-0.111559 0.41368,-0.636796 0.74835,-0.748355 0.70996,-0.236652 1.53511,0.236651 2.24507,0 0.52917,-0.17639 0.96755,-0.571966 1.49672,-0.748356 0.53499,-0.178334 4.39812,0 5.23849,0 0.24945,0 0.52522,0.111559 0.74834,0 0.31555,-0.157765 0.41368,-0.636796 0.74835,-0.748352 0.70996,-0.236652 1.49672,0 2.24507,0 1.4967,0 2.99342,0 4.49014,0 0.4989,0 1.02341,0.157765 1.49669,0 0.33467,-0.111559 0.41368,-0.636797 0.74835,-0.748356 0.47331,-0.157768 0.99782,0 1.49672,0 0.80285,0 4.74382,0.164888 5.23849,0 0.52916,-0.17639 0.95557,-0.613071 1.49669,-0.748355 1.17391,-0.293471 2.56789,0.293473 3.74179,0 0.54113,-0.135284 0.95557,-0.613069 1.4967,-0.748353 0.484,-0.121002 1.01272,0.120999 1.49672,0 0.54113,-0.135284 0.95557,-0.613071 1.49669,-0.748356 0.48401,-0.121001 1.01272,0.121002 1.49673,0 0.54112,-0.135284 0.95557,-0.613071 1.49669,-0.748355 0.96803,-0.242004 2.02541,0.242004 2.99342,0 0.54115,-0.135284 0.95559,-0.613071 1.49672,-0.748355 0.484,-0.121002 1.02341,0.157768 1.49672,0 0.33467,-0.111557 0.41368,-0.636797 0.74835,-0.748353 0.47328,-0.157769 1.01269,0.121002 1.49669,0 0.54116,-0.135284 0.9556,-0.613072 1.49672,-0.748356 0.48401,-0.121002 1.0127,0.121002 1.4967,0 0.54115,-0.135284 0.95559,-0.613071 1.49672,-0.748355 0.484,-0.121002 1.01269,0.121002 1.49672,0 0.54113,-0.135284 0.95557,-0.613069 1.4967,-0.748353 0.968,-0.242004 2.02541,0.242001 2.99341,0 0.54116,-0.135284 0.96756,-0.571968 1.49672,-0.748355 0.23665,-0.07888 0.4989,0 0.74835,0 0.63508,0 4.07758,0.137517 4.49014,0 0.33467,-0.111559 0.41368,-0.636797 0.74835,-0.748356 0.69329,-0.231095 3.02469,0.239028 3.74176,0 0.52917,-0.176389 0.96756,-0.571965 1.49672,-0.748355 0.23665,-0.07888 0.4989,0 0.74835,0 0.4989,0 1.02341,0.157768 1.49672,0 0.33467,-0.111556 0.41368,-0.636797 0.74835,-0.748353 0.9294,-0.309806 2.75783,0.245986 3.74176,0 0.54116,-0.135284 0.96756,-0.571966 1.49672,-0.748355 0.23665,-0.07888 0.4989,0 0.74835,0 0.6349,0 3.99362,0.124126 4.49014,0 0.54113,-0.135284 0.96753,-0.571966 1.4967,-0.748356 0.67352,-0.224507 1.57154,0.224507 2.24506,0 0.33468,-0.111556 0.41368,-0.636796 0.74835,-0.748353 0.79521,-0.26507 2.19821,0.265071 2.99342,0 0.52916,-0.176389 0.96755,-0.571965 1.49672,-0.748355 0.47329,-0.157768 1.05047,0.223115 1.49669,0 0.31555,-0.157768 0.43284,-0.590587 0.74838,-0.748355 0.47953,-0.239763 4.02537,0.232375 4.49011,0 0.31554,-0.157766 0.43283,-0.590587 0.74837,-0.748356 0.47035,-0.235177 2.52304,0.23518 2.99342,0 0.31552,-0.157766 0.43281,-0.590587 0.74835,-0.748353 0.19677,-0.09839 2.6021,0 2.99341,0 1.75504,0 -0.35276,0.176388 1.49673,-0.748355 0.39679,-0.198403 3.23265,0.169701 3.74176,0 0.33467,-0.111559 0.43283,-0.590587 0.74835,-0.748355 0.5987,-0.299342 1.64639,0.299341 2.24507,0 0.31554,-0.157766 0.43283,-0.590588 0.74834,-0.748353 0.5987,-0.299345 1.6464,0.299341 2.24507,0 0.31554,-0.157769 0.43283,-0.59059 0.74835,-0.748356 0.5987,-0.299341 1.6464,0.299342 2.24507,0 0.31554,-0.157768 0.41367,-0.636796 0.74835,-0.748355 0.42571,-0.141904 3.03696,0 3.74179,0 0.24945,0 0.5117,0.07888 0.74834,0 0.52917,-0.17639 0.96756,-0.571966 1.49673,-0.748356 0.47328,-0.157765 1.0234,0.157769 1.49669,0 0.52917,-0.176387 0.95557,-0.613068 1.49672,-0.748352 0.484,-0.121002 1.02341,0.157765 1.4967,0 0.33467,-0.111559 0.41367,-0.636797 0.74837,-0.748356 0.47329,-0.157765 1.02341,0.157766 1.4967,0 0.33467,-0.111559 0.41367,-0.636796 0.74834,-0.748355 0.47332,-0.157766 1.01272,0.121002 1.49672,0 0.54113,-0.135284 0.96753,-0.571966 1.4967,-0.748353 0.23667,-0.07888 0.5117,0.07888 0.74837,0 0.52917,-0.17639 0.95557,-0.613071 1.4967,-0.748355 0.96803,-0.242004 2.04682,0.315534 2.99342,0 0.33467,-0.111559 0.49892,-0.498904 0.74837,-0.748356 0.4989,0 1.01269,0.121002 1.49669,0 0.54116,-0.135284 0.95557,-0.613071 1.49673,-0.748355 0.484,-0.120999 1.01269,0.121002 1.49669,0 0.54115,-0.135284 0.95557,-0.613069 1.49672,-0.748353 0.484,-0.121002 1.02341,0.157766 1.4967,0 0.33467,-0.111559 0.41367,-0.636797 0.74837,-0.748355 0.47329,-0.157766 1.01269,0.121001 1.4967,0 0.54115,-0.135285 0.95556,-0.613072 1.49672,-0.748356 0.484,-0.121002 1.01269,0.121002 1.49669,0 0.54115,-0.135284 0.95557,-0.613069 1.49672,-0.748353 0.48401,-0.121002 1.0127,0.121002 1.4967,0 0.54115,-0.135284 0.95557,-0.613071 1.49672,-0.748355 0.484,-0.121002 1.02341,0.157766 1.4967,0 0.33467,-0.111559 0.4137,-0.636797 0.74837,-0.748356 0.9466,-0.315534 2.04682,0.315535 2.99342,0 0.33467,-0.111558 0.41367,-0.636796 0.74834,-0.748355 0.47332,-0.157766 1.02341,0.157768 1.49672,0 0.33468,-0.111556 0.41368,-0.636796 0.74835,-0.748353 0.61979,-0.206602 3.26586,0.237956 3.74177,0 0.31554,-0.157768 0.41367,-0.636796 0.74834,-0.748355 0.67353,-0.224507 1.57155,0.224507 2.24507,0 0.52917,-0.17639 0.96756,-0.571966 1.49672,-0.748356 0.70996,-0.236648 1.53512,0.236652 2.24507,0 0.33467,-0.111556 0.43281,-0.590587 0.74835,-0.748352 0.22312,-0.111559 0.4989,0 0.74835,0 0.4989,0 1.02341,0.157765 1.49672,0 0.33467,-0.111559 0.41367,-0.636797 0.74835,-0.748356 0.7952,-0.26507 2.19821,0.26507 2.99341,0 0.52917,-0.17639 0.96756,-0.571965 1.49672,-0.748355 0.72581,-0.241938 3.99349,0.248311 4.49012,0 0.31554,-0.157766 0.43283,-0.590587 0.74837,-0.748353 0.19346,-0.09674 3.95967,0 4.49011,0 0.24945,0 0.57198,0.176387 0.74835,0 0.1764,-0.17639 -0.17637,-0.571968 0,-0.748355 0.0339,-0.03392 3.38894,0 3.74179,0 1.24724,0 2.49452,0 3.74176,0 0.24945,0 0.57198,0.176387 0.74835,0 0.1764,-0.17639 -0.17637,-0.571966 0,-0.748356 0.1764,-0.17639 0.49893,0 0.74837,0 0.24945,0 0.4989,0 0.74835,0 1.99562,0 3.99121,0 5.98683,0 0.33703,0 2.01732,0.113874 2.24507,0 0.31555,-0.157766 0.43281,-0.590587 0.74835,-0.748355 0.22312,-0.111557 0.57198,0.176389 0.74835,0 0.1764,-0.176387 0.1764,-0.571966 0,-0.748353 -0.17637,-0.17639 -0.4989,0 -0.74835,0"
       id="path7380"
       inkscape:connector-curvature="0" />
  </g>
</svg>
