<?xml version="1.0" encoding="UTF-8" standalone="no"?>
<!-- Created with Inkscape (http://www.inkscape.org/) -->

<svg
   xmlns:dc="http://purl.org/dc/elements/1.1/"
   xmlns:cc="http://creativecommons.org/ns#"
   xmlns:rdf="http://www.w3.org/1999/02/22-rdf-syntax-ns#"
   xmlns:svg="http://www.w3.org/2000/svg"
   xmlns="http://www.w3.org/2000/svg"
   xmlns:xlink="http://www.w3.org/1999/xlink"
   xmlns:sodipodi="http://sodipodi.sourceforge.net/DTD/sodipodi-0.dtd"
   xmlns:inkscape="http://www.inkscape.org/namespaces/inkscape"
   width="2096"
   height="1144"
   viewBox="0 0 554.56665 302.68332"
   version="1.1"
   id="svg6679"
   inkscape:version="0.92.3 (2405546, 2018-03-11)"
   sodipodi:docname="damba-damba-kad2.svg">
  <defs
     id="defs6673" />
  <sodipodi:namedview
     id="base"
     pagecolor="#ffffff"
     bordercolor="#666666"
     borderopacity="1.0"
     inkscape:pageopacity="0.0"
     inkscape:pageshadow="2"
     inkscape:zoom="0.35355339"
     inkscape:cx="1268.7539"
     inkscape:cy="600.33495"
     inkscape:document-units="mm"
     inkscape:current-layer="layer1"
     showgrid="false"
     fit-margin-top="0"
     fit-margin-left="0"
     fit-margin-right="0"
     fit-margin-bottom="0"
     units="px"
     inkscape:window-width="1366"
     inkscape:window-height="715"
     inkscape:window-x="0"
     inkscape:window-y="0"
     inkscape:window-maximized="1" />
  <metadata
     id="metadata6676">
    <rdf:RDF>
      <cc:Work
         rdf:about="">
        <dc:format>image/svg+xml</dc:format>
        <dc:type
           rdf:resource="http://purl.org/dc/dcmitype/StillImage" />
        <dc:title></dc:title>
      </cc:Work>
    </rdf:RDF>
  </metadata>
  <g
     inkscape:label="Layer 1"
     inkscape:groupmode="layer"
     id="layer1"
     transform="translate(-1.666421e-4,9.7194934e-5)">
    <image
       sodipodi:absref="/home/aanper/project/luysy-imn-eh/pi/boot/bydefault/web/img/damba.png"
       y="-9.7194934e-05"
       x="0.0001666421"
       id="image7283"
       xlink:href="file:///home/aanper/project/luysy-imn-eh/pi/boot/bydefault/web/img/damba.png"
       preserveAspectRatio="none"
       height="302.68332"
       width="554.56665" />
    <circle
       style="fill:none;fill-opacity:1;stroke:#00ff00;stroke-width:0.30000001;stroke-miterlimit:4;stroke-dasharray:none;stroke-opacity:1;paint-order:stroke fill markers"
       id="path7286"
       cx="472.21198"
       cy="65.454803"
       r="3.7417734" />
    <ellipse
       style="fill:none;fill-opacity:1;stroke:#00ff00;stroke-width:0.30000001;stroke-miterlimit:4;stroke-dasharray:none;stroke-opacity:1;paint-order:stroke fill markers"
       id="path7288"
       cx="313.5314"
       cy="230.31969"
       rx="1.0583333"
       ry="0.92604166" />
    <circle
       style="fill:none;fill-opacity:1;stroke:#00ff00;stroke-width:0.30000001;stroke-miterlimit:4;stroke-dasharray:none;stroke-opacity:1;paint-order:stroke fill markers"
       id="path7290"
       cx="367.50641"
       cy="260.61447"
       r="0.79374999" />
    <path
       style="fill:none;fill-opacity:1;stroke:#00ff00;stroke-width:0.30000001;stroke-miterlimit:4;stroke-dasharray:none;stroke-opacity:1;paint-order:stroke fill markers"
       d="m 474.45703,64.70645 c -0.72057,2.231162 -2.6262,-0.557792 -3.74177,0 -0.31554,0.157765 -0.43283,0.590587 -0.74837,0.748355 -0.44622,0.223115 -1.05048,-0.223118 -1.4967,0 -0.31554,0.157766 -0.43283,0.590587 -0.74837,0.748353 -0.44622,0.223118 -1.05048,-0.223115 -1.4967,0 -0.31554,0.157768 -0.41367,0.636796 -0.74834,0.748355 -0.47332,0.157766 -0.99783,0 -1.49672,0 -0.24945,0 -0.52523,-0.111559 -0.74835,0 -0.31554,0.157766 -0.43283,0.590587 -0.74835,0.748356 -0.44625,0.223115 -1.02341,-0.157769 -1.49672,0 -0.52917,0.176387 -0.96756,0.571965 -1.49672,0.748352 -0.6735,0.224507 -1.57155,-0.224504 -2.24504,0 -0.52917,0.17639 -0.96756,0.571966 -1.49673,0.748356 -0.47328,0.157768 -1.0234,-0.157766 -1.49669,0 -0.52917,0.17639 -0.96756,0.571966 -1.49672,0.748355 -0.47332,0.157766 -1.05048,-0.223118 -1.49672,0 -0.31552,0.157766 -0.43281,0.590587 -0.74835,0.748356 -0.59867,0.299341 -1.64637,-0.299345 -2.24507,0 -0.31552,0.157765 -0.43281,0.590587 -0.74835,0.748353 -0.59867,0.299341 -1.64637,-0.299342 -2.24507,0 -0.31551,0.157768 -0.4328,0.590589 -0.74834,0.748355 -0.51692,0.258456 -3.47909,-0.262686 -3.74177,0 -0.1764,0.17639 0.17637,0.571966 0,0.748355 -0.15301,0.15299 -1.94836,-0.148359 -2.24507,0 -0.31554,0.157766 -0.43283,0.590587 -0.74834,0.748353 -0.22313,0.111559 -0.49893,0 -0.74838,0 -0.24945,0.249452 -0.4328,0.59059 -0.74835,0.748356 -0.59867,0.299341 -1.64637,-0.299342 -2.24506,0 -0.31552,0.157768 -0.43281,0.590587 -0.74835,0.748355 -0.44625,0.223115 -1.05048,-0.223118 -1.49672,0 -0.31552,0.157766 -0.43281,0.590587 -0.74835,0.748355 -0.22312,0.111557 -0.4989,0 -0.74835,0 -0.24945,0.24945 -0.43283,0.590587 -0.74835,0.748353 -0.47212,0.236059 -3.26966,-0.236056 -3.74179,0 -0.31551,0.157769 -0.4328,0.590587 -0.74834,0.748356 -0.47213,0.236056 -3.26967,-0.236056 -3.74177,0 -0.31554,0.157765 -0.43283,0.590587 -0.74837,0.748355 -0.47035,0.235178 -2.52304,-0.23518 -2.99342,0 -0.31551,0.157766 -0.4328,0.590587 -0.74835,0.748353 -0.44622,0.223118 -1.05047,-0.223115 -1.49672,0 -0.31551,0.157768 -0.4328,0.59059 -0.74834,0.748355 -0.4721,0.236059 -3.26965,-0.236056 -3.74177,0 -0.31554,0.157769 -0.43283,0.590587 -0.74835,0.748356 -0.47037,0.235177 -2.52306,-0.23518 -2.99344,0 -0.31551,0.157765 -0.4328,0.590587 -0.74835,0.748355 -0.59867,0.299342 -1.64637,-0.299344 -2.24507,0 -0.31551,0.157766 -0.4328,0.590587 -0.74834,0.748353 -0.47035,0.23518 -2.52307,-0.235178 -2.99342,0 -0.31554,0.157768 -0.43283,0.590587 -0.74835,0.748355 -0.5987,0.299342 -1.64639,-0.299341 -2.24507,0 -0.31554,0.157766 -0.43283,0.590587 -0.74834,0.748356 -0.47038,0.235177 -2.52307,-0.23518 -2.99342,0 -0.31554,0.157766 -0.43283,0.590587 -0.74837,0.748353 -0.45443,0.227211 -4.03569,-0.227209 -4.49012,0 -0.31554,0.157768 -0.43283,0.590589 -0.74837,0.748355 -0.2231,0.111559 -0.4989,0 -0.74835,0 -1.24724,0 -2.49451,0 -3.74176,0 -0.24945,0 -0.4989,0 -0.74835,0 -0.24947,0 -0.52525,-0.111559 -0.74837,0 -0.31552,0.157768 -0.43281,0.590587 -0.74835,0.748355 -0.47035,0.235178 -2.52307,-0.23518 -2.99342,0 -0.31554,0.157766 -0.43283,0.590587 -0.74834,0.748356 -0.19945,0.09972 -4.15158,0 -4.49014,0 -0.24945,0 -0.52525,-0.111559 -0.74835,0 -0.31554,0.157766 -0.43283,0.590587 -0.74837,0.748353 -0.44622,0.223117 -1.05048,-0.223116 -1.4967,0 -0.31554,0.157768 -0.43283,0.590587 -0.74835,0.748355 -0.39682,0.198403 -3.23267,-0.169701 -3.74179,0 -0.33467,0.111559 -0.4328,0.590587 -0.74834,0.748356 -0.27065,0.135313 -3.22125,0 -3.74177,0 -0.49892,0 -0.99782,0 -1.49672,0 -0.24945,0 -0.52522,-0.111559 -0.74835,0 -0.31554,0.157765 -0.43283,0.590587 -0.74834,0.748352 -0.45443,0.227211 -4.03572,-0.227208 -4.49014,0 -0.31554,0.157769 -0.43283,0.59059 -0.74835,0.748356 -0.22312,0.111559 -0.4989,0 -0.74837,0 -0.24945,0 -0.4989,0 -0.74835,0 -1.4967,0 -2.99342,0 -4.49011,0 -0.24948,0 -0.49893,0 -0.74838,0 -0.24944,0 -0.52522,-0.111559 -0.74834,0 -0.31554,0.157768 -0.43283,0.590587 -0.74835,0.748355 -0.19349,0.09674 -3.9597,0 -4.49014,0 -3.49231,0 -6.98463,0 -10.47697,0 -4.24066,0 -8.48135,0 -12.72201,0 -1.24727,0 -2.49452,0 -3.74179,0 -0.49173,0 -1.82285,0.14074 -2.24504,0 -0.52917,-0.17639 -0.96756,-0.571966 -1.49673,-0.748355 -0.60235,-0.200785 -2.5152,0.239106 -2.99341,0 -0.31554,-0.157766 -0.43283,-0.590587 -0.74835,-0.748356 -0.22312,-0.111556 -0.49893,0 -0.74837,0 -0.41813,0 -3.30015,0.147209 -3.74177,0 -0.52916,-0.176387 -0.96755,-0.571965 -1.49672,-0.748352 -0.23664,-0.07889 -0.4989,0 -0.74835,0 -0.4989,0 -0.99779,0 -1.49669,0 -0.24945,0 -0.52525,-0.111559 -0.74838,0 -0.31551,0.157765 -0.41367,0.636796 -0.74834,0.748352 -0.43784,0.14595 -3.84779,0 -4.49014,0 -3.49232,0 -6.98463,0 -10.47695,0 -2.40892,0 1.27752,-0.176387 -1.49672,0.748356 -0.7952,0.26507 -2.19821,-0.26507 -2.99341,0 -0.52917,0.176389 -0.96756,0.571965 -1.49672,0.748355 -0.47329,0.157766 -0.9978,0 -1.4967,0 -0.67979,0 -4.75268,-0.161938 -5.23849,0 -0.33467,0.111556 -0.41367,0.636797 -0.74834,0.748353 -0.69205,0.230685 -3.99709,-0.24652 -4.49014,0 -0.31553,0.157768 -0.41368,0.636796 -0.74835,0.748355 -0.4733,0.157769 -0.99781,0 -1.49671,0 -0.24945,0 -0.52524,-0.111559 -0.74835,0 -0.31554,0.157769 -0.43283,0.590587 -0.74836,0.748356 -0.45442,0.227208 -4.03571,-0.227209 -4.49013,0 -1.84948,0.924742 0.25832,0.748355 -1.49671,0.748355 -0.33702,0 -2.01731,-0.113876 -2.24506,0 -0.31554,0.157766 -0.43282,0.590587 -0.74836,0.748353 -0.22311,0.111559 -0.4989,0 -0.74835,0 -0.4989,0 -1.02341,-0.157766 -1.49671,0 -0.33467,0.111559 -0.43282,0.59059 -0.74835,0.748355 -0.22312,0.111559 -0.52524,-0.111558 -0.74836,0 -0.31553,0.157769 -0.41368,0.636797 -0.74835,0.748356 -0.4733,0.157766 -0.99781,0 -1.49671,0 -0.24945,0 -0.52524,-0.111559 -0.74836,0 -0.31553,0.157766 -0.41368,0.636796 -0.74835,0.748353 -0.4733,0.157768 -0.99781,0 -1.49671,0 -0.24945,0 -0.52524,-0.111557 -0.74836,0 -0.31553,0.157768 -0.4989,0.498903 -0.74835,0.748355 -0.4989,0 -1.02341,-0.157766 -1.49671,0 -0.33467,0.111559 -0.43282,0.590587 -0.74836,0.748355 -0.22311,0.111559 -0.52523,-0.111558 -0.74835,0 -0.31553,0.157766 -0.41368,0.636797 -0.74835,0.748356 -0.4733,0.157766 -1.02341,-0.157768 -1.49671,0 -0.66935,0.223115 -0.82737,1.273595 -1.49671,1.496705 -0.4733,0.15777 -1.02341,-0.15776 -1.49671,0 -0.66935,0.22312 -0.86564,1.18118 -1.49671,1.49671 -0.22312,0.11156 -0.52524,-0.11155 -0.74836,0 -0.31553,0.15777 -0.45482,0.55267 -0.74835,0.74836 -0.46411,0.3094 -1.10229,0.35394 -1.49671,0.74835 -0.17639,0.17639 0.17639,0.57197 0,0.74836 -0.17639,0.17638 -0.52524,-0.11156 -0.74835,0 -0.89803,0.44901 -1.34704,1.79605 -2.24507,2.24506 -0.22312,0.11156 -0.52524,-0.11156 -0.74835,0 -0.31554,0.15777 -0.49891,0.4989 -0.74836,0.74835 -0.24945,0.24946 -0.59059,0.43283 -0.74835,0.74836 -0.11156,0.22312 0.17639,0.57197 0,0.74835 -0.17639,0.17639 -0.52524,-0.11155 -0.74836,0 -0.14325,0.0716 -2.92179,2.85017 -2.99342,2.99342 -0.11155,0.22312 0.11156,0.52524 0,0.74836 -0.33164,0.66329 -1.7909,1.56382 -2.24506,2.24506 -0.30941,0.46411 -0.43895,1.0326 -0.74836,1.49671 -0.30059,0.45089 -1.19611,1.04582 -1.4967,1.49671 -0.30941,0.46411 -0.43895,1.0326 -0.74836,1.49671 -0.19568,0.29353 -0.6368,0.41368 -0.74835,0.74836 -0.15777,0.4733 0.15776,1.0234 0,1.4967 -0.22312,0.66935 -1.10534,0.90965 -1.49671,1.49671 -0.30941,0.46411 -0.43895,1.0326 -0.74836,1.49671 -0.39137,0.58706 -1.10533,0.90965 -1.49671,1.49671 -0.3094,0.46411 -0.43895,1.0326 -0.74835,1.49671 -0.39137,0.58706 -1.10534,0.90965 -1.49671,1.49671 -0.30941,0.46411 -0.43895,1.0326 -0.74836,1.49671 -0.39137,0.58706 -1.10533,0.90965 -1.49671,1.49671 -0.3094,0.46411 -0.43894,1.0326 -0.74835,1.49671 -1.52495,2.28743 0.0282,-0.79072 -1.49671,1.49671 -0.24945,0.4989 -0.4989,0.9978 -0.74835,1.49671 0,0.24945 0.11155,0.52523 0,0.74835 -0.15777,0.31554 -0.55267,0.45483 -0.74836,0.74836 -0.3094,0.46411 -0.43895,1.03259 -0.74835,1.49671 -0.19569,0.29352 -0.6368,0.41368 -0.74836,0.74835 -0.15776,0.4733 0.15777,1.02341 0,1.49671 -0.11155,0.33467 -0.55267,0.45483 -0.74835,0.74835 -0.30941,0.46411 -0.43895,1.0326 -0.74836,1.49671 -0.39137,0.58706 -1.27359,0.82736 -1.49671,1.49671 -0.15776,0.4733 0.15777,1.02341 0,1.49671 -0.22311,0.66935 -1.18117,0.86564 -1.49671,1.49671 -0.11155,0.22312 0.0789,0.51171 0,0.74836 -1.80688,5.42064 0.21576,-1.17987 -1.4967,2.24506 -0.11156,0.22312 0.11155,0.52524 0,0.74835 -1.71247,3.42493 0.31017,-3.17557 -1.49671,2.24507 -0.74258,2.22772 1.772,-1.53548 -0.74836,2.24506 -0.19568,0.29353 -0.63679,0.41368 -0.74835,0.74836 0,4.96396 0.35277,-1.05834 -0.74836,2.24506 -0.15776,0.4733 0.15777,1.02341 0,1.49671 -0.11156,0.33468 -0.55267,0.45483 -0.74835,0.74835 -0.30941,0.46412 -0.57197,0.96755 -0.74836,1.49672 -0.0789,0.23664 0,0.4989 0,0.74835 0,0.4989 0.15777,1.02341 0,1.49671 -0.11156,0.33467 -0.63679,0.41368 -0.74835,0.74835 -0.15777,0.4733 0.15777,1.02341 0,1.49671 -0.11156,0.33468 -0.6368,0.41368 -0.74836,0.74836 -0.2245,0.67352 0.22451,1.57154 0,2.24506 -0.17638,0.52917 -0.57196,0.96754 -0.74835,1.49671 -0.0789,0.23665 0,0.4989 0,0.74836 0,0.4989 0.15777,1.0234 0,1.4967 -0.11156,0.33468 -0.6368,0.41369 -0.74836,0.74836 -0.15776,0.4733 0.12101,1.0127 0,1.49671 -0.13528,0.54114 -0.57196,0.96754 -0.74835,1.49671 -0.0789,0.23665 0.0789,0.5117 0,0.74835 -0.17639,0.52917 -0.57197,0.96755 -0.74836,1.49671 -0.0789,0.23665 0.0789,0.51171 0,0.74836 -0.17638,0.52916 -0.61307,0.95557 -0.74835,1.49671 -0.121,0.484 0.15777,1.0234 0,1.49671 -0.11156,0.33467 -0.6368,0.41368 -0.74835,0.74835 -0.15777,0.4733 0.121,1.0127 0,1.49671 -0.13529,0.54114 -0.61308,0.95557 -0.74836,1.49671 -0.1815,0.72601 0.23665,1.53511 0,2.24506 -0.17639,0.52917 -0.61307,0.95558 -0.74835,1.49671 -0.12101,0.48401 0.15776,1.02341 0,1.49671 -0.11156,0.33468 -0.6368,0.41368 -0.74836,0.74836 -0.15777,0.4733 0.15777,1.0234 0,1.4967 -0.11156,0.33468 -0.6368,0.41369 -0.74835,0.74836 -0.15777,0.4733 0.15776,1.02341 0,1.49671 -0.22312,0.66935 -1.18118,0.86564 -1.49671,1.49671 -0.11156,0.22311 0.0789,0.5117 0,0.74835 -0.17639,0.52917 -0.57197,0.96755 -0.74836,1.49671 -0.0789,0.23665 0.11156,0.52524 0,0.74836 -0.15776,0.31553 -0.59058,0.43282 -0.74835,0.74835 -0.11156,0.22312 0,0.4989 0,0.74836 -0.24945,0.4989 -0.43895,1.0326 -0.74836,1.49671 -0.19568,0.29353 -0.59059,0.43282 -0.74835,0.74835 -0.11156,0.22312 0.0789,0.5117 0,0.74836 -0.36286,1.08857 -1.13385,1.90484 -1.49671,2.99341 -0.0789,0.23666 0,0.49891 0,0.74836 -0.24945,0.4989 -0.4989,0.9978 -0.74835,1.49671 -0.24946,0.4989 -0.43895,1.0326 -0.74836,1.49671 -0.91286,1.36929 -0.95411,0.0747 -1.49671,2.24506 -0.121,0.48401 0.15777,1.02341 0,1.49671 -0.11156,0.33467 -0.55267,0.45483 -0.74835,0.74836 -0.30941,0.4641 -0.43895,1.03259 -0.74836,1.4967 -0.19569,0.29353 -0.55267,0.45483 -0.74835,0.74836 -2.17898,3.26847 0.33167,-0.24667 -0.74836,2.99342 -0.11156,0.33467 -0.55267,0.45482 -0.74835,0.74835 -0.30941,0.46411 -0.49891,0.99781 -0.74836,1.49671 -0.24945,0.49891 -0.61307,0.95557 -0.74835,1.49671 0,4.96396 0.35278,-1.05833 -0.74836,2.24506 -0.15776,0.47331 0.12101,1.01271 0,1.49672 -0.27056,1.08227 -1.14393,1.93508 -1.4967,2.99341 -0.0789,0.23665 0,0.49891 0,0.74836 -0.24946,0.4989 -0.57197,0.96754 -0.74836,1.49671 -0.0789,0.23665 0.0789,0.5117 0,0.74835 -0.17639,0.52917 -0.61307,0.95558 -0.74836,1.49671 -0.1815,0.72601 0.23666,1.53511 0,2.24507 -0.17639,0.52916 -0.57196,0.96754 -0.74835,1.4967 -0.0789,0.23665 0.0789,0.51171 0,0.74836 -0.17639,0.52917 -0.57197,0.96754 -0.74835,1.49671 -0.0789,0.23665 0,0.4989 0,0.74835 0,0.49891 0.15776,1.02341 0,1.49671 -0.11156,0.33468 -0.6368,0.41368 -0.74836,0.74836 -0.31553,0.9466 0.242,2.0254 0,2.99342 -0.13528,0.54113 -0.57197,0.96754 -0.74835,1.49671 -0.23665,0.70995 0.1815,1.51905 0,2.24506 -0.13529,0.54114 -0.57197,0.96754 -0.74836,1.49671 -0.23665,0.70995 0.23665,1.53511 0,2.24506 -0.11156,0.33468 -0.63679,0.41368 -0.74835,0.74836 -0.23665,0.70995 0.23665,1.53511 0,2.24506 -0.17639,0.52917 -0.57197,0.96754 -0.74836,1.49671 -0.23665,0.70995 0.23665,1.53511 0,2.24507 -0.11156,0.33466 -0.59059,0.43282 -0.74835,0.74834 -0.11156,0.22312 0,0.49892 0,0.74837 0,0.4989 0.15776,1.02341 0,1.4967 -0.11156,0.33467 -0.59059,0.43283 -0.74836,0.74837 -0.22311,0.44622 0.22312,1.05048 0,1.4967 -0.15777,0.31554 -0.59058,0.43283 -0.74835,0.74834 -0.11156,0.22313 0.11156,0.52525 0,0.74838 -0.15777,0.31551 -0.59059,0.4328 -0.74836,0.74834 -0.11155,0.22313 0.11156,0.52523 0,0.74835 -0.15776,0.31554 -0.59058,0.43283 -0.74835,0.74835 -0.11156,0.22312 0.11156,0.52525 0,0.74837 -0.15777,0.31552 -0.59059,0.43281 -0.74836,0.74835 -0.22311,0.44622 0.22312,1.05048 0,1.49672 -0.15776,0.31552 -0.4989,0.4989 -0.74835,0.74835 0,0.4989 0.15777,1.02341 0,1.49669 -0.11156,0.33468 -0.59059,0.43284 -0.74835,0.74838 -0.11156,0.2231 0.11155,0.52522 0,0.74835 -0.15777,0.31554 -0.59059,0.4328 -0.74836,0.74834 -0.11156,0.22313 0.17639,0.57198 0,0.74835 -0.17639,0.1764 -0.57197,-0.17637 -0.74835,0 -0.17639,0.1764 0.11155,0.52525 0,0.74837 -0.15777,0.31552 -0.59059,0.43281 -0.74836,0.74835 -0.22312,0.44622 0.22312,1.05048 0,1.4967 -0.15777,0.31554 -0.59059,0.43283 -0.74835,0.74837 -0.11156,0.22312 0.11155,0.52523 0,0.74835 -0.15777,0.31554 -0.59059,0.43283 -0.74836,0.74835 -0.11156,0.22312 0.11156,0.52525 0,0.74837 -0.15777,0.31552 -0.59059,0.43281 -0.74835,0.74835 -0.25846,0.51691 0.26269,3.47908 0,3.74176 -0.17639,0.1764 -0.57197,-0.17637 -0.74836,0 -0.17639,0.1764 0,0.4989 0,0.74835 0,1.49672 0,2.99344 0,4.49014 0,0.24945 0.17639,0.57197 0,0.74834 -0.9978,0.99783 -0.74835,-1.24724 -0.74835,0.74838 0,0.9978 0,1.99559 0,2.99341 0,0.24945 0,0.4989 0,0.74835 0,0.24945 0.24945,0.74835 0,0.74835 -0.24945,0 0,-0.4989 0,-0.74835"
       id="path7317"
       inkscape:connector-curvature="0" />
  </g>
</svg>
