<?xml version="1.0" encoding="UTF-8" standalone="no"?>
<!-- Created with Inkscape (http://www.inkscape.org/) -->

<svg
   xmlns:dc="http://purl.org/dc/elements/1.1/"
   xmlns:cc="http://creativecommons.org/ns#"
   xmlns:rdf="http://www.w3.org/1999/02/22-rdf-syntax-ns#"
   xmlns:svg="http://www.w3.org/2000/svg"
   xmlns="http://www.w3.org/2000/svg"
   xmlns:xlink="http://www.w3.org/1999/xlink"
   xmlns:sodipodi="http://sodipodi.sourceforge.net/DTD/sodipodi-0.dtd"
   xmlns:inkscape="http://www.inkscape.org/namespaces/inkscape"
   width="2096"
   height="1144"
   viewBox="0 0 554.56665 302.68332"
   version="1.1"
   id="svg6679"
   inkscape:version="0.92.3 (2405546, 2018-03-11)"
   sodipodi:docname="damba-west-kad2.svg">
  <defs
     id="defs6673" />
  <sodipodi:namedview
     id="base"
     pagecolor="#ffffff"
     bordercolor="#666666"
     borderopacity="1.0"
     inkscape:pageopacity="0.0"
     inkscape:pageshadow="2"
     inkscape:zoom="0.35355339"
     inkscape:cx="1032.3926"
     inkscape:cy="525.59744"
     inkscape:document-units="mm"
     inkscape:current-layer="layer1"
     showgrid="false"
     fit-margin-top="0"
     fit-margin-left="0"
     fit-margin-right="0"
     fit-margin-bottom="0"
     units="px"
     inkscape:window-width="1366"
     inkscape:window-height="715"
     inkscape:window-x="0"
     inkscape:window-y="0"
     inkscape:window-maximized="1" />
  <metadata
     id="metadata6676">
    <rdf:RDF>
      <cc:Work
         rdf:about="">
        <dc:format>image/svg+xml</dc:format>
        <dc:type
           rdf:resource="http://purl.org/dc/dcmitype/StillImage" />
        <dc:title></dc:title>
      </cc:Work>
    </rdf:RDF>
  </metadata>
  <g
     inkscape:label="Layer 1"
     inkscape:groupmode="layer"
     id="layer1"
     transform="translate(-1.666421e-4,9.7194934e-5)">
    <image
       sodipodi:absref="/home/aanper/project/luysy-imn-eh/pi/boot/bydefault/web/img/damba.png"
       y="-9.7194934e-05"
       x="0.0001666421"
       id="image7283"
       xlink:href="file:///home/aanper/project/luysy-imn-eh/pi/boot/bydefault/web/img/damba.png"
       preserveAspectRatio="none"
       height="302.68332"
       width="554.56665" />
    <circle
       style="fill:none;fill-opacity:1;stroke:#00ff00;stroke-width:0.30000001;stroke-miterlimit:4;stroke-dasharray:none;stroke-opacity:1;paint-order:stroke fill markers"
       id="path7286"
       cx="472.21198"
       cy="65.454803"
       r="3.7417734" />
    <ellipse
       style="fill:none;fill-opacity:1;stroke:#00ff00;stroke-width:0.30000001;stroke-miterlimit:4;stroke-dasharray:none;stroke-opacity:1;paint-order:stroke fill markers"
       id="path7288"
       cx="313.5314"
       cy="230.31969"
       rx="1.0583333"
       ry="0.92604166" />
    <circle
       style="fill:none;fill-opacity:1;stroke:#00ff00;stroke-width:0.30000001;stroke-miterlimit:4;stroke-dasharray:none;stroke-opacity:1;paint-order:stroke fill markers"
       id="path7290"
       cx="367.50641"
       cy="260.61447"
       r="0.79374999" />
    <path
       style="fill:none;fill-opacity:1;stroke:#00ff00;stroke-width:0.30000001;stroke-miterlimit:4;stroke-dasharray:none;stroke-opacity:1;paint-order:stroke fill markers"
       d="m 314.30913,232.33789 c 0,-1.24725 0,-2.49451 0,-3.74177 0,-0.24945 0.1764,-0.57196 0,-0.74835 -0.1764,-0.17639 -0.57198,0.17639 -0.74835,0 -0.35279,-0.35278 0.35277,-1.14394 0,-1.49671 -0.1764,-0.17639 -0.57197,0.17639 -0.74837,0 -0.17637,-0.17639 0.11157,-0.52524 0,-0.74836 -0.15777,-0.31553 -0.59058,-0.43282 -0.74835,-0.74835 -0.51612,-1.03225 0.9063,-0.66939 -0.74835,-1.49671 -0.22312,-0.11156 -0.52525,0.11156 -0.74834,0 -0.31555,-0.15777 -0.43284,-0.59059 -0.74838,-0.74836 -0.22312,-0.11156 -0.57195,0.17639 -0.74835,0 -0.17639,-0.17639 0.1764,-0.57196 0,-0.74835 -0.35277,-0.35278 -1.14392,0.35278 -1.49672,0 -0.17637,-0.17639 0.1764,-0.57197 0,-0.74836 -0.35277,-0.35277 -1.05047,0.22312 -1.49669,0 -0.31554,-0.15776 -0.43283,-0.59058 -0.74835,-0.74835 -0.22312,-0.11156 -0.57198,0.17639 -0.74837,0 -0.17638,-0.17639 0.17639,-0.57197 0,-0.74836 -0.17638,-0.17639 -0.57195,0.17639 -0.74835,0 -0.1764,-0.17639 0.1764,-0.57196 0,-0.74835 -0.1764,-0.17639 -0.57198,0.17639 -0.74835,0 -0.1764,-0.17639 0.17637,-0.57197 0,-0.74835 -0.1764,-0.17639 -0.57198,0.17638 -0.74835,0 -0.17639,-0.17639 0.17637,-0.57197 0,-0.74836 -0.17639,-0.17639 -0.57197,0.17639 -0.74837,0 -0.17637,-0.17639 0,-0.4989 0,-0.74835 0,-0.24946 0,-0.49891 0,-0.74836 0,-0.39133 -0.0984,-2.79664 0,-2.99342 0.15777,-0.31553 0.5906,-0.43282 0.74837,-0.74835 0.2231,-0.44623 -0.22312,-1.05048 0,-1.49671 0.15775,-0.31553 0.59058,-0.43282 0.74835,-0.74836 0.39455,-0.78912 -0.39457,-0.70758 0,-1.49671 0.15777,-0.31553 0.59058,-0.43282 0.74835,-0.74835 0.11155,-0.22312 -0.11155,-0.52524 0,-0.74835 0.15777,-0.31554 0.59057,-0.43283 0.74835,-0.74836 0.11157,-0.22312 -0.11155,-0.52524 0,-0.74835 0.15777,-0.31554 0.5906,-0.43282 0.74837,-0.74836 0.11155,-0.22312 -0.11158,-0.52524 0,-0.74835 0.15774,-0.31554 0.6368,-0.41368 0.74835,-0.74836 0.15777,-0.4733 -0.15777,-1.02341 0,-1.49671 0.11155,-0.33467 0.59057,-0.43282 0.74834,-0.74835 0.11158,-0.22312 0,-0.49891 0,-0.74836 0.24945,-0.24945 0.59061,-0.43282 0.74835,-0.74835 0.22313,-0.44623 -0.22309,-1.05048 0,-1.49671 0.15777,-0.31554 0.59061,-0.43282 0.74838,-0.74835 0.11154,-0.22312 -0.11158,-0.52524 0,-0.74836 0.15777,-0.31553 0.59057,-0.43282 0.74834,-0.74836 0.11155,-0.22311 -0.11154,-0.52523 0,-0.74835 0.15777,-0.31553 0.59058,-0.43282 0.74835,-0.74835 0.11158,-0.22312 -0.11155,-0.52524 0,-0.74836 0.15777,-0.31553 0.5906,-0.43282 0.74838,-0.74835 0.22309,-0.44623 -0.22313,-1.05048 0,-1.49671 0.15774,-0.31554 0.59057,-0.43282 0.74834,-0.74836 0.11388,-0.22775 0,-1.90803 0,-2.24506 0,-0.33703 -0.11387,-2.01731 0,-2.24507 0.15777,-0.31553 0.59058,-0.43282 0.74835,-0.74835 0.23606,-0.47211 -0.23606,-3.26966 0,-3.74177 0.15777,-0.31554 0.59058,-0.43282 0.74835,-0.74836 0.11157,-0.22311 0,-0.4989 0,-0.74835 0,-0.24946 0.1764,-0.57197 0,-0.74836 -0.17637,-0.17639 -0.57195,0.17639 -0.74835,0 -0.1764,-0.17639 0,-0.4989 0,-0.74835 0,-1.49671 0,-2.99342 0,-4.49013 0,-0.24945 0.1764,-0.57196 0,-0.74835 -0.1764,-0.17639 -0.57198,0.17639 -0.74835,0 -0.1764,-0.17639 0.11155,-0.52524 0,-0.74836 -0.0994,-0.1987 -2.04636,-2.14572 -2.24507,-2.24506 -0.22312,-0.11156 -0.57197,0.17639 -0.74834,0 -0.1764,-0.17639 0.17637,-0.57197 0,-0.74836 -0.1764,-0.17639 -0.52525,0.11156 -0.74838,0 -0.31551,-0.15776 -0.4328,-0.59059 -0.74835,-0.74835 -0.44622,-0.22312 -1.05047,0.22311 -1.49669,0 -0.31554,-0.15777 -0.43283,-0.59059 -0.74837,-0.74836 -0.44622,-0.22311 -1.14393,0.35278 -1.4967,0 -0.1764,-0.17639 0.17637,-0.57196 0,-0.74835 -0.35279,-0.35278 -1.05047,0.22312 -1.49672,0 -0.31552,-0.15777 -0.43281,-0.59059 -0.74835,-0.74836 -0.59867,-0.29934 -1.64637,0.29935 -2.24507,0 -0.31554,-0.15776 -0.4328,-0.59059 -0.74834,-0.74835 -0.47035,-0.23518 -2.52307,0.23518 -2.99342,0 -0.31554,-0.15777 -0.43283,-0.59059 -0.74835,-0.74836 -0.19349,-0.0967 -3.9597,0 -4.49014,0 -0.35284,0 -3.70787,0.0339 -3.74176,0 -0.1764,-0.17639 0.17637,-0.57196 0,-0.74835 -0.15301,-0.15299 -1.94837,0.14836 -2.24507,0 -0.31554,-0.15777 -0.43283,-0.59059 -0.74837,-0.74835 -0.44622,-0.22312 -1.14393,0.35277 -1.4967,0 -0.1764,-0.17639 0.1764,-0.57197 0,-0.74836 -0.1764,-0.17639 -0.52525,0.11156 -0.74835,0 -0.31554,-0.15777 -0.43283,-0.59059 -0.74837,-0.74836 -0.2231,-0.11155 -0.52522,0.11156 -0.74835,0 -0.63105,-0.31553 -0.86563,-1.18117 -1.49669,-1.4967 -0.22313,-0.11156 -0.57198,0.17639 -0.74838,0 -1.54836,-1.54838 2.36612,0.0605 -0.74834,-1.49671 -0.22313,-0.11156 -0.52523,0.11155 -0.74835,0 -0.63109,-0.31554 -0.86564,-1.18118 -1.49672,-1.49671 -0.22313,-0.11156 -0.52523,0.11156 -0.74835,0 -0.31554,-0.15777 -0.45482,-0.55267 -0.74835,-0.74836 -0.4641,-0.3094 -1.03261,-0.43894 -1.49672,-0.74835 -0.29353,-0.19569 -0.4328,-0.59059 -0.74835,-0.74836 -0.22312,-0.11156 -0.52525,0.11156 -0.74834,0 -0.89805,-0.44901 -1.34705,-1.79605 -2.24507,-2.24506 -0.22313,-0.11156 -0.52525,0.11156 -0.74835,0 -3.42494,-1.71246 3.17556,0.31017 -2.24508,-1.49671 -0.23665,-0.0789 -0.52523,0.11156 -0.74835,0 -0.63107,-0.31553 -0.82736,-1.27359 -1.49671,-1.49671 -0.4733,-0.15777 -1.02341,0.15777 -1.49671,0 -0.33468,-0.11156 -0.43282,-0.59059 -0.74835,-0.74835 -0.22312,-0.11156 -0.51171,0.0789 -0.74836,0 -0.4989,-0.24946 -0.99781,-0.49891 -1.49671,-0.74836 -0.24945,0 -0.5117,0.0789 -0.74835,0 -0.52917,-0.17639 -0.96755,-0.57197 -1.49671,-0.74835 -0.23665,-0.0789 -0.52524,0.11156 -0.74836,0 -0.31553,-0.15777 -0.45482,-0.55267 -0.74835,-0.74836 -3.78054,-2.52036 -0.0173,-0.006 -2.24507,-0.74835 -0.52916,-0.17639 -1.0326,-0.43895 -1.49671,-0.74836 -0.29353,-0.19568 -0.41368,-0.63679 -0.74835,-0.74835 -0.4733,-0.15777 -1.02341,0.15776 -1.49671,0 -0.33467,-0.11156 -0.43282,-0.59059 -0.74835,-0.74836 -0.22312,-0.11155 -0.51171,0.0789 -0.74836,0 -5.42064,-1.80688 1.17986,0.21576 -2.24506,-1.49671 -0.22312,-0.11155 -0.52524,0.11156 -0.74836,0 -0.31553,-0.15776 -0.43282,-0.59058 -0.74835,-0.74835 -0.22312,-0.11156 -0.51171,0.0789 -0.74836,0 -0.52916,-0.17639 -0.96754,-0.57197 -1.49671,-0.74836 -0.23665,-0.0789 -0.52523,0.11156 -0.74835,0 -0.31553,-0.15776 -0.43282,-0.59058 -0.74836,-0.74835 -0.22311,-0.11156 -0.52523,0.11156 -0.74835,0 -0.31553,-0.15777 -0.43282,-0.59059 -0.74836,-0.74835 -0.22311,-0.11156 -0.52523,0.11155 -0.74835,0 -0.63107,-0.31554 -0.86564,-1.18118 -1.49671,-1.49671 -0.22311,-0.11156 -0.52524,0.11155 -0.74835,0 -0.31554,-0.15777 -0.43282,-0.59059 -0.74836,-0.74836 -0.22312,-0.11156 -0.52524,0.11156 -0.74835,0 -0.63107,-0.31553 -0.86564,-1.18117 -1.49671,-1.49671 -0.22312,-0.11156 -0.52524,0.11156 -0.74836,0 -0.31553,-0.15776 -0.43282,-0.59059 -0.74835,-0.74835 -0.22312,-0.11156 -0.52524,0.11155 -0.74836,0 -0.31553,-0.15777 -0.43282,-0.59059 -0.74835,-0.74836 -0.22312,-0.11156 -0.52524,0.11156 -0.74836,0 -0.31553,-0.15776 -0.43282,-0.59058 -0.74835,-0.74835 -0.22312,-0.11156 -0.52524,0.11156 -0.74835,0 -0.31554,-0.15777 -0.43283,-0.59059 -0.74836,-0.74836 -0.22311,-0.11155 -0.52524,0.11156 -0.74836,0 -0.63106,-0.31553 -0.86564,-1.18117 -1.4967,-1.49671 -0.22312,-0.11155 -0.57197,0.17639 -0.74836,0 -0.17639,-0.17638 0.17639,-0.57196 0,-0.74835 -0.17639,-0.17639 -0.52524,0.11156 -0.74835,0 -0.31554,-0.15777 -0.43282,-0.59059 -0.74836,-0.74835 -0.22311,-0.11156 -0.57196,0.17638 -0.74835,0 -0.17639,-0.17639 0.17639,-0.57197 0,-0.74836 -0.17639,-0.17639 -0.57197,0.17639 -0.74836,0 -0.17638,-0.17639 0.17639,-0.57197 0,-0.74836 -0.17638,-0.17638 -0.52524,0.11156 -0.74835,0 -0.31553,-0.15776 -0.43282,-0.59058 -0.74836,-0.74835 -0.22311,-0.11156 -0.52523,0.11156 -0.74835,0 -0.31554,-0.15777 -0.43282,-0.59059 -0.74836,-0.74835 -0.19348,-0.0968 -3.95969,0 -4.49012,0 -0.33855,0 -4.2907,-0.0997 -4.49013,0 -0.31554,0.15776 -0.43282,0.59058 -0.74836,0.74835 -0.44623,0.22312 -1.05047,-0.22312 -1.49671,0 -0.31553,0.15777 -0.43282,0.59059 -0.74835,0.74835 -0.22312,0.11156 -0.52524,-0.11155 -0.74836,0 -0.31553,0.15777 -0.43281,0.59059 -0.74835,0.74836 -0.44623,0.22312 -1.14393,-0.35278 -1.49671,0 -0.17639,0.17639 0.11156,0.52524 0,0.74836 -0.44901,0.89802 -1.79605,1.34703 -2.24506,2.24506 -0.22312,0.44623 0.22311,1.05047 0,1.49671 -0.15777,0.31553 -0.59059,0.43282 -0.74836,0.74835 -0.23605,0.47212 0.23606,3.26966 0,3.74178 -0.15776,0.31553 -0.59059,0.43282 -0.74835,0.74835 -1.1953,2.39059 1.19529,-0.89388 0,1.49671 -0.15777,0.31554 -0.59059,0.43282 -0.74836,0.74835 -0.22311,0.44624 0.22312,1.05048 0,1.49671 -0.15776,0.31554 -0.59058,0.43283 -0.74835,0.74836 -0.22312,0.44623 0.22312,1.05048 0,1.49671 -0.15777,0.31553 -0.59059,0.43282 -0.74836,0.74835 -0.11155,0.22312 0.11156,0.52524 0,0.74836 -0.15776,0.31553 -0.63679,0.41368 -0.74835,0.74835 -0.15777,0.4733 0.15777,1.02341 0,1.49671 -0.11156,0.33468 -0.59059,0.43282 -0.74836,0.74836 -0.11155,0.22311 0.11156,0.52524 0,0.74835 -0.15776,0.31554 -0.63679,0.41368 -0.74835,0.74836 -0.15777,0.4733 0.15777,1.0234 0,1.4967 -0.11156,0.33468 -0.59059,0.43283 -0.74835,0.74836 -0.11156,0.22312 0.0789,0.5117 0,0.74835 -0.17639,0.52917 -0.57197,0.96755 -0.74836,1.49671 -0.0789,0.23666 0.11156,0.52524 0,0.74836 -0.15777,0.31553 -0.59059,0.43282 -0.74835,0.74835 -0.11156,0.22312 0.11155,0.52524 0,0.74836 -0.15777,0.31553 -0.6368,0.41368 -0.74836,0.74835 -0.15777,0.4733 0.15777,1.02341 0,1.49671 -0.11156,0.33468 -0.59059,0.43282 -0.74835,0.74836 -0.11156,0.22311 0.11156,0.52523 0,0.74835 -0.15777,0.31554 -0.59059,0.43282 -0.74836,0.74835 -0.22311,0.44624 0.22312,1.05048 0,1.49672 -0.15776,0.31553 -0.59059,0.43281 -0.74835,0.74835 -0.11156,0.22312 0.0789,0.5117 0,0.74835 -0.17639,0.52917 -0.57197,0.96755 -0.74836,1.49671 -0.15777,0.4733 0.15777,1.02341 0,1.49671 -0.17639,0.52917 -0.57196,0.96754 -0.74835,1.49671 -0.15777,0.4733 0.22311,1.05048 0,1.49671 -0.15777,0.31554 -0.6368,0.41368 -0.74836,0.74836 -0.15776,0.4733 0.15777,1.02341 0,1.49671 -0.11155,0.33467 -0.59058,0.43282 -0.74835,0.74835 -0.11156,0.22312 0,0.4989 0,0.74835 -0.24945,0.24946 -0.59059,0.43283 -0.74836,0.74836 -0.11155,0.22312 0.0789,0.5117 0,0.74835 -0.24945,0.49891 -0.4989,0.99781 -0.74835,1.49671 0,0.24945 0.0789,0.51171 0,0.74836 -0.17639,0.52916 -0.57197,0.96754 -0.74836,1.49671 -0.0789,0.23665 0.0789,0.5117 0,0.74835 -0.17638,0.52917 -0.57196,0.96755 -0.74835,1.49671 -0.0789,0.23665 0.0789,0.51171 0,0.74836 -0.12543,0.37629 -1.37128,2.61712 -1.49671,2.99341 -0.74257,2.22773 1.77201,-1.53547 -0.74835,2.24507 -0.19569,0.29353 -0.55267,0.45482 -0.74836,0.74835 -1.14713,1.7207 -0.34958,2.02108 -1.49671,3.74178 -0.19569,0.29353 -0.4989,0.4989 -0.74835,0.74835 -0.24945,0.4989 -0.43895,1.0326 -0.74836,1.49671 -0.19568,0.29353 -0.63679,0.41368 -0.74835,0.74835 -1.08003,3.24009 1.43063,-0.27505 -0.74836,2.99342 -0.19568,0.29353 -0.55267,0.45483 -0.74835,0.74836 -0.61881,0.92822 -0.99781,1.99561 -1.49671,2.99342 -0.24945,0.4989 -0.4989,0.9978 -0.74835,1.49671 -0.24946,0.4989 -0.61308,0.95557 -0.74836,1.49671 -0.121,0.484 0.121,1.0127 0,1.49671 -0.13528,0.54113 -0.4989,0.9978 -0.74836,1.4967 -0.24944,0.49891 -0.4989,0.99781 -0.74835,1.49671 -0.4989,0.99781 -0.8779,2.0652 -1.49671,2.99342 -0.19569,0.29353 -0.6368,0.41368 -0.74835,0.74836 -0.15777,0.4733 0.121,1.0127 0,1.49671 -0.13529,0.54113 -0.49891,0.9978 -0.74836,1.49671 -0.24945,0.4989 -0.4989,0.9978 -0.74835,1.49671 -0.49891,0.9978 -0.8779,2.06519 -1.49671,2.99341 -0.91286,1.3693 -0.95411,0.0747 -1.49671,2.24507 -0.121,0.484 0.121,1.0127 0,1.49671 0.45105,1.35448 -1.21229,1.39181 -1.49671,2.24506 -0.15777,0.4733 0.121,1.0127 0,1.49671 -0.13528,0.54114 -0.61307,0.95557 -0.74836,1.49671 -0.121,0.48401 0.12101,1.0127 0,1.49671 -0.13528,0.54113 -0.57196,0.96754 -0.74835,1.49671 -0.0789,0.23665 0.0789,0.5117 0,0.74835 -0.17639,0.52917 -0.61307,0.95558 -0.74835,1.49671 -0.24201,0.96802 0.31553,2.04682 0,2.99342 -0.11156,0.33468 -0.6368,0.41368 -0.74836,0.74836 -0.15777,0.4733 0.15777,1.02341 0,1.49671 -0.11156,0.33467 -0.6368,0.41368 -0.74835,0.74835 -0.4733,0.67155 0.23665,1.53511 0,2.24506 -0.17639,0.52917 -0.57197,0.96755 -0.74836,1.49671 -0.0789,0.23665 0,0.49891 0,0.74836 0,0.24945 0.0789,0.5117 0,0.74835 -0.17639,0.52917 -0.57196,0.96754 -0.74835,1.49671 -0.26507,0.79521 0.26507,2.19821 0,2.99342 -0.11156,0.33467 -0.59059,0.43282 -0.74836,0.74836 -0.11156,0.22311 0,0.4989 0,0.74835 0,0.53501 0.12769,4.10705 0,4.49013 -0.11156,0.33467 -0.59059,0.43282 -0.74835,0.74835 -0.29935,0.59869 0.29934,1.64638 0,2.24507 -0.15777,0.31553 -0.59059,0.43282 -0.74836,0.74835 -0.29934,0.59868 0.29934,1.64638 0,2.24506 -0.15777,0.31554 -0.59058,0.43283 -0.74835,0.74836 -0.1665,0.333 0.11409,2.65113 0,2.99342 -0.11156,0.33467 -0.59059,0.43283 -0.74836,0.74835 -1.19529,2.39059 1.1953,-0.89387 0,1.49672 -0.15776,0.31551 -0.59058,0.4328 -0.74835,0.74835 -0.22077,0.44153 0.17158,1.73032 0,2.24506 -0.17639,0.52917 -0.57197,0.96753 -0.74836,1.4967 -0.15776,0.47331 0.22312,1.05047 0,1.49672 -0.15776,0.31554 -0.59058,0.43283 -0.74835,0.74835 -0.29934,0.5987 0.29934,1.64639 0,2.24507 -0.15777,0.31554 -0.59059,0.43283 -0.74835,0.74834 -0.11156,0.22313 0,0.49893 0,0.74838 0,0.24945 0,0.4989 0,0.74835 0,0.5149 0.14524,4.05437 0,4.49011 -0.17639,0.52916 -0.57197,0.96755 -0.74836,1.49672 -0.23501,0.70503 0.2426,4.00494 0,4.49014 -0.15777,0.31551 -0.59059,0.4328 -0.74835,0.74834 -0.11156,0.22313 0,0.4989 0,0.74835 0,0.24945 0,0.4989 0,0.74835 0,1.24727 0,2.49452 0,3.74179 0,1.24725 0,2.49452 0,3.74176 0,0.79375 0,0.70297 0,1.49672 0,0.24945 0.24945,0.74835 0,0.74835 -0.92475,0 -0.74836,-1.04947 -0.74836,-1.49672"
       id="path7401"
       inkscape:connector-curvature="0" />
  </g>
</svg>
