<?xml version="1.0" encoding="UTF-8" standalone="no"?>
<!-- Created with Inkscape (http://www.inkscape.org/) -->

<svg
   xmlns:dc="http://purl.org/dc/elements/1.1/"
   xmlns:cc="http://creativecommons.org/ns#"
   xmlns:rdf="http://www.w3.org/1999/02/22-rdf-syntax-ns#"
   xmlns:svg="http://www.w3.org/2000/svg"
   xmlns="http://www.w3.org/2000/svg"
   xmlns:xlink="http://www.w3.org/1999/xlink"
   xmlns:sodipodi="http://sodipodi.sourceforge.net/DTD/sodipodi-0.dtd"
   xmlns:inkscape="http://www.inkscape.org/namespaces/inkscape"
   width="2096"
   height="1144"
   viewBox="0 0 554.56665 302.68332"
   version="1.1"
   id="svg6679"
   inkscape:version="0.92.3 (2405546, 2018-03-11)"
   sodipodi:docname="damba-damba-west.svg">
  <defs
     id="defs6673" />
  <sodipodi:namedview
     id="base"
     pagecolor="#ffffff"
     bordercolor="#666666"
     borderopacity="1.0"
     inkscape:pageopacity="0.0"
     inkscape:pageshadow="2"
     inkscape:zoom="0.35355339"
     inkscape:cx="1268.7539"
     inkscape:cy="600.33495"
     inkscape:document-units="mm"
     inkscape:current-layer="layer1"
     showgrid="false"
     fit-margin-top="0"
     fit-margin-left="0"
     fit-margin-right="0"
     fit-margin-bottom="0"
     units="px"
     inkscape:window-width="1366"
     inkscape:window-height="715"
     inkscape:window-x="0"
     inkscape:window-y="0"
     inkscape:window-maximized="1" />
  <metadata
     id="metadata6676">
    <rdf:RDF>
      <cc:Work
         rdf:about="">
        <dc:format>image/svg+xml</dc:format>
        <dc:type
           rdf:resource="http://purl.org/dc/dcmitype/StillImage" />
        <dc:title></dc:title>
      </cc:Work>
    </rdf:RDF>
  </metadata>
  <g
     inkscape:label="Layer 1"
     inkscape:groupmode="layer"
     id="layer1"
     transform="translate(-1.666421e-4,9.7194934e-5)">
    <image
       sodipodi:absref="/home/aanper/project/luysy-imn-eh/pi/boot/bydefault/web/img/damba.png"
       y="-9.7194934e-05"
       x="0.0001666421"
       id="image7283"
       xlink:href="file:///home/aanper/project/luysy-imn-eh/pi/boot/bydefault/web/img/damba.png"
       preserveAspectRatio="none"
       height="302.68332"
       width="554.56665" />
    <circle
       style="fill:none;fill-opacity:1;stroke:#00ff00;stroke-width:0.30000001;stroke-miterlimit:4;stroke-dasharray:none;stroke-opacity:1;paint-order:stroke fill markers"
       id="path7286"
       cx="472.21198"
       cy="65.454803"
       r="3.7417734" />
    <ellipse
       style="fill:none;fill-opacity:1;stroke:#00ff00;stroke-width:0.30000001;stroke-miterlimit:4;stroke-dasharray:none;stroke-opacity:1;paint-order:stroke fill markers"
       id="path7288"
       cx="313.5314"
       cy="230.31969"
       rx="1.0583333"
       ry="0.92604166" />
    <circle
       style="fill:none;fill-opacity:1;stroke:#00ff00;stroke-width:0.30000001;stroke-miterlimit:4;stroke-dasharray:none;stroke-opacity:1;paint-order:stroke fill markers"
       id="path7290"
       cx="367.50641"
       cy="260.61447"
       r="0.79374999" />
    <path
       style="fill:none;fill-opacity:1;stroke:#00ff00;stroke-width:0.30000001;stroke-miterlimit:4;stroke-dasharray:none;stroke-opacity:1;paint-order:stroke fill markers"
       d="m 474.45703,68.448221 c -1.74617,0 -3.49232,0 -5.23849,0 -0.24945,0 -0.4989,0 -0.74835,0 -0.24945,0 -0.52525,-0.111556 -0.74837,0 -0.31552,0.157769 -0.43281,0.59059 -0.74835,0.748356 -0.45442,0.227208 -4.03571,-0.227208 -4.49011,0 -0.31554,0.157768 -0.43283,0.590587 -0.74837,0.748355 -0.4852,0.242597 -3.78508,-0.235013 -4.49011,0 -0.52917,0.17639 -0.96756,0.571966 -1.49673,0.748356 -0.60235,0.200781 -2.5152,-0.239109 -2.99341,0 -0.31554,0.157765 -0.43283,0.590587 -0.74835,0.748353 -0.47212,0.236058 -3.26967,-0.236056 -3.74179,0 -0.31552,0.157768 -0.43281,0.590589 -0.74835,0.748355 -0.22775,0.113874 -1.90804,0 -2.24507,0 -1.74614,0 -3.49231,0 -5.23848,0 -0.33703,0 -2.01732,-0.113874 -2.24504,0 -0.31555,0.157766 -0.43284,0.590587 -0.74838,0.748355 -0.19941,0.09972 -4.15158,0 -4.49011,0 -0.24945,0 -0.52525,-0.111559 -0.74837,0 -0.31552,0.157766 -0.41368,0.636797 -0.74835,0.748353 -1.0218,0.340601 -3.46832,-0.340598 -4.49011,0 -0.3347,0.111559 -0.43283,0.59059 -0.74838,0.748356 -0.47035,0.23518 -2.52306,-0.235178 -2.99341,0 -0.31555,0.157768 -0.43281,0.590587 -0.74835,0.748355 -0.5987,0.299342 -1.64637,-0.299342 -2.24507,0 -0.31554,0.157766 -0.4328,0.590587 -0.74835,0.748355 -0.5987,0.299342 -1.64639,-0.299344 -2.24507,0 -0.31554,0.157766 -0.41367,0.636797 -0.74834,0.748353 -0.50911,0.169704 -3.34497,-0.198403 -3.74179,0 -0.31552,0.157769 -0.43281,0.590587 -0.74835,0.748356 -0.59867,0.299341 -1.64637,-0.299342 -2.24507,0 -0.31552,0.157765 -0.43281,0.590587 -0.74835,0.748355 -0.47035,0.235178 -2.52306,-0.23518 -2.99341,0 -0.31555,0.157766 -0.43284,0.590587 -0.74835,0.748353 -0.47212,0.236058 -3.26967,-0.236056 -3.74179,0 -0.31552,0.157768 -0.43281,0.59059 -0.74835,0.748355 -0.44622,0.223118 -1.05047,-0.223115 -1.49672,0 -0.31552,0.157769 -0.43281,0.590587 -0.74835,0.748356 -0.22312,0.111559 -0.4989,0 -0.74835,0 -0.49889,0 -1.0234,-0.157769 -1.49672,0 -0.33467,0.111559 -0.4328,0.590587 -0.74834,0.748355 -0.44622,0.223115 -1.05048,-0.223118 -1.4967,0 -0.31554,0.157766 -0.43283,0.590587 -0.74837,0.748353 -0.59868,0.299342 -1.64637,-0.299342 -2.24505,0 -0.31554,0.157768 -0.43283,0.590587 -0.74837,0.748355 -0.59867,0.299342 -1.64637,-0.299341 -2.24507,0 -0.31551,0.157766 -0.4328,0.590587 -0.74835,0.748356 -0.44622,0.223115 -1.0234,-0.157769 -1.49669,0 -0.52917,0.176387 -0.96756,0.571965 -1.49672,0.748353 -0.63006,0.210021 -3.29624,-0.222772 -3.74177,0 -0.31554,0.157768 -0.43283,0.590589 -0.74837,0.748355 -0.22088,0.11044 -4.46752,0 -5.23846,0 -0.24948,0 -0.49892,0 -0.74837,0 -0.24945,0 -0.52523,-0.111559 -0.74835,0 -0.31554,0.157768 -0.43283,0.590587 -0.74835,0.748355 -0.47212,0.236056 -3.26967,-0.236058 -3.74179,0 -0.31551,0.157766 -0.4328,0.590587 -0.74835,0.748356 -0.27061,0.135313 -3.22125,0 -3.74176,0 -0.53044,0 -4.29665,-0.09674 -4.49014,0 -0.31554,0.157766 -0.41367,0.636796 -0.74835,0.748353 -0.70995,0.236651 -1.49672,0 -2.24506,0 -1.99562,0 -3.99122,0 -5.98684,0 -1.74617,0 -3.49231,0 -5.23848,0 -0.4989,0 -0.9978,0 -1.49672,0 -0.24945,0 -0.51171,-0.07888 -0.74835,0 -0.52917,0.176389 -0.96753,0.571965 -1.4967,0.748355 -0.23667,0.07888 -0.49892,0 -0.74837,0 -0.50678,0 -4.89754,-0.113641 -5.23849,0 -0.33467,0.111559 -0.41367,0.636797 -0.74834,0.748356 -0.20662,0.06887 -4.43545,0.02734 -4.49012,0 -0.31554,-0.157769 -0.4137,-0.636797 -0.74837,-0.748356 -0.34256,-0.114189 -3.32407,0 -3.74176,0 -2.99342,0 -5.98684,0 -8.98025,0 -2.74397,0 -5.48794,0 -8.2319,0 -0.73518,0 -3.99519,-0.164986 -4.49014,0 -0.52917,0.17639 -0.96753,0.571966 -1.4967,0.748356 -0.23667,0.07888 -0.49892,0 -0.74837,0 -0.73515,0 -3.99516,-0.164987 -4.49011,0 -0.52917,0.176387 -0.9556,0.613068 -1.49672,0.748352 -0.5691,0.142275 -3.1151,0 -3.74177,0 -0.4989,0 -1.01272,-0.121002 -1.49672,0 -0.54112,0.135284 -0.96753,0.571966 -1.49669,0.748356 -0.23667,0.07888 -0.49893,0 -0.74838,0 -0.50678,0 -4.89754,-0.113641 -5.23848,0 -0.33467,0.111559 -0.43281,0.590587 -0.74835,0.748355 -0.22752,0.113763 -2.47666,0 -2.99342,0 -2.49452,0 -4.98903,0 -7.48355,0 -2.99342,0 -5.98683,0 -8.98025,0 -0.535,0 -4.10705,-0.127693 -4.49013,0 -0.33467,0.111556 -0.43281,0.590587 -0.74835,0.748353 -0.44623,0.223118 -1.02341,-0.157766 -1.49671,0 -0.52917,0.17639 -0.96754,0.571968 -1.49671,0.748355 -0.23665,0.07888 -0.52524,-0.111559 -0.74835,0 -0.31554,0.157769 -0.41368,0.636797 -0.74836,0.748356 -0.4733,0.157766 -0.9978,0 -1.49671,0 -0.24945,0 -0.52523,-0.111559 -0.74835,0 -0.31554,0.157766 -0.41368,0.636796 -0.74836,0.748355 -0.4733,0.157766 -0.9978,0 -1.49671,0 -0.24945,0 -0.52523,-0.111559 -0.74835,0 -0.31553,0.157766 -0.41368,0.636797 -0.74835,0.748353 -0.47331,0.157768 -0.99781,0 -1.49671,0 -0.24946,0 -0.52524,-0.111556 -0.74836,0 -0.31553,0.157768 -0.41368,0.636797 -0.74835,0.748355 -0.47331,0.157769 -0.99781,0 -1.49671,0 -0.24946,0 -0.52524,-0.111558 -0.74836,0 -0.31553,0.157769 -0.43282,0.590587 -0.74835,0.748356 -0.22312,0.111556 -0.51171,-0.07888 -0.74836,0 -0.52916,0.176387 -0.96754,0.571966 -1.49671,0.748353 -0.4733,0.157768 -1.05047,-0.223116 -1.49671,0 -0.31553,0.157768 -0.43281,0.590589 -0.74835,0.748355 -0.44623,0.223118 -1.05048,-0.223115 -1.49671,0 -0.31553,0.157768 -0.43282,0.590587 -0.74835,0.748355 -0.22312,0.111559 -0.52524,-0.111558 -0.74836,0 -0.31553,0.157766 -0.43282,0.590588 -0.74835,0.748356 -0.22312,0.111556 -0.52524,-0.111559 -0.74836,0 -0.63106,0.315534 -0.86564,1.181175 -1.49671,1.496705 -0.22311,0.11156 -0.57196,-0.17639 -0.74835,0 0,1.99561 0.24945,-0.24945 -0.74836,0.74836 -0.17638,0.17639 0.17639,0.57196 0,0.74835 -0.35277,0.35278 -1.14393,-0.35278 -1.49671,0 -0.17639,0.17639 0.17639,0.57197 0,0.74836 -0.17639,0.17639 -0.57196,-0.17639 -0.74835,0 -0.17639,0.17639 0.17639,0.57196 0,0.74835 -0.17639,0.17639 -0.57197,-0.17639 -0.74835,0 -0.17639,0.17639 0.17638,0.57197 0,0.74836 -0.17639,0.17638 -0.57197,-0.17639 -0.74836,0 -0.17639,0.17638 0.17639,0.57196 0,0.74835 -0.17639,0.17639 -0.57197,-0.17639 -0.74836,0 -0.17638,0.17639 0.17639,0.57197 0,0.74836 -0.17638,0.17639 -0.52523,-0.11156 -0.74835,0 -0.89803,0.44901 -1.34704,1.79605 -2.24506,2.24506 -0.22312,0.11156 -0.57197,-0.17639 -0.74836,0 -0.17639,0.17639 0.17639,0.57197 0,0.74835 -0.17639,0.17639 -0.57196,-0.17638 -0.74835,0 -0.17639,0.17639 0.17639,0.57197 0,0.74836 -0.17639,0.17639 -0.57197,-0.17639 -0.74836,0 -0.17638,0.17639 0.17639,0.57197 0,0.74835 -0.17638,0.17639 -0.57196,-0.17638 -0.74835,0 -0.17639,0.17639 0.17639,0.57197 0,0.74836 -0.17639,0.17639 -0.57197,-0.17639 -0.74836,0 -0.17639,0.17639 0.11156,0.52524 0,0.74835 -0.31553,0.63107 -1.18117,0.86564 -1.49671,1.49671 -0.11155,0.22312 0,0.49891 0,0.74836 -0.24945,0.24945 -0.59058,0.43282 -0.74835,0.74835 -0.22312,0.44623 0.35278,1.14393 0,1.49671 -0.17639,0.17639 -0.57197,-0.17639 -0.74836,0 -0.35277,0.35278 0.22312,1.05048 0,1.49671 -0.15776,0.31553 -0.59058,0.43282 -0.74835,0.74835 -0.22312,0.44624 0.22312,1.05048 0,1.49672 -0.15777,0.31553 -0.59059,0.43281 -0.74835,0.74835 -0.0984,0.19677 0,2.60209 0,2.99342 0,0.33702 -0.11388,2.01731 0,2.24506 0.15776,0.31554 0.59058,0.43282 0.74835,0.74836 0.11156,0.22311 -0.17639,0.57196 0,0.74835 0.17639,0.17639 0.4989,0 0.74835,0 0,0.24945 -0.17638,0.57197 0,0.74835 0.17639,0.17639 0.57197,-0.17638 0.74836,0 0.17639,0.17639 -0.17639,0.57197 0,0.74836 0.17639,0.17639 0.57197,-0.17639 0.74835,0 0.17639,0.17639 -0.17638,0.57197 0,0.74836 0.35278,0.35277 1.14394,-0.35278 1.49671,0 0.17639,0.17638 -0.17639,0.57196 0,0.74835 0.17639,0.17639 0.52524,-0.11156 0.74836,0 0.31553,0.15777 0.43282,0.59059 0.74835,0.74835 0.22312,0.11156 0.57197,-0.17638 0.74836,0 0.17639,0.17639 -0.17639,0.57197 0,0.74836 0.35277,0.35278 1.05048,-0.22312 1.49671,0 0.31553,0.15777 0.43282,0.59059 0.74835,0.74835 0.40598,0.20299 2.78865,-0.20476 2.99342,0 0.17639,0.17639 -0.17639,0.57197 0,0.74836 0.37418,0.37418 1.87089,-0.37418 2.24506,0 0.17639,0.17639 -0.17639,0.57196 0,0.74835 0.35278,0.35278 1.05048,-0.22311 1.49671,0 0.31554,0.15777 0.43282,0.59059 0.74836,0.74836 0.47036,0.23518 2.52306,-0.23518 2.99342,0 0.31553,0.15776 0.43282,0.59059 0.74835,0.74835 0.44624,0.22312 1.05048,-0.22311 1.49671,0 0.31553,0.15777 0.43282,0.59059 0.74836,0.74836 0.44623,0.22311 1.05047,-0.22312 1.4967,0 0.31554,0.15777 0.43283,0.59058 0.74836,0.74835 0.59868,0.29934 1.64638,-0.29934 2.24506,0 0.31554,0.15777 0.43282,0.59059 0.74836,0.74836 0.47036,0.23518 2.52306,-0.23518 2.99342,0 0.31553,0.15776 0.43282,0.59058 0.74835,0.74835 0.44623,0.22312 1.05048,-0.22311 1.49671,0 0.31554,0.15777 0.43282,0.59059 0.74836,0.74836 0.29671,0.14835 2.09207,-0.15299 2.24506,0 0.17639,0.17639 -0.17639,0.57196 0,0.74835 0.17639,0.17639 0.52524,-0.11156 0.74835,0 3.18745,1.59373 -1.69074,-0.097 1.49671,1.49671 0.22312,0.11156 0.57197,-0.17639 0.74836,0 0.17639,0.17639 -0.17639,0.57196 0,0.74835 0.17639,0.17639 0.52524,-0.11155 0.74835,0 0.31554,0.15777 0.43282,0.59059 0.74836,0.74836 2.78902,1.39451 -1.29231,-1.39451 1.49671,0 0.31553,0.15777 0.43282,0.59059 0.74835,0.74835 0.44623,0.22312 1.05048,-0.22311 1.49671,0 0.31554,0.15777 0.43282,0.59059 0.74835,0.74836 0.22312,0.11156 0.49891,0 0.74836,0 0.24945,0 0.52524,-0.11156 0.74836,0 0.31553,0.15776 0.43281,0.59059 0.74835,0.74835 0.44623,0.22312 1.05048,-0.22311 1.49671,0 0.31553,0.15777 0.43282,0.59059 0.74835,0.74836 0.44624,0.22311 1.05048,-0.22312 1.49671,0 0.31554,0.15777 0.43282,0.59059 0.74836,0.74835 0.44622,0.22312 1.05047,-0.22311 1.49672,0 0.31552,0.15777 0.43281,0.59059 0.74835,0.74836 0.2967,0.14835 2.09206,-0.153 2.24507,0 0.17637,0.17638 -0.1764,0.57196 0,0.74835 0.18007,0.18008 2.81334,-0.18008 2.99341,0 0.17637,0.17639 -0.1764,0.57197 0,0.74836 0.17637,0.17639 0.52523,-0.11156 0.74835,0 0.31554,0.15776 0.43283,0.59058 0.74835,0.74835 0.44624,0.22312 1.14392,-0.35278 1.49672,0 0.17637,0.17639 -0.1764,0.57197 0,0.74836 0.37417,0.37417 1.87087,-0.37418 2.24507,0 0.17637,0.17638 -0.1764,0.57196 0,0.74835 0.0241,0.0241 2.06356,0 2.24504,0 1.75503,0 -0.35277,-0.17639 1.49672,0.74835 0.27062,0.13532 3.22125,0 3.74177,0 0.24944,0 0.57197,-0.17639 0.74837,0 0.17637,0.17639 -0.1764,0.57197 0,0.74836 0.35277,0.35278 1.14393,-0.35278 1.49669,0 0.1764,0.17639 -0.17639,0.57197 0,0.74835 0.1764,0.17639 0.57198,-0.17638 0.74835,0 0.1764,0.17639 -0.17637,0.57197 0,0.74836 0.1764,0.17639 0.57198,-0.17639 0.74838,0 0.17637,0.17639 -0.1764,0.57196 0,0.74835 0.17637,0.17639 0.52522,-0.11156 0.74834,0 0.31555,0.15777 0.43281,0.59059 0.74835,0.74836 0.22312,0.11156 0.57198,-0.17639 0.74835,0 0.1764,0.17639 -0.17637,0.57196 0,0.74835 0.1764,0.17639 0.57197,-0.17639 0.74837,0 0.17637,0.17639 -0.1764,0.57197 0,0.74836 0.17637,0.17639 0.57195,-0.17639 0.74835,0 0.1764,0.17639 -0.1764,0.57196 0,0.74835 0.1764,0.17639 0.57198,-0.17639 0.74835,0 0.1764,0.17639 -0.17637,0.57197 0,0.74836 0.1764,0.17639 0.57197,-0.17639 0.74837,0 0.17637,0.17639 -0.1764,0.57196 0,0.74835 0.17637,0.17639 0.57195,-0.17639 0.74835,0 0.17637,0.17639 -0.1764,0.57197 0,0.74836 0.17637,0.17639 0.52522,-0.11156 0.74835,0 0.63105,0.31553 0.86563,1.18117 1.49672,1.4967 0.22309,0.11156 0.57195,-0.17638 0.74835,0 0.17639,0.17639 -0.1764,0.57197 0,0.74836 0.17639,0.17639 0.49889,0 0.74834,0 0,0.24945 -0.17637,0.57197 0,0.74836 0.3528,0.35277 1.14393,-0.35278 1.49672,0 0.17638,0.17638 -0.17639,0.57196 0,0.74835 0.35277,0.35278 1.05048,-0.22312 1.4967,0 0.63108,0.31553 0.86564,1.18118 1.49672,1.49671 0.22312,0.11156 0.52523,-0.11156 0.74835,0 0.31554,0.15776 0.43283,0.59059 0.74835,0.74835 0.22312,0.11156 0.52525,-0.11155 0.74837,0 0.31552,0.15777 0.43281,0.59059 0.74835,0.74836 0.22312,0.11156 0.52522,-0.11156 0.74834,0 0.31555,0.15777 0.43284,0.59059 0.74835,0.74835 0.44625,0.22312 1.14395,-0.35277 1.49672,0 0.1764,0.17639 -0.17639,0.57197 0,0.74836 0.1764,0.17639 0.52523,-0.11156 0.74835,0 0.31554,0.15776 0.43283,0.59059 0.74838,0.74835 0.22309,0.11156 0.57194,-0.17639 0.74834,0 0.17637,0.17639 -0.1764,0.57197 0,0.74836 0.17637,0.17639 0.52523,-0.11156 0.74835,0 0.31554,0.15776 0.43283,0.59058 0.74835,0.74835 0.22312,0.11156 0.57197,-0.17639 0.74837,0 0.17637,0.17639 -0.1764,0.57197 0,0.74836 0.17637,0.17638 0.52523,-0.11156 0.74835,0 0.31554,0.15776 0.4328,0.59058 0.74835,0.74835 0.22312,0.11156 0.57197,-0.17639 0.74834,0 0.1764,0.17639 -0.17637,0.57197 0,0.74836 0.1764,0.17639 0.57198,-0.17639 0.74838,0 0.17637,0.17639 -0.1764,0.57196 0,0.74835 0.35277,0.35278 1.14392,-0.35278 1.49669,0 0.1764,0.17639 -0.11155,0.52524 0,0.74835 0.31554,0.63107 1.18118,0.86565 1.49672,1.49671 0.11155,0.22312 -0.17639,0.57197 0,0.74836 0.17638,0.17639 0.57195,-0.17639 0.74835,0 0.0339,0.0339 0,3.38892 0,3.74177 0,0.24945 0,0.49891 0,0.74836 0,0.24945 0.1764,0.57196 0,0.74835 -0.1764,0.17639 -0.57197,-0.17639 -0.74835,0 -0.18007,0.18008 0.18008,2.81334 0,2.99342 -0.17639,0.17639 -0.57197,-0.17639 -0.74837,0 -0.37417,0.37418 0.3742,1.87089 0,2.24506 -0.17637,0.17639 -0.57195,-0.17638 -0.74835,0 -0.35277,0.35278 0.22313,1.05048 0,1.49671 -0.15777,0.31554 -0.59057,0.43282 -0.74834,0.74836 -0.11155,0.22311 0.11154,0.52524 0,0.74835 -0.15778,0.31554 -0.59058,0.43282 -0.74835,0.74836 -0.11158,0.22311 0.11155,0.52523 0,0.74835 -0.31554,0.63107 -1.18118,0.86564 -1.49672,1.49671 -0.11155,0.22312 0.17639,0.57197 0,0.74836 -0.1764,0.17639 -0.57195,-0.17639 -0.74835,0 -0.1764,0.17639 0.11155,0.52523 0,0.74835 -0.15777,0.31554 -0.5906,0.43282 -0.74835,0.74835 -0.11157,0.22312 0.17637,0.57197 0,0.74836 -0.1764,0.17639 -0.57197,-0.17639 -0.74837,0 -0.17637,0.17639 0.11157,0.52524 0,0.74836 -0.15777,0.31553 -0.59058,0.43281 -0.74835,0.74835 -0.11155,0.22312 0.11155,0.52524 0,0.74835 -0.15777,0.31554 -0.59058,0.43282 -0.74835,0.74836 -0.11157,0.22311 0.17637,0.57196 0,0.74835 -0.1764,0.17639 -0.57197,-0.17639 -0.74834,0 -0.3528,0.35278 0.35276,1.14394 0,1.49671 -0.1764,0.17639 -0.57198,-0.17639 -0.74838,0 -0.17637,0.17639 0.1764,0.57197 0,0.74836 -0.17637,0.17639 -0.57195,-0.17639 -0.74835,0 -0.17639,0.17639 0.11155,0.52524 0,0.74835 -0.15777,0.31554 -0.59057,0.43282 -0.74834,0.74836 -0.11158,0.22311 0.17637,0.57196 0,0.74835 -0.1764,0.17639 -0.57198,-0.17639 -0.74838,0 -0.17637,0.17639 0.11158,0.52524 0,0.74836 -0.15774,0.31553 -0.59057,0.43282 -0.74835,0.74835 -0.11154,0.22312 0.1764,0.57197 0,0.74836 -0.17639,0.17639 -0.57195,-0.17639 -0.74834,0 -0.1764,0.17639 0.17639,0.57196 0,0.74835 -0.1764,0.17639 -0.57198,-0.17639 -0.74835,0 -0.1764,0.17639 0.17637,0.57197 0,0.74835 -0.1764,0.17639 -0.57198,-0.17638 -0.74837,0 -0.17638,0.17639 0.11157,0.52524 0,0.74836 -0.15778,0.31553 -0.59058,0.43282 -0.74835,0.74835 -0.11155,0.22312 0,0.49891 0,0.74836 -0.24945,0.24945 -0.59058,0.43282 -0.74835,0.74835 -0.22312,0.44624 0.35277,1.14393 0,1.49671 -0.99782,0.99781 -0.74835,-1.24726 -0.74835,0.74836 0,0.27482 -0.0301,2.9633 0,2.99342 0.17637,0.17639 0.57195,-0.17639 0.74835,0 0.17637,0.17639 -0.11157,0.52524 0,0.74835 0.15777,0.31553 0.59058,0.43282 0.74835,0.74836 0.11155,0.22311 -0.1764,0.57196 0,0.74835 0.1764,0.17639 0.52525,-0.11156 0.74835,0 0.63108,0.31553 0.86563,1.18118 1.49672,1.49671 0.22312,0.11156 0.57195,-0.17639 0.74834,0 0.1764,0.17639 -0.17639,0.57197 0,0.74835 0.1764,0.17639 0.52526,-0.11155 0.74835,0 0.31554,0.15777 0.43283,0.59059 0.74838,0.74836 0.44622,0.22312 1.05047,-0.22312 1.49669,0 0.31554,0.15777 0.43283,0.59059 0.74838,0.74835 0.44621,0.22312 1.14392,-0.35277 1.49669,0 0.1764,0.17639 -0.1764,0.57197 0,0.74836 0.35277,0.35278 1.14393,-0.35278 1.49672,0 0.17637,0.17639 -0.1764,0.57196 0,0.74835 0.17637,0.17639 0.57195,-0.17639 0.74835,0 0.1764,0.17639 -0.1764,0.57197 0,0.74836 0.1764,0.17639 0.57195,-0.17639 0.74835,0 0.17639,0.17639 -0.11155,0.52523 0,0.74835 0.15777,0.31554 0.5906,0.43282 0.74834,0.74836 0.11158,0.22311 -0.17637,0.57196 0,0.74835 0.1764,0.17639 0.57198,0.17639 0.74838,0 0.17637,-0.17639 0,-0.4989 0,-0.74835"
       id="path7338"
       inkscape:connector-curvature="0" />
  </g>
</svg>
