<?xml version="1.0" encoding="UTF-8" standalone="no"?>
<!-- Created with Inkscape (http://www.inkscape.org/) -->

<svg
   xmlns:dc="http://purl.org/dc/elements/1.1/"
   xmlns:cc="http://creativecommons.org/ns#"
   xmlns:rdf="http://www.w3.org/1999/02/22-rdf-syntax-ns#"
   xmlns:svg="http://www.w3.org/2000/svg"
   xmlns="http://www.w3.org/2000/svg"
   xmlns:xlink="http://www.w3.org/1999/xlink"
   xmlns:sodipodi="http://sodipodi.sourceforge.net/DTD/sodipodi-0.dtd"
   xmlns:inkscape="http://www.inkscape.org/namespaces/inkscape"
   width="1865.3333"
   height="566.66669"
   viewBox="0 0 493.5361 149.93056"
   version="1.1"
   id="svg5943"
   inkscape:version="0.92.3 (2405546, 2018-03-11)"
   sodipodi:docname="krasnenkaya-avtovo-k.svg">
  <defs
     id="defs5937" />
  <sodipodi:namedview
     id="base"
     pagecolor="#ffffff"
     bordercolor="#666666"
     borderopacity="1.0"
     inkscape:pageopacity="0.0"
     inkscape:pageshadow="2"
     inkscape:zoom="0.7"
     inkscape:cx="1433.4592"
     inkscape:cy="409.07142"
     inkscape:document-units="mm"
     inkscape:current-layer="layer1"
     showgrid="false"
     fit-margin-top="0"
     fit-margin-left="0"
     fit-margin-right="0"
     fit-margin-bottom="0"
     units="px"
     inkscape:window-width="1366"
     inkscape:window-height="715"
     inkscape:window-x="0"
     inkscape:window-y="0"
     inkscape:window-maximized="1" />
  <metadata
     id="metadata5940">
    <rdf:RDF>
      <cc:Work
         rdf:about="">
        <dc:format>image/svg+xml</dc:format>
        <dc:type
           rdf:resource="http://purl.org/dc/dcmitype/StillImage" />
        <dc:title></dc:title>
      </cc:Work>
    </rdf:RDF>
  </metadata>
  <g
     inkscape:label="Layer 1"
     inkscape:groupmode="layer"
     id="layer1"
     transform="translate(0.15595132,0.0017341)">
    <image
       sodipodi:absref="/home/aanper/project/luysy-imn-eh/pi/boot/bydefault/web/img/krasnenkaya.png"
       xlink:href="/home/aanper/project/luysy-imn-eh/pi/boot/bydefault/web/img/krasnenkaya.png"
       width="493.5361"
       height="149.93056"
       preserveAspectRatio="none"
       id="image6547"
       x="-0.15595132"
       y="-0.001734099" />
    <ellipse
       style="fill:none;fill-opacity:1;stroke:#00ff00;stroke-width:0.30000001;stroke-miterlimit:4;stroke-dasharray:none;stroke-opacity:1;paint-order:stroke fill markers"
       id="path6550"
       cx="294.28751"
       cy="104.76067"
       rx="2.2678571"
       ry="2.0788691" />
    <circle
       style="fill:none;fill-opacity:1;stroke:#00ff00;stroke-width:0.30000001;stroke-miterlimit:4;stroke-dasharray:none;stroke-opacity:1;paint-order:stroke fill markers"
       id="path6552"
       cx="409.43457"
       cy="111.70928"
       r="1.0690781" />
    <ellipse
       style="fill:none;fill-opacity:1;stroke:#00ff00;stroke-width:0.30000001;stroke-miterlimit:4;stroke-dasharray:none;stroke-opacity:1;paint-order:stroke fill markers"
       id="path6554"
       cx="485.53958"
       cy="63.133045"
       rx="1.1358955"
       ry="1.2695302" />
    <path
       style="fill:none;fill-opacity:1;stroke:#00ff00;stroke-width:0.30000001;stroke-miterlimit:4;stroke-dasharray:none;stroke-opacity:1;paint-order:stroke fill markers"
       d="m 486.29939,65.26216 c 2.28156,-0.193159 -0.0763,1.435608 0.37799,1.889879 0.0891,0.08909 0.28889,-0.08909 0.37798,0 0.0891,0.08909 0,0.251984 0,0.377979 0,0.125992 0,0.251984 0,0.377975 0,1.007936 0,2.015871 0,3.02381 0,0.125991 -0.0891,0.288885 0,0.377975 0.0891,0.08909 0.28887,-0.08909 0.37796,0 0.0773,0.07727 -0.0749,0.984065 0,1.133928 0.0797,0.159369 0.29829,0.218609 0.37798,0.377978 0.0564,0.112689 -0.0563,0.265285 0,0.377976 0.0797,0.159369 0.29829,0.218607 0.37798,0.377976 0.0563,0.112691 -0.0564,0.265284 0,0.377976 0.0797,0.159369 0.2983,0.218606 0.37799,0.377975 0.11268,0.225383 -0.1782,0.577774 0,0.755952 0.0891,0.08909 0.28887,-0.08909 0.37796,0 0.17819,0.178181 -0.17817,0.577773 0,0.755954 0.0891,0.08909 0.28889,-0.08909 0.37798,0 0.17817,0.178179 -0.11269,0.530569 0,0.755952 0.0797,0.159369 0.29829,0.218607 0.37798,0.377976 0.10253,0.205047 -0.10342,1.408483 0,1.511906 0.0891,0.08909 0.28888,-0.08909 0.37796,0 0.0891,0.08909 0,0.251984 0,0.377975 0,0.125992 0,0.251984 0,0.377976 0,0.62996 0,1.25992 0,1.889882 0,0.125992 0.0891,0.288885 0,0.377976 -0.0891,0.08909 -0.28887,-0.08909 -0.37796,0 -0.091,0.09095 0.0909,1.420952 0,1.511903 -0.0891,0.08909 -0.2889,-0.08909 -0.37798,0 -0.0891,0.08909 0.0564,0.265287 0,0.377978 -0.0797,0.159367 -0.29829,0.218607 -0.37798,0.377976 -0.11269,0.22538 0.17819,0.577771 0,0.755952 -0.0891,0.08909 -0.28888,-0.08909 -0.37796,0 -0.0891,0.08909 0.0891,0.288885 0,0.377976 -0.0891,0.08909 -0.2889,-0.08909 -0.37799,0 -0.0891,0.08909 0.0891,0.288888 0,0.377975 -0.0891,0.08909 -0.28889,-0.08909 -0.37798,0 -0.0891,0.08909 0.0891,0.288888 0,0.377976 -0.0891,0.08909 -0.28887,-0.08909 -0.37798,0 -0.0891,0.08909 0.0891,0.288888 0,0.377979 -0.0891,0.08909 -0.28888,-0.08909 -0.37796,0 -0.0891,0.08909 0.0891,0.288885 0,0.377976 -0.0891,0.08909 -0.2653,-0.05635 -0.37798,0 -0.15936,0.07968 -0.2186,0.298291 -0.37799,0.377975 -0.22537,0.112692 -0.53057,-0.112691 -0.75594,0 -0.15938,0.07968 -0.2186,0.298292 -0.37798,0.377976 -0.22537,0.112691 -0.53057,-0.112691 -0.75594,0 -0.15939,0.07969 -0.21863,0.298291 -0.37799,0.377976 -0.22537,0.112691 -0.57777,-0.178178 -0.75594,0 -0.0891,0.08909 0.0891,0.288888 0,0.377976 -0.0773,0.07727 -0.98406,-0.07493 -1.13395,0 -0.15936,0.07968 -0.2186,0.298291 -0.37796,0.377976 -0.22952,0.114757 -2.03835,-0.114758 -2.26787,0 -0.15936,0.07968 -0.2186,0.298293 -0.37796,0.377978 -0.11269,0.05634 -0.25199,0 -0.37798,0 -0.126,0 -0.25199,0 -0.37799,0 -0.75594,0 -1.51191,0 -2.26785,0 -0.17023,0 -1.01891,-0.05752 -1.13392,0 -0.93414,0.467064 0.13046,0.377976 -0.75597,0.377976 -0.1388,0 -1.49669,-0.01521 -1.51188,0 -0.0891,0.08909 0.0891,0.288885 0,0.377976 -0.1782,0.178178 -0.53057,-0.112692 -0.75597,0 -0.15936,0.07968 -0.2186,0.298291 -0.37798,0.377975 -0.11269,0.05635 -0.26527,-0.05635 -0.37796,0 -0.15939,0.07968 -0.21863,0.298292 -0.37798,0.377976 -0.11269,0.05635 -0.2653,-0.05634 -0.37799,0 -0.15936,0.07969 -0.2186,0.298292 -0.37795,0.377976 -0.11272,0.05635 -0.2889,-0.08909 -0.37799,0 -0.0891,0.08909 0.0891,0.288888 0,0.377976 -0.0891,0.08909 -0.2653,-0.05634 -0.37798,0 -0.15936,0.07968 -0.2186,0.298294 -0.37799,0.377978 -0.11268,0.05634 -0.26527,-0.05635 -0.37795,0 -0.45358,0.226785 -0.68038,0.907143 -1.13393,1.133928 -0.11271,0.05635 -0.2889,-0.08909 -0.37798,0 -0.0891,0.08909 0.0891,0.288885 0,0.377976 -0.17817,0.178181 -0.53057,-0.112692 -0.75597,0 -0.15936,0.07968 -0.2186,0.298291 -0.37796,0.377975 -0.11268,0.05635 -0.2889,-0.08909 -0.37798,0 -0.0891,0.08909 0.0891,0.288888 0,0.377976 -0.17817,0.178181 -0.57777,-0.178178 -0.75594,0 -0.0891,0.08909 0.0891,0.288888 0,0.377979 -0.1782,0.178178 -0.57777,-0.178181 -0.75597,0 -0.0891,0.08909 0.0891,0.288885 0,0.377975 -0.25241,0.252421 -0.50353,-0.252423 -0.75594,0 -0.0891,0.08909 0.0891,0.288886 0,0.377976 -0.1782,0.178179 -0.53057,-0.112691 -0.75597,0 -0.15936,0.07968 -0.2186,0.298291 -0.37795,0.377976 -0.2254,0.112691 -0.57778,-0.178181 -0.75597,0 -0.0891,0.08909 0.0891,0.288885 0,0.377976 -0.0891,0.08909 -0.26527,-0.05635 -0.37799,0 -0.15935,0.07968 -0.21859,0.298291 -0.37795,0.377976 -0.11269,0.05634 -0.2653,-0.05635 -0.37799,0 -0.15936,0.07968 -0.25199,0.251984 -0.37798,0.377975 -0.126,0.125992 -0.29829,0.21861 -0.37796,0.377979 -0.0564,0.112689 0.0891,0.288885 0,0.377976 -0.0891,0.08909 -0.2889,-0.08909 -0.37798,0 -0.18899,0.188986 0.18899,0.944941 0,1.133927 -0.0891,0.08909 -0.2889,-0.08909 -0.37799,0 -0.0172,0.01714 0,1.711666 0,1.889883 0,0.12599 0,0.25198 0,0.37797 0,0.126 0.0891,0.28889 0,0.37798 -0.0891,0.0891 -0.28887,-0.0891 -0.37798,0 -0.0891,0.0891 0.0891,0.28889 0,0.37798 -0.0891,0.0891 -0.28887,-0.0891 -0.37796,0 -0.0891,0.0891 0.0891,0.28888 0,0.37797 -0.0891,0.0891 -0.2889,-0.0891 -0.37798,0 -0.0891,0.0891 0.0891,0.28889 0,0.37798 -0.17817,0.17818 -0.53057,-0.11269 -0.75594,0 -0.15939,0.0797 -0.21863,0.29829 -0.37799,0.37798 -0.22537,0.11269 -0.53056,-0.11269 -0.75596,0 -0.15936,0.0797 -0.2186,0.29829 -0.37796,0.37797 -0.2254,0.11269 -0.57777,-0.17818 -0.75597,0 -0.0891,0.0891 0.0891,0.28889 0,0.37798 -0.0909,0.0909 -1.42094,-0.091 -1.51191,0 -0.0891,0.0891 0.0891,0.28888 0,0.37797 -0.0122,0.0122 -1.04224,0 -1.13392,0 -1.88987,0 -3.77976,0 -5.66962,0 -1.7639,0 -3.5278,0 -5.29167,0 -0.126,0 -0.25199,0 -0.37798,0 -0.126,0 -0.2889,-0.0891 -0.37799,0 -0.50395,0.50397 0.62997,0.37798 -0.37798,0.37798 -0.17021,0 -1.01889,0.0575 -1.13393,0 -0.15936,-0.0797 -0.2186,-0.29829 -0.37795,-0.37798 -0.13671,-0.0683 -1.62701,0 -1.8899,0 -0.88193,0 -1.76389,0 -2.64583,0 -0.12599,0 -0.2889,0.0891 -0.37798,0 -0.0891,-0.0891 0.0891,-0.28888 0,-0.37797 -0.0122,-0.0122 -1.04225,0 -1.13393,0 -1.6379,0 -3.27578,0 -4.91368,0 -0.26289,0 -1.75321,-0.0684 -1.88989,0 -0.15936,0.0797 -0.2186,0.29829 -0.37796,0.37797 -0.11271,0.0564 -0.25199,0 -0.37798,0 -0.75597,0 -1.51191,0 -2.26785,0 -0.126,0 -0.2889,0.0891 -0.37799,0 -0.0891,-0.0891 0.0891,-0.28888 0,-0.37797 -0.11705,-0.11704 -1.77284,0.11704 -1.88989,0 -0.0891,-0.0891 0.0891,-0.28889 0,-0.37798 -0.10343,-0.10342 -1.30686,0.10253 -1.51191,0 -0.15936,-0.0797 -0.2186,-0.29829 -0.37796,-0.37797 -0.11268,-0.0564 -0.25199,0 -0.37798,0 -0.12599,0 -0.25199,0 -0.37798,0 -1.25992,0 -2.51984,0 -3.77976,0 -0.126,0 -0.25199,0 -0.37799,0 -0.12596,0 -0.28887,-0.0891 -0.37795,0 -0.0891,0.0891 0.0891,0.28888 0,0.37797 -0.1782,0.17818 -0.57777,-0.17818 -0.75597,0 -0.0891,0.0891 0.0891,0.28889 0,0.37798 -0.17817,0.17818 -0.57777,-0.17818 -0.75594,0 -0.0891,0.0891 0.0891,0.28888 0,0.37797 -0.17817,0.17818 -0.57777,-0.17817 -0.75597,0 -0.0891,0.0891 0.0891,0.28889 0,0.37798 -0.0891,0.0891 -0.28887,-0.0891 -0.37796,0 0,1.00794 0.126,-0.12599 -0.37798,0.37798 -0.0891,0.0891 0.0891,0.28888 0,0.37797 -0.0891,0.0891 -0.2889,-0.0891 -0.37798,0 -0.0891,0.0891 0.0891,0.28889 0,0.37798 -0.0891,0.0891 -0.28888,-0.0891 -0.37796,0 -0.0891,0.0891 0.0563,0.26528 0,0.37798 -0.0797,0.15936 -0.29829,0.2186 -0.37798,0.37797 -0.0564,0.11269 0.0891,0.28889 0,0.37798 -0.0891,0.0891 -0.2889,-0.0891 -0.37799,0 -0.0891,0.0891 0.0564,0.26528 0,0.37797 -0.0797,0.15937 -0.29829,0.21861 -0.37798,0.37798 -0.0563,0.11269 0,0.25199 0,0.37798 -0.12597,0.12599 -0.29829,0.2186 -0.37796,0.37797 -0.0749,0.14987 0.0773,1.05666 0,1.13393 -0.0891,0.0891 -0.2889,-0.0891 -0.37798,0 -0.0891,0.0891 0,0.25198 0,0.37798 0,0.62996 0,1.25992 0,1.88988 0,0.12599 0,0.25198 0,0.37797 0,0.126 -0.0891,0.28889 0,0.37798 0.0891,0.0891 0.2889,-0.0891 0.37798,0 0.17817,0.17818 -0.11269,0.53057 0,0.75595 0.0797,0.15937 0.29829,0.21861 0.37796,0.37798 0.0564,0.11269 -0.0891,0.28888 0,0.37798 0.0891,0.0891 0.2889,-0.0891 0.37798,0 0.0891,0.0891 -0.0891,0.28888 0,0.37797 0.0891,0.0891 0.2889,0.0891 0.37799,0 0.0891,-0.0891 0,-0.25198 0,-0.37797"
       id="path6558"
       inkscape:connector-curvature="0" />
  </g>
</svg>
