<?xml version="1.0" encoding="UTF-8" standalone="no"?>
<!-- Created with Inkscape (http://www.inkscape.org/) -->

<svg
   xmlns:dc="http://purl.org/dc/elements/1.1/"
   xmlns:cc="http://creativecommons.org/ns#"
   xmlns:rdf="http://www.w3.org/1999/02/22-rdf-syntax-ns#"
   xmlns:svg="http://www.w3.org/2000/svg"
   xmlns="http://www.w3.org/2000/svg"
   xmlns:xlink="http://www.w3.org/1999/xlink"
   xmlns:sodipodi="http://sodipodi.sourceforge.net/DTD/sodipodi-0.dtd"
   xmlns:inkscape="http://www.inkscape.org/namespaces/inkscape"
   width="1865.3333"
   height="566.66669"
   viewBox="0 0 493.5361 149.93056"
   version="1.1"
   id="svg5943"
   inkscape:version="0.92.3 (2405546, 2018-03-11)"
   sodipodi:docname="krasnenkaya-avtovo-younona.svg">
  <defs
     id="defs5937" />
  <sodipodi:namedview
     id="base"
     pagecolor="#ffffff"
     bordercolor="#666666"
     borderopacity="1.0"
     inkscape:pageopacity="0.0"
     inkscape:pageshadow="2"
     inkscape:zoom="0.7"
     inkscape:cx="1433.4592"
     inkscape:cy="409.07142"
     inkscape:document-units="mm"
     inkscape:current-layer="layer1"
     showgrid="false"
     fit-margin-top="0"
     fit-margin-left="0"
     fit-margin-right="0"
     fit-margin-bottom="0"
     units="px"
     inkscape:window-width="1366"
     inkscape:window-height="715"
     inkscape:window-x="0"
     inkscape:window-y="0"
     inkscape:window-maximized="1" />
  <metadata
     id="metadata5940">
    <rdf:RDF>
      <cc:Work
         rdf:about="">
        <dc:format>image/svg+xml</dc:format>
        <dc:type
           rdf:resource="http://purl.org/dc/dcmitype/StillImage" />
        <dc:title></dc:title>
      </cc:Work>
    </rdf:RDF>
  </metadata>
  <g
     inkscape:label="Layer 1"
     inkscape:groupmode="layer"
     id="layer1"
     transform="translate(0.15595132,0.0017341)">
    <image
       sodipodi:absref="/home/aanper/project/luysy-imn-eh/pi/boot/bydefault/web/img/krasnenkaya.png"
       y="-0.001734099"
       x="-0.15595132"
       id="image6547"
       xlink:href="file:///home/aanper/project/luysy-imn-eh/pi/boot/bydefault/web/img/krasnenkaya.png"
       preserveAspectRatio="none"
       height="149.93056"
       width="493.5361" />
    <ellipse
       style="fill:none;fill-opacity:1;stroke:#00ff00;stroke-width:0.30000001;stroke-miterlimit:4;stroke-dasharray:none;stroke-opacity:1;paint-order:stroke fill markers"
       id="path6550"
       cx="294.28751"
       cy="104.76067"
       rx="2.2678571"
       ry="2.0788691" />
    <circle
       style="fill:none;fill-opacity:1;stroke:#00ff00;stroke-width:0.30000001;stroke-miterlimit:4;stroke-dasharray:none;stroke-opacity:1;paint-order:stroke fill markers"
       id="path6552"
       cx="409.43457"
       cy="111.70928"
       r="1.0690781" />
    <ellipse
       style="fill:none;fill-opacity:1;stroke:#00ff00;stroke-width:0.30000001;stroke-miterlimit:4;stroke-dasharray:none;stroke-opacity:1;paint-order:stroke fill markers"
       id="path6554"
       cx="485.53958"
       cy="63.133045"
       rx="1.1358955"
       ry="1.2695302" />
    <path
       style="fill:none;fill-opacity:1;stroke:#00ff00;stroke-width:0.30000001;stroke-miterlimit:4;stroke-dasharray:none;stroke-opacity:1;paint-order:stroke fill markers"
       d="m 484.40953,64.12823 c -0.50398,0.125992 -1.04728,0.145658 -1.51191,0.377976 -0.11269,0.05635 0.0891,0.288888 0,0.377978 -0.0891,0.08909 -0.2889,-0.08909 -0.37799,0 -0.17817,0.178179 0.11269,0.530569 0,0.755952 -0.0797,0.159369 -0.29829,0.218607 -0.37798,0.377976 -0.0563,0.112691 0.0564,0.265284 0,0.377976 -0.0797,0.159369 -0.29829,0.218606 -0.37796,0.377975 -0.15121,0.302382 0.15119,0.831549 0,1.13393 -0.0797,0.15937 -0.29829,0.218607 -0.37798,0.377976 -0.0683,0.136689 0,1.626984 0,1.889882 0,0.62996 0,1.259919 0,1.889879 0,0.125992 0,0.251984 0,0.377976 0,0.125992 -0.0564,0.265287 0,0.377978 0.0797,0.159367 0.29829,0.218607 0.37798,0.377976 0.10253,0.205047 -0.10342,1.40848 0,1.511903 0.0891,0.08909 0.28888,-0.08909 0.37796,0 0.18899,0.188989 -0.18897,0.944941 0,1.13393 0.0891,0.08909 0.2889,-0.08909 0.37798,0 0.10343,0.103423 -0.10252,1.306857 0,1.511904 0.0797,0.159369 0.2983,0.218609 0.37799,0.377975 0.11922,0.238456 -0.11922,1.651429 0,1.889882 0.0797,0.159369 0.29829,0.218607 0.37798,0.377976 0.13052,0.26108 -0.13269,1.757204 0,1.889882 0.0891,0.08909 0.28887,-0.08909 0.37796,0 0.0891,0.08909 0,0.251983 0,0.377975 0,0.125992 0,0.251984 0,0.377976 0,1.259922 0,2.519842 0,3.779764 0,1.007935 0,2.015871 0,3.023809 0,0.125992 0.0891,0.288885 0,0.377975 -0.0891,0.08909 -0.28887,-0.08909 -0.37796,0 -0.091,0.09095 0.0909,1.420953 0,1.511906 -0.0891,0.08909 -0.2889,-0.08909 -0.37798,0 -0.18899,0.188987 0.18899,0.944939 0,1.133928 -0.0891,0.08909 -0.2889,-0.08909 -0.37799,0 -0.0909,0.09095 0.091,1.420952 0,1.511906 -0.0891,0.08909 -0.28887,-0.08909 -0.37798,0 -0.11702,0.117038 0.11705,1.77284 0,1.889879 -0.0891,0.08909 -0.28887,-0.08909 -0.37796,0 -0.18899,0.188989 0.18899,0.944941 0,1.13393 -0.0891,0.08909 -0.2889,-0.08909 -0.37798,0 -0.17817,0.178178 0.17817,0.57777 0,0.755951 -0.0891,0.08909 -0.2889,-0.08909 -0.37798,0 -0.0891,0.08909 0.0564,0.265285 0,0.377976 -0.0797,0.159369 -0.2983,0.218607 -0.37796,0.377976 -0.0564,0.112691 0.0891,0.288888 0,0.377976 -0.0891,0.08909 -0.2889,-0.08909 -0.37799,0 -0.0891,0.08909 0.0563,0.265287 0,0.377978 -0.0797,0.159367 -0.29829,0.218607 -0.37798,0.377976 -0.0563,0.112689 0.0891,0.288885 0,0.377977 -0.0891,0.0891 -0.28887,-0.08909 -0.37798,0 -0.17817,0.17818 0.17819,0.57777 0,0.75595 -0.0891,0.0891 -0.28888,-0.0891 -0.37796,0 -0.0891,0.0891 0.0563,0.26528 0,0.37798 -0.0797,0.15937 -0.29829,0.21861 -0.37798,0.37797 -0.0564,0.11269 0.0891,0.28889 0,0.37798 -0.0891,0.0891 -0.2889,-0.0891 -0.37799,0 -0.0891,0.0891 0.0564,0.26529 0,0.37798 -0.0797,0.15937 -0.29829,0.2186 -0.37796,0.37797 -0.0564,0.11269 0.0891,0.28889 0,0.37798 -0.0891,0.0891 -0.28889,-0.0891 -0.37798,0 -0.17817,0.17818 0.17817,0.57777 0,0.75595 -0.0891,0.0891 -0.2889,-0.0891 -0.37798,0 -0.17817,0.17818 0.17819,0.57777 0,0.75595 -0.0891,0.0891 -0.28887,-0.0891 -0.37799,0 -0.0891,0.0891 0.0891,0.28889 0,0.37798 -0.0891,0.0891 -0.28887,-0.0891 -0.37795,0 -0.1782,0.17818 0.17817,0.57777 0,0.75595 -0.0891,0.0891 -0.2889,-0.0891 -0.37799,0 -0.0891,0.0891 0.0891,0.28889 0,0.37798 -0.0891,0.0891 -0.2889,-0.0891 -0.37798,0 -0.0891,0.0891 0.0564,0.26528 0,0.37797 -0.0797,0.15937 -0.29829,0.21861 -0.37796,0.37798 -0.0564,0.11269 0.0891,0.28889 0,0.37798 -0.0891,0.0891 -0.2889,-0.0891 -0.37798,0 -0.0891,0.0891 0.0891,0.28888 0,0.37797 -0.0891,0.0891 -0.2889,-0.0891 -0.37799,0 -0.0891,0.0891 0.0564,0.26529 0,0.37798 -0.0797,0.15937 -0.29829,0.21861 -0.37798,0.37797 -0.0563,0.1127 0.0891,0.28889 0,0.37798 -0.0891,0.0891 -0.28887,-0.0891 -0.37796,0 -0.0891,0.0891 0.0563,0.26528 0,0.37798 -0.0797,0.15937 -0.29829,0.21861 -0.37798,0.37797 -0.0564,0.11269 0.0564,0.26529 0,0.37798 -0.0797,0.15937 -0.29829,0.21861 -0.37798,0.37798 -0.0563,0.11268 0.0891,0.28888 0,0.37797 -0.0891,0.0891 -0.28888,-0.0891 -0.37796,0 -0.0891,0.0891 0.0563,0.26529 0,0.37798 -0.15939,0.31874 -0.59658,0.43721 -0.75597,0.75595 -0.0563,0.11269 0.0891,0.28889 0,0.37798 -0.0891,0.0891 -0.28887,-0.0891 -0.37798,0 -0.0891,0.0891 0.0564,0.26528 0,0.37797 -0.15936,0.31874 -0.59659,0.43722 -0.75594,0.75596 -0.0564,0.11269 0.0891,0.28888 0,0.37797 -0.0891,0.0891 -0.2889,-0.0891 -0.37799,0 -0.0891,0.0891 0.0564,0.26529 0,0.37798 -0.0797,0.15937 -0.29829,0.2186 -0.37795,0.37797 -0.0564,0.11269 0.0891,0.28889 0,0.37798 -0.0891,0.0891 -0.2889,-0.0891 -0.37799,0 -0.0891,0.0891 0.0563,0.26529 0,0.37798 -0.26974,0.53946 -0.48622,0.21648 -0.75597,0.75595 -0.0563,0.11269 0.0891,0.28888 0,0.37797 -0.0891,0.0891 -0.28887,-0.0891 -0.37795,0 -0.25919,0.25919 0.25918,0.49677 0,0.75596 -0.0891,0.0891 -0.2889,-0.0891 -0.37799,0 -0.0891,0.0891 0.0564,0.26528 0,0.37797 -0.0797,0.15937 -0.29829,0.21861 -0.37798,0.37798 -0.0563,0.11269 0.0891,0.28889 0,0.37798 -0.0891,0.0891 -0.28887,-0.0891 -0.37796,0 -0.1782,0.17817 0.17817,0.57777 0,0.75595 -0.0891,0.0891 -0.2889,-0.0891 -0.37798,0 -0.17817,0.17818 0.11268,0.53057 0,0.75595 -0.0797,0.15937 -0.29829,0.21861 -0.37799,0.37798 -0.0563,0.11269 0.0564,0.26528 0,0.37797 -0.0797,0.15937 -0.29829,0.21861 -0.37798,0.37798 -0.0563,0.11269 0.0564,0.26528 0,0.37798 -0.0797,0.15936 -0.29829,0.2186 -0.37796,0.37797 -0.0564,0.11269 0.0563,0.26529 0,0.37798 -0.0797,0.15937 -0.29829,0.2186 -0.37798,0.37797 -0.0564,0.11269 0.0564,0.26529 0,0.37798 -0.0797,0.15937 -0.29829,0.21861 -0.37798,0.37798 -0.0563,0.11269 0.0564,0.26528 0,0.37797 -0.0797,0.15937 -0.2983,0.21861 -0.37796,0.37798 -0.0564,0.11269 0.0891,0.28888 0,0.37797 -0.0891,0.0891 -0.2889,-0.0891 -0.37799,0 -0.17817,0.17818 0.17818,0.57778 0,0.75596 -0.0891,0.0891 -0.28889,-0.0891 -0.37798,0 -0.0891,0.0891 0.0564,0.26528 0,0.37797 -0.78653,1.57305 0.0262,-0.40407 -0.75594,0.37798 -0.78206,0.78205 1.19507,-0.0306 -0.37798,0.75595 -0.11269,0.0564 -0.2889,-0.0891 -0.37799,0 -0.0891,0.0891 0.0891,0.28889 0,0.37798 -0.0891,0.0891 -0.28887,-0.0891 -0.37795,0 -0.0891,0.0891 0.0891,0.28888 0,0.37797 -0.0891,0.0891 -0.2889,-0.0891 -0.37799,0 -0.0891,0.0891 0.0891,0.28889 0,0.37798 -0.0891,0.0891 -0.2889,-0.0891 -0.37798,0 -0.0891,0.0891 0.0891,0.28889 0,0.37798 -0.0891,0.0891 -0.28887,-0.0891 -0.37799,0 -0.0891,0.0891 0.0891,0.28888 0,0.37797 -0.0891,0.0891 -0.28887,-0.0891 -0.37795,0 -0.78206,0.78205 1.19507,-0.0306 -0.37799,0.75596 -0.11268,0.0563 -0.2889,-0.0891 -0.37798,0 -0.0891,0.0891 0.0891,0.28888 0,0.37797 -0.0891,0.0891 -0.26527,-0.0563 -0.37796,0 -0.15938,0.0797 -0.21862,0.29829 -0.37798,0.37798 -0.11269,0.0563 -0.2889,-0.0891 -0.37799,0 -0.0891,0.0891 0.0891,0.28888 0,0.37797 -0.0891,0.0891 -0.26527,-0.0563 -0.37798,0 -0.15936,0.0797 -0.2186,0.29829 -0.37796,0.37798 -0.11268,0.0563 -0.2889,-0.0891 -0.37798,0 -0.0891,0.0891 0.0891,0.28889 0,0.37798 -0.17817,0.17818 -0.53057,-0.11269 -0.75594,0 -0.15939,0.0797 -0.21863,0.29829 -0.37799,0.37797 -0.13668,0.0683 -1.62697,0 -1.88989,0 -0.12599,0 -0.25199,0 -0.37795,0 -0.126,0 -0.2653,-0.0563 -0.37799,0 -0.15938,0.0797 -0.2186,0.29829 -0.37798,0.37798 -0.0775,0.0388 -1.08061,0.0533 -1.13393,0 -0.0891,-0.0891 0.0891,-0.28889 0,-0.37798 -0.091,-0.091 -1.42094,0.091 -1.51191,0 -0.0891,-0.0891 0.0891,-0.28889 0,-0.37797 -0.17817,-0.17818 -0.57777,0.17818 -0.75594,0 -0.0891,-0.0891 0.0891,-0.28889 0,-0.37798 -0.0891,-0.0891 -0.2889,0.0891 -0.37798,0 -0.0891,-0.0891 0.0891,-0.28889 0,-0.37798 -0.0891,-0.0891 -0.2889,0.0891 -0.37798,0 -0.0891,-0.0891 0.0891,-0.28888 0,-0.37797 -0.0891,-0.0891 -0.28888,0.0891 -0.37796,0 -0.0891,-0.0891 0.0891,-0.28889 0,-0.37798 -0.0891,-0.0891 -0.2653,0.0563 -0.37799,0 -0.10035,-0.0502 -1.08375,-1.03357 -1.13392,-1.13393 -0.0564,-0.11269 0.0891,-0.28888 0,-0.37797 -0.0891,-0.0891 -0.2653,0.0563 -0.37798,0 -0.37195,-0.18597 -1.13996,-1.32594 -1.51191,-1.51191 -0.11269,-0.0563 -0.28887,0.0891 -0.37799,0 -0.0891,-0.0891 0.0891,-0.28889 0,-0.37797 -0.0891,-0.0891 -0.26527,0.0563 -0.37795,0 -0.15939,-0.0797 -0.21863,-0.2983 -0.37799,-0.37798 -0.11268,-0.0563 -0.26529,0.0563 -0.37798,0 -0.15936,-0.0797 -0.2186,-0.29829 -0.37796,-0.37798 -0.11271,-0.0563 -0.25199,0 -0.37798,0 -0.126,0 -0.25199,0 -0.37799,0 -0.75594,0 -1.5119,0 -2.26784,0 -0.62998,0 -1.25992,0 -1.8899,0 -0.12599,0 -0.25199,0 -0.37795,0 -0.126,0 -0.2653,-0.0563 -0.37799,0 -0.15938,0.0797 -0.2186,0.2983 -0.37798,0.37798 -0.11502,0.0575 -0.96369,0 -1.13393,0 -0.88193,0 -1.76389,0 -2.64583,0 -0.19764,0 -1.41253,-0.0497 -1.51191,0 -0.15936,0.0797 -0.2186,0.29829 -0.37798,0.37798 -0.2295,0.11475 -2.03833,-0.11476 -2.26785,0 -0.15936,0.0797 -0.2186,0.29829 -0.37799,0.37797 -0.2295,0.11476 -2.03832,-0.11476 -2.26785,0 -0.15935,0.0797 -0.20894,0.32163 -0.37798,0.37798 -0.29549,0.0985 -2.05983,-0.104 -2.26785,0 -0.15936,0.0797 -0.2186,0.29829 -0.37798,0.37797 -0.11269,0.0564 -0.25196,0 -0.37796,0 -0.27022,0 -2.07439,-0.0645 -2.26788,0 -0.16901,0.0564 -0.21859,0.29829 -0.37795,0.37798 -0.11269,0.0563 -0.25199,0 -0.37799,0 -0.171,0 -2.16712,-0.0504 -2.26785,0 -0.15938,0.0797 -0.20894,0.32163 -0.37798,0.37798 -0.19156,0.0639 -2.33685,0 -2.64583,0 -0.126,0 -0.2653,-0.0564 -0.37799,0 -0.15936,0.0797 -0.2186,0.29829 -0.37795,0.37797 -0.11272,0.0564 -0.25199,0 -0.37799,0 -0.12599,0 -0.25199,0 -0.37798,0 -0.75594,0 -1.51191,0 -2.26785,0 -0.126,0 -0.25199,0 -0.37799,0 -0.12599,0 -0.26527,-0.0563 -0.37798,0 -0.15936,0.0797 -0.2186,0.29829 -0.37796,0.37798 -0.13668,0.0683 -1.627,0 -1.88989,0 -1.51191,0 -3.02382,0 -4.5357,0 -1.6379,0 -3.2758,0 -4.91371,0 -0.75594,0 -1.51191,0 -2.26785,0 -0.17023,0 -1.01891,0.0575 -1.13392,0 -0.15939,-0.0797 -0.2186,-0.29829 -0.37798,-0.37798 -0.23845,-0.11923 -1.65143,0.11923 -1.88987,0 -0.15939,-0.0797 -0.21863,-0.29829 -0.37798,-0.37797 -0.23757,-0.11879 -1.27434,0.11878 -1.51191,0 -0.15936,-0.0797 -0.20894,-0.32164 -0.37799,-0.37798 -0.215,-0.0717 -1.53387,0 -1.88986,0 -0.126,0 -0.25845,0.0398 -0.37799,0 -0.26728,-0.0891 -0.48868,-0.28889 -0.75594,-0.37798 -0.26,-0.0867 -0.91093,0.11151 -1.13395,0 -0.15936,-0.0797 -0.2186,-0.29829 -0.37796,-0.37797 -0.0994,-0.0497 -1.31426,0 -1.5119,0 -0.29546,0 -2.43922,0.0689 -2.64584,0 -0.26728,-0.0891 -0.48868,-0.28889 -0.75597,-0.37798 -0.22008,-0.0734 -2.00776,0 -2.26784,0 -0.88194,0 -1.7639,0 -2.64584,0 -0.25199,0 -0.50395,0 -0.75594,0 -0.12599,0 -0.2653,-0.0563 -0.37798,0 -0.15936,0.0797 -0.2186,0.29829 -0.37799,0.37798 -0.0847,0.0423 -1.42208,0 -1.5119,0 -0.62995,0 -1.25992,0 -1.88987,0 -0.37798,0 -0.77536,-0.11953 -1.13393,0 -0.16904,0.0563 -0.21862,0.29829 -0.37798,0.37797 -0.11269,0.0564 -0.25199,0 -0.37798,0 -0.25199,0 -0.50395,0 -0.75594,0 -0.75597,0 -1.51191,0 -2.26785,0 -0.25199,0 -0.51692,-0.0797 -0.75597,0 -0.16904,0.0564 -0.20894,0.32163 -0.37798,0.37798 -0.23906,0.0797 -0.50396,0 -0.75595,0 -0.88193,0 -1.76389,0 -2.64583,0 -0.62997,0 -1.25992,0 -1.88989,0 -0.25196,0 -0.50395,0 -0.75594,0 -0.126,0 -0.25845,-0.0398 -0.37799,0 -0.26725,0.0891 -0.48262,0.30965 -0.75594,0.37798 -0.24447,0.0611 -0.50398,0 -0.75596,0 -0.62995,0 -1.25992,0 -1.88987,0 -0.126,0 -0.25845,-0.0399 -0.37798,0 -0.26726,0.0891 -0.48869,0.28888 -0.75595,0.37797 -0.11953,0.0398 -0.25198,0 -0.37798,0 -0.25199,0 -0.50398,0 -0.75594,0 -0.62997,0 -1.25992,0 -1.88989,0 -0.26792,0 -2.17014,-0.0489 -2.26785,0 -0.15939,0.0797 -0.21863,0.29829 -0.37799,0.37798 -0.0977,0.0489 -1.99995,0 -2.26785,0 -0.12599,0 -0.26529,-0.0563 -0.37798,0 -0.15936,0.0797 -0.20894,0.32163 -0.37798,0.37798 -0.19156,0.0639 -2.33683,0 -2.64584,0 -0.12599,0 -0.25199,0 -0.37795,0 -0.126,0 -0.2653,-0.0564 -0.37799,0 -0.15938,0.0797 -0.20894,0.32163 -0.37798,0.37797 -0.47265,0.15756 -2.17318,-0.15755 -2.64583,0 -0.16905,0.0563 -0.2186,0.29829 -0.37799,0.37798 -0.11268,0.0563 -0.25196,0 -0.37796,0 -0.29194,0 -2.03726,-0.0769 -2.26787,0 -0.26726,0.0891 -0.48866,0.28888 -0.75594,0.37797 -0.11954,0.0399 -0.25199,0 -0.37799,0 -0.34332,0 -2.40045,-0.0818 -2.64583,0 -0.16902,0.0564 -0.2186,0.29829 -0.37796,0.37798 -0.10636,0.0532 -2.3569,0 -2.64583,0 -0.25199,0 -0.50398,0 -0.75597,0 -0.12599,0 -0.26527,-0.0563 -0.37798,0 -0.15936,0.0797 -0.2186,0.29829 -0.37796,0.37798 -0.22952,0.11475 -2.03835,-0.11476 -2.26787,0 -0.15936,0.0797 -0.2186,0.29829 -0.37796,0.37797 -0.0994,0.0497 -1.31427,0 -1.51191,0 -1.00793,0 -2.01589,0 -3.02382,0 -0.62994,0 -1.25992,0 -1.88986,0 -0.37799,0 -0.77536,0.11953 -1.13395,0 -0.16902,-0.0563 -0.2186,-0.29829 -0.37796,-0.37797 -0.24154,-0.12077 -1.20769,0.10141 -1.51191,0 -0.26728,-0.0891 -0.48869,-0.28889 -0.75597,-0.37798 -0.21325,-0.0711 -0.88553,0 -1.13392,0 -0.62995,0 -1.25992,0 -1.88987,0 -0.12599,0 -0.25199,0 -0.37798,0 -0.126,0 -0.2653,0.0563 -0.37799,0 -0.15935,-0.0797 -0.21859,-0.29829 -0.37795,-0.37798 -0.11504,-0.0575 -0.96372,0 -1.13395,0 -1.21669,0 0.64526,0.0891 -0.75595,-0.37797 -0.20902,-0.0697 -1.88722,0 -2.26784,0 -0.25199,0 -0.50398,0 -0.75597,0 -0.126,0 -0.26527,0.0563 -0.37796,0 -0.15938,-0.0797 -0.21862,-0.29829 -0.37798,-0.37798 -0.23847,-0.11923 -1.65143,0.11923 -1.8899,0 -0.15935,-0.0797 -0.20894,-0.32163 -0.37795,-0.37797 -0.29552,-0.0985 -2.05986,0.10399 -2.26788,0 -0.15936,-0.0797 -0.2186,-0.2983 -0.37796,-0.37798 -0.22539,-0.11269 -0.53057,0.11269 -0.75596,0 -0.15936,-0.0797 -0.2186,-0.29829 -0.37799,-0.37798 -0.30236,-0.15119 -0.83153,0.15119 -1.13392,0 -0.15936,-0.0797 -0.2186,-0.29829 -0.37796,-0.37797 -0.13671,-0.0684 -1.627,0 -1.88989,0 -0.126,0 -0.2889,0.0891 -0.37799,0 -0.0891,-0.0891 0.0891,-0.28889 0,-0.37798 -0.17817,-0.17818 -0.57777,0.17818 -0.75594,0 -0.0891,-0.0891 0.0563,-0.26529 0,-0.37798 -0.0797,-0.15937 -0.29829,-0.2186 -0.37798,-0.37797 -0.11269,-0.22539 0.17817,-0.57778 0,-0.75595 -0.0891,-0.0891 -0.28887,0.0891 -0.37798,0 -0.17817,-0.17818 0.17819,-0.57778 0,-0.75596 -0.0891,-0.0891 -0.28888,0.0891 -0.37796,0 -0.1782,-0.17818 0.11268,-0.53057 0,-0.75595 -0.0797,-0.15937 -0.29829,-0.21861 -0.37799,-0.37798 -0.0749,-0.14986 0.0773,-1.05665 0,-1.13392 -0.0891,-0.0891 -0.28889,0.0891 -0.37798,0 -0.0891,-0.0891 0,-0.25199 0,-0.37798 0,-0.2629 0.0683,-1.75319 0,-1.88988 -0.0797,-0.15937 -0.29829,-0.21861 -0.37796,-0.37798 -0.0388,-0.0775 -0.0533,-1.08062 0,-1.13393 0.0891,-0.0891 0.28888,0.0891 0.37796,0 0.0122,-0.0121 0,-1.04226 0,-1.13392 0,-0.2629 -0.0683,-1.7532 0,-1.88989 0.0797,-0.15936 0.29829,-0.2186 0.37798,-0.37797 0.10253,-0.20505 -0.10342,-1.40848 0,-1.51191 0.0891,-0.0891 0.2889,0.0891 0.37799,0 0.0891,-0.0891 0,-0.25198 0,-0.37797 0,-0.26791 -0.0489,-2.17013 0,-2.26786 0.0797,-0.15937 0.29829,-0.21861 0.37796,-0.37798 0.0575,-0.11503 0,-0.9637 0,-1.13392 0,-0.75596 0,-1.51191 0,-2.26786 0,-0.12599 0,-0.25199 0,-0.37798 0,-0.12599 -0.0891,-0.28889 0,-0.37797 0.0891,-0.0891 0.25199,0 0.37798,0 0.12599,0 0.25199,0 0.37798,0"
       id="path6585"
       inkscape:connector-curvature="0" />
  </g>
</svg>
