<?xml version="1.0" encoding="UTF-8" standalone="no"?>
<!-- Created with Inkscape (http://www.inkscape.org/) -->

<svg
   xmlns:dc="http://purl.org/dc/elements/1.1/"
   xmlns:cc="http://creativecommons.org/ns#"
   xmlns:rdf="http://www.w3.org/1999/02/22-rdf-syntax-ns#"
   xmlns:svg="http://www.w3.org/2000/svg"
   xmlns="http://www.w3.org/2000/svg"
   xmlns:xlink="http://www.w3.org/1999/xlink"
   xmlns:sodipodi="http://sodipodi.sourceforge.net/DTD/sodipodi-0.dtd"
   xmlns:inkscape="http://www.inkscape.org/namespaces/inkscape"
   width="1865.3333"
   height="566.66669"
   viewBox="0 0 493.5361 149.93056"
   version="1.1"
   id="svg5943"
   inkscape:version="0.92.3 (2405546, 2018-03-11)"
   sodipodi:docname="krasnenkaya-k-zsd.svg">
  <defs
     id="defs5937" />
  <sodipodi:namedview
     id="base"
     pagecolor="#ffffff"
     bordercolor="#666666"
     borderopacity="1.0"
     inkscape:pageopacity="0.0"
     inkscape:pageshadow="2"
     inkscape:zoom="0.7"
     inkscape:cx="1319.1735"
     inkscape:cy="294.78571"
     inkscape:document-units="mm"
     inkscape:current-layer="layer1"
     showgrid="false"
     fit-margin-top="0"
     fit-margin-left="0"
     fit-margin-right="0"
     fit-margin-bottom="0"
     units="px"
     inkscape:window-width="1366"
     inkscape:window-height="715"
     inkscape:window-x="0"
     inkscape:window-y="0"
     inkscape:window-maximized="1" />
  <metadata
     id="metadata5940">
    <rdf:RDF>
      <cc:Work
         rdf:about="">
        <dc:format>image/svg+xml</dc:format>
        <dc:type
           rdf:resource="http://purl.org/dc/dcmitype/StillImage" />
        <dc:title></dc:title>
      </cc:Work>
    </rdf:RDF>
  </metadata>
  <g
     inkscape:label="Layer 1"
     inkscape:groupmode="layer"
     id="layer1"
     transform="translate(0.15595132,0.0017341)">
    <image
       sodipodi:absref="/home/aanper/project/luysy-imn-eh/pi/boot/bydefault/web/img/krasnenkaya.png"
       y="-0.001734099"
       x="-0.15595132"
       id="image6547"
       xlink:href="file:///home/aanper/project/luysy-imn-eh/pi/boot/bydefault/web/img/krasnenkaya.png"
       preserveAspectRatio="none"
       height="149.93056"
       width="493.5361" />
    <ellipse
       style="fill:none;fill-opacity:1;stroke:#00ff00;stroke-width:0.30000001;stroke-miterlimit:4;stroke-dasharray:none;stroke-opacity:1;paint-order:stroke fill markers"
       id="path6550"
       cx="294.28751"
       cy="104.76067"
       rx="2.2678571"
       ry="2.0788691" />
    <circle
       style="fill:none;fill-opacity:1;stroke:#00ff00;stroke-width:0.30000001;stroke-miterlimit:4;stroke-dasharray:none;stroke-opacity:1;paint-order:stroke fill markers"
       id="path6552"
       cx="409.43457"
       cy="111.70928"
       r="1.0690781" />
    <ellipse
       style="fill:none;fill-opacity:1;stroke:#00ff00;stroke-width:0.30000001;stroke-miterlimit:4;stroke-dasharray:none;stroke-opacity:1;paint-order:stroke fill markers"
       id="path6554"
       cx="485.53958"
       cy="63.133045"
       rx="1.1358955"
       ry="1.2695302" />
    <path
       style="fill:none;fill-opacity:1;stroke:#00ff00;stroke-width:0.30000001;stroke-miterlimit:4;stroke-dasharray:none;stroke-opacity:1;paint-order:stroke fill markers"
       d="m 409.94821,110.99728 c 0.25199,-0.50397 0.50398,-1.00794 0.75594,-1.51191 0.126,0 0.2889,0.0891 0.37798,0 0.0891,-0.0891 -0.0563,-0.26528 0,-0.37797 0.10094,-0.20187 0.93494,-0.93494 1.13393,-1.13393 0.62997,-0.62996 1.25992,-1.25992 1.88989,-1.88988 0.2223,-0.22231 1.33686,-1.42439 1.51191,-1.51191 0.11269,-0.0563 0.28887,0.0891 0.37796,0 0.78205,-0.78204 -1.19507,0.0306 0.37798,-0.75595 0.2254,-0.11269 0.53057,0.11269 0.75597,0 0.15936,-0.0797 0.2186,-0.29829 0.37796,-0.37798 0.11268,-0.0563 0.26529,0.0564 0.37798,0 0.15936,-0.0797 0.2186,-0.29829 0.37798,-0.37797 0.30237,-0.15119 0.83154,0.15119 1.13393,0 0.15936,-0.0797 0.2186,-0.29829 0.37798,-0.37798 0.30237,-0.15119 0.83153,0.15119 1.13393,0 0.15936,-0.0797 0.2186,-0.29829 0.37795,-0.37797 0.20043,-0.10021 1.63275,0.0857 1.8899,0 0.16904,-0.0564 0.2186,-0.2983 0.37798,-0.37798 0.11269,-0.0563 0.25199,0 0.37796,0 0.25199,0 0.50398,0 0.75597,0 0.34334,0 2.40045,0.0818 2.64583,0 0.16904,-0.0563 0.2186,-0.29829 0.37798,-0.37798 0.11491,-0.0575 1.2509,0 1.51188,0 1.13396,0 2.26788,0 3.40181,0 0.88193,0 1.76389,0 2.64583,0 0.17023,0 1.01888,-0.0575 1.13392,0 0.15936,0.0797 0.2186,0.2983 0.37799,0.37798 0.11155,0.0558 2.25642,0 2.64583,0 0.12599,0 0.25199,0 0.37796,0 0.12599,0 0.2653,-0.0563 0.37798,0 0.15939,0.0797 0.2186,0.29829 0.37799,0.37798 0.30236,0.15119 0.83153,-0.15119 1.13392,0 0.15936,0.0797 0.2186,0.29829 0.37798,0.37797 0.0977,0.0489 1.99994,0 2.26785,0 0.126,0 0.2889,-0.0891 0.37799,0 0.0891,0.0891 -0.0891,0.28889 0,0.37798 0.0891,0.0891 0.25199,0 0.37795,0 1.00796,0 2.01589,0 3.02382,0 0.126,0 0.25199,0 0.37798,0 0.126,0 0.28888,-0.0891 0.37799,0 0.0891,0.0891 -0.0891,0.28888 0,0.37797 0.1034,0.10343 1.30686,-0.10252 1.51188,0 0.15939,0.0797 0.21863,0.2983 0.37798,0.37798 0.11505,0.0575 0.96372,0 1.13393,0 0.88196,0 1.7639,0 2.64583,0 0.17823,0 1.87275,0.0171 1.88989,0 0.0891,-0.0891 -0.0891,-0.28889 0,-0.37798 0.17818,-0.17817 0.53057,0.1127 0.75595,0 0.15938,-0.0797 0.21862,-0.29829 0.37798,-0.37797 0.11269,-0.0564 0.2889,0.0891 0.37798,0 0.0891,-0.0891 -0.0891,-0.28889 0,-0.37798 0.0891,-0.0891 0.28888,0.0891 0.37796,0 0.0891,-0.0891 -0.0891,-0.28889 0,-0.37797 0.0891,-0.0891 0.2889,0.0891 0.37798,0 0.0891,-0.0891 -0.0563,-0.26529 0,-0.37798 0.0797,-0.15937 0.25199,-0.25199 0.37799,-0.37798 0.12599,-0.12599 0.2186,-0.29829 0.37798,-0.37797 0.11269,-0.0563 0.28887,0.0891 0.37796,0 0.0891,-0.0891 -0.0891,-0.28889 0,-0.37798 0.0891,-0.0891 0.2653,0.0563 0.37798,0 0.15936,-0.0797 0.2186,-0.29829 0.37799,-0.37798 0.11268,-0.0563 0.26527,0.0564 0.37795,0 0.15939,-0.0797 0.21863,-0.29829 0.37799,-0.37797 0.2254,-0.112692 0.53057,0.11269 0.75597,0 0.15935,-0.07969 0.21859,-0.298292 0.37795,-0.377977 0.26109,-0.13054 1.75721,0.132675 1.88989,0 0.0891,-0.08909 -0.0891,-0.288888 0,-0.377976 0.0891,-0.08909 0.25199,0 0.37799,0 0.12597,0 0.25196,0 0.37796,0 0.75596,0 1.5119,0 2.26787,0 0.17021,0 1.01889,-0.05752 1.13393,0 0.15936,0.07968 0.2186,0.298291 0.37795,0.377976 0.23847,0.119227 1.65145,-0.119226 1.8899,0 0.15935,0.07968 0.21859,0.298291 0.37798,0.377977 0.23844,0.11923 1.65142,-0.119228 1.88987,0 0.15938,0.0797 0.21862,0.29829 0.37798,0.37797 0.30239,0.1512 0.83156,-0.15119 1.13392,0 0.15939,0.0797 0.2186,0.2983 0.37799,0.37798 0.22537,0.11269 0.53057,-0.11269 0.75594,0 0.15938,0.0797 0.21862,0.29829 0.37798,0.37798 0.11269,0.0563 0.2653,-0.0563 0.37799,0 0.15935,0.0797 0.2186,0.29829 0.37795,0.37797 0.2254,0.11269 0.5306,-0.11269 0.75597,0 0.15936,0.0797 0.2186,0.2983 0.37798,0.37798 0.11269,0.0563 0.28888,-0.0891 0.37796,0 0.0891,0.0891 -0.0891,0.28889 0,0.37798 0.0891,0.0891 0.2653,-0.0564 0.37799,0 0.15935,0.0797 0.21859,0.29829 0.37798,0.37797 0.11269,0.0564 0.28887,-0.0891 0.37796,0 0.0891,0.0891 -0.0891,0.28889 0,0.37798 0.0891,0.0891 0.2889,-0.0891 0.37798,0 0.0891,0.0891 -0.0891,0.28888 0,0.37797 0.0891,0.0891 0.2889,-0.0891 0.37798,0 0.0891,0.0891 -0.0891,0.28889 0,0.37798 0.0891,0.0891 0.26528,-0.0564 0.37799,0 0.0723,0.0362 1.47571,1.43955 1.51188,1.51191 0.0564,0.11269 -0.0891,0.28888 0,0.37797 0.0891,0.0891 0.2889,-0.0891 0.37798,0 0.0891,0.0891 -0.0563,0.26529 0,0.37798 0.0797,0.15937 0.2983,0.2186 0.37799,0.37797 0.0563,0.11269 0,0.25199 0,0.37798 0.12599,0.12599 0.29829,0.21861 0.37798,0.37798 0.11269,0.22538 -0.11271,0.53057 0,0.75595 0.0797,0.15937 0.29829,0.21861 0.37796,0.37797 0.0683,0.13669 0,1.62699 0,1.88989 0,0.26791 0.0489,2.17013 0,2.26785 -0.0797,0.15937 -0.29829,0.21861 -0.37796,0.37798 -0.11271,0.22538 0.11269,0.53057 0,0.75595 -0.0797,0.15937 -0.29829,0.21861 -0.37798,0.37798 -0.0564,0.11269 0.0563,0.26528 0,0.37797 -0.0797,0.15937 -0.29829,0.21861 -0.37799,0.37798 -0.0563,0.11269 0.0564,0.26529 0,0.37798 -0.0797,0.15936 -0.29829,0.2186 -0.37798,0.37797 -0.0563,0.11269 0.0564,0.26529 0,0.37798 -0.0797,0.15937 -0.29829,0.21861 -0.37796,0.37797 -0.0564,0.1127 0.0563,0.26529 0,0.37798 -0.0797,0.15937 -0.29829,0.21861 -0.37798,0.37798 -0.0564,0.11269 0.0564,0.26528 0,0.37797 -0.22678,0.45357 -0.90715,0.68036 -1.13393,1.13393 -0.0564,0.11269 0.0563,0.26529 0,0.37798 -0.0952,0.19035 -0.66077,0.5656 -0.75596,0.75595 -0.0563,0.11269 0.0891,0.28889 0,0.37798 -0.0891,0.0891 -0.28888,-0.0891 -0.37796,0 -0.78206,0.78204 1.19507,-0.0306 -0.37798,0.75595 -0.11269,0.0564 -0.2889,-0.0891 -0.37799,0 -0.0891,0.0891 0.0564,0.26528 0,0.37798 -1.25357,1.25358 0.1782,-0.35636 -0.37796,0.75595 -0.0797,0.15937 -0.29829,0.2186 -0.37798,0.37797 -0.0564,0.11269 0.0891,0.28889 0,0.37798 -0.0891,0.0891 -0.2889,-0.0891 -0.37798,0 -0.0891,0.0891 0.0563,0.26529 0,0.37798 -0.0797,0.15936 -0.29829,0.2186 -0.37799,0.37797 -0.0563,0.11269 0.0564,0.26529 0,0.37798 -0.0797,0.15937 -0.29829,0.21861 -0.37795,0.37797 -0.0564,0.1127 0.0563,0.26529 0,0.37798 -0.0797,0.15937 -0.29829,0.21861 -0.37799,0.37798 -0.0564,0.11269 0.0564,0.26528 0,0.37797 -0.15936,0.31874 -0.59658,0.43722 -0.75594,0.75596 -0.11271,0.22538 0.11269,0.53056 0,0.75595 -0.0797,0.15937 -0.29829,0.2186 -0.37798,0.37797 -0.01,0.0198 -0.01,1.11416 0,1.13393 0.15936,0.31874 0.59658,0.43722 0.75594,0.75596 0.0564,0.11269 0,0.25198 0,0.37797 0.12599,0.12599 0.29829,0.21861 0.37798,0.37798 0.0564,0.11269 -0.0891,0.28888 0,0.37797 0.0891,0.0891 0.2889,-0.0891 0.37799,0 0.0891,0.0891 -0.0891,0.28889 0,0.37798 0.0891,0.0891 0.28887,-0.0891 0.37795,0 0.0891,0.0891 -0.0891,0.28889 0,0.37798 0.0891,0.0891 0.2889,-0.0891 0.37799,0 0.0891,0.0891 -0.0891,0.28888 0,0.37797 0.17819,0.17818 0.57777,-0.17818 0.75596,0 0.0891,0.0891 -0.0891,0.28889 0,0.37798 0.0891,0.0891 0.28888,-0.0891 0.37796,0 0.0891,0.0891 -0.0891,0.28888 0,0.37797 0.1782,0.17818 0.53057,-0.11269 0.75597,0 0.15936,0.0797 0.2186,0.2983 0.37796,0.37798 0.11271,0.0564 0.2889,-0.0891 0.37798,0 0.0891,0.0891 -0.0891,0.28889 0,0.37798 0.0891,0.0891 0.2653,-0.0564 0.37798,0 0.15936,0.0797 0.2186,0.29829 0.37799,0.37797 0.11268,0.0564 0.26527,-0.0563 0.37796,0 0.15938,0.0797 0.21862,0.2983 0.37798,0.37798 0.22537,0.11269 0.57777,-0.17818 0.75594,0 0.0891,0.0891 -0.0891,0.28889 0,0.37798 0.1782,0.17817 0.5306,-0.1127 0.75597,0 0.15936,0.0797 0.2186,0.29829 0.37798,0.37797 0.22537,0.11269 0.57777,-0.17818 0.75594,0 0.0891,0.0891 -0.0891,0.28889 0,0.37798 0.091,0.091 1.42095,-0.091 1.51191,0 0.0891,0.0891 -0.0891,0.28888 0,0.37797 0.0773,0.0773 0.98407,-0.0749 1.13393,0 0.15935,0.0797 0.21859,0.29829 0.37798,0.37798 0.11269,0.0563 0.26527,-0.0564 0.37796,0 0.15938,0.0797 0.21862,0.29829 0.37798,0.37797 0.11269,0.0563 0.2653,-0.0563 0.37798,0 0.15936,0.0797 0.2186,0.2983 0.37799,0.37798 0.11268,0.0564 0.26527,-0.0563 0.37796,0 0.15938,0.0797 0.21862,0.29829 0.37798,0.37798 0.11269,0.0563 0.2889,-0.0891 0.37798,0 0.0891,0.0891 -0.0891,0.28888 0,0.37798 0.0891,0.0891 0.26527,-0.0564 0.37796,0 0.15939,0.0797 0.21863,0.29829 0.37798,0.37797 0.11269,0.0563 0.2653,-0.0563 0.37799,0 0.15936,0.0797 0.2186,0.29829 0.37798,0.37798 0.22537,0.11269 0.57777,-0.17818 0.75594,0 0.0891,0.0891 -0.0891,0.28888 0,0.37797 0.17817,0.17818 0.53057,-0.11269 0.75594,0 0.15939,0.0797 0.21863,0.29829 0.37799,0.37798 0.2254,0.11269 0.53057,-0.11269 0.75596,0 0.15936,0.0797 0.2186,0.29829 0.37796,0.37798 0.2254,0.11269 0.53057,-0.11269 0.75597,0 0.15936,0.0797 0.2186,0.29829 0.37796,0.37797 0.11271,0.0563 0.26529,-0.0563 0.37798,0 0.15939,0.0797 0.2186,0.29829 0.37798,0.37798 0.11269,0.0563 0.37799,-0.12599 0.37799,0 0,0.12599 -0.25199,0 -0.37799,0"
       id="path6629"
       inkscape:connector-curvature="0" />
  </g>
</svg>
