<?xml version="1.0" encoding="UTF-8" standalone="no"?>
<!-- Created with Inkscape (http://www.inkscape.org/) -->

<svg
   xmlns:dc="http://purl.org/dc/elements/1.1/"
   xmlns:cc="http://creativecommons.org/ns#"
   xmlns:rdf="http://www.w3.org/1999/02/22-rdf-syntax-ns#"
   xmlns:svg="http://www.w3.org/2000/svg"
   xmlns="http://www.w3.org/2000/svg"
   xmlns:xlink="http://www.w3.org/1999/xlink"
   xmlns:sodipodi="http://sodipodi.sourceforge.net/DTD/sodipodi-0.dtd"
   xmlns:inkscape="http://www.inkscape.org/namespaces/inkscape"
   width="210mm"
   height="297mm"
   viewBox="0 0 210 297"
   version="1.1"
   id="svg4501"
   inkscape:version="0.92.3 (2405546, 2018-03-11)"
   sodipodi:docname="ohta-yandex-yandex.svg">
  <defs
     id="defs4495" />
  <sodipodi:namedview
     id="base"
     pagecolor="#ffffff"
     bordercolor="#666666"
     borderopacity="1.0"
     inkscape:pageopacity="0.0"
     inkscape:pageshadow="2"
     inkscape:zoom="0.35"
     inkscape:cx="471.38033"
     inkscape:cy="487.26434"
     inkscape:document-units="mm"
     inkscape:current-layer="layer1"
     showgrid="false"
     inkscape:window-width="1366"
     inkscape:window-height="715"
     inkscape:window-x="0"
     inkscape:window-y="0"
     inkscape:window-maximized="1" />
  <metadata
     id="metadata4498">
    <rdf:RDF>
      <cc:Work
         rdf:about="">
        <dc:format>image/svg+xml</dc:format>
        <dc:type
           rdf:resource="http://purl.org/dc/dcmitype/StillImage" />
        <dc:title></dc:title>
      </cc:Work>
    </rdf:RDF>
  </metadata>
  <g
     inkscape:label="Layer 1"
     inkscape:groupmode="layer"
     id="layer1">
    <image
       sodipodi:absref="/home/aanper/project/luysy-imn-eh/pi/boot/bydefault/web/img/ohta.png"
       y="-0.0074072876"
       x="-0.02204407"
       id="image5121"
       xlink:href="file:///home/aanper/project/luysy-imn-eh/pi/boot/bydefault/web/img/ohta.png"
       preserveAspectRatio="none"
       height="343.60559"
       width="265.28888" />
    <ellipse
       style="fill:#000000;fill-opacity:1;stroke:#00ff00;stroke-width:0.30000001;stroke-miterlimit:4;stroke-dasharray:none;stroke-opacity:1;paint-order:stroke fill markers"
       id="path5124"
       cx="137.58333"
       cy="52.827377"
       rx="5.2916665"
       ry="4.5357141" />
    <ellipse
       style="fill:#000000;fill-opacity:1;stroke:#00ff00;stroke-width:0.30000001;stroke-miterlimit:4;stroke-dasharray:none;stroke-opacity:1;paint-order:stroke fill markers"
       id="path5126"
       cx="50.45982"
       cy="313.25296"
       rx="2.8348215"
       ry="3.0238097" />
    <circle
       style="fill:#000000;fill-opacity:1;stroke:#00ff00;stroke-width:0.30000001;stroke-miterlimit:4;stroke-dasharray:none;stroke-opacity:1;paint-order:stroke fill markers"
       id="path5128"
       cx="220.73808"
       cy="98.5625"
       r="2.2678571" />
    <path
       style="fill:none;fill-opacity:1;stroke:#00ff00;stroke-width:0.30000001;stroke-miterlimit:4;stroke-dasharray:none;stroke-opacity:1;paint-order:stroke fill markers"
       d="m 137.58333,54.339286 c 0.88008,5.915728 -2.82023,0.552375 -3.77976,1.511903 -0.17818,0.178181 0.17818,0.577773 0,0.755954 -0.17818,0.178178 -0.57777,-0.178181 -0.75595,0 -0.17818,0.178178 0.11269,0.530569 0,0.755952 -0.15937,0.318738 -0.59659,0.437213 -0.75596,0.755951 -0.13668,0.273378 0,3.253968 0,3.779764 0,0.251984 -0.17818,0.57777 0,0.755951 0.17819,0.178179 0.57778,-0.178181 0.75596,0 0.37797,0.377976 -0.37798,1.889882 0,2.267858 0.17818,0.178178 0.57777,-0.178181 0.75595,0 0.35636,0.356359 -0.22538,1.06114 0,1.511903 0.15937,0.318738 0.59658,0.437216 0.75595,0.755954 0.22538,0.450763 -0.35636,1.155544 0,1.511904 0.17818,0.178181 0.57778,-0.178179 0.75595,0 0.17819,0.178181 -0.11269,0.530571 0,0.755954 0.15937,0.318735 0.59659,0.437213 0.75596,0.755951 0.11269,0.22538 -0.17818,0.577774 0,0.755952 0.17818,0.178181 0.57777,-0.178178 0.75595,0 0.17818,0.178181 -0.17818,0.577773 0,0.755952 0.17818,0.178181 0.53057,-0.112689 0.75595,0 0.90714,0.453572 1.36072,1.814287 2.26786,2.267857 2.01587,0 -0.25198,-0.251984 0.75595,0.755954 0.17818,0.178179 0.57777,-0.178181 0.75595,0 0.17818,0.178179 -0.17818,0.577771 0,0.755952 0.17818,0.178178 0.53057,-0.112691 0.75596,0 0.90714,0.45357 1.36071,1.814285 2.26785,2.267857 0.22538,0.112689 0.57777,-0.178181 0.75596,0 0.17817,0.178179 -0.1127,0.530569 0,0.755952 0.45357,0.907143 1.81428,1.360715 2.26785,2.267858 0.11269,0.22538 -0.17818,0.577773 0,0.755951 0.17818,0.178181 0.57777,-0.178178 0.75595,0 0.17819,0.178181 -0.17818,0.577773 0,0.755952 0.17819,0.178181 0.57778,-0.178179 0.75596,0 0.17818,0.178181 -0.17818,0.577773 0,0.755954 0.17818,0.178178 0.57777,-0.178181 0.75595,0 0.17818,0.178178 -0.11269,0.530569 0,0.755952 0.31874,0.637474 1.19317,0.874429 1.5119,1.511906 0.1127,0.22538 -0.17817,0.57777 0,0.755951 0.17818,0.178179 0.57778,-0.178181 0.75596,0 0.17818,0.178179 -0.17818,0.577773 0,0.755952 2.01587,0 -0.25199,-0.251984 0.75595,0.755951 0.17818,0.178181 0.57777,-0.178178 0.75595,0 1.56409,1.564093 -2.39014,-0.06114 0.75595,1.511906 0.22539,0.112692 0.57778,-0.178181 0.75596,0 0.17818,0.178179 -0.11269,0.530572 0,0.755952 0.15936,0.318738 0.59658,0.437216 0.75595,0.755954 0.11269,0.22538 -0.17818,0.577771 0,0.755952 2.01587,0 -0.25198,-0.251984 0.75595,0.755951 0.17818,0.178181 0.57777,-0.178178 0.75595,0 0.17818,0.178181 -0.11269,0.530572 0,0.755952 0.15937,0.318738 0.59659,0.437216 0.75596,0.755954 0.11269,0.22538 -0.17818,0.577771 0,0.755952 0.17817,0.178178 0.53057,-0.112691 0.75595,0 3.14609,1.573046 -0.80814,-0.05219 0.75595,1.511906 0.17818,0.178178 0.57777,-0.178181 0.75595,0 0.17818,0.178178 -0.17818,0.57777 0,0.755951 0.17818,0.178179 0.53057,-0.112691 0.75596,0 1.67145,0.835727 0.23458,0.469175 0.75595,1.511904 0.31874,0.637476 1.19316,0.874429 1.5119,1.511905 0.30238,0.604763 -0.30238,1.663093 0,2.267853 0.15937,0.31874 0.59659,0.43722 0.75595,0.75596 0.30239,0.60476 -0.30238,1.66309 0,2.26785 0.15937,0.31874 0.59659,0.43722 0.75596,0.75596 0.22538,0.45076 -0.22538,1.06114 0,1.5119 0.15937,0.31874 0.59658,0.43721 0.75595,0.75595 0.30238,0.60477 -0.30238,1.6631 0,2.26786 0.15937,0.31874 0.59658,0.43721 0.75595,0.75595 0.23846,0.47691 -0.23845,3.30286 0,3.77977 0.15937,0.31873 0.59658,0.43721 0.75595,0.75595 0.23757,0.47513 -0.23756,2.54867 0,3.02381 0.15937,0.31873 0.59659,0.43721 0.75596,0.75595 0.11503,0.23006 0,1.92741 0,2.26786 0,0.53582 -0.0977,4.34026 0,4.53571 0.15936,0.31874 0.59658,0.43721 0.75595,0.75595 0.11269,0.22538 0,0.50397 0,0.75596 0,0.25198 0,0.50396 0,0.75595 0,1.5119 0,3.02381 0,4.53571 0,3.2758 0,6.55159 0,9.82738 0,1.77285 -0.17818,-0.35636 0.75595,1.51191 0.13669,0.27338 0,3.25397 0,3.77976 0,0.53582 0.0977,4.34026 0,4.53571 -0.15937,0.31874 -0.59658,0.43722 -0.75595,0.75596 -0.13669,0.27337 0,3.25396 0,3.77976 0,1.5119 0,3.02381 0,4.53571 0,0.49674 0.14217,1.84135 0,2.26786 -0.17818,0.53454 -0.57777,0.97736 -0.75595,1.5119 -0.15816,0.47448 0,2.41525 0,3.02381 0,2.01588 0,4.03175 0,6.04762 0,0.25199 0,0.50397 0,0.75596 0,0.25198 0.11269,0.53056 0,0.75595 -0.15937,0.31874 -0.59659,0.43721 -0.75596,0.75595 -0.0977,0.19545 0,3.99989 0,4.53571 0,0.5258 0.13669,3.50639 0,3.77976 -0.15937,0.31874 -0.59658,0.43722 -0.75595,0.75596 -0.23756,0.47513 0.23757,2.54867 0,3.02381 -0.15937,0.31873 -0.59658,0.43721 -0.75595,0.75595 -0.23757,0.47513 0.23756,2.54868 0,3.02381 -0.93413,1.86826 -0.75595,-0.26094 -0.75595,1.5119 0,0.34045 0.11503,2.0378 0,2.26786 -0.15937,0.31874 -0.59659,0.43722 -0.75596,0.75595 -0.23756,0.47514 0.23757,2.54868 0,3.02381 -0.15936,0.31874 -0.59658,0.43722 -0.75595,0.75595 -0.22538,0.45077 0.22538,1.06115 0,1.51191 -0.15937,0.31874 -0.59658,0.43721 -0.75595,0.75595 -0.20505,0.4101 0.20684,2.81697 0,3.02381 -0.17818,0.17818 -0.57777,-0.17818 -0.75595,0 -0.20685,0.20685 0.20504,2.61372 0,3.02381 -0.15937,0.31874 -0.59659,0.43722 -0.75595,0.75595 -0.30239,0.60477 0.30238,1.6631 0,2.26786 -0.15937,0.31874 -0.59659,0.43722 -0.75596,0.75595 -0.23845,0.47691 0.23846,3.30286 0,3.77976 -0.15937,0.31874 -0.59658,0.43722 -0.75595,0.75596 -0.0977,0.19545 0,3.99989 0,4.53571 0,0.25198 0.17818,0.57777 0,0.75596 -0.17818,0.17817 -0.57777,-0.17819 -0.75595,0 -0.0243,0.0243 0,2.08451 0,2.26785 0,4.53572 0,9.07143 0,13.60714 0,0.18334 -0.0243,2.24355 0,2.26786 0.17818,0.17818 0.57777,-0.17818 0.75595,0 0.37798,0.37798 -0.37798,1.88988 0,2.26786 0.17818,0.17818 0.57777,-0.17818 0.75595,0 0.35636,0.35636 -0.22538,1.06114 0,1.5119 0.15937,0.31874 0.59659,0.43722 0.75596,0.75595 0.11269,0.22539 -0.17819,0.57778 0,0.75596 0.17817,0.17818 0.57777,-0.17818 0.75595,0 0.17818,0.17818 -0.11269,0.53057 0,0.75595 0.31874,0.63747 1.19316,0.87443 1.5119,1.5119 0.11269,0.22539 -0.17818,0.57778 0,0.75596 0.17818,0.17818 0.53057,-0.11269 0.75595,0 0.31874,0.15936 0.43722,0.59658 0.75596,0.75595 0.22538,0.11269 0.57777,-0.17818 0.75595,0 0.17818,0.17818 -0.17818,0.57777 0,0.75595 0.17818,0.17818 0.57777,-0.17818 0.75595,0 0.17818,0.17818 -0.17818,0.57777 0,0.75595 0.17818,0.17818 0.53057,-0.11269 0.75595,0 0.31874,0.15937 0.43722,0.59659 0.75596,0.75596 0.22538,0.11269 0.57777,-0.17818 0.75595,0 0.17818,0.17818 -0.17818,0.57777 0,0.75595 0.17818,0.17818 0.57777,-0.17818 0.75595,0 0.17818,0.17818 0,0.50397 0,0.75595 0.25199,0 0.53057,-0.11269 0.75595,0 0.31874,0.15937 0.50397,0.50397 0.75596,0.75595 0.25198,0.25199 0.59658,0.43722 0.75595,0.75596 0.11269,0.22538 -0.17818,0.57777 0,0.75595 0.17818,0.17818 0.53057,-0.11269 0.75595,0 0.40374,0.20187 1.86988,1.86987 2.26786,2.26786 0.44461,0.4446 2.84877,2.67374 3.02381,3.0238 0.11269,0.22539 -0.17818,0.57778 0,0.75596 1.56409,1.56409 -0.0611,-2.39014 1.5119,0.75595 0.11269,0.22538 -0.17818,0.57777 0,0.75595 0.17818,0.17818 0.57777,-0.17818 0.75595,0 0.17819,0.17818 -0.17818,0.57778 0,0.75595 0.17819,0.17819 0.57778,-0.17817 0.75596,0 0.17818,0.17819 -0.17818,0.57779 0,0.75596 0.17818,0.17817 0.57777,-0.17817 0.75595,0 0.17818,0.17817 -0.11269,0.53057 0,0.75594 0.15937,0.31875 0.59658,0.43723 0.75595,0.75597 0.11269,0.22537 -0.17818,0.57777 0,0.75594 0.17818,0.17817 0.57778,-0.17817 0.75595,0 0.17818,0.17817 -0.17817,0.57777 0,0.75597 0.17818,0.17817 0.57778,-0.1782 0.75596,0 0.17818,0.17817 -0.11269,0.53057 0,0.75594 0.15936,0.31874 0.59658,0.43722 0.75595,0.75594 0.11269,0.2254 -0.17818,0.5778 0,0.75597 0.17818,0.17817 0.57777,-0.17817 0.75595,0 0.17818,0.17817 -0.17818,0.57777 0,0.75594 0.17818,0.1782 0.53057,-0.11269 0.75595,0 0.90715,0.45357 1.36072,1.8143 2.26786,2.26787 0.45076,0.22538 1.15555,-0.35636 1.51191,0 0.17817,0.17817 -0.17819,0.57777 0,0.75595 0.0343,0.0343 3.42333,0 3.77976,0 0.25198,0 0.50396,0 0.75595,0 0.25198,0 0.57777,0.17817 0.75595,0 0.17818,-0.17818 0.17818,-0.57778 0,-0.75595 -0.17818,-0.17819 -0.57777,0.17817 -0.75595,0 -0.17818,-0.17819 0,-0.50397 0,-0.75596 0,-1.77284 0.17818,0.35636 -0.75595,-1.51191 -0.11269,-0.22537 0.11269,-0.53057 0,-0.75594 -0.15937,-0.31875 -0.59659,-0.43723 -0.75595,-0.75597 -0.1127,-0.22537 0.11269,-0.53057 0,-0.75594 -2.50718,-2.50719 0.35635,0.71271 -0.75596,-1.51191 -0.31873,-0.63746 -1.19316,-0.87442 -1.5119,-1.51191 -0.11269,-0.22537 0.17818,-0.57777 0,-0.75594 -0.17818,-0.17817 -0.57778,0.17817 -0.75595,0 -0.17819,-0.17817 0.17817,-0.57777 0,-0.75596 -0.17819,-0.17817 -0.50397,0 -0.75596,0 0,-0.25198 0.11269,-0.53057 0,-0.75595 -0.15936,-0.31874 -0.59658,-0.43721 -0.75595,-0.75595 -0.11269,-0.22538 0.17818,-0.57777 0,-0.75595 -0.17818,-0.17818 -0.57777,0.17818 -0.75595,0 -0.17818,-0.17818 0.11269,-0.53057 0,-0.75596 -0.15937,-0.31873 -0.59659,-0.43721 -0.75595,-0.75595 -0.11269,-0.22538 0.17818,-0.57777 0,-0.75595 -0.17818,-0.17818 -0.57778,0.17818 -0.75596,0 -0.17818,-0.17818 0.11269,-0.53057 0,-0.75595 -2.50718,-2.50718 0.35636,0.71272 -0.75595,-1.51191 -0.31874,-0.63747 -1.19317,-0.87443 -1.5119,-1.5119 -0.11269,-0.22538 0.11269,-0.53057 0,-0.75595 -0.15937,-0.31874 -0.59659,-0.43722 -0.75596,-0.75596 -0.22538,-0.45076 0.22539,-1.06114 0,-1.5119 -0.15937,-0.31874 -0.59658,-0.43722 -0.75595,-0.75595 -0.11269,-0.22539 0.11269,-0.53057 0,-0.75596 -0.15937,-0.31873 -0.59658,-0.43721 -0.75595,-0.75595 -0.11269,-0.22538 0.17818,-0.57777 0,-0.75595 -0.17818,-0.17818 -0.57777,0.17818 -0.75595,0 -0.17818,-0.17818 0.11269,-0.53057 0,-0.75595 -0.15937,-0.31874 -0.59659,-0.43722 -0.75596,-0.75596 -0.22538,-0.45076 0.35636,-1.15554 0,-1.5119 -0.17818,-0.17818 -0.57777,0.17818 -0.75595,0 -0.17818,-0.17818 0.11269,-0.53057 0,-0.75595 -0.15937,-0.31874 -0.59658,-0.43722 -0.75595,-0.75596 -0.11269,-0.22538 0.17818,-0.57777 0,-0.75595 -0.17818,-0.17818 -0.57777,0.17818 -0.75595,0 -0.17818,-0.17818 0.11269,-0.53057 0,-0.75595 -0.31874,-0.63747 -1.19317,-0.87443 -1.51191,-1.5119 -0.11269,-0.22539 0.17818,-0.57778 0,-0.75596 -0.17818,-0.17818 -0.53057,0.11269 -0.75595,0 -3.14609,-1.57304 0.80814,0.0522 -0.75595,-1.5119 -0.17818,-0.17818 -0.57778,0.17818 -0.75595,0 -0.17818,-0.17818 0.17817,-0.57778 0,-0.75595 -0.17818,-0.17818 -0.57778,0.17817 -0.75596,0 -0.17818,-0.17818 0.17818,-0.57778 0,-0.75596 -0.17818,-0.17818 -0.57777,0.17818 -0.75595,0 -0.35636,-0.35636 0.35636,-1.15554 0,-1.5119 -0.17818,-0.17818 -0.57777,0.17818 -0.75595,0 -0.37798,-0.37798 0.37797,-1.88988 0,-2.26786 -0.17818,-0.17818 -0.57777,0.17818 -0.75595,0 -0.15455,-0.15454 0.14986,-1.96813 0,-2.26786 -0.15937,-0.31873 -0.59659,-0.43721 -0.75596,-0.75595 -0.30238,-0.60476 0.30238,-1.66309 0,-2.26785 -0.15937,-0.31874 -0.59658,-0.43722 -0.75595,-0.75596 -0.30238,-0.60476 0.30238,-1.66309 0,-2.26785 -0.15937,-0.31874 -0.59658,-0.43722 -0.75595,-0.75596 -0.13669,-0.27337 0,-3.25396 0,-3.77976 0,-1.76389 0,-3.52778 0,-5.29167 0,-0.49674 -0.14217,-1.84134 0,-2.26785 0.17818,-0.53454 0.57777,-0.97737 0.75595,-1.51191 0.1586,-0.47579 0,-3.09837 0,-3.77976 0,-3.27579 0,-6.55159 0,-9.82738 0,-0.53582 -0.0977,-4.34026 0,-4.53571 0.15937,-0.31874 0.59658,-0.43722 0.75595,-0.75596 0.11269,-0.22538 0,-0.50397 0,-0.75595 0,-0.25198 0,-0.50397 0,-0.75595 0,-1.25992 0,-2.51984 0,-3.77976 0,-0.25199 0,-0.50397 0,-0.75596 0,-0.25198 -0.11269,-0.53057 0,-0.75595 0.15937,-0.31874 0.59659,-0.43721 0.75596,-0.75595 0.24554,-0.49108 -0.23976,-3.30025 0,-3.77976 0.15936,-0.31874 0.59658,-0.43722 0.75595,-0.75595 0.30238,-0.60477 -0.30238,-1.6631 0,-2.26786 0.15937,-0.31874 0.59658,-0.43722 0.75595,-0.75595 0.23757,-0.47514 -0.23757,-2.54868 0,-3.02381 0.15937,-0.31874 0.59659,-0.43722 0.75595,-0.75595 0.23757,-0.47514 -0.23756,-2.54868 0,-3.02382 0.15937,-0.31873 0.59659,-0.43721 0.75596,-0.75595 0.11268,-0.22538 0,-0.50397 0,-0.75595 0,-0.25198 0,-0.50397 0,-0.75595 0,-1.51191 0,-3.02381 0,-4.53572 0,-0.75595 -0.23906,-1.55069 0,-2.26785 0.11268,-0.33807 0.59658,-0.43722 0.75595,-0.75595 0.11269,-0.22539 0,-0.50398 0,-0.75596 0,-0.50397 0,-1.00793 0,-1.5119 0,-2.77183 0,-5.54365 0,-8.31548 0,-0.3953 -0.0994,-2.82504 0,-3.02381 0.15937,-0.31874 0.59658,-0.43721 0.75595,-0.75595 0.13669,-0.27338 0,-3.25397 0,-3.77976 0,-1.76389 0,-3.52778 0,-5.29167 0,-0.34045 0.11503,-2.03779 0,-2.26786 -0.15937,-0.31873 -0.64326,-0.41788 -0.75595,-0.75595 -0.13935,-0.41805 0,-3.77443 0,-4.53571 0,-0.25199 0,-0.50397 0,-0.75595 0,-0.25199 0.11269,-0.53058 0,-0.75596 -0.15937,-0.31873 -0.59658,-0.43721 -0.75595,-0.75595 -0.24506,-0.49012 0.23739,-3.82352 0,-4.53572 -0.17818,-0.53453 -0.57778,-0.97736 -0.75596,-1.5119 -0.15859,-0.4758 0,-3.09837 0,-3.77976 0,-0.25199 0.0797,-0.5169 0,-0.75595 -0.17818,-0.53454 -0.57777,-0.97737 -0.75595,-1.51191 -0.24004,-0.72012 0.24545,-3.04343 0,-3.77976 -0.17818,-0.53454 -0.57777,-0.97737 -0.75595,-1.5119 -0.16296,-0.48888 0,-2.95434 0,-3.77977 0,-0.3953 0.0994,-2.82504 0,-3.02381 -0.15937,-0.31873 -0.59659,-0.43721 -0.75595,-0.75595 -0.24555,-0.49108 0.23975,-3.30025 0,-3.77976 -0.15937,-0.31874 -0.64327,-0.41788 -0.75596,-0.755953 -0.17142,-0.514275 0.20042,-3.378927 0,-3.77976 -0.15937,-0.318738 -0.59658,-0.437216 -0.75595,-0.755954 -0.23845,-0.476907 0.23845,-3.302855 0,-3.779761 -0.15937,-0.318738 -0.59658,-0.437216 -0.75595,-0.755952 -0.23757,-0.475133 0.23757,-2.548678 0,-3.023812 -0.15937,-0.318735 -0.59659,-0.437213 -0.75595,-0.755951 -0.22538,-0.450763 0.22538,-1.061141 0,-1.511903 -0.15937,-0.318739 -0.59659,-0.437216 -0.75596,-0.755955 -0.22538,-0.450762 0.35636,-1.155544 0,-1.511903 -0.17817,-0.178181 -0.57777,0.178178 -0.75595,0 -0.35636,-0.356359 0.22538,-1.061143 0,-1.511906 -0.15937,-0.318738 -0.59658,-0.437213 -0.75595,-0.755951 -0.11269,-0.225383 0.17818,-0.577774 0,-0.755952 -0.17818,-0.178181 -0.57777,0.178178 -0.75595,0 -0.17818,-0.178181 0.11269,-0.530572 0,-0.755954 -0.0724,-0.144704 -2.87911,-2.951456 -3.02381,-3.023809 -0.22538,-0.112692 -0.53057,0.112691 -0.75595,0 -0.31874,-0.15937 -0.43722,-0.596583 -0.75596,-0.755952 -0.22538,-0.112691 -0.50397,0 -0.75595,0 -0.25198,-0.251984 -0.43721,-0.596585 -0.75595,-0.755952 -0.22538,-0.112691 -0.53057,0.112689 -0.75595,0 -0.31874,-0.159369 -0.43722,-0.596585 -0.75596,-0.755954 -0.60476,-0.302379 -1.66309,0.302382 -2.26785,0 -0.31874,-0.159369 -0.43722,-0.596582 -0.75596,-0.755952 -0.60476,-0.302381 -1.66309,0.302382 -2.26785,0 -0.31874,-0.159369 -0.43722,-0.596582 -0.75596,-0.755951 -0.22538,-0.112691 -0.53057,0.112689 -0.75595,0 -0.31874,-0.159369 -0.43721,-0.596585 -0.75595,-0.755954 -0.45076,-0.22538 -1.06114,0.225382 -1.51191,0 -0.31873,-0.159367 -0.43721,-0.596583 -0.75595,-0.755952 -0.45076,-0.22538 -1.06114,0.225383 -1.5119,0 -0.31874,-0.159369 -0.43722,-0.596582 -0.75595,-0.755952 -0.22539,-0.112691 -0.53058,0.112692 -0.75596,0 -0.31873,-0.159369 -0.43721,-0.596585 -0.75595,-0.755951 -0.22538,-0.112692 -0.53057,0.112688 -0.75595,0 -0.31874,-0.159369 -0.43722,-0.596585 -0.75595,-0.755954 -0.45077,-0.225381 -1.15555,0.356359 -1.51191,0 -0.17818,-0.178179 0.17818,-0.577774 0,-0.755952 -0.17818,-0.178181 -0.53057,0.112691 -0.75595,0 -0.31874,-0.159369 -0.43722,-0.596583 -0.75595,-0.755952 -0.22539,-0.112691 -0.53057,0.112689 -0.75596,0 -0.31873,-0.159369 -0.43721,-0.596585 -0.75595,-0.755954 -0.45076,-0.22538 -1.15554,0.356359 -1.5119,0 -0.17818,-0.178178 0.17818,-0.577771 0,-0.755952 -0.35636,-0.356359 -1.06114,0.225383 -1.51191,0 -0.31874,-0.159369 -0.43721,-0.596582 -0.75595,-0.755951 -0.22538,-0.112692 -0.53057,0.112691 -0.75595,0 -0.31874,-0.159369 -0.43722,-0.596585 -0.75596,-0.755952 -0.45076,-0.225382 -1.06114,0.22538 -1.5119,0 -0.31874,-0.159369 -0.43721,-0.596585 -0.75595,-0.755954 -0.22538,-0.112691 -0.57778,0.178181 -0.75595,0 -0.17819,-0.178178 0.17817,-0.577773 0,-0.755952 -0.17819,-0.178181 -0.53058,0.112692 -0.75596,0 -0.31873,-0.159369 -0.43721,-0.596582 -0.75595,-0.755951 -0.45076,-0.225383 -1.06114,0.22538 -1.5119,0 -0.31874,-0.159369 -0.43722,-0.596585 -0.75596,-0.755955 -0.22538,-0.112688 -0.57777,0.178181 -0.75595,0 -0.17818,-0.178178 0.17818,-0.57777 0,-0.755951 -0.17818,-0.178179 -0.53057,0.112691 -0.75595,0 -0.31874,-0.159369 -0.43722,-0.596583 -0.75595,-0.755952 -0.22538,-0.112691 -0.53057,0.112692 -0.75596,0 -0.31873,-0.159369 -0.43721,-0.596585 -0.75595,-0.755951 -0.22538,-0.112692 -0.53057,0.112688 -0.75595,0 -0.31874,-0.15937 -0.43722,-0.596586 -0.75595,-0.755955 -0.22538,-0.112691 -0.53057,0.112692 -0.75596,0 -0.31873,-0.159369 -0.43721,-0.596582 -0.75595,-0.755951 -0.45076,-0.225383 -1.06114,0.22538 -1.5119,0 -0.31874,-0.159369 -0.43722,-0.596583 -0.75595,-0.755952 -0.22539,-0.112691 -0.53058,0.112689 -0.75596,0 -0.31873,-0.159369 -0.43721,-0.596585 -0.75595,-0.755954 -0.22538,-0.112689 -0.50397,0 -0.75595,0 -0.25199,-0.251984 -0.43722,-0.596583 -0.75595,-0.755952 -0.45077,-0.22538 -1.06115,0.225383 -1.51191,0 -0.63747,-0.318738 -0.87443,-1.193167 -1.5119,-1.511903 -0.22539,-0.112691 -0.57778,0.178178 -0.75596,0 -0.17818,-0.178181 0.17818,-0.577773 0,-0.755954 -0.35636,-0.35636 -1.15554,0.356359 -1.5119,0 -0.17818,-0.178179 0.17818,-0.577774 0,-0.755952 -0.35636,-0.356359 -1.06114,0.22538 -1.51191,0 -0.31873,-0.159369 -0.43721,-0.596582 -0.75595,-0.755952 -0.45076,-0.225382 -1.06114,0.22538 -1.5119,0 -0.31874,-0.159369 -0.43722,-0.596585 -0.75596,-0.755954 -0.60476,-0.302379 -1.66309,0.302382 -2.26785,0 -0.31874,-0.159366 -0.43722,-0.596582 -0.75595,-0.755951 -0.45077,-0.22538 -1.061145,0.225382 -1.51191,0 -0.318736,-0.15937 -0.437214,-0.596583 -0.755952,-0.755952 -0.604761,-0.302382 -1.663094,0.302382 -2.267858,0 -0.318735,-0.159369 -0.437213,-0.596585 -0.755951,-0.755952 -0.450763,-0.225382 -1.155547,0.35636 -1.511906,0 -0.178178,-0.178181 0.178181,-0.577773 0,-0.755954 -0.178178,-0.178178 -0.530569,0.112691 -0.755952,0 -0.318738,-0.159369 -0.437213,-0.596582 -0.755951,-0.755952 -0.450763,-0.225382 -1.155547,0.35636 -1.511906,0 -0.178179,-0.178181 0.178181,-0.577773 0,-0.755951 -0.178179,-0.178181 -0.530569,0.112689 -0.755952,0 -2.507178,-2.507179 0.712719,0.356359 -1.511906,-0.755954 -0.318735,-0.159367 -0.437213,-0.596583 -0.755951,-0.755952 -0.22538,-0.112691 -0.516898,0.07968 -0.755952,0 -0.53454,-0.178178 -0.977365,-0.577773 -1.511906,-0.755952 -0.478105,-0.159369 -1.06114,0.22538 -1.511903,0 -0.318738,-0.159369 -0.437216,-0.596585 -0.755954,-0.755951 -0.22538,-0.112692 -0.530569,0.112688 -0.755952,0 -0.318738,-0.159369 -0.41788,-0.643263 -0.755952,-0.755954 -0.478107,-0.15937 -1.007938,0 -1.511905,0 -0.251984,0 -0.530569,0.112691 -0.755952,0 -0.318738,-0.15937 -0.437216,-0.596583 -0.755952,-0.755952 -0.225382,-0.112691 -0.5169,0.07968 -0.755954,0 -0.534538,-0.178181 -0.977365,-0.577773 -1.511903,-0.755952 -0.239054,-0.07968 -0.530572,0.112689 -0.755952,0 -0.318738,-0.159369 -0.41788,-0.643263 -0.755954,-0.755954 -0.478105,-0.159366 -1.033798,0.159369 -1.511903,0 -0.338074,-0.112689 -0.437216,-0.596582 -0.755954,-0.755952 -0.22538,-0.112691 -0.516898,0.07969 -0.755952,0 -0.534538,-0.178178 -0.977366,-0.577773 -1.511903,-0.755951 -0.239054,-0.07968 -0.516901,0.07968 -0.755955,0 -0.534537,-0.178181 -0.977365,-0.577773 -1.511903,-0.755952 -0.239053,-0.07968 -0.530571,0.112689 -0.755954,0 -3.459697,-1.729851 3.207821,0.31332 -2.267855,-1.511906 -0.239054,-0.07968 -0.516901,0.07969 -0.755954,0 -0.534538,-0.178181 -0.977366,-0.577773 -1.511903,-0.755951 -0.239054,-0.07969 -0.530572,0.112688 -0.755955,0 -0.318735,-0.159369 -0.41788,-0.643263 -0.755951,-0.755955 -0.478105,-0.159366 -1.033799,0.15937 -1.511904,0 -0.338074,-0.112688 -0.41788,-0.64326 -0.755954,-0.755951 -1.506035,-0.502013 -1.263832,0.334674 -2.267857,0 -0.534538,-0.178179 -0.977366,-0.577773 -1.511904,-0.755952 -0.753017,-0.251007 -1.263835,0.334674 -2.267857,0 -0.338071,-0.112691 -0.41788,-0.643263 -0.755952,-0.755951 -0.680357,-0.226788 -1.5875,0.226785 -2.267857,0 -0.53454,-0.178181 -0.977366,-0.577774 -1.511906,-0.755955 -0.720127,-0.24004 -3.043428,0.245446 -3.779761,0 -0.53454,-0.178178 -0.977365,-0.577773 -1.511906,-0.755951 -0.478104,-0.159369 -1.007935,0 -1.511903,0 -1.511906,0 -3.023809,0 -4.535715,0 -4.283731,0 -8.567459,0 -12.85119,0 -0.535821,0 -4.340262,0.09773 -4.535714,0 -0.318738,-0.159369 -0.437215,-0.596583 -0.755953,-0.755952 -0.240902,-0.120451 -3.10415,0 -3.779762,0 -3.023809,0 -6.0476186,0 -9.071428,0 -0.1833388,0 -2.2435457,-0.02432 -2.2678572,0 -0.1781797,0.178178 0.1781797,0.577771 0,0.755952 -0.3779761,0.377976 -1.8898809,-0.377976 -2.2678571,0 -0.1781796,0.178178 0,0.503967 0,0.755951 0,0.251984 -0.1126907,0.530572 0,0.755955 0.1593688,0.318735 0.4372149,0.596582 0.7559524,0.755951 0.299729,0.149863 2.1133129,-0.154546 2.2678571,0 0.1781797,0.178179 -0.1781797,0.577773 0,0.755952 0.1781797,0.178181 0.5039683,0 0.7559524,0 0.2519841,0 0.5039683,0 0.7559524,0 0.3404489,0 2.0377952,-0.11503 2.267857,0 0.3187377,0.159369 0.4372149,0.596585 0.7559524,0.755951 0.2300621,0.115033 1.9274086,0 2.2678576,0 2.015872,0 4.031746,0 6.047619,0 1.763888,0 3.527777,0 5.291666,0 0.340449,0 2.037795,0.115033 2.267857,0 0.318738,-0.159366 0.437215,-0.596582 0.755953,-0.755951 0.225381,-0.112692 0.503968,0 0.755952,0 0.251984,0 0.503968,0 0.755952,0 1.259922,0 2.519841,0 3.779763,0 4.031745,0 8.063492,0 12.095236,0 0.848892,0 4.751232,0.180144 5.291667,0 0.53454,-0.178179 0.977366,-0.577773 1.511906,-0.755952 0.478105,-0.159369 1.007935,0 1.511903,0 1.007938,0 2.015874,0 3.023812,0 0.503968,0 1.007935,0 1.511903,0 0.251984,0 0.530572,-0.112691 0.755952,0 0.318738,0.159369 0.437216,0.596583 0.755954,0.755952 0.476906,0.238453 3.302855,-0.238453 3.779761,0 0.318738,0.159369 0.437216,0.596585 0.755951,0.755951 0.459034,0.229516 4.076684,-0.229515 4.535715,0 0.318739,0.15937 0.437216,0.596586 0.755952,0.755955 0.450765,0.22538 1.061143,-0.225383 1.511906,0 0.318738,0.159369 0.437216,0.596582 0.755951,0.755951 0.604764,0.302382 1.663097,-0.302381 2.267858,0 0.318738,0.159369 0.437216,0.596583 0.755952,0.755952 0.225382,0.112691 0.530571,-0.112691 0.755954,0 0.318735,0.159369 0.437213,0.596585 0.755951,0.755954 0.475134,0.237564 2.548676,-0.237567 3.02381,0 0.318738,0.159367 0.437216,0.596583 0.755951,0.755952 0.450765,0.22538 1.061143,-0.225383 1.511906,0 0.318738,0.159369 0.437216,0.596582 0.755952,0.755951 0.450762,0.225383 1.061143,-0.22538 1.511905,0 0.318739,0.15937 0.437214,0.596586 0.755952,0.755952 0.225383,0.112691 0.530572,-0.112689 0.755952,0 0.318738,0.159369 0.437216,0.596585 0.755954,0.755954 0.22538,0.112689 0.530569,-0.112691 0.755952,0 0.318738,0.159369 0.437216,0.596583 0.755951,0.755952 0.475134,0.237567 2.548679,-0.237567 3.023809,0 0.318739,0.159369 0.437216,0.596582 0.755955,0.755952 0.476906,0.238453 3.302854,-0.238454 3.77976,0 0.318739,0.159369 0.437216,0.596585 0.755952,0.755954 0.476909,0.238453 3.302854,-0.238456 3.779763,0 0.318739,0.159366 0.437214,0.596582 0.755952,0.755951 0.476909,0.238453 3.302852,-0.238453 3.779762,0 0.31874,0.15937 0.43721,0.596583 0.75595,0.755952 0.45903,0.229515 4.07668,-0.229515 4.53572,0 0.31873,0.159369 0.43721,0.596585 0.75595,0.755952 0.45076,0.225382 1.06114,-0.22538 1.5119,0 0.31874,0.159369 0.43722,0.596585 0.75596,0.755954 0.47513,0.237567 2.54867,-0.237567 3.02381,0 0.31873,0.159369 0.43721,0.596582 0.75595,0.755951 0.45903,0.229516 4.07668,-0.229515 4.53571,0 0.31874,0.15937 0.43722,0.596583 0.75595,0.755952 0.19546,0.09773 3.9999,0 4.53572,0 0.25198,0 0.50397,0 0.75595,0 0.25198,0 0.57777,-0.178178 0.75595,0 0.17818,0.178181 -0.17818,0.577773 0,0.755954 0.23408,0.234077 3.54569,-0.234079 3.77977,0 0.17817,0.178179 -0.17819,0.577771 0,0.755952 0.17817,0.178178 0.50396,0 0.75595,0 0.25198,0 0.50397,0 0.75595,0 0.27761,0 2.99339,0.03042 3.02381,0 0.17818,-0.178181 -0.17818,-0.577773 0,-0.755952 0.17818,-0.178181 0.53057,0.112689 0.75595,0 1.04929,-0.524647 0.75595,-1.34508 0.75595,-2.267857"
       id="path5279"
       inkscape:connector-curvature="0" />
  </g>
</svg>
