<?xml version="1.0" encoding="UTF-8" standalone="no"?>
<!-- Created with Inkscape (http://www.inkscape.org/) -->

<svg
   xmlns:dc="http://purl.org/dc/elements/1.1/"
   xmlns:cc="http://creativecommons.org/ns#"
   xmlns:rdf="http://www.w3.org/1999/02/22-rdf-syntax-ns#"
   xmlns:svg="http://www.w3.org/2000/svg"
   xmlns="http://www.w3.org/2000/svg"
   xmlns:xlink="http://www.w3.org/1999/xlink"
   xmlns:sodipodi="http://sodipodi.sourceforge.net/DTD/sodipodi-0.dtd"
   xmlns:inkscape="http://www.inkscape.org/namespaces/inkscape"
   width="210mm"
   height="297mm"
   viewBox="0 0 210 297"
   version="1.1"
   id="svg4501"
   inkscape:version="0.92.3 (2405546, 2018-03-11)"
   sodipodi:docname="ohta-lm-center.svg">
  <defs
     id="defs4495" />
  <sodipodi:namedview
     id="base"
     pagecolor="#ffffff"
     bordercolor="#666666"
     borderopacity="1.0"
     inkscape:pageopacity="0.0"
     inkscape:pageshadow="2"
     inkscape:zoom="0.35"
     inkscape:cx="471.38033"
     inkscape:cy="487.26434"
     inkscape:document-units="mm"
     inkscape:current-layer="layer1"
     showgrid="false"
     inkscape:window-width="1366"
     inkscape:window-height="715"
     inkscape:window-x="0"
     inkscape:window-y="0"
     inkscape:window-maximized="1" />
  <metadata
     id="metadata4498">
    <rdf:RDF>
      <cc:Work
         rdf:about="">
        <dc:format>image/svg+xml</dc:format>
        <dc:type
           rdf:resource="http://purl.org/dc/dcmitype/StillImage" />
        <dc:title></dc:title>
      </cc:Work>
    </rdf:RDF>
  </metadata>
  <g
     inkscape:label="Layer 1"
     inkscape:groupmode="layer"
     id="layer1">
    <image
       sodipodi:absref="/home/aanper/project/luysy-imn-eh/pi/boot/bydefault/web/img/ohta.png"
       y="-0.0074072876"
       x="-0.02204407"
       id="image5121"
       xlink:href="file:///home/aanper/project/luysy-imn-eh/pi/boot/bydefault/web/img/ohta.png"
       preserveAspectRatio="none"
       height="343.60559"
       width="265.28888" />
    <ellipse
       style="fill:#000000;fill-opacity:1;stroke:#00ff00;stroke-width:0.30000001;stroke-miterlimit:4;stroke-dasharray:none;stroke-opacity:1;paint-order:stroke fill markers"
       id="path5124"
       cx="137.58333"
       cy="52.827377"
       rx="5.2916665"
       ry="4.5357141" />
    <ellipse
       style="fill:#000000;fill-opacity:1;stroke:#00ff00;stroke-width:0.30000001;stroke-miterlimit:4;stroke-dasharray:none;stroke-opacity:1;paint-order:stroke fill markers"
       id="path5126"
       cx="50.45982"
       cy="313.25296"
       rx="2.8348215"
       ry="3.0238097" />
    <circle
       style="fill:#000000;fill-opacity:1;stroke:#00ff00;stroke-width:0.30000001;stroke-miterlimit:4;stroke-dasharray:none;stroke-opacity:1;paint-order:stroke fill markers"
       id="path5128"
       cx="220.73808"
       cy="98.5625"
       r="2.2678571" />
    <path
       style="fill:none;fill-opacity:1;stroke:#00ff00;stroke-width:0.30000001;stroke-miterlimit:4;stroke-dasharray:none;stroke-opacity:1;paint-order:stroke fill markers"
       d="m 50.648809,316.65476 c -1.007936,-0.75594 -2.13291,-1.37697 -3.02381,-2.26785 -0.178181,-0.1782 0.178181,-0.57777 0,-0.75597 -0.178181,-0.17817 -0.577773,0.1782 -0.755951,0 -0.178181,-0.17817 0.178178,-0.57777 0,-0.75594 -0.178181,-0.17817 -0.530572,0.11269 -0.755954,0 -0.907143,-0.45358 -1.360713,-1.8143 -2.267855,-2.26785 -0.225383,-0.11271 -0.577774,0.17817 -0.755955,0 -0.178178,-0.1782 0.178181,-0.5778 0,-0.75597 -0.356359,-0.35636 -1.155543,0.35637 -1.511903,0 -0.178181,-0.17817 0.178179,-0.57777 0,-0.75594 -0.178181,-0.17819 -0.577773,0.17817 -0.755954,0 -0.178178,-0.17819 0.178181,-0.57777 0,-0.75597 -0.178178,-0.17817 -0.577771,0.1782 -0.755952,0 -0.178178,-0.17817 0.178181,-0.57777 0,-0.75594 -0.356359,-0.35636 -1.155544,0.35637 -1.511903,0 -0.178181,-0.17817 0.178178,-0.57777 0,-0.75596 -0.178181,-0.17817 -0.530572,0.11271 -0.755954,0 -0.318736,-0.15936 -0.437214,-0.59659 -0.755952,-0.75595 -0.225382,-0.11268 -0.530571,0.11269 -0.755951,0 -0.318739,-0.15935 -0.437216,-0.59658 -0.755955,-0.75594 -0.450762,-0.22539 -1.06114,0.22538 -1.511903,0 -0.318738,-0.15938 -0.437216,-0.59658 -0.755952,-0.75596 -0.225382,-0.11269 -0.530571,0.11268 -0.755954,0 -0.318735,-0.15936 -0.437213,-0.59659 -0.755951,-0.75594 -0.450763,-0.2254 -1.061141,0.22537 -1.511906,0 -0.318736,-0.15939 -0.437214,-0.59659 -0.755952,-0.75597 -0.22538,-0.11269 -0.530571,0.11268 -0.755952,0 -0.318738,-0.15936 -0.437216,-0.59658 -0.755951,-0.75594 -0.225383,-0.11269 -0.577773,0.17817 -0.755954,0 -0.178179,-0.17817 0.178181,-0.57777 0,-0.75597 -0.178179,-0.17817 -0.577771,0.1782 -0.755952,0 -0.17818,-0.17817 0.178181,-0.57777 0,-0.75594 -0.17818,-0.17817 -0.577773,0.17817 -0.755952,0 -0.17818,-0.17817 0.11269,-0.53057 0,-0.75594 -0.159369,-0.31875 -0.503969,-0.50398 -0.755953,-0.75597 -0.444609,-0.44461 -2.848776,-2.67375 -3.023809,-3.02382 -0.112691,-0.22537 0.178179,-0.57777 0,-0.75594 -0.17818,-0.17817 -0.577773,0.17817 -0.755953,0 -0.356359,-0.35637 0.225382,-1.06114 0,-1.51191 -0.586154,-1.17231 -0.92575,-0.33959 -1.511904,-1.51191 -0.112691,-0.22537 0.178179,-0.57777 0,-0.75594 -0.17818,-0.17817 -0.577773,0.17817 -0.755953,0 -0.17818,-0.17817 0.112691,-0.53057 0,-0.75596 -0.835726,-1.67146 -0.469176,-0.23458 -1.511904,-0.75594 -0.637476,-0.31875 -0.87443,-1.19317 -1.511905,-1.51191 -0.225382,-0.11269 -0.577773,0.17817 -0.755953,0 -0.178179,-0.17817 0.112691,-0.53057 0,-0.75594 -0.100356,-0.20072 -2.067143,-2.16752 -2.267857,-2.26788 -0.225381,-0.11269 -0.577772,0.1782 -0.755952,0 -1.564093,-1.56408 2.39014,0.0611 -0.755952,-1.51188 -0.225382,-0.11272 -0.530571,0.11268 -0.755953,0 -0.6374747,-0.31875 -0.8744294,-1.19319 -1.5119046,-1.51191 -0.2253814,-0.11269 -0.5305708,0.11268 -0.7559524,0 -0.3187375,-0.15939 -0.4372147,-0.59658 -0.7559522,-0.75597 -0.2253816,-0.11268 -0.5777727,0.1782 -0.7559524,0 -0.1781797,-0.17817 0.1781797,-0.57777 0,-0.75594 -0.1781797,-0.17817 -0.5777727,0.17817 -0.7559524,0 -0.1781797,-0.17817 0.1781797,-0.57777 0,-0.75597 -0.1781797,-0.17817 -0.5039683,0 -0.7559524,0 -0.2519841,0 -0.5777727,-0.17817 -0.7559524,0 -0.1781797,0.1782 0.1781797,0.5778 0,0.75597 -0.1781797,0.17817 -0.5777727,-0.17817 -0.7559524,0 -0.1781797,0.17817 0.1781797,0.57777 0,0.75594 -0.1781797,0.1782 -0.5305708,-0.11268 -0.7559524,0 -0.3187375,0.15939 -0.5039682,0.50398 -0.7559523,0.75597 -0.2519841,0.25199 -0.5039682,0.50395 -0.7559524,0.75594 -0.2519841,0.25199 -0.5039682,1.00793 -0.75595232,0.75597 -0.25198413,-0.25199 0.50396822,-0.50398 0.75595232,-0.75597"
       id="path5258"
       inkscape:connector-curvature="0" />
  </g>
</svg>
