<?xml version="1.0" encoding="UTF-8" standalone="no"?>
<!-- Created with Inkscape (http://www.inkscape.org/) -->

<svg
   xmlns:dc="http://purl.org/dc/elements/1.1/"
   xmlns:cc="http://creativecommons.org/ns#"
   xmlns:rdf="http://www.w3.org/1999/02/22-rdf-syntax-ns#"
   xmlns:svg="http://www.w3.org/2000/svg"
   xmlns="http://www.w3.org/2000/svg"
   xmlns:xlink="http://www.w3.org/1999/xlink"
   xmlns:sodipodi="http://sodipodi.sourceforge.net/DTD/sodipodi-0.dtd"
   xmlns:inkscape="http://www.inkscape.org/namespaces/inkscape"
   width="210mm"
   height="297mm"
   viewBox="0 0 210 297"
   version="1.1"
   id="svg4501"
   inkscape:version="0.92.3 (2405546, 2018-03-11)"
   sodipodi:docname="ohta-lm-beercake.svg">
  <defs
     id="defs4495" />
  <sodipodi:namedview
     id="base"
     pagecolor="#ffffff"
     bordercolor="#666666"
     borderopacity="1.0"
     inkscape:pageopacity="0.0"
     inkscape:pageshadow="2"
     inkscape:zoom="0.49497475"
     inkscape:cx="508.46939"
     inkscape:cy="388.84683"
     inkscape:document-units="mm"
     inkscape:current-layer="layer1"
     showgrid="false"
     inkscape:window-width="1366"
     inkscape:window-height="715"
     inkscape:window-x="0"
     inkscape:window-y="0"
     inkscape:window-maximized="1" />
  <metadata
     id="metadata4498">
    <rdf:RDF>
      <cc:Work
         rdf:about="">
        <dc:format>image/svg+xml</dc:format>
        <dc:type
           rdf:resource="http://purl.org/dc/dcmitype/StillImage" />
        <dc:title></dc:title>
      </cc:Work>
    </rdf:RDF>
  </metadata>
  <g
     inkscape:label="Layer 1"
     inkscape:groupmode="layer"
     id="layer1">
    <image
       sodipodi:absref="/home/aanper/project/luysy-imn-eh/pi/boot/bydefault/web/img/ohta.png"
       y="-0.0074072876"
       x="-0.02204407"
       id="image5121"
       xlink:href="file:///home/aanper/project/luysy-imn-eh/pi/boot/bydefault/web/img/ohta.png"
       preserveAspectRatio="none"
       height="343.60559"
       width="265.28888" />
    <ellipse
       style="fill:#000000;fill-opacity:1;stroke:#00ff00;stroke-width:0.30000001;stroke-miterlimit:4;stroke-dasharray:none;stroke-opacity:1;paint-order:stroke fill markers"
       id="path5124"
       cx="137.58333"
       cy="52.827377"
       rx="5.2916665"
       ry="4.5357141" />
    <ellipse
       style="fill:#000000;fill-opacity:1;stroke:#00ff00;stroke-width:0.30000001;stroke-miterlimit:4;stroke-dasharray:none;stroke-opacity:1;paint-order:stroke fill markers"
       id="path5126"
       cx="50.45982"
       cy="313.25296"
       rx="2.8348215"
       ry="3.0238097" />
    <circle
       style="fill:#000000;fill-opacity:1;stroke:#00ff00;stroke-width:0.30000001;stroke-miterlimit:4;stroke-dasharray:none;stroke-opacity:1;paint-order:stroke fill markers"
       id="path5128"
       cx="220.73808"
       cy="98.5625"
       r="2.2678571" />
    <path
       style="fill:none;fill-opacity:1;stroke:#00ff00;stroke-width:0.30000001;stroke-miterlimit:4;stroke-dasharray:none;stroke-opacity:1;paint-order:stroke fill markers"
       d="m 56.126599,310.89801 c 0.53454,-0.71271 1.069078,-1.42545 1.603618,-2.13815 0.178179,0 0.375172,0.0797 0.534538,0 0.450765,-0.22538 0.618315,-0.84371 1.069078,-1.06908 0.159369,-0.0797 0.408548,0.126 0.53454,0 0.125992,-0.12599 -0.125992,-0.40854 0,-0.53454 0.125992,-0.12599 0.375172,0.0797 0.534541,0 0.22538,-0.11268 0.309155,-0.42185 0.534537,-0.53453 0.15937,-0.0797 0.408546,0.12599 0.534541,0 0.125992,-0.126 -0.125995,-0.40855 0,-0.53454 0.251984,-0.25199 0.75034,0.15936 1.069078,0 0.22538,-0.11269 0.309158,-0.42185 0.534538,-0.53454 0.318738,-0.15939 0.750339,0.15936 1.069078,0 0.225382,-0.11271 0.309157,-0.42185 0.53454,-0.53454 0.289981,-0.14499 1.991894,0.14626 2.138156,0 0.125992,-0.12599 -0.125992,-0.40857 0,-0.53454 0.02424,-0.0243 2.42066,0 2.672694,0 0.178181,0 0.408548,0.12597 0.53454,0 0.125992,-0.12599 -0.125992,-0.40857 0,-0.53453 0.125992,-0.126 0.35636,0 0.534538,0 0.178181,0 0.375171,-0.0797 0.53454,0 0.22538,0.11268 0.309158,0.42182 0.534538,0.53453 0.159369,0.0797 0.356359,0 0.53454,0 0.178179,0 0.35636,0 0.534538,0 1.069078,0 2.138156,0 3.207234,0 0.240734,0 1.440939,-0.0813 1.603619,0 0.22538,0.11269 0.309157,0.42183 0.534537,0.53454 0.159369,0.0797 0.35636,0 0.534541,0 0.178178,0 0.356359,0 0.534537,0 1.247259,0 2.494516,0 3.741775,0 0.240734,0 1.440939,-0.0814 1.603616,0 0.225382,0.11269 0.309157,0.42183 0.53454,0.53454 0.337225,0.16859 2.335472,-0.16862 2.672694,0 0.225382,0.11269 0.309157,0.42185 0.53454,0.53454 0.369223,0.1846 2.485062,-0.18764 2.672696,0 0.125992,0.12599 -0.125994,0.40854 0,0.53454 0.125992,0.12599 0.35636,0 0.534538,0 0.371793,0 2.479389,-0.0967 2.672697,0 0.22538,0.11268 0.309157,0.42185 0.534537,0.53453 0.159369,0.0797 0.35636,0 0.534541,0 0.37888,0 3.069029,-0.0691 3.207234,0 0.22538,0.11269 0.309157,0.42185 0.534538,0.53454 0.159369,0.0797 0.356359,0 0.53454,0 0.178178,0 0.356359,0 0.534538,0 0.378878,0 3.069028,-0.0691 3.207238,0 0.22538,0.11269 0.30915,0.42185 0.53454,0.53454 0.15937,0.0797 0.35636,0 0.53453,0 0.17818,0 0.35636,0 0.53454,0 1.06908,0 2.13816,0 3.20724,0 0.17818,0 0.35636,0 0.53454,0 0.17818,0 0.37517,-0.0797 0.53454,0 0.22538,0.11268 0.30915,0.42185 0.53453,0.53454 0.16268,0.0813 1.36289,0 1.60362,0 1.42544,0 2.85088,0 4.27631,0 0.17818,0 0.35636,0 0.53454,0 0.17818,0 0.37517,-0.0797 0.53454,0 0.22538,0.11268 0.30916,0.42185 0.53454,0.53453 0.13821,0.0691 2.82835,0 3.20724,0 0.17818,0 0.37517,-0.0797 0.53453,0 0.22539,0.11269 0.30916,0.42186 0.53455,0.53454 0.14055,0.0703 1.85863,0 2.13815,0 1.42544,0 2.85088,0 4.27631,0 0.27953,0 1.9976,-0.0703 2.13816,0 0.22538,0.11269 0.30916,0.42185 0.53454,0.53454 0.14055,0.0703 1.85863,0 2.13815,0 1.42544,0 2.85088,0 4.27632,0 0.12964,0 1.58642,0.0172 1.60361,0 0.126,-0.126 -0.12599,-0.40854 0,-0.53454 0.16552,-0.16552 2.50718,0.16552 2.6727,0 0.12599,-0.12599 -0.12599,-0.40854 0,-0.53454 0.12862,-0.12861 2.00953,0.12864 2.13815,0 0.126,-0.12599 -0.12599,-0.40854 0,-0.53453 0.10928,-0.10928 1.39168,0.10596 1.60362,0 0.22538,-0.11269 0.30916,-0.42186 0.53454,-0.53454 0.42763,-0.21381 1.17599,0.21381 1.60362,0 0.22538,-0.11269 0.30916,-0.42185 0.53454,-0.53454 0.28998,-0.14499 1.99189,0.14626 2.13815,0 0.126,-0.12599 -0.12599,-0.40854 0,-0.53454 0.12863,-0.12864 2.00953,0.12862 2.13816,0 0.12599,-0.12599 -0.12599,-0.40854 0,-0.53453 0.12599,-0.126 0.35636,0 0.53454,0 0.8909,0 1.7818,0 2.6727,0 0.17817,0 0.35635,0 0.53453,0 0.17818,0 0.40855,-0.126 0.53454,0 0.126,0.12599 -0.12599,0.40854 0,0.53453 0.10928,0.10928 1.39168,-0.10596 1.60362,0 0.22538,0.11269 0.30916,0.42185 0.53454,0.53454 0.15937,0.0797 0.37517,-0.0797 0.53454,0 0.22538,0.11269 0.30915,0.42185 0.53454,0.53454 0.33597,0.16798 1.80218,-0.16799 2.13815,0 0.22538,0.11268 0.30916,0.42185 0.53454,0.53454 0.21194,0.10596 1.49434,-0.10928 1.60362,0 0.12599,0.12599 -0.12599,0.40854 0,0.53453 0.12863,0.12864 2.00953,-0.12861 2.13816,0 0.12599,0.126 -0.126,0.40855 0,0.53454 0.26726,0.26728 1.33634,-0.26725 1.60361,0 0.12599,0.126 -0.12599,0.40854 0,0.53454 0.14626,0.14626 1.84818,-0.14499 2.13816,0 0.22538,0.11269 0.30916,0.42185 0.53454,0.53454 0.33597,0.16798 1.80218,-0.16799 2.13815,0 0.22538,0.11268 0.30916,0.42185 0.53454,0.53453 0.16268,0.0813 1.36289,0 1.60362,0 1.42544,0 2.85087,0 4.27631,0 0.27952,0 1.99761,-0.0703 2.13816,0 0.22538,0.11269 0.30916,0.42186 0.53454,0.53454 0.15937,0.0797 0.35636,0 0.53454,0 0.17818,0 0.35636,0 0.53454,0 1.06907,0 2.13815,0 3.20723,0 0.24073,0 1.44094,-0.0813 1.60362,0 0.22538,0.11269 0.30915,0.42185 0.53454,0.53454 0.1933,0.0967 2.3009,0 2.67269,0 0.17818,0 0.40855,-0.12599 0.53454,0 0.12599,0.12599 -0.12599,0.40854 0,0.53454 0.25198,0.25199 0.75034,-0.15936 1.06908,0 0.22538,0.11271 0.30916,0.42185 0.53454,0.53454 0.21194,0.10599 1.49433,-0.10928 1.60362,0 0.12599,0.12599 -0.126,0.40857 0,0.53453 0.12862,0.12864 2.00952,-0.12861 2.13815,0 0.12599,0.126 -0.12599,0.40857 0,0.53457 0.0215,0.0214 1.94186,0 2.13816,0 1.24725,0 2.49451,0 3.74177,0 0.17818,0 0.40855,0.12597 0.53454,0 0.12599,-0.126 -0.12599,-0.40857 0,-0.53457 0.25198,-0.25196 0.75034,0.15939 1.06908,0 0.22538,-0.11268 0.30916,-0.42182 0.53454,-0.53453 0.15936,-0.0797 0.40854,0.12599 0.53454,0 0.12599,-0.12597 -0.126,-0.40855 0,-0.53454 0.12599,-0.126 0.40854,0.12599 0.53453,0 0.126,-0.126 -0.12599,-0.40855 0,-0.53454 0.126,-0.12599 0.40855,0.12599 0.53454,0 0.126,-0.12599 -0.12599,-0.40854 0,-0.53454 0.126,-0.12599 0.40855,0.126 0.53454,0 0.126,-0.12599 -0.12599,-0.40854 0,-0.53454 0.126,-0.12599 0.40855,0.126 0.53454,0 0.12599,-0.12599 -0.0797,-0.37515 0,-0.53453 0.11269,-0.22538 0.42185,-0.30917 0.53454,-0.53454 0.0797,-0.15936 -0.12599,-0.40854 0,-0.53454 0.12599,-0.12599 0.40855,0.126 0.53454,0 0.12599,-0.12599 -0.0797,-0.37518 0,-0.53454 0.11269,-0.22537 0.42185,-0.30916 0.53454,-0.53453 0.0797,-0.15936 -0.0797,-0.37518 0,-0.53454 0.11269,-0.22537 0.42185,-0.30917 0.53454,-0.53454 0.0797,-0.15938 -0.12599,-0.40854 0,-0.53454 0.12599,-0.12599 0.40854,0.126 0.53454,0 0.12599,-0.12599 -0.126,-0.40854 0,-0.53453 0.12599,-0.126 0.40854,0.12599 0.53454,0 0.12599,-0.126 -0.0797,-0.37518 0,-0.53454 0.11269,-0.2254 0.42184,-0.30917 0.53454,-0.53454 0.0797,-0.15939 -0.126,-0.40854 0,-0.53454 0.12599,-0.12599 0.40854,0.126 0.53453,0 0.126,-0.12599 -0.12599,-0.40857 0,-0.53454 0.126,-0.12599 0.40855,0.12597 0.53454,0 0.25199,-0.25198 -0.25198,-0.81711 0,-1.0691 0.126,-0.12597 0.40855,0.126 0.53454,0 0.25199,-0.25196 -0.25198,-0.81708 0,-1.06907 0.12599,-0.126 0.40855,0.12599 0.53454,0 0.25199,-0.25197 -0.15937,-0.75033 0,-1.06908 0.11269,-0.22537 0.42185,-0.30914 0.53454,-0.53454 0.10597,-0.21193 -0.10928,-1.49434 0,-1.60361 0.12599,-0.12599 0.40855,0.126 0.53454,0 0.10928,-0.10927 -0.10597,-1.39168 0,-1.60361 0.11269,-0.22537 0.42185,-0.30917 0.53454,-0.53454 0.21381,-0.42765 -0.21382,-1.17599 0,-1.60361 0.11269,-0.2254 0.42185,-0.30917 0.53454,-0.53454 0.21381,-0.42765 -0.21382,-1.17599 0,-1.60364 0.11269,-0.22537 0.42184,-0.30914 0.53454,-0.53454 0.16861,-0.33721 -0.16861,-2.33545 0,-2.67269 0.11269,-0.22537 0.42185,-0.30916 0.53454,-0.53453 0.21381,-0.42762 -0.21382,-1.176 0,-1.60362 0.11269,-0.22537 0.42184,-0.30916 0.53453,-0.53453 0.10598,-0.21194 -0.10927,-1.49435 0,-1.60362 0.126,-0.12599 0.40855,0.126 0.53454,0 0.25199,-0.25199 -0.15936,-0.75036 0,-1.06907 0.11269,-0.2254 0.42185,-0.30917 0.53454,-0.53454 0.21382,-0.42765 -0.21381,-1.17599 0,-1.60364 0.11269,-0.22537 0.42185,-0.30914 0.53454,-0.53454 0.15937,-0.31872 -0.15937,-0.75033 0,-1.06907 0.11269,-0.22538 0.42185,-0.30914 0.53454,-0.53454 0.15937,-0.31872 -0.15937,-0.75033 0,-1.06908 0.11269,-0.22537 0.45486,-0.29548 0.53454,-0.53453 0.11269,-0.33806 0,-0.71271 0,-1.06908 0,-0.17817 -0.0797,-0.37518 0,-0.53454 0.11269,-0.22537 0.42185,-0.30916 0.53454,-0.53454 0.15937,-0.31874 -0.15937,-0.75033 0,-1.06907 0.11269,-0.2254 0.45485,-0.29549 0.53454,-0.53454 0.11269,-0.33808 -0.11269,-0.73102 0,-1.06907 0.0797,-0.23905 0.42185,-0.30917 0.53454,-0.53454 0.0797,-0.15939 -0.0564,-0.36552 0,-0.53454 0.12599,-0.37798 0.40854,-0.69112 0.53454,-1.0691 0.11269,-0.33806 -0.15937,-0.75033 0,-1.06908 0.11269,-0.22537 0.45485,-0.29548 0.53453,-0.53453 0.1127,-0.33806 -0.11269,-0.731 0,-1.06908 0.0797,-0.23905 0.42185,-0.30914 0.53454,-0.53454 0.0797,-0.15936 -0.0797,-0.37518 0,-0.53454 0.11269,-0.22537 0.42185,-0.30916 0.53454,-0.53453 0.0797,-0.15936 0,-0.35637 0,-0.53454 0,-0.35637 -0.11269,-0.73102 0,-1.06908 0.0797,-0.23905 0.42185,-0.30916 0.53454,-0.53453 0.15937,-0.31875 -0.15937,-0.75034 0,-1.06909 0.11269,-0.22538 0.45486,-0.29548 0.53454,-0.53453 0.16468,-0.49405 -0.1662,-2.17409 0,-2.6727 0.12599,-0.37798 0.40855,-0.6911 0.53454,-1.06908 0.12738,-0.38214 0,-3.14152 0,-3.74177 0,-0.17818 0,-0.35636 0,-0.53454 0,-0.17818 -0.0797,-0.37517 0,-0.53454 0.11269,-0.22538 0.45485,-0.29549 0.53454,-0.53454 0.11567,-0.34701 0,-3.25621 0,-3.74177 0,-0.38215 -0.0912,-2.93361 0,-3.20724 0.0797,-0.23905 0.45485,-0.29548 0.53454,-0.53454 0.16903,-0.5071 0,-1.06907 0,-1.60361 0,-1.06908 0,-2.13816 0,-3.20724 0,-0.35635 0,-0.71271 0,-1.06907 0,-0.35636 -0.0864,-0.72336 0,-1.06908 0.0966,-0.38653 0.40854,-0.6911 0.53454,-1.06908 0.0563,-0.16904 0,-0.35636 0,-0.53454 0,-0.35636 0,-0.71272 0,-1.06908 0,-0.71272 0,-1.42544 0,-2.13815 0,-0.17819 -0.0563,-0.36551 0,-0.53454 0.12599,-0.37798 0.43791,-0.68256 0.53454,-1.06908 0.1757,-0.70282 -0.22129,-2.00883 0,-2.6727 0.0797,-0.23905 0.45485,-0.29548 0.53453,-0.53454 0.26728,-0.8018 -0.26726,-1.87088 0,-2.67269 0.0797,-0.23905 0.45486,-0.29549 0.53455,-0.53454 0.16036,-0.48108 -0.16037,-1.12253 0,-1.60362 0.12599,-0.37797 0.40854,-0.6911 0.53453,-1.06907 0.1069,-0.3207 0,-2.24616 0,-2.6727 0,-1.06908 0,-2.13816 0,-3.20724 0,-0.24073 0.0813,-1.44093 0,-1.60361 -0.11269,-0.22538 -0.42184,-0.30916 -0.53453,-0.53454 -0.16862,-0.33723 0.16861,-2.33547 0,-2.6727 -0.1127,-0.22538 -0.42185,-0.30915 -0.53455,-0.53454 -0.0797,-0.15936 0,-0.35635 0,-0.53453 0,-0.17818 0,-0.35636 0,-0.53454 0,-1.06908 0,-2.13816 0,-3.20724 0,-0.41284 -0.1087,-2.88111 0,-3.20723 0.126,-0.37798 0.40855,-0.6911 0.53455,-1.06908 0.16036,-0.48108 -0.16037,-1.12253 0,-1.60362 0.0797,-0.23905 0.42184,-0.30916 0.53453,-0.53454 0.0797,-0.15937 0,-0.35636 0,-0.53454 0,-0.35636 -0.11269,-0.731 0,-1.06907 0.0797,-0.23906 0.45486,-0.29549 0.53454,-0.53454 0.11269,-0.33807 0,-0.71272 0,-1.06908 0,-0.17818 -0.0797,-0.37517 0,-0.53454 0.11269,-0.22538 0.45486,-0.29548 0.53454,-0.53454 0.24329,-0.72985 -0.24328,-2.47738 0,-3.20723 0.0797,-0.23906 0.45486,-0.29549 0.53454,-0.53454 0.24329,-0.72986 -0.24329,-2.47738 0,-3.20724 0.0797,-0.23905 0.42185,-0.30915 0.53454,-0.53453 0.11415,-0.2283 0,-2.46139 0,-2.6727 0,-1.24726 0,-2.49452 0,-3.74177 0,-0.35636 0.11269,-0.73101 0,-1.06908 -0.12599,-0.37798 -0.40855,-0.6911 -0.53454,-1.06908 -0.0563,-0.16904 0,-0.35636 0,-0.53454 0,-0.35636 0,-0.71272 0,-1.06908 0,-1.24725 0,-2.49451 0,-3.74177 0,-0.51702 -0.0793,-3.0487 0,-3.20724 0.11269,-0.22538 0.45485,-0.29548 0.53454,-0.53453 0.16904,-0.50711 0,-1.06908 0,-1.60362 0,-1.06908 0,-2.13816 0,-3.20724 0,-0.24073 -0.0813,-1.44093 0,-1.60361 0.11269,-0.22538 0.42185,-0.30916 0.53454,-0.53454 0.0703,-0.14055 0,-1.85864 0,-2.13816 0,-1.06908 0,-2.13815 0,-3.20723 0,-0.17818 0,-0.35636 0,-0.53454 0,-0.17818 0.0797,-0.37517 0,-0.53454 -0.11269,-0.22538 -0.42185,-0.30916 -0.53454,-0.53454 -0.0852,-0.17034 0,-2.19497 0,-2.67269 0,-1.42544 0,-2.85088 0,-4.27632 0,-0.27952 -0.0703,-1.9976 0,-2.13815 0.66053,-1.32107 0.53454,0.18451 0.53454,-1.06908 0,-1.7818 0,-3.56359 0,-5.34539 0,-0.27952 -0.0703,-1.99761 0,-2.13816 0.11269,-0.22538 0.42185,-0.30916 0.53454,-0.53454 0.15912,-0.31824 -0.15002,-2.22265 0,-2.67269 0.12599,-0.37798 0.40855,-0.6911 0.53454,-1.06908 0.16036,-0.48109 -0.16036,-1.12253 0,-1.60362 0.12599,-0.37797 0.40854,-0.6911 0.53453,-1.06908 0.14342,-0.43025 -0.17079,-1.79657 0,-2.13815 0.1127,-0.22538 0.42185,-0.30916 0.53455,-0.53454 0.16229,-0.32459 -0.1623,-2.88265 0,-3.20723 0.11269,-0.22539 0.42184,-0.30916 0.53453,-0.53454 0.1623,-0.32459 -0.16229,-2.88265 0,-3.20724 0.11269,-0.22538 0.42185,-0.30916 0.53454,-0.53454 0.0703,-0.14055 0,-1.85863 0,-2.13815 0,-0.24074 0.0813,-1.44094 0,-1.60362 -0.11269,-0.22538 -0.42185,-0.30916 -0.53454,-0.53454 -0.16798,-0.33597 0.16799,-1.80219 0,-2.13815 -0.11269,-0.22539 -0.42184,-0.30916 -0.53453,-0.53454 -0.21382,-0.42764 0.21381,-1.17599 0,-1.60362 -0.1127,-0.22538 -0.42185,-0.30916 -0.53455,-0.53454 -0.16798,-0.33597 0.16799,-1.80219 0,-2.13816 -0.11268,-0.22538 -0.42184,-0.30915 -0.53453,-0.53454 -0.10597,-0.21194 0.10928,-1.49433 0,-1.60361 -0.12599,-0.126 -0.40855,0.12599 -0.53454,0 -0.26727,-0.26727 0.26727,-1.33635 0,-1.60362 -0.126,-0.12599 -0.40855,0.12599 -0.53454,0 -0.25198,-0.25199 0.25198,-0.8171 0,-1.06908 -0.12599,-0.12599 -0.40855,0.12599 -0.53454,0 -0.25199,-0.25198 0.25198,-0.81709 0,-1.06908 -0.12599,-0.12599 -0.40855,0.12599 -0.53454,0 -0.25198,-0.25198 0.25198,-0.81709 0,-1.06908 -0.12599,-0.12599 -0.40855,0.126 -0.53454,0 -0.12599,-0.12599 0.0797,-0.37516 0,-0.53453 -0.11269,-0.22539 -0.42185,-0.30916 -0.53454,-0.53454 -0.0797,-0.15937 0.126,-0.40855 0,-0.53454 -0.12599,-0.12599 -0.37517,0.0797 -0.53454,0 -0.526,-0.263 -1.61215,-1.87516 -2.13815,-2.13816 -0.31874,-0.15937 -0.8171,0.25199 -1.06908,0 -0.12599,-0.12599 0.12599,-0.40855 0,-0.53454 -0.25199,-0.25198 -0.8171,0.25199 -1.06908,0 -0.12599,-0.12599 0.12599,-0.40854 0,-0.53454 -0.52731,-0.52731 -1.06908,1.09532 -1.06908,-0.53454"
       id="path5174"
       inkscape:connector-curvature="0" />
  </g>
</svg>
