<?xml version="1.0" encoding="UTF-8" standalone="no"?>
<!-- Created with Inkscape (http://www.inkscape.org/) -->

<svg
   xmlns:dc="http://purl.org/dc/elements/1.1/"
   xmlns:cc="http://creativecommons.org/ns#"
   xmlns:rdf="http://www.w3.org/1999/02/22-rdf-syntax-ns#"
   xmlns:svg="http://www.w3.org/2000/svg"
   xmlns="http://www.w3.org/2000/svg"
   xmlns:xlink="http://www.w3.org/1999/xlink"
   xmlns:sodipodi="http://sodipodi.sourceforge.net/DTD/sodipodi-0.dtd"
   xmlns:inkscape="http://www.inkscape.org/namespaces/inkscape"
   width="210mm"
   height="297mm"
   viewBox="0 0 210 297"
   version="1.1"
   id="svg4501"
   inkscape:version="0.92.3 (2405546, 2018-03-11)"
   sodipodi:docname="ohta-chr-yandex.svg">
  <defs
     id="defs4495" />
  <sodipodi:namedview
     id="base"
     pagecolor="#ffffff"
     bordercolor="#666666"
     borderopacity="1.0"
     inkscape:pageopacity="0.0"
     inkscape:pageshadow="2"
     inkscape:zoom="0.49497475"
     inkscape:cx="508.46939"
     inkscape:cy="712.09564"
     inkscape:document-units="mm"
     inkscape:current-layer="layer1"
     showgrid="false"
     inkscape:window-width="1366"
     inkscape:window-height="715"
     inkscape:window-x="0"
     inkscape:window-y="0"
     inkscape:window-maximized="1" />
  <metadata
     id="metadata4498">
    <rdf:RDF>
      <cc:Work
         rdf:about="">
        <dc:format>image/svg+xml</dc:format>
        <dc:type
           rdf:resource="http://purl.org/dc/dcmitype/StillImage" />
        <dc:title></dc:title>
      </cc:Work>
    </rdf:RDF>
  </metadata>
  <g
     inkscape:label="Layer 1"
     inkscape:groupmode="layer"
     id="layer1">
    <image
       sodipodi:absref="/home/aanper/project/luysy-imn-eh/pi/boot/bydefault/web/img/ohta.png"
       y="-0.0074072876"
       x="-0.02204407"
       id="image5121"
       xlink:href="file:///home/aanper/project/luysy-imn-eh/pi/boot/bydefault/web/img/ohta.png"
       preserveAspectRatio="none"
       height="343.60559"
       width="265.28888" />
    <ellipse
       style="fill:#000000;fill-opacity:1;stroke:#00ff00;stroke-width:0.30000001;stroke-miterlimit:4;stroke-dasharray:none;stroke-opacity:1;paint-order:stroke fill markers"
       id="path5124"
       cx="137.58333"
       cy="52.827377"
       rx="5.2916665"
       ry="4.5357141" />
    <ellipse
       style="fill:#000000;fill-opacity:1;stroke:#00ff00;stroke-width:0.30000001;stroke-miterlimit:4;stroke-dasharray:none;stroke-opacity:1;paint-order:stroke fill markers"
       id="path5126"
       cx="50.45982"
       cy="313.25296"
       rx="2.8348215"
       ry="3.0238097" />
    <circle
       style="fill:#000000;fill-opacity:1;stroke:#00ff00;stroke-width:0.30000001;stroke-miterlimit:4;stroke-dasharray:none;stroke-opacity:1;paint-order:stroke fill markers"
       id="path5128"
       cx="220.73808"
       cy="98.5625"
       r="2.2678571" />
    <path
       style="fill:none;fill-opacity:1;stroke:#00ff00;stroke-width:0.30000001;stroke-miterlimit:4;stroke-dasharray:none;stroke-opacity:1;paint-order:stroke fill markers"
       d="m 3.2072344,31.33409 c -0.152854,2.519842 2.0427349,-0.629962 2.6726951,0 0.125992,0.125992 -0.1259919,0.408546 0,0.534538 0.125992,0.125992 0.3563594,0 0.5345391,0 0.1781796,0 0.3563593,0 0.534539,0 1.4254374,0 2.850875,0 4.2763124,0 0.240734,0 1.440939,-0.08134 1.603617,0 0.225382,0.112692 0.309158,0.421849 0.534539,0.534541 0.170344,0.08517 2.194966,0 2.672696,0 1.959976,0 3.919952,0 5.879929,0 1.20765,0 -0.239053,-0.07968 1.603617,0.534537 0.320693,0.106897 2.246157,0 2.672695,0 1.781797,0 3.563594,0 5.345391,0 1.603618,0 3.207234,0 4.810852,0 0.21131,0 2.444401,-0.114146 2.672694,0 0.225383,0.112692 0.309158,0.421849 0.53454,0.534541 0.15937,0.07968 0.35636,0 0.534538,0 0.538311,0 2.911626,-0.09854 3.207234,0 0.239054,0.07968 0.309158,0.421846 0.534541,0.534537 0.159369,0.07968 0.356359,0 0.534537,0 0.178181,0 0.375172,-0.07968 0.534541,0 0.22538,0.112692 0.309157,0.421849 0.534537,0.534541 0.427633,0.213815 1.175986,-0.213818 1.603619,0 0.22538,0.112688 0.309157,0.421846 0.534538,0.534537 0.159369,0.07968 0.375171,-0.07968 0.53454,0 0.22538,0.112692 0.309158,0.421849 0.534538,0.534541 0.237857,0.118927 1.893665,-0.0815 2.138156,0 0.239053,0.07968 0.309157,0.421846 0.53454,0.534537 0.318738,0.15937 0.731007,-0.112691 1.069078,0 0.377976,0.125992 0.691102,0.408549 1.069078,0.534541 0.448011,0.149336 1.783903,-0.177128 2.138156,0 0.22538,0.112688 0.295487,0.454853 0.534538,0.534537 0.729858,0.243287 2.477378,-0.243284 3.207234,0 0.239054,0.07968 0.295487,0.454856 0.53454,0.534541 0.494321,0.164772 2.855064,-0.176088 3.207235,0 0.225382,0.112688 0.295486,0.454853 0.53454,0.534537 0.801806,0.267269 1.870884,-0.267268 2.672694,0 0.239053,0.07968 0.295486,0.454856 0.53454,0.534541 0.481084,0.160361 1.122532,-0.160361 1.603616,0 0.377976,0.125992 0.691102,0.408546 1.069078,0.534538 0.338071,0.112691 0.731007,-0.112692 1.069078,0 0.377976,0.125991 0.691102,0.408548 1.069078,0.53454 0.169037,0.05635 0.375171,-0.07969 0.53454,0 0.450763,0.22538 0.618316,0.843695 1.069078,1.069078 0.159369,0.07968 0.375169,-0.07968 0.534538,0 2.446377,1.223187 -2.26827,-0.221552 1.603618,1.069078 0.169035,0.05635 0.375169,-0.07968 0.534538,0 0.225383,0.112689 0.309158,0.421846 0.53454,0.534538 0.318739,0.159369 0.75034,-0.159369 1.069079,0 0.22538,0.112691 0.309157,0.421849 0.534537,0.53454 0.318738,0.159369 0.750343,-0.159369 1.069078,0 0.225383,0.112691 0.309158,0.421846 0.534541,0.534538 0.33597,0.167986 1.802185,-0.167984 2.138156,0 0.22538,0.112691 0.309157,0.421849 0.534537,0.53454 0.335971,0.167984 1.802189,-0.167987 2.138157,0 0.225382,0.112691 0.309157,0.421849 0.53454,0.534538 0.33597,0.167986 1.802185,-0.167984 2.138156,0 0.225383,0.112691 0.309158,0.421849 0.534538,0.53454 0.159369,0.07969 0.375171,-0.07968 0.53454,0 0.225383,0.112691 0.309158,0.421849 0.534538,0.534538 0.159369,0.07968 0.375171,-0.07969 0.53454,0 0.450763,0.225382 0.618315,0.843698 1.069078,1.069078 0.159369,0.07968 0.375171,-0.07968 0.53454,0 0.22538,0.112691 0.295484,0.454856 0.534538,0.53454 0.338072,0.112692 0.731007,-0.112691 1.069078,0 0.239054,0.07968 0.309158,0.421849 0.534541,0.534538 0.159366,0.07968 0.375168,-0.07968 0.534537,0 0.225383,0.112691 0.309158,0.421849 0.534541,0.53454 0.159366,0.07969 0.3655,-0.05635 0.534537,0 3.871889,1.29063 -0.842758,-0.154109 1.603619,1.069078 0.159366,0.07968 0.375168,-0.07968 0.534537,0 0.225383,0.112692 0.309158,0.421849 0.534541,0.534538 0.159366,0.07968 0.375168,-0.07968 0.534537,0 0.408329,0.204166 1.241656,1.482963 1.603619,1.603618 0.338071,0.112692 0.731006,-0.112691 1.069076,0 0.28932,0.09644 1.25244,1.3695 1.60362,1.603616 0.3315,0.221007 0.73757,0.313537 1.06908,0.534541 0.20966,0.139776 0.35636,0.356359 0.53454,0.534537 0.35636,0.178181 0.73757,0.313537 1.06907,0.534541 0.20967,0.139776 0.32488,0.394763 0.53454,0.534537 0.26919,1.177679 1.09965,0.282557 1.60362,0.534541 0.22538,0.112691 0.30916,0.421849 0.53454,0.534537 0.15937,0.07969 0.3655,-0.05634 0.53454,0 0.37797,0.125995 0.6911,0.408549 1.06908,0.534541 0.33807,0.112691 0.75034,-0.159369 1.06907,0 0.22538,0.112691 0.30916,0.421849 0.53454,0.534537 0.15937,0.07968 0.37517,-0.07968 0.53454,0 0.22538,0.112692 0.30916,0.421849 0.53454,0.534541 0.42763,0.213815 1.17599,-0.213815 1.60362,0 0.22538,0.112691 0.30916,0.421849 0.53454,0.53454 0.15937,0.07968 0.37517,-0.07968 0.53454,0 0.22538,0.112689 0.30915,0.421846 0.53453,0.534538 0.31874,0.159369 0.8171,-0.251984 1.06908,0 0.12599,0.125992 -0.12599,0.408546 0,0.53454 0.25199,0.251984 0.8171,-0.251986 1.06908,0 0.12599,0.125992 -0.12599,0.408546 0,0.534538 0.12599,0.125992 0.37517,-0.07969 0.53454,0 0.45076,0.225382 0.61832,0.843698 1.06908,1.069078 0.15937,0.07968 0.37517,-0.07968 0.53454,0 0.22538,0.112691 0.30915,0.421849 0.53454,0.53454 0.15937,0.07968 0.37517,-0.07968 0.53454,0 0.22538,0.112689 0.30915,0.421847 0.53453,0.534538 0.42763,0.213815 1.17599,-0.213815 1.60362,0 0.22538,0.112691 0.30916,0.421849 0.53454,0.53454 0.33597,0.167984 1.80219,-0.167986 2.13816,0 0.22538,0.112689 0.30915,0.421847 0.53454,0.534538 0.15936,0.07968 0.35636,0 0.53454,0 0.17818,0 0.35635,0 0.53454,0 1.06907,0 2.13815,0 3.20723,0 0.25203,0 2.64847,0.02424 2.67269,0 0.126,-0.125992 -0.12599,-0.408546 0,-0.534538 0.25199,-0.251986 0.8171,0.251984 1.06908,0 0.12599,-0.125992 -0.12599,-0.408548 0,-0.53454 0.12599,-0.125992 0.40855,0.125992 0.53454,0 0.12599,-0.125992 -0.0797,-0.375171 0,-0.534538 0.11269,-0.225382 0.42185,-0.309157 0.53454,-0.53454 0.0797,-0.159369 -0.12599,-0.408546 0,-0.534538 0.12599,-0.125994 0.40855,0.125992 0.53454,0 0.12599,-0.125994 -0.0797,-0.375171 0,-0.53454 0.11269,-0.225383 0.42185,-0.309158 0.53454,-0.534538 0.0797,-0.159369 -0.12599,-0.408548 0,-0.53454 0.12599,-0.125992 0.40855,0.125992 0.53454,0 0.12599,-0.125992 -0.0797,-0.375171 0,-0.534538 0.22538,-0.450765 0.84369,-0.618315 1.06908,-1.069081 0.0797,-0.159366 -0.126,-0.408545 0,-0.534537 0.12599,-0.125992 0.37516,0.07968 0.53453,0 1.1819,-0.590947 0.16588,-0.331759 0.53454,-1.069078 0.1127,-0.225383 0.35636,-0.35636 0.53454,-0.534541 0.17818,-0.178178 0.30916,-0.421846 0.53454,-0.534537 0.15937,-0.07968 0.40855,0.125991 0.53454,0 0.12599,-0.125992 -0.0797,-0.375172 0,-0.534541 0.11269,-0.22538 0.42185,-0.309157 0.53454,-0.534537 0.0797,-0.15937 0,-0.35636 0,-0.534541 0,-0.178178 0,-0.356359 0,-0.534538"
       id="path5195"
       inkscape:connector-curvature="0" />
  </g>
</svg>
