<?xml version="1.0" encoding="UTF-8" standalone="no"?>
<!-- Created with Inkscape (http://www.inkscape.org/) -->

<svg
   xmlns:dc="http://purl.org/dc/elements/1.1/"
   xmlns:cc="http://creativecommons.org/ns#"
   xmlns:rdf="http://www.w3.org/1999/02/22-rdf-syntax-ns#"
   xmlns:svg="http://www.w3.org/2000/svg"
   xmlns="http://www.w3.org/2000/svg"
   xmlns:xlink="http://www.w3.org/1999/xlink"
   xmlns:sodipodi="http://sodipodi.sourceforge.net/DTD/sodipodi-0.dtd"
   xmlns:inkscape="http://www.inkscape.org/namespaces/inkscape"
   width="210mm"
   height="297mm"
   viewBox="0 0 210 297"
   version="1.1"
   id="svg4501"
   inkscape:version="0.92.3 (2405546, 2018-03-11)"
   sodipodi:docname="ohta-yandex-beercake.svg">
  <defs
     id="defs4495" />
  <sodipodi:namedview
     id="base"
     pagecolor="#ffffff"
     bordercolor="#666666"
     borderopacity="1.0"
     inkscape:pageopacity="0.0"
     inkscape:pageshadow="2"
     inkscape:zoom="0.7"
     inkscape:cx="571.26211"
     inkscape:cy="754.21793"
     inkscape:document-units="mm"
     inkscape:current-layer="layer1"
     showgrid="false"
     inkscape:window-width="1366"
     inkscape:window-height="715"
     inkscape:window-x="0"
     inkscape:window-y="0"
     inkscape:window-maximized="1" />
  <metadata
     id="metadata4498">
    <rdf:RDF>
      <cc:Work
         rdf:about="">
        <dc:format>image/svg+xml</dc:format>
        <dc:type
           rdf:resource="http://purl.org/dc/dcmitype/StillImage" />
        <dc:title></dc:title>
      </cc:Work>
    </rdf:RDF>
  </metadata>
  <g
     inkscape:label="Layer 1"
     inkscape:groupmode="layer"
     id="layer1">
    <image
       sodipodi:absref="/home/aanper/project/luysy-imn-eh/pi/boot/bydefault/web/img/ohta.png"
       y="-0.0074072876"
       x="-0.02204407"
       id="image5121"
       xlink:href="file:///home/aanper/project/luysy-imn-eh/pi/boot/bydefault/web/img/ohta.png"
       preserveAspectRatio="none"
       height="343.60559"
       width="265.28888" />
    <ellipse
       style="fill:#000000;fill-opacity:1;stroke:#00ff00;stroke-width:0.30000001;stroke-miterlimit:4;stroke-dasharray:none;stroke-opacity:1;paint-order:stroke fill markers"
       id="path5124"
       cx="137.58333"
       cy="52.827377"
       rx="5.2916665"
       ry="4.5357141" />
    <ellipse
       style="fill:#000000;fill-opacity:1;stroke:#00ff00;stroke-width:0.30000001;stroke-miterlimit:4;stroke-dasharray:none;stroke-opacity:1;paint-order:stroke fill markers"
       id="path5126"
       cx="50.45982"
       cy="313.25296"
       rx="2.8348215"
       ry="3.0238097" />
    <circle
       style="fill:#000000;fill-opacity:1;stroke:#00ff00;stroke-width:0.30000001;stroke-miterlimit:4;stroke-dasharray:none;stroke-opacity:1;paint-order:stroke fill markers"
       id="path5128"
       cx="220.73808"
       cy="98.5625"
       r="2.2678571" />
    <path
       style="fill:none;fill-opacity:1;stroke:#00ff00;stroke-width:0.30000001;stroke-miterlimit:4;stroke-dasharray:none;stroke-opacity:1;paint-order:stroke fill markers"
       d="m 140.98512,53.583331 c 1.59312,0.303022 0.0907,1.315271 0.37797,1.889882 0.0797,0.159369 0.2983,0.218607 0.37798,0.377976 0.11269,0.225382 -0.11269,0.530571 0,0.755954 0.0797,0.159367 0.32163,0.208939 0.37798,0.377976 0.0797,0.239054 0,0.503968 0,0.755952 0,0.125991 -0.0563,0.265284 0,0.377975 0.0797,0.159369 0.29829,0.218607 0.37797,0.377976 0.11269,0.225383 -0.11269,0.530572 0,0.755954 0.0797,0.159367 0.32163,0.208939 0.37798,0.377976 0.0797,0.239054 0,0.503968 0,0.755952 0,0.125992 -0.0564,0.265284 0,0.377976 0.0797,0.159369 0.29829,0.218606 0.37797,0.377975 0.20219,0.404379 -0.20219,0.351576 0,0.755955 0.0797,0.159366 0.2983,0.218606 0.37798,0.377975 0.11269,0.225381 -0.11269,0.530569 0,0.755952 0.0797,0.159369 0.29829,0.218607 0.37798,0.377976 0.11269,0.225383 -0.17818,0.577773 0,0.755952 0.0891,0.08909 0.28888,-0.08909 0.37797,0 0.0891,0.08909 -0.0563,0.265287 0,0.377978 0.0797,0.159366 0.2983,0.218607 0.37798,0.377976 0.0564,0.112691 -0.0564,0.265284 0,0.377976 0.15937,0.318738 0.59658,0.437213 0.75595,0.755951 0.0564,0.112692 -0.0891,0.288888 0,0.377976 1.00794,0 -0.12599,-0.125992 0.37798,0.377976 0.17818,0.178181 0.57777,-0.178179 0.75595,0 0.0891,0.08909 -0.0891,0.288888 0,0.377978 0.0171,0.01712 1.71167,0 1.88988,0 0.75595,0 1.51191,0 2.26786,0 0.12599,0 0.28888,0.08909 0.37797,0 0.0891,-0.08909 -0.0891,-0.288888 0,-0.377978 0.18899,-0.188987 0.94494,0.188989 1.13393,0 0.0891,-0.08909 -0.0891,-0.288885 0,-0.377976 0.17818,-0.178178 0.53057,0.112691 0.75596,0 1.25358,-1.253588 -0.35636,0.178181 0.75595,-0.377976 0.0724,-0.03618 1.47573,-1.439553 1.5119,-1.511903 0.0564,-0.112691 -0.0891,-0.288888 0,-0.377978 0.0891,-0.08909 0.28889,0.08909 0.37798,0 0.0891,-0.08909 -0.0564,-0.265285 0,-0.377976 0.0797,-0.159369 0.25198,-0.251984 0.37797,-0.377976 0.126,-0.125992 0.25199,-0.251984 0.37798,-0.377976 0.12599,-0.125992 0.25198,-0.251984 0.37798,-0.377976 0,-0.125992 -0.0891,-0.288888 0,-0.377976 0.0891,-0.08909 0.28888,0.08909 0.37797,0 0.0891,-0.08909 -0.0563,-0.265287 0,-0.377975 0.15937,-0.318739 0.59659,-0.437216 0.75596,-0.755955 0.0563,-0.112688 -0.0891,-0.288885 0,-0.377975 0.0891,-0.08909 0.28888,0.08909 0.37797,0 0.0891,-0.08909 -0.0563,-0.265285 0,-0.377976 0.22679,-0.453573 0.90714,-0.680358 1.13393,-1.133928 0.0563,-0.112691 -0.0564,-0.265287 0,-0.377978 0.0797,-0.159367 0.29829,-0.218607 0.37798,-0.377976 0.0563,-0.112689 -0.0891,-0.288885 0,-0.377976 0.0891,-0.08909 0.28888,0.08909 0.37797,0 0.0891,-0.08909 -0.0563,-0.265284 0,-0.377975 0.15937,-0.318739 0.59659,-0.437217 0.75596,-0.755952 0.0563,-0.112691 -0.0564,-0.265287 0,-0.377976 0.22678,-0.453572 0.90714,-0.680357 1.13392,-1.13393 0.0564,-0.112691 -0.0891,-0.288885 0,-0.377976 0.78205,-0.782045 -0.0306,1.19507 0.75596,-0.377976 0.26068,-0.521364 -0.45775,-0.338089 0.37797,-0.755951 0.11269,-0.05635 0.28889,0.08909 0.37798,0 0.0891,-0.08909 -0.0564,-0.265287 0,-0.377979 0.0797,-0.159366 0.25198,-0.251984 0.37797,-0.377975 0.126,-0.125992 0.21861,-0.298292 0.37798,-0.377976 0.11269,-0.05635 0.28889,0.08909 0.37798,0 0.0891,-0.08909 -0.0564,-0.265285 0,-0.377976 0.0797,-0.159369 0.25198,-0.251984 0.37797,-0.377976 0.126,-0.125992 0.21861,-0.298291 0.37798,-0.377976 0.11269,-0.05635 0.28889,0.08909 0.37798,0 0.0891,-0.08909 -0.0563,-0.265287 0,-0.377976 0.41786,-0.835726 0.23458,-0.117295 0.75595,-0.377978 0.37194,-0.185968 1.13996,-1.325933 1.5119,-1.511903 0.11269,-0.05635 0.26529,0.05635 0.37798,0 1.57305,-0.786524 -0.40407,0.02609 0.37798,-0.755952 0.0891,-0.08909 0.26528,0.05634 0.37797,0 0.15937,-0.07968 0.21861,-0.298294 0.37798,-0.377978 0.11269,-0.05634 0.28888,0.08909 0.37797,0 0.0891,-0.08909 -0.0891,-0.288886 0,-0.377976 0.0891,-0.08909 0.26529,0.05635 0.37798,0 0.31874,-0.159369 0.43721,-0.596583 0.75595,-0.755952 0.11269,-0.05635 0.28889,0.08909 0.37798,0 0.0891,-0.08909 -0.0891,-0.288885 0,-0.377976 0.0891,-0.08909 0.26528,0.05635 0.37797,0 0.31874,-0.159369 0.43722,-0.596585 0.75596,-0.755951 0.22538,-0.112691 0.57777,0.178178 0.75595,0 0.0891,-0.08909 -0.0891,-0.288888 0,-0.377979 0.0891,-0.08909 0.26528,0.05635 0.37798,0 0.15937,-0.07968 0.2186,-0.298291 0.37797,-0.377975 0.22538,-0.112689 0.53057,0.112691 0.75595,0 0.15937,-0.07969 0.21861,-0.298292 0.37798,-0.377976 0.22538,-0.112692 0.53057,0.112691 0.75595,0 0.15937,-0.07968 0.21861,-0.298291 0.37798,-0.377976 0.30238,-0.151191 0.83155,0.151191 1.13393,0 0.15937,-0.07968 0.2186,-0.298291 0.37797,-0.377976 0.13669,-0.06834 1.62699,0 1.88988,0 1.00794,0 2.01588,0 3.02381,0 0.17023,0 1.0189,-0.05751 1.13393,0 0.15937,0.07969 0.21861,0.298291 0.37798,0.377976 0.11269,0.05635 0.25198,0 0.37798,0 0.12599,0 0.25198,0 0.37797,0 0.88642,0 -0.17818,-0.08909 0.75595,0.377976 0.0977,0.04886 1.99995,0 2.26786,0 1.6379,0 3.27579,0 4.91369,0 0.17822,0 1.87275,0.01714 1.88988,0 0.0891,-0.08909 -0.0891,-0.288885 0,-0.377976 0.0171,-0.01714 1.71167,0 1.88988,0 0.88642,0 -0.17818,-0.08909 0.75596,0.377976 0.52136,0.260683 0.33809,-0.457751 0.75595,0.377976 0.0563,0.112691 -0.0564,0.265287 0,0.377975 0.0797,0.15937 0.29829,0.21861 0.37797,0.377979 0.0564,0.112689 -0.0563,0.265284 0,0.377976 0.0797,0.159369 0.29829,0.218606 0.37798,0.377975 0.11269,0.225381 -0.17818,0.577774 0,0.755952 0.0891,0.08909 0.28889,-0.08909 0.37797,0 0.17819,0.178181 -0.11268,0.530572 0,0.755952 0.0797,0.159369 0.2983,0.218609 0.37798,0.377978 0.0564,0.112689 0,0.251984 0,0.377976 0.126,0.125992 0.29829,0.218607 0.37798,0.377976 0.15119,0.302381 -0.15119,0.831548 0,1.133927 0.0797,0.159369 0.29829,0.21861 0.37797,0.377976 0.1512,0.302382 -0.15119,0.831548 0,1.13393 0.0797,0.159369 0.2983,0.218607 0.37798,0.377976 0.0564,0.112691 0,0.251984 0,0.377976 0,0.251984 0,0.503967 0,0.755951 0,0.629963 0,1.259922 0,1.889882 0,0.125992 0.0564,0.265287 0,0.377976 -0.0797,0.159369 -0.32163,0.208941 -0.37798,0.377976 -0.15936,0.478107 0.15937,1.033798 0,1.511906 -0.0563,0.169036 -0.32163,0.208941 -0.37797,0.377975 -0.18899,0.566965 0.18899,1.322917 0,1.889882 -0.0564,0.169037 -0.32163,0.208939 -0.37798,0.377976 -0.0576,0.172881 0.0841,1.343713 0,1.511906 -0.0797,0.159366 -0.32163,0.208938 -0.37798,0.377975 -0.11952,0.35858 0,0.755952 0,1.133928 0,0.881946 0,1.76389 0,2.645833 0,0.170225 0.0575,1.018897 0,1.13393 -0.0797,0.159367 -0.29829,0.218607 -0.37797,0.377976 -0.0489,0.09773 0,1.999946 0,2.267858 0,0.125992 0.0891,0.288885 0,0.377975 -0.0891,0.08909 -0.28889,-0.08909 -0.37798,0 -0.0891,0.08909 0,0.251984 0,0.377976 0,0.125992 0,0.251984 0,0.377976 0,0.755952 0,1.511906 0,2.267857 0,0.125992 0,0.251984 0,0.377976 0,0.125992 0.0564,0.265285 0,0.377976 -0.0797,0.159369 -0.29829,0.218607 -0.37797,0.377976 -0.11476,0.229515 0.11476,2.038342 0,2.267857 -0.0797,0.15937 -0.29829,0.218607 -0.37798,0.377976 -0.11476,0.229516 0.11476,2.038342 0,2.267858 -0.0797,0.159369 -0.29829,0.218606 -0.37797,0.377976 -0.15119,0.302381 0.15119,0.831548 0,1.13393 -0.0797,0.159369 -0.2983,0.218606 -0.37798,0.377975 -0.11878,0.237567 0.11878,1.27434 0,1.511904 -0.0797,0.159369 -0.29829,0.218609 -0.37798,0.377978 -0.15119,0.302379 0.15119,0.831546 0,1.133928 -0.0797,0.159369 -0.32163,0.208941 -0.37797,0.377975 -0.11953,0.35858 0,0.755952 0,1.13393 0,0.62996 0,1.25992 0,1.889879 0,0.197652 -0.0497,1.412521 0,1.511906 0.0797,0.159369 0.29829,0.218607 0.37797,0.377976 0.15119,0.302382 -0.15119,0.831548 0,1.133928 0.0797,0.159369 0.2983,0.218609 0.37798,0.377978 0.0563,0.112689 -0.0564,0.265284 0,0.377976 0.0797,0.159369 0.29829,0.218606 0.37798,0.377976 0.0563,0.112691 -0.0399,0.25845 0,0.377975 0.0891,0.267269 0.28888,0.488683 0.37797,0.755952 0.0398,0.119528 -0.0563,0.265287 0,0.377976 0.0797,0.159369 0.29829,0.218609 0.37798,0.377978 0.0563,0.112689 -0.0564,0.265285 0,0.377976 0.0797,0.159369 0.29829,0.218607 0.37797,0.377976 0.11269,0.22538 -0.11269,0.530571 0,0.755952 0.0797,0.159369 0.29829,0.218606 0.37798,0.377975 0.0563,0.112692 0,0.251984 0,0.377976 0,0.251987 -0.0797,0.516901 0,0.755954 0.0563,0.169035 0.29829,0.218607 0.37797,0.377976 0.0564,0.112692 -0.0563,0.265285 0,0.377976 0.15937,0.318738 0.59659,0.437216 0.75596,0.755952 0.26068,0.521364 -0.45775,0.338089 0.37797,0.755954 0.1127,0.05634 0.28889,-0.08909 0.37798,0 0.0891,0.08909 -0.0891,0.288885 0,0.377976 0.0891,0.08909 0.26529,-0.05635 0.37798,0 0.15937,0.07968 0.2186,0.298291 0.37797,0.377975 0.11269,0.05635 0.26529,-0.05634 0.37798,0 0.15937,0.07968 0.21861,0.298292 0.37798,0.377973 0.0994,0.0497 1.31425,0 1.5119,0 0.12599,0 0.25198,0 0.37798,0 0.12599,0 0.28888,0.0891 0.37797,0 0.0891,-0.08909 -0.0891,-0.288882 0,-0.377973 0.10342,-0.103422 1.30686,0.102524 1.51191,0 0.15937,-0.07968 0.2186,-0.298291 0.37797,-0.377975 0.11269,-0.05635 0.25199,0 0.37798,0 0.26791,0 2.17013,0.04886 2.26786,0 0.15937,-0.07968 0.2186,-0.298292 0.37797,-0.377976 0.11269,-0.05635 0.25199,0 0.37798,0 0.75595,0 1.5119,0 2.26786,0 0.12599,0 0.28888,-0.08909 0.37797,0 0.0891,0.08909 -0.0891,0.288885 0,0.377976 0.0152,0.01521 1.3731,0 1.51191,0 0.0917,0 1.12177,-0.01217 1.13392,0 0.0891,0.08909 -0.0891,0.288885 0,0.377975 0.17819,0.178179 0.57778,-0.178181 0.75596,0 0.0891,0.08909 -0.12599,0.377973 0,0.377973 0.17818,0 0.25198,-0.251981 0.37797,-0.377973"
       id="path5151"
       inkscape:connector-curvature="0" />
  </g>
</svg>
