<?xml version="1.0" encoding="UTF-8" standalone="no"?>
<!-- Created with Inkscape (http://www.inkscape.org/) -->

<svg
   xmlns:dc="http://purl.org/dc/elements/1.1/"
   xmlns:cc="http://creativecommons.org/ns#"
   xmlns:rdf="http://www.w3.org/1999/02/22-rdf-syntax-ns#"
   xmlns:svg="http://www.w3.org/2000/svg"
   xmlns="http://www.w3.org/2000/svg"
   xmlns:xlink="http://www.w3.org/1999/xlink"
   xmlns:sodipodi="http://sodipodi.sourceforge.net/DTD/sodipodi-0.dtd"
   xmlns:inkscape="http://www.inkscape.org/namespaces/inkscape"
   width="210mm"
   height="297mm"
   viewBox="0 0 210 297"
   version="1.1"
   id="svg4501"
   inkscape:version="0.92.3 (2405546, 2018-03-11)"
   sodipodi:docname="ohta-chr-beercake.svg">
  <defs
     id="defs4495" />
  <sodipodi:namedview
     id="base"
     pagecolor="#ffffff"
     bordercolor="#666666"
     borderopacity="1.0"
     inkscape:pageopacity="0.0"
     inkscape:pageshadow="2"
     inkscape:zoom="0.49497475"
     inkscape:cx="508.46939"
     inkscape:cy="712.09564"
     inkscape:document-units="mm"
     inkscape:current-layer="layer1"
     showgrid="false"
     inkscape:window-width="1366"
     inkscape:window-height="715"
     inkscape:window-x="0"
     inkscape:window-y="0"
     inkscape:window-maximized="1" />
  <metadata
     id="metadata4498">
    <rdf:RDF>
      <cc:Work
         rdf:about="">
        <dc:format>image/svg+xml</dc:format>
        <dc:type
           rdf:resource="http://purl.org/dc/dcmitype/StillImage" />
        <dc:title></dc:title>
      </cc:Work>
    </rdf:RDF>
  </metadata>
  <g
     inkscape:label="Layer 1"
     inkscape:groupmode="layer"
     id="layer1">
    <image
       sodipodi:absref="/home/aanper/project/luysy-imn-eh/pi/boot/bydefault/web/img/ohta.png"
       y="-0.0074072876"
       x="-0.02204407"
       id="image5121"
       xlink:href="file:///home/aanper/project/luysy-imn-eh/pi/boot/bydefault/web/img/ohta.png"
       preserveAspectRatio="none"
       height="343.60559"
       width="265.28888" />
    <ellipse
       style="fill:#000000;fill-opacity:1;stroke:#00ff00;stroke-width:0.30000001;stroke-miterlimit:4;stroke-dasharray:none;stroke-opacity:1;paint-order:stroke fill markers"
       id="path5124"
       cx="137.58333"
       cy="52.827377"
       rx="5.2916665"
       ry="4.5357141" />
    <ellipse
       style="fill:#000000;fill-opacity:1;stroke:#00ff00;stroke-width:0.30000001;stroke-miterlimit:4;stroke-dasharray:none;stroke-opacity:1;paint-order:stroke fill markers"
       id="path5126"
       cx="50.45982"
       cy="313.25296"
       rx="2.8348215"
       ry="3.0238097" />
    <circle
       style="fill:#000000;fill-opacity:1;stroke:#00ff00;stroke-width:0.30000001;stroke-miterlimit:4;stroke-dasharray:none;stroke-opacity:1;paint-order:stroke fill markers"
       id="path5128"
       cx="220.73808"
       cy="98.5625"
       r="2.2678571" />
    <path
       style="fill:none;fill-opacity:1;stroke:#00ff00;stroke-width:0.30000001;stroke-miterlimit:4;stroke-dasharray:none;stroke-opacity:1;paint-order:stroke fill markers"
       d="m 0,32.403169 c 0.18150782,-3.067818 1.8144682,-0.639967 2.6726951,-1.069079 0.2253816,-0.112691 0.3091577,-0.421849 0.5345393,-0.53454 0.1593686,-0.07968 0.3563594,0 0.534539,0 0.3563594,0 0.7127187,0 1.0690781,0 0.8908984,0 1.7817967,0 2.6726951,0 0.3563594,0 0.7127187,0 1.0690781,0 0.1781796,0 0.365503,-0.05635 0.5345392,0 0.3779761,0.125992 0.6911018,0.408549 1.0690781,0.53454 0.169036,0.05634 0.356359,0 0.534539,0 1.247258,0 2.494515,0 3.741773,0 0.35636,0 0.723359,-0.08643 1.069079,0 0.386525,0.09663 0.682551,0.437907 1.069078,0.534538 0.92809,0.232024 2.279143,-0.232024 3.207234,0 0.386526,0.09663 0.682552,0.437907 1.069078,0.534541 0.441683,0.110418 3.729282,0 4.276312,0 1.069078,0 2.138157,0 3.207235,0 0.356359,0 0.712718,0 1.069078,0 0.356359,0 0.723357,0.08643 1.069078,0 0.386527,-0.09663 0.682551,-0.43791 1.069078,-0.534541 0.34572,-0.08643 0.712718,0 1.069078,0 0.356359,0 0.712719,0 1.069078,0 1.069078,0 2.138156,0 3.207234,0 1.247259,0 2.494515,0 3.741775,0 0.356359,0 0.731004,-0.112691 1.069078,0 0.239051,0.07968 0.295484,0.454856 0.534537,0.534541 0.338074,0.112688 0.712719,0 1.069078,0 0.447617,0 2.266196,-0.101627 2.672697,0 0.386524,0.09663 0.691102,0.408545 1.069078,0.534537 0.169034,0.05635 0.365503,-0.05635 0.534538,0 0.377975,0.125992 0.682553,0.437907 1.069078,0.534541 0.51858,0.129643 1.09651,-0.169037 1.603618,0 0.377976,0.125992 0.682551,0.437906 1.069078,0.534537 0.691438,0.172861 1.462011,-0.22538 2.138156,0 0.239054,0.07968 0.295487,0.454856 0.534538,0.534541 0.676145,0.22538 1.462013,-0.225383 2.138156,0 0.239054,0.07968 0.295487,0.454853 0.53454,0.534537 0.676146,0.225383 1.462011,-0.22538 2.138156,0 0.239054,0.07968 0.295487,0.454856 0.534538,0.534541 0.338074,0.112688 0.712721,0 1.069081,0 1.247256,0 2.494515,0 3.741772,0 0.356359,0 0.731006,-0.112692 1.069078,0 0.239053,0.07968 0.295486,0.454853 0.53454,0.534537 0.259694,0.08656 3.196034,0 3.741772,0 0.178181,0 0.365503,-0.05635 0.53454,0 0.377976,0.125992 0.682551,0.437907 1.069078,0.534541 0.354648,0.08866 2.753736,0 3.207234,0 0.178179,0 0.375169,-0.07969 0.534538,0 0.225383,0.112688 0.295487,0.454853 0.53454,0.534537 0.244491,0.0815 1.900299,-0.118927 2.138157,0 0.22538,0.112692 0.309157,0.421849 0.534537,0.534541 0.318738,0.159369 0.750343,-0.159369 1.069078,0 0.225383,0.112688 0.295487,0.454853 0.534541,0.534537 0.338071,0.112692 0.712718,0 1.069078,0 0.178178,0 0.375171,-0.07968 0.534537,0 0.225383,0.112692 0.309158,0.421849 0.534541,0.534541 0.33597,0.167984 1.802185,-0.167987 2.138156,0 0.22538,0.112689 0.309158,0.421846 0.534538,0.534538 0.33597,0.167986 1.802188,-0.167984 2.138156,0 0.225382,0.112691 0.309157,0.421849 0.53454,0.53454 0.42763,0.213815 1.175986,-0.213818 1.603616,0 0.225382,0.112689 0.309157,0.421846 0.53454,0.534538 0.42763,0.213815 1.175986,-0.213816 1.603618,0 0.22538,0.112691 0.309155,0.421849 0.534538,0.53454 0.318738,0.159369 0.75034,-0.159369 1.069078,0 0.225383,0.112689 0.309158,0.421846 0.534541,0.534538 0.159366,0.07968 0.375168,-0.07968 0.534537,0 0.225383,0.112691 0.309158,0.421849 0.534541,0.53454 0.318735,0.159369 0.750339,-0.159369 1.069078,0 0.22538,0.112689 0.309157,0.421846 0.534537,0.534538 0.159369,0.07968 0.375172,-0.07969 0.534541,0 0.22538,0.112691 0.309157,0.421849 0.534537,0.53454 0.15937,0.07968 0.375172,-0.07969 0.534541,0 0.22538,0.112691 0.309157,0.421846 0.534537,0.534538 0.15937,0.07968 0.408549,-0.125992 0.534541,0 0.125992,0.125992 -0.125992,0.408548 0,0.53454 0.125992,0.125992 0.375168,-0.07968 0.534538,0 0.641447,0.320723 0.96217,1.282893 1.603616,1.603616 0.15937,0.07968 0.37517,-0.07969 0.53454,0 0.64145,0.320725 0.96217,1.282896 1.60362,1.603618 0.15937,0.07968 0.37517,-0.07968 0.53454,0 0.45076,0.22538 0.61831,0.843696 1.06907,1.069078 0.15937,0.07969 0.37517,-0.07968 0.53454,0 0.45077,0.22538 0.61832,0.843696 1.06908,1.069078 0.15937,0.07968 0.37517,-0.07968 0.53454,0 0.45076,0.22538 0.61832,0.843696 1.06908,1.069078 0.15937,0.07968 0.40855,-0.125992 0.53454,0 0.12599,0.125992 -0.0797,0.375172 0,0.534538 0.11269,0.225383 0.35636,0.356359 0.53454,0.53454 0.17818,0.178179 0.30915,0.421849 0.53454,0.534538 0.15937,0.07968 0.37516,-0.07968 0.53453,0 0.47379,0.236892 1.11702,1.279218 1.60362,1.603619 0.33151,0.221003 0.73757,0.313533 1.06908,0.534537 0.41933,0.279554 0.61832,0.843698 1.06908,1.069078 0.15937,0.07968 0.3655,-0.05634 0.53454,0 1.93786,0.645954 0.38043,0.253622 1.60361,1.069078 2.70039,1.80026 0.0124,0.0041 1.60362,0.534541 0.37798,0.125992 0.73757,0.313534 1.06908,0.534537 0.20966,0.139777 0.29549,0.454856 0.53454,0.534541 0.33807,0.112691 0.73101,-0.112692 1.06908,0 0.23905,0.07968 0.32487,0.394763 0.53454,0.53454 0.3315,0.221004 0.6911,0.408546 1.06908,0.534538 0.16903,0.05635 0.37516,-0.07968 0.53453,0 2.44638,1.223187 -2.26827,-0.221552 1.60362,1.069078 0.16904,0.05635 0.37517,-0.07969 0.53454,0 2.44637,1.223187 -2.26827,-0.221552 1.60362,1.069078 0.16903,0.05635 0.35636,0 0.53454,0 0.17818,0.178181 0.30915,0.421849 0.53454,0.53454 0.15936,0.07968 0.37516,-0.07968 0.53453,0 0.22539,0.112689 0.30916,0.421847 0.53454,0.534538 0.31874,0.159369 0.75034,-0.159369 1.06908,0 0.22538,0.112691 0.30916,0.421849 0.53454,0.53454 0.15937,0.07969 0.35636,0 0.53454,0 0.17818,0.178179 0.30916,0.421847 0.53454,0.534538 0.31874,0.159369 0.81709,-0.251984 1.06908,0 0.12599,0.125992 -0.126,0.408548 0,0.53454 0.25198,0.251984 0.75034,-0.159369 1.06907,0 0.22539,0.112689 0.30916,0.421847 0.53454,0.534538 0.31874,0.159369 0.75034,-0.159369 1.06908,0 0.22538,0.112691 0.30916,0.421849 0.53454,0.53454 0.31874,0.159367 0.75034,-0.159369 1.06908,0 0.22538,0.112689 0.30916,0.421847 0.53454,0.534538 0.31874,0.159369 0.81709,-0.251984 1.06908,0 0.12599,0.125992 -0.126,0.408548 0,0.53454 0.25198,0.251984 0.81709,-0.251983 1.06907,0 0.126,0.125992 -0.12599,0.408546 0,0.534538 0.25199,0.251984 0.75034,-0.159369 1.06908,0 0.22538,0.112691 0.30916,0.421849 0.53454,0.53454 0.42763,0.213816 1.17599,-0.213817 1.60362,0 0.22538,0.112689 0.30916,0.421847 0.53454,0.534538 0.1933,0.09665 2.3009,0 2.67269,0 0.37179,0 2.47939,0.09665 2.6727,0 0.22538,-0.112691 0.30915,-0.421849 0.53454,-0.534538 0.31873,-0.159369 0.75034,0.15937 1.06907,0 0.22539,-0.112691 0.30916,-0.421849 0.53454,-0.53454 0.15937,-0.07968 0.37517,0.07969 0.53454,0 0.22539,-0.112691 0.30916,-0.421849 0.53454,-0.534538 0.15937,-0.07968 0.37517,0.07968 0.53454,0 0.22538,-0.112691 0.30916,-0.421849 0.53454,-0.53454 0.15937,-0.07968 0.37517,0.07968 0.53454,0 0.22538,-0.112691 0.30916,-0.421849 0.53454,-0.534538 0.15937,-0.07968 0.37517,0.07968 0.53454,0 0.45076,-0.225382 0.61831,-0.843698 1.06907,-1.069078 0.15937,-0.07968 0.37518,0.07968 0.53455,0 0.22538,-0.112691 0.35635,-0.356359 0.53453,-0.53454 0.17818,-0.178178 0.35636,-0.356359 0.53454,-0.534538 0.28142,-0.281416 1.46088,-1.31813 1.60362,-1.603618 0.0797,-0.159369 -0.12599,-0.408546 0,-0.534538 0.12599,-0.125994 0.37517,0.07968 0.53454,0 0.14192,-0.07096 1.53265,-1.461693 1.60361,-1.603618 0.0797,-0.159369 -0.0797,-0.375171 0,-0.534538 0.12377,-0.247536 1.82378,-1.82377 2.13816,-2.138159 0.17818,-0.178178 0.42185,-0.309155 0.53454,-0.534537 0.0797,-0.15937 -0.0797,-0.375172 0,-0.534541 0.22538,-0.450762 0.8437,-0.618312 1.06908,-1.069078 0.0797,-0.159366 0,-0.356359 0,-0.534537 0.17818,-0.35636 0.31353,-0.737572 0.53454,-1.069079 0.13977,-0.209663 0.35636,-0.356359 0.53454,-0.53454 0.53454,-0.534538 1.06908,-1.069078 1.60361,-1.603616 0.28142,-0.281416 1.31813,-1.460873 1.60362,-1.603618 0.15937,-0.07969 0.37517,0.07968 0.53454,0 0.526,-0.263001 1.61216,-1.875155 2.13816,-2.138156 0.15936,-0.07968 0.3655,0.05635 0.53454,0 0.97084,-0.323615 0.99202,-0.457483 1.60361,-1.069078 0.17818,-0.178179 0.30916,-0.421847 0.53454,-0.534538 0.15937,-0.07968 0.37517,0.07969 0.53454,0 0.22538,-0.112691 0.30916,-0.421849 0.53454,-0.53454 0.15937,-0.07968 0.37517,0.07968 0.53454,0 0.22538,-0.112689 0.30916,-0.421847 0.53454,-0.534538 0.15937,-0.07968 0.37517,0.07968 0.53454,0 0.22538,-0.112691 0.30915,-0.421849 0.53454,-0.53454 0.31873,-0.159369 0.75034,0.159369 1.06907,0 0.22539,-0.112692 0.30916,-0.421847 0.53454,-0.534538 0.31539,-0.157694 1.23595,0.122558 1.60362,0 0.37798,-0.125992 0.6911,-0.408548 1.06908,-0.53454 0.47436,-0.158123 2.32267,0.175014 2.67269,0 0.22538,-0.112692 0.30916,-0.421849 0.53454,-0.534538 0.16268,-0.08134 1.36289,0 1.60362,0 1.24726,0 2.49452,0 3.74177,0 0.12964,0 1.58643,-0.0172 1.60362,0 0.12599,0.125992 -0.12599,0.408546 0,0.534538 0.25198,0.251984 0.8171,-0.251984 1.06908,0 0.12599,0.125992 -0.12599,0.408548 0,0.53454 0.12599,0.125992 0.40854,-0.125992 0.53454,0 0.12599,0.125992 -0.126,0.408546 0,0.534538 0.12599,0.125992 0.40855,-0.125992 0.53454,0 0.12599,0.125992 -0.0797,0.375171 0,0.53454 0.11269,0.22538 0.42184,0.309158 0.53453,0.534538 0.16799,0.33597 -0.16798,1.802188 0,2.138156 0.1127,0.225383 0.42185,0.309158 0.53455,0.53454 0.0813,0.162679 0,1.362882 0,1.603616 0,1.069078 0,2.138156 0,3.207234 0,3.029056 0,6.058112 0,9.087165 0,1.425437 0,2.850875 0,4.276312 0,0.452567 -0.0958,1.850784 0,2.138156 0.0797,0.239054 0.42184,0.309158 0.53453,0.53454 0.17737,0.35473 -0.17281,2.688797 0,3.207235 0.12599,0.377975 0.40855,0.691102 0.53454,1.069078 0.14342,0.430249 -0.17079,1.796573 0,2.138156 0.11269,0.22538 0.42185,0.309157 0.53454,0.534537 0.11893,0.237858 -0.0815,1.893666 0,2.138157 0.0797,0.239053 0.42185,0.309157 0.53454,0.53454 0.11893,0.237858 -0.0815,1.893665 0,2.138156 0.0797,0.239054 0.42185,0.309158 0.53454,0.534538 0.0797,0.159369 -0.0797,0.375171 0,0.53454 0.11269,0.22538 0.45485,0.295487 0.53454,0.534538 0.11269,0.338074 0,0.712718 0,1.069078 0,0.178181 -0.0797,0.375171 0,0.53454 0.11269,0.22538 0.45485,0.295487 0.53454,0.534538 0.11269,0.338074 0,0.712719 0,1.069078 0,0.178181 -0.0797,0.375171 0,0.53454 0.11269,0.22538 0.45485,0.295487 0.53454,0.534538 0.16036,0.481087 -0.16036,1.122534 0,1.603618 0.12599,0.377976 0.40854,0.691103 0.53454,1.069078 0.17073,0.512202 -0.16507,2.177492 0,2.672697 0.0797,0.239051 0.42184,0.309158 0.53454,0.534538 0.17362,0.347249 -0.16954,2.333627 0,2.672696 0.11269,0.22538 0.42184,0.309158 0.53453,0.534538 0.10597,0.211942 -0.10928,1.494337 0,1.603618 0.126,0.125992 0.40855,-0.125992 0.53454,0 0.126,0.125992 -0.0797,0.375169 0,0.534538 0.0512,0.102322 2.03584,2.086996 2.13816,2.138156 0.15937,0.07968 0.40855,-0.125992 0.53454,0 0.12599,0.125992 -0.12599,0.408548 0,0.53454 0.12599,0.125992 0.37517,-0.07968 0.53454,0 1.77284,1.772842 -0.50397,-0.251984 1.06908,0.534542 0.45076,0.22538 0.61831,0.84369 1.06907,1.06907 0.15937,0.0797 0.36551,-0.0563 0.53454,0 3.87189,1.29063 -0.84275,-0.15411 1.60362,1.06908 0.15937,0.0797 0.3655,-0.0563 0.53454,0 0.37798,0.12599 0.73757,0.31354 1.06908,0.53454 0.20966,0.13978 0.29548,0.45486 0.53454,0.53454 0.24469,0.0816 2.37433,0 2.67269,0 1.20765,0 -0.23905,-0.0797 1.60362,0.53454 0.34569,0.11523 2.08903,0 2.67269,0 0.38215,0 2.93361,0.0912 3.20724,0 0.23905,-0.0797 0.29548,-0.45486 0.53454,-0.53454 0.33807,-0.11269 0.77257,0.19767 1.06907,0 0.33151,-0.221 0.25282,-0.78735 0.53454,-1.06908 0.28173,-0.28172 0.73758,-0.31353 1.06908,-0.53454 0.20967,-0.13977 0.35636,-0.35635 0.53454,-0.53454"
       id="path5216"
       inkscape:connector-curvature="0" />
  </g>
</svg>
