<?xml version="1.0" encoding="UTF-8" standalone="no"?>
<!-- Created with Inkscape (http://www.inkscape.org/) -->

<svg
   xmlns:dc="http://purl.org/dc/elements/1.1/"
   xmlns:cc="http://creativecommons.org/ns#"
   xmlns:rdf="http://www.w3.org/1999/02/22-rdf-syntax-ns#"
   xmlns:svg="http://www.w3.org/2000/svg"
   xmlns="http://www.w3.org/2000/svg"
   xmlns:xlink="http://www.w3.org/1999/xlink"
   xmlns:sodipodi="http://sodipodi.sourceforge.net/DTD/sodipodi-0.dtd"
   xmlns:inkscape="http://www.inkscape.org/namespaces/inkscape"
   width="210mm"
   height="297mm"
   viewBox="0 0 210 297"
   version="1.1"
   id="svg4501"
   inkscape:version="0.92.3 (2405546, 2018-03-11)"
   sodipodi:docname="ohta-chr-lm.svg">
  <defs
     id="defs4495" />
  <sodipodi:namedview
     id="base"
     pagecolor="#ffffff"
     bordercolor="#666666"
     borderopacity="1.0"
     inkscape:pageopacity="0.0"
     inkscape:pageshadow="2"
     inkscape:zoom="0.35"
     inkscape:cx="471.38033"
     inkscape:cy="487.26434"
     inkscape:document-units="mm"
     inkscape:current-layer="layer1"
     showgrid="false"
     inkscape:window-width="1366"
     inkscape:window-height="715"
     inkscape:window-x="0"
     inkscape:window-y="0"
     inkscape:window-maximized="1" />
  <metadata
     id="metadata4498">
    <rdf:RDF>
      <cc:Work
         rdf:about="">
        <dc:format>image/svg+xml</dc:format>
        <dc:type
           rdf:resource="http://purl.org/dc/dcmitype/StillImage" />
        <dc:title></dc:title>
      </cc:Work>
    </rdf:RDF>
  </metadata>
  <g
     inkscape:label="Layer 1"
     inkscape:groupmode="layer"
     id="layer1">
    <image
       sodipodi:absref="/home/aanper/project/luysy-imn-eh/pi/boot/bydefault/web/img/ohta.png"
       y="-0.0074072876"
       x="-0.02204407"
       id="image5121"
       xlink:href="file:///home/aanper/project/luysy-imn-eh/pi/boot/bydefault/web/img/ohta.png"
       preserveAspectRatio="none"
       height="343.60559"
       width="265.28888" />
    <ellipse
       style="fill:#000000;fill-opacity:1;stroke:#00ff00;stroke-width:0.30000001;stroke-miterlimit:4;stroke-dasharray:none;stroke-opacity:1;paint-order:stroke fill markers"
       id="path5124"
       cx="137.58333"
       cy="52.827377"
       rx="5.2916665"
       ry="4.5357141" />
    <ellipse
       style="fill:#000000;fill-opacity:1;stroke:#00ff00;stroke-width:0.30000001;stroke-miterlimit:4;stroke-dasharray:none;stroke-opacity:1;paint-order:stroke fill markers"
       id="path5126"
       cx="50.45982"
       cy="313.25296"
       rx="2.8348215"
       ry="3.0238097" />
    <circle
       style="fill:#000000;fill-opacity:1;stroke:#00ff00;stroke-width:0.30000001;stroke-miterlimit:4;stroke-dasharray:none;stroke-opacity:1;paint-order:stroke fill markers"
       id="path5128"
       cx="220.73808"
       cy="98.5625"
       r="2.2678571" />
    <path
       style="fill:none;fill-opacity:1;stroke:#00ff00;stroke-width:0.30000001;stroke-miterlimit:4;stroke-dasharray:none;stroke-opacity:1;paint-order:stroke fill markers"
       d="m 5.2916666,31.660713 c 2.5886899,0.789681 2.3366163,-2.302237 3.7797618,-3.023809 0.4507629,-0.22538 1.0611416,0.225383 1.5119046,0 0.318738,-0.159369 0.437215,-0.596582 0.755953,-0.755951 0.450763,-0.225383 1.155545,0.356359 1.511904,0 0.17818,-0.178181 -0.178179,-0.577774 0,-0.755952 0.154545,-0.154546 1.968128,0.149863 2.267857,0 0.318738,-0.159369 0.437215,-0.596585 0.755953,-0.755954 0.112384,-0.05619 2.857817,-0.05533 3.023809,0 0.534539,0.178181 0.977366,0.577773 1.511905,0.755954 0.478106,0.159366 1.061142,-0.225383 1.511905,0 0.318737,0.159366 0.437215,0.596582 0.755952,0.755952 0.450763,0.22538 1.033799,-0.15937 1.511905,0 0.534539,0.178178 0.977366,0.577773 1.511905,0.755951 0.478106,0.159369 1.061141,-0.22538 1.511904,0 0.318738,0.159369 0.41788,0.643263 0.755954,0.755952 0.803283,0.267761 2.220523,-0.267761 3.023809,0 0.534538,0.178181 0.977366,0.577773 1.511903,0.755954 0.633585,0.211193 2.522823,-0.250494 3.023809,0 0.318739,0.159369 0.437216,0.596583 0.755955,0.755952 0.60476,0.302381 1.663094,-0.302382 2.267857,0 0.318736,0.159369 0.437213,0.596582 0.755952,0.755951 0.450762,0.225383 1.06114,-0.22538 1.511903,0 0.318738,0.159369 0.437216,0.596585 0.755954,0.755955 0.475131,0.237564 2.548676,-0.237567 3.023809,0 0.318739,0.159366 0.437214,0.596582 0.755952,0.755951 0.336383,0.168191 2.678046,-0.115255 3.023809,0 0.338074,0.112692 0.437216,0.596583 0.755954,0.755952 0.604761,0.302382 1.663094,-0.302382 2.267855,0 0.318738,0.159369 0.437216,0.596585 0.755954,0.755951 0.604761,0.302382 1.663094,-0.302379 2.267858,0 0.318735,0.15937 0.437213,0.596586 0.755951,0.755955 0.475134,0.237566 2.548676,-0.237567 3.02381,0 0.318738,0.159369 0.437216,0.596582 0.755951,0.755951 0.604764,0.302382 1.663097,-0.302381 2.267858,0 0.318738,0.159369 0.437216,0.596583 0.755951,0.755952 0.450766,0.225383 1.061144,-0.22538 1.511906,0 2.507179,2.507178 -0.712718,-0.356359 1.511906,0.755954 0.318736,0.159367 0.437213,0.596583 0.755952,0.755952 0.22538,0.112691 0.577773,-0.178181 0.755951,0 0.178181,0.178178 -0.178178,0.577773 0,0.755951 0.35636,0.35636 1.061144,-0.22538 1.511906,0 0.637474,0.318739 0.87443,1.193168 1.511903,1.511906 0.450763,0.22538 1.061144,-0.225382 1.511906,0 0.318739,0.159369 0.437214,0.596583 0.755952,0.755952 0.789128,0.394562 0.722778,-0.394563 1.511906,0 0.318735,0.159369 0.437213,0.596582 0.755951,0.755952 0.604761,0.302381 1.663094,-0.30238 2.267858,0 0.318738,0.159369 0.437213,0.596585 0.755952,0.755954 0.476908,0.238453 3.302854,-0.238456 3.779763,0 0.318735,0.159366 0.437213,0.596582 0.755951,0.755951 0.459031,0.229516 4.076682,-0.229515 4.535715,0 1.868263,0.934133 -0.26094,0.755952 1.511904,0.755952 0.535821,0 4.340262,-0.09773 4.535715,0 0.318738,0.159369 0.437213,0.596585 0.755951,0.755952 0.469472,0.234735 4.051319,-0.242197 4.535715,0 0.318739,0.159369 0.437214,0.596585 0.755952,0.755954 0.475133,0.237567 2.548682,-0.237567 3.023812,0 0.31874,0.159369 0.41788,0.64326 0.75595,0.755951 0.38696,0.128988 3.99528,0 4.53571,0 0.25199,0 0.53058,-0.112691 0.75596,0 0.31873,0.15937 0.43721,0.596583 0.75595,0.755952 0.47513,0.237567 2.54868,-0.237567 3.02381,0 0.31874,0.159369 0.43721,0.596585 0.75595,0.755954 0.60476,0.302379 1.6631,-0.302381 2.26786,0 0.31874,0.159367 0.43721,0.596583 0.75595,0.755952 0.45076,0.22538 1.06114,-0.225383 1.51191,0 0.31873,0.159369 0.43721,0.596582 0.75595,0.755952 0.22538,0.112691 0.53057,-0.112692 0.75595,0 0.31874,0.159369 0.43721,0.596585 0.75595,0.755951 0.22538,0.112692 0.53057,-0.112688 0.75595,0 0.31874,0.159369 0.43722,0.596585 0.75596,0.755954 0.22538,0.112689 0.53057,-0.112691 0.75595,0 0.63747,0.318736 0.87443,1.193165 1.5119,1.511904 2.22463,1.112313 -0.99527,-1.751224 1.51191,0.755954 0.25198,0.251984 0.50397,0.503968 0.75595,0.755952 0.25198,0.251983 0.43722,0.596582 0.75595,0.755951 0.22539,0.112692 0.5169,-0.07968 0.75596,0 5.47567,1.825226 -1.19185,-0.217942 2.26785,1.511906 0.22538,0.112689 0.53057,-0.112691 0.75596,0 0.31873,0.159369 0.43721,0.596583 0.75595,0.755952 0.22538,0.112691 0.53057,-0.112692 0.75595,0 0.63748,0.318738 0.87443,1.193167 1.51191,1.511906 0.22538,0.112688 0.53057,-0.112692 0.75595,0 0.31873,0.159366 0.43721,0.596582 0.75595,0.755951 0.22538,0.112692 0.57777,-0.178181 0.75595,0 0.17818,0.178179 -0.17818,0.577773 0,0.755952 0.17818,0.178181 0.53057,-0.112692 0.75595,0 0.31874,0.159369 0.43722,0.596585 0.75596,0.755951 0.22538,0.112692 0.53057,-0.112688 0.75595,0 0.31874,0.15937 0.43721,0.596586 0.75595,0.755955 0.22538,0.112688 0.57777,-0.178181 0.75595,0 1.5641,1.564092 -2.39014,-0.06114 0.75596,1.511903 1.04273,0.521364 0.67617,-0.915498 1.5119,0.755954 0.11269,0.22538 -0.17818,0.577771 0,0.755952 0.17818,0.178178 0.53057,-0.112692 0.75595,0 0.35007,0.175032 2.5792,2.5792 3.02381,3.023809 0.44461,0.444608 2.84878,2.673744 3.02381,3.023809 0.11269,0.225383 -0.11269,0.530572 0,0.755952 0.15937,0.318738 0.59659,0.437216 0.75595,0.755954 0.1127,0.22538 -0.17818,0.57777 0,0.755951 0.17819,0.178179 0.57778,-0.178181 0.75596,0 0.17818,0.178179 -0.11269,0.530572 0,0.755952 0.31873,0.637477 1.19316,0.874429 1.5119,1.511906 0.11269,0.22538 -0.11269,0.530572 0,0.755952 0.15937,0.318738 0.59658,0.437216 0.75595,0.755951 0.1127,0.225383 -0.11269,0.530572 0,0.755954 0.31874,0.637474 1.19317,0.87443 1.51191,1.511904 0.11269,0.225382 -0.11269,0.530571 0,0.755954 0.31874,0.637474 1.19317,0.874429 1.5119,1.511903 0.11269,0.225383 -0.11269,0.530572 0,0.755952 0.31874,0.637476 1.19317,0.874429 1.51191,1.511906 0.11269,0.22538 -0.11269,0.530571 0,0.755951 0.15937,0.318739 0.59658,0.437216 0.75595,0.755955 0.11269,0.22538 -0.11269,0.530569 0,0.755951 0.15937,0.318738 0.64326,0.41788 0.75595,0.755952 0.15937,0.478107 -0.15936,1.033798 0,1.511906 0.11269,0.338071 0.59659,0.437213 0.75596,0.755951 0.11269,0.22538 -0.11269,0.530572 0,0.755952 0.15937,0.318738 0.64326,0.41788 0.75595,0.755954 0.15937,0.478105 -0.15937,1.033796 0,1.511903 0.11269,0.338072 0.59658,0.437216 0.75595,0.755952 0.11269,0.225383 -0.11269,0.530572 0,0.755954 0.15937,0.318736 0.59658,0.437214 0.75595,0.755952 0.11269,0.22538 -0.11269,0.530571 0,0.755952 0.15937,0.318738 0.59659,0.437216 0.75596,0.755954 0.11269,0.22538 -0.1127,0.530569 0,0.755951 0.15936,0.318739 0.59658,0.437214 0.75595,0.755952 0.22538,0.450763 -0.22538,1.061143 0,1.511906 0.15937,0.318735 0.59658,0.437213 0.75595,0.755951 0.22538,0.450763 -0.15937,1.033803 0,1.511903 0.17818,0.53454 0.57777,0.97737 0.75595,1.51191 0.0797,0.23905 -0.11269,0.53057 0,0.75595 0.15937,0.31874 0.59659,0.43721 0.75595,0.75595 0.1127,0.22538 -0.0797,0.5169 0,0.75595 0.17819,0.53454 0.6193,0.96528 0.75596,1.51191 0.12223,0.48892 -0.15937,1.0338 0,1.5119 0.11269,0.33807 0.64326,0.41788 0.75595,0.75595 0.22679,0.68036 -0.22679,1.5875 0,2.26786 0.17818,0.53454 0.61929,0.96528 0.75595,1.51191 0.12223,0.48892 -0.15937,1.0338 0,1.5119 0.11269,0.33808 0.55828,0.45945 0.75595,0.75596 0.31255,0.46882 0.57778,0.97736 0.75596,1.5119 0.0797,0.23905 -0.0797,0.5169 0,0.75595 0.17818,0.53454 0.57777,0.97737 0.75595,1.51191 0.0797,0.23905 -0.11269,0.53057 0,0.75595 0.15937,0.31874 0.64326,0.41788 0.75595,0.75595 0.15937,0.47811 -0.15937,1.0338 0,1.51191 0.11269,0.33807 0.59658,0.43721 0.75595,0.75595 0.11269,0.22538 -0.0797,0.5169 0,0.75595 0.17818,0.53454 0.57778,0.97737 0.75596,1.5119 0.0797,0.23906 -0.11269,0.53058 0,0.75596 0.15936,0.31873 0.64326,0.41788 0.75595,0.75595 0,3.44131 -0.35636,0.0432 0.75595,2.26786 0.11269,0.22538 0,0.50397 0,0.75595 0,0.50397 -0.15937,1.0338 0,1.51191 0.11269,0.33807 0.59659,0.43721 0.75595,0.75595 0.16819,0.33638 -0.11525,2.67804 0,3.02381 0.11269,0.33807 0.59659,0.43721 0.75596,0.75595 0.16819,0.33638 -0.11526,2.67805 0,3.02381 0.11268,0.33807 0.59658,0.43721 0.75595,0.75595 0.23976,0.47951 -0.24554,3.28868 0,3.77976 0.15937,0.31874 0.59658,0.43722 0.75595,0.75596 0.11492,0.22983 0,2.5018 0,3.02381 0,1.5119 0,3.0238 0,4.53571 0,0.49674 0.14217,1.84135 0,2.26786 -0.17818,0.53454 -0.57777,0.97736 -0.75595,1.5119 -0.23505,0.70515 0.23289,3.08108 0,3.77976 -0.11269,0.33808 -0.64327,0.41788 -0.75595,0.75596 -0.15937,0.4781 0,1.00793 0,1.5119 0,1.76389 0,3.52778 0,5.29167 0,0.75595 0.23905,1.55069 0,2.26785 -0.1127,0.33807 -0.64327,0.41788 -0.75596,0.75595 -0.11535,0.34605 0,3.35783 0,3.77977 0,3.02381 0,6.04762 0,9.07143 0,1.5119 0,3.0238 0,4.53571 0,0.50397 0,1.00794 0,1.5119 0,0.50397 0.12223,1.02299 0,1.51191 -0.13666,0.54663 -0.61929,0.96527 -0.75595,1.51191 -0.12223,0.48892 0,1.00793 0,1.5119 0,0.63303 0.14372,3.20488 0,3.77976 -0.13666,0.54663 -0.61929,0.96528 -0.75595,1.51191 -0.24848,0.99393 0.31295,2.8409 0,3.77976 -0.11269,0.33807 -0.64326,0.41788 -0.75595,0.75595 -0.15937,0.47811 0,1.00794 0,1.5119 0,0.50397 0,1.00794 0,1.51191 0,2.09634 0.11269,-1.20671 -0.75596,2.26786 -0.25742,1.02971 0.30485,3.62117 0,4.53571 -0.11269,0.33807 -0.64326,0.41788 -0.75595,0.75595 -0.31874,0.95622 0.31874,2.0676 0,3.02381 -0.11269,0.33807 -0.64326,0.41788 -0.75595,0.75595 -0.31874,0.95622 0.31874,2.0676 0,3.02381 -0.11269,0.33808 -0.64326,0.41788 -0.75595,0.75596 -0.23344,0.70032 0.24145,3.0554 0,3.77976 -0.17818,0.53454 -0.57778,0.97736 -0.75596,1.5119 -0.0797,0.23906 0.0797,0.5169 0,0.75596 -0.17817,0.53453 -0.57777,0.97736 -0.75595,1.5119 -0.14941,0.44824 0.14941,1.06367 0,1.51191 -0.17818,0.53454 -0.57777,0.97736 -0.75595,1.5119 -0.25101,0.75302 0.33467,1.26383 0,2.26786 -0.11269,0.33807 -0.59658,0.43721 -0.75595,0.75595 -0.11269,0.22538 0,0.50397 0,0.75595 0,0.50397 0.15937,1.0338 0,1.51191 -0.11269,0.33807 -0.64326,0.41788 -0.75596,0.75595 -0.22678,0.68036 0.22679,1.5875 0,2.26786 -0.17818,0.53453 -0.57777,0.97736 -0.75595,1.5119 -0.26776,0.80329 0.26776,2.22053 0,3.02381 -0.11269,0.33807 -0.59658,0.43721 -0.75595,0.75595 -0.23757,0.47514 0.23757,2.54868 0,3.02381 -0.15937,0.31874 -0.64326,0.41788 -0.75595,0.75595 -0.197,0.591 0.208,4.11972 0,4.53572 -0.15937,0.31874 -0.64326,0.41788 -0.75595,0.75595 -0.12772,0.38314 0,4.67368 0,5.29167 0,0.25198 0,0.50396 0,0.75595 0,0.25199 0.11269,0.53057 0,0.75595 -0.15937,0.31874 -0.59659,0.43722 -0.75596,0.75595 -0.30238,0.60477 0.30238,1.6631 0,2.26786 -0.15937,0.31874 -0.59658,0.43722 -0.75595,0.75595 -0.23845,0.4769 0.23845,3.30287 0,3.77978 -0.15937,0.31871 -0.59658,0.4372 -0.75595,0.75594 -0.11269,0.22537 0,0.50398 0,0.75594 0,1.25992 0,2.51986 0,3.77978 0,0.25197 0,0.50396 0,0.75595 0,0.25198 0.11269,0.53056 0,0.75594 -0.15937,0.31874 -0.59658,0.43722 -0.75595,0.75596 -0.23846,0.47692 0.23845,3.30285 0,3.77976 -0.15937,0.31875 -0.59659,0.43723 -0.75596,0.75594 -0.23845,0.47691 0.23846,3.30288 0,3.77979 -0.15936,0.31871 -0.59658,0.43719 -0.75595,0.75594 -0.11269,0.22537 0,0.50398 0,0.75594 0,0.25199 0,0.50398 0,0.75597 0,1.25992 0,2.51984 0,3.77976 0,0.25198 0.11269,0.53056 0,0.75594 -0.15937,0.31874 -0.59658,0.43722 -0.75595,0.75596 -0.11269,0.22538 0,0.50396 0,0.75594 0,0.31801 0.11244,4.31086 0,4.53573 -0.15937,0.31874 -0.59659,0.43722 -0.75595,0.75594 -0.26109,0.52218 0.26535,3.51441 0,3.77976 -0.17818,0.1782 -0.57778,-0.17817 -0.75596,0 -0.15454,0.15454 0.14987,1.96813 0,2.26788 -0.15937,0.31871 -0.59658,0.43719 -0.75595,0.75594 -0.30238,0.60475 0.30238,1.66309 0,2.26785 -0.15937,0.31874 -0.59658,0.43722 -0.75595,0.75596 -0.0977,0.19545 0,3.99989 0,4.5357 0,1.77287 0.17818,-0.35634 -0.75595,1.51191 -0.11269,0.2254 0.11269,0.53057 0,0.75597 -0.15937,0.31872 -0.59659,0.4372 -0.75596,0.75594 -0.11269,0.22537 0.17818,0.57777 0,0.75597 -0.17817,0.17817 -0.57777,-0.1782 -0.75595,0 -0.17818,0.17817 0.17818,0.57777 0,0.75594 -0.17818,0.17817 -0.50397,0 -0.75595,0 -0.25199,0 -0.50397,0 -0.75595,0 -0.39531,0 -2.82504,0.0994 -3.02381,0 -2.50718,-2.50719 0.71272,0.35637 -1.51191,-0.75594 -0.31873,-0.15939 -0.43721,-0.59659 -0.75595,-0.75597 -0.45076,-0.22537 -1.06114,0.22537 -1.5119,0 -0.31874,-0.15936 -0.43722,-0.59658 -0.75596,-0.75594 -0.23006,-0.11504 -1.92741,0 -2.26785,0 -1.51191,0 -3.02381,0 -4.53572,0 -0.25198,0 -0.50397,0 -0.75595,0 -0.25199,0 -0.57777,0.17817 -0.75595,0 -0.17818,-0.1782 0.17818,-0.57777 0,-0.75597 -0.37798,-0.37796 -1.88988,0.37798 -2.26786,0 -0.17818,-0.17817 0.17818,-0.57777 0,-0.75594 -0.35636,-0.35637 -1.15554,0.35637 -1.5119,0 -0.17819,-0.17817 0.17817,-0.57777 0,-0.75597 -0.17819,-0.17817 -0.50397,0 -0.75596,0 -0.25198,0 -0.50397,0 -0.75595,0 -2.01587,0 0.25198,0.25199 -0.75595,-0.75594 -0.17818,-0.17817 -0.50397,0 -0.75595,0 -0.5258,0 -3.50639,0.13669 -3.77977,0 -0.31873,-0.15936 -0.43721,-0.59658 -0.75595,-0.75594 -0.19545,-0.0977 -3.99989,0 -4.53571,0 -0.25199,0 -0.57777,-0.1782 -0.75595,0 -0.17819,0.17817 0.17818,0.57777 0,0.75594 -0.17819,0.17817 -0.50397,0 -0.75596,0 -0.25198,0 -0.50396,0 -0.75595,0 -2.01587,0 -4.03175,0 -6.04762,0 -0.34045,0 -2.03779,-0.11504 -2.26786,0 -0.31873,0.15936 -0.43721,0.59658 -0.75595,0.75594 -0.23006,0.11504 -1.92741,0 -2.26786,0 -2.01587,0 -4.03174,0 -6.047614,0 -3.275793,0 -6.551588,0 -9.827381,0 -0.525796,0 -3.506383,-0.13668 -3.779761,0 -0.318738,0.15939 -0.41788,0.64328 -0.755954,0.75597 -0.418055,0.13936 -3.77443,0 -4.535713,0 -0.251983,0 -0.503967,0 -0.755954,0 -0.251984,0 -0.530569,-0.11269 -0.755951,0 -0.318739,0.15936 -0.437214,0.59658 -0.755952,0.75594 -0.522163,0.26109 -3.514408,-0.26535 -3.779763,0 -0.178179,0.1782 0.178181,0.57777 0,0.75597 -0.03426,0.0343 -3.42333,0 -3.779761,0 -0.34045,0 -2.037795,0.11501 -2.267858,0 -0.318738,-0.15939 -0.437213,-0.59658 -0.755951,-0.75597 -0.195453,-0.0977 -3.999894,0 -4.535715,0 -0.251984,0 -0.530572,0.11269 -0.755952,0 -0.318738,-0.15936 -0.437216,-0.59658 -0.755952,-0.75594 -0.273378,-0.13668 -3.253967,0 -3.779763,0 -0.251984,0 -0.577773,-0.17817 -0.755952,0 -0.178181,0.17817 0.178179,0.57777 0,0.75594 -0.206845,0.20685 -2.613715,-0.20505 -3.023809,0 -0.318738,0.15939 -0.437216,0.59658 -0.755954,0.75597 -0.22538,0.11268 -0.503968,0 -0.755951,0 -0.251984,0 -0.577774,0.17817 -0.755952,0 -0.178181,-0.1782 0.112691,-0.53057 0,-0.75597 -0.934133,-1.86825 -0.755952,0.26096 -0.755952,-1.51191"
       id="path5237"
       inkscape:connector-curvature="0" />
  </g>
</svg>
