<?xml version="1.0" encoding="UTF-8" standalone="no"?>
<!-- Created with Inkscape (http://www.inkscape.org/) -->

<svg
   xmlns:dc="http://purl.org/dc/elements/1.1/"
   xmlns:cc="http://creativecommons.org/ns#"
   xmlns:rdf="http://www.w3.org/1999/02/22-rdf-syntax-ns#"
   xmlns:svg="http://www.w3.org/2000/svg"
   xmlns="http://www.w3.org/2000/svg"
   xmlns:xlink="http://www.w3.org/1999/xlink"
   xmlns:sodipodi="http://sodipodi.sourceforge.net/DTD/sodipodi-0.dtd"
   xmlns:inkscape="http://www.inkscape.org/namespaces/inkscape"
   width="424.74442mm"
   height="241.3mm"
   viewBox="0 0 424.74442 241.3"
   version="1.1"
   id="svg3800"
   inkscape:version="0.92.3 (2405546, 2018-03-11)"
   sodipodi:docname="piskarevka-tone-ohta.svg">
  <defs
     id="defs3794" />
  <sodipodi:namedview
     id="base"
     pagecolor="#ffffff"
     bordercolor="#666666"
     borderopacity="1.0"
     inkscape:pageopacity="0.0"
     inkscape:pageshadow="2"
     inkscape:zoom="0.49497475"
     inkscape:cx="784.27432"
     inkscape:cy="344.90984"
     inkscape:document-units="px"
     inkscape:current-layer="layer1"
     showgrid="false"
     fit-margin-top="-2.7755576e-17"
     fit-margin-left="0"
     fit-margin-right="0"
     fit-margin-bottom="0"
     inkscape:window-width="1366"
     inkscape:window-height="715"
     inkscape:window-x="0"
     inkscape:window-y="0"
     inkscape:window-maximized="1" />
  <metadata
     id="metadata3797">
    <rdf:RDF>
      <cc:Work
         rdf:about="">
        <dc:format>image/svg+xml</dc:format>
        <dc:type
           rdf:resource="http://purl.org/dc/dcmitype/StillImage" />
        <dc:title></dc:title>
      </cc:Work>
    </rdf:RDF>
  </metadata>
  <g
     inkscape:label="Layer 1"
     inkscape:groupmode="layer"
     id="layer1"
     transform="translate(-0.05041131,0.32144204)">
    <image
       sodipodi:absref="/home/aanper/project/luysy-imn-eh/pi/boot/bydefault/web/img/piskarevka.png"
       y="-0.32144204"
       x="0.050411314"
       id="image4404"
       xlink:href="file:///home/aanper/project/luysy-imn-eh/pi/boot/bydefault/web/img/piskarevka.png"
       preserveAspectRatio="none"
       height="241.3"
       width="424.74442" />
    <ellipse
       style="fill:#000000;fill-opacity:1;stroke:#00ff00;stroke-width:0.30000001;stroke-miterlimit:4;stroke-dasharray:none;stroke-opacity:1;paint-order:stroke fill markers"
       id="path4407"
       cx="361.66611"
       cy="73.667831"
       rx="2.4054255"
       ry="2.6726952" />
    <circle
       style="fill:#000000;fill-opacity:1;stroke:#00ff00;stroke-width:0.30000001;stroke-miterlimit:4;stroke-dasharray:none;stroke-opacity:1;paint-order:stroke fill markers"
       id="path4409"
       cx="81.300346"
       cy="167.7467"
       r="2.6726952" />
    <path
       style="fill:none;fill-opacity:1;stroke:#00ff00;stroke-width:0.30000001;stroke-miterlimit:4;stroke-dasharray:none;stroke-opacity:1;paint-order:stroke fill markers"
       d="m 86.645736,168.81578 c 0.712719,-0.17818 1.425437,-0.35636 2.138156,-0.53454 0,-0.17818 -0.125992,-0.40854 0,-0.53454 0.0172,-0.0172 1.473978,0 1.603618,0 0.178181,0 0.408546,-0.12599 0.534541,0 0.125992,0.126 -0.125995,0.40855 0,0.53454 0.267269,0.26727 1.336347,-0.26726 1.603616,0 0.125991,0.126 -0.125992,0.40855 0,0.53454 0.125991,0.12599 0.356359,0 0.53454,0 0.178178,0 0.356359,0 0.534538,0 1.25359,0 -0.251984,-0.12599 1.069078,0.53454 0.159369,0.0797 0.375171,-0.0797 0.53454,0 0.22538,0.11269 0.309158,0.42185 0.534538,0.53454 0.159369,0.0797 0.408548,-0.12599 0.53454,0 0.125992,0.12599 -0.125992,0.40855 0,0.53454 0.125992,0.12599 0.375169,-0.0797 0.534538,0 0.225382,0.11269 0.309157,0.42185 0.53454,0.53454 0.159367,0.0797 0.375169,-0.0797 0.534538,0 0.225382,0.11269 0.309157,0.42185 0.53454,0.53454 0.159369,0.0797 0.375169,-0.0797 0.534538,0 0.225382,0.11269 0.309157,0.42185 0.53454,0.53454 0.159369,0.0797 0.408546,-0.126 0.534535,0 0.12599,0.12599 -0.125989,0.40855 0,0.53454 0.12599,0.12599 0.37517,-0.0797 0.53454,0 0.22538,0.11269 0.30916,0.42185 0.53454,0.53453 0.15937,0.0797 0.40855,-0.12599 0.53454,0 0.12599,0.126 -0.12599,0.40855 0,0.53455 0.12599,0.12599 0.37517,-0.0797 0.53454,0 0.22538,0.11269 0.30916,0.42184 0.53454,0.53453 0.31873,0.15937 0.81709,-0.25198 1.06908,0 0.12599,0.12599 -0.12599,0.40855 0,0.53454 0.12599,0.126 0.40854,-0.12599 0.53454,0 0.12599,0.126 -0.126,0.40855 0,0.53454 0.25198,0.25198 0.81709,-0.25198 1.06907,0 0.126,0.12599 -0.12599,0.40855 0,0.53454 0.126,0.12599 0.37517,-0.0797 0.53454,0 0.22538,0.11269 0.30916,0.42185 0.53454,0.53454 0.15937,0.0797 0.37517,-0.0797 0.53454,0 0.22538,0.11269 0.30916,0.42185 0.53454,0.53454 0.15937,0.0797 0.37517,-0.0797 0.53454,0 0.22538,0.11269 0.30916,0.42185 0.53454,0.53454 0.33597,0.16798 1.80219,-0.16799 2.13815,0 0.22539,0.11269 0.30916,0.42185 0.53454,0.53454 0.19331,0.0966 2.30091,0 2.6727,0 0.1963,0 2.11664,-0.0215 2.13815,0 0.126,0.12599 -0.12599,0.40854 0,0.53454 0.126,0.12599 0.35636,0 0.53454,0 0.24074,0 1.44094,0.0813 1.60362,0 0.22538,-0.11269 0.30916,-0.42185 0.53454,-0.53454 0.21194,-0.10597 1.49434,0.10928 1.60362,0 0.12599,-0.12599 -0.126,-0.40855 0,-0.53454 0.25198,-0.25199 0.75034,0.15937 1.06908,0 0.22538,-0.11269 0.30915,-0.42185 0.53453,-0.53454 0.15937,-0.0797 0.37518,0.0797 0.53454,0 0.22538,-0.11269 0.30916,-0.42185 0.53454,-0.53454 0.15937,-0.0797 0.37517,0.0797 0.53454,0 0.22538,-0.11269 0.30916,-0.42185 0.53454,-0.53454 0.15937,-0.0797 0.37517,0.0797 0.53454,0 2.22462,-1.11231 -0.57144,0.0369 0.53454,-1.06908 0.12599,-0.12599 0.37517,0.0797 0.53454,0 0.22538,-0.11269 0.30916,-0.42185 0.53454,-0.53454 0.15937,-0.0797 0.40854,0.12599 0.53454,0 0.12599,-0.12599 -0.0797,-0.37517 0,-0.53453 0.22538,-0.45077 0.84369,-0.61832 1.06907,-1.06908 0.0797,-0.15937 -0.0797,-0.37517 0,-0.53454 0.11269,-0.22538 0.42185,-0.30916 0.53454,-0.53454 0.0797,-0.15937 -0.0797,-0.37517 0,-0.53454 0.11269,-0.22538 0.42185,-0.30916 0.53454,-0.53454 0.0797,-0.15937 -0.0797,-0.37517 0,-0.53454 0.11269,-0.22538 0.42185,-0.30916 0.53454,-0.53454 0.21382,-0.42763 -0.21381,-1.17598 0,-1.60362 0.11269,-0.22538 0.42185,-0.30915 0.53454,-0.53453 0.0797,-0.15937 -0.0797,-0.37517 0,-0.53454 0.11269,-0.22538 0.42185,-0.30916 0.53454,-0.53454 0.15937,-0.31874 -0.15937,-0.75034 0,-1.06908 0.11269,-0.22538 0.42185,-0.30916 0.53454,-0.53454 0.21381,-0.42763 -0.21382,-1.17599 0,-1.60362 0.11269,-0.22538 0.42185,-0.30915 0.53454,-0.53454 0.15937,-0.31873 -0.15937,-0.75034 0,-1.06907 0.11269,-0.22538 0.42185,-0.30916 0.53454,-0.53454 0.0797,-0.15937 -0.0797,-0.37517 0,-0.53454 0.11269,-0.22538 0.42184,-0.30916 0.53453,-0.53454 0.0797,-0.15937 -0.0797,-0.37517 0,-0.53454 0.22539,-0.45076 0.8437,-0.61832 1.06908,-1.06908 0.0797,-0.15937 -0.12599,-0.40854 0,-0.53454 0.12599,-0.12599 0.37517,0.0797 0.53454,0 1.1819,-0.59095 0.16588,-0.33175 0.53454,-1.06907 0.263,-0.52601 1.87516,-1.61216 2.13816,-2.13816 0.0797,-0.15937 -0.0797,-0.37517 0,-0.53454 0.11269,-0.22538 0.35636,-0.35636 0.53454,-0.53454 0.17818,-0.17818 0.30915,-0.42185 0.53453,-0.53454 0.15937,-0.0797 0.40855,0.12599 0.53455,0 0.12599,-0.12599 -0.0797,-0.37517 0,-0.53454 0.071,-0.14192 1.46169,-1.53265 1.60361,-1.60361 0.15937,-0.0797 0.40855,0.12599 0.53454,0 0.12599,-0.126 -0.12599,-0.40855 0,-0.53454 0.12599,-0.126 0.37517,0.0797 0.53454,0 0.22538,-0.11269 0.30916,-0.42185 0.53454,-0.53454 0.15937,-0.0797 0.37517,0.0797 0.53454,0 0.22538,-0.11269 0.30915,-0.42185 0.53454,-0.53454 0.31874,-0.15937 0.75034,0.15937 1.06908,0 0.22538,-0.11269 0.30915,-0.42185 0.53453,-0.53454 0.15937,-0.0797 0.35636,0 0.53454,0 0.17818,0 0.37517,-0.0797 0.53454,0 0.22538,0.11269 0.30916,0.42185 0.53454,0.53454 0.33597,0.16798 1.80219,-0.16799 2.13816,0 0.22538,0.11269 0.30916,0.42185 0.53454,0.53454 0.16267,0.0813 1.36288,0 1.60361,0 1.24726,0 2.49452,0 3.74178,0 0.24073,0 1.44093,-0.0813 1.60361,0 0.22539,0.11269 0.30916,0.42185 0.53454,0.53454 0.31874,0.15936 0.75034,-0.15937 1.06908,0 0.22538,0.11269 0.30916,0.42184 0.53454,0.53454 0.31874,0.15936 0.75034,-0.15937 1.06908,0 0.45076,0.22538 0.61831,0.84369 1.06908,1.06907 0.31873,0.15937 0.75034,-0.15937 1.06907,0 0.22539,0.1127 0.30916,0.42185 0.53454,0.53454 0.31874,0.15937 0.75034,-0.15936 1.06908,0 0.22538,0.11269 0.30916,0.42185 0.53454,0.53454 0.15937,0.0797 0.37517,-0.0797 0.53454,0 0.22538,0.11269 0.30916,0.42185 0.53454,0.53454 0.31874,0.15937 0.75034,-0.15937 1.06908,0 0.22538,0.11269 0.30915,0.42185 0.53454,0.53454 0.15937,0.0797 0.40854,-0.12599 0.53453,0 0.126,0.12599 -0.12599,0.40855 0,0.53454 0.126,0.12599 0.37518,-0.0797 0.53454,0 0.22538,0.11269 0.30916,0.42185 0.53454,0.53454 0.15937,0.0797 0.40855,-0.12599 0.53454,0 0.12599,0.12599 -0.12599,0.40855 0,0.53454 0.12599,0.12599 0.37517,-0.0797 0.53454,0 0.22538,0.11269 0.30916,0.42184 0.53454,0.53454 0.15937,0.0797 0.37517,-0.0797 0.53454,0 0.22538,0.11269 0.30916,0.42185 0.53454,0.53454 0.31874,0.15936 0.81709,-0.25199 1.06908,0 0.12599,0.12599 -0.12599,0.40854 0,0.53453 0.25198,0.25199 0.75034,-0.15937 1.06908,0 0.22538,0.1127 0.30915,0.42185 0.53453,0.53454 0.31874,0.15937 0.75035,-0.15936 1.06908,0 0.22538,0.11269 0.30916,0.42185 0.53454,0.53454 0.31874,0.15937 0.75034,-0.15937 1.06908,0 0.22538,0.11269 0.29549,0.45486 0.53454,0.53454 0.33807,0.11269 0.731,-0.11269 1.06908,0 0.23905,0.0797 0.30915,0.42185 0.53454,0.53454 0.15936,0.0797 0.37517,-0.0797 0.53453,0 0.22539,0.11269 0.30916,0.42185 0.53454,0.53454 0.15937,0.0797 0.35636,0 0.53454,0 0.35636,0 0.73101,-0.11269 1.06908,0 0.23905,0.0797 0.30916,0.42185 0.53454,0.53454 0.15937,0.0797 0.3655,-0.0564 0.53454,0 0.37798,0.12599 0.6911,0.40855 1.06908,0.53454 0.48108,0.16036 1.12253,-0.16036 1.60361,0 0.23906,0.0797 0.29549,0.45485 0.53454,0.53454 0.33808,0.11269 0.73101,-0.1127 1.06908,0 0.23905,0.0797 0.29549,0.45485 0.53454,0.53454 0.33807,0.11269 0.72336,-0.0864 1.06908,0 0.38652,0.0966 0.68255,0.4379 1.06908,0.53453 0.34572,0.0864 0.72336,-0.0864 1.06907,0 0.38653,0.0966 0.68256,0.43791 1.06908,0.53454 0.34572,0.0864 0.72336,-0.0864 1.06908,0 0.38653,0.0966 0.68255,0.43791 1.06908,0.53454 0.34572,0.0864 0.731,-0.11269 1.06908,0 0.23905,0.0797 0.29548,0.45486 0.53454,0.53454 0.33807,0.11269 0.72335,-0.0864 1.06907,0 0.38653,0.0966 0.68256,0.43791 1.06908,0.53454 0.34572,0.0864 0.72336,-0.0864 1.06908,0 0.38653,0.0966 0.68255,0.43791 1.06908,0.53454 0.34572,0.0864 0.72336,-0.0864 1.06908,0 0.38652,0.0966 0.68255,0.43791 1.06907,0.53454 0.34572,0.0864 0.72336,-0.0864 1.06908,0 0.38653,0.0966 0.68255,0.43791 1.06908,0.53454 0.34572,0.0864 0.72336,-0.0864 1.06908,0 0.38652,0.0966 0.68255,0.43791 1.06908,0.53454 0.34572,0.0864 0.72335,-0.0864 1.06908,0 0.38652,0.0966 0.68255,0.43791 1.06907,0.53454 0.69144,0.17286 1.44672,-0.17286 2.13816,0 0.38653,0.0966 0.68255,0.4379 1.06908,0.53453 0.69144,0.17286 1.44672,-0.17286 2.13815,0 0.38653,0.0966 0.69111,0.40855 1.06908,0.53454 0.5122,0.17074 2.17749,-0.16506 2.6727,0 0.23905,0.0797 0.29548,0.45486 0.53454,0.53454 0.67614,0.22539 1.46201,-0.22538 2.13815,0 0.23906,0.0797 0.29549,0.45486 0.53454,0.53454 0.33807,0.11269 0.72336,-0.0864 1.06908,0 0.38652,0.0966 0.68255,0.43791 1.06908,0.53454 0.34572,0.0864 0.731,-0.11269 1.06908,0 0.23905,0.0797 0.29548,0.45486 0.53453,0.53454 0.33808,0.11269 0.72336,-0.0864 1.06908,0 0.38653,0.0966 0.68256,0.43791 1.06908,0.53454 0.34572,0.0864 0.72336,-0.0864 1.06908,0 0.38653,0.0966 0.6911,0.40855 1.06908,0.53454 0.16903,0.0563 0.3655,-0.0564 0.53454,0 0.37797,0.12599 0.68255,0.43791 1.06907,0.53454 0.34572,0.0864 0.72336,-0.0864 1.06908,0 0.38653,0.0966 0.6911,0.40855 1.06908,0.53454 0.16904,0.0563 0.3655,-0.0564 0.53454,0 0.37798,0.12599 0.68255,0.4379 1.06908,0.53453 0.34572,0.0864 0.731,-0.11268 1.06907,0 0.23906,0.0797 0.29549,0.45486 0.53454,0.53455 0.33808,0.11269 0.72336,-0.0864 1.06908,0 0.38653,0.0966 0.6911,0.40854 1.06908,0.53453 0.16904,0.0564 0.3655,-0.0563 0.53454,0 0.37798,0.12599 0.68255,0.43791 1.06908,0.53454 0.34572,0.0864 0.731,-0.11269 1.06908,0 0.23905,0.0797 0.29548,0.45486 0.53453,0.53454 0.33808,0.11269 0.72336,-0.0864 1.06908,0 0.38653,0.0966 0.68255,0.43791 1.06908,0.53454 0.34572,0.0864 0.73101,-0.11269 1.06908,0 0.23905,0.0797 0.29549,0.45485 0.53454,0.53454 0.67614,0.22538 1.44671,-0.17286 2.13816,0 0.38652,0.0966 0.68255,0.43791 1.06907,0.53454 0.34572,0.0864 0.72336,-0.0864 1.06908,0 0.38653,0.0966 0.68255,0.43791 1.06908,0.53454 0.51858,0.12964 1.08504,-0.12965 1.60362,0 0.54663,0.13666 1.0511,0.42403 1.60361,0.53454 1.02796,0.20559 2.17928,-0.20559 3.20724,0 3.23615,0.64723 0.22147,0.53454 2.67269,0.53454 1.42544,0 2.85088,0 4.27631,0 0.53454,0 1.07946,-0.10484 1.60362,0 0.39069,0.0781 0.6784,0.4564 1.06908,0.53454 0.52416,0.10483 1.06907,0 1.60361,0 1.24727,0 2.49452,0 3.74179,0 0.35634,0 0.72334,-0.0864 1.06907,0 0.38653,0.0966 0.68255,0.4379 1.06908,0.53453 0.69143,0.17286 1.44671,-0.17285 2.13815,0 0.38653,0.0966 0.68255,0.43791 1.06908,0.53454 0.69143,0.17286 1.462,-0.22538 2.13815,0 0.23905,0.0797 0.29548,0.45486 0.53453,0.53454 0.33809,0.11269 0.73102,-0.11269 1.06911,0 0.23905,0.0797 0.29548,0.45486 0.53453,0.53454 0.33806,0.11269 0.71271,0 1.06908,0 0.17817,0 0.37515,-0.0797 0.53454,0 0.22537,0.11269 0.30914,0.42185 0.53453,0.53454 0.42762,0.21382 1.176,-0.21382 1.60362,0 0.15936,0.0797 -0.126,0.40855 0,0.53454 0.25199,0.25198 0.75033,-0.15937 1.06907,0 0.22538,0.11269 0.30917,0.42185 0.53454,0.53454 0.15939,0.0797 0.40854,-0.12599 0.53454,0 0.12599,0.12599 -0.126,0.40855 0,0.53454 0.12599,0.12599 0.37518,-0.0797 0.53454,0 0.22539,0.11269 0.35636,0.35636 0.53453,0.53454 0.1782,0.17818 0.35637,0.35636 0.53454,0.53454 0.71274,0.71271 1.42544,1.42543 2.13818,2.13815 0.28141,0.28142 1.31813,1.46087 1.60361,1.60362 0.15936,0.0797 0.37515,-0.0797 0.53454,0 0.45074,0.22538 0.6183,0.8437 1.06907,1.06908 0.15936,0.0797 0.37518,-0.0797 0.53454,0 0.22537,0.11269 0.30917,0.42184 0.53454,0.53454 0.15936,0.0797 0.37518,-0.0797 0.53454,0 0.22537,0.11269 0.30916,0.42184 0.53454,0.53454 0.15935,0.0797 0.37517,-0.0797 0.53453,0 0.22538,0.11268 0.29549,0.45485 0.53454,0.53453 0.33809,0.1127 0.73102,-0.11269 1.06908,0 0.23905,0.0797 0.30916,0.42185 0.53453,0.53454 0.15939,0.0797 0.37518,-0.0797 0.53454,0 0.2254,0.11269 0.30917,0.42185 0.53454,0.53454 0.15938,0.0797 0.36552,-0.0563 0.53454,0 0.37798,0.12599 0.69112,0.40855 1.0691,0.53454 0.16902,0.0564 0.37515,-0.0797 0.53454,0 0.22537,0.11269 0.30914,0.42185 0.53453,0.53454 0.31872,0.15937 0.75034,-0.15937 1.06908,0 0.22537,0.11269 0.30914,0.42185 0.53454,0.53454 0.15936,0.0797 0.37515,-0.0797 0.53454,0 0.22537,0.11269 0.30916,0.42185 0.53453,0.53454 0.15936,0.0797 0.37518,-0.0797 0.53454,0 0.22537,0.11269 0.30917,0.42185 0.53454,0.53454 0.31874,0.15937 0.75033,-0.15937 1.06907,0 0.22538,0.11269 0.30917,0.42184 0.53454,0.53454 0.15939,0.0797 0.37518,-0.0797 0.53454,0 0.2254,0.11269 0.30916,0.42185 0.53454,0.53454 0.15938,0.0797 0.37518,-0.0797 0.53453,0 0.2254,0.11269 0.30917,0.42184 0.53454,0.53453 0.15939,0.0797 0.37518,-0.0797 0.53454,0 0.2254,0.1127 0.30917,0.42185 0.53454,0.53454 0.15938,0.0797 0.37518,-0.0797 0.53456,0 0.22537,0.1127 0.30914,0.42185 0.53454,0.53454 0.15936,0.0797 0.37515,-0.0797 0.53454,0 0.22537,0.11269 0.30914,0.42185 0.53454,0.53454 0.15935,0.0797 0.37515,-0.0797 0.53453,0 0.22537,0.11269 0.30914,0.42185 0.53454,0.53454 0.15936,0.0797 0.37515,-0.0797 0.53454,0 0.22537,0.11269 0.30916,0.42185 0.53454,0.53454 0.33596,0.16798 1.80218,-0.16799 2.13815,0 0.22537,0.11269 0.30916,0.42185 0.53453,0.53454 0.31875,0.15937 0.75034,-0.15937 1.06908,0 0.2254,0.11269 0.30917,0.42185 0.53454,0.53454 0.42764,0.21381 1.17599,-0.21382 1.60361,0 0.2254,0.11269 0.30917,0.42185 0.53454,0.53454 0.31874,0.15937 0.75036,-0.15937 1.0691,0 0.22537,0.11269 0.30914,0.42185 0.53454,0.53454 0.15936,0.0797 0.37515,-0.0797 0.53454,0 0.14192,0.071 1.53265,1.46169 1.60361,1.60361 0.0703,0.14056 0,1.85864 0,2.13816 0,0.8909 0,1.7818 0,2.6727 0,0.17817 0,0.35635 0,0.53453 0,0.17818 0.0797,0.37517 0,0.53454 -0.11269,0.22538 -0.42185,0.30916 -0.53454,0.53454 -0.16954,0.33907 0.17362,2.32545 0,2.6727 -0.66053,1.32106 -0.53454,-0.18451 -0.53454,1.06908 0,0.17818 0,0.35635 0,0.53454 0,0.17817 0.0797,0.37516 0,0.53453 -0.11268,0.22539 -0.42185,0.30916 -0.53453,0.53454 -0.0797,0.15937 0.0797,0.37517 0,0.53454 -0.11269,0.22538 -0.42186,0.30916 -0.53454,0.53454 -0.15939,0.31874 0.25196,0.81709 0,1.06908 -0.126,0.12599 -0.40857,-0.12599 -0.53454,0 -0.25199,0.25198 0.15936,0.75034 0,1.06908 -0.11271,0.22538 -0.42185,0.30916 -0.53454,0.53454 -0.0797,0.15936 0.0797,0.37517 0,0.53454 -0.11271,0.22538 -0.42185,0.30915 -0.53456,0.53453 -0.15936,0.31874 0.25199,0.8171 0,1.06908 -0.12597,0.12599 -0.40854,-0.12599 -0.53454,0 -0.26726,0.26727 0.26728,1.33635 0,1.60362 -0.12597,0.12599 -0.40854,-0.12599 -0.53454,0 -0.12599,0.12599 0.0797,0.37517 0,0.53454 -0.11268,0.22538 -0.42182,0.30916 -0.53453,0.53454 -0.15936,0.31873 0.25198,0.81709 0,1.06908 -0.126,0.12599 -0.40855,-0.126 -0.53454,0 -0.126,0.12599 0.0797,0.37516 0,0.53453 -0.11269,0.22539 -0.42185,0.30916 -0.53454,0.53454 -0.15936,0.31874 0.15938,0.75034 0,1.06908 -0.70604,1.41207 -0.36303,-0.34299 -1.06908,1.06908 -0.15935,0.31874 0.15939,0.75034 0,1.06908 -0.11268,0.22538 -0.42185,0.30916 -0.53453,0.53454 -0.0797,0.15937 0.0797,0.37517 0,0.53454 -0.22538,0.45076 -0.84371,0.61831 -1.06908,1.06907 -0.0797,0.15937 0.0797,0.37517 0,0.53454 -0.11268,0.22538 -0.42185,0.30916 -0.53454,0.53454 -0.0797,0.15937 0.0797,0.37517 0,0.53454 -0.26299,0.526 -1.87515,1.61216 -2.13815,2.13816 -0.0797,0.15937 0.126,0.40854 0,0.53454 -0.12599,0.12599 -0.37518,-0.0797 -0.53453,0 -0.14193,0.071 -1.53266,1.46169 -1.60362,1.60361 -0.0797,0.15937 0.0797,0.37517 0,0.53454 -0.11271,0.22538 -0.42185,0.30916 -0.53456,0.53454 -0.0797,0.15937 0.0797,0.37517 0,0.53454 -0.11269,0.22538 -0.42183,0.30916 -0.53454,0.53454 -0.15936,0.31874 0.25199,0.81709 0,1.06908 -0.12597,0.12599 -0.40854,-0.126 -0.53454,0 -0.25196,0.25198 0.25199,0.81709 0,1.06907 -0.12599,0.126 -0.40854,-0.12599 -0.53454,0 -0.12599,0.126 0.1782,0.53454 0,0.53454 -0.17817,0 0,-0.35635 0,-0.53454"
       id="path4474"
       inkscape:connector-curvature="0" />
  </g>
</svg>
