<?xml version="1.0" encoding="UTF-8" standalone="no"?>
<!-- Created with Inkscape (http://www.inkscape.org/) -->

<svg
   xmlns:dc="http://purl.org/dc/elements/1.1/"
   xmlns:cc="http://creativecommons.org/ns#"
   xmlns:rdf="http://www.w3.org/1999/02/22-rdf-syntax-ns#"
   xmlns:svg="http://www.w3.org/2000/svg"
   xmlns="http://www.w3.org/2000/svg"
   xmlns:xlink="http://www.w3.org/1999/xlink"
   xmlns:sodipodi="http://sodipodi.sourceforge.net/DTD/sodipodi-0.dtd"
   xmlns:inkscape="http://www.inkscape.org/namespaces/inkscape"
   width="424.74442mm"
   height="241.3mm"
   viewBox="0 0 424.74442 241.3"
   version="1.1"
   id="svg3800"
   inkscape:version="0.92.3 (2405546, 2018-03-11)"
   sodipodi:docname="piskarevka-sntx-ohta.svg">
  <defs
     id="defs3794" />
  <sodipodi:namedview
     id="base"
     pagecolor="#ffffff"
     bordercolor="#666666"
     borderopacity="1.0"
     inkscape:pageopacity="0.0"
     inkscape:pageshadow="2"
     inkscape:zoom="0.49497475"
     inkscape:cx="784.27432"
     inkscape:cy="344.90984"
     inkscape:document-units="px"
     inkscape:current-layer="layer1"
     showgrid="false"
     fit-margin-top="-2.7755576e-17"
     fit-margin-left="0"
     fit-margin-right="0"
     fit-margin-bottom="0"
     inkscape:window-width="1366"
     inkscape:window-height="715"
     inkscape:window-x="0"
     inkscape:window-y="0"
     inkscape:window-maximized="1" />
  <metadata
     id="metadata3797">
    <rdf:RDF>
      <cc:Work
         rdf:about="">
        <dc:format>image/svg+xml</dc:format>
        <dc:type
           rdf:resource="http://purl.org/dc/dcmitype/StillImage" />
        <dc:title></dc:title>
      </cc:Work>
    </rdf:RDF>
  </metadata>
  <g
     inkscape:label="Layer 1"
     inkscape:groupmode="layer"
     id="layer1"
     transform="translate(-0.05041131,0.32144204)">
    <image
       sodipodi:absref="/home/aanper/project/luysy-imn-eh/pi/boot/bydefault/web/img/piskarevka.png"
       y="-0.32144204"
       x="0.050411314"
       id="image4404"
       xlink:href="file:///home/aanper/project/luysy-imn-eh/pi/boot/bydefault/web/img/piskarevka.png"
       preserveAspectRatio="none"
       height="241.3"
       width="424.74442" />
    <ellipse
       style="fill:#000000;fill-opacity:1;stroke:#00ff00;stroke-width:0.30000001;stroke-miterlimit:4;stroke-dasharray:none;stroke-opacity:1;paint-order:stroke fill markers"
       id="path4407"
       cx="361.66611"
       cy="73.667831"
       rx="2.4054255"
       ry="2.6726952" />
    <circle
       style="fill:#000000;fill-opacity:1;stroke:#00ff00;stroke-width:0.30000001;stroke-miterlimit:4;stroke-dasharray:none;stroke-opacity:1;paint-order:stroke fill markers"
       id="path4409"
       cx="81.300346"
       cy="167.7467"
       r="2.6726952" />
    <path
       style="fill:none;fill-opacity:1;stroke:#00ff00;stroke-width:0.30000001;stroke-miterlimit:4;stroke-dasharray:none;stroke-opacity:1;paint-order:stroke fill markers"
       d="m 365.67513,75.271449 c 0.7127,-0.534537 1.50817,-0.973656 2.13815,-1.603615 0.12599,-0.125992 -0.0797,-0.375172 0,-0.534541 0.071,-0.141925 1.46169,-1.532654 1.60361,-1.603615 0.15938,-0.07968 0.37518,0.07968 0.53454,0 0.2254,-0.112692 0.30916,-0.421849 0.53453,-0.534541 0.42765,-0.213815 1.176,0.213815 1.60362,0 0.2254,-0.112691 0.30916,-0.421849 0.53454,-0.534538 0.16269,-0.08134 1.36289,0 1.60363,0 0.89088,0 1.78179,0 2.67269,0 0.17817,0 0.35637,0 0.53454,0 0.17817,0 0.37518,-0.07968 0.53454,0 0.22537,0.112689 0.30916,0.421847 0.53454,0.534538 0.31874,0.159369 0.75033,-0.159369 1.06907,0 0.22537,0.112692 0.30917,0.421849 0.53454,0.534541 0.31874,0.159369 0.81709,-0.251984 1.06908,0 0.12599,0.125991 -0.126,0.408545 0,0.534537 0.25198,0.251984 0.81711,-0.251984 1.06907,0 0.126,0.125992 -0.12599,0.408549 0,0.534541 0.126,0.125992 0.37518,-0.07968 0.53454,0 2.22464,1.112311 -0.57142,-0.0369 0.53454,1.069078 0.12599,0.125992 0.40857,-0.125992 0.53456,0 0.12597,0.125992 -0.12599,0.408545 0,0.534537 0.12597,0.125992 0.40854,-0.125992 0.53454,0 0.12597,0.125992 -0.126,0.408549 0,0.534541 0.12597,0.125992 0.40854,-0.125992 0.53454,0 0.12599,0.125992 -0.126,0.408545 0,0.534537 0.12599,0.125992 0.40854,-0.125992 0.53453,0 0.25199,0.251984 -0.25199,0.817095 0,1.069078 0.126,0.125992 0.40855,-0.125992 0.53454,0 0.126,0.125992 -0.12599,0.408549 0,0.534541 0.126,0.125992 0.40854,-0.125992 0.53454,0 0.12599,0.125992 -0.126,0.408546 0,0.534537 0.12599,0.125992 0.35634,0 0.53454,0 0,0.178181 -0.0797,0.375172 0,0.534541 1.1123,2.224622 -0.0369,-0.571442 1.06907,0.534538 0.126,0.125991 0,0.356359 0,0.53454 0.17817,0 0.37518,-0.07968 0.53454,0 2.22462,1.112311 -0.57145,-0.0369 0.53454,1.069078 0.12599,0.125992 0.40854,-0.125992 0.53453,0 0.126,0.125992 -0.12599,0.408546 0,0.534538 0.126,0.125992 0.40855,-0.125992 0.53454,0 0.126,0.125992 -0.12599,0.408548 0,0.53454 0.126,0.125992 0.40855,-0.125992 0.53454,0 0.12599,0.125992 -0.12599,0.408546 0,0.534538 0.12599,0.125992 0.40854,-0.125992 0.53454,0 0.25199,0.251984 -0.25199,0.817094 0,1.069078 0.12599,0.125992 0.40854,-0.125992 0.53454,0 0.0214,0.02151 0,1.941854 0,2.138156 0,0.371795 0.0967,2.479389 0,2.672696 -0.11269,0.22538 -0.42186,0.309158 -0.53454,0.534538 -0.21381,0.427633 0.21381,1.175988 0,1.603618 -0.11269,0.225383 -0.42185,0.309158 -0.53454,0.534538 -0.0797,0.159369 0.0797,0.375171 0,0.53454 -0.11269,0.225383 -0.42185,0.309158 -0.53454,0.534538 -0.0797,0.159369 0,0.356359 0,0.53454 -0.17817,0.178181 -0.42185,0.309158 -0.53454,0.534541 -0.0797,0.159366 0.0797,0.375168 0,0.534538 -1.14077,2.281544 0.0717,-1.212467 -1.06907,1.069078 -0.0797,0.159369 0.0797,0.375171 0,0.53454 -1.14078,2.281542 0.0717,-1.212466 -1.06908,1.069078 -0.0797,0.159366 0.0797,0.375169 0,0.534538 -0.11268,0.225382 -0.42185,0.309157 -0.53453,0.53454 -0.0797,0.159366 0,0.356359 0,0.534538 -0.1782,0.178181 -0.42186,0.309157 -0.53454,0.53454 -0.0797,0.159367 0.0797,0.375169 0,0.534538 -0.2254,0.450762 -0.8437,0.618315 -1.06908,1.069078 -0.0797,0.159369 0.0797,0.375171 0,0.53454 -0.11268,0.225383 -0.42185,0.309153 -0.53453,0.534533 -0.0797,0.15937 0,0.35636 0,0.53455 -0.1782,0.17817 -0.42186,0.30915 -0.53454,0.53453 -0.0797,0.15937 0.0797,0.37517 0,0.53454 -1.11234,2.22463 0.0369,-0.57144 -1.0691,0.53454 -0.12597,0.12599 0.0797,0.37517 0,0.53454 -0.11269,0.22538 -0.42183,0.30916 -0.53454,0.53454 -0.0797,0.15937 0,0.35636 0,0.53454 -0.17817,0.17818 -0.42183,0.30916 -0.53454,0.53454 -0.0797,0.15937 0.0797,0.37517 0,0.53454 -0.11269,0.22538 -0.42182,0.30916 -0.53454,0.53454 -0.0797,0.15936 0.0797,0.37517 0,0.53454 -1.77284,1.77284 0.25199,-0.50397 -0.53453,1.06907 -0.11269,0.22538 -0.42186,0.30916 -0.53454,0.53454 -0.0797,0.15937 0,0.35636 0,0.53454 -0.17817,0.35636 -0.31353,0.73757 -0.53454,1.06908 -0.13978,0.20966 -0.45485,0.29549 -0.53454,0.53454 -0.11268,0.33807 0.11269,0.731 0,1.06908 -0.15936,0.4781 -0.90971,0.59097 -1.06907,1.06907 -0.11269,0.33808 0.11268,0.73101 0,1.06908 -0.0797,0.23906 -0.45485,0.29549 -0.53454,0.53454 -0.11269,0.33807 0.11268,0.73101 0,1.06908 -0.0797,0.23905 -0.35637,0.35636 -0.53454,0.53454 -0.17817,0.35636 -0.43791,0.68255 -0.53454,1.06908 -0.0864,0.34572 0.11269,0.731 0,1.06907 -0.0797,0.23906 -0.35636,0.35636 -0.53453,0.53454 -0.1782,0.35636 -0.43792,0.68255 -0.53454,1.06908 -0.0864,0.34572 0.0864,0.72336 0,1.06908 0.32218,0.96748 -0.86593,0.99415 -1.06908,1.60362 -0.11268,0.33807 0.0864,0.72336 0,1.06908 -0.28977,1.15902 -1.31387,1.51367 -1.60361,2.67269 -0.0864,0.34572 0.11269,0.73101 0,1.06908 -0.0797,0.23905 -0.39479,0.32487 -0.53456,0.53454 -0.22098,0.33151 -0.31354,0.73757 -0.53454,1.06908 -0.13976,0.20966 -0.45485,0.29548 -0.53454,0.53453 -0.11269,0.33808 0.11271,0.73101 0,1.06908 -0.15936,0.47811 -0.90969,0.59098 -1.06908,1.06908 -0.11268,0.33807 0.11269,0.73101 0,1.06908 -0.1352,0.4056 -1.89251,1.64688 -2.13815,2.13815 -0.0797,0.15937 0.0797,0.37518 0,0.53455 -1.22319,2.44637 0.22157,-2.26828 -1.06907,1.60361 -0.0564,0.16904 0.0797,0.37517 0,0.53454 -0.22537,0.45076 -0.8437,0.61832 -1.06908,1.06908 -0.0797,0.15937 0.0797,0.37517 0,0.53454 -0.11268,0.22538 -0.42185,0.30915 -0.53453,0.53454 -0.0797,0.15937 0.0797,0.37517 0,0.53453 -0.11269,0.22539 -0.42186,0.30916 -0.53454,0.53455 -0.0797,0.15936 0.0797,0.37516 0,0.53453 -0.11269,0.22539 -0.42185,0.30916 -0.53454,0.53454 -0.0797,0.15937 0.0797,0.37517 0,0.53454 -1.2232,2.44638 0.22154,-2.26827 -1.06908,1.60362 -0.0564,0.16904 0.0797,0.37517 0,0.53454 -0.32072,0.64145 -1.28291,0.96217 -1.60364,1.60362 -0.0797,0.15936 0.0564,0.3655 0,0.53453 -1.29061,3.87189 0.15412,-0.84275 -1.06907,1.60362 -0.0797,0.15937 0.0564,0.36551 0,0.53454 -1.29061,3.87189 0.15412,-0.84276 -1.06908,1.60362 -0.0797,0.15937 0,0.35636 0,0.53454 -0.17817,0.35635 -0.31353,0.73757 -0.53453,1.06907 -0.13978,0.20967 -0.42186,0.30916 -0.53454,0.53454 -0.0797,0.15937 0,0.35636 0,0.53454 -0.17817,0.35636 -0.31353,0.73758 -0.53454,1.06908 -0.13978,0.20966 -0.42185,0.30916 -0.53454,0.53454 -0.0797,0.15937 0,0.35636 0,0.53454 -0.17817,0.35636 -0.31353,0.73757 -0.53453,1.06908 -0.13978,0.20966 -0.42186,0.30916 -0.53454,0.53454 -0.0797,0.15937 0.0797,0.37517 0,0.53454 -0.11269,0.22538 -0.45485,0.29548 -0.53454,0.53453 -0.11269,0.33808 0.11269,0.73101 0,1.06908 -0.15936,0.47811 -0.8437,0.61832 -1.06908,1.06908 -0.0797,0.15937 0.0797,0.37517 0,0.53454 -0.11268,0.22538 -0.45487,0.29548 -0.53453,0.53454 -0.11269,0.33807 0.11268,0.731 0,1.06908 -0.15939,0.4781 -0.90972,0.59097 -1.06908,1.06907 -0.11271,0.33808 0.11269,0.73101 0,1.06908 -0.15938,0.47811 -0.78954,0.64975 -1.06907,1.06908 -1.40798,0.72978 -0.17958,0.89367 -0.53457,1.60362 -0.11268,0.22538 -0.39476,0.32487 -0.53454,0.53454 -0.22098,0.3315 -0.31353,0.73757 -0.53453,1.06907 -0.13976,0.20967 -0.45485,0.29549 -0.53454,0.53454 -0.11269,0.33808 0.11271,0.73101 0,1.06908 -0.0797,0.23906 -0.39476,0.32488 -0.53454,0.53454 -0.28199,0.42298 -1.44629,2.73532 -1.60361,3.20723 -0.0563,0.16904 0.0564,0.36551 0,0.53455 -0.25199,0.75595 -0.71271,1.42543 -1.06908,2.13815 -0.17817,0.35636 -0.35636,0.71272 -0.53453,1.06908 -0.17818,0.35636 -0.29549,0.75034 -0.53454,1.06908 -0.30239,0.40317 -0.76671,0.6659 -1.06908,1.06908 -0.23905,0.31873 -0.35637,0.71271 -0.53454,1.06907 -0.71273,1.42544 -1.42544,2.85088 -2.13815,4.27632 -0.17819,0.35636 -0.35636,0.71271 -0.53453,1.06907 -0.1782,0.35636 -0.29549,0.75034 -0.53457,1.06908 -0.30236,0.40318 -0.76668,0.66591 -1.06907,1.06908 -0.23905,0.31874 -0.35634,0.71272 -0.53454,1.06908 -0.35634,0.71272 -0.71271,1.42544 -1.06908,2.13815 -1.42544,2.85088 -2.85086,5.70175 -4.2763,8.55263 -0.53454,1.06908 -1.06907,2.13815 -1.60361,3.20723 -0.1782,0.35636 -0.31353,0.73757 -0.53454,1.06908 -0.13978,0.20966 -0.39478,0.32488 -0.53454,0.53454 -0.44201,0.66301 -0.62709,1.47514 -1.0691,2.13816 -0.13975,0.20966 -0.39476,0.32487 -0.53454,0.53453 -0.221,0.33151 -0.31353,0.73758 -0.53453,1.06908 -0.13978,0.20967 -0.39476,0.32488 -0.53454,0.53454 -0.22101,0.33151 -0.31353,0.73757 -0.53454,1.06908 -0.13978,0.20966 -0.45484,0.29549 -0.53454,0.53454 -0.11268,0.33807 0.11269,0.73101 0,1.06908 -0.0797,0.23905 -0.39476,0.32487 -0.53454,0.53454 -0.221,0.3315 -0.31353,0.73757 -0.53453,1.06908 -0.27956,0.41932 -0.90972,0.59097 -1.06908,1.06907 -0.11268,0.33807 0.11269,0.73101 0,1.06908 -0.15936,0.47811 -0.8437,0.61832 -1.06907,1.06908 -0.0797,0.15937 0.0797,0.37517 0,0.53454 -0.22538,0.45076 -0.84371,0.61832 -1.06908,1.06908 -0.0797,0.15936 0.0797,0.37517 0,0.53454 -0.2254,0.45076 -0.8437,0.61831 -1.06907,1.06907 -0.0797,0.15937 0.0797,0.37517 0,0.53454 -1.11231,2.22463 0.0369,-0.57144 -1.06908,0.53454 -0.12599,0.12599 0.0797,0.37517 0,0.53454 -0.11271,0.22538 -0.42185,0.30916 -0.53454,0.53454 -0.0797,0.15937 0.12597,0.40855 0,0.53454 -0.12599,0.12599 -0.40857,-0.12599 -0.53456,0 -0.12597,0.12599 0.0797,0.37517 0,0.53454 -0.11269,0.22538 -0.42183,0.30916 -0.53454,0.53454 -0.0797,0.15937 0.0797,0.37517 0,0.53454 -0.11269,0.22538 -0.42182,0.30915 -0.53454,0.53454 -0.0797,0.15937 0.0797,0.37516 0,0.53453 -0.11268,0.22539 -0.42182,0.30916 -0.53453,0.53454 -0.0797,0.15937 0.12599,0.40855 0,0.53454 -0.126,0.12599 -0.45485,-0.15937 -0.53454,0 -0.15936,0.31874 0.15938,0.75034 0,1.06908 -0.0797,0.15937 -0.45485,-0.15937 -0.53454,0 -0.15936,0.31874 0.11269,0.73101 0,1.06908 -0.15936,0.47811 -0.8437,0.61831 -1.06908,1.06908 -0.15935,0.31873 0.15939,0.75034 0,1.06907 -0.11268,0.22539 -0.42185,0.30916 -0.53453,0.53454 -0.0797,0.15937 0.0797,0.37517 0,0.53454 -0.11269,0.22538 -0.42185,0.30916 -0.53454,0.53454 -0.0797,0.15937 0.0797,0.37517 0,0.53454 -0.11269,0.22538 -0.42185,0.30916 -0.53454,0.53454 -0.0797,0.15937 0.126,0.40855 0,0.53454 -0.12599,0.12599 -0.40854,-0.12599 -0.53454,0 -0.25199,0.25198 0.15936,0.75034 0,1.06908 -1.77284,1.77284 0.25199,-0.50397 -0.53453,1.06907 -0.11269,0.22539 -0.42186,0.30916 -0.53454,0.53454 -0.0797,0.15937 0.0797,0.37518 0,0.53454 -0.11269,0.22539 -0.42185,0.30916 -0.53454,0.53454 -0.0797,0.15937 0.126,0.40855 0,0.53454 -0.12599,0.12599 -0.40854,-0.12599 -0.53454,0 -0.25199,0.25199 0.25199,0.81709 0,1.06908 -0.12599,0.12599 -0.40854,-0.12599 -0.53453,0 -0.126,0.12599 0.0797,0.37517 0,0.53454 -0.2254,0.45076 -0.84371,0.61831 -1.06908,1.06908 -0.0797,0.15937 0.0797,0.37517 0,0.53453 -0.071,0.14193 -1.46169,1.53266 -1.60364,1.60362 -0.15936,0.0797 -0.40854,0.12599 -0.53454,0 -0.12599,-0.12599 0,-0.35636 0,-0.53453"
       id="path4453"
       inkscape:connector-curvature="0" />
  </g>
</svg>
