<?xml version="1.0" encoding="UTF-8" standalone="no"?>
<!-- Created with Inkscape (http://www.inkscape.org/) -->

<svg
   xmlns:dc="http://purl.org/dc/elements/1.1/"
   xmlns:cc="http://creativecommons.org/ns#"
   xmlns:rdf="http://www.w3.org/1999/02/22-rdf-syntax-ns#"
   xmlns:svg="http://www.w3.org/2000/svg"
   xmlns="http://www.w3.org/2000/svg"
   xmlns:xlink="http://www.w3.org/1999/xlink"
   xmlns:sodipodi="http://sodipodi.sourceforge.net/DTD/sodipodi-0.dtd"
   xmlns:inkscape="http://www.inkscape.org/namespaces/inkscape"
   width="424.74442mm"
   height="241.3mm"
   viewBox="0 0 424.74442 241.3"
   version="1.1"
   id="svg3800"
   inkscape:version="0.92.3 (2405546, 2018-03-11)"
   sodipodi:docname="piskarevka-lesnaya-tone.svg">
  <defs
     id="defs3794" />
  <sodipodi:namedview
     id="base"
     pagecolor="#ffffff"
     bordercolor="#666666"
     borderopacity="1.0"
     inkscape:pageopacity="0.0"
     inkscape:pageshadow="2"
     inkscape:zoom="0.49497475"
     inkscape:cx="784.27432"
     inkscape:cy="344.90984"
     inkscape:document-units="px"
     inkscape:current-layer="layer1"
     showgrid="false"
     fit-margin-top="-2.7755576e-17"
     fit-margin-left="0"
     fit-margin-right="0"
     fit-margin-bottom="0"
     inkscape:window-width="1366"
     inkscape:window-height="715"
     inkscape:window-x="0"
     inkscape:window-y="0"
     inkscape:window-maximized="1" />
  <metadata
     id="metadata3797">
    <rdf:RDF>
      <cc:Work
         rdf:about="">
        <dc:format>image/svg+xml</dc:format>
        <dc:type
           rdf:resource="http://purl.org/dc/dcmitype/StillImage" />
        <dc:title></dc:title>
      </cc:Work>
    </rdf:RDF>
  </metadata>
  <g
     inkscape:label="Layer 1"
     inkscape:groupmode="layer"
     id="layer1"
     transform="translate(-0.05041131,0.32144204)">
    <image
       sodipodi:absref="/home/aanper/project/luysy-imn-eh/pi/boot/bydefault/web/img/piskarevka.png"
       y="-0.32144204"
       x="0.050411314"
       id="image4404"
       xlink:href="file:///home/aanper/project/luysy-imn-eh/pi/boot/bydefault/web/img/piskarevka.png"
       preserveAspectRatio="none"
       height="241.3"
       width="424.74442" />
    <ellipse
       style="fill:#000000;fill-opacity:1;stroke:#00ff00;stroke-width:0.30000001;stroke-miterlimit:4;stroke-dasharray:none;stroke-opacity:1;paint-order:stroke fill markers"
       id="path4407"
       cx="361.66611"
       cy="73.667831"
       rx="2.4054255"
       ry="2.6726952" />
    <circle
       style="fill:#000000;fill-opacity:1;stroke:#00ff00;stroke-width:0.30000001;stroke-miterlimit:4;stroke-dasharray:none;stroke-opacity:1;paint-order:stroke fill markers"
       id="path4409"
       cx="81.300346"
       cy="167.7467"
       r="2.6726952" />
    <path
       style="fill:none;fill-opacity:1;stroke:#00ff00;stroke-width:0.30000001;stroke-miterlimit:4;stroke-dasharray:none;stroke-opacity:1;paint-order:stroke fill markers"
       d="m 0.05041131,240.97856 c -2.09875701,-8.06698 2.29869209,-1.22962 3.20723439,-2.13816 0.125992,-0.12599 -0.079684,-0.37517 0,-0.53454 0.1126906,-0.22538 0.3947634,-0.32488 0.534539,-0.53454 0.2210046,-0.33151 0.3135342,-0.73757 0.5345391,-1.06908 0.2795513,-0.41932 0.7127187,-0.71272 1.069078,-1.06908 0.534539,-0.53454 1.0690781,-1.06907 1.6036171,-1.60361 0.1781797,-0.17818 0.4548547,-0.29549 0.534539,-0.53454 0.1126908,-0.33807 -0.1126905,-0.73101 0,-1.06908 0.1593689,-0.47811 0.789527,-0.64975 1.0690781,-1.06908 0.2210048,-0.3315 0.3135344,-0.73757 0.5345393,-1.06908 0.279551,-0.41932 0.8436964,-0.61831 1.0690777,-1.06907 0.07969,-0.15937 -0.07968,-0.37517 0,-0.53454 0.112691,-0.22538 0.394764,-0.32488 0.534539,-0.53454 0.221005,-0.33151 0.313535,-0.73757 0.534539,-1.06908 0.279552,-0.41933 0.843697,-0.61832 1.069078,-1.06908 0.07968,-0.15937 -0.07968,-0.37517 0,-0.53454 0.149412,-0.29882 0.919667,-0.77025 1.069078,-1.06908 0.07968,-0.15937 -0.07968,-0.37516 0,-0.53453 0.225382,-0.45077 0.843697,-0.61832 1.069079,-1.06908 0.07968,-0.15937 -0.125992,-0.40855 0,-0.53454 0.125992,-0.12599 0.408547,0.12599 0.534539,0 0.125992,-0.12599 -0.07968,-0.37517 0,-0.53454 0.320723,-0.64145 1.282893,-0.96217 1.603617,-1.60362 0.07968,-0.15937 -0.07969,-0.37517 0,-0.53454 0.320723,-0.64144 1.282894,-0.96217 1.603617,-1.60361 0.07968,-0.15937 -0.07968,-0.37518 0,-0.53454 1.112312,-2.22463 -0.0369,0.57144 1.069078,-0.53454 0.125992,-0.12599 -0.07968,-0.37517 0,-0.53454 0.225382,-0.45076 0.843697,-0.61832 1.069078,-1.06908 0.07968,-0.15937 -0.07968,-0.37517 0,-0.53454 0.320723,-0.64145 1.282894,-0.96217 1.603617,-1.60361 0.07968,-0.15937 -0.07968,-0.37518 0,-0.53454 1.112312,-2.22463 -0.0369,0.57144 1.069078,-0.53454 0.125992,-0.126 -0.07968,-0.37517 0,-0.53454 0.112691,-0.22539 0.421849,-0.30916 0.534539,-0.53454 0.07968,-0.15937 -0.125992,-0.40855 0,-0.53454 0.125992,-0.12599 0.375171,0.0797 0.534539,0 2.224624,-1.11231 -0.571441,0.0369 0.534539,-1.06908 0.125993,-0.12599 0.408548,0.12599 0.53454,0 0.125992,-0.12599 -0.07968,-0.37517 0,-0.53454 0.225381,-0.45076 0.843696,-0.61831 1.069078,-1.06908 0.07968,-0.15936 -0.125992,-0.40854 0,-0.53453 0.125992,-0.126 0.408546,0.12599 0.534538,0 0.125991,-0.126 -0.07968,-0.37518 0,-0.53455 0.112691,-0.22538 0.421849,-0.30915 0.53454,-0.53453 0.07968,-0.15937 -0.125992,-0.40855 0,-0.53454 0.125992,-0.126 0.408546,0.12599 0.534538,0 0.125994,-0.126 -0.125992,-0.40855 0,-0.53454 0.125994,-0.12599 0.408548,0.12599 0.53454,0 0.125992,-0.12599 -0.125992,-0.40855 0,-0.53454 0.125992,-0.12599 0.408546,0.12599 0.534538,0 0.251986,-0.25199 -0.159367,-0.75034 0,-1.06908 0.225382,-0.45076 0.843698,-0.61831 1.06908,-1.06908 0.07968,-0.15937 -0.07968,-0.37517 0,-0.53454 0.22538,-0.45076 0.843696,-0.61831 1.069078,-1.06907 0.07968,-0.15937 -0.07968,-0.37517 0,-0.53454 0.112689,-0.22538 0.421847,-0.30916 0.534538,-0.53454 0.07968,-0.15937 -0.07968,-0.37517 0,-0.53454 0.112691,-0.22538 0.421849,-0.30916 0.53454,-0.53454 0.07968,-0.15937 -0.07968,-0.37517 0,-0.53454 0.22538,-0.45076 0.843696,-0.61832 1.069078,-1.06908 0.159367,-0.31873 -0.251986,-0.81709 0,-1.06908 0.125992,-0.12599 0.408546,0.126 0.534538,0 0.125992,-0.12599 -0.07968,-0.37516 0,-0.53453 0.112692,-0.22539 0.421849,-0.30916 0.534541,-0.53454 0.07968,-0.15937 -0.07968,-0.37517 0,-0.53454 0.320722,-0.64145 1.282893,-0.96217 1.603615,-1.60362 0.07968,-0.15937 -0.125992,-0.40855 0,-0.53454 0.125992,-0.12599 0.408549,0.12599 0.534541,0 0.125992,-0.12599 -0.07968,-0.37517 0,-0.53454 0.123766,-0.24753 1.82377,-1.82377 2.138156,-2.13815 0.178178,-0.17818 0.421846,-0.30916 0.534537,-0.53454 0.07968,-0.15937 -0.125992,-0.40855 0,-0.53454 0.125992,-0.12599 0.375172,0.0797 0.534541,0 2.224622,-1.11231 -0.571442,0.0369 0.534537,-1.06908 0.125992,-0.12599 0.375172,0.0797 0.534541,0 2.224622,-1.11231 -0.571442,0.0369 0.534538,-1.06908 0.125991,-0.12599 0.375171,0.0797 0.53454,0 2.224622,-1.11231 -0.571442,0.0369 0.534538,-1.06908 0.125992,-0.12599 0.408548,0.126 0.53454,0 0.125992,-0.12599 -0.125992,-0.40854 0,-0.53453 0.125992,-0.126 0.408546,0.12599 0.534538,0 0.125992,-0.126 -0.07968,-0.37518 0,-0.53454 0.112691,-0.22538 0.421849,-0.30916 0.53454,-0.53454 0.07969,-0.15937 -0.07968,-0.37517 0,-0.53454 0.22538,-0.45077 0.843695,-0.61832 1.069078,-1.06908 0.07968,-0.15937 -0.07968,-0.37517 0,-0.53454 0.112691,-0.22538 0.421846,-0.30916 0.534538,-0.53454 0.07968,-0.15937 -0.07968,-0.37517 0,-0.53454 0.112691,-0.22538 0.421849,-0.30915 0.53454,-0.53454 0.07968,-0.15937 -0.07968,-0.37517 0,-0.53454 0.22538,-0.45076 0.843695,-0.61831 1.069078,-1.06907 0.159369,-0.31874 -0.159369,-0.75034 0,-1.06908 0.112691,-0.22538 0.421849,-0.30916 0.534538,-0.53454 0.07968,-0.15937 -0.125992,-0.40855 0,-0.53454 0.125992,-0.12599 0.408548,0.12599 0.53454,0 0.125992,-0.12599 -0.07968,-0.37517 0,-0.53454 0.112691,-0.22538 0.421849,-0.30916 0.534538,-0.53454 0.07968,-0.15937 -0.07968,-0.37517 0,-0.53454 0.112691,-0.22538 0.421849,-0.30915 0.53454,-0.53454 0.07969,-0.15936 -0.07968,-0.37517 0,-0.53453 0.112692,-0.22539 0.421849,-0.30916 0.534538,-0.53455 0.07968,-0.15936 -0.07969,-0.37516 0,-0.53453 0.112691,-0.22539 0.421849,-0.30916 0.53454,-0.53454 0.07968,-0.15937 -0.07968,-0.37517 0,-0.53454 0.112692,-0.22538 0.421849,-0.30916 0.534538,-0.53454 0.07968,-0.15937 -0.125992,-0.40855 0,-0.53454 0.125992,-0.12599 0.408548,0.12599 0.53454,0 0.125992,-0.12599 -0.07968,-0.37517 0,-0.53454 0.320723,-0.64144 1.282893,-0.96217 1.603616,-1.60362 0.07968,-0.15936 -0.125992,-0.40854 0,-0.53454 0.125992,-0.12599 0.408548,0.126 0.53454,0 0.125992,-0.12599 -0.125992,-0.40854 0,-0.53453 0.125992,-0.126 0.408546,0.12599 0.534538,0 0.125992,-0.126 0,-0.35636 0,-0.53454 0.178181,0 0.375171,0.0797 0.53454,0 2.224622,-1.11231 -0.571441,0.0369 0.534538,-1.06908 0.125992,-0.12599 0.408549,0.12599 0.534541,0 0.125991,-0.12599 -0.07969,-0.37517 0,-0.53454 1.11231,-2.22462 -0.0369,0.57144 1.069078,-0.53454 0.125991,-0.12599 0,-0.35636 0,-0.53454 0.178178,0 0.375171,0.0797 0.534537,0 2.224625,-1.11231 -0.571439,0.0369 0.534541,-1.06908 0.125992,-0.12599 0.408545,0.126 0.534537,0 0.125995,-0.12599 -0.125992,-0.40854 0,-0.53454 0.125995,-0.12599 0.375172,0.0797 0.534541,0 0.225382,-0.11269 0.309157,-0.42184 0.534537,-0.53453 0.159369,-0.0797 0.408549,0.12599 0.534541,0 0.125992,-0.126 -0.125992,-0.40855 0,-0.53454 0.125992,-0.126 0.408545,0.12599 0.53454,0 0.125992,-0.126 -0.125995,-0.40855 0,-0.53454 0.125992,-0.12599 0.375169,0.0797 0.534538,0 0.225382,-0.11269 0.309157,-0.42185 0.53454,-0.53454 0.318736,-0.15937 0.75034,0.15937 1.069078,0 0.22538,-0.11269 0.309158,-0.42185 0.534538,-0.53454 0.318738,-0.15937 0.817094,0.25198 1.069078,0 0.125992,-0.12599 -0.125992,-0.40855 0,-0.53454 0.02424,-0.0242 2.420662,0 2.672696,0 0.178179,0 0.408546,-0.12599 0.534538,0 0.125992,0.12599 -0.125992,0.40855 0,0.53454 0.125992,0.12599 0.375171,-0.0797 0.53454,0 0.22538,0.11269 0.309158,0.42185 0.534538,0.53454 0.159369,0.0797 0.375171,-0.0797 0.53454,0 0.22538,0.11269 0.309158,0.42185 0.534538,0.53454 0.159369,0.0797 0.408549,-0.12599 0.53454,0 0.125992,0.12599 -0.125991,0.40854 0,0.53454 0.125992,0.12599 0.375169,-0.0797 0.534538,0 0.225383,0.11269 0.309158,0.42185 0.534541,0.53454 0.159369,0.0797 0.408545,-0.126 0.534537,0 0.125992,0.12599 -0.125992,0.40854 0,0.53453 0.125992,0.126 0.408549,-0.12599 0.534541,0 0.125992,0.126 -0.07968,0.37518 0,0.53454 0.112688,0.22538 0.421846,0.30916 0.534537,0.53454 0.07968,0.15937 -0.125992,0.40855 0,0.53454 0.125992,0.12599 0.408549,-0.12599 0.534541,0 0.125992,0.12599 -0.125992,0.40855 0,0.53454 0.125992,0.12599 0.408545,-0.12599 0.534537,0 0.125992,0.12599 -0.125992,0.40855 0,0.53454 0.125992,0.12599 0.408549,-0.12599 0.534541,0 0.125992,0.12599 -0.125992,0.40855 0,0.53454 0.125992,0.12599 0.408545,-0.12599 0.534537,0 0.125992,0.12599 -0.125992,0.40855 0,0.53454 0.733682,0.73368 0.534541,-0.94331 0.534541,-1.06908"
       id="path4432"
       inkscape:connector-curvature="0" />
  </g>
</svg>
