<?xml version="1.0" encoding="UTF-8" standalone="no"?>
<!-- Created with Inkscape (http://www.inkscape.org/) -->

<svg
   xmlns:dc="http://purl.org/dc/elements/1.1/"
   xmlns:cc="http://creativecommons.org/ns#"
   xmlns:rdf="http://www.w3.org/1999/02/22-rdf-syntax-ns#"
   xmlns:svg="http://www.w3.org/2000/svg"
   xmlns="http://www.w3.org/2000/svg"
   xmlns:xlink="http://www.w3.org/1999/xlink"
   xmlns:sodipodi="http://sodipodi.sourceforge.net/DTD/sodipodi-0.dtd"
   xmlns:inkscape="http://www.inkscape.org/namespaces/inkscape"
   width="1224"
   height="720"
   viewBox="0 0 323.85001 190.5"
   version="1.1"
   id="svg2961"
   sodipodi:docname="primorka-park-chr.svg"
   inkscape:version="0.92.3 (2405546, 2018-03-11)">
  <defs
     id="defs2955" />
  <sodipodi:namedview
     id="base"
     pagecolor="#ffffff"
     bordercolor="#666666"
     borderopacity="1.0"
     inkscape:pageopacity="0.0"
     inkscape:pageshadow="2"
     inkscape:zoom="0.7"
     inkscape:cx="549.84229"
     inkscape:cy="383.48018"
     inkscape:document-units="mm"
     inkscape:current-layer="layer1"
     showgrid="false"
     inkscape:window-width="1366"
     inkscape:window-height="715"
     inkscape:window-x="0"
     inkscape:window-y="0"
     inkscape:window-maximized="1"
     fit-margin-top="0"
     fit-margin-left="0"
     fit-margin-right="0"
     fit-margin-bottom="0"
     units="px" />
  <metadata
     id="metadata2958">
    <rdf:RDF>
      <cc:Work
         rdf:about="">
        <dc:format>image/svg+xml</dc:format>
        <dc:type
           rdf:resource="http://purl.org/dc/dcmitype/StillImage" />
        <dc:title></dc:title>
      </cc:Work>
    </rdf:RDF>
  </metadata>
  <g
     inkscape:label="Layer 1"
     inkscape:groupmode="layer"
     id="layer1"
     transform="translate(0.09449404,-0.00520833)">
    <image
       sodipodi:absref="/home/aanper/project/luysy-imn-eh/pi/boot/bydefault/web/img/primorka.png"
       y="0.0052083312"
       x="-0.094494045"
       id="image3565"
       xlink:href="file:///home/aanper/project/luysy-imn-eh/pi/boot/bydefault/web/img/primorka.png"
       preserveAspectRatio="none"
       height="190.5"
       width="323.85001"
       style="fill:#00ff00;fill-opacity:1" />
    <circle
       style="fill:#00ff00;fill-opacity:1;stroke:#00ff00;stroke-width:0.30000001;stroke-miterlimit:4;stroke-dasharray:none;stroke-opacity:1;paint-order:stroke fill markers"
       id="path3587"
       cx="64.633926"
       cy="51.315475"
       r="1.4174107" />
    <circle
       style="fill:#00ff00;fill-opacity:1;stroke:#00ff00;stroke-width:0.30000001;stroke-miterlimit:4;stroke-dasharray:none;stroke-opacity:1;paint-order:stroke fill markers"
       id="path3589"
       cx="260.70908"
       cy="99.034966"
       r="1.5119048" />
    <circle
       style="fill:#00ff00;fill-opacity:1;stroke:#00ff00;stroke-width:0.30000001;stroke-miterlimit:4;stroke-dasharray:none;stroke-opacity:1;paint-order:stroke fill markers"
       id="path3591"
       cx="105.73884"
       cy="116.23288"
       r="1.3229166" />
    <ellipse
       style="fill:#00ff00;fill-opacity:1;stroke:#00ff00;stroke-width:0.30000001;stroke-miterlimit:4;stroke-dasharray:none;stroke-opacity:1;paint-order:stroke fill markers"
       id="path3593"
       cx="125.67709"
       cy="54.811752"
       rx="1.0394346"
       ry="1.1339285" />
    <ellipse
       style="fill:none;fill-opacity:1;stroke:#00ff00;stroke-width:0.30000001;stroke-miterlimit:4;stroke-dasharray:none;stroke-opacity:1;paint-order:stroke fill markers"
       id="path3595"
       cx="234.25075"
       cy="148.45535"
       rx="1.1339285"
       ry="0.8504464" />
    <path
       style="fill:none;fill-opacity:1;stroke:#00ff00;stroke-width:0.30000001;stroke-miterlimit:4;stroke-dasharray:none;stroke-opacity:1;paint-order:stroke fill markers"
       d="m 106.49479,116.42187 c -0.68726,-1.08067 0.83911,-1.30024 1.13393,-1.88988 0.0563,-0.11269 -0.0563,-0.26528 0,-0.37797 0.15937,-0.31874 0.59658,-0.43722 0.75595,-0.75596 0.11269,-0.22538 -0.11269,-0.53057 0,-0.75595 0.0797,-0.15937 0.29829,-0.21861 0.37798,-0.37798 0.0563,-0.11268 -0.0563,-0.26528 0,-0.37797 0.0797,-0.15937 0.29829,-0.21861 0.37797,-0.37798 0.0563,-0.11269 -0.0563,-0.26528 0,-0.37797 0.0797,-0.15937 0.2983,-0.21861 0.37798,-0.37798 0.0563,-0.11269 0,-0.25198 0,-0.37797 0,-0.25199 -0.0797,-0.51691 0,-0.75596 0.0563,-0.16903 0.29829,-0.21861 0.37798,-0.37797 0.15119,-0.30238 -0.15119,-0.83155 0,-1.13393 0.0797,-0.15937 0.29829,-0.21861 0.37797,-0.37798 0.11269,-0.22538 -0.11269,-0.53057 0,-0.75595 0.0797,-0.15937 0.29829,-0.21861 0.37798,-0.37798 0.11269,-0.22538 -0.11269,-0.53057 0,-0.75595 0.0797,-0.15937 0.29829,-0.21861 0.37797,-0.37798 0.1127,-0.22538 -0.11269,-0.53057 0,-0.75595 0.0797,-0.15937 0.2983,-0.21861 0.37798,-0.37798 0.0749,-0.14986 -0.0773,-1.05665 0,-1.13392 0.0891,-0.0891 0.28889,0.0891 0.37798,0 0.10342,-0.10343 -0.10253,-1.30686 0,-1.51191 0.0797,-0.15937 0.29829,-0.21861 0.37797,-0.37797 0.11269,-0.22538 -0.11269,-0.53057 0,-0.75596 0.0797,-0.15937 0.2983,-0.2186 0.37798,-0.37797 0.11269,-0.225385 -0.11269,-0.530574 0,-0.755954 0.0797,-0.159369 0.29829,-0.218609 0.37798,-0.377978 0.11269,-0.22538 -0.0797,-0.516898 0,-0.755952 0.0891,-0.267269 0.28888,-0.488683 0.37797,-0.755951 0.0797,-0.239054 -0.11269,-0.530572 0,-0.755952 0.0797,-0.159369 0.29829,-0.218609 0.37798,-0.377978 0.0563,-0.112689 -0.0563,-0.265285 0,-0.377976 0.0797,-0.159369 0.29829,-0.218607 0.37797,-0.377976 0.0563,-0.112691 0,-0.251984 0,-0.377976 0.126,-0.125992 0.29829,-0.218607 0.37798,-0.377976 0.11269,-0.225382 -0.11269,-0.530571 0,-0.755951 0.0797,-0.159369 0.29829,-0.21861 0.37798,-0.377979 0.0563,-0.112688 -0.0564,-0.265284 0,-0.377976 0.0797,-0.159369 0.29829,-0.218606 0.37797,-0.377975 0.0564,-0.112692 -0.0563,-0.265285 0,-0.377976 0.0797,-0.159369 0.29829,-0.218607 0.37798,-0.377976 0.15119,-0.302382 -0.15119,-0.831548 0,-1.13393 0.0797,-0.159367 0.29829,-0.218607 0.37798,-0.377976 0.15119,-0.302379 -0.1512,-0.831546 0,-1.133927 0.0797,-0.159369 0.29829,-0.218607 0.37797,-0.377976 0.11878,-0.237567 -0.11878,-1.274339 0,-1.511906 0.0797,-0.159369 0.29829,-0.218607 0.37798,-0.377976 0.11878,-0.237566 -0.11879,-1.274339 0,-1.511906 0.0797,-0.159366 0.29829,-0.218606 0.37797,-0.377975 0.11923,-0.238454 -0.11922,-1.651426 0,-1.889879 0.0797,-0.15937 0.2983,-0.21861 0.37798,-0.377979 0.0497,-0.09939 0,-1.314251 0,-1.511903 0,-0.886423 -0.0891,0.178178 0.37798,-0.755952 0.0563,-0.112691 0,-0.251986 0,-0.377978 0,-0.267909 -0.0489,-2.170131 0,-2.267855 0.0797,-0.159369 0.29829,-0.218609 0.37797,-0.377979 0.11923,-0.238453 -0.11922,-1.651426 0,-1.889879 0.0797,-0.159369 0.29829,-0.218609 0.37798,-0.377975 0.15119,-0.302382 -0.15119,-0.831549 0,-1.13393 0.0797,-0.15937 0.29829,-0.218607 0.37797,-0.377976 0.1127,-0.225383 -0.17817,-0.577774 0,-0.755952 0.0891,-0.08909 0.28889,0.08909 0.37798,0 0.17818,-0.178181 -0.11269,-0.530571 0,-0.755954 0.0797,-0.159367 0.29829,-0.218607 0.37798,-0.377976 0.11269,-0.22538 -0.11269,-0.530569 0,-0.755952 0.0797,-0.159369 0.29829,-0.218606 0.37797,-0.377975 0.11269,-0.225383 -0.17818,-0.577774 0,-0.755952 0.0891,-0.08909 0.28889,0.08909 0.37798,0 0.0891,-0.08909 -0.0891,-0.288888 0,-0.377978 0.0891,-0.08909 0.28889,0.08909 0.37798,0 0.0891,-0.08909 -0.0891,-0.288886 0,-0.377976 0.0891,-0.08909 0.28888,0.08909 0.37797,0 0.17818,-0.178179 -0.17818,-0.577774 0,-0.755952 0.0891,-0.08909 0.28889,0.08909 0.37798,0 0.0891,-0.08909 -0.0891,-0.288885 0,-0.377976 0.0891,-0.08909 0.28888,0.08909 0.37797,0 0.0891,-0.08909 -0.0563,-0.265287 0,-0.377975 0.0797,-0.15937 0.29829,-0.21861 0.37798,-0.377976 0.0564,-0.112692 -0.0891,-0.288888 0,-0.377979 0.0891,-0.08909 0.28889,0.08909 0.37798,0 0.0891,-0.08909 -0.0891,-0.288885 0,-0.377976 0.0891,-0.08909 0.28888,0.08909 0.37797,0 0.0891,-0.08909 -0.0563,-0.265284 0,-0.377975 0.0797,-0.159369 0.25199,-0.251984 0.37798,-0.377976 0.12599,-0.125992 0.25198,-0.251984 0.37798,-0.377976 0.19899,-0.19899 0.93205,-1.032994 1.13392,-1.13393 0.11269,-0.05634 0.26529,0.05635 0.37798,0 0.15937,-0.07968 0.21861,-0.298291 0.37798,-0.377976 0.11269,-0.05635 0.28888,0.08909 0.37797,0 0.0891,-0.08909 -0.0891,-0.288885 0,-0.377976 0.0891,-0.08909 0.26529,0.05635 0.37798,0 0.15937,-0.07968 0.21861,-0.298291 0.37797,-0.377975 0.22539,-0.112692 0.53058,0.112691 0.75596,0 0.15937,-0.07969 0.21861,-0.298292 0.37797,-0.377976 0.22538,-0.112692 0.53057,0.112691 0.75596,0 0.15937,-0.07968 0.2186,-0.298292 0.37797,-0.377976 0.30238,-0.151191 0.83155,0.151191 1.13393,0 0.15937,-0.07969 0.21861,-0.298294 0.37798,-0.377976 0.11269,-0.05635 0.25198,0 0.37797,0 0.126,0 0.25199,0 0.37798,0 0.62996,0 1.25992,0 1.88988,0 0.19765,0 1.41252,-0.04969 1.5119,0 0.15937,0.07968 0.21861,0.298291 0.37798,0.377976 0.22538,0.112689 0.53057,-0.112691 0.75595,0 0.15937,0.07968 0.21861,0.298291 0.37798,0.377976 0.11269,0.05635 0.28889,-0.08909 0.37798,0 0.0891,0.08909 -0.0891,0.288885 0,0.377976 0.17817,0.178178 0.53056,-0.112692 0.75595,0 0.15937,0.07968 0.2186,0.298291 0.37797,0.377975 0.22539,0.112692 0.53057,-0.112691 0.75595,0 0.15937,0.07968 0.21861,0.298292 0.37798,0.377976 0.30238,0.151191 0.83155,-0.151191 1.13393,0 0.15937,0.07968 0.21861,0.298291 0.37798,0.377976 0.23845,0.119229 1.65143,-0.119227 1.88988,0 0.15937,0.07968 0.21861,0.298294 0.37797,0.377978 0.22539,0.112689 0.53058,-0.112691 0.75596,0 0.15936,0.07968 0.21861,0.298292 0.37797,0.377976 0.22538,0.112689 0.53057,-0.112691 0.75596,0 0.15936,0.07968 0.2186,0.298291 0.37797,0.377976 0.22538,0.112691 0.53057,-0.112691 0.75595,0 0.15937,0.07968 0.21861,0.298291 0.37798,0.377976 0.30238,0.151191 0.83155,-0.151191 1.13393,0 0.15937,0.07968 0.21861,0.298291 0.37797,0.377976 0.22538,0.112691 0.53058,-0.112692 0.75596,0 0.15937,0.07968 0.2186,0.298291 0.37797,0.377975 0.22302,0.111509 0.87395,-0.08666 1.13393,0 0.26727,0.08909 0.48869,0.288888 0.75595,0.377976 0.36007,0.120023 1.52172,-0.122721 1.88989,0 0.26726,0.08909 0.48868,0.288888 0.75595,0.377979 0.34017,0.113392 0.79375,-0.113395 1.13392,0 0.26728,0.08909 0.48869,0.288885 0.75596,0.377976 0.23905,0.07968 0.53057,-0.112692 0.75595,0 0.15937,0.07968 0.21861,0.298291 0.37798,0.377975 0.22538,0.112692 0.5169,-0.07968 0.75595,0 0.26727,0.08909 0.48868,0.288886 0.75595,0.377976 0.11953,0.03984 0.25199,0 0.37798,0 0.25198,0 0.5169,-0.07968 0.75595,0 0.16904,0.05635 0.20894,0.32163 0.37798,0.377976 0.33918,0.239054 0.77535,-0.119526 1.13393,0 0.26726,0.08909 0.48868,0.288888 0.75595,0.377976 0.40164,0.133882 1.11026,-0.133879 1.5119,0 0.26727,0.08909 0.48869,0.288888 0.75595,0.377976 0.11953,0.03984 0.25199,0 0.37798,0 0.75595,0 1.51191,0 2.26786,0 0.25198,0 0.50397,0 0.75595,0 0.12599,0 0.25845,-0.03984 0.37798,0 0.26727,0.08909 0.48868,0.288888 0.75595,0.377978 0.40164,0.133879 1.11026,-0.133882 1.5119,0 0.16904,0.05634 0.21861,0.298291 0.37798,0.377976 0.22538,0.112689 0.5169,-0.07968 0.75595,0 0.26727,0.08909 0.48869,0.288885 0.75595,0.377976 0.11953,0.03984 0.26529,-0.05635 0.37798,0 0.31874,0.159369 0.43722,0.596582 0.75595,0.755951 0.11269,0.05635 0.26529,-0.05635 0.37798,0 0.31874,0.159369 0.43721,0.596585 0.75595,0.755952 0.11269,0.05635 0.26529,-0.05634 0.37798,0 0.31874,0.159369 0.43721,0.596585 0.75595,0.755954 0.11269,0.05635 0.26529,-0.05635 0.37798,0 0.31873,0.159369 0.43721,0.596583 0.75595,0.755952 0.11269,0.05634 0.26528,-0.05635 0.37798,0 0.45357,0.226785 0.68035,0.907142 1.13392,1.133927 1.11231,0.556157 -0.49763,-0.875612 0.75595,0.377979 0.126,0.125992 0.25199,0.251983 0.37798,0.377975 0.12599,0.125992 0.20894,0.321631 0.37798,0.377976 0.23905,0.07968 0.5169,-0.07968 0.75595,0 0.33807,0.112692 0.43722,0.596583 0.75595,0.755952 0.11269,0.05635 0.25845,-0.03984 0.37798,0 0.26727,0.08909 0.48868,0.288888 0.75595,0.377976 0.23906,0.07968 0.53057,-0.112692 0.75595,0 0.15937,0.07968 0.20895,0.321632 0.37798,0.377975 0.23905,0.07968 0.5169,-0.07968 0.75595,0 0.16904,0.05635 0.21861,0.298294 0.37798,0.377979 0.22538,0.112689 0.5169,-0.07968 0.75595,0 0.26727,0.08909 0.48868,0.288885 0.75595,0.377976 0.23906,0.07968 0.5169,-0.07968 0.75595,0 0.26728,0.08909 0.48869,0.288885 0.75596,0.377976 0.35858,0.119525 0.77535,-0.119529 1.13393,0 0.16903,0.05634 0.2186,0.298291 0.37797,0.377975 0.11269,0.05635 0.25199,0 0.37798,0 0.25198,0 0.5169,-0.07968 0.75595,0 0.16904,0.05635 0.20894,0.32163 0.37798,0.377976 0.17288,0.05763 1.34371,-0.0841 1.5119,0 0.15937,0.07968 0.20894,0.32163 0.37798,0.377976 1.72065,0 0.0216,-0.178178 1.13393,0.377976 0.11269,0.05635 0.25198,0 0.37797,0 0.25199,0 0.5169,-0.07968 0.75595,0 0.16904,0.05635 0.21861,0.298294 0.37798,0.377978 0.11269,0.05634 0.25199,0 0.37798,0 0.25198,0 0.5169,-0.07968 0.75595,0 0.16904,0.05634 0.21861,0.298291 0.37798,0.377976 0.11269,0.05635 0.26528,-0.05635 0.37797,0 1.25359,1.253588 -0.35636,-0.178181 0.75596,0.377976 0.15936,0.07968 0.2186,0.298291 0.37797,0.377976 0.22538,0.112691 0.5169,-0.07969 0.75595,0 0.26727,0.08909 0.48869,0.288885 0.75596,0.377975 0.11952,0.03984 0.26528,-0.05634 0.37797,0 0.15937,0.07968 0.20894,0.321631 0.37798,0.377976 0.23905,0.07968 0.5169,-0.07968 0.75595,0 0.16904,0.05635 0.20894,0.321633 0.37798,0.377976 0.34017,0.113395 0.79375,-0.113392 1.13392,0 0.26728,0.08909 0.48869,0.288888 0.75596,0.377979 0.11952,0.03984 0.25198,0 0.37797,0 0.31652,0 1.60245,-0.07186 1.88989,0 0.27331,0.06833 0.48868,0.288885 0.75595,0.377975 0.35858,0.119526 0.77535,-0.119528 1.13392,0 0.16904,0.05635 0.20895,0.32163 0.37798,0.377976 0.23905,0.07968 0.50397,0 0.75596,0 0.31651,0 1.60244,-0.07186 1.88987,0 0.27332,0.06833 0.48869,0.288885 0.75596,0.377976 0.11952,0.03984 0.25198,0 0.37797,0 0.62996,0 1.25992,0 1.88989,0 0.25198,0 0.50396,0 0.75595,0 0.12599,0 0.25845,-0.03984 0.37797,0 0.26727,0.08909 0.48869,0.288885 0.75595,0.377976 0.36007,0.12002 1.52172,-0.122722 1.88989,0 0.26727,0.08909 0.48868,0.288888 0.75595,0.377976 0.20456,0.06819 1.38314,0 1.5119,0 0.75596,0 1.51191,0 2.26786,0 0.24837,0 0.92067,-0.07108 1.13393,0 0.26727,0.08909 0.48868,0.288888 0.75595,0.377975 0.30423,0.101412 1.27037,-0.120766 1.51191,0 0.15937,0.07968 0.2186,0.298294 0.37797,0.377979 0.20042,0.100208 1.63275,-0.08571 1.88988,0 0.16904,0.05634 0.21861,0.298291 0.37798,0.377976 0.22538,0.112688 0.53057,-0.112692 0.75595,0 0.15937,0.07968 0.20894,0.32163 0.37798,0.377975 0.23905,0.07969 0.50397,0 0.75595,0 0.12599,0 0.26529,-0.05634 0.37798,0 0.15937,0.07969 0.2186,0.298292 0.37797,0.377976 0.11269,0.05635 0.26529,-0.05634 0.37798,0 0.15937,0.07968 0.20894,0.32163 0.37797,0.377976 0.23906,0.07968 0.51691,-0.07968 0.75596,0 0.16903,0.05635 0.21861,0.298291 0.37797,0.377976 0.22538,0.112691 0.53058,-0.112691 0.75596,0 0.15937,0.07968 0.2186,0.298291 0.37797,0.377976 0.11269,0.05635 0.26529,-0.05634 0.37798,0 0.15937,0.07968 0.21861,0.298294 0.37797,0.377978 0.1127,0.05634 0.26529,-0.05635 0.37798,0 0.15937,0.07968 0.21861,0.298291 0.37798,0.377976 0.11269,0.05635 0.26528,-0.05635 0.37797,0 0.15937,0.07968 0.21861,0.298291 0.37798,0.377976 0.11269,0.05634 0.26528,-0.05635 0.37798,0 0.15936,0.07968 0.2186,0.298291 0.37797,0.377976 0.11269,0.05634 0.26529,-0.05635 0.37798,0 0.15937,0.07968 0.21861,0.298291 0.37798,0.377975 0.11268,0.05635 0.26528,-0.05634 0.37797,0 0.20219,0.101095 0.55376,0.654857 0.75595,0.755952 0.22539,0.112691 0.5169,-0.07969 0.75595,0 0.26728,0.08909 0.48869,0.288888 0.75596,0.377978 0.22305,0.07435 1.67869,0 1.88988,0 0.12599,0 0.26528,-0.05635 0.37797,0 0.15937,0.07968 0.21861,0.298292 0.37798,0.377976 0.11269,0.05635 0.25199,0 0.37798,0 0.62996,0 1.25992,0 1.88988,0 0.12599,0 0.25198,0 0.37798,0 0.12599,0 0.26528,-0.05634 0.37797,0 0.15937,0.07969 0.21861,0.298291 0.37798,0.377976 0.23845,0.119227 1.65142,-0.119227 1.88988,0 0.15937,0.07968 0.21861,0.298291 0.37797,0.377976 0.30238,0.151191 0.83155,-0.151191 1.13393,0 0.15937,0.07968 0.21861,0.298291 0.37798,0.377976 0.22301,0.111506 0.87394,-0.08666 1.13393,0 0.26727,0.08909 0.48868,0.288888 0.75595,0.377975 0.23905,0.07968 0.53057,-0.112691 0.75595,0 0.15937,0.07968 0.21861,0.298292 0.37798,0.377976 0.11269,0.05635 0.26528,-0.05634 0.37798,0 0.15936,0.07968 0.2186,0.298294 0.37797,0.377979 0.23976,0.119877 1.64434,-0.122772 1.88988,0 0.15937,0.07968 0.21861,0.298291 0.37798,0.377976 0.30238,0.15119 0.83154,-0.151191 1.13393,0 0.15937,0.07968 0.2186,0.298291 0.37797,0.377975 0.23757,0.118782 1.27434,-0.118784 1.51191,0 0.15937,0.07969 0.2186,0.298292 0.37797,0.377976 0.30239,0.151191 0.83155,-0.151191 1.13393,0 0.15937,0.07968 0.21861,0.298291 0.37798,0.377976 0.22951,0.114758 2.03834,-0.114758 2.26785,0 0.15937,0.07968 0.21861,0.298291 0.37798,0.377976 0.11269,0.05634 0.25199,0 0.37798,0 0.12599,0 0.25198,0 0.37797,0 0.88195,0 1.76389,0 2.64585,0 0.1702,0 1.01888,-0.05752 1.13392,0 0.15936,0.07968 0.2186,0.298291 0.37796,0.377976 0.22953,0.114757 2.03835,-0.114758 2.26788,0 0.15935,0.07968 0.2186,0.298293 0.37795,0.377978 0.2254,0.112689 0.5306,-0.112691 0.75597,0 0.15936,0.07968 0.2186,0.298291 0.37798,0.377976 0.23755,0.118782 1.27434,-0.118785 1.51189,0 0.15938,0.07968 0.21862,0.298291 0.37798,0.377976 0.20042,0.100208 1.63274,-0.08571 1.88989,0 0.16902,0.05634 0.2186,0.298291 0.37796,0.377975 0.11504,0.05752 0.96372,0 1.13395,0 0.88194,0 1.76387,0 2.64583,0 0.17021,0 1.01889,-0.05751 1.13393,0 0.15936,0.07969 0.2186,0.298292 0.37796,0.377976 0.11271,0.05635 0.25199,0 0.37798,0 0.26792,0 2.17014,-0.04886 2.26785,0 0.15939,0.07968 0.21863,0.298291 0.37798,0.377976 0.11245,0.05622 2.10887,0 2.26785,0 0.88644,0 -0.17817,-0.08909 0.75597,0.377976 0.23977,0.11988 1.64433,-0.122769 1.88987,0 0.15938,0.07968 0.21862,0.298294 0.37798,0.377978 0.2254,0.112689 0.51689,-0.07968 0.75597,0 0.26725,0.08909 0.48866,0.288886 0.75594,0.377976 0.23905,0.07969 0.53057,-0.112691 0.75594,0 0.15938,0.07969 0.21863,0.298288 0.37798,0.377978 0.2254,0.11269 0.53057,-0.11269 0.75597,0 0.15936,0.0797 0.2186,0.29829 0.37796,0.37797 0.2254,0.1127 0.53057,-0.11269 0.75597,0 0.15935,0.0797 0.21859,0.29829 0.37795,0.37798 0.3024,0.15119 0.83156,-0.15119 1.13395,0 0.15936,0.0797 0.2186,0.29829 0.37796,0.37798 0.11504,0.0575 0.96372,0 1.13393,0 0.75596,0 1.51191,0 2.26787,0 1.25992,0 2.51984,0 3.77976,0 0.126,0 0.25199,0 0.37798,0 0.12597,0 0.28888,0.0891 0.37796,0 0.0891,-0.0891 -0.0891,-0.28889 0,-0.37798 0.0891,-0.0891 0.25199,0 0.37799,0 0.17822,0 1.87274,0.0171 1.88989,0 0.0891,-0.0891 -0.0891,-0.28889 0,-0.37798 0.0891,-0.0891 0.25196,0 0.37796,0 0.12599,0 0.25198,0 0.37798,0 1.00793,0 2.01586,0 3.02382,0 0.75594,0 1.5119,0 2.26785,0 0.17023,0 1.01891,-0.0575 1.13392,0 1.11231,0.55616 -0.58671,0.37798 1.13392,0.37798 0.0917,0 1.12179,0.0121 1.13393,0 0.27808,-0.27808 -0.30417,-0.68215 -0.37796,-0.75595"
       id="path3662"
       inkscape:connector-curvature="0" />
  </g>
</svg>
