<?xml version="1.0" encoding="UTF-8" standalone="no"?>
<!-- Created with Inkscape (http://www.inkscape.org/) -->

<svg
   xmlns:dc="http://purl.org/dc/elements/1.1/"
   xmlns:cc="http://creativecommons.org/ns#"
   xmlns:rdf="http://www.w3.org/1999/02/22-rdf-syntax-ns#"
   xmlns:svg="http://www.w3.org/2000/svg"
   xmlns="http://www.w3.org/2000/svg"
   xmlns:xlink="http://www.w3.org/1999/xlink"
   xmlns:sodipodi="http://sodipodi.sourceforge.net/DTD/sodipodi-0.dtd"
   xmlns:inkscape="http://www.inkscape.org/namespaces/inkscape"
   width="1224"
   height="720"
   viewBox="0 0 323.85001 190.5"
   version="1.1"
   id="svg2961"
   sodipodi:docname="primorka-sych-chr.svg"
   inkscape:version="0.92.3 (2405546, 2018-03-11)">
  <defs
     id="defs2955" />
  <sodipodi:namedview
     id="base"
     pagecolor="#ffffff"
     bordercolor="#666666"
     borderopacity="1.0"
     inkscape:pageopacity="0.0"
     inkscape:pageshadow="2"
     inkscape:zoom="0.7"
     inkscape:cx="549.84229"
     inkscape:cy="383.48018"
     inkscape:document-units="mm"
     inkscape:current-layer="layer1"
     showgrid="false"
     inkscape:window-width="1366"
     inkscape:window-height="715"
     inkscape:window-x="0"
     inkscape:window-y="0"
     inkscape:window-maximized="1"
     fit-margin-top="0"
     fit-margin-left="0"
     fit-margin-right="0"
     fit-margin-bottom="0"
     units="px" />
  <metadata
     id="metadata2958">
    <rdf:RDF>
      <cc:Work
         rdf:about="">
        <dc:format>image/svg+xml</dc:format>
        <dc:type
           rdf:resource="http://purl.org/dc/dcmitype/StillImage" />
        <dc:title></dc:title>
      </cc:Work>
    </rdf:RDF>
  </metadata>
  <g
     inkscape:label="Layer 1"
     inkscape:groupmode="layer"
     id="layer1"
     transform="translate(0.09449404,-0.00520833)">
    <image
       sodipodi:absref="/home/aanper/project/luysy-imn-eh/pi/boot/bydefault/web/img/primorka.png"
       y="0.0052083312"
       x="-0.094494045"
       id="image3565"
       xlink:href="file:///home/aanper/project/luysy-imn-eh/pi/boot/bydefault/web/img/primorka.png"
       preserveAspectRatio="none"
       height="190.5"
       width="323.85001"
       style="fill:#00ff00;fill-opacity:1" />
    <circle
       style="fill:#00ff00;fill-opacity:1;stroke:#00ff00;stroke-width:0.30000001;stroke-miterlimit:4;stroke-dasharray:none;stroke-opacity:1;paint-order:stroke fill markers"
       id="path3587"
       cx="64.633926"
       cy="51.315475"
       r="1.4174107" />
    <circle
       style="fill:#00ff00;fill-opacity:1;stroke:#00ff00;stroke-width:0.30000001;stroke-miterlimit:4;stroke-dasharray:none;stroke-opacity:1;paint-order:stroke fill markers"
       id="path3589"
       cx="260.70908"
       cy="99.034966"
       r="1.5119048" />
    <circle
       style="fill:#00ff00;fill-opacity:1;stroke:#00ff00;stroke-width:0.30000001;stroke-miterlimit:4;stroke-dasharray:none;stroke-opacity:1;paint-order:stroke fill markers"
       id="path3591"
       cx="105.73884"
       cy="116.23288"
       r="1.3229166" />
    <ellipse
       style="fill:#00ff00;fill-opacity:1;stroke:#00ff00;stroke-width:0.30000001;stroke-miterlimit:4;stroke-dasharray:none;stroke-opacity:1;paint-order:stroke fill markers"
       id="path3593"
       cx="125.67709"
       cy="54.811752"
       rx="1.0394346"
       ry="1.1339285" />
    <ellipse
       style="fill:none;fill-opacity:1;stroke:#00ff00;stroke-width:0.30000001;stroke-miterlimit:4;stroke-dasharray:none;stroke-opacity:1;paint-order:stroke fill markers"
       id="path3595"
       cx="234.25075"
       cy="148.45535"
       rx="1.1339285"
       ry="0.8504464" />
    <path
       style="fill:none;fill-opacity:1;stroke:#00ff00;stroke-width:0.30000001;stroke-miterlimit:4;stroke-dasharray:none;stroke-opacity:1;paint-order:stroke fill markers"
       d="m 64.917411,51.409968 c 0.363932,-1.126905 1.326425,0.281729 1.889879,0 0.159369,-0.07968 0.218609,-0.298291 0.377976,-0.377975 0.302382,-0.151191 0.831548,0.15119 1.13393,0 0.159369,-0.07968 0.218607,-0.298292 0.377976,-0.377976 0.225382,-0.112691 0.530571,0.112691 0.755951,0 0.159369,-0.07969 0.21861,-0.298291 0.377976,-0.377976 0.225383,-0.112691 0.530572,0.112691 0.755954,0 0.15937,-0.07968 0.218607,-0.298291 0.377976,-0.377976 0.302382,-0.151191 0.831549,0.151191 1.133928,0 0.159369,-0.07968 0.218609,-0.298291 0.377975,-0.377976 0.237567,-0.118784 1.27434,0.118782 1.511906,0 0.159369,-0.07968 0.218607,-0.298293 0.377976,-0.377975 0.11503,-0.05752 0.963705,0 1.13393,0 0.197652,0 1.412518,-0.04969 1.511903,0 0.15937,0.07968 0.218607,0.298291 0.377976,0.377975 0.225383,0.112689 0.530572,-0.112691 0.755955,0 0.159366,0.07968 0.218606,0.298292 0.377975,0.377976 0.22538,0.112692 0.577774,-0.178181 0.755952,0 0.08909,0.08909 -0.08909,0.288886 0,0.377976 0.188989,0.188989 0.944941,-0.188989 1.133927,0 0.08909,0.08909 -0.08909,0.288885 0,0.377976 0.18899,0.188989 0.944941,-0.188987 1.13393,0 0.08909,0.08909 -0.08909,0.288888 0,0.377976 0.07727,0.07727 0.984065,-0.07493 1.133928,0 0.159369,0.07968 0.218609,0.298291 0.377976,0.377975 0.225382,0.112692 0.530571,-0.112688 0.755954,0 0.159369,0.07968 0.218607,0.298294 0.377976,0.377979 0.302381,0.151188 0.831548,-0.151191 1.133927,0 0.159369,0.07968 0.21861,0.298291 0.377976,0.377976 0.149865,0.07493 1.056658,-0.07727 1.13393,0 0.08909,0.08909 -0.08909,0.288885 0,0.377976 0.09095,0.09095 1.420953,-0.09095 1.511903,0 0.08909,0.08909 -0.08909,0.288885 0,0.377975 0.178181,0.178179 0.530572,-0.112691 0.755955,0 0.159369,0.07968 0.218606,0.298292 0.377975,0.377976 0.22538,0.112691 0.577774,-0.178178 0.755952,0 0.08909,0.08909 -0.08909,0.288888 0,0.377976 0.01214,0.01217 1.04226,0 1.13393,0 0.62996,0 1.259919,0 1.889879,0 0.125992,0 0.251984,0 0.377976,0 0.125992,0 0.265287,-0.05635 0.377978,0 0.159367,0.07968 0.218607,0.298291 0.377976,0.377976 0.302379,0.151191 0.831546,-0.151188 1.133928,0 0.159369,0.07968 0.218606,0.298294 0.377975,0.377978 0.225383,0.112689 0.577774,-0.178181 0.755955,0 0.08909,0.08909 -0.08909,0.288886 0,0.377976 0.188986,0.188987 0.944938,-0.188989 1.133927,0 0.08909,0.08909 -0.08909,0.288885 0,0.377976 0.178181,0.178178 0.530572,-0.112692 0.755952,0 0.159369,0.07968 0.218609,0.298291 0.377975,0.377976 0.112692,0.05635 0.265288,-0.05635 0.377979,0 0.159366,0.07968 0.218607,0.298291 0.377976,0.377975 0.22538,0.112692 0.57777,-0.178178 0.75595,0 0.0891,0.08909 -0.0891,0.288888 0,0.377976 0.17818,0.178181 0.53057,-0.112691 0.75595,0 0.15937,0.07968 0.21861,0.298291 0.37798,0.377976 0.22538,0.112691 0.57777,-0.178178 0.75595,0 0.0891,0.08909 -0.0891,0.288888 0,0.377979 0.091,0.09095 1.42095,-0.09095 1.51191,0 0.0891,0.08909 -0.0891,0.288885 0,0.377975 0.0891,0.08909 0.25198,0 0.37797,0 0.12599,0 0.25199,0 0.37798,0 0.26791,0 2.17013,-0.04886 2.26786,0 0.15936,0.07968 0.2186,0.298292 0.37797,0.377976 0.30238,0.151191 0.83155,-0.151191 1.13393,0 0.15937,0.07968 0.21861,0.298291 0.37798,0.377976 0.30238,0.151191 0.83155,-0.151191 1.13393,0 0.15936,0.07968 0.2186,0.298291 0.37797,0.377976 0.22538,0.112691 0.53057,-0.112692 0.75595,0 0.15937,0.07968 0.21861,0.298291 0.37798,0.377976 0.22538,0.112691 0.53057,-0.112692 0.75595,0 0.15937,0.07968 0.21861,0.298291 0.37798,0.377975 0.14986,0.07493 1.05666,-0.07727 1.13393,0 0.0891,0.08909 -0.0891,0.288888 0,0.377979 0.17818,0.178178 0.53057,-0.112692 0.75595,0 0.15937,0.07968 0.21861,0.298291 0.37798,0.377976 0.22538,0.112688 0.57777,-0.178181 0.75595,0 0.0891,0.08909 -0.0891,0.288885 0,0.377975 0.17818,0.178179 0.53057,-0.112691 0.75595,0 0.15937,0.07969 0.21861,0.298292 0.37798,0.377976 0.30238,0.151191 0.83155,-0.151191 1.13393,0 0.15936,0.07968 0.2186,0.298291 0.37797,0.377976 0.22538,0.112691 0.53057,-0.112691 0.75595,0 0.15937,0.07968 0.21861,0.298291 0.37798,0.377976 0.22538,0.112691 0.53057,-0.112691 0.75595,0 0.15937,0.07968 0.21861,0.298291 0.37798,0.377976 0.14986,0.07493 1.05666,-0.07727 1.13393,0 0.0891,0.08909 -0.0891,0.288888 0,0.377978 0.18899,0.188987 0.94494,-0.188989 1.13393,0 0.0891,0.08909 -0.0891,0.288885 0,0.377976 0.17818,0.178178 0.53057,-0.112691 0.75595,0 0.15937,0.07968 0.21861,0.298291 0.37798,0.377976 0.30238,0.151191 0.83154,-0.151191 1.13392,0 0.15937,0.07968 0.21861,0.298291 0.37798,0.377976 0.22538,0.112691 0.57777,-0.178181 0.75595,0 0.0891,0.08909 -0.0891,0.288885 0,0.377975 0.0891,0.08909 0.25199,0 0.37798,0 0.75595,0 1.5119,0 2.26786,0 0.12599,0 0.28888,-0.08909 0.37797,0 0.0891,0.08909 -0.0891,0.288888 0,0.377976 0.10342,0.103423 1.30686,-0.102523 1.51191,0 0.15936,0.07968 0.2186,0.298291 0.37797,0.377976 0.22952,0.114758 2.03834,-0.114758 2.26786,0 0.15937,0.07968 0.21861,0.298294 0.37798,0.377978 0.22951,0.114758 2.03834,-0.114757 2.26785,0 0.15937,0.07968 0.21861,0.298292 0.37798,0.377976 0.23845,0.119227 1.65143,-0.119226 1.88988,0 0.15937,0.07968 0.21861,0.298291 0.37797,0.377976 0.30239,0.151191 0.83155,-0.151191 1.13394,0 0.15936,0.07968 0.2186,0.298291 0.37797,0.377976 0.22538,0.112691 0.53057,-0.112692 0.75595,0 0.15937,0.07968 0.21861,0.298291 0.37798,0.377976 0.22538,0.112691 0.5169,-0.07968 0.75595,0 0.26727,0.08909 0.48869,0.288888 0.75595,0.377975 0.11953,0.03984 0.25845,-0.03984 0.37798,0 0.26727,0.08909 0.48868,0.288888 0.75595,0.377976 0.11953,0.03984 0.25845,-0.03984 0.37798,0 0.26727,0.08909 0.48264,0.309647 0.75595,0.377979 0.24446,0.06111 0.51149,-0.06112 0.75595,0 0.27332,0.06833 0.50397,0.251984 0.75595,0.377976 0.37798,0.125991 0.74325,0.299839 1.13393,0.377975 0.2471,0.04942 0.5115,-0.06112 0.75596,0 0.27331,0.06833 0.50396,0.251984 0.75595,0.377976 0.50397,0.251984 1.00794,0.503968 1.5119,0.755952 0.25199,0.125992 0.48264,0.309647 0.75596,0.377976 0.24446,0.06112 0.50886,-0.04942 0.75595,0 0.39068,0.07814 0.74324,0.299839 1.13393,0.377978 0.24709,0.04942 0.51149,-0.06112 0.75595,0 0.27332,0.06833 0.48264,0.309647 0.75595,0.377976 0.24446,0.06111 0.50886,-0.04942 0.75595,0 0.39069,0.07814 0.74325,0.299839 1.13393,0.377976 0.49419,0.09883 1.01773,-0.09884 1.51191,0 0.39068,0.07814 0.74324,0.299839 1.13393,0.377975 0.59838,0.119677 1.70202,-0.141456 2.26785,0 0.27332,0.06833 0.48869,0.288886 0.75595,0.377976 0.35859,0.119528 0.77536,-0.119525 1.13393,0 0.16904,0.05635 0.20894,0.32163 0.37798,0.377976 0.35858,0.119528 0.77535,-0.119525 1.13393,0 0.26727,0.08909 0.48868,0.288888 0.75595,0.377976 0.11953,0.03984 0.25199,0 0.37798,0 0.25198,0.125992 0.48868,0.288888 0.75595,0.377978 0.11953,0.03984 0.25845,-0.03984 0.37798,0 0.26727,0.08909 0.48868,0.288886 0.75595,0.377976 0.35858,0.119526 0.77535,-0.119528 1.13393,0 0.16903,0.05635 0.20894,0.32163 0.37797,0.377976 0.23906,0.07968 0.5169,-0.07968 0.75595,0 0.16904,0.05635 0.21861,0.298291 0.37798,0.377976 0.11269,0.05634 0.25199,0 0.37798,0 0.25198,0.125992 0.52154,0.221702 0.75595,0.377976 0.14825,0.09884 0.20894,0.32163 0.37798,0.377975 0.23905,0.07968 0.5169,-0.07968 0.75595,0 0.16903,0.05635 0.20894,0.321633 0.37798,0.377976 0.23905,0.07968 0.51689,-0.07968 0.75595,0 0.16903,0.05635 0.20894,0.321633 0.37797,0.377979 0.23906,0.07968 0.5115,-0.06112 0.75596,0 0.27331,0.06833 0.48868,0.288885 0.75595,0.377975 0.251,0.08367 0.88292,-0.08367 1.13393,0 0.16903,0.05635 0.20894,0.321631 0.37797,0.377976 0.34018,0.113393 0.79375,-0.113392 1.13393,0 0.26727,0.08909 0.48869,0.288886 0.75595,0.377976 0.11953,0.03984 0.25199,0 0.37798,0 0.25198,0 0.5169,-0.07968 0.75595,0 0.16904,0.05635 0.20894,0.32163 0.37798,0.377976 0.47811,0.159369 1.0338,-0.159369 1.5119,0 0.16904,0.05635 0.20895,0.32163 0.37798,0.377976 0.34018,0.113392 0.79375,-0.113393 1.13393,0 0.26727,0.08909 0.48868,0.288888 0.75595,0.377975 0.35858,0.119529 0.77535,-0.119525 1.13393,0 0.16904,0.05635 0.21861,0.298294 0.37797,0.377979 0.24555,0.122769 1.65013,-0.11988 1.88989,0 0.15937,0.07968 0.2186,0.298291 0.37797,0.377976 0.23846,0.119226 1.65143,-0.119227 1.88988,0 0.15937,0.07968 0.21861,0.298291 0.37798,0.377976 0.26108,0.13054 1.7572,-0.132678 1.88988,0 0.0891,0.08909 -0.0891,0.288885 0,0.377975 0.0171,0.01714 1.71167,0 1.88988,0 0.12599,0 0.28889,-0.08909 0.37798,0 0.0891,0.08909 -0.0891,0.288886 0,0.377976 0.13267,0.132678 1.6288,-0.13054 1.88988,0 0.15937,0.07968 0.21861,0.298291 0.37798,0.377976 0.22951,0.114758 2.03834,-0.114758 2.26785,0 0.15937,0.07968 0.21861,0.298291 0.37798,0.377976 0.30238,0.151191 0.83155,-0.151188 1.13393,0 0.15937,0.07968 0.2186,0.298294 0.37797,0.377978 0.23846,0.119227 1.65143,-0.119229 1.88988,0 0.15937,0.07968 0.21861,0.298291 0.37798,0.377976 0.22538,0.112689 0.53057,-0.112691 0.75595,0 0.15937,0.07968 0.21861,0.298291 0.37798,0.377976 0.30238,0.151191 0.83155,-0.151191 1.13393,0 0.15937,0.07968 0.2186,0.298291 0.37797,0.377976 0.23846,0.119226 1.65143,-0.119227 1.88989,0 0.15936,0.07968 0.2186,0.298291 0.37797,0.377975 0.23757,0.118785 1.27434,-0.118782 1.5119,0 0.15937,0.07968 0.21861,0.298292 0.37798,0.377976 0.11269,0.05635 0.26529,-0.05635 0.37798,0 0.15937,0.07968 0.21861,0.298291 0.37797,0.377976 0.1127,0.05635 0.26529,-0.05634 0.37798,0 0.15937,0.07968 0.21861,0.298294 0.37798,0.377979 0.11269,0.05634 0.26528,-0.05635 0.37797,0 0.15937,0.07968 0.21861,0.298291 0.37798,0.377975 0.11269,0.05635 0.26528,-0.05634 0.37798,0 0.15936,0.07969 0.2186,0.298292 0.37797,0.377976 0.11269,0.05635 0.26529,-0.05635 0.37798,0 0.15937,0.07968 0.2186,0.298291 0.37797,0.377976 0.11269,0.05635 0.26529,-0.05635 0.37798,0 1.72985,0.864925 -1.60391,-0.15666 1.13393,0.755952 1.12517,0.375057 -0.77554,-0.894999 1.13393,0.377975 0.14825,0.09884 0.2186,0.298294 0.37797,0.377979 0.11269,0.05634 0.25845,-0.03984 0.37798,0 0.26727,0.08909 0.48868,0.288885 0.75595,0.377976 0.11953,0.03984 0.25845,-0.03984 0.37798,0 0.26727,0.08909 0.48264,0.309647 0.75595,0.377975 0.24446,0.06111 0.5169,-0.07968 0.75595,0 0.16904,0.05635 0.20894,0.321631 0.37798,0.377976 0.23905,0.07968 0.5169,-0.07968 0.75595,0 0.16904,0.05635 0.20894,0.32163 0.37798,0.377976 0.23905,0.07968 0.5169,-0.07968 0.75595,0 0.16904,0.05635 0.20894,0.32163 0.37797,0.377976 0.23906,0.07968 0.5115,-0.06111 0.75596,0 0.27331,0.06833 0.48868,0.288888 0.75595,0.377976 0.11953,0.03984 0.25198,0 0.37798,0 0.25198,0.125992 0.48868,0.288888 0.75595,0.377978 0.11953,0.03984 0.25198,0 0.37797,0 0.25199,0 0.50397,0 0.75596,0 0.25198,0 0.51149,-0.06112 0.75595,0 0.27331,0.06833 0.48868,0.288885 0.75595,0.377976 0.11953,0.03984 0.25199,0 0.37798,0 0.25198,0 0.50397,0 0.75595,0 0.25199,0 0.51149,-0.06112 0.75595,0 0.27332,0.06833 0.48869,0.288885 0.75595,0.377976 0.11953,0.03984 0.25199,0 0.37798,0 0.3859,0 2.4622,-0.06121 2.64583,0 0.16904,0.05634 0.20895,0.32163 0.37798,0.377976 0.22115,0.07371 1.94343,0 2.26786,0 0.25198,0 0.5169,-0.07969 0.75595,0 0.16904,0.05634 0.20894,0.32163 0.37798,0.377975 0.23905,0.07968 0.50396,0 0.75595,0 0.38589,0 2.4622,-0.06121 2.64583,0 0.16904,0.05635 0.20894,0.32163 0.37798,0.377976 0.17302,0.05768 1.67891,0 1.88988,0 1.38591,0 2.77182,0 4.15774,0 0.75595,0 1.5119,0 2.26785,0 0.17023,0 1.0189,-0.05752 1.13393,0 0.15937,0.07968 0.21861,0.298291 0.37798,0.377976 0.20505,0.102526 1.40848,-0.10342 1.51191,0 0.0891,0.08909 -0.0891,0.288888 0,0.377978 0.11703,0.117039 1.77284,-0.117041 1.88987,0 0.0891,0.08909 -0.0891,0.288886 0,0.377976 0.0891,0.08909 0.25199,0 0.37798,0 0.2629,0 1.75319,-0.06834 1.88988,0 0.15937,0.07969 0.21861,0.298291 0.37798,0.377976 0.23845,0.119227 1.65143,-0.119227 1.88988,0 0.15937,0.07968 0.21861,0.298291 0.37798,0.377976 0.11269,0.05634 0.25198,0 0.37797,0 0.12599,0 0.25198,0 0.37798,0 0.0917,0 1.12177,-0.01215 1.13393,0 0.0891,0.08909 -0.0891,0.288885 0,0.377976 0.1036,0.103608 1.6241,-0.08859 1.88988,0 0.26727,0.08909 0.48868,0.288888 0.75595,0.377975 0.22537,0.07513 1.90166,0 2.26787,0 0.12597,0 0.25844,-0.03984 0.37796,0 0.26728,0.08909 0.48868,0.288888 0.75596,0.377976 0.25998,0.08666 0.91091,-0.111506 1.13393,0 0.15936,0.07968 0.2186,0.298294 0.37798,0.377979 0.30237,0.151188 0.83153,-0.151191 1.13393,0 0.15935,0.07968 0.2186,0.298291 0.37795,0.377976 0.11272,0.05634 0.2653,-0.05635 0.37799,0 0.15938,0.07968 0.2186,0.298291 0.37798,0.377975 0.11269,0.05635 0.25199,0 0.37798,0 0.25197,0 0.51689,-0.07968 0.75595,0 0.16904,0.05635 0.21859,0.298292 0.37798,0.377976 0.11269,0.05635 0.26527,-0.05635 0.37796,0 0.15938,0.07968 0.21862,0.298291 0.37798,0.377976 0.11269,0.05635 0.2653,-0.05635 0.37798,0 0.15936,0.07968 0.2186,0.298291 0.37799,0.377976 0.11268,0.05634 0.25196,0 0.37796,0 0.25198,0 0.51691,-0.07969 0.75596,0 0.16902,0.05634 0.2186,0.298291 0.37796,0.377976 0.11271,0.05635 0.2653,-0.05634 0.37798,0 0.15939,0.07968 0.2186,0.298293 0.37799,0.377978 0.11268,0.05634 0.26527,-0.05635 0.37798,0 0.15936,0.07968 0.20894,0.32163 0.37796,0.377976 0.23905,0.07968 0.50398,0 0.75597,0 0.12599,0 0.26527,-0.05635 0.37795,0 0.15939,0.07968 0.21863,0.298291 0.37799,0.377976 0.24505,0.122528 1.91177,-0.1187 2.26785,0 0.26728,0.08909 0.48868,0.288885 0.75596,0.377975 0.23723,0.07908 1.20762,0 1.51191,0 1.13393,0 2.26785,0 3.40178,0 0.19764,0 1.41253,-0.04969 1.51191,0 0.15935,0.07969 0.21859,0.298292 0.37798,0.377976 0.11269,0.05635 0.25199,0 0.37796,0 0.25199,0 0.51691,-0.07968 0.75596,0 0.16905,0.05635 0.2186,0.298291 0.37799,0.377976 0.11268,0.05635 0.26527,-0.05635 0.37796,0 0.15938,0.07968 0.20894,0.321633 0.37798,0.377976 0.23905,0.07968 0.51689,-0.07969 0.75594,0 0.16904,0.05635 0.21863,0.298294 0.37798,0.377978 0.11269,0.05634 0.25845,-0.03984 0.37799,0 0.26725,0.08909 0.48868,0.288886 0.75594,0.377976 0.23905,0.07969 0.53057,-0.112691 0.75597,0 0.15935,0.07969 0.21859,0.298288 0.37795,0.377978 0.11272,0.0563 0.25199,0 0.37799,0 0.25199,0 0.51689,-0.0797 0.75596,0 0.16902,0.0563 0.2186,0.29829 0.37796,0.37797 0.23757,0.11879 1.27434,-0.11878 1.51191,0 0.15939,0.0797 0.2186,0.29829 0.37798,0.37798 0.0977,0.0489 1.99994,0 2.26785,0 0.26792,0 2.17014,0.0489 2.26785,0 0.15939,-0.0797 0.21863,-0.29829 0.37799,-0.37798 0.0994,-0.0497 1.31426,0 1.51191,0 1.38591,0 2.77182,0 4.15774,0 0.26791,0 2.17014,-0.0489 2.26785,0 0.15938,0.0797 0.2186,0.29829 0.37798,0.37798 0.0994,0.0497 1.31424,0 1.51191,0 0.25199,0 0.50395,0 0.75594,0 0.12599,0 0.37798,-0.12599 0.37798,0 0,0.12599 -0.25199,0 -0.37798,0 -0.65971,0 -0.26527,0.0563 -1.13392,-0.37798"
       id="path3618"
       inkscape:connector-curvature="0" />
  </g>
</svg>
