<?xml version="1.0" encoding="UTF-8" standalone="no"?>
<!-- Created with Inkscape (http://www.inkscape.org/) -->

<svg
   xmlns:dc="http://purl.org/dc/elements/1.1/"
   xmlns:cc="http://creativecommons.org/ns#"
   xmlns:rdf="http://www.w3.org/1999/02/22-rdf-syntax-ns#"
   xmlns:svg="http://www.w3.org/2000/svg"
   xmlns="http://www.w3.org/2000/svg"
   xmlns:xlink="http://www.w3.org/1999/xlink"
   xmlns:sodipodi="http://sodipodi.sourceforge.net/DTD/sodipodi-0.dtd"
   xmlns:inkscape="http://www.inkscape.org/namespaces/inkscape"
   width="1224"
   height="720"
   viewBox="0 0 323.85001 190.5"
   version="1.1"
   id="svg2961"
   sodipodi:docname="primorka-alg-chr.svg"
   inkscape:version="0.92.3 (2405546, 2018-03-11)">
  <defs
     id="defs2955" />
  <sodipodi:namedview
     id="base"
     pagecolor="#ffffff"
     bordercolor="#666666"
     borderopacity="1.0"
     inkscape:pageopacity="0.0"
     inkscape:pageshadow="2"
     inkscape:zoom="0.7"
     inkscape:cx="549.84229"
     inkscape:cy="383.48018"
     inkscape:document-units="mm"
     inkscape:current-layer="layer1"
     showgrid="false"
     inkscape:window-width="1366"
     inkscape:window-height="715"
     inkscape:window-x="0"
     inkscape:window-y="0"
     inkscape:window-maximized="1"
     fit-margin-top="0"
     fit-margin-left="0"
     fit-margin-right="0"
     fit-margin-bottom="0"
     units="px" />
  <metadata
     id="metadata2958">
    <rdf:RDF>
      <cc:Work
         rdf:about="">
        <dc:format>image/svg+xml</dc:format>
        <dc:type
           rdf:resource="http://purl.org/dc/dcmitype/StillImage" />
        <dc:title></dc:title>
      </cc:Work>
    </rdf:RDF>
  </metadata>
  <g
     inkscape:label="Layer 1"
     inkscape:groupmode="layer"
     id="layer1"
     transform="translate(0.09449404,-0.00520833)">
    <image
       sodipodi:absref="/home/aanper/project/luysy-imn-eh/pi/boot/bydefault/web/img/primorka.png"
       y="0.0052083312"
       x="-0.094494045"
       id="image3565"
       xlink:href="file:///home/aanper/project/luysy-imn-eh/pi/boot/bydefault/web/img/primorka.png"
       preserveAspectRatio="none"
       height="190.5"
       width="323.85001"
       style="fill:#00ff00;fill-opacity:1" />
    <circle
       style="fill:#00ff00;fill-opacity:1;stroke:#00ff00;stroke-width:0.30000001;stroke-miterlimit:4;stroke-dasharray:none;stroke-opacity:1;paint-order:stroke fill markers"
       id="path3587"
       cx="64.633926"
       cy="51.315475"
       r="1.4174107" />
    <circle
       style="fill:#00ff00;fill-opacity:1;stroke:#00ff00;stroke-width:0.30000001;stroke-miterlimit:4;stroke-dasharray:none;stroke-opacity:1;paint-order:stroke fill markers"
       id="path3589"
       cx="260.70908"
       cy="99.034966"
       r="1.5119048" />
    <circle
       style="fill:#00ff00;fill-opacity:1;stroke:#00ff00;stroke-width:0.30000001;stroke-miterlimit:4;stroke-dasharray:none;stroke-opacity:1;paint-order:stroke fill markers"
       id="path3591"
       cx="105.73884"
       cy="116.23288"
       r="1.3229166" />
    <ellipse
       style="fill:#00ff00;fill-opacity:1;stroke:#00ff00;stroke-width:0.30000001;stroke-miterlimit:4;stroke-dasharray:none;stroke-opacity:1;paint-order:stroke fill markers"
       id="path3593"
       cx="125.67709"
       cy="54.811752"
       rx="1.0394346"
       ry="1.1339285" />
    <ellipse
       style="fill:none;fill-opacity:1;stroke:#00ff00;stroke-width:0.30000001;stroke-miterlimit:4;stroke-dasharray:none;stroke-opacity:1;paint-order:stroke fill markers"
       id="path3595"
       cx="234.25075"
       cy="148.45535"
       rx="1.1339285"
       ry="0.8504464" />
    <path
       style="fill:none;fill-opacity:1;stroke:#00ff00;stroke-width:0.30000001;stroke-miterlimit:4;stroke-dasharray:none;stroke-opacity:1;paint-order:stroke fill markers"
       d="m 261.843,100.92485 c 0,-3.767098 -0.35636,-0.42121 0.37798,-1.889882 0.0563,-0.112689 -0.0891,-0.288885 0,-0.377976 0.0891,-0.08909 0.28889,0.08909 0.37797,0 0.0891,-0.08909 -0.0563,-0.265284 0,-0.377976 0.0797,-0.159369 0.25199,-0.251984 0.37798,-0.377976 0.12599,-0.125992 0.21861,-0.298291 0.37798,-0.377975 0.11269,-0.05635 0.28888,0.08909 0.37797,0 0.0891,-0.08909 -0.0891,-0.288888 0,-0.377976 0.17818,-0.178181 0.53058,0.112689 0.75596,0 0.15935,-0.07968 0.21859,-0.298294 0.37798,-0.377976 0.0977,-0.04886 1.99993,0 2.26785,0 1.51191,0 3.02382,0 4.53572,0 0.12597,0 0.25197,0 0.37796,0 0.126,0 0.2889,-0.08909 0.37799,0 0.0891,0.08909 -0.0891,0.288885 0,0.377976 0.10342,0.103423 1.30685,-0.102524 1.5119,0 0.15936,0.07968 0.2186,0.298291 0.37799,0.377976 0.22537,0.112691 0.53057,-0.112692 0.75594,0 0.15936,0.07968 0.2186,0.298291 0.37798,0.377975 0.30237,0.151191 0.83154,-0.15119 1.13393,0 0.15936,0.07969 0.2186,0.298292 0.37798,0.377976 0.23754,0.118785 1.27434,-0.118782 1.51188,0 0.15939,0.07968 0.21863,0.298291 0.37799,0.377976 0.2254,0.112691 0.53057,-0.112691 0.75596,0 0.15936,0.07968 0.2186,0.298291 0.37796,0.377976 0.30239,0.151191 0.83156,-0.151188 1.13393,0 0.15938,0.07968 0.21862,0.298294 0.37798,0.377978 0.2254,0.112689 0.53057,-0.112691 0.75597,0 0.15936,0.07968 0.2186,0.298292 0.37796,0.377976 0.30239,0.151191 0.83155,-0.151191 1.13392,0 0.15939,0.07969 0.21863,0.298288 0.37798,0.377978 0.22953,0.11476 2.03835,-0.11476 2.26785,0 0.15939,0.0797 0.21863,0.29829 0.37799,0.37797 0.11504,0.0575 0.96372,0 1.13392,0 0.88196,0 1.7639,0 2.64584,0 0.17023,0 1.01891,-0.0575 1.13392,0 0.15938,0.0797 0.21863,0.29829 0.37798,0.37798 0.11504,0.0575 0.96372,0 1.13393,0 0.88196,0 1.7639,0 2.64583,0 1.38592,0 2.77183,0 4.15774,0 0.26289,0 1.75321,-0.0683 1.8899,0 0.15935,0.0797 0.21859,0.29829 0.37795,0.37798 0.0977,0.0489 1.99996,0 2.26788,0 0.88641,0 -0.1782,-0.0891 0.75594,0.37797 0.23847,0.11923 1.65142,-0.11923 1.88989,0 0.15936,0.0797 0.2186,0.2983 0.37796,0.37798 0.23757,0.11878 1.27434,-0.11879 1.51191,0 0.15938,0.0797 0.21862,0.29829 0.37798,0.37798 0.30239,0.15119 0.83156,-0.1512 1.13393,0 0.15938,0.0797 0.2186,0.29829 0.37798,0.37797 0.0775,0.0388 1.08061,0.0533 1.13393,0 0.0891,-0.0891 0,-0.25198 0,-0.37797"
       id="path3641"
       inkscape:connector-curvature="0" />
  </g>
</svg>
