<?xml version="1.0" encoding="UTF-8" standalone="no"?>
<!-- Created with Inkscape (http://www.inkscape.org/) -->

<svg
   xmlns:dc="http://purl.org/dc/elements/1.1/"
   xmlns:cc="http://creativecommons.org/ns#"
   xmlns:rdf="http://www.w3.org/1999/02/22-rdf-syntax-ns#"
   xmlns:svg="http://www.w3.org/2000/svg"
   xmlns="http://www.w3.org/2000/svg"
   xmlns:xlink="http://www.w3.org/1999/xlink"
   xmlns:sodipodi="http://sodipodi.sourceforge.net/DTD/sodipodi-0.dtd"
   xmlns:inkscape="http://www.inkscape.org/namespaces/inkscape"
   width="1224"
   height="720"
   viewBox="0 0 323.85001 190.5"
   version="1.1"
   id="svg2961"
   sodipodi:docname="primorka-damba-chr.svg"
   inkscape:version="0.92.3 (2405546, 2018-03-11)">
  <defs
     id="defs2955" />
  <sodipodi:namedview
     id="base"
     pagecolor="#ffffff"
     bordercolor="#666666"
     borderopacity="1.0"
     inkscape:pageopacity="0.0"
     inkscape:pageshadow="2"
     inkscape:zoom="0.7"
     inkscape:cx="549.84229"
     inkscape:cy="383.48018"
     inkscape:document-units="mm"
     inkscape:current-layer="layer1"
     showgrid="false"
     inkscape:window-width="1366"
     inkscape:window-height="715"
     inkscape:window-x="0"
     inkscape:window-y="0"
     inkscape:window-maximized="1"
     fit-margin-top="0"
     fit-margin-left="0"
     fit-margin-right="0"
     fit-margin-bottom="0"
     units="px" />
  <metadata
     id="metadata2958">
    <rdf:RDF>
      <cc:Work
         rdf:about="">
        <dc:format>image/svg+xml</dc:format>
        <dc:type
           rdf:resource="http://purl.org/dc/dcmitype/StillImage" />
        <dc:title></dc:title>
      </cc:Work>
    </rdf:RDF>
  </metadata>
  <g
     inkscape:label="Layer 1"
     inkscape:groupmode="layer"
     id="layer1"
     transform="translate(0.09449404,-0.00520833)">
    <image
       sodipodi:absref="/home/aanper/project/luysy-imn-eh/pi/boot/bydefault/web/img/primorka.png"
       y="0.0052083312"
       x="-0.094494045"
       id="image3565"
       xlink:href="file:///home/aanper/project/luysy-imn-eh/pi/boot/bydefault/web/img/primorka.png"
       preserveAspectRatio="none"
       height="190.5"
       width="323.85001"
       style="fill:#00ff00;fill-opacity:1" />
    <circle
       style="fill:#00ff00;fill-opacity:1;stroke:#00ff00;stroke-width:0.30000001;stroke-miterlimit:4;stroke-dasharray:none;stroke-opacity:1;paint-order:stroke fill markers"
       id="path3587"
       cx="64.633926"
       cy="51.315475"
       r="1.4174107" />
    <circle
       style="fill:#00ff00;fill-opacity:1;stroke:#00ff00;stroke-width:0.30000001;stroke-miterlimit:4;stroke-dasharray:none;stroke-opacity:1;paint-order:stroke fill markers"
       id="path3589"
       cx="260.70908"
       cy="99.034966"
       r="1.5119048" />
    <circle
       style="fill:#00ff00;fill-opacity:1;stroke:#00ff00;stroke-width:0.30000001;stroke-miterlimit:4;stroke-dasharray:none;stroke-opacity:1;paint-order:stroke fill markers"
       id="path3591"
       cx="105.73884"
       cy="116.23288"
       r="1.3229166" />
    <ellipse
       style="fill:#00ff00;fill-opacity:1;stroke:#00ff00;stroke-width:0.30000001;stroke-miterlimit:4;stroke-dasharray:none;stroke-opacity:1;paint-order:stroke fill markers"
       id="path3593"
       cx="125.67709"
       cy="54.811752"
       rx="1.0394346"
       ry="1.1339285" />
    <ellipse
       style="fill:none;fill-opacity:1;stroke:#00ff00;stroke-width:0.30000001;stroke-miterlimit:4;stroke-dasharray:none;stroke-opacity:1;paint-order:stroke fill markers"
       id="path3595"
       cx="234.25075"
       cy="148.45535"
       rx="1.1339285"
       ry="0.8504464" />
    <path
       style="fill:none;fill-opacity:1;stroke:#00ff00;stroke-width:0.30000001;stroke-miterlimit:4;stroke-dasharray:none;stroke-opacity:1;paint-order:stroke fill markers"
       d="m 2.1733631,53.29985 c 0.7526897,-0.333243 2.032185,-1.003858 3.0238095,-0.755951 0.2733151,0.06833 0.4886827,0.288885 0.7559524,0.377975 0.244897,0.08163 1.5804316,0 1.8898809,0 1.5119048,0 3.0238091,0 4.5357141,0 0.251984,0 0.503968,0 0.755952,0 0.251985,0 0.511492,-0.06112 0.755953,0 0.273315,0.06833 0.482637,0.309647 0.755952,0.377976 0.244461,0.06112 0.503969,0 0.755953,0 0.62996,0 1.25992,0 1.889881,0 0.316513,0 1.602442,0.07186 1.88988,0 0.273316,-0.06833 0.488683,-0.288885 0.755953,-0.377976 0.35858,-0.119525 0.775349,0.119526 1.133928,0 0.169037,-0.05635 0.20894,-0.32163 0.377976,-0.377975 0.566965,-0.18899 1.322917,0.188986 1.889882,0 0.169036,-0.05635 0.208939,-0.321631 0.377976,-0.377976 1.720655,0 0.02162,0.178178 1.133928,-0.377976 0.112691,-0.05635 0.251984,0 0.377976,0 0.251985,0 0.5169,0.07968 0.755953,0 0.169036,-0.05635 0.218607,-0.298294 0.377976,-0.377979 0.112691,-0.05634 0.265284,0.05635 0.377976,0 0.159369,-0.07968 0.208941,-0.32163 0.377976,-0.377975 0.239053,-0.07968 0.503967,0 0.755954,0 0.125992,0 0.265284,0.05635 0.377976,0 0.159369,-0.07968 0.218606,-0.298292 0.377975,-0.377976 0.112692,-0.05635 0.265285,0.05635 0.377976,0 0.159369,-0.07969 0.208939,-0.32163 0.377976,-0.377976 0.239054,-0.07968 0.503968,0 0.755952,0 0.125992,0 0.265287,0.05635 0.377978,0 0.159367,-0.07968 0.218607,-0.298291 0.377976,-0.377976 0.302379,-0.151191 0.831546,0.151191 1.133927,0 0.159369,-0.07968 0.218607,-0.298291 0.377976,-0.377976 0.302382,-0.15119 0.831549,0.151191 1.13393,0 0.159369,-0.07968 0.218607,-0.298293 0.377976,-0.377975 0.237567,-0.118785 1.274339,0.118782 1.511903,0 0.159369,-0.07968 0.21861,-0.298294 0.377979,-0.377979 0.237564,-0.118782 1.274336,0.118785 1.511903,0 0.159369,-0.07968 0.218607,-0.298291 0.377976,-0.377976 0.149865,-0.07493 1.056658,0.07727 1.13393,0 0.08909,-0.08909 -0.08909,-0.288885 0,-0.377975 0.07727,-0.07727 0.984062,0.07493 1.133927,0 0.159369,-0.07968 0.218607,-0.298292 0.377976,-0.377976 0.225383,-0.112692 0.577773,0.178178 0.755954,0 0.08909,-0.08909 -0.08909,-0.288886 0,-0.377976 0.178179,-0.178181 0.530569,0.112691 0.755952,0 0.159369,-0.07968 0.218607,-0.298291 0.377976,-0.377976 0.225382,-0.112691 0.530571,0.112689 0.755951,0 0.159369,-0.07968 0.21861,-0.298294 0.377976,-0.377976 0.225383,-0.112691 0.530572,0.112689 0.755954,0 1.253588,-1.25359 -0.356359,0.178179 0.755952,-0.377978 0.159369,-0.07968 0.218607,-0.298291 0.377976,-0.377976 0.112691,-0.05635 0.265287,0.05635 0.377976,0 0.159369,-0.07969 0.218609,-0.298291 0.377975,-0.377976 0.302382,-0.151191 0.831549,0.151191 1.133931,0 0.159369,-0.07968 0.218606,-0.298291 0.377975,-0.377976 0.112692,-0.05635 0.265285,0.05635 0.377976,0 0.159369,-0.07968 0.218607,-0.298291 0.377976,-0.377975 0.112691,-0.05635 0.265287,0.05635 0.377976,0 0.159369,-0.07969 0.218609,-0.298292 0.377978,-0.377976 0.22538,-0.112692 0.530569,0.112689 0.755952,0 0.159369,-0.07968 0.218607,-0.298294 0.377976,-0.377976 0.112691,-0.05635 0.265284,0.05634 0.377975,0 0.15937,-0.07969 0.218607,-0.298294 0.377976,-0.377978 0.112692,-0.05634 0.265287,0.05635 0.377976,0 0.159369,-0.07968 0.218609,-0.298292 0.377979,-0.377976 0.22538,-0.112692 0.516897,0.07968 0.755951,0 0.267269,-0.08909 0.488683,-0.288886 0.755952,-0.377976 0.119528,-0.03984 0.265287,0.05635 0.377976,0 0.159369,-0.07969 0.208941,-0.32163 0.377975,-0.377976 0.239054,-0.07968 0.516901,0.07968 0.755955,0 0.169034,-0.05635 0.218606,-0.298291 0.377975,-0.377976 0.112692,-0.05635 0.251984,0 0.377976,0 0.251984,-0.125992 0.521542,-0.221702 0.755952,-0.377975 0.148254,-0.09884 0.208941,-0.321633 0.377976,-0.377976 0.239053,-0.07968 0.511492,0.06111 0.755954,0 0.684115,0.227817 0.702969,-0.612302 1.133927,-0.755955 0.239054,-0.07968 0.516901,0.07968 0.755952,0 0.169037,-0.05635 0.229722,-0.279138 0.377978,-0.377975 0.234411,-0.156274 0.503968,-0.251984 0.755952,-0.377976 0.251984,-0.125992 0.488683,-0.288885 0.755952,-0.377976 0.119528,-0.03984 0.25845,0.03984 0.377975,0 0.534541,-0.178181 0.977366,-0.577773 1.511906,-0.755952 0.119526,-0.03984 0.258451,0.03984 0.377976,0 0.534541,-0.178181 0.977366,-0.577773 1.511906,-0.755954 0.119526,-0.03984 0.251984,0 0.377976,0 0.251984,-0.125992 0.488683,-0.288885 0.755951,-0.377976 0.119526,-0.03984 0.258451,0.03984 0.377976,0 0.267269,-0.08909 0.488683,-0.288885 0.755952,-0.377975 0.119528,-0.03984 0.25845,0.03984 0.377978,0 0.267269,-0.08909 0.488683,-0.288886 0.755952,-0.377976 0.239054,-0.07969 0.530572,0.112691 0.755952,0 0.159369,-0.07969 0.218606,-0.298292 0.377975,-0.377976 0.112692,-0.05635 0.265287,0.05635 0.377976,0 0.159369,-0.07968 0.208942,-0.321633 0.377979,-0.377976 0.172881,-0.05763 1.343713,0.08409 1.511903,0 0.159369,-0.07968 0.208941,-0.321633 0.377976,-0.377978 0.358579,-0.119526 0.775351,0.119528 1.13393,0 0.267269,-0.08909 0.488683,-0.288886 0.755951,-0.377976 0.239054,-0.07968 0.516901,0.07968 0.755952,0 0.267271,-0.08909 0.488683,-0.288885 0.755954,-0.377976 0.239051,-0.07969 0.530569,0.112691 0.755952,0 0.159369,-0.07969 0.251984,-0.251984 0.377976,-0.377976 0.251984,0 0.5169,0.07968 0.755951,0 0.169037,-0.05635 0.21861,-0.298291 0.377976,-0.377976 0.225383,-0.112691 0.516901,0.07968 0.755954,0 0.267269,-0.08909 0.488683,-0.288888 0.755952,-0.377975 0.119525,-0.03984 0.265284,0.05634 0.377976,0 1.152662,-0.576332 -0.691298,-0.299646 1.13393,-0.755955 2.507178,0 -0.534541,0.178181 1.133927,-0.377975 0.239054,-0.07968 0.511493,0.06112 0.755952,0 0.684114,0.227816 0.702971,-0.612299 1.13393,-0.755952 0.239054,-0.07969 0.51149,0.06112 0.755952,0 0.273314,-0.06833 0.488682,-0.288885 0.755951,-0.377976 0.119528,-0.03984 0.25845,0.03984 0.377976,0 0.267271,-0.08909 0.48264,-0.309647 0.755954,-0.377976 0.244459,-0.06112 0.516898,0.07969 0.755952,0 0.169037,-0.05635 0.208941,-0.321632 0.377976,-0.377975 0.239053,-0.07969 0.511492,0.06111 0.755951,0 0.684115,0.227816 0.702972,-0.612302 1.13393,-0.755955 0.239054,-0.07968 0.511493,0.06112 0.755952,0 0.684115,0.227817 0.702969,-0.612298 1.13393,-0.755951 0.239051,-0.07969 0.51149,0.06112 0.755952,0 0.546629,-0.136658 0.977365,-0.577774 1.511903,-0.755952 0.119528,-0.03984 0.25845,0.03984 0.377978,0 0.251984,-0.125992 0.503968,-0.251984 0.755952,-0.377976 0.125992,0 0.25845,0.03984 0.377976,0 0.267269,-0.08909 0.488683,-0.288888 0.755951,-0.377978 0.119529,-0.03984 0.258451,0.03984 0.377976,0 0.267272,-0.08909 0.48264,-0.309647 0.755954,-0.377976 0.24446,-0.06111 0.516898,0.07969 0.755952,0 0.169037,-0.05635 0.229722,-0.279138 0.377976,-0.377976 0.23441,-0.156273 0.488683,-0.288885 0.755951,-0.377976 1.125175,-0.375057 -0.775533,0.894998 1.133935,-0.377976 0.14825,-0.09884 0.20893,-0.321631 0.37797,-0.377976 0.23906,-0.07968 0.5169,0.07968 0.75595,0 0.16904,-0.05635 0.22972,-0.27914 0.37798,-0.377976 0.19035,-0.832744 0.77757,-0.199797 1.13393,-0.377976 0.15937,-0.07969 0.20894,-0.321631 0.37797,-0.377977 0.23906,-0.07968 0.51691,0.07969 0.75596,0 0.16903,-0.05635 0.21861,-0.298292 0.37797,-0.377976 0.11269,-0.05635 0.25845,0.03984 0.37798,0 0.26727,-0.08909 0.48868,-0.288886 0.75595,-0.377976 0.11953,-0.03984 0.26529,0.05635 0.37798,0 0.15937,-0.07969 0.2186,-0.298292 0.37797,-0.377976 0.1127,-0.05635 0.25845,0.03984 0.37798,0 0.26727,-0.08909 0.48868,-0.288887 0.75595,-0.377976 0.23905,-0.07968 0.53057,0.11269 0.75596,0 0.15936,-0.07968 0.25198,-0.251985 0.37797,-0.377977 0.25199,0 0.5169,0.07968 0.75595,0 0.16904,-0.05635 0.21861,-0.298291 0.37798,-0.377976 0.22538,-0.112691 0.5169,0.07968 0.75595,0 0.26727,-0.08909 0.48869,-0.288886 0.75595,-0.377976 0.23906,-0.07968 0.53058,0.112691 0.75596,0 0.15937,-0.07968 0.21861,-0.298292 0.37797,-0.377976 0.22538,-0.112691 0.5169,0.07968 0.75596,0 0.26727,-0.08909 0.48868,-0.288887 0.75595,-0.377976 0.23905,-0.07969 0.53057,0.11269 0.75595,0 0.15937,-0.07969 0.21861,-0.298292 0.37798,-0.377977 0.11269,-0.05635 0.25845,0.03984 0.37797,0 0.26727,-0.08909 0.48869,-0.288886 0.75596,-0.377976 0.11952,-0.03984 0.26528,0.05635 0.37797,0 0.15937,-0.07968 0.21861,-0.298291 0.37798,-0.377976 0.22538,-0.112691 0.5169,0.07968 0.75595,0 0.26727,-0.08909 0.48868,-0.288886 0.75595,-0.377976 0.11953,-0.03984 0.25845,0.03984 0.37798,0 0.26727,-0.08909 0.48868,-0.288886 0.75595,-0.377976 0.11953,-0.03984 0.26529,0.05635 0.37798,0 0.15937,-0.07969 0.20894,-0.321631 0.37797,-0.377976 0.23906,-0.07969 0.5169,0.07968 0.75596,0 0.16903,-0.05635 0.20893,-0.321631 0.37797,-0.377977 0.35858,-0.119526 0.77535,0.119527 1.13393,0 0.26727,-0.08909 0.48868,-0.288886 0.75595,-0.377976 0.11953,-0.03984 0.26529,0.05635 0.37798,0 0.15937,-0.07968 0.20894,-0.321631 0.37798,-0.377976 0.23905,-0.07968 0.51689,0.07968 0.75595,0 0.16903,-0.05635 0.2186,-0.298292 0.37797,-0.377976 0.11269,-0.05634 0.25845,0.03984 0.37798,0 0.26727,-0.08909 0.48868,-0.288887 0.75595,-0.377976 0.11953,-0.03984 0.25845,0.03984 0.37798,0 0.26727,-0.08909 0.48868,-0.288887 0.75595,-0.377976 0.11953,-0.03984 0.26529,0.05635 0.37798,0 0.15937,-0.07969 0.20894,-0.321631 0.37797,-0.377977 0.23906,-0.07968 0.5169,0.07968 0.75596,0 0.16903,-0.05635 0.2186,-0.298292 0.37797,-0.377976 0.11269,-0.05635 0.25845,0.03984 0.37798,0 0.26727,-0.08909 0.48868,-0.288886 0.75595,-0.377976 0.11953,-0.03984 0.26529,0.05635 0.37798,0 0.15936,-0.07968 0.20894,-0.321631 0.37797,-0.377976 0.23905,-0.07969 0.5169,0.07968 0.75596,0 0.16903,-0.05635 0.2186,-0.298292 0.37797,-0.377977 0.11269,-0.05635 0.26529,0.05635 0.37798,0 0.15937,-0.07968 0.20894,-0.32163 0.37797,-0.377976 0.23906,-0.07968 0.50397,0 0.75596,0 0.12599,0 0.26528,0.05635 0.37797,0 0.15937,-0.07968 0.21861,-0.298291 0.37798,-0.377976 0.16819,-0.0841 1.33902,0.05763 1.5119,0 0.16904,-0.05635 0.21861,-0.298292 0.37798,-0.377976 0.11503,-0.05752 0.9637,0 1.13393,0 0.88642,0 -0.17818,0.08909 0.75595,-0.377976 0.23845,-0.119227 1.65143,0.119227 1.88988,0 0.15937,-0.07968 0.20894,-0.321631 0.37798,-0.377977 0.35858,-0.119526 0.75595,0 1.13393,0 0.75595,0 1.5119,0 2.26785,0 1.88988,0 3.77976,0 5.66965,0 1.13392,0 2.26785,0 3.40178,0 0.17023,0 1.0189,-0.05752 1.13393,0 0.15937,0.07968 0.21861,0.298292 0.37797,0.377977 0.23474,0.117367 2.02567,-0.121099 2.26786,0 0.15937,0.07968 0.20894,0.321631 0.37798,0.377976 0.17288,0.05763 1.34371,-0.0841 1.5119,0 0.15937,0.07968 0.21861,0.298292 0.37798,0.377976 0.11269,0.05634 0.26529,-0.05635 0.37798,0 0.15936,0.07968 0.2186,0.298292 0.37797,0.377976 0.11269,0.05635 0.25845,-0.03984 0.37798,0 0.26727,0.08909 0.48868,0.288887 0.75595,0.377976 0.11953,0.03984 0.26529,-0.05635 0.37798,0 0.15937,0.07969 0.2186,0.298292 0.37797,0.377977 0.11269,0.05634 0.25199,0 0.37798,0 0.25198,0.125992 0.52154,0.221702 0.75595,0.377976 0.14826,0.09884 0.21861,0.298292 0.37798,0.377976 0.11269,0.05635 0.25198,0 0.37797,0 0.25199,0.125992 0.52155,0.221702 0.75596,0.377976 0.14825,0.09884 0.2186,0.298292 0.37797,0.377977 0.11269,0.05635 0.26529,-0.05635 0.37798,0 1.72985,0.864924 -1.60391,-0.156661 1.13393,0.755952 0.11952,0.03984 0.26528,-0.05634 0.37797,0 0.28874,0.144366 0.87799,1.048613 1.13393,1.133928 0.23905,0.07969 0.5169,-0.07968 0.75596,0 0.33807,0.112691 0.45944,0.55828 0.75595,0.755953 0.23441,0.156274 0.52154,0.221702 0.75595,0.377976 0.14826,0.09884 0.21861,0.298292 0.37797,0.377976 0.1127,0.05634 0.25199,0 0.37798,0 0.25199,0.125992 0.52154,0.221702 0.75595,0.377976 0.18326,0.122172 1.76771,1.706623 1.88989,1.889881 0.15627,0.234411 0.2217,0.521542 0.37797,0.755953 0.0988,0.148254 0.25199,0.251984 0.37798,0.377976 0.12599,0.125992 0.22972,0.27914 0.37797,0.377976 0.23441,0.156274 0.55675,0.178765 0.75596,0.377976 0.0242,0.02422 0.70901,1.441499 0.75595,1.511905 0.0988,0.148254 0.27914,0.229721 0.37798,0.377976 0.15627,0.234411 0.17876,0.556742 0.37797,0.755952 0.19921,0.19921 0.55674,0.178766 0.75595,0.377976 0.0242,0.02421 0.70902,1.4415 0.75595,1.511906 0.0988,0.148254 0.27915,0.229722 0.37798,0.377976 0.31255,0.46882 0.41788,1.06114 0.75595,1.511906 0.32073,0.42763 0.83742,0.689162 1.13393,1.133927 0.15628,0.23441 0.17877,0.556741 0.37798,0.755952 0.19921,0.199212 0.55674,0.178765 0.75595,0.377975 0.19921,0.199213 0.2217,0.521542 0.37798,0.755955 0.0988,0.148254 0.25198,0.251983 0.37797,0.377975 0.25199,0.251984 0.50397,0.503968 0.75596,0.755952 0.75595,0.755952 1.5119,1.511906 2.26785,2.267858 1.15609,1.156086 -0.69671,-0.61703 1.13393,0.755951 0.28509,0.213815 0.50397,0.503968 0.75595,0.755954 0.126,0.125992 0.27915,0.229722 0.37798,0.377976 0.15627,0.23441 0.17877,0.556742 0.37798,0.755952 0.19921,0.19921 0.55674,0.178766 0.75595,0.377976 0.19921,0.19921 0.17876,0.556741 0.37798,0.755951 0.19921,0.199213 0.55674,0.178766 0.75595,0.377979 0.19921,0.19921 0.20894,0.530569 0.37797,0.755951 0.32073,0.42763 0.75596,0.755952 1.13393,1.133928 0.75596,0.755954 1.51191,1.511906 2.26786,2.267857 0.25198,0.251984 0.54214,0.470866 0.75595,0.755952 0.16904,0.225383 0.20894,0.530571 0.37798,0.755954 0.635,0.846667 1.63286,1.421191 2.26786,2.267858 0.16903,0.22538 0.20893,0.530569 0.37797,0.755951 0.42763,0.570175 1.08427,0.941729 1.51191,1.511903 0.16903,0.225383 0.20894,0.530572 0.37797,0.755955 0.21382,0.285086 0.50397,0.503967 0.75596,0.755951 0.37797,0.377976 0.75595,0.755952 1.13392,1.133928 0.25199,0.251984 0.50397,0.50397 0.75595,0.755954 0.25199,0.251984 0.47087,0.542137 0.75596,0.755952 0.22538,0.169037 0.55674,0.178765 0.75595,0.377975 0.19921,0.199211 0.20894,0.530572 0.37798,0.755952 2.03908,2.718776 -0.4197,-0.797671 1.5119,1.13393 2.51984,2.519841 -1.88988,-0.881946 1.13393,1.133928 0.14825,0.09884 0.25198,0.251983 0.37797,0.377975 0.25199,0.251984 0.50398,0.503971 0.75596,0.755955 0.12599,0.125992 0.27914,0.229721 0.37798,0.377975 0.3672,0.550818 0.23596,0.787273 0.75595,1.133928 0.23441,0.156273 0.52154,0.221702 0.75595,0.377976 0.14825,0.09884 0.25198,0.251984 0.37797,0.377978 0.126,0.125992 0.27914,0.229722 0.37798,0.377976 0.15628,0.23441 0.2217,0.521541 0.37798,0.755952 0.19767,0.296507 0.50397,0.503967 0.75595,0.755951 0.37798,0.377976 0.75595,0.755954 1.13393,1.13393 0.12599,0.125992 0.25198,0.251984 0.37798,0.377976 0.12599,0.125992 0.32163,0.208939 0.37797,0.377976 0.0797,0.239054 -0.0797,0.516898 0,0.755951 0.0564,0.169037 0.25199,0.251984 0.37798,0.377976 0.12599,0.125992 0.2186,0.298294 0.37797,0.377979 0.11269,0.05634 0.26529,-0.05635 0.37798,0 0.20187,0.100933 0.93494,0.934937 1.13393,1.133927 0.19899,0.198991 1.03299,0.932058 1.13393,1.133928 0.26068,0.521364 -0.45775,0.338089 0.37797,0.755954 0.11269,0.05634 0.26529,-0.05635 0.37798,0 0.37194,0.185967 1.13996,1.325933 1.5119,1.511903 0.1127,0.05635 0.26529,-0.05635 0.37798,0 0.37194,0.18597 1.13997,1.325936 1.51191,1.511906 0.11268,0.05635 0.28888,-0.08909 0.37797,0 0.0891,0.08909 -0.0891,0.288885 0,0.377976 0.0891,0.08909 0.26529,-0.05635 0.37798,0 0.31874,0.159369 0.43721,0.596582 0.75595,0.755951 0.11269,0.05635 0.26529,-0.05635 0.37797,0 0.15937,0.07968 0.21861,0.298292 0.37798,0.377976 0.11269,0.05635 0.28889,-0.08909 0.37798,0 0.0891,0.08909 -0.0891,0.288888 0,0.377979 0.0891,0.08909 0.28888,-0.08909 0.37797,0 0.0891,0.08909 -0.0891,0.288885 0,0.377975 0.0891,0.08909 0.28889,-0.08909 0.37798,0 0.0891,0.08909 -0.0891,0.288886 0,0.377976 0.0891,0.08909 0.28889,-0.08909 0.37798,0 0.0891,0.08909 -0.0564,0.265285 0,0.377976 0.0797,0.159369 0.25198,0.251984 0.37797,0.377976 0.12599,0.125992 0.21861,0.298291 0.37798,0.377976 0.11269,0.05635 0.28889,-0.08909 0.37797,0 0.0891,0.08909 -0.0891,0.288888 0,0.377975 0.0891,0.08909 0.26529,-0.05634 0.37798,0 0.15937,0.07968 0.21861,0.298294 0.37798,0.377979 0.11269,0.05634 0.28888,-0.08909 0.37797,0 0.0891,0.08909 -0.0891,0.288885 0,0.377976 0.0891,0.08909 0.26529,-0.05635 0.37798,0 0.31874,0.159369 0.43722,0.596582 0.75595,0.755951 0.11269,0.05635 0.26529,-0.05634 0.37798,0 0.31874,0.159369 0.43721,0.596583 0.75595,0.755952 0.11269,0.05635 0.28889,-0.08909 0.37798,0 0.0891,0.08909 -0.0891,0.288888 0,0.377976 0.0891,0.08909 0.28888,-0.08909 0.37797,0 0.0891,0.08909 -0.0891,0.288888 0,0.377978 0.0891,0.08909 0.28889,-0.08909 0.37798,0 0.0891,0.08909 -0.0891,0.288886 0,0.377976 0.0891,0.08909 0.26529,-0.05635 0.37797,0 0.40238,0.201187 0.35358,0.554762 0.75596,0.755952 0.11269,0.05634 0.28888,-0.08909 0.37797,0 0.0891,0.08909 -0.0891,0.288885 0,0.377975 0.0891,0.08909 0.28889,-0.08909 0.37798,0 0.0891,0.08909 -0.0891,0.288888 0,0.377976 0.0891,0.08909 0.26529,-0.05635 0.37798,0 0.15937,0.07968 0.2186,0.298291 0.37797,0.377976 0.11269,0.05635 0.28889,-0.08909 0.37798,0 0.0891,0.08909 -0.0891,0.288888 0,0.377979 0.0891,0.08909 0.26529,-0.05635 0.37797,0 0.31874,0.159366 0.43722,0.596582 0.75596,0.755951 0.22538,0.112691 0.57777,-0.178181 0.75595,0 0.0891,0.08909 -0.0891,0.288885 0,0.377976 0.17818,0.178178 0.53057,-0.112691 0.75595,0 0.15937,0.07968 0.21861,0.298291 0.37798,0.377976 0.11269,0.05634 0.26528,-0.05635 0.37798,0 0.15936,0.07968 0.2186,0.298291 0.37797,0.377976 0.22538,0.112691 0.53057,-0.112692 0.75595,0 0.15937,0.07968 0.21861,0.298291 0.37798,0.377975 0.11269,0.05635 0.26529,-0.05634 0.37797,0 0.15937,0.07968 0.21861,0.298294 0.37798,0.377979 0.22538,0.112688 0.53057,-0.112692 0.75595,0 0.15937,0.07968 0.21861,0.298291 0.37798,0.377976 0.11269,0.05634 0.26528,-0.05635 0.37798,0 0.15937,0.07968 0.2186,0.298291 0.37797,0.377975 0.11269,0.05635 0.26529,-0.05634 0.37798,0 0.15937,0.07969 0.21861,0.298292 0.37797,0.377976 0.1127,0.05635 0.26529,-0.05634 0.37798,0 0.31874,0.159369 0.43722,0.596583 0.75595,0.755952 0.1127,0.05635 0.26529,-0.05635 0.37798,0 0.31874,0.159369 0.43722,0.596585 0.75595,0.755954 0.11269,0.05634 0.26529,-0.05635 0.37798,0 0.15937,0.07968 0.21861,0.298291 0.37798,0.377976 0.22538,0.112689 0.57777,-0.178181 0.75595,0 0.0891,0.08909 -0.0891,0.288885 0,0.377976 0.0773,0.07727 0.98406,-0.07493 1.13392,0 0.15937,0.07968 0.21861,0.298291 0.37798,0.377976 0.30238,0.15119 0.83155,-0.151191 1.13393,0 0.15937,0.07968 0.21861,0.298291 0.37798,0.377975 0.22538,0.112692 0.53057,-0.112691 0.75595,0 0.15937,0.07968 0.21861,0.298292 0.37797,0.377976 0.22539,0.112691 0.53058,-0.112691 0.75596,0 0.15937,0.07968 0.2186,0.298291 0.37797,0.377976 0.22538,0.112691 0.57778,-0.178178 0.75596,0 0.0891,0.08909 -0.0891,0.288888 0,0.377978 0.17818,0.178179 0.53057,-0.112691 0.75595,0 0.15937,0.07968 0.21861,0.298292 0.37798,0.377976 0.11268,0.05635 0.26528,-0.05634 0.37797,0 0.31874,0.159369 0.43721,0.596583 0.75595,0.755952 0.22539,0.112691 0.57778,-0.178181 0.75595,0 0.0891,0.08909 -0.0891,0.288885 0,0.377976 0.0891,0.08909 0.26529,-0.05635 0.37798,0 0.15937,0.07968 0.21861,0.298291 0.37798,0.377975 0.11269,0.05635 0.26528,-0.05634 0.37797,0 0.15937,0.07968 0.21861,0.298292 0.37798,0.377976 0.11269,0.05635 0.26528,-0.05634 0.37798,0 0.15937,0.07968 0.2186,0.298294 0.37797,0.377979 0.11269,0.05634 0.26529,-0.05635 0.37798,0 0.31874,0.159366 0.43721,0.596582 0.75595,0.755951 0.11269,0.05635 0.26529,-0.05634 0.37798,0 0.15937,0.07969 0.2186,0.298292 0.37797,0.377976 0.22538,0.112691 0.53058,-0.112691 0.75596,0 0.15936,0.07968 0.2186,0.298291 0.37797,0.377976 0.11269,0.05635 0.26529,-0.05635 0.37798,0 0.15937,0.07968 0.21861,0.298291 0.37798,0.377976 0.30237,0.151191 0.83154,-0.151191 1.13392,0 0.15937,0.07968 0.21861,0.298291 0.37798,0.377976 0.22538,0.112691 0.53057,-0.112689 0.75595,0 0.15937,0.07968 0.21861,0.298293 0.37798,0.377978 0.22538,0.112689 0.57777,-0.178181 0.75595,0 0.0891,0.08909 -0.0891,0.288885 0,0.377976 0.17818,0.178178 0.53056,-0.112692 0.75596,0 0.15936,0.07968 0.2186,0.298291 0.37796,0.377976 0.14988,0.07493 1.05666,-0.07727 1.13395,0 0.0891,0.08909 -0.0891,0.288885 0,0.377975 0.17817,0.178179 0.53057,-0.112691 0.75594,0 0.15936,0.07969 0.2186,0.298292 0.37798,0.377976 0.30237,0.151191 0.83154,-0.151191 1.13393,0 0.15936,0.07968 0.2186,0.298291 0.37798,0.377976 0.23754,0.118785 1.27434,-0.118782 1.51188,0 0.15939,0.07968 0.21863,0.298291 0.37799,0.377976 0.23976,0.11988 1.64433,-0.122769 1.88989,0 0.15936,0.07968 0.2186,0.298294 0.37796,0.377978 0.10819,0.05409 1.68796,0 1.88989,0 0.88193,0 1.7639,0 2.64583,0 0.25199,0 0.51689,-0.07968 0.75594,0 0.16905,0.05634 0.20894,0.32163 0.37799,0.377976 0.17303,0.05767 1.67891,0 1.88989,0 1.00793,0 2.01586,0 3.02379,0 0.25199,0 0.50398,0 0.75597,0 0.12599,0 0.25844,-0.03984 0.37798,0 0.26726,0.08909 0.48866,0.288888 0.75594,0.377978 0.27022,0.0901 2.22139,0 2.64584,0 0.12599,0 0.26529,-0.0563 0.37798,0 0.15936,0.0797 0.20894,0.32163 0.37796,0.37797 0.35859,0.11953 0.75596,0 1.13395,0 0.62994,0 1.25992,0 1.88986,0 0.12878,0 1.30734,-0.0682 1.51191,0 0.26728,0.0891 0.48869,0.28889 0.75594,0.37798 0.40167,0.13388 1.11027,-0.13388 1.51191,0 0.26728,0.0891 0.48869,0.28889 0.75597,0.37798 0.40164,0.13388 1.11024,-0.13388 1.51191,0 0.16901,0.0563 0.2186,0.29829 0.37796,0.37797 0.2505,0.12525 1.19512,-0.10559 1.5119,0 0.26729,0.0891 0.48869,0.28889 0.75597,0.37798 0.40164,0.13388 1.11025,-0.13388 1.51188,0 0.16905,0.0563 0.20894,0.32163 0.37799,0.37798 0.34954,0.11651 2.01885,-0.12452 2.26785,0 0.15938,0.0797 0.20894,0.32163 0.37798,0.37797 0.2032,0.0677 1.1919,0 1.51191,0 1.25992,0 2.51984,0 3.77976,0 0.88193,0 1.76389,0 2.64583,0 0.12599,0 0.2889,0.0891 0.37798,0 0.0891,-0.0891 0.0891,-0.28889 0,-0.37797 -0.0891,-0.0891 -0.28889,0.0891 -0.37798,0 -0.0891,-0.0891 0,-0.25199 0,-0.37798"
       id="path3752"
       inkscape:connector-curvature="0" />
  </g>
</svg>
