<?xml version="1.0" encoding="UTF-8" standalone="no"?>
<!-- Created with Inkscape (http://www.inkscape.org/) -->

<svg
   xmlns:dc="http://purl.org/dc/elements/1.1/"
   xmlns:cc="http://creativecommons.org/ns#"
   xmlns:rdf="http://www.w3.org/1999/02/22-rdf-syntax-ns#"
   xmlns:svg="http://www.w3.org/2000/svg"
   xmlns="http://www.w3.org/2000/svg"
   xmlns:xlink="http://www.w3.org/1999/xlink"
   xmlns:sodipodi="http://sodipodi.sourceforge.net/DTD/sodipodi-0.dtd"
   xmlns:inkscape="http://www.inkscape.org/namespaces/inkscape"
   width="1224"
   height="720"
   viewBox="0 0 323.85001 190.5"
   version="1.1"
   id="svg2961"
   sodipodi:docname="primorka-chr-zsd.svg"
   inkscape:version="0.92.3 (2405546, 2018-03-11)">
  <defs
     id="defs2955" />
  <sodipodi:namedview
     id="base"
     pagecolor="#ffffff"
     bordercolor="#666666"
     borderopacity="1.0"
     inkscape:pageopacity="0.0"
     inkscape:pageshadow="2"
     inkscape:zoom="0.7"
     inkscape:cx="549.84229"
     inkscape:cy="383.48018"
     inkscape:document-units="mm"
     inkscape:current-layer="layer1"
     showgrid="false"
     inkscape:window-width="1366"
     inkscape:window-height="715"
     inkscape:window-x="0"
     inkscape:window-y="0"
     inkscape:window-maximized="1"
     fit-margin-top="0"
     fit-margin-left="0"
     fit-margin-right="0"
     fit-margin-bottom="0"
     units="px" />
  <metadata
     id="metadata2958">
    <rdf:RDF>
      <cc:Work
         rdf:about="">
        <dc:format>image/svg+xml</dc:format>
        <dc:type
           rdf:resource="http://purl.org/dc/dcmitype/StillImage" />
        <dc:title></dc:title>
      </cc:Work>
    </rdf:RDF>
  </metadata>
  <g
     inkscape:label="Layer 1"
     inkscape:groupmode="layer"
     id="layer1"
     transform="translate(0.09449404,-0.00520833)">
    <image
       sodipodi:absref="/home/aanper/project/luysy-imn-eh/pi/boot/bydefault/web/img/primorka.png"
       y="0.0052083312"
       x="-0.094494045"
       id="image3565"
       xlink:href="file:///home/aanper/project/luysy-imn-eh/pi/boot/bydefault/web/img/primorka.png"
       preserveAspectRatio="none"
       height="190.5"
       width="323.85001"
       style="fill:#00ff00;fill-opacity:1" />
    <circle
       style="fill:#00ff00;fill-opacity:1;stroke:#00ff00;stroke-width:0.30000001;stroke-miterlimit:4;stroke-dasharray:none;stroke-opacity:1;paint-order:stroke fill markers"
       id="path3587"
       cx="64.633926"
       cy="51.315475"
       r="1.4174107" />
    <circle
       style="fill:#00ff00;fill-opacity:1;stroke:#00ff00;stroke-width:0.30000001;stroke-miterlimit:4;stroke-dasharray:none;stroke-opacity:1;paint-order:stroke fill markers"
       id="path3589"
       cx="260.70908"
       cy="99.034966"
       r="1.5119048" />
    <circle
       style="fill:#00ff00;fill-opacity:1;stroke:#00ff00;stroke-width:0.30000001;stroke-miterlimit:4;stroke-dasharray:none;stroke-opacity:1;paint-order:stroke fill markers"
       id="path3591"
       cx="105.73884"
       cy="116.23288"
       r="1.3229166" />
    <ellipse
       style="fill:#00ff00;fill-opacity:1;stroke:#00ff00;stroke-width:0.30000001;stroke-miterlimit:4;stroke-dasharray:none;stroke-opacity:1;paint-order:stroke fill markers"
       id="path3593"
       cx="125.67709"
       cy="54.811752"
       rx="1.0394346"
       ry="1.1339285" />
    <ellipse
       style="fill:none;fill-opacity:1;stroke:#00ff00;stroke-width:0.30000001;stroke-miterlimit:4;stroke-dasharray:none;stroke-opacity:1;paint-order:stroke fill markers"
       id="path3595"
       cx="234.25075"
       cy="148.45535"
       rx="1.1339285"
       ry="0.8504464" />
    <path
       style="fill:none;fill-opacity:1;stroke:#00ff00;stroke-width:0.30000001;stroke-miterlimit:4;stroke-dasharray:none;stroke-opacity:1;paint-order:stroke fill markers"
       d="m 311.73585,99.790922 c -0.303,-1.593128 -1.31527,-0.09067 -1.88986,-0.377976 -0.15939,-0.07968 -0.21863,-0.298294 -0.37799,-0.377978 -0.22537,-0.112689 -0.53057,0.112691 -0.75594,0 -0.15938,-0.07969 -0.21862,-0.298291 -0.37798,-0.377976 -0.11269,-0.05635 -0.25199,0 -0.37799,0 -0.25199,0 -0.51689,0.07968 -0.75594,0 -0.16904,-0.05635 -0.21862,-0.298291 -0.37798,-0.377976 -0.11269,-0.05634 -0.25199,0 -0.37798,0 -0.37129,0 -2.01785,0.08333 -2.26785,0 -0.26729,-0.08909 -0.48869,-0.288885 -0.75595,-0.377976 -0.24489,-0.08163 -1.58043,0 -1.88989,0 -1.25992,0 -2.51984,0 -3.77976,0 -0.32755,0 -1.29296,0.07298 -1.5119,0 -0.26729,-0.08909 -0.48869,-0.288885 -0.75595,-0.377975 -0.11953,-0.03984 -0.25198,0 -0.37798,0 -0.30162,0 -1.66312,0.07559 -1.88989,0 -1.30297,-0.434322 -0.27998,-0.377976 -1.13393,-0.377976 -0.26098,0 -1.39697,0.05746 -1.5119,0 -0.15936,-0.07968 -0.20895,-0.321633 -0.37796,-0.377976 -0.21503,-0.07167 -1.5339,0 -1.88989,0 -0.126,0 -0.25845,0.03984 -0.37799,0 -0.26725,-0.08909 -0.48868,-0.288888 -0.75594,-0.377978 -0.21325,-0.07108 -0.88556,0 -1.13392,0 -0.88197,0 -1.7639,0 -2.64584,0 -0.62997,0 -1.25992,0 -1.88989,0 -0.12599,0 -0.25199,0 -0.37798,0 -0.12597,0 -0.26527,-0.05634 -0.37796,0 -0.15939,0.07968 -0.20894,0.321632 -0.37798,0.377978 -0.2032,0.06773 -1.1919,0 -1.51191,0 -0.62995,0 -1.25992,0 -1.88987,0 -0.25199,0 -0.51692,0.07968 -0.75597,0 -0.26725,-0.08909 -0.48868,-0.288888 -0.75594,-0.377978 -0.21325,-0.07108 -0.88556,0 -1.13392,0 -0.75597,0 -1.51191,0 -2.26788,0 -0.1702,0 -1.01888,0.05752 -1.13392,0 -0.15936,-0.07968 -0.2186,-0.298292 -0.37799,-0.377976 -0.22537,-0.112692 -0.53057,0.112691 -0.75594,0 -0.15936,-0.07969 -0.2186,-0.298292 -0.37798,-0.377976 -0.30237,-0.151191 -0.83153,0.151191 -1.13393,0 -0.15935,-0.07968 -0.21859,-0.298291 -0.37798,-0.377976 -0.2004,-0.100208 -1.63274,0.08571 -1.88987,0 -0.16904,-0.05635 -0.21859,-0.298291 -0.37798,-0.377976 -0.23844,-0.119226 -1.65142,0.119227 -1.88988,0 -0.15936,-0.07968 -0.2186,-0.298291 -0.37797,-0.377975 -0.23846,-0.119227 -1.65143,0.119226 -1.88988,0 -0.15937,-0.07968 -0.21861,-0.298294 -0.37798,-0.377976 -0.11269,-0.05635 -0.25198,0 -0.37797,0 -0.62997,0 -1.25993,0 -1.88989,0 -0.12599,0 -0.25198,0 -0.37797,0 -0.12599,0 -0.26529,0.05634 -0.37798,0 -0.15937,-0.07968 -0.21861,-0.298294 -0.37798,-0.377979 -0.22538,-0.112688 -0.53057,0.112692 -0.75595,0 -0.15937,-0.07968 -0.2186,-0.298291 -0.37797,-0.377976 -0.1127,-0.05634 -0.25199,0 -0.37798,0 -0.25198,0 -0.5169,0.07968 -0.75595,0 -0.16904,-0.05634 -0.21861,-0.298291 -0.37798,-0.377975 -0.22766,-0.113829 -1.93749,0.110125 -2.26785,0 -0.26728,-0.08909 -0.48869,-0.288886 -0.75596,-0.377976 -0.23905,-0.07968 -0.50397,0 -0.75595,0 -0.62996,0 -1.25992,0 -1.88988,0 -0.88195,0 -1.76389,0 -2.64584,0 -0.25198,0 -0.50396,0 -0.75595,0 -0.25198,0 -0.5169,-0.07968 -0.75595,0 -0.16904,0.05634 -0.20894,0.32163 -0.37797,0.377976 -0.23906,0.07968 -0.50397,0 -0.75596,0 -0.62996,0 -1.25992,0 -1.88988,0 -0.26791,0 -2.17013,0.04886 -2.26786,0 -0.15936,-0.07969 -0.2186,-0.298292 -0.37797,-0.377976 -0.22538,-0.112692 -0.53057,0.112691 -0.75596,0 -0.15936,-0.07968 -0.2186,-0.298291 -0.37797,-0.377976 -0.11269,-0.05635 -0.26529,0.05635 -0.37798,0 -0.15937,-0.07968 -0.2186,-0.298291 -0.37797,-0.377976 -0.11269,-0.05634 -0.28889,0.08909 -0.37798,0 -0.0891,-0.08909 0.0891,-0.288888 0,-0.377976 -0.0891,-0.08909 -0.26529,0.05634 -0.37797,0 -0.31874,-0.159369 -0.43722,-0.596585 -0.75596,-0.755954 -0.11269,-0.05635 -0.26528,0.05635 -0.37797,0 -0.45357,-0.226785 -0.68036,-0.907142 -1.13393,-1.133927 -0.11269,-0.05635 -0.28889,0.08909 -0.37798,0 -0.0891,-0.08909 0.0563,-0.265287 0,-0.377976 -0.22679,-0.453573 -0.90714,-0.680358 -1.13393,-1.13393 -0.0563,-0.112691 0.0564,-0.265285 0,-0.377976 -0.15937,-0.318738 -0.59658,-0.437213 -0.75595,-0.755952 -0.0564,-0.112691 0.0564,-0.265287 0,-0.377975 -0.0797,-0.15937 -0.29829,-0.21861 -0.37798,-0.377976 -0.0563,-0.112692 0.0564,-0.265287 0,-0.377979 -0.0797,-0.159366 -0.29829,-0.218606 -0.37797,-0.377975 -0.11879,-0.237567 0.11878,-1.274337 0,-1.511904 -0.0797,-0.159369 -0.29829,-0.218609 -0.37798,-0.377975 -0.0575,-0.115033 0,-0.963706 0,-1.133931 0,-0.881943 0,-1.763889 0,-2.645833 0,-0.262898 -0.0683,-1.753193 0,-1.889882 0.0797,-0.159366 0.32163,-0.208938 0.37798,-0.377975 0.0797,-0.239054 0,-0.503968 0,-0.755952 0,-0.503968 0,-1.007935 0,-1.511906 0,-0.251984 -0.0611,-0.51149 0,-0.755951 0.0683,-0.273315 0.30965,-0.482637 0.37797,-0.755952 0.12223,-0.488921 -0.12223,-1.022985 0,-1.511906 0.0683,-0.273315 0.30965,-0.482637 0.37798,-0.755952 0.12223,-0.48892 -0.15937,-1.033798 0,-1.511905 0.0564,-0.169035 0.32163,-0.208939 0.37798,-0.377976 0.0612,-0.183632 0,-2.259939 0,-2.645834 0,-0.251983 -0.0611,-0.511492 0,-0.755951 0.43432,-1.737286 0.37797,-0.08576 0.37797,-1.133928 0,-1.007938 0,-2.015873 0,-3.023811 0,-0.251984 0,-0.503968 0,-0.755952 0,-0.251984 -0.0797,-0.516898 0,-0.755952 0.0564,-0.169037 0.32163,-0.208941 0.37798,-0.377975 0.11953,-0.35858 0,-0.755955 0,-1.13393 0,-0.755952 0,-1.511904 0,-2.267858 0,-0.125992 0,-0.251984 0,-0.377976 0,-0.125992 -0.0563,-0.265284 0,-0.377976 0.0797,-0.159369 0.32163,-0.208938 0.37797,-0.377975 0.0677,-0.203203 0,-1.191893 0,-1.511906 0,-1.720654 -0.17817,-0.02162 0.37798,-1.133928 0.0841,-0.16819 -0.0576,-1.339024 0,-1.511906 0.0563,-0.169034 0.29829,-0.218606 0.37798,-0.377975 0.11988,-0.239755 -0.12277,-1.644338 0,-1.889879 0.0797,-0.15937 0.32163,-0.208942 0.37797,-0.377979 0.0576,-0.172881 -0.0841,-1.343713 0,-1.511903 0.0797,-0.159369 0.2983,-0.218607 0.37798,-0.377976 0.11878,-0.237567 -0.11878,-1.274339 0,-1.511906 0.0797,-0.159369 0.29829,-0.218606 0.37798,-0.377976 0.15119,-0.302381 -0.1512,-0.831548 0,-1.133927 0.0797,-0.159369 0.29829,-0.218609 0.37797,-0.377978 0.11269,-0.22538 -0.17818,-0.577771 0,-0.755952 0.0891,-0.08909 0.28889,0.08909 0.37798,0 0.17818,-0.178178 -0.11269,-0.530572 0,-0.755952 0.0797,-0.159369 0.29829,-0.218606 0.37798,-0.377975 0.0563,-0.112692 -0.0891,-0.288888 0,-0.377976 0.0891,-0.08909 0.28888,0.08909 0.37797,0 0.17818,-0.178181 -0.17818,-0.577774 0,-0.755955 0.0891,-0.08909 0.28889,0.08909 0.37798,0 0.17818,-0.178178 -0.17818,-0.577773 0,-0.755951 0.0891,-0.08909 0.28888,0.08909 0.37797,0 0.0891,-0.08909 -0.0891,-0.288885 0,-0.377976 0.0891,-0.08909 0.28889,0.08909 0.37798,0 0.0891,-0.08909 -0.0891,-0.288888 0,-0.377976 0.0891,-0.08909 0.28889,0.08909 0.37797,0 0.0891,-0.08909 -0.0891,-0.288888 0,-0.377976 0.0891,-0.08909 0.25199,0 0.37798,0 0.12599,0 0.28889,-0.08909 0.37798,0 0.17818,0.178179 -0.11269,0.530569 0,0.755952 0.0797,0.159369 0.29829,0.218607 0.37797,0.377976 0.1512,0.302382 -0.15119,0.831548 0,1.133927 0.0797,0.159369 0.2983,0.21861 0.37798,0.377979 0.0575,0.11503 0,0.963702 0,1.133927 0,0.755952 0,1.511906 0,2.267858 0,0.197651 0.0497,1.412517 0,1.511903 -0.0797,0.159369 -0.29829,0.218609 -0.37798,0.377978 -0.15119,0.302379 0.1512,0.831546 0,1.133928 -0.0797,0.159369 -0.29829,0.218606 -0.37797,0.377976 -0.11269,0.225382 0.0797,0.5169 0,0.755951 -0.0891,0.267272 -0.28889,0.488683 -0.37798,0.755954 -0.0797,0.239051 0.11269,0.530569 0,0.755952 -0.0797,0.159369 -0.29829,0.218607 -0.37798,0.377976 -0.11878,0.237567 0.11879,1.274339 0,1.511906 -0.0797,0.159369 -0.29829,0.218606 -0.37797,0.377976 -0.0841,0.16819 0.0576,1.339021 0,1.511903 -0.0564,0.169037 -0.29829,0.218609 -0.37798,0.377978 -0.0563,0.112689 0.0399,0.258448 0,0.377976 -0.0891,0.267269 -0.28888,0.488683 -0.37797,0.755952 -0.0797,0.239053 0.0797,0.516898 0,0.755951 -0.0891,0.267272 -0.28889,0.488683 -0.37798,0.755955 -0.11953,0.358579 0.11953,0.775348 0,1.133927 -0.0563,0.169037 -0.29829,0.218607 -0.37797,0.377976 -0.1127,0.225382 0.11268,0.530571 0,0.755951 -0.0797,0.159369 -0.2983,0.21861 -0.37798,0.377979 -0.0563,0.112688 0,0.251984 0,0.377976 0,0.251983 0.0797,0.516898 0,0.755951 -0.0563,0.169037 -0.29829,0.218607 -0.37798,0.377976 -0.11269,0.225383 0.0797,0.516901 0,0.755952 -0.0891,0.267271 -0.28888,0.488682 -0.37797,0.755954 -0.0399,0.119525 0.0563,0.265284 0,0.377976 -0.0797,0.159369 -0.32163,0.208939 -0.37798,0.377976 -0.0857,0.257137 0.10021,1.689462 0,1.889881 -0.0797,0.159369 -0.29829,0.218607 -0.37798,0.377976 -0.0602,0.120452 0,1.552075 0,1.889882 0,0.755951 0,1.511903 0,2.267855 0,0.251983 0,0.50397 0,0.755954 0,0.125992 0.0564,0.265284 0,0.377976 -0.0797,0.159369 -0.32163,0.208938 -0.37797,0.377975 -0.11651,0.349539 0.12451,2.018835 0,2.267858 -0.0797,0.159369 -0.32163,0.208939 -0.37798,0.377976 -0.11953,0.358579 0.11953,0.775348 0,1.133927 -0.0891,0.267272 -0.28889,0.488683 -0.37798,0.755954 -0.0797,0.239051 0.0797,0.516898 0,0.755952 -0.0891,0.267269 -0.28888,0.488683 -0.37797,0.755952 -0.0797,0.239053 0.0797,0.5169 0,0.755954 -0.0891,0.267269 -0.28889,0.488683 -0.37798,0.755952 -0.0398,0.119525 0.0399,0.25845 0,0.377975 -0.0891,0.267269 -0.28888,0.488683 -0.37797,0.755952 -0.11953,0.358579 0.11952,0.775351 0,1.13393 -0.0564,0.169034 -0.32163,0.208939 -0.37798,0.377976 -0.0797,0.239054 0.0797,0.516898 0,0.755951 -0.0564,0.169037 -0.29829,0.218607 -0.37798,0.377976 -0.0563,0.112692 0.0399,0.258451 0,0.377976 -0.0891,0.267272 -0.28888,0.488683 -0.37797,0.755954 -0.0398,0.119526 0.0563,0.265285 0,0.377976 -0.0797,0.159369 -0.29829,0.218607 -0.37798,0.377976 -0.11269,0.225383 0.11269,0.530572 0,0.755952 -0.0797,0.159369 -0.32163,0.208941 -0.37798,0.377975 -0.0797,0.239054 0.0797,0.516901 0,0.755955 -0.0563,0.169034 -0.29829,0.218606 -0.37797,0.377975 -0.0564,0.112692 0.0563,0.265285 0,0.377976 -0.0797,0.159369 -0.32163,0.208939 -0.37798,0.377976 -0.0797,0.239054 0.0797,0.516901 0,0.755952 -0.0563,0.169037 -0.32163,0.208941 -0.37797,0.377978 -0.0797,0.239051 0,0.503968 0,0.755952 0,0.125992 0.0563,0.265284 0,0.377976 -0.0797,0.159369 -0.32163,0.208938 -0.37798,0.377975 -0.11953,0.35858 0.11953,0.775349 0,1.13393 -0.0891,0.267269 -0.28889,0.488683 -0.37797,0.755952 -0.0797,0.239054 0.0797,0.516898 0,0.755952 -0.0891,0.267268 -0.28889,0.488682 -0.37798,0.755951 -0.0797,0.239054 0.11269,0.530572 0,0.755955 -0.0797,0.159369 -0.29829,0.218606 -0.37798,0.377975 -0.11269,0.22538 0.0797,0.516898 0,0.755952 -0.0891,0.267269 -0.28888,0.488683 -0.37797,0.755952 -0.10608,0.31823 0.11251,1.664848 0,1.889881 -0.0797,0.159369 -0.32163,0.208942 -0.37798,0.377976 -0.11953,0.358579 0,0.755954 0,1.13393 0,1.216688 0.0891,-0.645247 -0.37798,0.755948 -0.0576,0.17289 0.0841,1.34372 0,1.51191 -0.0797,0.15937 -0.25198,0.25198 -0.37797,0.37798 0,0.25198 0.0797,0.51689 0,0.75595 -0.0563,0.16903 -0.32163,0.20894 -0.37798,0.37797 -0.0797,0.23906 0.0797,0.5169 0,0.75595 -0.0563,0.16904 -0.29829,0.21861 -0.37798,0.37798 -0.0563,0.11269 0,0.25199 0,0.37798 0,0.25198 0.0797,0.5169 0,0.75595 -0.11268,0.33807 -0.64326,0.41788 -0.75595,0.75595 -0.0797,0.23906 0.0797,0.5169 0,0.75596 -0.0563,0.16903 -0.29829,0.2186 -0.37797,0.37797 -0.0564,0.11269 0,0.25199 0,0.37798 -0.126,0.25198 -0.22171,0.52154 -0.37798,0.75595 -0.0988,0.14825 -0.27914,0.22972 -0.37798,0.37798 -0.15627,0.23441 -0.2217,0.52154 -0.37797,0.75595 -0.0988,0.14825 -0.27914,0.22972 -0.37798,0.37798 -0.31255,0.46882 -0.4434,1.04308 -0.75595,1.5119 -0.0988,0.14825 -0.27914,0.22972 -0.37798,0.37797 -0.15627,0.23442 -0.17876,0.55675 -0.37797,0.75596 -0.19921,0.19921 -0.52154,0.2217 -0.75595,0.37797 -0.86836,0.5789 0.16207,0.2159 -0.75596,1.13393 -0.19921,0.19921 -0.52154,0.2217 -0.75595,0.37798 -0.14825,0.0988 -0.22972,0.27914 -0.37798,0.37798 -0.23441,0.15627 -0.55674,0.17876 -0.75595,0.37797 -0.19921,0.19921 -0.17876,0.55674 -0.37798,0.75595 -0.19921,0.19921 -0.52154,0.22171 -0.75595,0.37798 -0.14825,0.0988 -0.22972,0.27914 -0.37797,0.37798 -0.23441,0.15627 -0.52154,0.2217 -0.75596,0.37797 -0.29651,0.19767 -0.45944,0.55828 -0.75595,0.75596 -0.23441,0.15627 -0.52154,0.2217 -0.75595,0.37797 -0.43613,0.29075 -0.6978,0.84318 -1.13393,1.13393 -0.23441,0.15627 -0.52154,0.2217 -0.75595,0.37797 -0.51998,0.34666 -0.38874,0.58312 -0.75595,1.13393 -0.19768,0.29651 -0.55828,0.45945 -0.75596,0.75596 -0.15627,0.23441 -0.2217,0.52154 -0.37797,0.75595 -0.29075,0.43613 -0.84318,0.6978 -1.13393,1.13393 -0.15628,0.23441 -0.17876,0.55674 -0.37798,0.75595 -0.19921,0.19921 -0.52154,0.2217 -0.75595,0.37798 -0.32616,0.21743 -0.8387,0.83869 -1.13393,1.13393 -0.37798,0.37797 -0.75595,0.75595 -1.13393,1.13392 -0.12599,0.12599 -0.22972,0.27914 -0.37797,0.37798 -0.23441,0.15627 -0.52154,0.2217 -0.75595,0.37797 -0.29651,0.19768 -0.45945,0.55829 -0.75596,0.75596 -0.23441,0.15627 -0.52154,0.2217 -0.75595,0.37797 -0.14825,0.0988 -0.22972,0.27914 -0.37798,0.37798 -0.23441,0.15627 -0.52154,0.2217 -0.75595,0.37798 -0.14825,0.0988 -0.22972,0.27914 -0.37798,0.37797 -0.23441,0.15628 -0.52154,0.2217 -0.75595,0.37798 -0.14825,0.0988 -0.22972,0.27914 -0.37797,0.37798 -1.90947,1.27297 -0.009,0.003 -1.13393,0.37797 -0.26727,0.0891 -0.50397,0.25199 -0.75595,0.37798 -2.74055,1.37027 0.59763,-0.39843 -1.13393,0.75595 -0.23441,0.15627 -0.50397,0.25198 -0.75595,0.37797 -0.50397,0.25199 -1.00794,0.50397 -1.51191,0.75596 -0.25198,0.12599 -0.49438,0.27334 -0.75595,0.37798 -0.36993,0.14796 -0.79229,0.17298 -1.13393,0.37797 -0.30558,0.18335 -0.47086,0.54214 -0.75595,0.75595 -0.22539,0.16904 -0.50397,0.25199 -0.75595,0.37798 -0.75596,0.37797 -1.51191,0.75595 -2.26786,1.13393 -0.25199,0.12599 -0.53057,0.20894 -0.75595,0.37797 -0.42764,0.32073 -0.68917,0.83742 -1.13393,1.13393 -0.23441,0.15628 -0.50397,0.25199 -0.75596,0.37798 -0.25198,0.25198 -0.47086,0.54214 -0.75595,0.75595 -0.45076,0.33807 -1.06114,0.41788 -1.5119,0.75595 -0.28509,0.21382 -0.47087,0.54214 -0.75595,0.75595 -0.45077,0.33808 -1.06115,0.41789 -1.51191,0.75596 -0.28509,0.21381 -0.47087,0.54214 -0.75595,0.75595 -0.45076,0.33807 -1.06115,0.41788 -1.51191,0.75595 -0.28508,0.21382 -0.47086,0.54214 -0.75595,0.75595 -0.22538,0.16904 -0.55674,0.17877 -0.75595,0.37798 -0.19921,0.19921 -0.17877,0.55674 -0.37798,0.75595 -0.19921,0.19921 -0.53057,0.20894 -0.75595,0.37798 -0.42763,0.32072 -0.75595,0.75595 -1.13393,1.13393 -0.25198,0.25198 -0.50397,0.50397 -0.75595,0.75595 -0.12599,0.12599 -0.27914,0.22972 -0.37798,0.37798 -0.15627,0.23441 -0.2217,0.52154 -0.37797,0.75595 -0.34666,0.51998 -0.58311,0.38874 -1.13393,0.75595 -0.51999,0.34666 -0.38874,0.58311 -0.75595,1.13393 -0.21744,0.32616 -0.8387,0.8387 -1.13393,1.13393 -0.24207,0.24207 -1.2761,1.15819 -1.51191,1.5119 -0.15627,0.23441 -0.2217,0.52155 -0.37798,0.75596 -0.19767,0.2965 -0.55827,0.45944 -0.75595,0.75595 -0.15627,0.23441 -0.2217,0.52154 -0.37797,0.75595 -0.0988,0.14826 -0.27914,0.22972 -0.37798,0.37798 -0.15627,0.23441 -0.2217,0.52154 -0.37797,0.75595 -0.0988,0.14825 -0.27915,0.22972 -0.37798,0.37797 -0.15628,0.23442 -0.2217,0.52155 -0.37798,0.75596 -0.0988,0.14825 -0.32163,0.20894 -0.37797,0.37797 -0.0797,0.23906 0.0797,0.5169 0,0.75596 -0.11269,0.33807 -0.55828,0.45944 -0.75596,0.75595 -0.83274,0.19034 -0.19979,0.77757 -0.37797,1.13393 -0.15937,0.31873 -0.64326,0.41788 -0.75595,0.75595 -0.0797,0.23905 0.0797,0.5169 0,0.75595 -0.0564,0.16904 -0.2983,0.21861 -0.37798,0.37798 -0.0563,0.11269 0.0398,0.25845 0,0.37798 -0.91261,2.73783 0.10897,-0.59593 -0.75595,1.13392 -0.0564,0.11269 0.0398,0.25845 0,0.37798 -0.0891,0.26727 -0.28889,0.48868 -0.37798,0.75595 -0.0398,0.11953 0.0398,0.25845 0,0.37798 -0.0891,0.26727 -0.28888,0.48868 -0.37798,0.75595 -0.0398,0.11953 0.0564,0.26528 0,0.37798 -0.0797,0.15937 -0.32163,0.20894 -0.37797,0.37797 -0.0797,0.23906 0.0797,0.5169 0,0.75595 -0.0563,0.16904 -0.29829,0.21861 -0.37798,0.37798 -0.11269,0.22538 0.11269,0.53057 0,0.75595 -0.0797,0.15937 -0.29829,0.21861 -0.37798,0.37798 -0.0497,0.0994 0,1.31425 0,1.51191 0,0.12599 0.0564,0.26528 0,0.37797 -0.0797,0.15937 -0.29829,0.21861 -0.37797,0.37798 -0.0563,0.11269 0,0.25198 0,0.37797 0,0.12599 -0.0563,0.26529 0,0.37798 0.0797,0.15937 0.29829,0.21861 0.37797,0.37797 0.11923,0.23846 -0.11922,1.65143 0,1.88989 0.0797,0.15937 0.2983,0.2186 0.37798,0.37797 0.0683,0.13669 0,1.62699 0,1.88988 0,1.51191 0,3.02381 0,4.53572 0,1.13393 0,2.26785 0,3.40178 0,0.126 0.0891,0.28889 0,0.37798 -0.0891,0.0891 -0.28888,0.0891 -0.37798,0 -0.0891,-0.0891 0,-0.25198 0,-0.37798"
       id="path3773"
       inkscape:connector-curvature="0" />
  </g>
</svg>
