<?xml version="1.0" encoding="UTF-8" standalone="no"?>
<!-- Created with Inkscape (http://www.inkscape.org/) -->

<svg
   xmlns:dc="http://purl.org/dc/elements/1.1/"
   xmlns:cc="http://creativecommons.org/ns#"
   xmlns:rdf="http://www.w3.org/1999/02/22-rdf-syntax-ns#"
   xmlns:svg="http://www.w3.org/2000/svg"
   xmlns="http://www.w3.org/2000/svg"
   xmlns:xlink="http://www.w3.org/1999/xlink"
   xmlns:sodipodi="http://sodipodi.sourceforge.net/DTD/sodipodi-0.dtd"
   xmlns:inkscape="http://www.inkscape.org/namespaces/inkscape"
   width="1730.6667"
   height="1184"
   viewBox="0 0 457.90558 313.26666"
   version="1.1"
   id="svg1944"
   sodipodi:docname="strelka-vo-birzha.svg"
   inkscape:version="0.92.3 (2405546, 2018-03-11)">
  <defs
     id="defs1938" />
  <sodipodi:namedview
     id="base"
     pagecolor="#ffffff"
     bordercolor="#666666"
     borderopacity="1.0"
     inkscape:pageopacity="0.0"
     inkscape:pageshadow="2"
     inkscape:zoom="0.7"
     inkscape:cx="853.78847"
     inkscape:cy="359.98675"
     inkscape:document-units="mm"
     inkscape:current-layer="layer1"
     showgrid="false"
     inkscape:window-width="1366"
     inkscape:window-height="715"
     inkscape:window-x="0"
     inkscape:window-y="0"
     inkscape:window-maximized="1"
     fit-margin-top="0"
     fit-margin-left="0"
     fit-margin-right="0"
     fit-margin-bottom="0"
     units="px" />
  <metadata
     id="metadata1941">
    <rdf:RDF>
      <cc:Work
         rdf:about="">
        <dc:format>image/svg+xml</dc:format>
        <dc:type
           rdf:resource="http://purl.org/dc/dcmitype/StillImage" />
        <dc:title></dc:title>
      </cc:Work>
    </rdf:RDF>
  </metadata>
  <g
     inkscape:label="Layer 1"
     inkscape:groupmode="layer"
     id="layer1"
     transform="translate(-5.5613631e-4,0.00661361)">
    <image
       sodipodi:absref="/home/aanper/project/luysy-imn-eh/pi/boot/bydefault/web/img/strelka.png"
       y="-0.006613608"
       x="0.00055613631"
       id="image2667"
       xlink:href="file:///home/aanper/project/luysy-imn-eh/pi/boot/bydefault/web/img/strelka.png"
       preserveAspectRatio="none"
       height="313.26666"
       width="457.90558"
       style="fill:none" />
    <ellipse
       style="fill:#00ff00;fill-opacity:1;stroke:#00ff00;stroke-width:0.30000001;stroke-miterlimit:4;stroke-dasharray:none;stroke-opacity:1;paint-order:stroke fill markers"
       id="path2670"
       cx="169.90086"
       cy="79.670769"
       rx="3.2127976"
       ry="3.0238097" />
    <circle
       style="fill:#00ff00;fill-opacity:1;stroke:#00ff00;stroke-width:0.30000001;stroke-miterlimit:4;stroke-dasharray:none;stroke-opacity:1;paint-order:stroke fill markers"
       id="path2672"
       cx="420.87701"
       cy="29.210947"
       r="2.4568453" />
    <ellipse
       style="fill:#00ff00;fill-opacity:1;stroke:#00ff00;stroke-width:0.30000001;stroke-miterlimit:4;stroke-dasharray:none;stroke-opacity:1;paint-order:stroke fill markers"
       id="path2674"
       cx="381.7565"
       cy="308.15735"
       rx="3.4017856"
       ry="2.8348215" />
    <circle
       style="fill:#00ff00;fill-opacity:1;stroke:#00ff00;stroke-width:0.30000001;stroke-miterlimit:4;stroke-dasharray:none;stroke-opacity:1;paint-order:stroke fill markers"
       id="path2676"
       cx="79.753525"
       cy="248.62613"
       r="2.2678571" />
    <ellipse
       style="fill:#00ff00;fill-opacity:1;stroke:#00ff00;stroke-width:0.30000001;stroke-miterlimit:4;stroke-dasharray:none;stroke-opacity:1;paint-order:stroke fill markers"
       id="path2678"
       cx="216.7699"
       cy="220.65588"
       rx="1.7008928"
       ry="1.5119048" />
    <circle
       style="fill:#00ff00;fill-opacity:1;stroke:#00ff00;stroke-width:0.30000001;stroke-miterlimit:4;stroke-dasharray:none;stroke-opacity:1;paint-order:stroke fill markers"
       id="path2680"
       cx="316.93359"
       cy="230.67224"
       r="1.7008928" />
    <path
       style="fill:none;fill-opacity:1;stroke:#00ff00;stroke-width:0.30000001;stroke-miterlimit:4;stroke-dasharray:none;stroke-opacity:1;paint-order:stroke fill markers"
       d="m 78.997579,249.38207 c 0,-0.50396 -0.122229,-1.02298 0,-1.5119 0.03056,-0.12223 0.288886,0.0891 0.377976,0 0,-1.00794 -0.125992,0.12599 0.377976,-0.37798 0.08909,-0.0891 -0.05635,-0.26528 0,-0.37797 0.226785,-0.45358 0.907142,-0.68036 1.13393,-1.13393 0.05634,-0.11269 -0.08909,-0.28889 0,-0.37798 0.08909,-0.0891 0.265284,0.0564 0.377976,0 1.573046,-0.78652 -0.404072,0.0261 0.377976,-0.75595 0.08909,-0.0891 0.288885,0.0891 0.377975,0 0.08909,-0.0891 -0.08909,-0.28889 0,-0.37798 0.08909,-0.0891 0.288886,0.0891 0.377976,0 0.08909,-0.0891 -0.08909,-0.28888 0,-0.37797 0.08909,-0.0891 0.288888,0.0891 0.377976,0 0.08909,-0.0891 -0.08909,-0.28889 0,-0.37798 0.08909,-0.0891 0.288888,0.0891 0.377976,0 0.08909,-0.0891 -0.08909,-0.28889 0,-0.37797 0.08909,-0.0891 0.265287,0.0563 0.377978,0 0.159367,-0.0797 0.218607,-0.2983 0.377976,-0.37798 0.112691,-0.0564 0.288885,0.0891 0.377976,0 0.08909,-0.0891 -0.08909,-0.28889 0,-0.37798 0.178178,-0.17818 0.577773,0.17818 0.755952,0 0.08909,-0.0891 -0.08909,-0.28888 0,-0.37797 0.782047,-0.78205 -0.03057,1.19507 0.755951,-0.37798 0.05635,-0.11269 -0.08909,-0.28889 0,-0.37798 0.08909,-0.0891 0.265287,0.0564 0.377979,0 0.318735,-0.15936 0.437213,-0.59658 0.755951,-0.75595 0.112692,-0.0563 0.288886,0.0891 0.377976,0 0.08909,-0.0891 -0.08909,-0.28889 0,-0.37798 0.08909,-0.0891 0.288885,0.0891 0.377976,0 0.08909,-0.0891 -0.08909,-0.28888 0,-0.37797 0.08909,-0.0891 0.265287,0.0563 0.377976,0 0.453572,-0.22679 0.680357,-0.90714 1.13393,-1.13393 0.112691,-0.0563 0.288885,0.0891 0.377976,0 0.08909,-0.0891 -0.08909,-0.28889 0,-0.37797 0.08909,-0.0891 0.288885,0.0891 0.377975,0 0.08909,-0.0891 -0.08909,-0.28889 0,-0.37798 0.178181,-0.17818 0.577774,0.17818 0.755952,0 0.08909,-0.0891 -0.08909,-0.28889 0,-0.37798 0.08909,-0.0891 0.265287,0.0564 0.377976,0 0.159369,-0.0797 0.218609,-0.29829 0.377978,-0.37797 0.22538,-0.1127 0.577771,0.17818 0.755952,0 0.08909,-0.0891 -0.08909,-0.28889 0,-0.37798 0.103423,-0.10342 1.306856,0.10252 1.511903,0 0.159369,-0.0797 0.218609,-0.29829 0.377979,-0.37798 0.229515,-0.11475 2.038339,0.11476 2.267854,0 0.159369,-0.0797 0.21861,-0.29829 0.377979,-0.37797 0.22538,-0.11269 0.530569,0.11269 0.755951,0 0.15937,-0.0797 0.218607,-0.29829 0.377976,-0.37798 0.225383,-0.11269 0.577773,0.17818 0.755952,0 0.08909,-0.0891 -0.08909,-0.28889 0,-0.37797 0.178181,-0.17819 0.530571,0.11268 0.755954,0 0.159367,-0.0797 0.218607,-0.2983 0.377976,-0.37798 0.112691,-0.0564 0.26528,0.0563 0.37798,0 0.15936,-0.0797 0.2186,-0.29829 0.37797,-0.37798 0.11269,-0.0563 0.25199,0 0.37798,0 0.12599,-0.12599 0.2186,-0.29829 0.37797,-0.37797 0.11269,-0.0563 0.28889,0.0891 0.37798,0 0.0891,-0.0891 -0.0891,-0.28889 0,-0.37798 0.0891,-0.0891 0.28889,0.0891 0.37798,0 0.0891,-0.0891 -0.0891,-0.28889 0,-0.37798 0.17818,-0.17818 0.57777,0.17818 0.75595,0 0.0891,-0.0891 -0.0891,-0.28888 0,-0.37797 0.17818,-0.17818 0.57777,0.17818 0.75595,0 0.0891,-0.0891 -0.0891,-0.28889 0,-0.37798 0.0891,-0.0891 0.26529,0.0564 0.37798,0 0.15937,-0.0797 0.21861,-0.29829 0.37797,-0.37798 0.11269,-0.0563 0.28889,0.0891 0.37798,0 0.0891,-0.0891 -0.0891,-0.28888 0,-0.37797 0.0891,-0.0891 0.28889,0.0891 0.37798,0 0.0891,-0.0891 -0.0891,-0.28889 0,-0.37798 0.17817,-0.17818 0.57777,0.17818 0.75595,0 0.0891,-0.0891 -0.0891,-0.28888 0,-0.37797 0.0891,-0.0891 0.26528,0.0563 0.37797,0 1.25359,-1.25359 -0.35636,0.17818 0.75596,-0.37798 0.15936,-0.0797 0.2186,-0.29829 0.37797,-0.37797 0.11269,-0.0564 0.28889,0.0891 0.37798,0 0.0891,-0.0891 -0.0891,-0.28889 0,-0.37798 0.0891,-0.0891 0.26528,0.0563 0.37798,0 0.15936,-0.0797 0.2186,-0.29829 0.37797,-0.37798 0.11269,-0.0563 0.28889,0.0891 0.37798,0 0.0891,-0.0891 -0.0891,-0.28888 0,-0.37797 0.0891,-0.0891 0.28889,0.0891 0.37797,0 0.0891,-0.0891 -0.0891,-0.28889 0,-0.37798 0.0891,-0.0891 0.26529,0.0563 0.37798,0 0.37194,-0.18597 1.13996,-1.32594 1.5119,-1.5119 0.1127,-0.0564 0.28889,0.0891 0.37798,0 0.0891,-0.0891 -0.0891,-0.28889 0,-0.37798 0.0891,-0.0891 0.28889,0.0891 0.37798,0 0.0891,-0.0891 -0.0891,-0.28889 0,-0.37798 0.0891,-0.0891 0.26528,0.0564 0.37797,0 0.15937,-0.0797 0.21861,-0.29829 0.37798,-0.37797 0.11269,-0.0563 0.28889,0.0891 0.37798,0 0.0891,-0.0891 -0.0891,-0.28889 0,-0.37798 0.0891,-0.0891 0.26528,0.0563 0.37797,0 1.25359,-1.25359 -0.35636,0.17818 0.75595,-0.37798 0.31874,-0.15936 0.43722,-0.59658 0.75596,-0.75595 0.11269,-0.0563 0.28888,0.0891 0.37797,0 0.0891,-0.0891 -0.0891,-0.28889 0,-0.37798 0.17818,-0.17817 0.57777,0.17819 0.75596,0 0.0891,-0.0891 -0.0891,-0.28888 0,-0.37797 0.0891,-0.0891 0.26528,0.0563 0.37797,0 0.15937,-0.0797 0.21861,-0.29829 0.37798,-0.37798 0.11269,-0.0563 0.26528,0.0564 0.37797,0 1.25359,-1.25359 -0.35636,0.17818 0.75596,-0.37797 0.15936,-0.0797 0.2186,-0.29829 0.37797,-0.37798 0.11269,-0.0563 0.28889,0.0891 0.37798,0 0.0891,-0.0891 -0.0891,-0.28889 0,-0.37797 0.0891,-0.0891 0.26528,0.0563 0.37797,0 0.15937,-0.0797 0.21861,-0.2983 0.37798,-0.37798 0.11269,-0.0564 0.26529,0.0563 0.37798,0 0.15937,-0.0797 0.21861,-0.29829 0.37797,-0.37798 0.11269,-0.0563 0.28889,0.0891 0.37798,0 0.0891,-0.0891 -0.0891,-0.28888 0,-0.37797 0.0891,-0.0891 0.26528,0.0563 0.37798,0 0.31873,-0.15937 0.43721,-0.59659 0.75595,-0.75596 0.11269,-0.0563 0.28888,0.0891 0.37797,0 0.0891,-0.0891 -0.0891,-0.28888 0,-0.37797 0.0891,-0.0891 0.26529,0.0563 0.37798,0 0.39843,-0.19922 0.35752,-0.55674 0.75595,-0.75595 0.11269,-0.0564 0.28889,0.0891 0.37798,0 0.0891,-0.0891 -0.0891,-0.28889 0,-0.37798 0.0891,-0.0891 0.26528,0.0563 0.37798,0 0.31873,-0.15937 0.43721,-0.59658 0.75595,-0.75595 0.11269,-0.0563 0.28888,0.0891 0.37797,0 0.0891,-0.0891 -0.0891,-0.28889 0,-0.37798 0.0891,-0.0891 0.26529,0.0563 0.37798,0 0.31874,-0.15937 0.43721,-0.59658 0.75595,-0.75595 0.11269,-0.0563 0.26529,0.0563 0.37798,0 0.45357,-0.22679 0.68036,-0.90714 1.13393,-1.13393 0.11269,-0.0564 0.28888,0.0891 0.37797,0 0.0891,-0.0891 -0.0891,-0.28889 0,-0.37798 0.0891,-0.0891 0.26529,0.0564 0.37798,0 0.15937,-0.0797 0.21861,-0.29829 0.37798,-0.37797 0.11269,-0.0563 0.28888,0.0891 0.37797,0 0.0891,-0.0891 -0.0891,-0.28889 0,-0.37798 0.17818,-0.17818 0.57778,0.17818 0.75595,0 0.0891,-0.0891 -0.0891,-0.28889 0,-0.37797 0.17818,-0.17819 0.57778,0.17817 0.75596,0 0.0891,-0.0891 -0.0891,-0.28889 0,-0.37798 0.0891,-0.0891 0.26528,0.0563 0.37797,0 0.15937,-0.0797 0.21861,-0.29829 0.37798,-0.37798 0.11269,-0.0563 0.26528,0.0564 0.37798,0 0.31873,-0.15937 0.43721,-0.59658 0.75595,-0.75595 0.22538,-0.11269 0.57777,0.17818 0.75595,0 0.0891,-0.0891 -0.0891,-0.28889 0,-0.37798 0.17818,-0.17818 0.57777,0.17818 0.75595,0 0.0891,-0.0891 -0.0891,-0.28888 0,-0.37797 0.17818,-0.17818 0.53057,0.11269 0.75595,0 0.15937,-0.0797 0.21861,-0.29829 0.37798,-0.37798 0.20505,-0.10252 1.40848,0.10343 1.51191,0 0.0891,-0.0891 -0.0891,-0.28889 0,-0.37797 0.17817,-0.17818 0.53057,0.11268 0.75595,0 0.15937,-0.0797 0.2186,-0.2983 0.37797,-0.37798 0.11269,-0.0564 0.28889,0.0891 0.37798,0 0,-1.00794 -0.12599,0.12599 0.37798,-0.37798 0.18898,-0.18898 -0.18899,-0.94494 0,-1.13393 0.0891,-0.0891 0.28888,0.0891 0.37797,0 0.0891,-0.0891 -0.0891,-0.28888 0,-0.37797 0.0891,-0.0891 0.37798,-0.12599 0.37798,0 0,0.12599 -0.37798,0.12599 -0.37798,0 0,-0.17818 0.21861,-0.2983 0.37798,-0.37798 0.22538,-0.11269 0.57777,0.17818 0.75595,0 0.0891,-0.0891 -0.0891,-0.28888 0,-0.37798 0.0891,-0.0891 0.26529,0.0563 0.37798,0 0.15937,-0.0797 0.2186,-0.29829 0.37797,-0.37797 0.11269,-0.0564 0.28889,0.0891 0.37798,0 0.0891,-0.0891 -0.0891,-0.28889 0,-0.37798 0.0891,-0.0891 0.28889,0.0891 0.37798,0 0.0891,-0.0891 -0.0891,-0.28888 0,-0.37797 0.17818,-0.17818 0.57777,0.17818 0.75595,0 0.0891,-0.0891 -0.0891,-0.28889 0,-0.37798 0.17818,-0.17818 0.57777,0.17818 0.75595,0 0.0891,-0.0891 -0.0891,-0.28889 0,-0.37797 0.17818,-0.17819 0.57777,0.17817 0.75595,0 0.0891,-0.0891 -0.0891,-0.28889 0,-0.37798 0.17818,-0.17818 0.57778,0.17818 0.75596,0 0.0891,-0.0891 -0.0891,-0.28889 0,-0.37798 0.25273,-0.25273 0.50321,0.25274 0.75595,0 0.0891,-0.0891 -0.0891,-0.28888 0,-0.37797 0.0891,-0.0891 0.26528,0.0563 0.37797,0 0.15937,-0.0797 0.21861,-0.2983 0.37798,-0.37798 0.22538,-0.11269 0.57777,0.17818 0.75595,0 0.0891,-0.0891 -0.0891,-0.28889 0,-0.37798 0.17818,-0.17818 0.57777,0.17818 0.75596,0 0.0891,-0.0891 -0.0891,-0.28888 0,-0.37797 0.17817,-0.17818 0.53057,0.11269 0.75595,0 0.15937,-0.0797 0.2186,-0.29829 0.37797,-0.37798 0.11269,-0.0563 0.25199,0 0.37798,0 0.12599,-0.12599 0.21861,-0.29829 0.37798,-0.37797 0.22538,-0.11269 0.57777,0.17817 0.75595,0 0.0891,-0.0891 -0.0891,-0.28889 0,-0.37798 0.0773,-0.0773 0.98406,0.0749 1.13393,0 0.15936,-0.0797 0.21861,-0.29829 0.37797,-0.37798 0.11269,-0.0563 0.25199,0 0.37798,0 0.12599,0 0.28889,-0.0891 0.37798,0 0.0891,0.0891 -0.0891,0.28889 0,0.37798 0.0773,0.0773 0.98406,-0.0749 1.13392,0 0.15937,0.0797 0.21861,0.29829 0.37798,0.37798 0.11269,0.0563 0.28889,-0.0891 0.37797,0 0.0891,0.0891 -0.0891,0.28888 0,0.37797 0.0891,0.0891 0.28889,-0.0891 0.37798,0 0.0891,0.0891 -0.0563,0.26529 0,0.37798 0.0797,0.15937 0.25199,0.25198 0.37798,0.37797 0.12599,0.126 0.21861,0.2983 0.37798,0.37798 0.11269,0.0564 0.28888,-0.0891 0.37797,0 0.0891,0.0891 -0.0891,0.28889 0,0.37798 0.0891,0.0891 0.28889,-0.0891 0.37798,0 0.0891,0.0891 -0.0891,0.28888 0,0.37797 0.0891,0.0891 0.28888,-0.0891 0.37797,0 0.17818,0.17818 -0.17818,0.57777 0,0.75596 0.0891,0.0891 0.28889,-0.0891 0.37798,0 0.0891,0.0891 -0.0563,0.26528 0,0.37797 0.0797,0.15937 0.29829,0.21861 0.37798,0.37798 0.0563,0.11269 -0.0891,0.28888 0,0.37797 0.0891,0.0891 0.28888,-0.0891 0.37797,0 0.0891,0.0891 -0.0563,0.26529 0,0.37798 1.25359,1.25359 -0.17818,-0.35636 0.37798,0.75595 0.0797,0.15937 0.29829,0.21861 0.37797,0.37798 0.0564,0.11269 -0.0563,0.26528 0,0.37797 0.0797,0.15937 0.2983,0.21861 0.37798,0.37798 0.0563,0.11269 -0.0564,0.26528 0,0.37798 0.0797,0.15937 0.29829,0.2186 0.37798,0.37797 0.0563,0.11269 -0.0563,0.26529 0,0.37798 0.0797,0.15937 0.29829,0.21861 0.37797,0.37798 0.0564,0.11268 -0.0891,0.28888 0,0.37797 0.0891,0.0891 0.28889,-0.0891 0.37798,0 0.17818,0.17818 -0.17818,0.57777 0,0.75595 0.0891,0.0891 0.28889,-0.0891 0.37798,0 0.10342,0.10343 -0.10253,1.30686 0,1.51191 0.0797,0.15937 0.29829,0.21861 0.37797,0.37798 0.0564,0.11268 -0.0563,0.26528 0,0.37797 0.0797,0.15937 0.29829,0.21861 0.37798,0.37798 0.11269,0.22538 -0.17818,0.57777 0,0.75595 0.0891,0.0891 0.28888,-0.0891 0.37797,0 0.0891,0.0891 -0.0563,0.26529 0,0.37797 0.0362,0.0724 1.43956,1.47573 1.51191,1.51191 0.22538,0.11269 0.53057,-0.11269 0.75595,0 0.15937,0.0797 0.21861,0.29829 0.37798,0.37798 0.11269,0.0563 0.25198,0 0.37797,0 0.12599,0 0.26529,0.0563 0.37798,0 0.15937,-0.0797 0.21861,-0.2983 0.37798,-0.37798 0.20504,-0.10252 1.40848,0.10342 1.5119,0 0.0891,-0.0891 -0.0891,-0.28888 0,-0.37798 0.17818,-0.17818 0.57777,0.17818 0.75595,0 0.0891,-0.0891 -0.0891,-0.28888 0,-0.37797 0.17818,-0.17818 0.57777,0.17818 0.75596,0 0.0891,-0.0891 -0.0891,-0.28889 0,-0.37798 0.17817,-0.17818 0.53056,0.11269 0.75595,0 0.15937,-0.0797 0.2186,-0.29829 0.37797,-0.37798 0.11269,-0.0563 0.28889,0.0891 0.37798,0 0.0891,-0.0891 -0.0891,-0.28888 0,-0.37797 0.17818,-0.17818 0.57777,0.17818 0.75595,0 0.0891,-0.0891 -0.0891,-0.28889 0,-0.37798 0.0909,-0.0909 1.42095,0.091 1.51191,0 0.0891,-0.0891 -0.0891,-0.28888 0,-0.37797 0.0891,-0.0891 0.26528,0.0563 0.37797,0 0.15937,-0.0797 0.21861,-0.29829 0.37798,-0.37798 0.23756,-0.11878 1.27434,0.11878 1.5119,0 0.15937,-0.0797 0.21861,-0.29829 0.37798,-0.37797 0.11269,-0.0564 0.28889,0.0891 0.37798,0 0.0891,-0.0891 -0.0891,-0.28889 0,-0.37798 0.17818,-0.17818 0.57777,0.17818 0.75595,0 0.0891,-0.0891 -0.0891,-0.28889 0,-0.37798 0.17818,-0.17818 0.57777,0.17818 0.75595,0 0.0891,-0.0891 -0.0891,-0.28888 0,-0.37797 0.0891,-0.0891 0.26529,0.0563 0.37798,0 0.15937,-0.0797 0.2186,-0.2983 0.37797,-0.37798 0.11269,-0.0564 0.28889,0.0891 0.37798,0 0.0891,-0.0891 -0.0891,-0.28889 0,-0.37798 0.17818,-0.17818 0.57777,0.17818 0.75595,0 0.0891,-0.0891 -0.0891,-0.28888 0,-0.37797 0.17818,-0.17818 0.57777,0.17818 0.75595,0 0.0891,-0.0891 -0.0891,-0.28889 0,-0.37798 0.17818,-0.17818 0.57778,0.17818 0.75596,0 0.0891,-0.0891 -0.0891,-0.28889 0,-0.37797 0.0891,-0.0891 0.25198,0 0.37797,0 0,-0.126 -0.0891,-0.28889 0,-0.37798 0.0891,-0.0891 0.28889,0.0891 0.37798,0 0.0891,-0.0891 -0.0891,-0.28889 0,-0.37798 0.17818,-0.17818 0.57777,0.17818 0.75595,0 0,-1.00793 -0.12599,0.12599 0.37798,-0.37797 0.0891,-0.0891 -0.0891,-0.28889 0,-0.37798 0.17818,-0.17818 0.57777,0.17818 0.75595,0 0.0891,-0.0891 -0.0891,-0.28888 0,-0.37798 0.0891,-0.0891 0.28889,0.0891 0.37798,0 0.0891,-0.0891 -0.0891,-0.28888 0,-0.37797 0.17818,-0.17818 0.53057,0.11269 0.75595,0 0.15937,-0.0797 0.21861,-0.2983 0.37798,-0.37798 0.22538,-0.11269 0.57777,0.17818 0.75595,0 0.0891,-0.0891 -0.0891,-0.28888 0,-0.37798 0.18899,-0.18898 0.94494,0.18899 1.13392,0 0.0891,-0.0891 -0.0891,-0.28888 0,-0.37797 0.0891,-0.0891 0.25199,0 0.37798,0 0.0917,0 1.12178,-0.0121 1.13393,0 0.0891,0.0891 -0.0891,0.28889 0,0.37797 0.0152,0.0152 1.3731,0 1.51191,0 0.12599,0 0.25198,0 0.37797,0 0.12599,0 0.28889,-0.0891 0.37798,0 0.50397,0.50397 -0.62996,0.37798 0.37797,0.37798 0.2629,0 1.7532,-0.0683 1.88989,0 0.15936,0.0797 0.2186,0.29829 0.37797,0.37798 0.26108,0.13054 1.7572,-0.13268 1.88988,0 0.0891,0.0891 -0.0891,0.28888 0,0.37797 0.0122,0.0121 1.04226,0 1.13393,0 1.38591,0 2.77183,0 4.15774,0 0.19765,0 1.41252,-0.0497 1.5119,0 0.15937,0.0797 0.21861,0.2983 0.37798,0.37798 0.22538,0.11269 0.53057,-0.11269 0.75595,0 0.15937,0.0797 0.21861,0.29829 0.37798,0.37798 0.22538,0.11269 0.57777,-0.17818 0.75595,0 0.0891,0.0891 -0.0891,0.28888 0,0.37797 0.17818,0.17818 0.57777,-0.17818 0.75595,0 0.0891,0.0891 -0.0891,0.28889 0,0.37798 0.17818,0.17818 0.57778,-0.17818 0.75596,0 0.0891,0.0891 -0.0891,0.28889 0,0.37798 0.091,0.0909 1.42095,-0.091 1.5119,0 0.0891,0.0891 -0.0891,0.28888 0,0.37797 0.0773,0.0773 0.98406,-0.0749 1.13393,0 0.15937,0.0797 0.21861,0.29829 0.37798,0.37798 0.22538,0.11269 0.53056,-0.11269 0.75595,0 0.15937,0.0797 0.2186,0.29829 0.37797,0.37797 0.22539,0.1127 0.53057,-0.11269 0.75595,0 0.15937,0.0797 0.21861,0.29829 0.37798,0.37798 0.20505,0.10252 1.40848,-0.10342 1.51191,0 0.0891,0.0891 -0.0891,0.28889 0,0.37798 0.0152,0.0152 1.37309,0 1.5119,0 0.0917,0 1.12177,-0.0122 1.13393,0 0.0891,0.0891 -0.0891,0.28888 0,0.37797 0.17818,0.17818 0.57777,-0.17818 0.75595,0 0.0891,0.0891 -0.0891,0.28889 0,0.37798 0.0891,0.0891 0.26529,-0.0564 0.37798,0 0.15937,0.0797 0.21861,0.29829 0.37798,0.37798 0.11269,0.0563 0.28888,-0.0891 0.37797,0 0.0891,0.0891 -0.0891,0.28888 0,0.37797 0.17818,0.17818 0.53057,-0.11269 0.75595,0 0.45358,0.22679 0.68036,0.90714 1.13393,1.13393 0.11269,0.0563 0.26529,-0.0564 0.37798,0 0.15937,0.0797 0.21861,0.29829 0.37797,0.37797 0.1127,0.0563 0.28889,-0.0891 0.37798,0 0.0891,0.0891 -0.0891,0.28889 0,0.37798 0.0891,0.0891 0.28889,-0.0891 0.37798,0 0.0891,0.0891 -0.0891,0.28889 0,0.37798 0.0891,0.0891 0.28888,-0.0891 0.37797,0 0.17818,0.17818 -0.17818,0.57777 0,0.75595 0.0891,0.0891 0.28889,-0.0891 0.37798,0 0.0378,0.0378 0.0378,1.09613 0,1.13393 -0.0891,0.0891 -0.26529,-0.0564 -0.37798,0 -0.15937,0.0797 -0.21861,0.29829 -0.37797,0.37798 -0.1127,0.0563 -0.28889,-0.0891 -0.37798,0 -0.0891,0.0891 0.0891,0.28888 0,0.37797 -0.17818,0.17818 -0.53057,-0.11269 -0.75595,0 -0.31874,0.15937 -0.43722,0.59658 -0.75596,0.75595 -0.11268,0.0564 -0.25198,0 -0.37797,0 -0.12599,0 -0.25199,0 -0.37798,0"
       id="path2682"
       inkscape:connector-curvature="0" />
  </g>
</svg>
