<?xml version="1.0" encoding="UTF-8" standalone="no"?>
<!-- Created with Inkscape (http://www.inkscape.org/) -->

<svg
   xmlns:dc="http://purl.org/dc/elements/1.1/"
   xmlns:cc="http://creativecommons.org/ns#"
   xmlns:rdf="http://www.w3.org/1999/02/22-rdf-syntax-ns#"
   xmlns:svg="http://www.w3.org/2000/svg"
   xmlns="http://www.w3.org/2000/svg"
   xmlns:xlink="http://www.w3.org/1999/xlink"
   xmlns:sodipodi="http://sodipodi.sourceforge.net/DTD/sodipodi-0.dtd"
   xmlns:inkscape="http://www.inkscape.org/namespaces/inkscape"
   width="1730.6667"
   height="1184"
   viewBox="0 0 457.90558 313.26666"
   version="1.1"
   id="svg1944"
   sodipodi:docname="strelka-strelka-dvortsovaya.svg"
   inkscape:version="0.92.3 (2405546, 2018-03-11)">
  <defs
     id="defs1938" />
  <sodipodi:namedview
     id="base"
     pagecolor="#ffffff"
     bordercolor="#666666"
     borderopacity="1.0"
     inkscape:pageopacity="0.0"
     inkscape:pageshadow="2"
     inkscape:zoom="0.7"
     inkscape:cx="853.78847"
     inkscape:cy="245.70104"
     inkscape:document-units="mm"
     inkscape:current-layer="layer1"
     showgrid="false"
     inkscape:window-width="1366"
     inkscape:window-height="715"
     inkscape:window-x="0"
     inkscape:window-y="0"
     inkscape:window-maximized="1"
     fit-margin-top="0"
     fit-margin-left="0"
     fit-margin-right="0"
     fit-margin-bottom="0"
     units="px" />
  <metadata
     id="metadata1941">
    <rdf:RDF>
      <cc:Work
         rdf:about="">
        <dc:format>image/svg+xml</dc:format>
        <dc:type
           rdf:resource="http://purl.org/dc/dcmitype/StillImage" />
        <dc:title></dc:title>
      </cc:Work>
    </rdf:RDF>
  </metadata>
  <g
     inkscape:label="Layer 1"
     inkscape:groupmode="layer"
     id="layer1"
     transform="translate(-5.5613631e-4,0.00661361)">
    <image
       sodipodi:absref="/home/aanper/project/luysy-imn-eh/pi/boot/bydefault/web/img/strelka.png"
       y="-0.006613608"
       x="0.00055613631"
       id="image2667"
       xlink:href="file:///home/aanper/project/luysy-imn-eh/pi/boot/bydefault/web/img/strelka.png"
       preserveAspectRatio="none"
       height="313.26666"
       width="457.90558"
       style="fill:none" />
    <ellipse
       style="fill:#00ff00;fill-opacity:1;stroke:#00ff00;stroke-width:0.30000001;stroke-miterlimit:4;stroke-dasharray:none;stroke-opacity:1;paint-order:stroke fill markers"
       id="path2670"
       cx="169.90086"
       cy="79.670769"
       rx="3.2127976"
       ry="3.0238097" />
    <circle
       style="fill:#00ff00;fill-opacity:1;stroke:#00ff00;stroke-width:0.30000001;stroke-miterlimit:4;stroke-dasharray:none;stroke-opacity:1;paint-order:stroke fill markers"
       id="path2672"
       cx="420.87701"
       cy="29.210947"
       r="2.4568453" />
    <ellipse
       style="fill:#00ff00;fill-opacity:1;stroke:#00ff00;stroke-width:0.30000001;stroke-miterlimit:4;stroke-dasharray:none;stroke-opacity:1;paint-order:stroke fill markers"
       id="path2674"
       cx="381.7565"
       cy="308.15735"
       rx="3.4017856"
       ry="2.8348215" />
    <circle
       style="fill:#00ff00;fill-opacity:1;stroke:#00ff00;stroke-width:0.30000001;stroke-miterlimit:4;stroke-dasharray:none;stroke-opacity:1;paint-order:stroke fill markers"
       id="path2676"
       cx="79.753525"
       cy="248.62613"
       r="2.2678571" />
    <ellipse
       style="fill:#00ff00;fill-opacity:1;stroke:#00ff00;stroke-width:0.30000001;stroke-miterlimit:4;stroke-dasharray:none;stroke-opacity:1;paint-order:stroke fill markers"
       id="path2678"
       cx="216.7699"
       cy="220.65588"
       rx="1.7008928"
       ry="1.5119048" />
    <circle
       style="fill:#00ff00;fill-opacity:1;stroke:#00ff00;stroke-width:0.30000001;stroke-miterlimit:4;stroke-dasharray:none;stroke-opacity:1;paint-order:stroke fill markers"
       id="path2680"
       cx="316.93359"
       cy="230.67224"
       r="1.7008928" />
    <path
       style="fill:none;fill-opacity:1;stroke:#00ff00;stroke-width:0.30000001;stroke-miterlimit:4;stroke-dasharray:none;stroke-opacity:1;paint-order:stroke fill markers"
       d="m 316.74461,232.37314 c 0.12597,0.50397 0.25196,1.00794 0.37796,1.51191 0.12599,0 0.2889,-0.0891 0.37798,0 0.0773,0.0773 -0.0749,0.98406 0,1.13393 0.0797,0.15937 0.29829,0.21861 0.37799,0.37798 0.0497,0.0994 0,1.31425 0,1.5119 0,0.0917 0.0122,1.12177 0,1.13393 -0.0891,0.0891 -0.2653,-0.0564 -0.37799,0 -1.57305,0.78652 0.40407,-0.0261 -0.37798,0.75595 -0.0891,0.0891 -0.28887,-0.0891 -0.37796,0 -0.0891,0.0891 0.0891,0.28889 0,0.37798 -0.0891,0.0891 -0.2889,-0.0891 -0.37798,0 -0.0891,0.0891 0.0891,0.28888 0,0.37797 -0.0891,0.0891 -0.2653,-0.0563 -0.37799,0 -0.15935,0.0797 -0.2186,0.29829 -0.37798,0.37798 -0.11269,0.0563 -0.28887,-0.0891 -0.37796,0 -0.0891,0.0891 0.0891,0.28889 0,0.37797 -0.0891,0.0891 -0.2889,-0.0891 -0.37798,0 -0.0891,0.0891 0.0891,0.28889 0,0.37798 -0.0891,0.0891 -0.2653,-0.0563 -0.37798,0 -1.57303,0.78652 0.40407,-0.0261 -0.37796,0.75595 -0.0891,0.0891 -0.2889,-0.0891 -0.37799,0 -0.0891,0.0891 0.0891,0.28889 0,0.37798 -0.0891,0.0891 -0.28889,-0.0891 -0.37798,0 -0.0891,0.0891 0.0891,0.28889 0,0.37798 -0.0891,0.0891 -0.26527,-0.0563 -0.37798,0 -0.15936,0.0797 -0.2186,0.29829 -0.37796,0.37797 -0.11269,0.0564 -0.2889,-0.0891 -0.37798,0 -0.0891,0.0891 0.0564,0.26529 0,0.37798 -0.0797,0.15937 -0.2983,0.21861 -0.37799,0.37798 -0.0563,0.11268 0.0891,0.28888 0,0.37797 -0.0891,0.0891 -0.28887,-0.0891 -0.37796,0 0,0.12599 0,0.25199 0,0.37798 0,0.12599 0.0891,0.28888 0,0.37797 -0.0891,0.0891 -0.28889,-0.0891 -0.37798,0 -0.17817,0.17818 0.17817,0.57778 0,0.75595 -0.0891,0.0891 -0.2889,-0.0891 -0.37798,0 -0.0891,0.0891 0,0.25199 0,0.37798 0,0.75595 0,1.51191 0,2.26786 0,0.12599 0,0.25198 0,0.37797 0,0.126 -0.0891,0.28889 0,0.37798 0.0891,0.0891 0.2889,-0.0891 0.37798,0 0.0891,0.0891 -0.0564,0.26529 0,0.37798 1.2536,1.25359 -0.17817,-0.35636 0.37798,0.75595 0.15936,0.31874 0.59659,0.43722 0.75595,0.75595 0.0564,0.11269 -0.0564,0.26529 0,0.37798 1.25359,1.25359 -0.17817,-0.35636 0.37798,0.75595 0.0797,0.15937 0.29829,0.21861 0.37796,0.37798 0.0564,0.11269 -0.0891,0.28888 0,0.37797 0.0891,0.0891 0.2889,-0.0891 0.37798,0 0.17817,0.17818 -0.11269,0.53057 0,0.75595 0.0797,0.15937 0.29829,0.21861 0.37798,0.37798 0.10253,0.20505 -0.10342,1.40848 0,1.51191 0.0891,0.0891 0.28888,-0.0891 0.37799,0 0.0891,0.0891 0,0.25198 0,0.37797 0,0.26791 -0.0489,2.17013 0,2.26786 0.0797,0.15937 0.29829,0.21861 0.37796,0.37798 0.0749,0.14986 -0.0773,1.05665 0,1.13393 0.0891,0.0891 0.28889,-0.0891 0.37798,0 0.17817,0.17817 -0.11269,0.53056 0,0.75595 0.0797,0.15937 0.29829,0.2186 0.37798,0.37797 0.0563,0.11269 -0.0564,0.26529 0,0.37798 0.0797,0.15937 0.29829,0.21861 0.37796,0.37797 0.0564,0.1127 -0.0891,0.28889 0,0.37798 0.0891,0.0891 0.2889,-0.0891 0.37798,0 0.24903,0.24902 -0.24902,0.50693 0,0.75595 0.0891,0.0891 0.2653,-0.0563 0.37799,0 0.17502,0.0875 1.2896,1.28961 1.51191,1.51191 0.12599,0.12599 0.29829,0.21861 0.37795,0.37797 0.2607,0.52136 -0.45773,0.33809 0.37799,0.75597 0.11268,0.0563 0.2889,-0.0891 0.37798,0 0.0891,0.0891 -0.0564,0.26527 0,0.37796 0.15936,0.31874 0.59658,0.43722 0.75594,0.75596 0.0564,0.11269 -0.0563,0.26527 0,0.37796 0.18598,0.37195 1.32593,1.13998 1.51191,1.51191 0.26069,0.52136 -0.45776,0.33808 0.37798,0.75597 0.11269,0.0563 0.28888,-0.0891 0.37799,0 0.0891,0.0891 -0.0564,0.26527 0,0.37795 0.15936,0.31875 0.59658,0.43723 0.75594,0.75597 0.0564,0.11269 -0.0564,0.26527 0,0.37799 0.78653,1.57302 -0.0262,-0.40408 0.75594,0.37795 0.0891,0.0891 -0.0563,0.2653 0,0.37799 0.0797,0.15935 0.29829,0.2186 0.37798,0.37798 0.0564,0.11269 -0.0891,0.28887 0,0.37796 0.0891,0.0891 0.2889,-0.0891 0.37799,0 0.17817,0.17819 -0.17817,0.57779 0,0.75596 0.0891,0.0891 0.28887,-0.0891 0.37798,0 0.0891,0.0891 -0.0891,0.28888 0,0.37799 0.0891,0.0891 0.28887,-0.0891 0.37796,0 0.0891,0.0891 -0.0563,0.26527 0,0.37796 0.0797,0.15938 0.29829,0.21862 0.37798,0.37798 0.0564,0.11269 -0.0891,0.2889 0,0.37798 0.0891,0.0891 0.2889,-0.0891 0.37799,0 0.0891,0.0891 -0.0564,0.26527 0,0.37796 0.0797,0.15939 0.29829,0.21863 0.37795,0.37798 0.0564,0.11269 0,0.25199 0,0.37799 0.126,0.12599 0.29829,0.2186 0.37799,0.37798 0.11268,0.22537 -0.17817,0.57777 0,0.75594 0.0891,0.0891 0.2889,-0.0891 0.37798,0 0.17817,0.17817 -0.17817,0.57777 0,0.75594 0.0891,0.0891 0.28887,-0.0891 0.37798,0 0.17817,0.1782 -0.17819,0.5778 0,0.75597 0.0891,0.0891 0.28888,-0.0891 0.37796,0 0.1782,0.17817 -0.11268,0.53057 0,0.75594 0.0797,0.15939 0.29829,0.21863 0.37799,0.37799 0.11268,0.22537 -0.17818,0.57777 0,0.75594 0.0891,0.0891 0.28889,-0.0891 0.37798,0 0.17817,0.17819 -0.1782,0.57779 0,0.75596 0.0891,0.0891 0.28887,-0.0891 0.37796,0 0.17819,0.17818 -0.17817,0.57778 0,0.75595 0.0891,0.0891 0.28889,-0.0891 0.37798,0 0.17817,0.17819 -0.17817,0.57777 0,0.75596 0.0891,0.0891 0.2889,-0.0891 0.37798,0 0.17817,0.17817 -0.11268,0.53057 0,0.75594 0.0797,0.15939 0.2983,0.2186 0.37799,0.37799 0.0563,0.11268 -0.0564,0.26527 0,0.37798 0.0797,0.15936 0.29829,0.2186 0.37795,0.37796 0.11269,0.2254 -0.17817,0.57777 0,0.75597 0.0891,0.0891 0.2889,-0.0891 0.37799,0 0.17817,0.17817 -0.11269,0.53057 0,0.75594 0.0797,0.15938 0.29829,0.2186 0.37798,0.37798 0.11269,0.22537 -0.17819,0.57777 0,0.75594 0.0891,0.0891 0.28887,-0.0891 0.37796,0 0.1782,0.1782 -0.11269,0.53057 0,0.75597 0.0797,0.15936 0.29829,0.2186 0.37798,0.37796 0.0564,0.11271 -0.0891,0.2889 0,0.37798 0.0891,0.0891 0.2889,-0.0891 0.37799,0 0.0891,0.0891 -0.0891,0.2889 0,0.37798 0.0891,0.0891 0.28887,-0.0891 0.37798,0 0.0891,0.0891 -0.0564,0.26528 0,0.37799 0.15936,0.31872 0.59658,0.4372 0.75594,0.75594 0.0564,0.11269 -0.0891,0.2889 0,0.37798 0.0891,0.0891 0.2889,-0.0891 0.37799,0 0.17817,0.17817 -0.1782,0.57777 0,0.75594 0.0891,0.0891 0.26527,-0.0563 0.37795,0 0.15939,0.0797 0.21863,0.2983 0.37799,0.37799 0.2254,0.11268 0.57777,-0.17817 0.75596,0 0.0891,0.0891 -0.0891,0.28887 0,0.37798 0.13267,0.13266 1.62881,-0.13054 1.88987,0 0.15939,0.0797 0.2186,0.29829 0.37798,0.37796 0.14986,0.0749 1.05664,-0.0773 1.13393,0 0.0891,0.0891 -0.0891,0.2889 0,0.37798 0.10342,0.10343 1.30685,-0.10252 1.51191,0 0.15936,0.0797 0.2186,0.29829 0.37798,0.37799 0.11502,0.0575 0.96369,0 1.13393,0 1.00793,0 2.01586,0 3.02379,0 1.00795,0 2.01588,0 3.02381,0 0.19765,0 1.41253,-0.0497 1.51191,0 0.15936,0.0797 0.2186,0.29829 0.37799,0.37795 0.20505,0.10253 1.40848,-0.1034 1.5119,0 0.50396,0.50398 -0.62997,0.37799 0.37796,0.37799 0.126,0 0.25199,0 0.37799,0 0.12599,0 0.28889,-0.0891 0.37798,0 0.0891,0.0891 -0.0891,0.2889 0,0.37798 0.25273,0.25273 0.50321,-0.25273 0.75594,0 0.0891,0.0891 -0.0891,0.28887 0,0.37798 0.1782,0.17818 0.53057,-0.11271 0.75597,0 0.15936,0.0797 0.2186,0.2983 0.37795,0.37796 0.2254,0.11269 0.53057,-0.11268 0.75597,0 0.3048,0.1524 0.45114,0.60357 0.75594,0.75597 0.11269,0.0563 0.2653,-0.0564 0.37799,0 0.15936,0.0797 0.2186,0.29829 0.37798,0.37796 0.11269,0.0564 0.25196,0 0.37796,0 0.12599,0.12599 0.21862,0.29829 0.37798,0.37798 0.11269,0.0564 0.2653,-0.0563 0.37799,0 0.31871,0.15939 0.43719,0.59658 0.75594,0.75597 0.11268,0.0563 0.25199,0 0.37798,0 0.12599,0.12597 0.2186,0.29829 0.37798,0.37796 0.11269,0.0564 0.28888,-0.0891 0.37796,0 0.0891,0.0891 -0.0891,0.28889 0,0.37798 0.0773,0.0773 0.98407,-0.0749 1.13393,0 0.15938,0.0797 0.21862,0.29829 0.37798,0.37798 0.30239,0.15119 0.83156,-0.15121 1.13392,0 0.15939,0.0797 0.21863,0.29829 0.37799,0.37796 0.20505,0.10253 1.40848,-0.1034 1.51191,0 0.0891,0.0891 -0.0891,0.2889 0,0.37798 0.18899,0.189 0.94493,-0.18899 1.13392,0 0.0891,0.0891 -0.0891,0.2889 0,0.37799 0.0773,0.0773 0.98407,-0.0749 1.13393,0 0.15938,0.0797 0.2186,0.29829 0.37798,0.37798 0.14986,0.0749 1.05664,-0.0773 1.13392,0 0.0891,0.0891 -0.0891,0.28887 0,0.37796 0.0378,0.0378 1.09615,0.0378 1.13393,0 0.0891,-0.0891 -0.0891,-0.28887 0,-0.37796 0.0891,-0.0891 0.25199,0 0.37798,0 0.62995,0 1.25992,0 1.88987,0 0.12599,0 0.25199,0 0.37798,0 0.126,0 0.2889,-0.0891 0.37799,0 0.0891,0.0891 -0.0891,0.28887 0,0.37796 0.17817,0.1782 0.53057,-0.11269 0.75594,0 0.15938,0.0797 0.21862,0.29829 0.37798,0.37798 0.11269,0.0564 0.2653,-0.0564 0.37799,0 0.15935,0.0797 0.21859,0.29829 0.37795,0.37799 0.2254,0.11268 0.5778,-0.1782 0.75597,0 0.0891,0.0891 -0.0891,0.28887 0,0.37795 0.0891,0.0891 0.26527,-0.0563 0.37798,0 0.15936,0.0797 0.2186,0.29829 0.37796,0.37799 0.11269,0.0564 0.2889,-0.0891 0.37798,0 0.0891,0.0891 -0.0891,0.2889 0,0.37798 0.17818,0.17817 0.57778,-0.17817 0.75595,0 0.0891,0.0891 -0.0891,0.28887 0,0.37798 0.0891,0.0891 0.28889,-0.0891 0.37798,0 0.0891,0.0891 -0.0891,0.28888 0,0.37796 0.0891,0.0891 0.2653,-0.0563 0.37798,0 0.15936,0.0797 0.25199,0.25199 0.37799,0.37799 0.12597,0.12599 0.29829,0.21859 0.37795,0.37798 0.0564,0.11269 -0.0891,0.28887 0,0.37796 0.0891,0.0891 0.2889,-0.0891 0.37799,0 0.0891,0.0891 -0.0564,0.26529 0,0.37798 0.0797,0.15939 0.29829,0.2186 0.37798,0.37798 0.0563,0.11269 -0.0891,0.28888 0,0.37799 0.0891,0.0891 0.28887,-0.0891 0.37796,0 0.1782,0.17817 -0.17817,0.57777 0,0.75594 0.0891,0.0891 0.2889,-0.0891 0.37798,0 0.37288,0.37288 -0.77449,0.75594 0.37799,0.75594"
       id="path2726"
       inkscape:connector-curvature="0" />
  </g>
</svg>
