<?xml version="1.0" encoding="UTF-8" standalone="no"?>
<!-- Created with Inkscape (http://www.inkscape.org/) -->

<svg
   xmlns:dc="http://purl.org/dc/elements/1.1/"
   xmlns:cc="http://creativecommons.org/ns#"
   xmlns:rdf="http://www.w3.org/1999/02/22-rdf-syntax-ns#"
   xmlns:svg="http://www.w3.org/2000/svg"
   xmlns="http://www.w3.org/2000/svg"
   xmlns:xlink="http://www.w3.org/1999/xlink"
   xmlns:sodipodi="http://sodipodi.sourceforge.net/DTD/sodipodi-0.dtd"
   xmlns:inkscape="http://www.inkscape.org/namespaces/inkscape"
   width="1730.6667"
   height="1184"
   viewBox="0 0 457.90558 313.26666"
   version="1.1"
   id="svg1944"
   sodipodi:docname="strelka-birzha-birzha.svg"
   inkscape:version="0.92.3 (2405546, 2018-03-11)">
  <defs
     id="defs1938" />
  <sodipodi:namedview
     id="base"
     pagecolor="#ffffff"
     bordercolor="#666666"
     borderopacity="1.0"
     inkscape:pageopacity="0.0"
     inkscape:pageshadow="2"
     inkscape:zoom="0.7"
     inkscape:cx="796.8233"
     inkscape:cy="171.06323"
     inkscape:document-units="mm"
     inkscape:current-layer="layer1"
     showgrid="false"
     inkscape:window-width="1366"
     inkscape:window-height="715"
     inkscape:window-x="0"
     inkscape:window-y="0"
     inkscape:window-maximized="1"
     fit-margin-top="0"
     fit-margin-left="0"
     fit-margin-right="0"
     fit-margin-bottom="0"
     units="px" />
  <metadata
     id="metadata1941">
    <rdf:RDF>
      <cc:Work
         rdf:about="">
        <dc:format>image/svg+xml</dc:format>
        <dc:type
           rdf:resource="http://purl.org/dc/dcmitype/StillImage" />
        <dc:title></dc:title>
      </cc:Work>
    </rdf:RDF>
  </metadata>
  <g
     inkscape:label="Layer 1"
     inkscape:groupmode="layer"
     id="layer1"
     transform="translate(-5.5613631e-4,0.00661361)">
    <image
       sodipodi:absref="/home/aanper/project/luysy-imn-eh/pi/boot/bydefault/web/img/strelka.png"
       y="-0.006613608"
       x="0.00055613631"
       id="image2667"
       xlink:href="file:///home/aanper/project/luysy-imn-eh/pi/boot/bydefault/web/img/strelka.png"
       preserveAspectRatio="none"
       height="313.26666"
       width="457.90558"
       style="fill:none" />
    <ellipse
       style="fill:#00ff00;fill-opacity:1;stroke:#00ff00;stroke-width:0.30000001;stroke-miterlimit:4;stroke-dasharray:none;stroke-opacity:1;paint-order:stroke fill markers"
       id="path2670"
       cx="169.90086"
       cy="79.670769"
       rx="3.2127976"
       ry="3.0238097" />
    <circle
       style="fill:#00ff00;fill-opacity:1;stroke:#00ff00;stroke-width:0.30000001;stroke-miterlimit:4;stroke-dasharray:none;stroke-opacity:1;paint-order:stroke fill markers"
       id="path2672"
       cx="420.87701"
       cy="29.210947"
       r="2.4568453" />
    <ellipse
       style="fill:#00ff00;fill-opacity:1;stroke:#00ff00;stroke-width:0.30000001;stroke-miterlimit:4;stroke-dasharray:none;stroke-opacity:1;paint-order:stroke fill markers"
       id="path2674"
       cx="381.7565"
       cy="308.15735"
       rx="3.4017856"
       ry="2.8348215" />
    <circle
       style="fill:#00ff00;fill-opacity:1;stroke:#00ff00;stroke-width:0.30000001;stroke-miterlimit:4;stroke-dasharray:none;stroke-opacity:1;paint-order:stroke fill markers"
       id="path2676"
       cx="79.753525"
       cy="248.62613"
       r="2.2678571" />
    <ellipse
       style="fill:#00ff00;fill-opacity:1;stroke:#00ff00;stroke-width:0.30000001;stroke-miterlimit:4;stroke-dasharray:none;stroke-opacity:1;paint-order:stroke fill markers"
       id="path2678"
       cx="216.7699"
       cy="220.65588"
       rx="1.7008928"
       ry="1.5119048" />
    <circle
       style="fill:#00ff00;fill-opacity:1;stroke:#00ff00;stroke-width:0.30000001;stroke-miterlimit:4;stroke-dasharray:none;stroke-opacity:1;paint-order:stroke fill markers"
       id="path2680"
       cx="316.93359"
       cy="230.67224"
       r="1.7008928" />
    <path
       style="fill:none;fill-opacity:1;stroke:#00ff00;stroke-width:0.30000001;stroke-miterlimit:4;stroke-dasharray:none;stroke-opacity:1;paint-order:stroke fill markers"
       d="m 216.95889,220.27791 c -0.37798,-0.50397 -0.75595,-1.00794 -1.13393,-1.51191 -0.12599,0 -0.28889,0.0891 -0.37798,0 -0.17818,-0.17818 0.17818,-0.57777 0,-0.75595 -0.0891,-0.0891 -0.28888,0.0891 -0.37797,0 -0.17818,-0.17818 0.11269,-0.53057 0,-0.75595 -0.0797,-0.15937 -0.2983,-0.21861 -0.37798,-0.37798 -0.0564,-0.11269 0.0563,-0.26528 0,-0.37798 -0.0797,-0.15936 -0.29829,-0.2186 -0.37798,-0.37797 -0.11269,-0.22538 0.17818,-0.57777 0,-0.75595 -0.0891,-0.0891 -0.28888,0.0891 -0.37797,0 -0.17818,-0.17818 0.11269,-0.53057 0,-0.75595 -0.0797,-0.15937 -0.29829,-0.21861 -0.37798,-0.37798 -0.0563,-0.11269 0.0891,-0.28889 0,-0.37798 -0.0891,-0.0891 -0.28889,0.0891 -0.37797,0 -0.17818,-0.17818 0.17817,-0.57777 0,-0.75595 -0.0891,-0.0891 -0.28889,0.0891 -0.37798,0 -0.0891,-0.0891 0.0891,-0.28889 0,-0.37798 -0.0891,-0.0891 -0.28889,0.0891 -0.37798,0 -0.0891,-0.0891 0.0891,-0.28888 0,-0.37797 -0.0891,-0.0891 -0.26528,0.0563 -0.37797,0 -0.31874,-0.15937 -0.43722,-0.59659 -0.75596,-0.75595 -0.11269,-0.0564 -0.28888,0.0891 -0.37797,0 -0.0891,-0.0891 0.0891,-0.28889 0,-0.37798 -0.18899,-0.18899 -0.94494,0.18899 -1.13393,0 -0.0891,-0.0891 0.0891,-0.28889 0,-0.37798 -0.0891,-0.0891 -0.25199,0 -0.37798,0 -0.62996,0 -1.25992,0 -1.88988,0 -0.12599,0 -0.28888,0.0891 -0.37797,0 -0.0891,-0.0891 0.0891,-0.28888 0,-0.37797 -0.0121,-0.0121 -1.04226,0 -1.13393,0 -2.01588,0 -4.03175,0 -6.04762,0 -0.62996,0 -1.25992,0 -1.88988,0 -0.12599,0 -0.25199,0 -0.37798,0 -0.12599,0 -0.26529,0.0563 -0.37797,0 -0.15937,-0.0797 -0.21861,-0.2983 -0.37798,-0.37798 -0.22538,-0.11269 -0.53057,0.11269 -0.75595,0 -0.15937,-0.0797 -0.21861,-0.29829 -0.37798,-0.37798 -0.11269,-0.0563 -0.28888,0.0891 -0.37798,0 -0.0891,-0.0891 0.0891,-0.28888 0,-0.37797 -0.0891,-0.0891 -0.26528,0.0563 -0.37797,0 -0.15937,-0.0797 -0.21861,-0.2983 -0.37798,-0.37798 -0.11269,-0.0563 -0.28889,0.0891 -0.37798,0 -0.0891,-0.0891 0.0891,-0.28888 0,-0.37798 -0.17817,-0.17817 -0.57777,0.17819 -0.75595,0 -0.0891,-0.0891 0.0891,-0.28888 0,-0.37797 -0.18898,-0.18899 -0.94494,0.18899 -1.13392,0 -0.0891,-0.0891 0.0891,-0.28889 0,-0.37798 -0.25274,-0.25273 -0.50322,0.25274 -0.75596,0 -0.0891,-0.0891 0.0891,-0.28888 0,-0.37797 -0.0891,-0.0891 -0.25198,0 -0.37797,0 -0.126,0 -0.25199,0 -0.37798,0 -0.75595,0 -1.5119,0 -2.26786,0 -0.17022,0 -1.0189,-0.0575 -1.13393,0 -0.15936,0.0797 -0.2186,0.29829 -0.37797,0.37797 -0.22538,0.11269 -0.57777,-0.17818 -0.75596,0 -0.0891,0.0891 0.0891,0.28889 0,0.37798 -0.0891,0.0891 -0.26528,-0.0564 -0.37797,0 -0.15937,0.0797 -0.21861,0.29829 -0.37798,0.37797 -0.11269,0.0563 -0.26528,-0.0563 -0.37797,0 -0.40238,0.20119 -0.35358,0.55477 -0.75595,0.75596 -0.1127,0.0563 -0.25199,0 -0.37798,0 -0.12599,0.12599 -0.21861,0.29829 -0.37798,0.37797 -0.11269,0.0564 -0.26528,-0.0563 -0.37797,0 -0.31874,0.15937 -0.43722,0.59659 -0.75596,0.75596 -0.11269,0.0563 -0.26528,-0.0563 -0.37797,0 -0.31874,0.15937 -0.43722,0.59658 -0.75595,0.75595 -0.11269,0.0563 -0.26529,-0.0564 -0.37798,0 -1.72985,0.86492 1.60391,-0.15666 -1.13393,0.75595 -0.11952,0.0398 -0.26528,-0.0563 -0.37798,0 -0.31873,0.15937 -0.45944,0.55828 -0.75595,0.75595 -1.90946,1.27298 -0.009,0.003 -1.13393,0.37798 -0.26727,0.0891 -0.48868,0.28889 -0.75595,0.37798 -0.11953,0.0398 -0.25845,-0.0399 -0.37797,0 -0.26728,0.0891 -0.48869,0.28888 -0.75596,0.37797 -0.11952,0.0398 -0.26528,-0.0563 -0.37797,0 -0.15937,0.0797 -0.20894,0.32163 -0.37798,0.37798 -0.23905,0.0797 -0.5169,-0.0797 -0.75595,0 -0.16904,0.0563 -0.21861,0.29829 -0.37798,0.37798 -0.11269,0.0563 -0.25845,-0.0399 -0.37797,0 -0.26727,0.0891 -0.48869,0.28888 -0.75596,0.37797 -0.11952,0.0398 -0.26528,-0.0563 -0.37797,0 -0.31874,0.15937 -0.43722,0.59658 -0.75596,0.75595 -0.11269,0.0564 -0.26528,-0.0563 -0.37797,0 -0.15937,0.0797 -0.21861,0.29829 -0.37798,0.37798 -0.11269,0.0563 -0.26528,-0.0564 -0.37798,0 -0.20218,0.10109 -0.55376,0.65486 -0.75595,0.75595 -0.11269,0.0564 -0.26528,-0.0563 -0.37797,0 -0.15937,0.0797 -0.21861,0.29829 -0.37798,0.37798 -0.11269,0.0563 -0.26528,-0.0563 -0.37797,0 -1.57305,0.78652 0.40406,-0.0261 -0.37798,0.75595 -0.0891,0.0891 -0.28889,-0.0891 -0.37798,0 -0.0891,0.0891 0.0564,0.26528 0,0.37798 -0.0797,0.15937 -0.29829,0.2186 -0.37797,0.37797 -0.0563,0.11269 0.0563,0.26529 0,0.37798 -0.0797,0.15937 -0.2983,0.21861 -0.37798,0.37798 -0.0564,0.11268 0.0563,0.26528 0,0.37797 -0.0797,0.15937 -0.29829,0.21861 -0.37798,0.37798 -0.0563,0.11269 0.0564,0.26528 0,0.37797 -0.0797,0.15937 -0.29829,0.21861 -0.37797,0.37798 -0.0564,0.11269 0.0563,0.26528 0,0.37798 -0.0797,0.15936 -0.29829,0.2186 -0.37798,0.37797 -0.11269,0.22538 0.11269,0.53057 0,0.75596 -0.0797,0.15936 -0.29829,0.2186 -0.37797,0.37797 -0.11923,0.23845 0.11922,1.65143 0,1.88988 -0.0797,0.15937 -0.2983,0.21861 -0.37798,0.37798 -0.01,0.0198 -0.01,1.11415 0,1.13393 0.0797,0.15937 0.29829,0.2186 0.37798,0.37797 0.15118,0.30238 -0.15119,0.83155 0,1.13393 0.15366,0.30734 0.59958,0.31274 0.37797,0.75595 -0.0797,0.15937 -0.29829,0.21861 -0.37797,0.37798 -0.11269,0.22538 0.17817,0.57777 0,0.75595 -0.18899,0.18899 -0.94494,-0.18899 -1.13393,0 -0.0891,0.0891 0.0891,0.28889 0,0.37798 -0.17818,0.17818 -0.57778,-0.17818 -0.75596,0 -0.0891,0.0891 0.0891,0.28888 0,0.37798 -1.00793,0 0.126,-0.126 -0.37797,0.37797 -0.0891,0.0891 -0.26529,-0.0563 -0.37798,0 -0.45357,0.22679 -0.68035,0.90714 -1.13393,1.13393 -0.11269,0.0563 -0.28888,-0.0891 -0.37797,0 -0.0891,0.0891 0.0891,0.28889 0,0.37797 -0.0891,0.0891 -0.28889,-0.0891 -0.37798,0 -0.0891,0.0891 0.0891,0.28889 0,0.37798 -0.17818,0.17818 -0.57777,-0.17818 -0.75595,0 -0.0891,0.0891 0.0891,0.28889 0,0.37798 -0.0891,0.0891 -0.28889,0.0891 -0.37798,0 -0.0891,-0.0891 0.0564,-0.26529 0,-0.37798 -0.0797,-0.15937 -0.29829,-0.21861 -0.37797,-0.37798 -0.11269,-0.22538 0.17818,-0.57777 0,-0.75595 -0.0891,-0.0891 -0.28889,0.0891 -0.37798,0 -0.0891,-0.0891 0.0563,-0.26528 0,-0.37797 -0.0362,-0.0724 -1.43955,-1.47573 -1.5119,-1.51191 -0.11269,-0.0563 -0.28889,0.0891 -0.37798,0 -0.0891,-0.0891 0.0891,-0.28888 0,-0.37797 -0.0891,-0.0891 -0.28889,0.0891 -0.37798,0 -0.0891,-0.0891 0.0564,-0.26529 0,-0.37798 -0.0797,-0.15937 -0.25198,-0.25198 -0.37797,-0.37798 -0.126,-0.12599 -0.25199,-0.25198 -0.37798,-0.37797 -0.12599,-0.12599 -0.29829,-0.21861 -0.37797,-0.37798 -0.0564,-0.11269 0.0891,-0.28889 0,-0.37797 -0.0891,-0.0891 -0.28889,0.0891 -0.37798,0 -0.0891,-0.0891 0.0891,-0.28889 0,-0.37798 -0.0891,-0.0891 -0.28889,0.0891 -0.37798,0 -0.0891,-0.0891 0.0564,-0.26529 0,-0.37798 -0.22678,-0.45357 -0.90714,-0.68036 -1.13393,-1.13393 -0.0563,-0.11269 0.0564,-0.26528 0,-0.37797 -0.0797,-0.15937 -0.29829,-0.21861 -0.37797,-0.37798 -0.0564,-0.11269 0,-0.25198 0,-0.37798 -0.12599,-0.12599 -0.29829,-0.2186 -0.37798,-0.37797 -0.0563,-0.11269 0.0398,-0.25845 0,-0.37798 -0.0891,-0.26727 -0.28889,-0.48868 -0.37797,-0.75595 -0.0399,-0.11953 0.0563,-0.26529 0,-0.37797 -0.15937,-0.31874 -0.59659,-0.43722 -0.75596,-0.75596 -0.0563,-0.11269 0.0564,-0.26528 0,-0.37797 -0.22678,-0.45357 -0.90714,-0.68036 -1.13393,-1.13393 -0.0563,-0.11269 0.0564,-0.26529 0,-0.37798 -0.15936,-0.31874 -0.59658,-0.43721 -0.75595,-0.75595 -0.0563,-0.11269 0.0564,-0.26529 0,-0.37798 -0.0797,-0.15937 -0.29829,-0.2186 -0.37797,-0.37797 -0.0563,-0.1127 0.0563,-0.26529 0,-0.37798 -0.0797,-0.15937 -0.2983,-0.21861 -0.37798,-0.37798 -0.0563,-0.11269 0.0563,-0.26528 0,-0.37797 -0.0797,-0.15937 -0.29829,-0.21861 -0.37798,-0.37798 -0.0563,-0.11269 0,-0.25198 0,-0.37798 -0.12599,-0.12599 -0.29829,-0.2186 -0.37797,-0.37797 -0.11269,-0.22538 0.17818,-0.57777 0,-0.75595 -0.0891,-0.0891 -0.28889,0.0891 -0.37798,0 -0.0891,-0.0891 0.0564,-0.26529 0,-0.37798 -0.0797,-0.15937 -0.29829,-0.21861 -0.37797,-0.37797 -0.0564,-0.1127 0.0891,-0.28889 0,-0.37798 -0.0891,-0.0891 -0.28889,0.0891 -0.37798,0 -0.0891,-0.0891 0.0563,-0.26529 0,-0.37798 -0.0797,-0.15937 -0.29829,-0.21861 -0.37798,-0.37797 -0.11269,-0.22538 0.17818,-0.57778 0,-0.75596 -0.0891,-0.0891 -0.28888,0.0891 -0.37797,0 -0.0891,-0.0891 0.0563,-0.26528 0,-0.37797 -0.39844,-0.79687 -0.35753,0.0409 -0.75596,-0.75595 -0.0563,-0.1127 0.0891,-0.28889 0,-0.37798 -0.0891,-0.0891 -0.28888,0.0891 -0.37797,0 -0.0891,-0.0891 0.0563,-0.26529 0,-0.37798 -0.78653,-1.57304 0.0261,0.40407 -0.75595,-0.37797 -0.0891,-0.0891 0.0563,-0.26529 0,-0.37798 -0.78653,-1.57305 0.0261,0.40407 -0.75596,-0.37798 -0.78204,-0.78204 1.19507,0.0306 -0.37797,-0.75595 -1.00794,0 0.12599,0.12599 -0.37798,-0.37798 -0.0891,-0.0891 -0.28889,0.0891 -0.37798,0 -0.0891,-0.0891 0.0891,-0.28888 0,-0.37797 -0.0891,-0.0891 -0.26528,0.0563 -0.37797,0 -0.15937,-0.0797 -0.21861,-0.29829 -0.37798,-0.37798 -0.11269,-0.0563 -0.26528,0.0564 -0.37797,0 -0.15937,-0.0797 -0.21861,-0.29829 -0.37798,-0.37797 -0.23757,-0.11878 -1.27434,0.11878 -1.5119,0 -0.15937,-0.0797 -0.21861,-0.29829 -0.37798,-0.37798 -0.11269,-0.0563 -0.25198,0 -0.37798,0 -0.12599,0 -0.26528,-0.0563 -0.37797,0 -0.15937,0.0797 -0.21861,0.29829 -0.37798,0.37798 -0.30238,0.15119 -0.83155,-0.15119 -1.13393,0 -0.15937,0.0797 -0.2186,0.29829 -0.37797,0.37797 -0.1127,0.0564 -0.26529,-0.0563 -0.37798,0 -1.25359,1.25359 0.35636,-0.17818 -0.75595,0.37798 -0.15937,0.0797 -0.21861,0.29829 -0.37798,0.37797 -0.11269,0.0563 -0.26528,-0.0563 -0.37798,0 -0.31873,0.15937 -0.43721,0.59659 -0.75595,0.75596 -0.11269,0.0563 -0.28889,-0.0891 -0.37797,0 -0.0891,0.0891 0.0891,0.28888 0,0.37797 -0.0891,0.0891 -0.26529,-0.0563 -0.37798,0 -1.25359,1.25359 0.35636,-0.17818 -0.75595,0.37798 -1.57305,0.78652 0.40407,-0.0261 -0.37798,0.75595 -0.0891,0.0891 -0.26528,-0.0563 -0.37797,0 -0.31874,0.15937 -0.43722,0.59659 -0.75596,0.75596 -0.11269,0.0563 -0.26528,-0.0564 -0.37797,0 -0.33502,0.1675 -0.78985,0.90454 -1.13393,1.13392 -0.23441,0.15628 -0.52154,0.22171 -0.75595,0.37798 -0.14826,0.0988 -0.21861,0.29829 -0.37798,0.37798 -0.11269,0.0563 -0.26529,-0.0564 -0.37798,0 -0.31873,0.15936 -0.43721,0.59658 -0.75595,0.75595 -0.11269,0.0563 -0.25198,0 -0.37798,0 -0.25198,0.12599 -0.52154,0.2217 -0.75595,0.37798 -0.29651,0.19767 -0.45944,0.55827 -0.75595,0.75595 -0.23441,0.15627 -0.52154,0.2217 -0.75595,0.37797 -0.43613,0.29075 -0.6978,0.84318 -1.13393,1.13393 -0.23441,0.15628 -0.52154,0.22171 -0.75595,0.37798 -0.14826,0.0988 -0.25199,0.25198 -0.37798,0.37797 -0.37798,0.37798 -0.75595,0.75596 -1.13393,1.13393 -0.25198,0.25199 -0.45944,0.55828 -0.75595,0.75596 0.043,0.71604 -0.88195,0.25198 -1.13393,0.37797 -0.15937,0.0797 -0.25198,0.25199 -0.37798,0.37798 -0.12599,0.12599 -0.25198,0.25198 -0.37797,0.37797 -0.50397,0.50397 -1.00794,1.00794 -1.51191,1.51191 -0.12599,0.12599 -0.2186,0.29829 -0.37797,0.37798 -0.11269,0.0563 -0.26529,-0.0564 -0.37798,0 -0.15937,0.0797 -0.22972,0.27913 -0.37797,0.37797 -0.23441,0.15627 -0.52155,0.2217 -0.75596,0.37798 -0.51998,0.34665 -0.38874,0.58311 -0.75595,1.13392 -0.19767,0.29651 -0.50397,0.50397 -0.75595,0.75596 -1.25359,1.25359 0.35636,-0.17818 -0.75595,0.37797 -0.45358,0.22679 -0.68036,0.90715 -1.13393,1.13393 -0.11269,0.0564 -0.26529,-0.0563 -0.37798,0 -0.37194,0.18597 -1.13996,1.32594 -1.5119,1.51191 -0.11269,0.0563 -0.26529,-0.0563 -0.37798,0 -0.83573,0.41786 -0.11729,0.23459 -0.37798,0.75595 -0.0797,0.15937 -0.25198,0.25198 -0.37797,0.37798 -0.12599,0.12599 -0.21861,0.29829 -0.37798,0.37797 -0.11269,0.0564 -0.26528,-0.0563 -0.37797,0 -0.31874,0.15937 -0.43722,0.59659 -0.75596,0.75596 -0.11269,0.0563 -0.26528,-0.0564 -0.37797,0 -0.15937,0.0797 -0.21861,0.29829 -0.37798,0.37797 -0.11269,0.0563 -0.26528,-0.0563 -0.37798,0 -0.15937,0.0797 -0.2186,0.29829 -0.37797,0.37798 -0.11269,0.0563 -0.26529,-0.0563 -0.37798,0 -0.31874,0.15937 -0.43721,0.59658 -0.75595,0.75595 -0.22538,0.11269 -0.53057,-0.11269 -0.75595,0 -0.15937,0.0797 -0.21861,0.29829 -0.37798,0.37797 -0.11269,0.0563 -0.25198,0 -0.37798,0 -0.12599,0.126 -0.2186,0.2983 -0.37797,0.37798 -0.23757,0.11878 -1.27434,-0.11878 -1.51191,0 -0.15937,0.0797 -0.2186,0.29829 -0.37797,0.37798 -0.10606,0.053 -1.405845,0.053 -1.511906,0 -0.159369,-0.0797 -0.218609,-0.2983 -0.377978,-0.37798 -0.238453,-0.11923 -1.651426,0.11923 -1.889879,0 -0.15937,-0.0797 -0.21861,-0.29829 -0.377976,-0.37798 -0.05162,-0.0258 -2.216237,-0.0258 -2.267858,0 -0.159369,0.0797 -0.218609,0.2983 -0.377975,0.37798 -0.112692,0.0564 -0.288888,-0.0891 -0.377979,0 -0.08909,0.0891 0.08909,0.28889 0,0.37798 -0.08909,0.0891 -0.265284,-0.0563 -0.377976,0 -0.159369,0.0797 -0.218606,0.29829 -0.377976,0.37797 -0.112691,0.0564 -0.288885,-0.0891 -0.377975,0 -0.08909,0.0891 0.05635,0.26529 0,0.37798 -0.786525,1.57305 0.02609,-0.40407 -0.755952,0.37798 -0.08909,0.0891 0.08909,0.28888 0,0.37797 -0.782047,0.78205 0.03057,-1.19507 -0.755954,0.37798 -0.05634,0.11269 0.08909,0.28889 0,0.37798 -0.08909,0.0891 -0.265285,-0.0564 -0.377976,0 -0.159369,0.0797 -0.251984,0.25198 -0.377976,0.37797 -0.125992,0.12599 -0.298291,0.21861 -0.377976,0.37798 -0.05635,0.11269 0.08909,0.28888 0,0.37797 -0.08909,0.0891 -0.288885,-0.0891 -0.377975,0 -0.08909,0.0891 0.05635,0.26529 0,0.37798 -0.226785,0.45357 -0.907143,0.68036 -1.133931,1.13393 -0.05634,0.11269 0.08909,0.28888 0,0.37798 -0.08909,0.0891 -0.288885,-0.0891 -0.377975,0 -0.08909,0.0891 0.05635,0.26528 0,0.37797 -0.07968,0.15937 -0.298292,0.21861 -0.377976,0.37798 -0.05635,0.11269 0.08909,0.28888 0,0.37797 -0.08909,0.0891 -0.288885,-0.0891 -0.377976,0 -0.08909,0.0891 0.08909,0.28889 0,0.37798 -0.08909,0.0891 -0.288885,-0.0891 -0.377976,0 -0.08909,0.0891 0.05635,0.26529 0,0.37797 -0.159369,0.31874 -0.596585,0.43722 -0.755951,0.75596 -0.05635,0.11269 0.05634,0.26528 0,0.37797 -0.226788,0.45357 -0.907146,0.68036 -1.13393,1.13393 -0.05635,0.11269 0.08909,0.28889 0,0.37798 -0.08909,0.0891 -0.288886,-0.0891 -0.377976,0 -0.178179,0.17818 0.178181,0.57777 0,0.75595 -0.08909,0.0891 -0.288886,-0.0891 -0.377976,0 -0.09095,0.0909 0.09095,1.42095 0,1.5119 -0.08909,0.0891 -0.288888,-0.0891 -0.377976,0 -0.08909,0.0891 0,0.25199 0,0.37798 0,0.12599 0,0.25199 0,0.37798 0,0.75595 0,1.5119 0,2.26785 0,0.126 0,0.25199 0,0.37798 0,0.12599 -0.05635,0.26529 0,0.37798 0.07968,0.15937 0.298291,0.2186 0.377976,0.37797 0.102523,0.20505 -0.103423,1.40849 0,1.51191 0.08909,0.0891 0.288885,-0.0891 0.377976,0 0.08909,0.0891 -0.05635,0.26528 0,0.37798 0.05018,0.10035 1.033571,1.08374 1.133927,1.13392 0.112691,0.0564 0.288888,-0.0891 0.377979,0 0.08909,0.0891 -0.05635,0.26529 0,0.37798 0.07968,0.15937 0.251983,0.25198 0.377975,0.37797 0.125992,0.126 0.218607,0.2983 0.377976,0.37798 0.521364,0.26068 0.33809,-0.45775 0.755952,0.37798 0.05635,0.11269 -0.08909,0.28888 0,0.37797 0.08909,0.0891 0.265287,-0.0563 0.377976,0 0.159369,0.0797 0.218609,0.2983 0.377975,0.37798 0.112692,0.0563 0.265288,-0.0563 0.377979,0 0.45357,0.22679 0.680355,0.90714 1.133927,1.13393 0.112692,0.0563 0.288886,-0.0891 0.377976,0 0.19921,0.19921 0.221702,0.52154 0.377976,0.75595 0.197673,0.29651 0.503968,0.50397 0.755954,0.75595 0.377976,0.37798 0.755952,0.75596 1.133928,1.13393 0.125992,0.12599 0.251984,0.25199 0.377975,0.37798 0.125992,0.12599 0.298292,0.21861 0.377976,0.37798 0.05635,0.11268 -0.05635,0.26528 0,0.37797 0.159369,0.31874 0.596585,0.43721 0.755955,0.75595 0.05634,0.11269 -0.05635,0.26529 0,0.37798 0.07968,0.15937 0.298291,0.21861 0.377975,0.37797 0.05635,0.1127 -0.05634,0.26529 0,0.37798 0.07968,0.15937 0.32163,0.20894 0.377976,0.37798 0.07968,0.23905 -0.07968,0.5169 0,0.75595 0.05635,0.16904 0.279141,0.22972 0.377976,0.37798 1.272974,1.90947 0.0029,0.009 0.377976,1.13392 0.08909,0.26728 0.288888,0.48869 0.377976,0.75597 0.119528,0.35856 -0.119526,0.77533 0,1.13392 0.05635,0.16902 0.321632,0.20894 0.377975,0.37796 0.07968,0.23908 -0.07968,0.51692 0,0.75597 0.05635,0.16904 0.298294,0.2186 0.377979,0.37798 0.05634,0.11269 -0.03984,0.25845 0,0.37796 0.08909,0.26728 0.288885,0.48868 0.377976,0.75597 0.113392,0.34017 -0.113393,0.79375 0,1.13392 0.05634,0.16904 0.32163,0.20894 0.377975,0.37799 0.07968,0.23905 -0.06112,0.51149 0,0.75594 0.06833,0.27331 0.309648,0.48262 0.377976,0.75594 0.09167,0.36671 -0.119525,0.77536 0,1.13395 0.08909,0.26725 0.309647,0.48263 0.377976,0.75594 0.06112,0.24445 0,0.50398 0,0.75594 0,0.126 -0.05635,0.2653 0,0.37798 0.07968,0.15939 0.32163,0.20895 0.377976,0.37799 0.07968,0.23905 0,0.50395 0,0.75594 0,0.12599 -0.05635,0.2653 0,0.37798 0.07968,0.15936 0.298294,0.2186 0.377976,0.37799 0.112691,0.22537 -0.178179,0.57777 0,0.75594 0.08909,0.0891 0.288888,-0.0891 0.377978,0 0.08909,0.0891 -0.05635,0.2653 0,0.37798 0.07968,0.15936 0.298291,0.2186 0.377976,0.37799 0.05635,0.11268 -0.08909,0.28887 0,0.37795 0.08909,0.0891 0.28889,-0.0891 0.37798,0 0.0891,0.0891 -0.0563,0.2653 0,0.37799 0.0797,0.15935 0.25198,0.25199 0.37797,0.37798 0.297,0.29699 1.7695,1.64912 1.88988,1.88987 0.0563,0.11268 -0.0891,0.28889 0,0.37798 0.78205,0.78205 -0.0306,-1.19507 0.75595,0.37798 0.0563,0.11269 -0.0563,0.26527 0,0.37796 0.7526,1.50519 0.003,-0.74922 0.75596,0.75597 0.0563,0.11268 -0.0564,0.26527 0,0.37798 0.0797,0.15936 0.29829,0.2186 0.37797,0.37796 0.0564,0.11269 -0.0563,0.2653 0,0.37798 0.78653,1.57306 -0.0261,-0.40407 0.75596,0.37799 0.0891,0.0891 -0.0563,0.26527 0,0.37795 0.15937,0.31875 0.59658,0.43723 0.75595,0.75597 0.0563,0.11269 -0.0563,0.26527 0,0.37799 0.15937,0.31871 0.59658,0.43719 0.75595,0.75594 0.0564,0.11268 -0.0563,0.26529 0,0.37798 0.0797,0.15936 0.27914,0.22971 0.37798,0.37796 0.15627,0.23442 0.2217,0.52154 0.37797,0.75596 0.22939,0.34407 0.96642,0.79891 1.13393,1.13393 0.55616,1.11231 -0.87561,-0.49763 0.37798,0.75594 0.19899,0.19899 1.03299,0.93207 1.13393,1.13395 0.0563,0.11269 -0.0563,0.26527 0,0.37796 0.15936,0.31874 0.59658,0.43722 0.75595,0.75597 0.0563,0.11268 -0.0563,0.26527 0,0.37795 0.0797,0.15939 0.29829,0.21863 0.37797,0.37799 0.0563,0.11268 -0.0563,0.2653 0,0.37798 0.15937,0.31874 0.59659,0.43723 0.75596,0.75594 0.0563,0.11269 -0.0564,0.2653 0,0.37799 0.0797,0.15935 0.29829,0.21859 0.37797,0.37798 0.0564,0.11269 0,0.25199 0,0.37796 0.12599,0.12599 0.2983,0.21862 0.37798,0.37798 0.0563,0.11269 -0.0891,0.2889 0,0.37798 0.0891,0.0891 0.28889,-0.0891 0.37798,0 0.0891,0.0891 -0.0563,0.26528 0,0.37799 0.0797,0.15936 0.29829,0.2186 0.37797,0.37796 0.0563,0.11268 -0.0563,0.26529 0,0.37798 0.15937,0.31874 0.59658,0.43722 0.75595,0.75594 0.1127,0.2254 -0.11269,0.5306 0,0.75597 0.0797,0.15936 0.2983,0.2186 0.37798,0.37798 0.0564,0.11269 -0.0563,0.26527 0,0.37796 0.0797,0.15938 0.29829,0.21862 0.37798,0.37798 0.0563,0.11269 -0.0564,0.2653 0,0.37799 0.15936,0.31871 0.59658,0.43719 0.75595,0.75594 0.0563,0.11268 -0.0398,0.25844 0,0.37798 0.0891,0.26726 0.28889,0.48869 0.37798,0.75594 0.0398,0.11954 -0.0563,0.2653 0,0.37799 0.15936,0.31874 0.64326,0.41788 0.75595,0.75594 0.0797,0.23907 -0.0797,0.51691 0,0.75596 0.11269,0.33806 0.59658,0.43723 0.75595,0.75595 0.0563,0.11268 -0.0891,0.28889 0,0.37798 0.0891,0.0891 0.28889,-0.0891 0.37798,0 0.0891,0.0891 -0.0891,0.2889 0,0.37798 0.17818,0.17817 0.53057,-0.11268 0.75595,0 0.15937,0.0797 0.21861,0.29829 0.37797,0.37796 0.20505,0.10253 1.40849,-0.1034 1.51191,0 0.0891,0.0891 -0.0891,0.2889 0,0.37798 0.0152,0.0153 1.3731,0 1.5119,0 0.24838,0 0.92068,0.0711 1.13393,0 0.26727,-0.0891 0.48869,-0.28887 0.75596,-0.37798 0.11952,-0.0398 0.26528,0.0564 0.37797,0 0.15937,-0.0797 0.21861,-0.29829 0.37798,-0.37796 0.11269,-0.0564 0.26528,0.0563 0.37797,0 0.15937,-0.0797 0.21861,-0.29829 0.37798,-0.37798 0.11269,-0.0564 0.25845,0.0399 0.37798,0 0.26727,-0.0891 0.48868,-0.2889 0.75595,-0.37798 0.11952,-0.0399 0.26528,0.0564 0.37797,0 0.15937,-0.0797 0.21861,-0.2983 0.37798,-0.37796 0.11269,-0.0564 0.25845,0.0398 0.37798,0 2.73784,-0.91263 -0.59592,0.10895 1.13393,-0.75597 0.11269,-0.0563 0.26528,0.0564 0.37797,0 0.33502,-0.16751 0.78985,-0.90453 1.13393,-1.13392 0.23441,-0.15627 0.52154,-0.2217 0.75595,-0.37799 0.32616,-0.21743 0.8387,-0.83867 1.13393,-1.13392 0.43246,-0.43246 0.44744,-0.52713 1.13393,-0.75594 0.11953,-0.0399 0.26529,0.0563 0.37798,0 0.31873,-0.15939 0.45944,-0.5583 0.75595,-0.75597 0.23441,-0.15626 0.52154,-0.2217 0.75595,-0.37796 0.29651,-0.1977 0.43722,-0.59658 0.75595,-0.75597 0.11269,-0.0563 0.25845,0.0399 0.37798,0 0.68649,-0.22883 0.70147,-0.32348 1.13393,-0.75594 0.12599,-0.12599 0.2186,-0.29829 0.37797,-0.37798 0.11269,-0.0564 0.26529,0.0564 0.37798,0 1.72985,-0.86492 -1.60391,0.15666 1.13393,-0.75594 0.11952,-0.0399 0.26528,0.0563 0.37798,0 0.31873,-0.15939 0.43721,-0.59658 0.75595,-0.75597 0.11269,-0.0563 0.25845,0.0399 0.37797,0 0.26727,-0.0891 0.48869,-0.28887 0.75596,-0.37798 0.11952,-0.0398 0.26528,0.0564 0.37797,0 0.15937,-0.0797 0.21861,-0.29829 0.37798,-0.37796 0.11269,-0.0564 0.26528,0.0563 0.37797,0 0.31874,-0.15939 0.43722,-0.59658 0.75596,-0.75597 0.11269,-0.0563 0.26528,0.0564 0.37797,0 0.31874,-0.15936 0.43722,-0.59658 0.75596,-0.75594 0.11269,-0.0564 0.26528,0.0563 0.37797,0 0.45357,-0.2268 0.68036,-0.90715 1.13393,-1.13392 0.11269,-0.0564 0.26529,0.0563 0.37798,0 0.28873,-0.14439 0.87798,-1.04863 1.13393,-1.13393 0.23905,-0.0797 0.51689,0.0797 0.75595,0 0.33643,-0.11216 0.7975,-1.02179 1.13393,-1.13395 0.23905,-0.0797 0.51689,0.0797 0.75595,0 0.33807,-0.11269 0.41788,-0.64325 0.75595,-0.75594 0.23905,-0.0797 0.5169,0.0797 0.75595,0 0.25595,-0.0853 0.8452,-0.98957 1.13393,-1.13393 0.11269,-0.0564 0.25845,0.0399 0.37798,0 2.73784,-0.91262 -0.59592,0.10896 1.13392,-0.75596 0.1127,-0.0563 0.26529,0.0564 0.37798,0 0.31874,-0.15936 0.43722,-0.59659 0.75596,-0.75594 0.11269,-0.0564 0.26528,0.0564 0.37797,0 0.31874,-0.15936 0.43722,-0.59659 0.75595,-0.75594 0.11269,-0.0564 0.25845,0.0398 0.37798,0 0.68649,-0.22884 0.70147,-0.32351 1.13393,-0.75597 0.12599,-0.126 0.21861,-0.29829 0.37797,-0.37799 0.1127,-0.0563 0.26529,0.0564 0.37798,0 0.15937,-0.0797 0.25198,-0.25196 0.37798,-0.37795 0.12599,-0.126 0.25198,-0.25199 0.37797,-0.37799 0.126,-0.12599 0.25199,-0.25199 0.37798,-0.37798 0.12599,-0.126 0.21861,-0.29829 0.37798,-0.37796 0.11269,-0.0564 0.26528,0.0563 0.37797,0 0.45357,-0.2268 0.68036,-0.90715 1.13393,-1.13395 0.11269,-0.0563 0.26529,0.0564 0.37797,0 0.31874,-0.15936 0.43722,-0.59658 0.75596,-0.75594 0.11269,-0.0564 0.26528,0.0564 0.37797,0 0.31874,-0.15936 0.43722,-0.59658 0.75596,-0.75594 0.11269,-0.0564 0.26528,0.0563 0.37797,0 0.15937,-0.0797 0.21861,-0.29829 0.37798,-0.37799 0.11269,-0.0564 0.26529,0.0563 0.37798,0 0.15936,-0.0797 0.2186,-0.29829 0.37797,-0.37798 0.11269,-0.0563 0.26529,0.0564 0.37798,0 0.31874,-0.15936 0.43721,-0.59658 0.75595,-0.75594 0.11269,-0.0564 0.26529,0.0563 0.37798,0 0.31873,-0.15939 0.43721,-0.59658 0.75595,-0.75597 0.11269,-0.0563 0.26528,0.0564 0.37798,0 0.15936,-0.0797 0.2186,-0.29829 0.37797,-0.37795 0.11269,-0.0564 0.26529,0.0563 0.37798,0 0.15937,-0.0797 0.2186,-0.2983 0.37797,-0.37799 0.11269,-0.0564 0.26529,0.0563 0.37798,0 0.15937,-0.0797 0.21861,-0.29829 0.37797,-0.37798 0.1127,-0.0563 0.25199,0 0.37798,0 0.126,-0.126 0.21861,-0.29829 0.37798,-0.37799 0.11269,-0.0563 0.28888,0.0891 0.37797,0 0.0891,-0.0891 -0.0891,-0.28887 0,-0.37795 0.0891,-0.0891 0.26529,0.0563 0.37798,0 0.15937,-0.0797 0.21861,-0.29829 0.37798,-0.37799 0.11269,-0.0564 0.26528,0.0564 0.37797,0 1.57305,-0.78652 -0.40407,0.0262 0.37798,-0.75594 0.0891,-0.0891 0.26529,0.0563 0.37798,0 0.15936,-0.0797 0.2186,-0.29829 0.37797,-0.37798 0.11269,-0.0564 0.26529,0.0563 0.37798,0 0.15937,-0.0797 0.2186,-0.29829 0.37797,-0.37799 0.1127,-0.0563 0.26529,0.0564 0.37798,0 0.15937,-0.0797 0.21861,-0.29829 0.37798,-0.37798 0.11269,-0.0563 0.26528,0.0564 0.37797,0 0.15937,-0.0797 0.21861,-0.29829 0.37798,-0.37796 0.11269,-0.0564 0.28889,0.0891 0.37798,0 0.0891,-0.0891 -0.0891,-0.2889 0,-0.37798 0.0891,-0.0891 0.26528,0.0564 0.37797,0 0.15937,-0.0797 0.21861,-0.29829 0.37798,-0.37798 0.11269,-0.0563 0.28888,0.0891 0.37797,0 0.0891,-0.0891 -0.0891,-0.28888 0,-0.37796 0.0891,-0.0891 0.28889,0.0891 0.37798,0 0.0891,-0.0891 -0.0891,-0.2889 0,-0.37799 0.0891,-0.0891 0.26529,0.0563 0.37797,0 0.15937,-0.0797 0.21861,-0.29829 0.37798,-0.37798 0.11269,-0.0563 0.28889,0.0891 0.37798,0 0.0891,-0.0891 -0.0891,-0.28887 0,-0.37798 0.0891,-0.0891 0.28888,0.0891 0.37797,0 0.0891,-0.0891 -0.0563,-0.26527 0,-0.37796 0.0797,-0.15938 0.2983,-0.21863 0.37798,-0.37798 0.33598,-0.67197 -0.20999,-0.21 -0.37798,-0.37799 -0.17818,-0.17817 0.1127,-0.53057 0,-0.75594 -0.0797,-0.15938 -0.29829,-0.2186 -0.37797,-0.37798 -0.11269,-0.22537 0.11269,-0.53057 0,-0.75594 -0.0797,-0.15939 -0.29829,-0.21863 -0.37798,-0.37799 -0.0563,-0.11268 0.0564,-0.26529 0,-0.37798 -0.0797,-0.15936 -0.29829,-0.2186 -0.37798,-0.37796 -0.0563,-0.11271 0.0564,-0.2653 0,-0.37798 -0.0797,-0.15939 -0.29829,-0.2186 -0.37797,-0.37799 -0.0564,-0.11268 0.0563,-0.26527 0,-0.37798 -0.0797,-0.15936 -0.29829,-0.2186 -0.37798,-0.37796 -0.0563,-0.11268 0.0564,-0.26529 0,-0.37798 -0.0797,-0.15936 -0.29829,-0.2186 -0.37797,-0.37798 -0.0564,-0.11269 0.0891,-0.28888 0,-0.37796 -0.0891,-0.0891 -0.28889,0.0891 -0.37798,0 -0.17818,-0.1782 0.11269,-0.53058 0,-0.75597 -0.0797,-0.15936 -0.29829,-0.2186 -0.37797,-0.37797 -0.0564,-0.11269 0.0891,-0.28889 0,-0.37798 -0.0891,-0.0891 -0.28889,0.0891 -0.37798,0 -0.0891,-0.0891 0.0563,-0.26528 0,-0.37797 -0.0797,-0.15937 -0.29829,-0.21861 -0.37798,-0.37798 -0.0563,-0.11269 0.0891,-0.28889 0,-0.37798 -0.0891,-0.0891 -0.28888,0.0891 -0.37797,0 -0.17818,-0.17818 0.17818,-0.57777 0,-0.75595 -0.0891,-0.0891 -0.28889,0.0891 -0.37798,0 -0.0891,-0.0891 0.0563,-0.26528 0,-0.37798 -0.0797,-0.15936 -0.29829,-0.2186 -0.37798,-0.37797 -0.11269,-0.22538 0.1127,-0.53057 0,-0.75595 -0.0797,-0.15937 -0.29829,-0.21861 -0.37797,-0.37798 -0.0564,-0.11269 0.0563,-0.26529 0,-0.37797 -0.0797,-0.15937 -0.29829,-0.21861 -0.37798,-0.37798 -0.11269,-0.22538 0.11269,-0.53057 0,-0.75595 -0.0797,-0.15937 -0.29829,-0.21861 -0.37797,-0.37798 -0.15119,-0.30238 0.15118,-0.83155 0,-1.13393 -0.0797,-0.15937 -0.2983,-0.21861 -0.37798,-0.37798 -0.11269,-0.22538 0.11269,-0.53057 0,-0.75595 -0.0797,-0.15937 -0.29829,-0.2186 -0.37798,-0.37797 -0.11269,-0.22539 0.11269,-0.53058 0,-0.75596 -0.0797,-0.15936 -0.29829,-0.2186 -0.37797,-0.37797 -0.0563,-0.11269 0.0563,-0.26529 0,-0.37798 -0.0797,-0.15937 -0.29829,-0.21861 -0.37798,-0.37798 -0.11269,-0.22538 0.11269,-0.53056 0,-0.75595 -0.0797,-0.15937 -0.29829,-0.2186 -0.37798,-0.37797 -0.0749,-0.14987 0.0773,-1.05666 0,-1.13393 -0.0891,-0.0891 -0.28888,0.0891 -0.37797,0 -0.17818,-0.17818 0.11269,-0.53057 0,-0.75595 -0.0797,-0.15937 -0.29829,-0.21861 -0.37798,-0.37798 -0.0749,-0.14987 0.0773,-1.05666 0,-1.13393 -0.0891,-0.0891 -0.28888,0.0891 -0.37798,0 -0.0773,-0.0773 0.0749,-0.98406 0,-1.13393 -0.0797,-0.15937 -0.29829,-0.2186 -0.37797,-0.37797 -0.01,-0.0198 -0.01,-1.11416 0,-1.13393 0.0797,-0.15937 0.29829,-0.21861 0.37797,-0.37798 0.0564,-0.11269 -0.0891,-0.28888 0,-0.37798 0.0891,-0.0891 0.28889,0.0891 0.37798,0 0.0891,-0.0891 -0.0891,-0.28888 0,-0.37797 0.0891,-0.0891 0.26529,0.0563 0.37798,0 0.15937,-0.0797 0.21861,-0.29829 0.37797,-0.37798 0.22538,-0.11269 0.53058,0.11269 0.75596,0 0.15937,-0.0797 0.2186,-0.29829 0.37797,-0.37797 0.23757,-0.11879 1.27434,0.11878 1.51191,0 0.15937,-0.0797 0.2186,-0.29829 0.37797,-0.37798 1.11231,-0.55616 -0.49763,0.87561 0.75596,-0.37797 0.12599,-0.126 0.25198,-0.25199 0.37797,-0.37798 0.126,-0.12599 0.2983,-0.21861 0.37798,-0.37798 0.0563,-0.11269 0,-0.25198 0,-0.37797 0,-0.126 0.0891,-0.28889 0,-0.37798 -0.0891,-0.0891 -0.28889,0.0891 -0.37798,0 -0.0773,-0.0773 0.0749,-0.98406 0,-1.13393 -0.0797,-0.15937 -0.29829,-0.21861 -0.37797,-0.37798 -0.11269,-0.22538 0.17818,-0.57777 0,-0.75595 -0.0891,-0.0891 -0.28889,0.0891 -0.37798,0 -0.17818,-0.17818 0.11269,-0.53057 0,-0.75595 -0.0797,-0.15937 -0.29829,-0.21861 -0.37798,-0.37797 -0.0563,-0.1127 0.0564,-0.26529 0,-0.37798 -0.0797,-0.15937 -0.29829,-0.21861 -0.37797,-0.37798 -0.0564,-0.11269 0,-0.25198 0,-0.37797 -0.12599,-0.126 -0.29829,-0.21861 -0.37798,-0.37798 -0.0563,-0.11269 0.0564,-0.26529 0,-0.37798 -0.0797,-0.15937 -0.29829,-0.2186 -0.37797,-0.37797 -0.0563,-0.11269 0.0563,-0.26529 0,-0.37798 -0.0797,-0.15937 -0.2983,-0.21861 -0.37798,-0.37797 -0.11269,-0.22539 0.17818,-0.57778 0,-0.75596 -0.0891,-0.0891 -0.28889,0.0891 -0.37798,0 -0.17818,-0.17818 0.17818,-0.57777 0,-0.75595 -0.0891,-0.0891 -0.28888,0.0891 -0.37797,0 -0.17818,-0.17818 0.17818,-0.57777 0,-0.75595 -0.0891,-0.0891 -0.28889,0.0891 -0.37798,0 -0.18899,-0.18899 0.18899,-0.94494 0,-1.13393 -0.0891,-0.0891 -0.28888,0.0891 -0.37798,0 -0.18898,-0.18899 0.18899,-0.94494 0,-1.13393 -0.0891,-0.0891 -0.28888,0.0891 -0.37797,0 -0.17818,-0.17818 0.17818,-0.57777 0,-0.75595 -0.0891,-0.0891 -0.28889,0.0891 -0.37798,0 -0.17818,-0.17818 0.17818,-0.57777 0,-0.75595 -0.0891,-0.0891 -0.28888,0.0891 -0.37798,0 -0.17817,-0.17818 0.17819,-0.57778 0,-0.75596 -0.0891,-0.0891 -0.28888,0.0891 -0.37797,0 -0.18899,-0.18899 0.18899,-0.94494 0,-1.13392 -0.0891,-0.0891 -0.28889,0.0891 -0.37798,0 -0.18898,-0.18899 0.18899,-0.94494 0,-1.13393 -0.0891,-0.0891 -0.28888,0.0891 -0.37797,0 -0.0152,-0.0152 0,-1.3731 0,-1.51191 0,-0.75595 0,-1.5119 0,-2.26785 0,-0.126 0,-0.25199 0,-0.37798 0,-0.12599 -0.0564,-0.26529 0,-0.37798 0.0797,-0.15937 0.29829,-0.21861 0.37797,-0.37797 0.0564,-0.1127 -0.0563,-0.26529 0,-0.37798 0.15937,-0.31874 0.59659,-0.43721 0.75595,-0.75595 0.0564,-0.11269 -0.0891,-0.28889 0,-0.37798 0.0891,-0.0891 0.26529,0.0563 0.37798,0 1.57305,-0.78652 -0.40407,0.0261 0.37798,-0.75595 0.0891,-0.0891 0.26528,0.0563 0.37797,0 0.15937,-0.0797 0.21861,-0.29829 0.37798,-0.37798 0.11269,-0.0563 0.26529,0.0564 0.37798,0 0.31873,-0.15937 0.43721,-0.59658 0.75595,-0.75595 0.11269,-0.0564 0.28889,0.0891 0.37798,0 0.0891,-0.0891 -0.0891,-0.28888 0,-0.37798 0.0891,-0.0891 0.28888,0.0891 0.37797,0 0,-1.00793 -0.12599,0.126 0.37798,-0.37797 0.0891,-0.0891 -0.0891,-0.28889 0,-0.37798 0.0891,-0.0891 0.26528,0.0564 0.37797,0 0.15937,-0.0797 0.21861,-0.29829 0.37798,-0.37798 0.11269,-0.0563 0.28889,0.0891 0.37798,0 0.0891,-0.0891 -0.0891,-0.28888 0,-0.37797 0.0891,-0.0891 0.28888,0.0891 0.37797,0 0.0891,-0.0891 -0.0891,-0.28889 0,-0.37798 0.0891,-0.0891 0.26529,0.0564 0.37798,0 0.20187,-0.10093 0.93494,-0.93493 1.13393,-1.13392 0.19899,-0.199 1.03299,-0.93206 1.13392,-1.13393 0.0564,-0.1127 -0.0891,-0.28889 0,-0.37798 0.0891,-0.0891 0.28889,0.0891 0.37798,0 0.0891,-0.0891 -0.0563,-0.26528 0,-0.37798 0.22679,-0.45357 0.90715,-0.68035 1.13393,-1.13392 0.0564,-0.1127 -0.0891,-0.28889 0,-0.37798 0.0891,-0.0891 0.26529,0.0563 0.37798,0 0.31873,-0.15937 0.43721,-0.59658 0.75595,-0.75595 0.11269,-0.0563 0.28889,0.0891 0.37798,0 0.0891,-0.0891 -0.0891,-0.28889 0,-0.37798 1.00793,0 -0.126,0.12599 0.37797,-0.37798 0.0891,-0.0891 0.28889,0.0891 0.37798,0 0.0891,-0.0891 -0.0891,-0.28888 0,-0.37797 0.0891,-0.0891 0.26528,0.0563 0.37797,0 0.15937,-0.0797 0.21861,-0.2983 0.37798,-0.37798 0.11269,-0.0563 0.26529,0.0564 0.37798,0 0.15936,-0.0797 0.2186,-0.29829 0.37797,-0.37798 0.11269,-0.0563 0.26529,0.0563 0.37798,0 0.15937,-0.0797 0.21861,-0.29829 0.37798,-0.37797 0.20504,-0.10252 1.40848,0.10342 1.5119,0 0.0891,-0.0891 -0.0891,-0.28889 0,-0.37798 0.0891,-0.0891 0.25198,0 0.37797,0 0.62997,0 1.25993,0 1.88989,0 0.1388,0 1.49669,0.0152 1.5119,0 0.0891,-0.0891 -0.0891,-0.28888 0,-0.37797 0.0891,-0.0891 0.25199,0 0.37798,0 0.75595,0 1.5119,0 2.26786,0 0.12599,0 0.25198,0 0.37797,0 0.12599,0 0.26529,-0.0563 0.37798,0 0.15937,0.0797 0.2186,0.29829 0.37797,0.37797 0.0994,0.0497 1.31426,0 1.51191,0 1.00793,0 2.01587,0 3.02381,0 0.0917,0 1.12177,-0.0121 1.13393,0 0.0891,0.0891 -0.0891,0.28889 0,0.37798 0.0891,0.0891 0.25198,0 0.37797,0 0.26791,0 2.17013,-0.0489 2.26786,0 0.15937,0.0797 0.21861,0.29829 0.37797,0.37797 0.0994,0.0497 1.31426,0 1.51191,0 1.38591,0 2.77183,0 4.15774,0 0.12599,0 0.25198,0 0.37798,0 0.12599,0 0.28888,-0.0891 0.37797,0 0.0891,0.0891 -0.0891,0.28889 0,0.37798 0.17818,0.17818 0.53057,-0.11269 0.75595,0 0.15937,0.0797 0.21861,0.29829 0.37798,0.37798 0.22538,0.11269 0.57777,-0.17818 0.75595,0 0.0891,0.0891 -0.0891,0.28888 0,0.37797 0.17818,0.17818 0.57777,-0.17818 0.75595,0 0.0891,0.0891 -0.0891,0.28889 0,0.37798 0.17818,0.17818 0.53058,-0.11269 0.75596,0 0.15937,0.0797 0.2186,0.29829 0.37797,0.37798 0.11269,0.0563 0.26529,-0.0563 0.37798,0 0.15937,0.0797 0.21861,0.29829 0.37798,0.37797 0.22538,0.11269 0.53056,-0.11269 0.75595,0 0.15937,0.0797 0.2186,0.29829 0.37797,0.37798 0.22539,0.11269 0.53058,-0.11269 0.75596,0 0.15936,0.0797 0.2186,0.29829 0.37797,0.37798 0.11269,0.0563 0.28889,-0.0891 0.37798,0 0.0891,0.0891 -0.0891,0.28888 0,0.37797 0.0891,0.0891 0.26528,-0.0563 0.37798,0 0.31873,0.15937 0.43721,0.59658 0.75595,0.75595 1.11231,0.55616 -0.49764,-0.87561 0.75595,0.37798 0.12599,0.12599 0.25198,0.25198 0.37797,0.37798 0.126,0.12599 0.2983,0.2186 0.37798,0.37797 0.0564,0.11269 -0.0891,0.28889 0,0.37798 0.0891,0.0891 0.28889,-0.0891 0.37798,0 0.0891,0.0891 -0.0891,0.28888 0,0.37798 0.0891,0.0891 0.28888,-0.0891 0.37797,0 0.10343,0.10342 -0.10252,1.30685 0,1.5119 0.0797,0.15937 0.2983,0.21861 0.37798,0.37797 0.11269,0.22539 -0.11269,0.53058 0,0.75596 0.0797,0.15937 0.29829,0.21861 0.37798,0.37797 0.0563,0.1127 -0.0891,0.28889 0,0.37798 0.0891,0.0891 0.28888,0.0891 0.37797,0 0.0891,-0.0891 0,-0.25198 0,-0.37798"
       id="path2890"
       inkscape:connector-curvature="0" />
  </g>
</svg>
