<?xml version="1.0" encoding="UTF-8" standalone="no"?>
<!-- Created with Inkscape (http://www.inkscape.org/) -->

<svg
   xmlns:dc="http://purl.org/dc/elements/1.1/"
   xmlns:cc="http://creativecommons.org/ns#"
   xmlns:rdf="http://www.w3.org/1999/02/22-rdf-syntax-ns#"
   xmlns:svg="http://www.w3.org/2000/svg"
   xmlns="http://www.w3.org/2000/svg"
   xmlns:xlink="http://www.w3.org/1999/xlink"
   xmlns:sodipodi="http://sodipodi.sourceforge.net/DTD/sodipodi-0.dtd"
   xmlns:inkscape="http://www.inkscape.org/namespaces/inkscape"
   width="1730.6667"
   height="1184"
   viewBox="0 0 457.90558 313.26666"
   version="1.1"
   id="svg1944"
   sodipodi:docname="strelka-birzha-sportivnaya.svg"
   inkscape:version="0.92.3 (2405546, 2018-03-11)">
  <defs
     id="defs1938" />
  <sodipodi:namedview
     id="base"
     pagecolor="#ffffff"
     bordercolor="#666666"
     borderopacity="1.0"
     inkscape:pageopacity="0.0"
     inkscape:pageshadow="2"
     inkscape:zoom="0.49497475"
     inkscape:cx="1033.6318"
     inkscape:cy="666.74266"
     inkscape:document-units="mm"
     inkscape:current-layer="layer1"
     showgrid="false"
     inkscape:window-width="1366"
     inkscape:window-height="715"
     inkscape:window-x="0"
     inkscape:window-y="0"
     inkscape:window-maximized="1"
     fit-margin-top="0"
     fit-margin-left="0"
     fit-margin-right="0"
     fit-margin-bottom="0"
     units="px" />
  <metadata
     id="metadata1941">
    <rdf:RDF>
      <cc:Work
         rdf:about="">
        <dc:format>image/svg+xml</dc:format>
        <dc:type
           rdf:resource="http://purl.org/dc/dcmitype/StillImage" />
        <dc:title></dc:title>
      </cc:Work>
    </rdf:RDF>
  </metadata>
  <g
     inkscape:label="Layer 1"
     inkscape:groupmode="layer"
     id="layer1"
     transform="translate(-5.5613631e-4,0.00661361)">
    <image
       sodipodi:absref="/home/aanper/project/luysy-imn-eh/pi/boot/bydefault/web/img/strelka.png"
       y="-0.006613608"
       x="0.00055613631"
       id="image2667"
       xlink:href="file:///home/aanper/project/luysy-imn-eh/pi/boot/bydefault/web/img/strelka.png"
       preserveAspectRatio="none"
       height="313.26666"
       width="457.90558"
       style="fill:none" />
    <ellipse
       style="fill:#00ff00;fill-opacity:1;stroke:#00ff00;stroke-width:0.30000001;stroke-miterlimit:4;stroke-dasharray:none;stroke-opacity:1;paint-order:stroke fill markers"
       id="path2670"
       cx="169.90086"
       cy="79.670769"
       rx="3.2127976"
       ry="3.0238097" />
    <circle
       style="fill:#00ff00;fill-opacity:1;stroke:#00ff00;stroke-width:0.30000001;stroke-miterlimit:4;stroke-dasharray:none;stroke-opacity:1;paint-order:stroke fill markers"
       id="path2672"
       cx="420.87701"
       cy="29.210947"
       r="2.4568453" />
    <ellipse
       style="fill:#00ff00;fill-opacity:1;stroke:#00ff00;stroke-width:0.30000001;stroke-miterlimit:4;stroke-dasharray:none;stroke-opacity:1;paint-order:stroke fill markers"
       id="path2674"
       cx="381.7565"
       cy="308.15735"
       rx="3.4017856"
       ry="2.8348215" />
    <circle
       style="fill:#00ff00;fill-opacity:1;stroke:#00ff00;stroke-width:0.30000001;stroke-miterlimit:4;stroke-dasharray:none;stroke-opacity:1;paint-order:stroke fill markers"
       id="path2676"
       cx="79.753525"
       cy="248.62613"
       r="2.2678571" />
    <ellipse
       style="fill:#00ff00;fill-opacity:1;stroke:#00ff00;stroke-width:0.30000001;stroke-miterlimit:4;stroke-dasharray:none;stroke-opacity:1;paint-order:stroke fill markers"
       id="path2678"
       cx="216.7699"
       cy="220.65588"
       rx="1.7008928"
       ry="1.5119048" />
    <circle
       style="fill:#00ff00;fill-opacity:1;stroke:#00ff00;stroke-width:0.30000001;stroke-miterlimit:4;stroke-dasharray:none;stroke-opacity:1;paint-order:stroke fill markers"
       id="path2680"
       cx="316.93359"
       cy="230.67224"
       r="1.7008928" />
    <path
       style="fill:none;fill-opacity:1;stroke:#00ff00;stroke-width:0.30000001;stroke-miterlimit:4;stroke-dasharray:none;stroke-opacity:1;paint-order:stroke fill markers"
       d="m 217.55795,221.85387 c -1.59369,-0.51468 0.39842,-1.87585 0,-2.67269 -0.11269,-0.22538 -0.42185,-0.30916 -0.53454,-0.53454 -0.14499,-0.28998 0.14626,-1.9919 0,-2.13816 -0.12599,-0.12599 -0.40855,0.12599 -0.53454,0 -0.10928,-0.10928 0.10597,-1.39167 0,-1.60362 -0.11269,-0.22538 -0.42185,-0.30915 -0.53454,-0.53453 -0.21382,-0.42764 0.21382,-1.17599 0,-1.60362 -0.11269,-0.22538 -0.42185,-0.30916 -0.53454,-0.53454 -0.21381,-0.42763 0.21382,-1.17599 0,-1.60362 -0.11269,-0.22538 -0.42185,-0.30916 -0.53454,-0.53454 -0.0548,-0.10965 -0.0754,-1.52823 0,-1.60361 0.126,-0.126 0.40855,0.12599 0.53454,0 0.12599,-0.126 -0.12599,-0.40855 0,-0.53454 0.12599,-0.12599 0.40855,0.12599 0.53454,0 0.12599,-0.12599 -0.12599,-0.40855 0,-0.53454 0.12599,-0.12599 0.40855,0.12599 0.53454,0 0.12599,-0.12599 -0.12599,-0.40855 0,-0.53454 0.10928,-0.10928 1.39168,0.10597 1.60362,0 0.22538,-0.11269 0.30916,-0.42185 0.53454,-0.53454 0.16268,-0.0813 1.36288,0 1.60361,0 0.27953,0 1.99761,-0.0703 2.13816,0 0.22538,0.11269 0.30916,0.42185 0.53454,0.53454 0.19331,0.0967 2.3009,0 2.6727,0 2.31633,0 4.63267,0 6.949,0 0.27952,0 1.99761,0.0703 2.13816,0 0.22538,-0.11269 0.30915,-0.42185 0.53454,-0.53454 0.15937,-0.0797 0.35636,0 0.53454,0 0.89089,0 1.78179,0 2.67269,0 0.17818,0 0.35636,0 0.53454,0 0.17818,0 0.37517,0.0797 0.53454,0 0.22538,-0.11269 0.30916,-0.42185 0.53454,-0.53454 0.0456,-0.0228 2.09259,-0.0228 2.13816,0 0.22538,0.11269 0.30915,0.42185 0.53453,0.53454 0.16268,0.0813 1.36289,0 1.60362,0 1.42544,0 2.85088,0 4.27631,0 1.42544,0 2.85088,0 4.27632,0 0.24073,0 1.44094,-0.0813 1.60361,0 0.22539,0.11269 0.30916,0.42185 0.53454,0.53454 0.31874,0.15937 0.75034,-0.15937 1.06908,0 0.22538,0.11269 0.30916,0.42185 0.53454,0.53454 0.31874,0.15937 0.81709,-0.25199 1.06908,0 0.12599,0.12599 -0.126,0.40855 0,0.53454 0.14626,0.14626 1.84817,-0.14499 2.13815,0 0.22539,0.11269 0.30916,0.42184 0.53454,0.53454 0.31874,0.15936 0.75034,-0.15937 1.06908,0 0.22538,0.11269 0.30916,0.42184 0.53454,0.53454 0.31874,0.15936 0.81709,-0.25199 1.06908,0 0.12599,0.12599 -0.126,0.40854 0,0.53453 0.12862,0.12863 2.00953,-0.12862 2.13815,0 0.12599,0.12599 -0.126,0.40855 0,0.53454 0.0172,0.0172 1.47399,0 1.60361,0 1.60364,0 3.20725,0 4.81087,0 0.2795,0 1.9976,-0.0703 2.13815,0 0.22537,0.11269 0.30916,0.42185 0.53453,0.53454 0.13822,0.0691 2.82835,0 3.20723,0 0.37179,0 2.47941,0.0967 2.67272,0 0.22537,-0.11269 0.30914,-0.42185 0.53453,-0.53454 0.15936,-0.0797 0.40855,0.126 0.53454,0 0.126,-0.12599 -0.12599,-0.40855 0,-0.53454 0.126,-0.12599 0.40854,0.12599 0.53454,0 0.12599,-0.12599 -0.0797,-0.37517 0,-0.53453 0.11269,-0.22539 0.42185,-0.30916 0.53454,-0.53454 0.0797,-0.15937 -0.0797,-0.37517 0,-0.53454 0.11268,-0.22539 0.42185,-0.30916 0.53453,-0.53454 0.0797,-0.15937 -0.0797,-0.37517 0,-0.53454 0.11269,-0.22538 0.42186,-0.30916 0.53454,-0.53454 0.15936,-0.31874 -0.25199,-0.8171 0,-1.06908 0.126,-0.12599 0.40855,0.12599 0.53454,0 0.12599,-0.12599 -0.0797,-0.37517 0,-0.53454 0.11269,-0.22538 0.42185,-0.30915 0.53454,-0.53454 0.10596,-0.21194 -0.10928,-1.49433 0,-1.60361 0.12599,-0.12599 0.40854,0.12599 0.53454,0 0.12599,-0.12599 0,-0.35636 0,-0.53454 0,-0.17818 0,-0.35636 0,-0.53454 0,-1.42544 0,-2.85088 0,-4.27631 0,-0.8909 0,-1.7818 0,-2.6727 0,-0.17818 0,-0.35636 0,-0.53454 0,-0.17818 0.0797,-0.37517 0,-0.53454 -0.11269,-0.22538 -0.42186,-0.30916 -0.53454,-0.53454 -0.0703,-0.14055 0,-1.85863 0,-2.13815 0,-0.3718 -0.0967,-2.47939 0,-2.6727 0.11268,-0.22538 0.42185,-0.30916 0.53454,-0.53454 0.0813,-0.16267 0,-1.36288 0,-1.60361 0,-1.24726 0,-2.49452 0,-3.74178 0,-0.24073 -0.0813,-1.44094 0,-1.60361 0.11268,-0.22539 0.42185,-0.30916 0.53453,-0.53454 0.0797,-0.15937 -0.0797,-0.37517 0,-0.53454 0.11269,-0.22538 0.42185,-0.30916 0.53454,-0.53454 0.15939,-0.31874 -0.25199,-0.8171 0,-1.06908 0.126,-0.12599 0.40854,0.12599 0.53454,0 0.25199,-0.25198 -0.15936,-0.75034 0,-1.06908 0.11268,-0.22538 0.42185,-0.30916 0.53454,-0.53454 0.15938,-0.31873 -0.15936,-0.75034 0,-1.06907 0.11271,-0.22539 0.42185,-0.30916 0.53453,-0.53454 0.15939,-0.31874 -0.25196,-0.8171 0,-1.06908 0.126,-0.12599 0.40857,0.12599 0.53454,0 0.25199,-0.25199 -0.15936,-0.75034 0,-1.06908 0.11271,-0.22538 0.42185,-0.30916 0.53454,-0.53454 0.0797,-0.15937 -0.12597,-0.40855 0,-0.53454 0.12599,-0.12599 0.40857,0.12599 0.53456,0 0.25197,-0.25198 -0.25199,-0.81709 0,-1.06908 0.12597,-0.12599 0.40855,0.12599 0.53454,0 0.25196,-0.25198 -0.25199,-0.81709 0,-1.06908 0.12597,-0.12599 0.40854,0.126 0.53454,0 0.26725,-0.26726 -0.26728,-1.33634 0,-1.60361 0.12599,-0.12599 0.40854,0.12599 0.53454,0 0.12599,-0.12599 -0.0797,-0.37517 0,-0.53454 0.11268,-0.22538 0.42185,-0.30916 0.53453,-0.53454 0.0797,-0.15937 -0.12599,-0.40855 0,-0.53454 0.126,-0.12599 0.40855,0.12599 0.53454,0 0.126,-0.12599 -0.0797,-0.37517 0,-0.53454 0.22537,-0.45076 0.84371,-0.61831 1.06908,-1.06907 0.0797,-0.15937 -0.126,-0.40855 0,-0.53455 1.10598,-1.10597 -0.0432,1.69009 1.06907,-0.53454 0.0797,-0.15936 -0.12599,-0.40854 0,-0.53453 0.126,-0.126 0.37518,0.0797 0.53454,0 0.22537,-0.11269 0.35637,-0.35636 0.53454,-0.53454 0.17817,-0.17818 0.42185,-0.30916 0.53454,-0.53454 0.0797,-0.15937 -0.126,-0.40855 0,-0.53454 0.12599,-0.12599 0.40854,0.12599 0.53453,0 0.126,-0.12599 -0.12599,-0.40855 0,-0.53454 0.126,-0.12599 0.40855,0.12599 0.53454,0 0.126,-0.12599 -0.12599,-0.40855 0,-0.53454 0.126,-0.12599 0.40854,0.12599 0.53454,0 0.12599,-0.12599 -0.126,-0.40855 0,-0.53454 0.12599,-0.12599 0.40854,0.12599 0.53454,0 0.12599,-0.12599 -0.0797,-0.37517 0,-0.53454 0.11271,-0.22538 0.42185,-0.30916 0.53453,-0.53454 0.16799,-0.33597 -0.16798,-1.80218 0,-2.13815 0.11272,-0.22538 0.42186,-0.30916 0.53454,-0.53454 0.0814,-0.16268 0,-1.36288 0,-1.60362 0,-1.42544 0,-2.85087 0,-4.27631 0,-0.37888 0.0691,-3.06903 0,-3.20723 -0.11268,-0.22539 -0.42182,-0.30916 -0.53454,-0.53454 -0.0365,-0.073 -0.0365,-3.13423 0,-3.20724 0.11272,-0.22538 0.42186,-0.30916 0.53454,-0.53454 0.15939,-0.31873 -0.25196,-0.81709 0,-1.06907 0.126,-0.126 0.37518,0.0797 0.53457,0 2.22461,-1.11232 -0.57145,0.0369 0.53453,-1.06908 0.12597,-0.12599 0.37516,0.0797 0.53454,0 0.22537,-0.11269 0.30914,-0.42185 0.53454,-0.53454 0.15936,-0.0797 0.37515,0.0797 0.53454,0 0.22537,-0.11269 0.30914,-0.42185 0.53453,-0.53454 0.15936,-0.0797 0.37516,0.0797 0.53454,0 0.22537,-0.11269 0.30917,-0.42185 0.53454,-0.53454 0.31874,-0.15937 0.75033,0.15937 1.06908,0 0.22537,-0.11269 0.30916,-0.42185 0.53453,-0.53454 0.36923,-0.18461 2.48508,0.18763 2.67269,0 0.126,-0.12599 -0.12599,-0.40855 0,-0.53454 0.16553,-0.16552 2.50719,0.16552 2.67272,0 0.12596,-0.12599 -0.0797,-0.37517 0,-0.53454 0.11268,-0.22538 0.42182,-0.30915 0.53453,-0.53454 0.0797,-0.15937 -0.12599,-0.40854 0,-0.53453 0.12597,-0.126 0.40855,0.12599 0.53454,0 0.126,-0.126 -0.0797,-0.37518 0,-0.53454 0.22537,-0.45077 0.84368,-0.61832 1.06908,-1.06908 0.15936,-0.31874 -0.25199,-0.8171 0,-1.06908 0.12599,-0.12599 0.40854,0.12599 0.53454,0 0.12599,-0.12599 0,-0.35636 0,-0.53454 0,-0.27952 0.0703,-1.9976 0,-2.13816 -0.11269,-0.22538 -0.42186,-0.30916 -0.53454,-0.53454 -0.15939,-0.31873 0.25199,-0.81709 0,-1.06907 -0.126,-0.126 -0.40855,0.12599 -0.53454,0 -0.12599,-0.126 0.0797,-0.37517 0,-0.53454 -0.11271,-0.22538 -0.42185,-0.30916 -0.53454,-0.53454 -0.15938,-0.31874 0.15936,-0.75034 0,-1.06908 -0.11271,-0.22538 -0.42185,-0.30916 -0.53454,-0.53454 -0.0797,-0.15937 0,-0.35636 0,-0.53454 -0.17819,-0.17818 -0.42185,-0.30916 -0.53453,-0.53454 -0.0797,-0.15937 0.0797,-0.37517 0,-0.53454 -0.11272,-0.22538 -0.42185,-0.30915 -0.53457,-0.53454 -0.15936,-0.31873 0.25199,-0.81709 0,-1.06907 -0.12597,-0.126 -0.40854,0.12599 -0.53454,0 -0.25196,-0.25199 0.25199,-0.8171 0,-1.06908 -0.12596,-0.12599 -0.40854,0.12599 -0.53453,0 -0.18762,-0.18763 0.18462,-2.30347 0,-2.6727 -0.11269,-0.22538 -0.42185,-0.30915 -0.53454,-0.53454 -0.16798,-0.33596 0.16798,-1.80218 0,-2.13815 -0.11269,-0.22538 -0.42185,-0.30916 -0.53454,-0.53454 -0.0703,-0.14055 0,-1.85863 0,-2.13816 0,-1.42543 0,-2.85087 0,-4.27631 0,-0.12964 0.0172,-1.58643 0,-1.60362 -0.12599,-0.12599 -0.40854,0.126 -0.53454,0 -0.12599,-0.12599 0,-0.35636 0,-0.53453 0,-0.17819 0,-0.35636 0,-0.53454 0,-2.49452 0,-4.98904 0,-7.483551 0,-1.25359 0.126,0.251981 -0.53453,-1.069078 -0.0691,-0.138205 0,-2.828353 0,-3.207234 0,-2.316337 0,-4.632672 0,-6.949009 0,-1.247256 0,-2.494515 0,-3.741772 0,-0.178181 -0.126,-0.408548 0,-0.53454 0.12599,-0.125992 0.40854,0.125992 0.53453,0 0.0172,-0.0172 0,-1.473978 0,-1.603616 0,-0.240734 -0.0813,-1.440939 0,-1.603618 0.11269,-0.22538 0.42186,-0.309158 0.53454,-0.534538 0.21381,-0.427633 -0.21381,-1.175988 0,-1.603618 0.11269,-0.22538 0.42185,-0.309158 0.53454,-0.534538 0.15938,-0.318738 -0.15936,-0.750342 0,-1.069078 1.77284,-1.772843 -0.25196,0.503968 0.53454,-1.069078 0.11271,-0.225383 0.42185,-0.309158 0.53453,-0.53454 0.0797,-0.159369 0,-0.35636 0,-0.534538 0.1782,-0.178181 0.42186,-0.309158 0.53454,-0.53454 0.0797,-0.15937 -0.12597,-0.408546 0,-0.534541 0.126,-0.125992 0.40857,0.125995 0.53457,0 0.12596,-0.125992 -0.0797,-0.375168 0,-0.534537 0.22537,-0.450763 0.84367,-0.618316 1.06907,-1.069079 0.0797,-0.159369 -0.0797,-0.375171 0,-0.53454 0.11269,-0.22538 0.42183,-0.309158 0.53454,-0.534538 0.0797,-0.159369 -0.0797,-0.375171 0,-0.53454 0.11269,-0.22538 0.42185,-0.309158 0.53454,-0.534538 0.0797,-0.159369 -0.126,-0.408548 0,-0.53454 0.12599,-0.125992 0.40854,0.125992 0.53454,0 0.12599,-0.125992 -0.0797,-0.375169 0,-0.534538 0.11268,-0.225382 0.42185,-0.309157 0.53453,-0.53454 0.0813,-0.162676 0,-1.362882 0,-1.603616 0,-1.069078 0,-2.138156 0,-3.207234 0,-0.240734 -0.0813,-1.440939 0,-1.603618 0.11269,-0.22538 0.42185,-0.309158 0.53454,-0.534538 0.14499,-0.289981 -0.14626,-1.991894 0,-2.138156 0.126,-0.125992 0.40854,0.125992 0.53454,0 0.25199,-0.251984 -0.25199,-0.817094 0,-1.069078 0.12599,-0.125992 0.40854,0.125992 0.53454,0 0.25199,-0.251984 -0.25199,-0.817094 0,-1.069078 0.12599,-0.125992 0.40854,0.125992 0.53453,0 0.126,-0.125992 -0.12599,-0.408549 0,-0.534541 0.126,-0.125991 0.40855,0.125992 0.53454,0 0.126,-0.125991 -0.0797,-0.375168 0,-0.534537 0.22537,-0.450763 0.8437,-0.618316 1.06908,-1.069078 0.0797,-0.159369 -0.126,-0.408549 0,-0.534541 0.12599,-0.125992 0.40854,0.125992 0.53453,0 0.126,-0.125992 -0.0797,-0.375168 0,-0.534537 0.2254,-0.450763 0.84371,-0.618316 1.06908,-1.069078 0.0797,-0.15937 -0.12599,-0.408549 0,-0.534541 0.12599,-0.125992 0.40854,0.125992 0.53454,0 0.12599,-0.125992 -0.126,-0.408546 0,-0.534537 0.12599,-0.125992 0.40857,0.125991 0.53454,0 0.12599,-0.125992 -0.0797,-0.375172 0,-0.534541 0.22539,-0.450762 0.8437,-0.618315 1.0691,-1.069078 0.0797,-0.159369 -0.126,-0.408546 0,-0.534538 0.12597,-0.125991 0.40854,0.125992 0.53454,0 0.25196,-0.251986 -0.25199,-0.817094 0,-1.069078 0.12596,-0.125992 0.40854,0.125992 0.53453,0 0.126,-0.125992 -0.0797,-0.375171 0,-0.53454 0.11269,-0.22538 0.42185,-0.309158 0.53454,-0.534538 0.0797,-0.159369 -0.0797,-0.375171 0,-0.53454 0.22537,-0.450763 0.84368,-0.618315 1.06908,-1.069078 0.0797,-0.159369 0,-0.356359 0,-0.534538 0.17817,-0.178181 0.42185,-0.309157 0.53453,-0.53454 0.0797,-0.159369 -0.12599,-0.408546 0,-0.534538 0.126,-0.125994 0.40855,0.125992 0.53454,0 0.25199,-0.251986 -0.15936,-0.750342 0,-1.06908 0.22537,-0.450763 0.8437,-0.618313 1.06908,-1.069079 0.0797,-0.159366 -0.126,-0.408545 0,-0.534537 0.12599,-0.125992 0.40854,0.125992 0.53453,0 0.126,-0.125992 -0.12599,-0.408549 0,-0.534541 0.126,-0.125992 0.37518,0.07968 0.53454,0 0.14192,-0.07096 1.53265,-1.46169 1.60362,-1.603615 0.0797,-0.159369 0,-0.35636 0,-0.534541 0.17819,-0.178178 0.42185,-0.309157 0.53453,-0.534537 0.0797,-0.159369 -0.12599,-0.408549 0,-0.534541 0.126,-0.125992 0.40855,0.125992 0.53454,0 0.126,-0.125992 -0.12599,-0.408545 0,-0.534537 0.126,-0.125992 0.40854,0.125992 0.53454,0 0.12599,-0.125992 -0.126,-0.408549 0,-0.534541 0.12599,-0.125992 0.37518,0.07968 0.53454,0 0.22539,-0.112688 0.30916,-0.421846 0.53456,-0.534537 0.15936,-0.07968 0.40854,0.125991 0.53454,0 0.12597,-0.125992 -0.126,-0.408549 0,-0.534541 0.12597,-0.125992 0.40854,0.125992 0.53454,0 1.10595,-1.105979 -1.69011,0.04324 0.53453,-1.069078 0.15936,-0.07968 0.40855,0.125992 0.53454,0 0.126,-0.125992 -0.12599,-0.408546 0,-0.534538 0.126,-0.125992 0.37515,0.07968 0.53454,0 0.45074,-0.225382 0.6183,-0.843698 1.06907,-1.069078 0.15936,-0.07968 0.37518,0.07969 0.53454,0 0.22537,-0.112691 0.35637,-0.356359 0.53454,-0.53454 0.31438,-0.314386 1.89063,-2.014389 2.13815,-2.138156 0.15939,-0.07968 0.40854,0.125992 0.53454,0 0.12599,-0.125992 -0.126,-0.408546 0,-0.534538 0.12599,-0.125992 0.37518,0.07968 0.53454,0 0.22539,-0.112691 0.30916,-0.421849 0.53453,-0.53454 0.15939,-0.07969 0.37518,0.07968 0.53454,0 0.2254,-0.112691 0.30917,-0.421846 0.53454,-0.534538 0.15938,-0.07968 0.40857,0.125992 0.53454,0 0.12599,-0.125992 -0.12597,-0.408548 0,-0.53454 0.12599,-0.125992 0.37518,0.07968 0.53456,0 0.22537,-0.112691 0.30914,-0.421849 0.53454,-0.534538 0.15936,-0.07968 0.37515,0.07969 0.53454,0 0.22537,-0.112691 0.30914,-0.421849 0.53453,-0.53454 0.15936,-0.07968 0.37516,0.07968 0.53454,0 0.22537,-0.112692 0.30914,-0.421849 0.53454,-0.534538 0.15936,-0.07968 0.40854,0.125992 0.53454,0 0.12599,-0.125992 -0.126,-0.408548 0,-0.53454 0.12599,-0.125992 0.37515,0.07968 0.53453,0 0.22538,-0.112692 0.30917,-0.421848 0.53454,-0.534539 0.31875,-0.159369 0.81709,0.251985 1.06908,0 0.12599,-0.125992 -0.126,-0.408547 0,-0.534539 0.12599,-0.125992 0.37518,0.07969 0.53454,0 0.45077,-0.225381 0.6183,-0.843696 1.06907,-1.069078 0.31874,-0.159369 0.75036,0.159369 1.06908,0 0.22539,-0.112691 0.30916,-0.421848 0.53453,-0.534539 0.15939,-0.07968 0.37518,0.07968 0.53454,0 0.2254,-0.112691 0.30917,-0.421848 0.53454,-0.534539 0.15938,-0.07968 0.37518,0.07968 0.53454,0 0.2254,-0.112691 0.30916,-0.421848 0.53456,-0.534539 0.15936,-0.07968 0.37515,0.07968 0.53454,0 0.22537,-0.112691 0.30914,-0.421848 0.53454,-0.534539 0.31871,-0.159369 0.75033,0.159369 1.06907,0 0.22537,-0.112691 0.30914,-0.421848 0.53454,-0.534539 0.42762,-0.213816 1.17599,0.213815 1.60361,0 0.22537,-0.112691 0.30917,-0.421848 0.53454,-0.534539 0.14055,-0.07028 1.85865,0 2.13815,0 0.1782,0 0.35637,0 0.53454,0 0.1782,0 0.40854,0.125992 0.53454,0 0.12599,-0.125992 -0.126,-0.408547 0,-0.534539 0.12599,-0.125992 0.35636,0 0.53453,0 0.1782,0 0.35637,0 0.53454,0 1.0691,0 2.13818,0 3.20725,0 0.17818,0 0.40855,0.125992 0.53454,0 0.126,-0.125992 -0.12599,-0.408547 0,-0.534539 0.126,-0.125992 0.35634,0 0.53454,0 0.17817,0 0.37515,-0.07968 0.53454,0 0.22537,0.112691 0.30916,0.421848 0.53454,0.534539 0.21193,0.10597 1.49434,-0.10928 1.60361,0 0.12599,0.125992 -0.126,0.408547 0,0.534539 0.25199,0.251984 0.81708,-0.251984 1.06907,0 0.126,0.125992 -0.12599,0.408547 0,0.534539 0.25199,0.251984 0.81709,-0.251984 1.06908,0 0.12599,0.125992 -0.126,0.408547 0,0.534539 0.12599,0.125992 0.37518,-0.07968 0.53454,0 0.2254,0.112691 0.30916,0.421848 0.53453,0.534539 0.15939,0.07968 0.37518,-0.07968 0.53454,0 0.2254,0.112691 0.30917,0.421848 0.53454,0.534539 0.21196,0.10597 1.49434,-0.109279 1.60364,0 0.12599,0.125992 -0.12599,0.408547 0,0.534539 0.25196,0.251984 0.81709,-0.251984 1.06908,0 0.12599,0.125992 -0.126,0.408547 0,0.534539 0.26725,0.26727 1.33633,-0.267269 1.60361,0 0.12599,0.125992 -0.126,0.408547 0,0.534539 0.0172,0.01719 1.47397,0 1.60361,0 2.13815,0 4.2763,0 6.41448,0 0.17817,0 0.35634,0 0.53454,0 0.17817,0 0.40854,0.125992 0.53454,0 0.12599,-0.125992 -0.126,-0.408547 0,-0.534539 0.12599,-0.125992 0.35634,0 0.53453,0 0.89091,0 1.78179,0 2.67269,0 1.06908,0 2.13815,0 3.20723,0 0.17819,0 0.40857,-0.125992 0.53454,0 0.12599,0.125992 -0.12597,0.408547 0,0.534539 0.16552,0.165519 2.50719,-0.165518 2.67271,0 0.126,0.125992 -0.12599,0.408547 0,0.534539 0.25196,0.251984 0.75033,-0.159369 1.06908,0 0.22537,0.112691 0.30914,0.421848 0.53453,0.534539 0.15936,0.07969 0.37516,-0.07968 0.53454,0 0.22537,0.112691 0.30917,0.421847 0.53454,0.534539 0.15936,0.07968 0.40854,-0.125992 0.53454,0 0.12599,0.125992 -0.126,0.408548 0,0.53454 0.12861,0.128627 2.00953,-0.128627 2.13815,0 0.12599,0.125992 -0.126,0.408546 0,0.534538 0.12599,0.125992 0.35637,0 0.53454,0 0.17819,0 0.35636,0 0.53453,0 1.06908,0 2.13815,0 3.20726,0 0.17817,0 0.35634,0 0.53453,0 0.17817,0 0.37516,-0.07968 0.53454,0 0.22537,0.112691 0.30914,0.421849 0.53454,0.53454 0.16266,0.08134 1.36287,0 1.60361,0 1.24725,0 2.49452,0 3.74177,0 0.24074,0 1.44094,-0.08134 1.60361,0 0.2254,0.112689 0.30916,0.421847 0.53454,0.534538 0.33599,0.167986 1.80221,-0.167984 2.13817,0 0.22538,0.112691 0.30914,0.421849 0.53454,0.53454 0.42762,0.213815 1.17597,-0.213815 1.60361,0 0.22538,0.112692 0.30917,0.421847 0.53454,0.534538 0.15936,0.07968 0.40855,-0.125992 0.53454,0 0.12599,0.125992 -0.12599,0.408548 0,0.53454 0.0472,0.04716 2.06478,0 0.53454,0"
       id="path2793"
       inkscape:connector-curvature="0" />
  </g>
</svg>
