<?xml version="1.0" encoding="UTF-8" standalone="no"?>
<!-- Created with Inkscape (http://www.inkscape.org/) -->

<svg
   xmlns:dc="http://purl.org/dc/elements/1.1/"
   xmlns:cc="http://creativecommons.org/ns#"
   xmlns:rdf="http://www.w3.org/1999/02/22-rdf-syntax-ns#"
   xmlns:svg="http://www.w3.org/2000/svg"
   xmlns="http://www.w3.org/2000/svg"
   xmlns:xlink="http://www.w3.org/1999/xlink"
   xmlns:sodipodi="http://sodipodi.sourceforge.net/DTD/sodipodi-0.dtd"
   xmlns:inkscape="http://www.inkscape.org/namespaces/inkscape"
   width="1730.6667"
   height="1184"
   viewBox="0 0 457.90558 313.26666"
   version="1.1"
   id="svg1944"
   sodipodi:docname="strelka-sportivnaya-gorkovskaya-2.svg"
   inkscape:version="0.92.3 (2405546, 2018-03-11)">
  <defs
     id="defs1938" />
  <sodipodi:namedview
     id="base"
     pagecolor="#ffffff"
     bordercolor="#666666"
     borderopacity="1.0"
     inkscape:pageopacity="0.0"
     inkscape:pageshadow="2"
     inkscape:zoom="0.49497475"
     inkscape:cx="978.87275"
     inkscape:cy="633.90417"
     inkscape:document-units="mm"
     inkscape:current-layer="layer1"
     showgrid="false"
     inkscape:window-width="1366"
     inkscape:window-height="715"
     inkscape:window-x="0"
     inkscape:window-y="0"
     inkscape:window-maximized="1"
     fit-margin-top="0"
     fit-margin-left="0"
     fit-margin-right="0"
     fit-margin-bottom="0"
     units="px" />
  <metadata
     id="metadata1941">
    <rdf:RDF>
      <cc:Work
         rdf:about="">
        <dc:format>image/svg+xml</dc:format>
        <dc:type
           rdf:resource="http://purl.org/dc/dcmitype/StillImage" />
        <dc:title></dc:title>
      </cc:Work>
    </rdf:RDF>
  </metadata>
  <g
     inkscape:label="Layer 1"
     inkscape:groupmode="layer"
     id="layer1"
     transform="translate(-5.5613631e-4,0.00661361)">
    <image
       sodipodi:absref="/home/aanper/project/luysy-imn-eh/pi/boot/bydefault/web/img/strelka.png"
       y="-0.006613608"
       x="0.00055613631"
       id="image2667"
       xlink:href="file:///home/aanper/project/luysy-imn-eh/pi/boot/bydefault/web/img/strelka.png"
       preserveAspectRatio="none"
       height="313.26666"
       width="457.90558"
       style="fill:none" />
    <ellipse
       style="fill:#00ff00;fill-opacity:1;stroke:#00ff00;stroke-width:0.30000001;stroke-miterlimit:4;stroke-dasharray:none;stroke-opacity:1;paint-order:stroke fill markers"
       id="path2670"
       cx="169.90086"
       cy="79.670769"
       rx="3.2127976"
       ry="3.0238097" />
    <circle
       style="fill:#00ff00;fill-opacity:1;stroke:#00ff00;stroke-width:0.30000001;stroke-miterlimit:4;stroke-dasharray:none;stroke-opacity:1;paint-order:stroke fill markers"
       id="path2672"
       cx="420.87701"
       cy="29.210947"
       r="2.4568453" />
    <ellipse
       style="fill:#00ff00;fill-opacity:1;stroke:#00ff00;stroke-width:0.30000001;stroke-miterlimit:4;stroke-dasharray:none;stroke-opacity:1;paint-order:stroke fill markers"
       id="path2674"
       cx="381.7565"
       cy="308.15735"
       rx="3.4017856"
       ry="2.8348215" />
    <circle
       style="fill:#00ff00;fill-opacity:1;stroke:#00ff00;stroke-width:0.30000001;stroke-miterlimit:4;stroke-dasharray:none;stroke-opacity:1;paint-order:stroke fill markers"
       id="path2676"
       cx="79.753525"
       cy="248.62613"
       r="2.2678571" />
    <ellipse
       style="fill:#00ff00;fill-opacity:1;stroke:#00ff00;stroke-width:0.30000001;stroke-miterlimit:4;stroke-dasharray:none;stroke-opacity:1;paint-order:stroke fill markers"
       id="path2678"
       cx="216.7699"
       cy="220.65588"
       rx="1.7008928"
       ry="1.5119048" />
    <circle
       style="fill:#00ff00;fill-opacity:1;stroke:#00ff00;stroke-width:0.30000001;stroke-miterlimit:4;stroke-dasharray:none;stroke-opacity:1;paint-order:stroke fill markers"
       id="path2680"
       cx="316.93359"
       cy="230.67224"
       r="1.7008928" />
    <path
       style="fill:none;fill-opacity:1;stroke:#00ff00;stroke-width:0.30000001;stroke-miterlimit:4;stroke-dasharray:none;stroke-opacity:1;paint-order:stroke fill markers"
       d="m 168.38036,80.735564 c 0.71271,0 1.42543,0 2.13815,0 0,0.178179 -0.12599,0.408546 0,0.534538 0.25199,0.251984 0.8171,-0.251984 1.06908,0 0.12599,0.125992 -0.12599,0.408548 0,0.53454 0.25198,0.251984 0.81709,-0.251984 1.06908,0 0.12599,0.125992 -0.12599,0.408546 0,0.534538 0.25198,0.251984 0.81709,-0.251984 1.06908,0 0.12599,0.125992 -0.126,0.408548 0,0.53454 0.12599,0.125992 0.37517,-0.07968 0.53454,0 0.22538,0.112689 0.30915,0.421847 0.53453,0.534538 0.15937,0.07968 0.40855,-0.125992 0.53454,0 0.126,0.125992 -0.12599,0.408548 0,0.53454 0.25199,0.251984 0.75034,-0.159369 1.06908,0 0.22538,0.112689 0.30916,0.421847 0.53454,0.534538 0.15937,0.07969 0.37517,-0.07968 0.53454,0 0.22538,0.112691 0.30916,0.421849 0.53454,0.53454 0.15937,0.07968 0.37517,-0.07968 0.53454,0 0.45076,0.22538 0.61831,0.843696 1.06908,1.069078 0.15937,0.07968 0.40854,-0.125992 0.53454,0 0.12599,0.125992 -0.126,0.408546 0,0.534538 0.12599,0.125992 0.37517,-0.07968 0.53453,0 0.24754,0.123767 1.82377,1.82377 2.13816,2.138156 0.17818,0.178181 0.30916,0.421849 0.53454,0.534541 0.15937,0.07968 0.40855,-0.125992 0.53454,0 0.12599,0.125992 -0.12599,0.408545 0,0.534537 0.12599,0.125992 0.37517,-0.07968 0.53454,0 0.45076,0.225383 0.61831,0.843698 1.06908,1.069078 0.15936,0.07969 0.37517,-0.07968 0.53453,0 0.22539,0.112692 0.30916,0.421849 0.53454,0.534541 0.15937,0.07968 0.40855,-0.125992 0.53454,0 0.12599,0.125992 -0.12599,0.408545 0,0.534537 0.12599,0.125992 0.37517,-0.07968 0.53454,0 0.22538,0.112692 0.30916,0.421849 0.53454,0.534541 0.15937,0.07968 0.37517,-0.07968 0.53454,0 0.22538,0.112691 0.30916,0.421849 0.53454,0.534537 0.15937,0.07968 0.40855,-0.125992 0.53454,0 1.10598,1.105983 -1.69009,-0.04323 0.53454,1.069078 0.15937,0.07969 0.37517,-0.07968 0.53454,0 0.22538,0.112692 0.35636,0.35636 0.53453,0.534541 0.17819,0.178178 0.35636,0.356359 0.53455,0.534538 0.89089,0.890899 1.78179,1.781796 2.67269,2.672696 0.71272,0.712719 1.42544,1.425437 2.13816,2.138156 0.35635,0.356361 0.78952,0.649751 1.06907,1.069081 1.93786,3.87572 -0.56345,-0.84518 1.06908,1.60361 0.22101,0.33151 0.25281,0.78736 0.53454,1.06908 0.28173,0.28173 0.78735,0.25282 1.06908,0.53454 0.0343,0.0343 1.0027,2.03859 1.06908,2.13816 0.41933,0.62899 1.15004,0.99885 1.60361,1.60362 0.23906,0.31873 0.31354,0.73757 0.53454,1.06907 0.13978,0.20966 0.35636,0.35636 0.53454,0.53454 0.8909,0.8909 1.7818,1.7818 2.6727,2.6727 0.17818,0.17818 0.39476,0.32487 0.53454,0.53454 0.221,0.3315 0.25281,0.78735 0.53454,1.06907 0.28172,0.28173 0.73757,0.31354 1.06907,0.53454 0.41933,0.27955 0.64975,0.78953 1.06908,1.06908 0.33151,0.22101 0.73757,0.31354 1.06908,0.53454 0.4866,0.3244 1.12983,1.36673 1.60362,1.60362 0.15936,0.0797 0.37517,-0.0797 0.53454,0 0.22538,0.11269 0.30915,0.42184 0.53454,0.53454 0.31873,0.15937 0.81709,-0.25199 1.06907,0 0.126,0.12599 -0.12599,0.40854 0,0.53454 0.10928,0.10927 1.39168,-0.10597 1.60362,0 0.22538,0.11269 0.30916,0.42184 0.53454,0.53453 0.42763,0.21382 1.17599,-0.21381 1.60362,0 0.22538,0.1127 0.30915,0.42185 0.53454,0.53454 0.42763,0.21382 1.17598,-0.21381 1.60361,0 0.22539,0.1127 0.30916,0.42185 0.53454,0.53454 0.33597,0.16799 1.80219,-0.16798 2.13816,0 0.22538,0.11269 0.30916,0.42185 0.53454,0.53454 0.33597,0.16799 1.80218,-0.16798 2.13815,0 0.22539,0.11269 0.30916,0.42185 0.53454,0.53454 0.31874,0.15937 0.75034,-0.15937 1.06908,0 0.22538,0.11269 0.30916,0.42185 0.53454,0.53454 0.31874,0.15937 0.75034,-0.15937 1.06908,0 0.45076,0.22538 0.61831,0.8437 1.06907,1.06908 0.15937,0.0797 0.37518,-0.0797 0.53455,0 0.22538,0.11269 0.30915,0.42185 0.53453,0.53454 0.31874,0.15937 0.75035,-0.15937 1.06908,0 0.22538,0.11269 0.30916,0.42185 0.53454,0.53454 0.31874,0.15937 0.75034,-0.15937 1.06908,0 0.22538,0.11269 0.30916,0.42185 0.53454,0.53453 0.31874,0.15937 0.81709,-0.25198 1.06908,0 0.12599,0.126 -0.126,0.40855 0,0.53454 0.25198,0.25199 0.75034,-0.15936 1.06907,0 0.22539,0.1127 0.30916,0.42185 0.53454,0.53454 0.31874,0.15937 0.75034,-0.15937 1.06908,0 0.22538,0.11269 0.30916,0.42185 0.53454,0.53454 0.15937,0.0797 0.40855,-0.12599 0.53454,0 0.12599,0.12599 -0.12599,0.40855 0,0.53454 0.12599,0.12599 0.37517,-0.0797 0.53454,0 0.22538,0.11269 0.30916,0.42185 0.53454,0.53454 0.31874,0.15937 0.75034,-0.15937 1.06908,0 0.45076,0.22538 0.61831,0.8437 1.06907,1.06908 0.31874,0.15937 0.75034,-0.15937 1.06908,0 0.22538,0.11269 0.30916,0.42185 0.53454,0.53454 0.15937,0.0797 0.37517,-0.0797 0.53454,0 0.22538,0.11269 0.30916,0.42185 0.53454,0.53454 0.31874,0.15937 0.75034,-0.15937 1.06908,0 0.22538,0.11269 0.30916,0.42185 0.53454,0.53453 0.15937,0.0797 0.37517,-0.0797 0.53454,0 0.22538,0.1127 0.30915,0.42185 0.53453,0.53454 0.31874,0.15937 0.8171,-0.25198 1.06908,0 0.12599,0.126 -0.12599,0.40855 0,0.53454 0.25199,0.25199 0.8171,-0.25198 1.06908,0 0.12599,0.12599 -0.12599,0.40855 0,0.53454 0.25198,0.25199 0.81709,-0.25198 1.06908,0 0.12599,0.12599 -0.12599,0.40855 0,0.53454 0.25198,0.25199 0.81709,-0.25198 1.06908,0 0.12599,0.126 -0.126,0.40855 0,0.53454 0.12599,0.12599 0.37517,-0.0797 0.53454,0 0.45076,0.22538 0.61831,0.8437 1.06907,1.06908 0.15937,0.0797 0.40855,-0.12599 0.53454,0 0.12599,0.12599 -0.12599,0.40854 0,0.53454 0.12599,0.12599 0.37517,-0.0797 0.53454,0 0.45077,0.22538 0.61832,0.84369 1.06908,1.06908 0.15937,0.0797 0.40855,-0.126 0.53454,0 0.12599,0.12599 -0.12599,0.40854 0,0.53454 1.42544,0 -0.17818,-0.17818 0.53454,0.53454 0.12599,0.12599 0.37517,-0.0797 0.53454,0 0.45076,0.22538 0.61831,0.84369 1.06907,1.06907 0.15937,0.0797 0.40855,-0.12599 0.53454,0 0.126,0.126 -0.12599,0.40855 0,0.53454 0.126,0.12599 0.37517,-0.0797 0.53454,0 0.22539,0.11269 0.30916,0.42185 0.53454,0.53454 0.15937,0.0797 0.40855,-0.12599 0.53454,0 0.12599,0.12599 -0.12599,0.40855 0,0.53454 0.25198,0.25198 0.75034,-0.15937 1.06908,0 0.22538,0.11269 0.30916,0.42185 0.53454,0.53454 0.15937,0.0797 0.37517,-0.0797 0.53454,0 0.22538,0.11269 0.30915,0.42185 0.53454,0.53454 0.15937,0.0797 0.37517,-0.0797 0.53453,0 0.22539,0.11269 0.30916,0.42185 0.53454,0.53454 0.15938,0.0797 0.37518,-0.0797 0.53454,0 0.2254,0.11269 0.30916,0.42184 0.53454,0.53454 0.33723,0.16861 2.33547,-0.16862 2.67271,0 0.22537,0.11269 0.30914,0.42184 0.53454,0.53454 0.15936,0.0797 0.35634,0 0.53454,0 0.89087,0 1.78178,0 2.67268,0 0.17817,0 0.35637,0 0.53454,0 0.17817,0 0.37518,-0.0797 0.53454,0 0.22537,0.11268 0.30917,0.42184 0.53454,0.53453 0.16253,0.0813 1.76905,0 2.13815,0 1.42544,0 2.85088,0 4.27633,0 1.42541,0 2.85086,0 4.2763,0 0.29837,0 2.428,0.0816 2.67269,0 0.23905,-0.0797 0.29548,-0.45485 0.53453,-0.53453 0.80182,-0.26728 1.8709,0.26726 2.67272,0 0.23905,-0.0797 0.29549,-0.45486 0.53454,-0.53454 0.67614,-0.22538 1.462,0.22538 2.13815,0 0.23905,-0.0797 0.29548,-0.45486 0.53454,-0.53454 0.67614,-0.22539 1.462,0.22538 2.13815,0 0.23905,-0.0797 0.29548,-0.45486 0.53453,-0.53454 0.33809,-0.11269 0.73102,0.11269 1.06908,0 0.23905,-0.0797 0.29549,-0.45486 0.53454,-0.53454 0.48109,-0.16036 1.12254,0.16036 1.60364,0 0.37795,-0.12599 0.68254,-0.43791 1.06907,-0.53454 0.51856,-0.12965 1.09649,0.16904 1.60361,0 0.37796,-0.12599 0.6911,-0.40855 1.06908,-0.53454 0.16904,-0.0563 0.3655,0.0563 0.53454,0 0.37798,-0.12599 0.69109,-0.40855 1.06907,-0.53454 0.16905,-0.0563 0.3655,0.0564 0.53454,0 0.37798,-0.12599 0.69109,-0.40854 1.06908,-0.53454 0.16904,-0.0563 0.36549,0.0563 0.53453,0 0.37799,-0.12599 0.69112,-0.40854 1.06908,-0.53454 0.16904,-0.0563 0.36552,0.0564 0.53454,0 0.37798,-0.12599 0.69112,-0.40854 1.06907,-0.53453 0.50713,-0.16904 1.08506,0.12964 1.60364,0 0.38651,-0.0966 0.69109,-0.40855 1.06908,-0.53454 0.16901,-0.0564 0.36549,0.0563 0.53454,0 0.37795,-0.126 0.69109,-0.40855 1.06907,-0.53454 0.5071,-0.16904 1.09651,0.16903 1.60361,0 0.23905,-0.0797 0.30917,-0.42185 0.53454,-0.53454 0.15936,-0.0797 0.35637,0 0.53454,0 0.35637,0 0.73102,0.11269 1.06907,0 0.23906,-0.0797 0.30917,-0.42185 0.53454,-0.53454 0.23786,-0.11893 1.89368,0.0815 2.13815,0 0.23908,-0.0797 0.30917,-0.42185 0.53457,-0.53454 0.42762,-0.21382 1.17596,0.21381 1.60361,0 0.22537,-0.11269 0.30914,-0.42185 0.53454,-0.53454 0.42762,-0.21382 1.17597,0.21382 1.60361,0 0.22537,-0.11269 0.30917,-0.42185 0.53454,-0.53454 0.21193,-0.10597 1.49434,0.10928 1.60361,0 0.126,-0.12599 -0.12599,-0.40854 0,-0.53454 0.126,-0.12599 0.37518,0.0797 0.53454,0 0.45077,-0.22538 0.61833,-0.84369 1.06908,-1.06908 0.15938,-0.0797 0.40854,0.12599 0.53453,0 0.126,-0.12599 -0.12599,-0.40854 0,-0.53454 0.126,-0.12599 0.37518,0.0797 0.53454,0 0.2254,-0.11269 0.35637,-0.35635 0.53454,-0.53454 0.1782,-0.17817 0.42185,-0.30915 0.53454,-0.53453 0.0797,-0.15937 -0.12597,-0.40855 0,-0.53454 0.12599,-0.126 0.37518,0.0797 0.53456,0 0.10231,-0.0512 2.08698,-2.03584 2.13815,-2.13816 0.0797,-0.15937 0,-0.35636 0,-0.53454 0.17817,-0.35636 0.31353,-0.73757 0.53454,-1.06908 0.13978,-0.20966 0.35634,-0.35635 0.53454,-0.53454 0.53453,-0.53453 1.06907,-1.06907 1.60361,-1.60361 0.41751,-0.41752 1.14236,-1.29612 1.60361,-1.60362 0.33153,-0.221 0.73758,-0.31353 1.06908,-0.53454 0.46125,-0.3075 1.1861,-1.18609 1.60361,-1.60362 0.28144,-0.28141 1.31813,-1.46087 1.60364,-1.60361 0.15936,-0.0797 0.37515,0.0797 0.53454,0 0.45074,-0.22538 0.6183,-0.8437 1.06907,-1.06908 0.15936,-0.0797 0.37516,0.0797 0.53454,0 0.24752,-0.12377 1.82377,-1.82377 2.13815,-2.13816 0.28141,-0.28141 1.46087,-1.31813 1.60362,-1.60361 0.0797,-0.15937 -0.0797,-0.37518 0,-0.53454 1.1123,-2.22463 -0.0369,0.57144 1.06907,-0.53454 0.126,-0.12599 -0.0797,-0.37517 0,-0.53454 0.11269,-0.22538 0.42185,-0.30916 0.53454,-0.53454 0.0797,-0.15937 -0.126,-0.40855 0,-0.53454 0.12599,-0.12599 0.40854,0.12599 0.53454,0 0.12599,-0.12599 -0.0797,-0.37517 0,-0.53454 0.11268,-0.22538 0.42185,-0.30916 0.53453,-0.53454 0.0797,-0.15937 -0.0797,-0.37517 0,-0.53454 0.11272,-0.22538 0.42186,-0.30915 0.53454,-0.53453 0.0797,-0.15937 -0.0797,-0.37518 0,-0.53454 0.11271,-0.22538 0.42185,-0.30916 0.53454,-0.53454 0.0797,-0.15937 -0.0797,-0.37517 0,-0.53454 0.11271,-0.22539 0.42185,-0.30916 0.53454,-0.53454 0.0797,-0.15937 -0.0797,-0.37517 0,-0.53454 0.11271,-0.22538 0.42185,-0.30916 0.53456,-0.53454 0.0797,-0.15937 0,-0.35636 0,-0.53454 0.17817,-0.17818 0.42183,-0.30916 0.53454,-0.53454 0.0797,-0.15937 -0.126,-0.40854 0,-0.53454 0.12597,-0.12599 0.40854,0.126 0.53454,0 0.12599,-0.12599 -0.126,-0.40854 0,-0.53454 0.12599,-0.12599 0.40854,0.126 0.53453,0 0.126,-0.12599 -0.12599,-0.40854 0,-0.53453 1.42542,0 -0.17819,0.17817 0.53454,-0.53455 0.126,-0.12599 0.40854,0.126 0.53454,0 0.12599,-0.12599 -0.126,-0.40854 0,-0.53453 0.12599,-0.12599 0.40854,0.12599 0.53454,0 1.10598,-1.105982 -1.69008,0.0432 0.53453,-1.069081 0.15936,-0.07968 0.40855,0.125991 0.53454,0 0.126,-0.125992 -0.12599,-0.408548 0,-0.53454 0.126,-0.125992 0.37518,0.07968 0.53454,0 0.64146,-0.320723 0.96216,-1.282893 1.60361,-1.603616 0.15939,-0.07968 0.37518,0.07968 0.53454,0 0.64146,-0.320723 0.96218,-1.282893 1.60361,-1.603618 0.15939,-0.07968 0.37518,0.07968 0.53454,0 0.45077,-0.22538 0.61833,-0.843696 1.0691,-1.069078 0.15936,-0.07968 0.40855,0.125991 0.53454,0 1.10596,-1.10598 -1.6901,0.04324 0.53454,-1.069079 0.15936,-0.07968 0.37515,0.07969 0.53454,0 0.22537,-0.112688 0.30914,-0.421846 0.53453,-0.534537 0.15936,-0.07969 0.37516,0.07968 0.53454,0 0.52599,-0.263001 1.61216,-1.875155 2.13815,-2.138156 0.15936,-0.07968 0.40855,0.125992 0.53454,0 1.10599,-1.105982 -1.69008,0.04323 0.53454,-1.069078 0.15936,-0.07968 0.37518,0.07968 0.53454,0 0.22537,-0.112692 0.30916,-0.421849 0.53453,-0.534541 0.15939,-0.07968 0.40855,0.125992 0.53454,0 0.126,-0.125992 -0.12599,-0.408545 0,-0.534537 0.126,-0.125992 0.37518,0.07968 0.53454,0 0.2254,-0.112692 0.30917,-0.421849 0.53454,-0.534541 0.15938,-0.07968 0.37518,0.07968 0.53453,0 0.45078,-0.22538 0.61834,-0.843695 1.06908,-1.069078 0.15939,-0.07968 0.37518,0.07969 0.53456,0 0.22538,-0.112691 0.30914,-0.421849 0.53454,-0.534538 0.15936,-0.07968 0.37515,0.07968 0.53454,0 0.22537,-0.112691 0.30914,-0.421849 0.53454,-0.53454 0.15936,-0.07968 0.40854,0.125992 0.53454,0 0.12599,-0.125992 -0.126,-0.408546 0,-0.534538 0.12599,-0.125992 0.37515,0.07968 0.53453,0 0.22537,-0.112691 0.30914,-0.421849 0.53454,-0.53454 0.31874,-0.159369 0.75033,0.159369 1.06908,0 0.22537,-0.112691 0.30916,-0.421849 0.53453,-0.534538 0.15936,-0.07968 0.37518,0.07968 0.53454,0 0.22537,-0.112691 0.30917,-0.421849 0.53454,-0.53454 0.15936,-0.07968 0.37518,0.07969 0.53454,0 0.22537,-0.112691 0.30916,-0.421849 0.53453,-0.534538 0.31875,-0.159369 0.75036,0.159369 1.06908,0 0.2254,-0.112691 0.30917,-0.421849 0.53454,-0.53454 0.15938,-0.07968 0.37518,0.07968 0.53454,0 0.22539,-0.112691 0.30916,-0.421849 0.53453,-0.534538 0.15939,-0.07968 0.37518,0.07968 0.53454,0 0.2254,-0.112691 0.30917,-0.421849 0.53456,-0.53454 0.31872,-0.159369 0.75034,0.159369 1.06908,0 0.22537,-0.112691 0.30914,-0.421849 0.53454,-0.534538 0.15936,-0.07968 0.37515,0.07968 0.53454,0 0.22537,-0.112691 0.30913,-0.421849 0.53453,-0.53454 0.15936,-0.07968 0.37516,0.07968 0.53454,0 0.22537,-0.112691 0.30917,-0.421849 0.53454,-0.534538 0.15936,-0.07968 0.40854,0.125992 0.53454,0 0.12599,-0.125992 -0.126,-0.408548 0,-0.53454 0.25199,-0.251984 0.75033,0.159369 1.06907,0 0.22537,-0.112691 0.30917,-0.421849 0.53454,-0.534538 0.15936,-0.07968 0.37518,0.07968 0.53454,0 0.2254,-0.112691 0.30916,-0.421849 0.53453,-0.53454 0.31875,-0.159369 0.75036,0.159369 1.06908,0 0.2254,-0.112692 0.30917,-0.421849 0.53454,-0.534538 0.31874,-0.159369 0.75036,0.159367 1.06907,0 0.2254,-0.112691 0.30917,-0.421849 0.53457,-0.53454 0.42762,-0.213815 1.17596,0.213815 1.60361,0 0.22537,-0.112692 0.30914,-0.421849 0.53454,-0.534538 0.33597,-0.167987 1.80218,0.167984 2.13815,0 0.22537,-0.112691 0.30916,-0.421849 0.53454,-0.53454 0.15936,-0.07968 0.35636,0 0.53453,0 0.37889,0 3.06904,0.0691 3.20723,0 0.2254,-0.112692 0.30917,-0.421849 0.53454,-0.534538 0.33724,-0.168614 2.33548,0.168611 2.67271,0 0.22538,-0.112691 0.30914,-0.421849 0.53454,-0.53454 0.19331,-0.09665 2.3009,0 2.67269,0 1.06908,0 2.13815,0 3.20723,0 0.24074,0 1.44094,-0.08134 1.60361,0 0.2254,0.112691 0.30916,0.421849 0.53454,0.53454 0.33599,0.167984 1.80221,-0.167987 2.13817,0 0.22538,0.112689 0.30914,0.421846 0.53454,0.534538 0.16267,0.08134 1.36287,0 1.60361,0 1.06908,0 2.13816,0 3.20723,0 0.1782,0 0.35637,0 0.53454,0 0.1782,0 0.40854,-0.125992 0.53454,0 0.12599,0.125992 -0.126,0.408545 0,0.53454 0.12599,0.125992 0.35636,0 0.53453,0 0.27954,0 1.99761,0.07028 2.13818,0 0.22537,-0.112691 0.30914,-0.421849 0.53454,-0.53454 0.33721,-0.168611 2.33545,0.168611 2.67269,0 0.22537,-0.112692 0.30916,-0.421849 0.53454,-0.534538 0.21193,-0.105971 1.49434,0.109278 1.60361,0 0.12599,-0.125995 -0.126,-0.408548 0,-0.53454 0.25199,-0.251984 0.75033,0.159369 1.06907,0 0.10232,-0.05116 2.08701,-2.035834 2.13815,-2.138156 0.0797,-0.15937 -0.0797,-0.375172 0,-0.534541 0.11272,-0.22538 0.42186,-0.309155 0.53454,-0.534538 0.0797,-0.159369 -0.12599,-0.408545 0,-0.53454 0.126,-0.125992 0.40857,0.125995 0.53454,0 0.25199,-0.251984 -0.15936,-0.75034 0,-1.069078 0.11271,-0.22538 0.42185,-0.309158 0.53454,-0.534538 0.15938,-0.318738 -0.25196,-0.817094 0,-1.069078 0.12599,-0.125992 0.40857,0.125992 0.53456,0 0.0241,-0.02424 0,-2.420662 0,-2.672696 0,-0.178178 -0.12599,-0.408546 0,-0.534538 0.12597,-0.125992 0.40855,0.125992 0.53454,0 0.12597,-0.125992 0,-0.356359 0,-0.53454 0,-0.279522 0.0703,-1.997602 0,-2.138156 -0.11271,-0.22538 -0.42185,-0.309158 -0.53454,-0.534538 -0.21383,-0.427633 0.21381,-1.175986 0,-1.603618 -0.11271,-0.22538 -0.42185,-0.309158 -0.53456,-0.534538 -0.15936,-0.318738 0.25199,-0.817094 0,-1.069078 -0.12597,-0.125992 -0.40855,0.125992 -0.53454,0 -0.12597,-0.125992 0.0797,-0.375171 0,-0.53454 -0.11269,-0.22538 -0.42183,-0.309158 -0.53454,-0.534538 -0.15936,-0.318738 0.15939,-0.750343 0,-1.069078 -0.11268,-0.225383 -0.42182,-0.309158 -0.53454,-0.534541 -0.0797,-0.159369 0.0797,-0.375168 0,-0.534537 -0.22537,-0.450763 -0.84367,-0.618316 -1.06907,-1.069078 -0.0797,-0.159369 0.12599,-0.408549 0,-0.534541 -0.126,-0.125992 -0.40854,0.125992 -0.53454,0 -0.12599,-0.125992 0.126,-0.408545 0,-0.534537 -0.12599,-0.125992 -0.40854,0.125992 -0.53454,0 -0.12599,-0.125992 0.0797,-0.375172 0,-0.534541 -0.071,-0.141925 -1.46169,-1.532654 -1.60361,-1.603615 -0.15936,-0.07968 -0.40854,0.125991 -0.53454,0 -0.12599,-0.125992 0.126,-0.408549 0,-0.534541 -0.12599,-0.125992 -0.37518,0.07968 -0.53453,0 -0.45078,-0.22538 -0.61834,-0.843695 -1.06908,-1.069078 -0.15939,-0.07968 -0.40854,0.125992 -0.53454,0 -0.12599,-0.125992 0.126,-0.408546 0,-0.534538 -0.12599,-0.125991 -0.37518,0.07968 -0.53454,0 -0.22539,-0.112691 -0.30916,-0.421849 -0.53453,-0.53454 -0.15939,-0.07968 -0.40857,0.125992 -0.53454,0 -0.126,-0.125992 0.12597,-0.408546 0,-0.534538 -0.25199,-0.251986 -0.81711,0.251984 -1.0691,0 -0.12597,-0.125992 0.12599,-0.408548 0,-0.53454 -0.12597,-0.125992 -0.37516,0.07968 -0.53454,0 -0.22537,-0.112691 -0.30914,-0.421849 -0.53454,-0.534538 -0.15936,-0.07968 -0.40854,0.125992 -0.53454,0 -0.12599,-0.125992 0.126,-0.408548 0,-0.53454 -0.12599,-0.125992 -0.40854,0.125992 -0.53453,0 -0.126,-0.125992 0.0797,-0.375171 0,-0.534538 -0.11269,-0.225382 -0.35634,-0.356359 -0.53454,-0.53454 -0.31438,-0.314386 -2.01438,-1.890623 -2.13815,-2.138156 -0.0797,-0.159369 0.12599,-0.408546 0,-0.53454 -0.126,-0.125992 -0.40855,0.125994 -0.53454,0 -0.26728,-0.267269 0.26726,-1.336347 0,-1.603616 -0.12599,-0.125992 -0.40854,0.125992 -0.53454,0 -0.12599,-0.125992 0,-0.35636 0,-0.534541 0,-0.890897 0,-1.781796 0,-2.672693 0,-1.425438 0,-2.850875 0,-4.276313 0,-0.178181 0,-0.356359 0,-0.53454 0,-0.178178 -0.12599,-0.408546 0,-0.534538 0.126,-0.125992 0.40855,0.125992 0.53454,0 0.25199,-0.251983 -0.25199,-0.817094 0,-1.069078 0.12599,-0.125992 0.40854,0.125992 0.53454,0 0.12599,-0.125992 -0.126,-0.408548 0,-0.53454 0.12599,-0.125992 0.40854,0.125992 0.53454,0 0.25198,-0.251984 -0.15936,-0.75034 0,-1.069078 0.11268,-0.22538 0.42185,-0.309158 0.53453,-0.534538 0.0703,-0.140552 0,-1.858634 0,-2.138156"
       id="path2856"
       inkscape:connector-curvature="0" />
  </g>
</svg>
